<?xml version="1.0" encoding="UTF-8"?><svg xmlns="http://www.w3.org/2000/svg" viewBox="0 0 41.00246 41"><defs><style>.d{fill:gray;}</style></defs><g id="a"/><g id="b"><g id="c"><path class="d" d="M20.50123,0C9.17871,0,0,9.17816,0,20.5s9.17871,20.5,20.50123,20.5,20.50123-9.17816,20.50123-20.5S31.82375,0,20.50123,0Zm8.71302,26.3015c.79488,.79958,.79488,2.09092,0,2.8905-.79733,.80385-2.09539,.80917-2.89929,.01189l-.01189-.01189-5.80185-5.8015-5.78135,5.8015c-.79733,.80385-2.09539,.80917-2.89929,.01189l-.01189-.01189c-.79488-.79958-.79488-2.09092,0-2.8905l5.80185-5.8015-5.80185-5.8015c-.79488-.79958-.79488-2.09092,0-2.8905,.79733-.80385,2.09539-.80917,2.89929-.01189l.01189,.01189,5.78135,5.8015,5.78135-5.8015c.79733-.80385,2.09539-.80917,2.89929-.01189l.01189,.01189c.79488,.79958,.79488,2.09092,0,2.8905l-5.78135,5.8015,5.80185,5.8015Z"/></g></g></svg>