<?xml version="1.0" encoding="UTF-8"?><svg xmlns="http://www.w3.org/2000/svg" viewBox="0 0 47.2835 40"><defs><style>.d{fill:gray;}</style></defs><g id="a"/><g id="b"><g id="c"><g><path class="d" d="M46.94085,36.74444l-3.37498-5.17007-.64818-7.49111V13.33958c0-1.67905-1.36123-3.0402-3.04038-3.0402-.59417,0-1.14674,.17304-1.61507,.46768-.1468,.07539-.28478,.17393-.40788,.29665l-.12249,.12211-.00819,.00815-5.50629,5.48878-5.33276,1.57896c-.86693,.25684-1.36158,1.16761-1.10496,2.03453,.23606,.79688,1.02468,1.27919,1.82391,1.15261,.07039-.01115,.14073-.02692,.21074-.04772l5.7301-1.69669c.26084-.07738,.4982-.21833,.69095-.41026l2.60156-2.59323v6.12684l-4.86525,5.02878c-.23707,.24505-.41088,.544-.50681,.87104l-1.71501,5.84653c-.32729,1.11541,.31176,2.28494,1.42723,2.61198,.19779,.05801,.39718,.08564,.59337,.08564,.91038,0,1.74973-.59516,2.01877-1.51279l1.56907-5.34844,3.56263-3.6824,.49639,5.73577c.02992,.34554,.1448,.67852,.3346,.96902l3.6639,5.61267c.40357,.61823,1.07733,.9544,1.76457,.9544,.39444,0,.79344-.11076,1.14859-.34257,.97341-.63535,1.24749-1.93941,.61187-2.91299Z"/><path class="d" d="M38.70788,9.28598c2.15277,0,3.89793-1.74507,3.89793-3.89769h-7.79584c0,2.15263,1.74516,3.89769,3.89791,3.89769Z"/><path class="d" d="M32.3933,4.21898h10.21251c0-2.15264-1.74516-3.89769-3.89793-3.89769-1.37666,0-2.58398,.71546-3.27748,1.79294h-3.0371c-.58126,0-1.05244,.47115-1.05244,1.05238s.47118,1.05238,1.05244,1.05238Z"/><path class="d" d="M13.08634,12.6118l4.62955,.6089c1.61002,.21221,2.7911,1.56727,2.84183,3.13977h2.52679V6.3629H13.08634v6.2489Z"/><path class="d" d="M17.50231,14.84369l-5.51412-.72534-6.09031-4.41007c-.10666-.0898-.22047-.17076-.33891-.24541l-.01743-.01262c-.13958-.10107-.28983-.17654-.44517-.22802-.35619-.14643-.74572-.22839-1.1547-.22839-1.67915,0-3.04038,1.36115-3.04038,3.0402v25.49089c0,1.16246,.94235,2.10475,2.10488,2.10475,.03874,0,.07653-.00373,.11475-.0058-.45261-.45101-.73324-1.07447-.73324-1.76232v-14.4656c0-.19367,.15714-.35079,.35081-.35079,.01158,0,.02251,.00231,.0338,.00341h0c.04438,.00431,.08639,.0168,.12443,.03594l.00004,.00003c.03753,.01888,.07096,.04448,.09922,.07485l.00311,.00377c.02704,.02989,.04908,.06433,.06448,.10226l.00211,.00678c.0147,.0385,.02361,.07998,.02361,.12375v14.4656c0,.08964,.00799,.17725,.02083,.26332,.00424,.02846,.01152,.05571,.0171,.08372,.01132,.05684,.02387,.11302,.04047,.16779,.00962,.03176,.02107,.06243,.0324,.09344,.01794,.04906,.03744,.09706,.05947,.14399,.01449,.03089,.02941,.06121,.04558,.0911,.02448,.04523,.05132,.08867,.07948,.13146,.01803,.02742,.0353,.05511,.05477,.08145,.03389,.04583,.07099,.08878,.10899,.13113,.01754,.01954,.03339,.04045,.05176,.05921,.05741,.05862,.11857,.11346,.18351,.16383,.01572,.01219,.03309,.02205,.04923,.03373,.04345,.03147,.08658,.06345,.13283,.09101l.00315-.0019c.0929,.05515,.18934,.10483,.292,.14271,.19498,.05962,.4018,.09214,.61629,.09214,1.16253,0,2.10488-.9423,2.10488-2.10475V14.53577l3.42154,2.47753c.2204,.15941,.47689,.2615,.74662,.29712l5.925,.77946c.0724,.00959,.14434,.01416,.2156,.01416,.8092,0,1.51265-.59973,1.62114-1.42372,.11785-.89639-.5132-1.71856-1.40965-1.83663Z"/><circle class="d" cx="3.94174" cy="3.9415" r="3.94162"/></g></g></g></svg>