<?xml version="1.0" encoding="UTF-8"?><svg xmlns="http://www.w3.org/2000/svg" viewBox="0 0 47.14839 43"><defs><style>.e{fill:none;stroke:gray;stroke-linecap:round;stroke-linejoin:round;stroke-width:4px;}</style></defs><g id="a"/><g id="b"><g id="c"><path id="d" class="e" d="M24.52051,2.65562l4.41189,12.86746c.14488,.39687,.52511,.65854,.94755,.65207h14.27547c.51682-.03067,.96064,.36343,.99131,.88025,.01946,.32791-.13414,.64208-.40486,.82812l-11.54907,7.95273c-.34539,.22957-.49375,.66235-.36185,1.05554l4.41152,12.86821c.29998,.86955-.75219,1.59287-1.53288,1.05554l-11.54907-7.95273c-.35342-.24056-.81799-.24056-1.17141,0l-11.54907,7.95273c-.78294,.53733-1.83285-.18599-1.53288-1.05554l4.40964-12.86821c.1319-.39319-.01646-.82597-.36185-1.05554L2.40592,17.88352c-.42643-.29359-.53413-.87728-.24054-1.30371,.18582-.26991,.4991-.42319,.82624-.40427h14.2751c.42244,.00646,.80267-.2552,.94755-.65207L22.62579,2.65562c.1972-.52321,.78122-.7875,1.30443-.59029,.27251,.10271,.48758,.31779,.59029,.59029Z"/></g></g></svg>