<?xml version="1.0" encoding="UTF-8"?><svg xmlns="http://www.w3.org/2000/svg" viewBox="0 0 46.27642 44"><defs><style>.g{fill:none;stroke:gray;stroke-linecap:round;stroke-linejoin:round;stroke-width:4px;}</style></defs><g id="a"/><g id="b"><g id="c"><g id="d" transform="translate(-928.966 -614.5)"><path id="e" class="g" d="M2,34.52032S17.0634,18.45982,17.0634,6.58861c0-3.99024-2.09496-4.58861-4.18993-4.58861S2.59705,6.08975,2.59705,18.26016c0,9.6761,7.08294,12.17561,8.67902,12.17561,6.7831,0,15.46212-10.18081,15.46212-16.9639,0-1.99544-.99772-2.59383-1.69561-2.59383s-6.4839,1.59609-6.4839,9.87578c0,4.8878,3.19221,6.03447,4.29267,6.03447,3.89073,0,8.78049-8.52813,9.77626-8.52813,1.99481,0-.09952,6.68358,1.09724,6.68358,3.09269,0,4.18993-6.68358,10.47153-6.68358"/><line id="f" class="g" x1="2" y1="42" x2="44.27642" y2="42"/></g></g></g></svg>