<?xml version="1.0" encoding="UTF-8"?><svg xmlns="http://www.w3.org/2000/svg" viewBox="0 0 45.61411 39.9996"><defs><style>.d{fill:gray;}</style></defs><g id="a"/><g id="b"><g id="c"><path class="d" d="M45.22027,36.14728c-.86175-1.52065-18.70516-32.28855-20.22591-34.87366-1.01383-1.72341-3.39633-1.67272-4.41016,0C19.46899,3.14909,1.57489,34.01836,.3076,36.24865c-.86175,1.62203,.15208,3.75095,2.23043,3.75095H43.04054c1.87558,0,3.29495-1.92616,2.17973-3.85232Zm-22.40564,.05069c-2.12904,0-3.80186-1.67272-3.80186-3.80163s1.67282-3.80163,3.80186-3.80163,3.80186,1.67272,3.80186,3.80163-1.67282,3.80163-3.80186,3.80163Zm1.52074-11.91179c0,1.01377-.50691,1.52065-1.52074,1.52065s-1.52074-.50688-1.52074-1.52065l-3.04149-9.88425c0-2.28098,1.52074-4.56196,4.56223-4.56196s4.56223,2.28098,4.56223,4.56196l-3.04149,9.88425Z"/></g></g></svg>