<?xml version="1.0" encoding="UTF-8"?><svg xmlns="http://www.w3.org/2000/svg" viewBox="0 0 47.35452 43.16774"><defs><style>.f{fill:gray;}.g{opacity:.98;}</style></defs><g id="a"/><g id="b"><g id="c"><g class="g"><g id="d"><g id="e"><path class="f" d="M36.50673,43.16748c-.58496,0-1.1709-.17383-1.67773-.52246l-11.15137-7.67871-11.15137,7.67773c-1.05859,.72852-2.45508,.69336-3.47363-.08301-.99707-.75977-1.37988-2.01172-.97363-3.1875l4.19922-12.25586L1.23817,19.51612c-1.2998-.89453-1.62891-2.68066-.73535-3.98242,.55371-.80176,1.49023-1.2793,2.45508-1.23926h13.7168L20.90517,1.95557c.59277-1.57129,2.29395-2.33789,3.80762-1.76758,.79102,.29785,1.41504,.92188,1.71289,1.71289l.01953,.05469,4.23145,12.33887,13.7168-.00098c1.52148-.03125,2.86328,1.1416,2.95605,2.69238,.05957,.99902-.41504,1.96777-1.23828,2.53223l-11.03711,7.59961,4.20312,12.25977c.4043,1.1748,.02051,2.42578-.97852,3.18457-.5293,.40234-1.16016,.60547-1.79199,.60547Zm-24.79785-2.5498l-.00195,.00391,.00195-.00391Zm1.17676-13.08203l.02734,.01953-.02734-.01953Zm21.60547-.01562l-.02539,.0166,.02539-.0166Zm9.44727-11.16406l-.00293,.00195,.00293-.00195Zm-26.64941-2.06152h0Zm12.73242,0h0Z"/></g></g></g></g></g></svg>