<?xml version="1.0" encoding="UTF-8"?><svg xmlns="http://www.w3.org/2000/svg" viewBox="0 0 328.32812 116.15625"><defs><style>.d{letter-spacing:-.03931em;}.e{letter-spacing:-.01001em;}.f{font-size:28px;}.f,.g{font-family:SourceSansPro-Light, Source Sans Pro;}.h{letter-spacing:-.0407em;}.i{letter-spacing:.1691em;}.j{letter-spacing:.16913em;}.k{letter-spacing:-.02989em;}.l{letter-spacing:-.0347em;}.g{font-size:16px;}.m{letter-spacing:-.02501em;}.n{letter-spacing:-.0372em;}.o{letter-spacing:-.02659em;}.p{letter-spacing:.15674em;}.q{letter-spacing:.12195em;}.r{letter-spacing:.12192em;}.s{letter-spacing:.16013em;}.t{letter-spacing:.1196em;}.u{letter-spacing:.11963em;}.v{letter-spacing:.1601em;}.w{letter-spacing:-.0223em;}.x{letter-spacing:.11728em;}.y{letter-spacing:.11731em;}.a`{letter-spacing:-.00998em;}.aa{letter-spacing:-.017em;}.ab{letter-spacing:.14999em;}.ac{letter-spacing:.15002em;}</style></defs><g id="a"/><g id="b"><g id="c"><g><text class="f" transform="translate(.00049 23.24023)"><tspan class="w" x="0" y="0">A</tspan><tspan class="h" x="14.10303" y="0">a</tspan><tspan class="l" x="26.71143" y="0">B</tspan><tspan class="o" x="41.92334" y="0">b</tspan><tspan class="n" x="56.35449" y="0">C</tspan><tspan class="d" x="71.10498" y="0">c</tspan><tspan class="k" x="82.57617" y="0">D</tspan><tspan class="m" x="98.65088" y="0">d</tspan></text><text class="g" transform="translate(138.32275 15.6123)"><tspan class="ab" x="0" y="0">A</tspan><tspan class="x" x="10.81592" y="0"> </tspan><tspan class="ac" x="15.89258" y="0">B</tspan><tspan class="x" x="27.54102" y="0"> </tspan><tspan class="ab" x="32.61768" y="0">C</tspan><tspan class="x" x="44.0415" y="0"> </tspan><tspan class="ab" x="49.11768" y="0">D</tspan><tspan class="x" x="61.18164" y="0"> </tspan><tspan class="ac" x="66.2583" y="0">E</tspan><tspan class="x" x="76.89893" y="0"> </tspan><tspan class="ab" x="81.97559" y="0">F</tspan><tspan class="x" x="92.00732" y="0"> </tspan><tspan class="ab" x="97.08398" y="0">G</tspan><tspan class="y" x="109.16357" y="0"> </tspan><tspan class="ab" x="114.24072" y="0">H</tspan><tspan class="x" x="126.86426" y="0"> </tspan><tspan class="ab" x="131.94092" y="0">I</tspan><tspan class="x" x="138.18066" y="0"> </tspan><tspan class="ab" x="143.25732" y="0">J</tspan><tspan class="y" x="153.04883" y="0"> </tspan><tspan class="ab" x="158.12598" y="0">K</tspan><tspan class="x" x="169.45361" y="0"> </tspan><tspan class="ab" x="174.53027" y="0">L </tspan><tspan class="ab" x="0" y="19.2002">M</tspan><tspan class="u" x="13.6958" y="19.2002"> </tspan><tspan class="ab" x="18.81006" y="19.2002">N</tspan><tspan class="t" x="31.38574" y="19.2002"> </tspan><tspan class="ab" x="36.49951" y="19.2002">O</tspan><tspan class="u" x="49.33105" y="19.2002"> </tspan><tspan class="ab" x="54.44531" y="19.2002">P</tspan><tspan class="u" x="65.62939" y="19.2002"> </tspan><tspan class="ab" x="70.74365" y="19.2002">Q</tspan><tspan class="t" x="83.5752" y="19.2002"> </tspan><tspan class="ab" x="88.68896" y="19.2002">R</tspan><tspan class="u" x="99.79297" y="19.2002"> </tspan><tspan class="ab" x="104.90723" y="19.2002">S</tspan><tspan class="t" x="115.64307" y="19.2002"> </tspan><tspan class="ac" x="120.75684" y="19.2002">T</tspan><tspan class="t" x="131.54102" y="19.2002"> </tspan><tspan class="ab" x="136.65479" y="19.2002">U</tspan><tspan class="u" x="149.19824" y="19.2002"> </tspan><tspan class="ab" x="154.3125" y="19.2002">V</tspan><tspan class="t" x="164.56836" y="19.2002"> </tspan><tspan class="ac" x="169.68164" y="19.2002">W </tspan><tspan class="ab" x="0" y="38.3999">X</tspan><tspan class="q" x="10.11182" y="38.3999"> </tspan><tspan class="ab" x="15.26318" y="38.3999">Y</tspan><tspan class="r" x="24.81494" y="38.3999"> </tspan><tspan class="ab" x="29.96533" y="38.3999">Z</tspan><tspan class="q" x="40.97314" y="38.3999"> </tspan><tspan class="ab" x="46.12402" y="38.3999">a</tspan><tspan class="r" x="56.37988" y="38.3999"> </tspan><tspan class="ac" x="61.53027" y="38.3999">b</tspan><tspan class="r" x="72.60254" y="38.3999"> </tspan><tspan class="ab" x="77.75342" y="38.3999">c</tspan><tspan class="q" x="87.33691" y="38.3999"> </tspan><tspan class="ab" x="92.48828" y="38.3999">d</tspan><tspan class="r" x="103.59229" y="38.3999"> </tspan><tspan class="ab" x="108.74316" y="38.3999">e</tspan><tspan class="q" x="118.87061" y="38.3999"> </tspan><tspan class="ab" x="124.02197" y="38.3999">f</tspan><tspan class="r" x="130.62988" y="38.3999"> </tspan><tspan class="ab" x="135.78076" y="38.3999">g</tspan><tspan class="q" x="145.97266" y="38.3999"> </tspan><tspan class="ab" x="151.12402" y="38.3999">h</tspan><tspan class="r" x="161.97217" y="38.3999"> </tspan><tspan class="ab" x="167.12305" y="38.3999">i</tspan><tspan class="q" x="173.18701" y="38.3999"> </tspan><tspan class="ab" x="178.33838" y="38.3999">j </tspan><tspan class="ab" x="0" y="57.6001">k</tspan><tspan class="i" x="9.82373" y="57.6001"> </tspan><tspan class="ac" x="15.72949" y="57.6001">l</tspan><tspan class="i" x="21.92188" y="57.6001"> </tspan><tspan class="ab" x="27.82764" y="57.6001">m</tspan><tspan class="i" x="43.21973" y="57.6001"> </tspan><tspan class="ab" x="49.12549" y="57.6001">n</tspan><tspan class="j" x="60.03711" y="57.6001"> </tspan><tspan class="ab" x="65.94336" y="57.6001">o</tspan><tspan class="i" x="76.90283" y="57.6001"> </tspan><tspan class="ab" x="82.80859" y="57.6001">p</tspan><tspan class="i" x="93.9126" y="57.6001"> </tspan><tspan class="ac" x="99.81836" y="57.6001">q</tspan><tspan class="i" x="110.92285" y="57.6001"> </tspan><tspan class="ab" x="116.82861" y="57.6001">r</tspan><tspan class="i" x="124.30029" y="57.6001"> </tspan><tspan class="ab" x="130.20557" y="57.6001">s</tspan><tspan class="j" x="139.08545" y="57.6001"> </tspan><tspan class="ab" x="144.99121" y="57.6001">t</tspan><tspan class="i" x="152.3833" y="57.6001"> </tspan><tspan class="ab" x="158.28906" y="57.6001">u</tspan><tspan class="i" x="169.15283" y="57.6001"> </tspan><tspan class="ac" x="175.05859" y="57.6001">v </tspan><tspan class="ab" x="0" y="76.7998">w</tspan><tspan class="s" x="13.35986" y="76.7998"> </tspan><tspan class="ab" x="19.12207" y="76.7998">x</tspan><tspan class="v" x="28.03369" y="76.7998"> </tspan><tspan class="ab" x="33.79541" y="76.7998">y</tspan><tspan class="s" x="43.1709" y="76.7998"> </tspan><tspan class="ab" x="48.93311" y="76.7998">z</tspan><tspan class="v" x="57.79688" y="76.7998"> </tspan><tspan class="ab" x="63.55859" y="76.7998">1</tspan><tspan class="s" x="73.62256" y="76.7998"> </tspan><tspan class="ab" x="79.38477" y="76.7998">2</tspan><tspan class="v" x="89.44873" y="76.7998"> </tspan><tspan class="ac" x="95.21045" y="76.7998">3</tspan><tspan class="v" x="105.2749" y="76.7998"> </tspan><tspan class="ab" x="111.03662" y="76.7998">4</tspan><tspan class="s" x="121.10059" y="76.7998"> </tspan><tspan class="ab" x="126.86279" y="76.7998">5</tspan><tspan class="v" x="136.92676" y="76.7998"> </tspan><tspan class="ab" x="142.68848" y="76.7998">6</tspan><tspan class="s" x="152.75244" y="76.7998"> </tspan><tspan class="ab" x="158.51465" y="76.7998">7</tspan><tspan class="v" x="168.57861" y="76.7998"> </tspan><tspan class="ab" x="174.34033" y="76.7998">8 </tspan><tspan class="ab" x="0" y="96">9</tspan><tspan class="p" x="10.06396" y="96"> </tspan><tspan class="ac" x="15.77197" y="96">0</tspan><tspan class="p" x="25.83643" y="96"> </tspan><tspan class="ab" x="31.54443" y="96">!</tspan><tspan class="p" x="38.08789" y="96"> </tspan><tspan class="ab" x="43.7959" y="96">@</tspan><tspan class="p" x="59.21973" y="96"> </tspan><tspan class="ac" x="64.92725" y="96">£</tspan><tspan class="p" x="74.9917" y="96"> </tspan><tspan class="ab" x="80.69971" y="96">$</tspan><tspan class="p" x="90.76367" y="96"> </tspan><tspan class="ab" x="96.47168" y="96">%</tspan><tspan class="p" x="111.75146" y="96"> </tspan><tspan class="ac" x="117.45947" y="96">^</tspan><tspan class="p" x="127.52393" y="96"> </tspan><tspan class="ab" x="133.23193" y="96">&amp;</tspan><tspan class="p" x="144.83203" y="96"> </tspan><tspan class="ab" x="150.54004" y="96">*</tspan><tspan class="p" x="159.25977" y="96"> </tspan><tspan class="ac" x="164.96729" y="96">(</tspan><tspan class="p" x="171.83154" y="96"> </tspan><tspan class="ab" x="177.53955" y="96">)</tspan></text><text class="g" transform="translate(1.00049 53.90735)"><tspan x="0" y="0">Sou</tspan><tspan class="a`" x="25.35986" y="0">r</tspan><tspan class="aa" x="30.27197" y="0">c</tspan><tspan x="37.18408" y="0">e Sans P</tspan><tspan class="e" x="91.27979" y="0">r</tspan><tspan x="96.19141" y="0">o </tspan><tspan x="0" y="19.2002">Light</tspan></text></g></g></g></svg>