<?xml version="1.0" encoding="UTF-8"?><svg xmlns="http://www.w3.org/2000/svg" viewBox="0 0 327.36816 116.36914"><defs><style>.d{letter-spacing:-.03929em;}.e{letter-spacing:.10226em;}.f{letter-spacing:-.01001em;}.g{letter-spacing:-.03671em;}.h{letter-spacing:-.021em;}.i{letter-spacing:-.02741em;}.j{letter-spacing:.13419em;}.k{letter-spacing:.13223em;}.l{letter-spacing:.1322em;}.m{letter-spacing:-.02469em;}.n{letter-spacing:-.02499em;}.o{letter-spacing:.13083em;}.p{letter-spacing:.13086em;}.q{font-size:28px;}.q,.r{font-family:SourceSansPro-Regular, Source Sans Pro;}.s{letter-spacing:-.0218em;}.t{letter-spacing:.12003em;}.u{letter-spacing:.12em;}.r{font-size:16px;}.v{letter-spacing:-.00998em;}.w{letter-spacing:-.0353em;}.x{letter-spacing:-.02921em;}.y{letter-spacing:.37903em;}.a`{letter-spacing:.379em;}.aa{letter-spacing:.077em;}.ab{letter-spacing:.07703em;}</style></defs><g id="a"/><g id="b"><g id="c"><g><text class="q" transform="translate(.00049 23.24036)"><tspan class="s" x="0" y="0">A</tspan><tspan class="w" x="14.62158" y="0">a</tspan><tspan class="x" x="27.74512" y="0">B</tspan><tspan class="m" x="43.39111" y="0">b</tspan><tspan class="g" x="58.18359" y="0">C</tspan><tspan class="d" x="73.14355" y="0">c</tspan><tspan class="i" x="84.81104" y="0">D</tspan><tspan class="n" x="101.26318" y="0">d</tspan></text><text class="r" transform="translate(138.32275 15.6969)"><tspan class="u" x="0" y="0">A</tspan><tspan class="o" x="10.62402" y="0"> </tspan><tspan class="u" x="15.91748" y="0">B</tspan><tspan class="o" x="27.24561" y="0"> </tspan><tspan class="t" x="32.53906" y="0">C</tspan><tspan class="o" x="43.59521" y="0"> </tspan><tspan class="u" x="48.88867" y="0">D</tspan><tspan class="o" x="60.64844" y="0"> </tspan><tspan class="u" x="65.94189" y="0">E</tspan><tspan class="o" x="76.29346" y="0"> </tspan><tspan class="u" x="81.58691" y="0">F</tspan><tspan class="o" x="91.41064" y="0"> </tspan><tspan class="u" x="96.70361" y="0">G</tspan><tspan class="p" x="108.49561" y="0"> </tspan><tspan class="u" x="113.78955" y="0">H</tspan><tspan class="o" x="126.14111" y="0"> </tspan><tspan class="u" x="131.43457" y="0">I</tspan><tspan class="o" x="137.5625" y="0"> </tspan><tspan class="u" x="142.85596" y="0">J</tspan><tspan class="o" x="152.45557" y="0"> </tspan><tspan class="u" x="157.74902" y="0">K</tspan><tspan class="o" x="168.93262" y="0"> </tspan><tspan class="t" x="174.22607" y="0">L </tspan><tspan class="u" x="0" y="19.19971">M</tspan><tspan class="k" x="13.55176" y="19.19971"> </tspan><tspan class="u" x="18.86768" y="19.19971">N</tspan><tspan class="l" x="31.13916" y="19.19971"> </tspan><tspan class="u" x="36.45459" y="19.19971">O</tspan><tspan class="k" x="48.99854" y="19.19971"> </tspan><tspan class="u" x="54.31445" y="19.19971">P</tspan><tspan class="l" x="65.29004" y="19.19971"> </tspan><tspan class="u" x="70.60547" y="19.19971">Q</tspan><tspan class="k" x="83.14941" y="19.19971"> </tspan><tspan class="u" x="88.46533" y="19.19971">R</tspan><tspan class="l" x="99.48877" y="19.19971"> </tspan><tspan class="t" x="104.8042" y="19.19971">S</tspan><tspan class="l" x="115.26855" y="19.19971"> </tspan><tspan class="u" x="120.58398" y="19.19971">T</tspan><tspan class="l" x="131.08008" y="19.19971"> </tspan><tspan class="t" x="136.39551" y="19.19971">U</tspan><tspan class="l" x="148.63574" y="19.19971"> </tspan><tspan class="u" x="153.95068" y="19.19971">V</tspan><tspan class="k" x="164.11084" y="19.19971"> </tspan><tspan class="u" x="169.42676" y="19.19971">W </tspan><tspan class="u" x="0" y="38.3999">X</tspan><tspan class="j" x="10.12793" y="38.3999"> </tspan><tspan class="u" x="15.4751" y="38.3999">Y</tspan><tspan class="j" x="25.01123" y="38.3999"> </tspan><tspan class="u" x="30.3584" y="38.3999">Z</tspan><tspan class="j" x="40.90234" y="38.3999"> </tspan><tspan class="u" x="46.24951" y="38.3999">a</tspan><tspan class="j" x="56.2334" y="38.3999"> </tspan><tspan class="u" x="61.58008" y="38.3999">b</tspan><tspan class="j" x="72.34766" y="38.3999"> </tspan><tspan class="u" x="77.69482" y="38.3999">c</tspan><tspan class="j" x="86.91064" y="38.3999"> </tspan><tspan class="u" x="92.25781" y="38.3999">d</tspan><tspan class="j" x="103.05762" y="38.3999"> </tspan><tspan class="u" x="108.40479" y="38.3999">e</tspan><tspan class="j" x="118.26025" y="38.3999"> </tspan><tspan class="u" x="123.60742" y="38.3999">f</tspan><tspan class="j" x="130.19922" y="38.3999"> </tspan><tspan class="u" x="135.54639" y="38.3999">g</tspan><tspan class="j" x="145.53027" y="38.3999"> </tspan><tspan class="u" x="150.87695" y="38.3999">h</tspan><tspan class="j" x="161.50098" y="38.3999"> </tspan><tspan class="u" x="166.84814" y="38.3999">i</tspan><tspan class="j" x="172.70361" y="38.3999"> </tspan><tspan class="u" x="178.05078" y="38.3999">j </tspan><tspan class="u" x="0" y="57.59961">k</tspan><tspan class="ab" x="9.83984" y="57.59961"> </tspan><tspan class="u" x="14.27246" y="57.59961">l</tspan><tspan class="aa" x="20.27246" y="57.59961"> </tspan><tspan class="u" x="24.70459" y="57.59961">m</tspan><tspan class="ab" x="39.88818" y="57.59961"> </tspan><tspan class="u" x="44.3208" y="57.59961">n</tspan><tspan class="ab" x="54.99268" y="57.59961"> </tspan><tspan class="u" x="59.42529" y="57.59961">o</tspan><tspan class="aa" x="70.01709" y="57.59961"> </tspan><tspan class="u" x="74.44922" y="57.59961">p</tspan><tspan class="ab" x="85.24902" y="57.59961"> </tspan><tspan class="u" x="89.68164" y="57.59961">q</tspan><tspan class="aa" x="100.48145" y="57.59961"> </tspan><tspan class="t" x="104.91357" y="57.59961">r</tspan><tspan class="aa" x="112.38574" y="57.59961"> </tspan><tspan class="u" x="116.81787" y="57.59961">s</tspan><tspan class="ab" x="125.44189" y="57.59961"> </tspan><tspan class="u" x="129.87451" y="57.59961">t</tspan><tspan class="aa" x="137.20264" y="57.59961"> </tspan><tspan class="u" x="141.63477" y="57.59961">u</tspan><tspan class="ab" x="152.25879" y="57.59961"> </tspan><tspan class="u" x="156.69141" y="57.59961">v</tspan><tspan class="ab" x="166.08301" y="57.59961"> </tspan><tspan class="u" x="170.51562" y="57.59961">w </tspan><tspan class="u" x="0" y="76.7998">x</tspan><tspan class="e" x="9.05566" y="76.7998"> </tspan><tspan class="u" x="13.89209" y="76.7998">y</tspan><tspan class="e" x="23.28369" y="76.7998"> </tspan><tspan class="u" x="28.12012" y="76.7998">z</tspan><tspan class="e" x="36.83984" y="76.7998"> </tspan><tspan class="u" x="41.67627" y="76.7998">1</tspan><tspan class="e" x="51.54834" y="76.7998"> </tspan><tspan class="u" x="56.38477" y="76.7998">2</tspan><tspan class="e" x="66.25684" y="76.7998"> </tspan><tspan class="u" x="71.09326" y="76.7998">3</tspan><tspan class="e" x="80.96533" y="76.7998"> </tspan><tspan class="u" x="85.80176" y="76.7998">4</tspan><tspan class="e" x="95.67383" y="76.7998"> </tspan><tspan class="u" x="100.51025" y="76.7998">5</tspan><tspan class="e" x="110.38232" y="76.7998"> </tspan><tspan class="u" x="115.21875" y="76.7998">6</tspan><tspan class="e" x="125.09082" y="76.7998"> </tspan><tspan class="u" x="129.92725" y="76.7998">7</tspan><tspan class="e" x="139.79932" y="76.7998"> </tspan><tspan class="u" x="144.63574" y="76.7998">8</tspan><tspan class="e" x="154.50781" y="76.7998"> </tspan><tspan class="u" x="159.34424" y="76.7998">9</tspan><tspan class="e" x="169.21631" y="76.7998"> </tspan><tspan class="u" x="174.05273" y="76.7998">0 </tspan><tspan class="u" x="0" y="96">!</tspan><tspan class="y" x="6.54395" y="96"> </tspan><tspan class="u" x="15.80859" y="96">@</tspan><tspan class="y" x="31.28027" y="96"> </tspan><tspan class="u" x="40.54492" y="96">£</tspan><tspan class="y" x="50.41699" y="96"> </tspan><tspan class="u" x="59.68164" y="96">$</tspan><tspan class="y" x="69.55371" y="96"> </tspan><tspan class="u" x="78.81836" y="96">%</tspan><tspan class="y" x="93.92188" y="96"> </tspan><tspan class="u" x="103.18652" y="96">^</tspan><tspan class="y" x="113.05859" y="96"> </tspan><tspan class="u" x="122.32324" y="96">&amp;</tspan><tspan class="y" x="133.9873" y="96"> </tspan><tspan class="u" x="143.25195" y="96">*</tspan><tspan class="a`" x="151.85986" y="96"> </tspan><tspan class="u" x="161.12354" y="96">(</tspan><tspan class="y" x="167.89111" y="96"> </tspan><tspan class="u" x="177.15576" y="96">)</tspan></text><text class="r" transform="translate(1.00049 53.99194)"><tspan x="0" y="0">Sou</tspan><tspan class="f" x="25.91943" y="0">r</tspan><tspan class="h" x="31.31104" y="0">c</tspan><tspan x="38.271" y="0">e Sans P</tspan><tspan class="v" x="93.72607" y="0">r</tspan><tspan x="99.11816" y="0">o </tspan><tspan class="f" x="0" y="19.19971">Re</tspan><tspan x="16.71973" y="19.19971">gular</tspan></text></g></g></g></svg>