<svg xmlns="http://www.w3.org/2000/svg" viewBox="0 0 254 112.73876"><defs><style>.cls-1{fill:#fff;}.cls-2{fill:#8da3b7;}.cls-3{fill:#e6872b;}.cls-4{fill:#8d9092;}.cls-5{fill:#8fb2a6;}.cls-6{fill:#948396;}.cls-7{fill:#f7cc1d;}</style></defs><g id="Layer_2" data-name="Layer 2"><g id="Layer_1-2" data-name="Layer 1"><path class="cls-1" d="M230.85381,44.29592h-5.87963V70.06435h7.38515a7.25718,7.25718,0,0,0,7.00843-7.37406V52.806c0-2.75644.876-8.51012-8.51395-8.51012M254,112.73876H240.617l-7.50662-30.27339h-8.26326v30.27339H212.96865V31.77727s16.01623.06849,19.13992.06849a23.41794,23.41794,0,0,1,5.504.68758V36.6672h5.01147V33.91354c9.50365,5.25883,8.62888,16.26087,8.62888,19.01674V63.06083c0,4.135-1.56412,9.44959-6.51365,14.39918ZM196.94909,39.66609h-7.88553V31.77727H172.67289v80.96149h34.40618V100.47364H184.938V78.19453h18.13592V66.07023H184.80766V44.04239h22.27141V31.77727h-10.13ZM155.02962,50.79685h9.75774V60.80863h-9.75774v5.2616H140.013V44.04239H128.13012v68.69637H140.013V78.19453h15.01658v34.54423h12.13589V31.77727H155.02962ZM115.61837,37.9093h-5.88675v-6.132H84.46075V44.04239H97.22513v68.69637H109.4847V44.04239h13.01237V31.77727h-6.8787Zm-78.7098-6.132h42.041V44.04239H56.68585V65.94157H68.69359v6.26069h6.1331V78.4497H56.68585v22.02394h22.1405v12.26512H44.0369V46.42993L14.50906,112.73876H0Z"/><rect class="cls-2" x="237.67782" y="14.4179" width="4.78163" height="4.88218"/><rect class="cls-3" x="178.5558" y="18.93118" width="8.07221" height="7.59778"/><rect class="cls-4" x="152.02633" y="4.51158" width="9.88256" height="9.62468"/><rect class="cls-5" x="138.26344" width="5.75474" height="5.88126"/><rect class="cls-6" x="92.46776" width="5.88126" height="5.88126"/><rect class="cls-7" x="115.24121" y="14.51347" width="11.88734" height="11.88677"/></g></g></svg>