<?xml version="1.0" encoding="UTF-8"?><svg xmlns="http://www.w3.org/2000/svg" viewBox="0 0 380 82.73589"><defs><style>.d{fill:#696e9f;}.e{fill:#e61f75;}.f{fill:#fff;}.g{fill:#f39610;}.h{fill:#ffc900;}</style></defs><g id="a"/><g id="b"><g id="c"><g><path class="f" d="M114.96863,8.30909h-13.58085V.00044h36.58903V8.30909h-13.58085V59.11876h-9.42734V8.30909Z"/><path class="f" d="M142.58647,59.11876V.00044h9.42734V24.92584h24.1257V.00044h9.42679V59.11876h-9.42679v-25.88427h-24.1257v25.88427h-9.42734Z"/><path class="f" d="M42.55545,12.4626L11.71806,59.1193H.45369L41.43676,.00044h10.30604V59.1193h-9.18735V12.4626Z"/><polygon class="f" points="328.07987 56.55907 365.67976 82.7277 373.20685 82.7277 328.07987 50.05095 338.40438 50.05095 380 79.91746 380 69.64745 351.01604 50.05095 380 50.05095 380 32.65855 342.71844 32.59199 380 6.55698 380 .47413 335.25066 32.57878 328.07987 32.56607 328.07987 29.68622 369.74384 .46956 356.85196 .46956 328.07987 19.65095 328.07987 .46956 310.88156 .46956 310.88156 82.7277 328.07987 82.7277 328.07987 56.55907"/><polygon class="f" points="231.75816 8.30841 231.75816 .00034 198.68399 .00034 198.68399 8.30841 198.68399 25.08509 198.68399 33.31517 198.68399 50.8107 198.68399 59.11877 206.99206 59.11877 231.75816 59.11877 231.75816 50.8107 206.99206 50.8107 206.99206 33.31517 231.43858 33.31517 231.43858 25.08509 206.99206 25.08509 206.99206 8.30841 231.75816 8.30841"/><polygon class="f" points="97.24086 8.3084 97.24086 .00033 64.16669 .00033 64.16669 8.3084 64.16669 25.08508 64.16669 33.31516 64.16669 50.81069 64.16669 59.11876 72.47476 59.11876 97.24086 59.11876 97.24086 50.81069 72.47476 50.81069 72.47476 33.31516 96.92128 33.31516 96.92128 25.08508 72.47476 25.08508 72.47476 8.3084 97.24086 8.3084"/><path class="f" d="M272.81733,34.57497c.15716-.10058,.31822-.20048,.46612-.298,4.95978-3.26954,6.96178-10.03033,6.96178-14.24298,0-7.76626-3.20702-13.08036-7.36105-16.27548-2.61857-2.08296-6.32959-3.04153-11.40541-3.51623-1.82251-.15852-3.88517-.24194-6.23912-.24194h-2.3142l-.00034-.00034h-10.30608V59.11877h9.42736V8.30841h3.7529l.02982,.00068h.20966c4.23423,0,7.50954,.31958,10.06601,1.91714,3.11552,2.07719,5.03326,5.99166,5.03326,9.9865,0,3.07874-.89732,5.88547-2.64932,8.11812-.0508,.06473-.09489,.13388-.14713,.19759-.39,.47589-.80583,.93411-1.2779,1.35053-1.54965,1.32844-3.97921,1.9309-6.3431,2.23757l.02727,.04129,17.81961,26.96095h11.26439l-17.01454-24.54379Z"/><rect class="h" x="34.92156" y="43.74186" width="4.07247" height="73.91559" transform="translate(-43.74186 117.65745) rotate(-90)"/><rect class="g" x="108.83715" y="43.74186" width="4.07247" height="73.91559" transform="translate(30.17373 191.57304) rotate(-90)"/><rect class="e" x="182.75274" y="43.74186" width="4.07247" height="73.91559" transform="translate(104.08932 265.48863) rotate(-90)"/><rect class="d" x="254.63018" y="45.78001" width="4.07247" height="69.83929" transform="translate(175.96675 337.36607) rotate(-90)"/></g></g></g></svg>