<?xml version="1.0" encoding="UTF-8"?><svg xmlns="http://www.w3.org/2000/svg" viewBox="0 0 319.82304 120.06055"><defs><style>.d,.e{letter-spacing:-.01001em;}.e,.f,.g{font-size:16px;}.e,.h{font-family:SourceSansPro-Light, Source Sans Pro;}.i{letter-spacing:-.02002em;}.j{letter-spacing:-.021em;}.k{letter-spacing:-.01999em;}.l{letter-spacing:-.03098em;}.f{font-family:SourceSansPro-Bold, Source Sans Pro;}.m{letter-spacing:-.004em;}.n{letter-spacing:-.01099em;}.g{font-family:SourceSansPro-Regular, Source Sans Pro;}.o{letter-spacing:-.03796em;}.h{font-size:36px;}.p{letter-spacing:-.00998em;}</style></defs><g id="a"/><g id="b"><g id="c"><g><text class="h" transform="translate(183.00391 29.88)"><tspan x="0" y="0">HEADING</tspan></text><text class="f" transform="translate(.00049 72.21204)"><tspan class="d" x="0" y="0">Sou</tspan><tspan class="i" x="26.38379" y="0">r</tspan><tspan class="o" x="32.43115" y="0">c</tspan><tspan class="d" x="39.29541" y="0">e Sans P</tspan><tspan class="k" x="95.80713" y="0">r</tspan><tspan class="p" x="101.85547" y="0">o Bold</tspan></text><text class="f" transform="translate(183.00098 72.21106)"><tspan x="0" y="0">Subh</tspan><tspan class="n" x="36.2876" y="0">e</tspan><tspan x="44.3999" y="0">ading</tspan></text><text class="g" transform="translate(.00098 115.38831)"><tspan class="d" x="0" y="0">Sou</tspan><tspan class="i" x="25.43945" y="0">r</tspan><tspan class="l" x="30.6709" y="0">c</tspan><tspan class="d" x="37.47119" y="0">e Sans P</tspan><tspan class="k" x="91.646" y="0">r</tspan><tspan class="p" x="96.87793" y="0">o </tspan><tspan class="k" x="108.43018" y="0">Re</tspan><tspan class="d" x="124.82959" y="0">gular</tspan></text><text class="g" transform="translate(183.00391 115.38831)"><tspan x="0" y="0">Body </tspan><tspan class="j" x="37.63135" y="0">c</tspan><tspan x="44.59131" y="0">o</tspan><tspan class="m" x="53.26318" y="0">p</tspan><tspan x="62.0791" y="0">y</tspan></text><text class="e" transform="translate(.00049 30.50012)"><tspan x="0" y="0">SOURCE SANS PRO LIGHT</tspan></text></g></g></g></svg>