<?xml version="1.0" encoding="UTF-8"?><svg xmlns="http://www.w3.org/2000/svg" viewBox="0 0 330.01855 116.09961"><defs><style>.d{letter-spacing:.2067em;}.e{letter-spacing:.20667em;}.f{letter-spacing:.22em;}.g{letter-spacing:.21997em;}.h{letter-spacing:.22693em;}.i{letter-spacing:.22696em;}.j{letter-spacing:-.043em;}.k{letter-spacing:-.02089em;}.l{letter-spacing:.18137em;}.m{letter-spacing:.18134em;}.n{font-size:28px;}.n,.o{font-family:DensiaSans, Densia Sans;}.p{letter-spacing:-.02499em;}.q{letter-spacing:.26184em;}.r{letter-spacing:.26187em;}.s{letter-spacing:.26233em;}.t{letter-spacing:.2623em;}.u{letter-spacing:-.03741em;}.v{letter-spacing:-.0286em;}.w{letter-spacing:-.02201em;}.x{letter-spacing:.37463em;}.y{letter-spacing:.3746em;}.a`{letter-spacing:-.0353em;}.aa{letter-spacing:-.0328em;}.o{font-size:16px;}</style></defs><g id="a"/><g id="b"><g id="c"><g><text class="n" transform="translate(0 24.49963)"><tspan class="k" x="0" y="0">A</tspan><tspan class="j" x="10.83887" y="0">a</tspan><tspan class="u" x="19.6582" y="0">B</tspan><tspan class="v" x="30.28662" y="0">b</tspan><tspan class="w" x="39.9292" y="0">C</tspan><tspan class="a`" x="50.20459" y="0">c</tspan><tspan class="aa" x="57.896" y="0">D</tspan><tspan class="p" x="69.35303" y="0">d</tspan></text><text class="o" transform="translate(138.32227 16.25989)"><tspan class="f" x="0" y="0">A</tspan><tspan class="h" x="10.04785" y="0"> </tspan><tspan class="f" x="16.33447" y="0">B</tspan><tspan class="h" x="26.52637" y="0"> </tspan><tspan class="f" x="32.81299" y="0">C</tspan><tspan class="h" x="42.55713" y="0"> </tspan><tspan class="f" x="48.84375" y="0">D</tspan><tspan class="i" x="59.43555" y="0"> </tspan><tspan class="f" x="65.72266" y="0">E</tspan><tspan class="h" x="74.68262" y="0"> </tspan><tspan class="f" x="80.96924" y="0">F</tspan><tspan class="h" x="89.9292" y="0"> </tspan><tspan class="f" x="96.21582" y="0">G</tspan><tspan class="h" x="106.59961" y="0"> </tspan><tspan class="f" x="112.88623" y="0">H</tspan><tspan class="h" x="123.92627" y="0"> </tspan><tspan class="f" x="130.21289" y="0">I</tspan><tspan class="h" x="138.05273" y="0"> </tspan><tspan class="f" x="144.33936" y="0">J</tspan><tspan class="i" x="153.93896" y="0"> </tspan><tspan class="f" x="160.22607" y="0">K</tspan><tspan class="h" x="170.43408" y="0"> </tspan><tspan class="f" x="176.7207" y="0">L </tspan><tspan class="f" x="0" y="19.2002">M</tspan><tspan class="s" x="11.68018" y="19.2002"> </tspan><tspan class="f" x="18.5332" y="19.2002">N</tspan><tspan class="s" x="29.7334" y="19.2002"> </tspan><tspan class="f" x="36.58643" y="19.2002">O</tspan><tspan class="t" x="47.2583" y="19.2002"> </tspan><tspan class="f" x="54.11084" y="19.2002">P</tspan><tspan class="s" x="64.14307" y="19.2002"> </tspan><tspan class="f" x="70.99609" y="19.2002">Q</tspan><tspan class="s" x="81.66797" y="19.2002"> </tspan><tspan class="f" x="88.521" y="19.2002">R</tspan><tspan class="s" x="98.9209" y="19.2002"> </tspan><tspan class="f" x="105.77393" y="19.2002">S</tspan><tspan class="s" x="115.40576" y="19.2002"> </tspan><tspan class="g" x="122.25879" y="19.2002">T</tspan><tspan class="s" x="131.37793" y="19.2002"> </tspan><tspan class="f" x="138.23096" y="19.2002">U</tspan><tspan class="s" x="148.95068" y="19.2002"> </tspan><tspan class="f" x="155.80371" y="19.2002">V</tspan><tspan class="s" x="165.85156" y="19.2002"> </tspan><tspan class="f" x="172.70459" y="19.2002">W </tspan><tspan class="f" x="0" y="38.3999">X</tspan><tspan class="d" x="10.27197" y="38.3999"> </tspan><tspan class="f" x="16.23486" y="38.3999">Y</tspan><tspan class="d" x="26.28271" y="38.3999"> </tspan><tspan class="f" x="32.24561" y="38.3999">Z</tspan><tspan class="e" x="41.17334" y="38.3999"> </tspan><tspan class="f" x="47.13574" y="38.3999">a</tspan><tspan class="d" x="56.38379" y="38.3999"> </tspan><tspan class="f" x="62.34668" y="38.3999">b</tspan><tspan class="d" x="71.83447" y="38.3999"> </tspan><tspan class="f" x="77.79736" y="38.3999">c</tspan><tspan class="d" x="86.27734" y="38.3999"> </tspan><tspan class="f" x="92.24023" y="38.3999">d</tspan><tspan class="d" x="101.72803" y="38.3999"> </tspan><tspan class="f" x="107.69092" y="38.3999">e</tspan><tspan class="e" x="116.53906" y="38.3999"> </tspan><tspan class="f" x="122.50146" y="38.3999">f</tspan><tspan class="d" x="129.70166" y="38.3999"> </tspan><tspan class="f" x="135.66455" y="38.3999">g</tspan><tspan class="d" x="144.86475" y="38.3999"> </tspan><tspan class="f" x="150.82764" y="38.3999">h</tspan><tspan class="d" x="160.41162" y="38.3999"> </tspan><tspan class="f" x="166.37451" y="38.3999">i</tspan><tspan class="d" x="172.96631" y="38.3999"> </tspan><tspan class="f" x="178.9292" y="38.3999">j </tspan><tspan class="f" x="0" y="57.6001">k</tspan><tspan class="l" x="9.104" y="57.6001"> </tspan><tspan class="f" x="14.66162" y="57.6001">l</tspan><tspan class="l" x="21.06152" y="57.6001"> </tspan><tspan class="f" x="26.61914" y="57.6001">m</tspan><tspan class="m" x="39.22705" y="57.6001"> </tspan><tspan class="f" x="44.78418" y="57.6001">n</tspan><tspan class="l" x="54.36816" y="57.6001"> </tspan><tspan class="f" x="59.92578" y="57.6001">o</tspan><tspan class="l" x="69.31738" y="57.6001"> </tspan><tspan class="f" x="74.875" y="57.6001">p</tspan><tspan class="l" x="84.36279" y="57.6001"> </tspan><tspan class="f" x="89.92041" y="57.6001">q</tspan><tspan class="m" x="99.4082" y="57.6001"> </tspan><tspan class="f" x="104.96533" y="57.6001">r</tspan><tspan class="l" x="112.67725" y="57.6001"> </tspan><tspan class="f" x="118.23486" y="57.6001">s</tspan><tspan class="l" x="126.85889" y="57.6001"> </tspan><tspan class="f" x="132.4165" y="57.6001">t</tspan><tspan class="l" x="139.45654" y="57.6001"> </tspan><tspan class="f" x="145.01416" y="57.6001">u</tspan><tspan class="l" x="154.59814" y="57.6001"> </tspan><tspan class="f" x="160.15576" y="57.6001">v</tspan><tspan class="m" x="168.8916" y="57.6001"> </tspan><tspan class="f" x="174.44873" y="57.6001">w </tspan><tspan class="f" x="0" y="76.7998">x</tspan><tspan class="q" x="8.64014" y="76.7998"> </tspan><tspan class="f" x="15.48535" y="76.7998">y</tspan><tspan class="q" x="24.0293" y="76.7998"> </tspan><tspan class="f" x="30.87451" y="76.7998">z</tspan><tspan class="q" x="38.8584" y="76.7998"> </tspan><tspan class="f" x="45.70361" y="76.7998">1</tspan><tspan class="q" x="53.5752" y="76.7998"> </tspan><tspan class="f" x="60.42041" y="76.7998">2</tspan><tspan class="q" x="69.74854" y="76.7998"> </tspan><tspan class="f" x="76.59375" y="76.7998">3</tspan><tspan class="r" x="86.30566" y="76.7998"> </tspan><tspan class="g" x="93.15137" y="76.7998">4</tspan><tspan class="r" x="103.08643" y="76.7998"> </tspan><tspan class="f" x="109.93213" y="76.7998">5</tspan><tspan class="q" x="119.56396" y="76.7998"> </tspan><tspan class="f" x="126.40918" y="76.7998">6</tspan><tspan class="q" x="136.20117" y="76.7998"> </tspan><tspan class="f" x="143.04639" y="76.7998">7</tspan><tspan class="q" x="152.13428" y="76.7998"> </tspan><tspan class="f" x="158.97949" y="76.7998">8</tspan><tspan class="q" x="168.8833" y="76.7998"> </tspan><tspan class="f" x="175.72852" y="76.7998">9 </tspan><tspan class="f" x="0" y="96">0</tspan><tspan class="x" x="10.03174" y="96"> </tspan><tspan class="f" x="18.68164" y="96">!</tspan><tspan class="y" x="25.43359" y="96"> </tspan><tspan class="f" x="34.08301" y="96">@</tspan><tspan class="x" x="46.40283" y="96"> </tspan><tspan class="f" x="55.05273" y="96">£</tspan><tspan class="x" x="63.85254" y="96"> </tspan><tspan class="f" x="72.50244" y="96">$</tspan><tspan class="y" x="82.13428" y="96"> </tspan><tspan class="f" x="90.78369" y="96">%</tspan><tspan class="x" x="102.04785" y="96"> </tspan><tspan class="f" x="110.69775" y="96">^</tspan><tspan class="x" x="118.69775" y="96"> </tspan><tspan class="f" x="127.34766" y="96">&amp;</tspan><tspan class="y" x="138.5957" y="96"> </tspan><tspan class="f" x="147.24512" y="96">*</tspan><tspan class="x" x="153.94922" y="96"> </tspan><tspan class="f" x="162.59912" y="96">(</tspan><tspan class="x" x="169.73486" y="96"> </tspan><tspan class="f" x="178.38477" y="96">)</tspan></text><text class="o" transform="translate(0 54.65356)"><tspan x="0" y="0">Densia Sans Regular</tspan></text></g></g></g></svg>