<?xml version="1.0" encoding="UTF-8"?><svg xmlns="http://www.w3.org/2000/svg" viewBox="0 0 325.31445 116.08594"><defs><style>.d{letter-spacing:.02502em;}.e{letter-spacing:.02499em;}.f{letter-spacing:-.01718em;}.g{letter-spacing:-.00897em;}.h{letter-spacing:-.0471em;}.i{letter-spacing:.04309em;}.j{letter-spacing:-.02501em;}.k{font-size:28px;}.k,.l{font-family:Montserrat-Regular, Montserrat;}.m{letter-spacing:-.008em;}.n{letter-spacing:-.04989em;}.o{letter-spacing:-.00003em;}.p{letter-spacing:.34766em;}.q{letter-spacing:.34769em;}.r{letter-spacing:-.0317em;}.l{font-size:16px;}.s{letter-spacing:-.00418em;}.t{letter-spacing:.05261em;}.u{letter-spacing:.05258em;}.v{letter-spacing:-.0351em;}.w{letter-spacing:-.00415em;}.x{letter-spacing:.0192em;}.y{letter-spacing:.01923em;}.a`{letter-spacing:-.0263em;}</style></defs><g id="a"/><g id="b"><g id="c"><g><text class="k" transform="translate(0 23.79932)"><tspan class="r" x="0" y="0">A</tspan><tspan class="n" x="19.18799" y="0">a</tspan><tspan class="v" x="34.31104" y="0">B</tspan><tspan class="a`" x="54.43994" y="0">b</tspan><tspan class="h" x="72.6875" y="0">C</tspan><tspan class="j" x="91.50049" y="0">c</tspan></text><text class="l" transform="translate(138.32227 15.89453)"><tspan class="e" x="0" y="0">A</tspan><tspan class="x" x="11.87158" y="0"> </tspan><tspan class="e" x="16.37061" y="0">B</tspan><tspan class="y" x="28.83447" y="0"> </tspan><tspan class="e" x="33.33398" y="0">C</tspan><tspan class="x" x="45.23779" y="0"> </tspan><tspan class="e" x="49.73682" y="0">D</tspan><tspan class="x" x="63.35254" y="0"> </tspan><tspan class="e" x="67.85156" y="0">E</tspan><tspan class="x" x="78.95508" y="0"> </tspan><tspan class="e" x="83.4541" y="0">F</tspan><tspan class="y" x="93.98193" y="0"> </tspan><tspan class="e" x="98.48145" y="0">G</tspan><tspan class="x" x="111.24951" y="0"> </tspan><tspan class="e" x="115.74854" y="0">H</tspan><tspan class="x" x="129.15625" y="0"> </tspan><tspan class="e" x="133.65527" y="0">I</tspan><tspan class="x" x="138.88721" y="0"> </tspan><tspan class="e" x="143.38623" y="0">J</tspan><tspan class="y" x="151.80225" y="0"> </tspan><tspan class="e" x="156.30176" y="0">K</tspan><tspan class="x" x="168.07764" y="0"> </tspan><tspan class="e" x="172.57666" y="0">L </tspan><tspan class="e" x="0" y="19.2002">M</tspan><tspan class="f" x="15.67969" y="19.2002"> </tspan><tspan class="e" x="19.59668" y="19.2002">N</tspan><tspan class="f" x="33.00439" y="19.2002"> </tspan><tspan class="d" x="36.92139" y="19.2002">O</tspan><tspan class="f" x="50.74561" y="19.2002"> </tspan><tspan class="e" x="54.6626" y="19.2002">P</tspan><tspan class="f" x="66.55029" y="19.2002"> </tspan><tspan class="e" x="70.46729" y="19.2002">Q</tspan><tspan class="f" x="84.29102" y="19.2002"> </tspan><tspan class="e" x="88.20801" y="19.2002">R</tspan><tspan class="f" x="100.17578" y="19.2002"> </tspan><tspan class="e" x="104.09277" y="19.2002">S</tspan><tspan class="f" x="114.33252" y="19.2002"> </tspan><tspan class="e" x="118.24951" y="19.2002">T</tspan><tspan class="f" x="127.83301" y="19.2002"> </tspan><tspan class="d" x="131.75" y="19.2002">U</tspan><tspan class="f" x="144.82227" y="19.2002"> </tspan><tspan class="e" x="148.73926" y="19.2002">V</tspan><tspan class="f" x="160.30713" y="19.2002"> </tspan><tspan class="e" x="164.22412" y="19.2002">W </tspan><tspan class="e" x="0" y="38.40039">X</tspan><tspan class="t" x="10.896" y="38.40039"> </tspan><tspan class="e" x="15.92969" y="38.40039">Y</tspan><tspan class="t" x="26.48926" y="38.40039"> </tspan><tspan class="e" x="31.52295" y="38.40039">Z</tspan><tspan class="u" x="42.33838" y="38.40039"> </tspan><tspan class="d" x="47.37158" y="38.40039">a</tspan><tspan class="u" x="57.21191" y="38.40039"> </tspan><tspan class="d" x="62.24512" y="38.40039">b</tspan><tspan class="u" x="73.49365" y="38.40039"> </tspan><tspan class="e" x="78.52686" y="38.40039">c</tspan><tspan class="t" x="87.93457" y="38.40039"> </tspan><tspan class="e" x="92.96826" y="38.40039">d</tspan><tspan class="t" x="104.21582" y="38.40039"> </tspan><tspan class="e" x="109.24951" y="38.40039">e</tspan><tspan class="t" x="119.31299" y="38.40039"> </tspan><tspan class="e" x="124.34668" y="38.40039">f</tspan><tspan class="u" x="130.17041" y="38.40039"> </tspan><tspan class="d" x="135.20361" y="38.40039">g</tspan><tspan class="u" x="146.57959" y="38.40039"> </tspan><tspan class="d" x="151.61279" y="38.40039">h</tspan><tspan class="u" x="162.84473" y="38.40039"> </tspan><tspan class="e" x="167.87793" y="38.40039">i</tspan><tspan class="t" x="172.58203" y="38.40039"> </tspan><tspan class="e" x="177.61572" y="38.40039">j </tspan><tspan class="e" x="0" y="57.6001">k</tspan><tspan class="w" x="10.01611" y="57.6001"> </tspan><tspan class="e" x="14.1416" y="57.6001">l</tspan><tspan class="w" x="18.8457" y="57.6001"> </tspan><tspan class="d" x="22.97119" y="57.6001">m</tspan><tspan class="s" x="40.34766" y="57.6001"> </tspan><tspan class="d" x="44.47266" y="57.6001">n</tspan><tspan class="w" x="55.70459" y="57.6001"> </tspan><tspan class="e" x="59.83008" y="57.6001">o</tspan><tspan class="w" x="70.26172" y="57.6001"> </tspan><tspan class="e" x="74.38721" y="57.6001">p</tspan><tspan class="w" x="85.63525" y="57.6001"> </tspan><tspan class="e" x="89.76074" y="57.6001">q</tspan><tspan class="w" x="101.00879" y="57.6001"> </tspan><tspan class="e" x="105.13428" y="57.6001">r</tspan><tspan class="w" x="111.94971" y="57.6001"> </tspan><tspan class="e" x="116.0752" y="57.6001">s</tspan><tspan class="w" x="124.29883" y="57.6001"> </tspan><tspan class="d" x="128.42432" y="57.6001">t</tspan><tspan class="w" x="135.32031" y="57.6001"> </tspan><tspan class="e" x="139.4458" y="57.6001">u</tspan><tspan class="w" x="150.61377" y="57.6001"> </tspan><tspan class="e" x="154.73926" y="57.6001">v</tspan><tspan class="w" x="163.81104" y="57.6001"> </tspan><tspan class="e" x="167.93652" y="57.6001">w </tspan><tspan class="e" x="0" y="76.80029">x</tspan><tspan class="i" x="8.94385" y="76.80029"> </tspan><tspan class="d" x="13.8252" y="76.80029">y</tspan><tspan class="i" x="22.89746" y="76.80029"> </tspan><tspan class="e" x="27.77881" y="76.80029">z</tspan><tspan class="i" x="36.35449" y="76.80029"> </tspan><tspan class="d" x="41.23584" y="76.80029">1</tspan><tspan class="i" x="47.41211" y="76.80029"> </tspan><tspan class="e" x="52.29346" y="76.80029">2</tspan><tspan class="i" x="61.78125" y="76.80029"> </tspan><tspan class="d" x="66.6626" y="76.80029">3</tspan><tspan class="i" x="76.08691" y="76.80029"> </tspan><tspan class="e" x="80.96826" y="76.80029">4</tspan><tspan class="i" x="91.94434" y="76.80029"> </tspan><tspan class="d" x="96.82568" y="76.80029">5</tspan><tspan class="i" x="106.28223" y="76.80029"> </tspan><tspan class="e" x="111.16357" y="76.80029">6</tspan><tspan class="i" x="121.30713" y="76.80029"> </tspan><tspan class="d" x="126.18848" y="76.80029">7</tspan><tspan class="i" x="136.0127" y="76.80029"> </tspan><tspan class="e" x="140.89404" y="76.80029">8</tspan><tspan class="i" x="151.50195" y="76.80029"> </tspan><tspan class="d" x="156.3833" y="76.80029">9</tspan><tspan class="i" x="166.52734" y="76.80029"> </tspan><tspan class="e" x="171.40869" y="76.80029">0 </tspan><tspan class="e" x="0" y="96">!</tspan><tspan class="q" x="4.56006" y="96"> </tspan><tspan class="e" x="14.31494" y="96">@</tspan><tspan class="q" x="31.24268" y="96"> </tspan><tspan class="e" x="40.99756" y="96">£</tspan><tspan class="q" x="51.58936" y="96"> </tspan><tspan class="e" x="61.34424" y="96">$</tspan><tspan class="q" x="71.58398" y="96"> </tspan><tspan class="d" x="81.33887" y="96">%</tspan><tspan class="p" x="95.00293" y="96"> </tspan><tspan class="d" x="104.75732" y="96">^</tspan><tspan class="q" x="114.37354" y="96"> </tspan><tspan class="e" x="124.12842" y="96">&amp;</tspan><tspan class="q" x="135.23242" y="96"> </tspan><tspan class="e" x="144.9873" y="96">*</tspan><tspan class="q" x="151.56299" y="96"> </tspan><tspan class="e" x="161.31787" y="96">(</tspan><tspan class="q" x="166.98145" y="96"> </tspan><tspan class="e" x="176.73633" y="96">)</tspan></text><text class="l" transform="translate(0 54.28857)"><tspan x="0" y="0">Montse</tspan><tspan class="m" x="60.12793" y="0">r</tspan><tspan class="g" x="66.41602" y="0">r</tspan><tspan class="o" x="72.68848" y="0">at </tspan><tspan x="0" y="19.2002">Regular</tspan></text></g></g></g></svg>