<?xml version="1.0" encoding="UTF-8"?><svg xmlns="http://www.w3.org/2000/svg" viewBox="0 0 325.10156 116.15039"><defs><style>.d{letter-spacing:.01266em;}.e{letter-spacing:.0127em;}.f{letter-spacing:-.02991em;}.g{letter-spacing:-.03131em;}.h{letter-spacing:-.03134em;}.i{letter-spacing:-.03469em;}.j{letter-spacing:-.0229em;}.k{letter-spacing:-.02499em;}.l{letter-spacing:-.04171em;}.m{letter-spacing:-.004em;}.n{letter-spacing:-.00699em;}.o{letter-spacing:.31604em;}.p{letter-spacing:.31601em;}.q{letter-spacing:-.00003em;}.r{font-size:28px;}.r,.s{font-family:Montserrat-Bold, Montserrat;}.t{letter-spacing:.00003em;}.u{letter-spacing:.00638em;}.v{letter-spacing:.00641em;}.w{letter-spacing:-.03256em;}.x{letter-spacing:-.03259em;}.y{letter-spacing:.02591em;}.a`{letter-spacing:.02594em;}.aa{letter-spacing:-.02611em;}.s{font-size:16px;}</style></defs><g id="a"/><g id="b"><g id="c"><g><text class="r" transform="translate(.25098 23.79932)"><tspan class="f" x="0" y="0">A</tspan><tspan class="i" x="20.61035" y="0">a</tspan><tspan class="aa" x="36.91504" y="0">B</tspan><tspan class="j" x="57.604" y="0">b</tspan><tspan class="l" x="76.28271" y="0">C</tspan><tspan class="k" x="95.63818" y="0">c</tspan></text><text class="s" transform="translate(138.57324 15.89453)"><tspan x="0" y="0">A</tspan><tspan class="u" x="12.25586" y="0"> </tspan><tspan x="16.88574" y="0">B</tspan><tspan class="u" x="29.12549" y="0"> </tspan><tspan x="33.75537" y="0">C</tspan><tspan class="v" x="45.4834" y="0"> </tspan><tspan x="50.11377" y="0">D</tspan><tspan class="u" x="63.32959" y="0"> </tspan><tspan x="67.95947" y="0">E</tspan><tspan class="u" x="78.69531" y="0"> </tspan><tspan x="83.3252" y="0">F</tspan><tspan class="u" x="93.54883" y="0"> </tspan><tspan x="98.17871" y="0">G</tspan><tspan class="u" x="110.51465" y="0"> </tspan><tspan x="115.14453" y="0">H</tspan><tspan class="u" x="128.07227" y="0"> </tspan><tspan x="132.70215" y="0">I</tspan><tspan class="v" x="137.94971" y="0"> </tspan><tspan x="142.58008" y="0">J</tspan><tspan class="u" x="151.23584" y="0"> </tspan><tspan x="155.86572" y="0">K</tspan><tspan class="u" x="167.70557" y="0"> </tspan><tspan x="172.33545" y="0">L </tspan><tspan x="0" y="19.2002">M</tspan><tspan class="x" x="15.27979" y="19.2002"> </tspan><tspan x="19.28613" y="19.2002">N</tspan><tspan class="w" x="32.21387" y="19.2002"> </tspan><tspan x="36.2207" y="19.2002">O</tspan><tspan class="x" x="49.72461" y="19.2002"> </tspan><tspan x="53.73096" y="19.2002">P</tspan><tspan class="w" x="65.44287" y="19.2002"> </tspan><tspan x="69.44971" y="19.2002">Q</tspan><tspan class="x" x="82.95361" y="19.2002"> </tspan><tspan x="86.95996" y="19.2002">R</tspan><tspan class="x" x="98.71973" y="19.2002"> </tspan><tspan x="102.72607" y="19.2002">S</tspan><tspan class="w" x="112.93359" y="19.2002"> </tspan><tspan x="116.94043" y="19.2002">T</tspan><tspan class="x" x="126.82861" y="19.2002"> </tspan><tspan x="130.83496" y="19.2002">U</tspan><tspan class="w" x="143.44287" y="19.2002"> </tspan><tspan x="147.44971" y="19.2002">V</tspan><tspan class="x" x="159.38574" y="19.2002"> </tspan><tspan x="163.39209" y="19.2002">W </tspan><tspan x="0" y="38.40039">X</tspan><tspan class="a`" x="11.42383" y="38.40039"> </tspan><tspan x="16.3667" y="38.40039">Y</tspan><tspan class="a`" x="27.18262" y="38.40039"> </tspan><tspan x="32.12549" y="38.40039">Z</tspan><tspan class="a`" x="42.86133" y="38.40039"> </tspan><tspan x="47.8042" y="38.40039">a</tspan><tspan class="y" x="57.67578" y="38.40039"> </tspan><tspan class="t" x="62.61816" y="38.40039">b</tspan><tspan class="y" x="73.6582" y="38.40039"> </tspan><tspan x="78.60059" y="38.40039">c</tspan><tspan class="a`" x="88.05615" y="38.40039"> </tspan><tspan x="92.99902" y="38.40039">d</tspan><tspan class="a`" x="104.0708" y="38.40039"> </tspan><tspan x="109.01367" y="38.40039">e</tspan><tspan class="a`" x="119.10986" y="38.40039"> </tspan><tspan x="124.05273" y="38.40039">f</tspan><tspan class="a`" x="130.24463" y="38.40039"> </tspan><tspan x="135.1875" y="38.40039">g</tspan><tspan class="a`" x="146.38721" y="38.40039"> </tspan><tspan x="151.33008" y="38.40039">h</tspan><tspan class="a`" x="162.38623" y="38.40039"> </tspan><tspan x="167.3291" y="38.40039">i</tspan><tspan class="a`" x="172.14502" y="38.40039"> </tspan><tspan class="q" x="177.08789" y="38.40039">j </tspan><tspan x="0" y="57.6001">k</tspan><tspan class="g" x="10.55957" y="57.6001"> </tspan><tspan x="14.58643" y="57.6001">l</tspan><tspan class="g" x="19.40234" y="57.6001"> </tspan><tspan x="23.4292" y="57.6001">m</tspan><tspan class="h" x="40.21289" y="57.6001"> </tspan><tspan x="44.23926" y="57.6001">n</tspan><tspan class="g" x="55.29541" y="57.6001"> </tspan><tspan x="59.32227" y="57.6001">o</tspan><tspan class="g" x="69.80225" y="57.6001"> </tspan><tspan x="73.8291" y="57.6001">p</tspan><tspan class="g" x="84.86865" y="57.6001"> </tspan><tspan x="88.89551" y="57.6001">q</tspan><tspan class="g" x="99.93506" y="57.6001"> </tspan><tspan x="103.96191" y="57.6001">r</tspan><tspan class="g" x="110.85791" y="57.6001"> </tspan><tspan x="114.88477" y="57.6001">s</tspan><tspan class="h" x="123.38037" y="57.6001"> </tspan><tspan x="127.40674" y="57.6001">t</tspan><tspan class="g" x="134.3667" y="57.6001"> </tspan><tspan x="138.39355" y="57.6001">u</tspan><tspan class="g" x="149.38574" y="57.6001"> </tspan><tspan x="153.4126" y="57.6001">v</tspan><tspan class="g" x="162.98047" y="57.6001"> </tspan><tspan x="167.00732" y="57.6001">w </tspan><tspan x="0" y="76.80029">x</tspan><tspan class="e" x="9.51953" y="76.80029"> </tspan><tspan x="14.25049" y="76.80029">y</tspan><tspan class="d" x="23.81836" y="76.80029"> </tspan><tspan x="28.54883" y="76.80029">z</tspan><tspan class="e" x="37.23682" y="76.80029"> </tspan><tspan x="41.96777" y="76.80029">1</tspan><tspan class="e" x="48.23975" y="76.80029"> </tspan><tspan x="52.9707" y="76.80029">2</tspan><tspan class="d" x="62.41064" y="76.80029"> </tspan><tspan x="67.14111" y="76.80029">3</tspan><tspan class="e" x="76.61328" y="76.80029"> </tspan><tspan x="81.34424" y="76.80029">4</tspan><tspan class="e" x="92.36816" y="76.80029"> </tspan><tspan x="97.09912" y="76.80029">5</tspan><tspan class="d" x="106.61914" y="76.80029"> </tspan><tspan x="111.34961" y="76.80029">6</tspan><tspan class="e" x="121.5415" y="76.80029"> </tspan><tspan x="126.27246" y="76.80029">7</tspan><tspan class="e" x="136.19238" y="76.80029"> </tspan><tspan x="140.92334" y="76.80029">8</tspan><tspan class="d" x="151.48291" y="76.80029"> </tspan><tspan x="156.21338" y="76.80029">9</tspan><tspan class="e" x="166.40527" y="76.80029"> </tspan><tspan x="171.13623" y="76.80029">0 </tspan><tspan x="0" y="96">!</tspan><tspan class="p" x="4.62402" y="96"> </tspan><tspan x="14.20801" y="96">@</tspan><tspan class="o" x="30.76807" y="96"> </tspan><tspan x="40.35254" y="96">£</tspan><tspan class="p" x="51.04053" y="96"> </tspan><tspan x="60.62451" y="96">$</tspan><tspan class="p" x="70.83203" y="96"> </tspan><tspan x="80.41602" y="96">%</tspan><tspan class="o" x="94.44775" y="96"> </tspan><tspan x="104.03223" y="96">^</tspan><tspan class="p" x="113.63232" y="96"> </tspan><tspan x="123.21631" y="96">&amp;</tspan><tspan class="p" x="134.86426" y="96"> </tspan><tspan x="144.44824" y="96">*</tspan><tspan class="o" x="151.39209" y="96"> </tspan><tspan x="160.97656" y="96">(</tspan><tspan class="p" x="166.68848" y="96"> </tspan><tspan x="176.27246" y="96">)</tspan></text><text class="s" transform="translate(.25098 54.28857)"><tspan x="0" y="0">Montse</tspan><tspan class="m" x="62.36719" y="0">r</tspan><tspan class="n" x="69.19922" y="0">r</tspan><tspan x="75.9834" y="0">at </tspan><tspan x="0" y="19.2002">Bold</tspan></text></g></g></g></svg>