<?xml version="1.0" encoding="UTF-8"?><svg xmlns="http://www.w3.org/2000/svg" viewBox="0 0 319.82206 124.0441"><defs><style>.d{letter-spacing:-.03897em;}.e{font-size:32px;}.e,.f{letter-spacing:-.02499em;}.e,.g{font-family:Montserrat-Regular, Montserrat;}.h{letter-spacing:-.034em;}.i{letter-spacing:-.03em;}.j{letter-spacing:-.03003em;}.k{letter-spacing:-.009em;}.l{letter-spacing:-.01498em;}.m{letter-spacing:.00601em;}.n{letter-spacing:-.004em;}.o{letter-spacing:-.00699em;}.p{letter-spacing:.00598em;}.q{letter-spacing:-.02502em;}.r{letter-spacing:-.00003em;}.s{letter-spacing:.00003em;}.t{letter-spacing:-.03799em;}.g,.u,.v{font-size:16px;}.w{letter-spacing:-.01501em;}.x{letter-spacing:-.03299em;}.u{font-family:Montserrat-Bold, Montserrat;}.v{font-family:DensiaSans, Densia Sans;}</style></defs><g id="a"/><g id="b"><g id="c"><g><text class="u" transform="translate(0 55.64954)"><tspan x="0" y="0">Montse</tspan><tspan class="n" x="62.36719" y="0">r</tspan><tspan class="o" x="69.19922" y="0">r</tspan><tspan x="75.9834" y="0">at Bold</tspan></text><text class="g" transform="translate(0 84.23901)"><tspan class="f" x="0" y="0">Montse</tspan><tspan class="x" x="57.72803" y="0">r</tspan><tspan class="h" x="63.61621" y="0">r</tspan><tspan class="q" x="69.48828" y="0">at Regular</tspan></text><text class="v" transform="translate(0 112.776)"><tspan x="0" y="0">Densia Sans Regular</tspan></text><g><text class="e" transform="translate(167.32227 27.19983)"><tspan x="0" y="0">HEADING</tspan></text><text class="u" transform="translate(167.32227 55.64856)"><tspan x="0" y="0">Sub</tspan><tspan class="p" x="32.23975" y="0">h</tspan><tspan class="l" x="43.39111" y="0">e</tspan><tspan class="m" x="53.24707" y="0">a</tspan><tspan class="r" x="63.21533" y="0">di</tspan><tspan class="p" x="79.10303" y="0">n</tspan><tspan x="90.25439" y="0">g</tspan></text><text class="g" transform="translate(167.32227 84.23804)"><tspan x="0" y="0">Body </tspan><tspan class="k" x="45.80762" y="0">c</tspan><tspan class="s" x="54.67139" y="0">o</tspan><tspan class="w" x="64.70361" y="0">p</tspan><tspan x="75.31104" y="0">y</tspan></text><text class="v" transform="translate(167.32178 112.776)"><tspan x="0" y="0">ADDITIONAL INFORM</tspan><tspan class="i" x="103.83691" y="0">A</tspan><tspan x="109.88477" y="0">TION</tspan></text></g><text class="g" transform="translate(0 26.79224)"><tspan class="i" x="0" y="0">Montse</tspan><tspan class="t" x="57.24805" y="0">r</tspan><tspan class="d" x="63.05615" y="0">r</tspan><tspan class="j" x="68.84863" y="0">at Regular</tspan></text></g></g></g></svg>