<?xml version="1.0" encoding="UTF-8"?><svg xmlns="http://www.w3.org/2000/svg" viewBox="0 0 381.64128 78.70675"><defs><style>.d{fill:#fff;}.e{fill:#64a6dd;}.f{fill:#564b44;}.g{stroke:#564b44;stroke-width:3.28256px;}.g,.h{fill:none;}.h{stroke:#fff;stroke-width:1.09391px;}</style></defs><g id="a"/><g id="b"><g id="c"><g><rect class="e" x="1.64128" y="1.64128" width="53.76794" height="53.76797"/><rect class="g" x="1.64128" y="1.64128" width="53.76794" height="53.76797"/><g><path class="d" d="M43.70261,40.22495c-.75671,1.94023-2.07135,3.3624-3.94314,4.26244-1.87179,.90168-3.76313,1.01734-5.67158,.34699-2.01351-.71189-3.43814-2.09332-4.27057-4.14432-.70133-1.72926-.78848-3.43814-.27614-5.12502l.47977-1.22995c.82348-1.74065,2.11289-3.00969,3.88286-3.79407,1.86772-.8292,3.72728-.86994,5.58033-.12464,1.93695,.77951,3.30699,2.12673,4.10768,4.04252,.79986,1.91251,.83814,3.83643,.11079,5.76604m2.24403-6.80133c-1.1257-2.67002-3.01052-4.47502-5.65448-5.4158-2.70179-.98804-5.35308-.81209-7.95716,.52862l7.54745-19.3125-3.76313,2.46885-8.67231,22.0078-.05133,.12705c-.26471,.61497-.46347,1.23159-.59867,1.85226l-3.46014,9.10075,3.15061-1.40263,.81045-2.07217c.05459,.14012,.10997,.28022,.17025,.42193,1.1607,2.68389,3.06262,4.50761,5.70415,5.47203,2.556,.93099,5.08592,.82838,7.58735-.30871,2.50141-1.13629,4.26487-2.97549,5.28793-5.51846,1.05806-2.62848,1.02468-5.27896-.101-7.949"/><path class="h" d="M43.70261,40.22495c-.75671,1.94023-2.07135,3.3624-3.94314,4.26244-1.87179,.90168-3.76313,1.01734-5.67158,.34699-2.01351-.71189-3.43814-2.09332-4.27057-4.14432-.70133-1.72926-.78848-3.43814-.27614-5.12502l.47977-1.22995c.82348-1.74065,2.11289-3.00969,3.88286-3.79407,1.86772-.8292,3.72728-.86994,5.58033-.12464,1.93695,.77951,3.30699,2.12673,4.10768,4.04252,.79986,1.91251,.83814,3.83643,.11079,5.76604Zm2.24403-6.80133c-1.1257-2.67002-3.01052-4.47502-5.65448-5.4158-2.70179-.98804-5.35308-.81209-7.95716,.52862l7.54745-19.3125-3.76313,2.46885-8.67231,22.0078-.05133,.12705c-.26471,.61497-.46347,1.23159-.59867,1.85226l-3.46014,9.10075,3.15061-1.40263,.81045-2.07217c.05459,.14012,.10997,.28022,.17025,.42193,1.1607,2.68389,3.06262,4.50761,5.70415,5.47203,2.556,.93099,5.08592,.82838,7.58735-.30871,2.50141-1.13629,4.26487-2.97549,5.28793-5.51846,1.05806-2.62848,1.02468-5.27896-.101-7.949Z"/><path class="d" d="M28.58429,24.88808h-2.77594c-1.32443,2.81014-3.53016,4.23964-6.6148,4.28444-1.98746,.02361-3.71344-.60518-5.17553-1.88482-1.08983-.95301-1.82862-2.09743-2.22122-3.42999h-.00082v-.00408c-.13438-.45613-.22889-.93263-.28019-1.43358v-2.39877c.10751-.54575,.26635-1.05644,.46429-1.54109l.0171-.05702h.00733c.47488-1.13221,1.19328-2.09822,2.16827-2.8916,1.40507-1.14277,3.0439-1.70154,4.91813-1.67955,1.87343,.022,3.48457,.59949,4.83344,1.73006,1.31056,1.10044,2.15606,2.5283,2.53969,4.28769l2.52913-.00244c-.24843-1.97199-1.15011-3.78351-2.70425-5.43293-1.91902-1.98828-4.1818-3.06264-6.78667-3.22146-2.9038-.16048-5.42231,.81697-7.55884,2.93067-2.13568,2.11207-3.17015,4.63304-3.10172,7.55802,.04561,2.76453,1.09716,5.1462,3.15384,7.14506,2.0575,2.0013,4.4221,2.97793,7.09537,2.93067,2.12512-.02118,4.05475-.65079,5.79214-1.884,1.73657-1.23482,2.97139-2.90298,3.70123-5.0053"/><path class="h" d="M28.58429,24.88808h-2.77594c-1.32443,2.81014-3.53016,4.23964-6.6148,4.28444-1.98746,.02361-3.71344-.60518-5.17553-1.88482-1.08983-.95301-1.82862-2.09743-2.22122-3.42999h-.00082v-.00408c-.13438-.45613-.22889-.93263-.28019-1.43358v-2.39877c.10751-.54575,.26635-1.05644,.46429-1.54109l.0171-.05702h.00733c.47488-1.13221,1.19328-2.09822,2.16827-2.8916,1.40507-1.14277,3.0439-1.70154,4.91813-1.67955,1.87343,.022,3.48457,.59949,4.83344,1.73006,1.31056,1.10044,2.15606,2.5283,2.53969,4.28769l2.52913-.00244c-.24843-1.97199-1.15011-3.78351-2.70425-5.43293-1.91902-1.98828-4.1818-3.06264-6.78667-3.22146-2.9038-.16048-5.42231,.81697-7.55884,2.93067-2.13568,2.11207-3.17015,4.63304-3.10172,7.55802,.04561,2.76453,1.09716,5.1462,3.15384,7.14506,2.0575,2.0013,4.4221,2.97793,7.09537,2.93067,2.12512-.02118,4.05475-.65079,5.79214-1.884,1.73657-1.23482,2.97139-2.90298,3.70123-5.0053Z"/><path class="f" d="M231.59288,53.72219c-3.39658,2.97467-7.36333,4.45956-11.90435,4.45956h-.20607c-9.38907,0-16.99924-5.79619-16.99924-16.99842V4.10754h15.30908c4.30726,0,8.02882,1.26415,11.16638,3.79246,3.32414,2.6684,4.98656,6.03893,4.98656,10.11237,0,4.82285-2.06074,8.56805-6.17982,11.23728,5.57056,2.62197,8.47272,7.13934,8.70813,13.55295,.1401,4.30805-1.48812,7.94818-4.88067,10.9196m-.66708-11.44496c-.18738-3.40637-1.54599-5.99575-4.07429-7.76898-2.29455-1.5867-5.36121-2.37926-9.19931-2.37926h-9.55119v8.37827c0,9.33125,5.89068,12.45335,11.38065,12.45335,4.70473,0,6.08859-1.13708,8.21286-2.91521,2.34098-1.95974,3.41696-4.54832,3.23127-7.76816m-13.24099-33.11311h-9.5838V27.2125h9.86643c2.81745,0,5.29609-.83163,7.43338-2.4941,2.13814-1.66083,3.20681-3.80305,3.20681-6.42501,0-2.90216-1.12813-5.17307-3.38276-6.81272-2.02002-1.54435-4.53366-2.31654-7.54007-2.31654"/><path class="e" d="M116.67825,42.76009c-2.48269,4.68193-5.84101,8.32206-10.0782,10.9196-4.23636,2.59917-9.0478,3.94558-14.43104,4.03845-7.63132,.0953-14.17526-2.64479-19.62854-8.21699-5.45408-5.57056-8.18194-12.21957-8.18194-19.94376,0-7.95959,2.73845-14.58416,8.21697-19.87453,5.33762-5.24314,11.86853-7.84067,19.59352-7.79588,5.38324,.04725,10.27611,1.4295,14.67703,4.14352,4.21357,2.66922,7.49043,6.24989,9.83221,10.7453h-6.11062c-4.49458-6.55455-10.76809-9.78498-18.81973-9.69129-5.99331,0-11.15579,2.16583-15.48584,6.49588-4.33085,4.33085-6.56673,9.53976-6.70685,15.62512-.13928,6.32076,2.02494,11.78869,6.49588,16.39814,4.47179,4.61186,9.84279,6.91697,16.11792,6.91697,3.65154,0,7.20942-.95137,10.67443-2.85737,3.32409-1.81395,5.92163-4.11419,7.79506-6.90315h6.03975Z"/><path class="e" d="M155.2442,56.66435h-5.3368v-23.31511c0-3.37053-1.25197-6.28492-3.75338-8.74397-2.50385-2.45744-5.43126-3.63934-8.78469-3.54565-3.39986,.04723-6.26782,1.18269-8.60551,3.40555-2.3377,2.22447-3.50575,5.046-3.50575,8.46214v23.73704h-5.33842V2.51927h5.33842V22.32296c3.04962-3.97735,6.9683-6.08536,11.75446-6.32076,4.97438-.23296,9.25554,1.40507,12.84595,4.91651,3.59131,3.51144,5.38572,7.84311,5.38572,12.99256v22.75308Z"/><path class="e" d="M194.13886,33.55966c-.7502-3.74523-2.50554-6.7769-5.2676-9.09424-2.76206-2.31816-6.06254-3.49842-9.90143-3.54647-3.83884-.04561-7.19798,1.10044-10.07733,3.44057-2.87939,2.34259-4.69498,5.40929-5.44354,9.20013h30.6899Zm5.26675,4.91567h-35.95666c.42193,4.02786,2.12999,7.35195,5.1275,9.9723,2.99582,2.62279,6.53086,3.90973,10.60435,3.86251,6.32076-.09287,10.83811-3.01946,13.55295-8.7782h5.68869c-1.49876,4.30805-4.02786,7.72501-7.58407,10.25332-3.5587,2.5283-7.51487,3.81769-11.86856,3.86169-5.4777,.0953-10.32331-1.90682-14.53691-6.0039-4.21439-4.09547-6.3672-8.97693-6.46165-14.64118-.1393-5.99249,1.97766-11.15579,6.35661-15.48584,4.37725-4.33005,9.53812-6.33135,15.48418-6.00472,5.33765,.32827,9.97233,2.52748,13.90568,6.60096,3.79166,4.02704,5.68789,8.52162,5.68789,13.48454v2.87855Z"/><path class="f" d="M274.01124,36.2261c-.1401-4.23067-1.65432-7.85206-4.54022-10.86257-2.88506-3.00887-6.36963-4.51494-10.45203-4.51494-4.26977-.04643-7.90747,1.44743-10.91144,4.47992-3.00398,3.03331-4.52799,6.69054-4.57442,10.96929-.09366,4.23229,1.29105,7.93516,4.15413,11.11018,2.8606,3.17505,6.35656,4.83262,10.48787,4.97272,4.41066,.2354,8.17543-1.29348,11.29589-4.58581,3.12046-3.2915,4.63388-7.1475,4.54022-11.56877m5.33844,.42355c0,5.75873-2.09663,10.73471-6.28656,14.92302-4.18998,4.19075-9.16511,6.19287-14.92299,6.00472-5.5722-.14092-10.28752-2.24729-14.15087-6.32076-3.86166-4.07265-5.79294-8.9183-5.79294-14.53611,0-5.8524,2.08276-10.87478,6.25071-15.06391,4.16472-4.18913,9.12762-6.19043,14.88715-6.00472,5.57141,.18735,10.29975,2.32957,14.18672,6.42583,3.88528,4.09709,5.82878,8.95494,5.82878,14.57193"/><path class="f" d="M317.06019,56.66435h-5.3368v-23.38515c0-3.37135-1.23646-6.27433-3.70859-8.70895-2.47208-2.433-5.35555-3.65154-8.65195-3.65154-3.34284,0-6.25151,1.21854-8.722,3.65154-2.47287,2.43462-3.70769,5.3376-3.70769,8.70895v23.38515h-5.33765v-22.82313c0-5.19753,1.68608-9.51614,5.05741-12.95672,3.36973-3.44139,7.60694-5.1625,12.70993-5.1625,5.05745,0,9.2702,1.72111,12.64152,5.1625,3.37053,3.44057,5.05581,7.75919,5.05581,12.95672v22.82313Z"/><path class="f" d="M355.21056,39.45944c0,5.19591-1.6739,9.52676-5.02077,12.99177-3.34855,3.46501-7.57433,5.19589-12.67573,5.19589-5.10384,0-9.32966-1.73088-12.67652-5.19589-3.34776-3.46501-5.02077-7.79586-5.02077-12.99177V16.63469h5.3368v23.50243c0,3.37786,1.23562,6.27515,3.70854,8.69023,2.47049,2.41672,5.35555,3.62385,8.65195,3.62385,3.29556,0,6.17982-1.20713,8.65274-3.62385,2.47049-2.41508,3.70695-5.31237,3.70695-8.69023V16.63469h5.3368v22.82474Z"/><path class="f" d="M381.60315,44.72594c.28019,3.60593-.98396,6.73128-3.79246,9.37525-2.80934,2.64561-6.03977,3.85192-9.69129,3.61652-3.37137-.23376-6.1929-1.59078-8.46298-4.07265-2.27093-2.48105-3.40553-5.43129-3.40553-8.84825h5.54854v1.34643c0,1.36923,.74776,2.78732,2.24647,4.25103,1.49712,1.46535,3.09033,2.17399,4.77562,2.12673,2.24811-.04643,4.02622-.72738,5.3376-2.04366,1.16885-1.21854,1.77811-2.81745,1.82538-4.79024,.04643-3.42837-1.89951-5.77584-5.83858-7.04407l-4.69737-1.49304c-4.91487-1.54596-7.48961-4.89531-7.72337-10.0464-.1401-3.09115,.90412-5.73756,3.13513-7.93923,2.23016-2.20086,4.91895-3.37214,8.06546-3.51226,2.72458-.14089,5.27163,.73715,7.64353,2.6342,2.37111,1.89541,3.64992,4.24777,3.83889,7.05627v1.19492h-5.617v-.9253c0-1.42138-.59787-2.56984-1.79113-3.44791-1.19331-.87725-2.56335-1.31548-4.1085-1.31548-1.49955,.04725-2.79875,.5881-3.89755,1.62419-1.10039,1.03608-1.67465,2.32954-1.72108,3.88286-.18733,2.87203,1.52153,4.91974,5.1283,6.14236l4.63383,1.55332c5.3368,1.82618,8.19174,5.38485,8.56808,10.6744"/><path class="f" d="M208.26453,74.37665c.52862-.58726,.78684-1.26495,.77461-2.06076-.01303-.78276-.2973-1.44822-.85202-2.00863-.54244-.56039-1.20062-.84791-1.98746-.84791-.74935,0-1.39446,.27368-1.92392,.83489-.52862,.56121-.81204,1.22587-.82591,2.00863-.02526,.82104,.24599,1.53865,.82591,2.15199,.58162,.59949,1.265,.88701,2.06566,.84791,.76158-.0399,1.39366-.33965,1.92312-.92612m-5.8084-2.04774v-6.27351h.96845v3.75582c.72251-.84712,1.62583-1.278,2.70996-1.3171,1.05803-.0391,1.97438,.32663,2.73681,1.10857,.77381,.78276,1.16149,1.70888,1.16149,2.7914,0,1.04342-.36163,1.94346-1.0719,2.69935-.70943,.75671-1.5867,1.14767-2.60651,1.18759-1.05803,.03828-1.97438-.33965-2.76206-1.12242-.78763-.78197-1.16149-1.70808-1.13624-2.77755v-.05215Z"/></g><polygon class="f" points="213.80412 78.70675 212.74519 78.70675 213.85542 75.87628 211.042 68.67663 212.11311 68.67663 214.46224 74.5722 216.94004 68.67663 217.97287 68.67663 213.80412 78.70675"/><rect class="f" x="227.68399" y="66.069" width=".9937" height="10.04235"/><g><path class="f" d="M237.50613,76.11111h-.99375v-4.34305c0-.62556-.23212-1.16072-.68423-1.61768-.45206-.45613-.96765-.67769-1.57363-.67769-.60687,0-1.14931,.22155-1.60137,.67769-.45206,.45696-.6712,.99211-.6712,1.61768v4.34305h-.9937v-4.2388c0-.96522,.31032-1.76021,.92937-2.39962,.61985-.63941,1.39446-.96522,2.3369-.96522,.92853,0,1.70319,.32581,2.32219,.96522,.6199,.63941,.92942,1.4344,.92942,2.39962v4.2388Z"/><path class="f" d="M246.2592,76.11111h-.99375v-4.34305c0-.62556-.23212-1.16072-.68423-1.61768-.45206-.45613-.96845-.67769-1.57447-.67769s-1.14847,.22155-1.60052,.67769c-.45206,.45696-.6712,.99211-.6712,1.61768v4.34305h-.9937v-4.2388c0-.96522,.31032-1.76021,.92937-2.39962,.61985-.63941,1.39366-.96522,2.33606-.96522,.92937,0,1.70403,.32581,2.32303,.96522,.6199,.63941,.92942,1.4344,.92942,2.39962v4.2388Z"/><path class="f" d="M252.18607,75.30252c.81289,.0391,1.49712-.2354,2.06481-.84791,.58077-.61333,.85202-1.3171,.83899-2.13896-.0261-.78276-.31037-1.44822-.83899-2.00781-.52941-.56121-1.16149-.83489-1.91005-.83489-.78768-.01385-1.44581,.27368-2.00048,.83489-.55552,.55959-.82596,1.22505-.83899,2.02084-.01303,.78276,.23217,1.4743,.76079,2.06076,.53026,.58728,1.16234,.88704,1.92392,.91309m2.72299-.13033c-.76163,.76974-1.67798,1.1477-2.73601,1.10859-1.0198-.02608-1.89707-.41703-2.60735-1.17375-.70943-.75669-1.05803-1.65675-1.05803-2.70017,0-1.08252,.38688-2.02166,1.14847-2.7914,.76158-.78276,1.67793-1.1607,2.73601-1.1208,1.0198,.03831,1.89787,.43008,2.6073,1.19982,.71028,.75587,1.07111,1.65593,1.07111,2.69935,0,1.06947-.38688,1.99558-1.16149,2.77835"/></g><polygon class="f" points="261.10692 76.11111 260.08712 76.11111 257.06684 68.6769 258.09966 68.6769 260.60351 74.80706 263.09433 68.6769 264.17851 68.6769 261.10692 76.11111"/><g><path class="f" d="M266.1433,72.31542c-.01387,.78276,.23212,1.4743,.76074,2.06076,.52946,.58726,1.17457,.88701,1.92312,.92612,.81289,.03992,1.49712-.24763,2.06566-.84794,.57993-.61251,.85117-1.33012,.83814-2.15117-.01223-.78276-.2965-1.44822-.82596-2.00945-.52862-.56039-1.17452-.83407-1.92307-.83407-.78684,0-1.44497,.27368-2.00048,.83407-.55472,.56123-.82596,1.22669-.83814,2.02168m6.56919,3.79569h-.95547v-1.1607c-.80066,.92532-1.78054,1.36923-2.94288,1.33012-1.01901-.0391-1.88405-.43006-2.59428-1.18677-.70948-.75587-1.07111-1.65675-1.07111-2.70017,0-1.08249,.38768-2.02166,1.14847-2.79058,.76243-.78276,1.67878-1.14767,2.74904-1.10857,1.03283,.0391,1.9101,.43006,2.6334,1.1998,.7233,.75589,1.0719,1.65596,1.03283,2.68632v3.73054Z"/><path class="f" d="M292.25823,73.52889c-.91635,1.73416-2.52995,2.73847-4.50438,2.77755-1.40669,.01305-2.60651-.49524-3.61408-1.5256-.9937-1.03039-1.49712-2.26929-1.49712-3.70367,0-1.4743,.50341-2.71319,1.51014-3.69146,.98073-.97824,2.18134-1.46045,3.60105-1.44743,.9937,.01305,1.88484,.26066,2.69773,.76974,.77381,.49524,1.38063,1.1599,1.80664,1.99479h-1.12326c-.82591-1.21282-1.97443-1.79928-3.45847-1.78708-1.09721,0-2.05184,.40483-2.8525,1.21364-.78768,.79499-1.19982,1.76021-1.22587,2.89567-.02605,1.17372,.37465,2.19027,1.18675,3.05123,.82596,.84791,1.82051,1.278,2.96898,1.278,.67115,0,1.32933-.18166,1.9622-.53434,.60682-.33886,1.08413-.76974,1.43274-1.29105h1.10944Z"/><path class="f" d="M296.8949,75.30252c.81289,.0391,1.49712-.2354,2.06481-.84791,.58077-.61333,.85202-1.3171,.83899-2.13896-.0261-.78276-.31037-1.44822-.83899-2.00781-.52941-.56121-1.16149-.83489-1.91005-.83489-.78768-.01385-1.44581,.27368-2.00048,.83489-.55552,.55959-.82596,1.22505-.83899,2.02084-.01303,.78276,.23217,1.4743,.76079,2.06076,.53026,.58728,1.16234,.88704,1.92392,.91309m2.72299-.13033c-.76163,.76974-1.67798,1.1477-2.73601,1.10859-1.0198-.02608-1.89707-.41703-2.60735-1.17375-.71023-.75669-1.05803-1.65675-1.05803-2.70017,0-1.08252,.38688-2.02166,1.14847-2.7914,.76158-.78276,1.67793-1.1607,2.73601-1.1208,1.0198,.03831,1.89787,.43008,2.6073,1.19982,.71028,.75587,1.07111,1.65593,1.07111,2.69935,0,1.06947-.38688,1.99558-1.16149,2.77835"/><path class="f" d="M313.57253,76.11111h-1.01901v-4.56461c0-.57426-.16858-1.07031-.49034-1.4743-.32335-.40401-.76238-.61254-1.29105-.61254-.54164,0-1.00673,.18245-1.40669,.53434-.38773,.35188-.58157,.79579-.58157,1.33012v4.78698h-1.03203v-4.78698c0-.53434-.19384-.97824-.59375-1.33012-.38693-.35188-.85202-.53434-1.39371-.53434-.52941,0-.95542,.20853-1.27797,.61254-.32255,.40398-.47811,.88701-.47811,1.4743v4.56461h-1.01901v-4.44733c0-.92612,.25822-1.6828,.78684-2.24403,.49034-.53431,1.13629-.83407,1.93695-.89924,1.07031-.09123,1.92233,.37796,2.55441,1.38228,.63287-1.00432,1.48489-1.4735,2.556-1.38228,.80066,.06518,1.44576,.36493,1.94913,.89924,.52867,.56123,.79991,1.31792,.79991,2.24403v4.44733Z"/><path class="f" d="M322.35324,72.91585c0,.96524-.30953,1.77323-.92942,2.41264-.60682,.63941-1.38143,.96522-2.32303,.96522-.9424,0-1.71701-.32581-2.3369-.96522-.60598-.63941-.91635-1.4474-.91635-2.41264v-4.2388h.99455v4.3561c0,.62556,.21914,1.1607,.67036,1.61686,.45211,.44391,.98152,.66546,1.58834,.66546s1.12242-.22155,1.57447-.66546c.45126-.45616,.68423-.99129,.68423-1.61686v-4.3561h.99375v4.2388Z"/><path class="f" d="M331.17104,76.11111h-.99375v-4.34305c0-.62556-.23212-1.16072-.68423-1.61768-.45206-.45613-.96845-.67769-1.57447-.67769s-1.14847,.22155-1.60052,.67769c-.45206,.45696-.6712,.99211-.6712,1.61768v4.34305h-.9937v-4.2388c0-.96522,.31032-1.76021,.92937-2.39962,.61985-.63941,1.39366-.96522,2.33606-.96522,.92937,0,1.70403,.32581,2.32303,.96522,.6199,.63941,.92942,1.4344,.92942,2.39962v4.2388Z"/></g><path class="f" d="M334.39963,76.11136h-.96765v-7.43423h.96765v7.43423Zm0-8.32124h-.96765v-1.73495h.96765v1.73495Z"/><g><path class="f" d="M344.22311,74.14182c-.77466,1.44743-1.97443,2.15201-3.58803,2.13896-1.07111-.01303-1.98746-.39096-2.76206-1.13464-.77461-.74366-1.16154-1.65675-1.17457-2.7254-.01303-1.08334,.36168-1.99643,1.13544-2.76535,.78768-.76971,1.71706-1.17454,2.80119-1.18677,.77461-.01385,1.49712,.1955,2.16827,.61254,.63292,.40401,1.09716,.90006,1.3684,1.51258l.14174,.32581h-1.10939c-.55552-.95137-1.39446-1.44661-2.53074-1.47348-.76079-.01303-1.43274,.26148-2.03876,.83489-.63287,.58646-.9424,1.29102-.9424,2.09986s.2973,1.50037,.87807,2.08684c.57993,.57341,1.27718,.86094,2.07784,.84791,1.14852-.01303,2.00048-.48219,2.56823-1.39528h1.11019l-.10341,.22153Z"/><path class="f" d="M346.69126,72.31542c-.01387,.78276,.23212,1.4743,.76074,2.06076,.52946,.58726,1.17457,.88701,1.92312,.92612,.81289,.03992,1.49712-.24763,2.06566-.84794,.57993-.61251,.85117-1.33012,.83814-2.15117-.01223-.78276-.2965-1.44822-.82596-2.00945-.52862-.56039-1.17452-.83407-1.92307-.83407-.78684,0-1.44497,.27368-2.00048,.83407-.55472,.56123-.82596,1.22669-.83814,2.02168m6.56919,3.79569h-.95547v-1.1607c-.80066,.92532-1.78054,1.36923-2.94288,1.33012-1.01901-.0391-1.88405-.43006-2.59428-1.18677-.70948-.75587-1.07111-1.65675-1.07111-2.70017,0-1.08249,.38768-2.02166,1.14847-2.79058,.76243-.78276,1.67878-1.14767,2.74904-1.10857,1.03283,.0391,1.9101,.43006,2.6334,1.1998,.7233,.75589,1.0719,1.65596,1.03283,2.68632v3.73054Z"/><path class="f" d="M362.00059,76.11111h-.99375v-4.34305c0-.62556-.23212-1.16072-.68338-1.61768-.45206-.45613-.9685-.67769-1.57447-.67769-.60687,0-1.14931,.22155-1.60057,.67769-.45285,.45696-.672,.99211-.672,1.61768v4.34305h-.9937v-4.2388c0-.96522,.31032-1.76021,.92937-2.39962,.61985-.63941,1.39446-.96522,2.3369-.96522,.92853,0,1.70319,.32581,2.32219,.96522,.6199,.63941,.92942,1.4344,.92942,2.39962v4.2388Z"/><path class="f" d="M367.75982,75.34172c.81289,.0391,1.49712-.23458,2.06486-.84791,.58072-.61336,.85197-1.3171,.82591-2.13896-.01303-.78276-.2965-1.44743-.82591-2.00863-.52946-.56121-1.16154-.83489-1.92312-.83489-.77461-.01223-1.44581,.27368-2.00048,.83489-.55552,.56121-.82591,1.22587-.83899,2.02166-.01303,.78276,.24519,1.47348,.77466,2.06076,.52862,.58646,1.1607,.88701,1.92307,.91309m3.88453-2.9087c.02605,1.06949-.34865,1.99561-1.13549,2.77837-.78763,.76974-1.70398,1.14767-2.76206,1.10777-1.0198-.02608-1.89787-.41706-2.6073-1.17293-.71028-.75671-1.05888-1.65675-1.05888-2.70017,0-1.08252,.38768-2.02166,1.14931-2.79058,.76158-.78276,1.67793-1.16072,2.73596-1.12244,1.08413,.03992,1.98746,.48303,2.71076,1.31792v-3.74359h.9677v6.32563Z"/><path class="f" d="M377.58464,75.30252c.81289,.0391,1.49712-.2354,2.06481-.84791,.58077-.61333,.85202-1.3171,.83899-2.13896-.0261-.78276-.31037-1.44822-.83899-2.00781-.52941-.56121-1.16149-.83489-1.91005-.83489-.78768-.01385-1.44581,.27368-2.00048,.83489-.55552,.55959-.82596,1.22505-.83899,2.02084-.01303,.78276,.23217,1.4743,.76079,2.06076,.53026,.58728,1.16234,.88704,1.92392,.91309m2.72299-.13033c-.76163,.76974-1.67798,1.1477-2.73601,1.10859-1.0198-.02608-1.89707-.41703-2.60735-1.17375-.70943-.75669-1.05803-1.65675-1.05803-2.70017,0-1.08252,.38688-2.02166,1.14847-2.7914,.76158-.78276,1.67793-1.1607,2.73601-1.1208,1.0198,.03831,1.89787,.43008,2.6073,1.19982,.71028,.75587,1.07111,1.65593,1.07111,2.69935,0,1.06947-.38688,1.99558-1.16149,2.77835"/></g></g></g></g></svg>