<?xml version="1.0" encoding="UTF-8"?><svg xmlns="http://www.w3.org/2000/svg" viewBox="0 0 380 76.5911"><defs><style>.d{fill:#ed6b06;}.e{fill:#646363;}</style></defs><g id="a"/><g id="b"><g id="c"><g><g><g><path class="e" d="M4.24303,66.96967v1.547h5.89733v3.16423H4.24303v1.56651h6.65424v3.16423H.07023v-12.60619H10.73536v3.16423H4.24303Z"/><path class="e" d="M43.92464,72.94112v3.47051h-9.42441v-12.60619h4.1728v9.13569h5.2516Z"/><path class="e" d="M71.19514,66.96967v1.547h5.89733v3.16423h-5.89733v1.56651h6.65424v3.16423h-10.82705v-12.60619h10.66513v3.16423h-6.49233Z"/><path class="e" d="M112.97973,65.9806l-2.40926,2.8599c-.75497-1.02613-1.88839-1.69136-2.8599-1.69136-1.50993,0-2.60824,1.20561-2.60824,2.87746,0,1.69136,1.09831,2.91452,2.60824,2.91452,.89933,0,2.03275-.55793,2.8599-1.4397l2.40926,2.57313c-1.40264,1.52749-3.54269,2.51656-5.4857,2.51656-3.86652,0-6.6718-2.75065-6.6718-6.50988,0-3.70461,2.87746-6.40259,6.83372-6.40259,1.92546,0,4.02844,.89933,5.32379,2.30197Z"/><path class="e" d="M142.78629,67.09647v9.31516h-4.17085v-9.31516h-3.57975v-3.29103h11.34791v3.29103h-3.59731Z"/><path class="e" d="M175.13087,73.13816h-1.56456v3.27347h-4.1728v-12.60619h6.09631c3.41783,0,5.37841,1.63674,5.37841,4.5142,0,1.83377-.70229,3.19934-1.99764,3.99138l2.48144,4.10062h-4.71123l-1.50993-3.27347Zm.35895-3.16423c.89933,0,1.4202-.55793,1.4202-1.52944,0-.93444-.52087-1.47482-1.4202-1.47482h-1.92351v3.00426h1.92351Z"/><path class="e" d="M204.45363,76.41163v-12.60619h4.1728v12.60619h-4.1728Z"/><path class="e" d="M243.97332,65.9806l-2.40926,2.8599c-.75497-1.02613-1.88839-1.69136-2.8599-1.69136-1.50993,0-2.60824,1.20561-2.60824,2.87746,0,1.69136,1.09831,2.91452,2.60824,2.91452,.89933,0,2.03275-.55793,2.8599-1.4397l2.40926,2.57313c-1.40264,1.52749-3.54269,2.51656-5.4857,2.51656-3.86652,0-6.6718-2.75065-6.6718-6.50988,0-3.70461,2.87746-6.40259,6.83372-6.40259,1.92546,0,4.02844,.89933,5.32379,2.30197Z"/><path class="e" d="M270.51031,74.63053l-.64767,1.7811h-4.2801l5.32379-12.60619h4.2801l5.1248,12.60619h-4.44201l-.63011-1.7811h-4.72879Zm2.40926-6.6718l-1.33046,3.68705h2.6258l-1.29534-3.68705Z"/><path class="e" d="M312.47438,72.94112v3.47051h-9.42441v-12.60619h4.1728v9.13569h5.2516Z"/></g><rect class="e" x="343.28837" y="60.52339" width="21.9735" height="5.99236"/><rect class="e" x="343.28837" y="51.7832" width="21.9735" height="5.99236"/><path class="e" d="M354.27474,76.42029c3.95338,0,7.1583-3.20483,7.1583-7.15821h-14.31641c0,3.95338,3.20492,7.15821,7.15811,7.15821Z"/><polygon class="e" points="350.37411 30.0997 345.02081 24.74868 347.84662 21.92287 350.37411 24.44959 354.44473 20.37897 358.38361 24.31784 361.00195 21.69874 363.82776 24.52304 358.38361 29.96947 354.44473 26.02908 350.37411 30.0997"/><rect class="e" y="19.72018" width="28.08009" height="9.2963"/><rect class="e" x="83.28827" y="19.72018" width="28.08009" height="9.2963"/><rect class="e" x="192.15957" y="19.72018" width="28.08009" height="9.2963"/></g><g><path class="d" d="M372.58886,7.23755c-4.94139-4.8244-11.02404-7.23755-18.24796-7.23755-7.22581,0-13.30847,2.41315-18.24796,7.23755-4.94139,4.82431-7.41114,10.82509-7.41114,18.00406,0,7.17707,2.46975,13.17776,7.41114,18.00216,2.13536,2.08557,4.49768,3.69241,7.06027,4.87665h22.37405c2.56279-1.18424,4.92549-2.79108,7.0616-4.87665,4.93949-4.8244,7.41114-10.82509,7.41114-18.00216,0-7.17896-2.47164-13.17975-7.41114-18.00406Zm-7.90084,29.15493c-.59969,.65487-1.23506,1.22503-1.89391,1.73954h-16.83733c-.65894-.51451-1.29469-1.08467-1.89476-1.73954-2.79553-3.05297-4.19424-6.75759-4.19424-11.11576s1.39871-8.07642,4.19424-11.15286c2.79751-3.07644,6.23485-4.61362,10.31399-4.61362,4.07725,0,7.51648,1.53718,10.312,4.61362,2.79751,3.07644,4.19622,6.79479,4.19622,11.15286s-1.39871,8.06279-4.19622,11.11576Z"/><path class="d" d="M44.63864,48.2379V.76277h10.5949V38.79789h20.2417v9.44001h-30.8366Z"/><path class="d" d="M170.15238,18.35331l-12.83639,25.94589h-6.31675l-12.77006-25.94589v29.8846h-10.5949V.76277h14.33072l12.22578,26.0805L166.48484,.76277h14.26244V48.2379h-10.5949V18.35331Z"/><path class="d" d="M270.05968,.76277h10.5949V48.2379h-10.5949l-22.6178-29.74804v29.74804h-10.5949V.76277h9.91601l23.29668,30.56348V.76277Z"/><polygon class="d" points="325.88821 9.93162 312.44122 9.93162 312.44122 48.2379 301.84437 48.2379 301.84437 9.93162 288.39737 9.93162 288.39737 .76277 325.88821 .76277 325.88821 9.93162"/><rect class="d" y="38.69775" width="34.57241" height="9.2963"/><rect class="d" y=".74261" width="34.57241" height="9.2963"/><rect class="d" x="83.28827" y="38.69775" width="34.57241" height="9.2963"/><rect class="d" x="83.28827" y=".74261" width="34.57241" height="9.2963"/><rect class="d" x="192.15957" y="38.69775" width="34.57241" height="9.2963"/><rect class="d" x="192.15957" y=".74261" width="34.57241" height="9.2963"/></g></g></g></g></svg>