<?xml version="1.0" encoding="utf-8"?>
<!-- Generator: Adobe Illustrator 26.3.1, SVG Export Plug-In . SVG Version: 6.00 Build 0)  -->
<svg version="1.1" id="Layer_1" xmlns="http://www.w3.org/2000/svg" xmlns:xlink="http://www.w3.org/1999/xlink" x="0px" y="0px"
	 viewBox="0 0 38.1 38.1" style="enable-background:new 0 0 38.1 38.1;" xml:space="preserve">
<style type="text/css">
	.st0{fill:none;stroke:#585857;stroke-width:1.5304;stroke-miterlimit:10;}
	.st1{fill:#585857;}
</style>
<g id="Layer_2_00000129181749239566055440000011631114071048597948_">
	<g id="Layer_1-2">
		<ellipse class="st0" cx="19" cy="19.1" rx="18.3" ry="18.3"/>
		<g>
			<path id="Path_2520" class="st1" d="M27.5,27.1H24v-5.5c0-1.3,0-3-1.8-3c-1.8,0-2.1,1.4-2.1,2.9v5.6h-3.5V15.8h3.4v1.5h0
				c0.7-1.2,2-1.9,3.3-1.8c3.6,0,4.2,2.3,4.2,5.4L27.5,27.1z M12.6,14.2c-1.1,0-2-0.9-2-2s0.9-2,2-2c1.1,0,2,0.9,2,2
				S13.7,14.2,12.6,14.2L12.6,14.2 M14.3,27.1h-3.5V15.8h3.5V27.1z"/>
		</g>
	</g>
</g>
</svg>
