<svg xmlns="http://www.w3.org/2000/svg" viewBox="0 0 327.23291 116.31152"><defs><style>.cls-1{font-size:28px;letter-spacing:-0.01901em;}.cls-1,.cls-19,.cls-8{font-family:Titillium-Thin, Titillium;font-weight:200;}.cls-2{letter-spacing:-0.03221em;}.cls-3{letter-spacing:-0.02989em;}.cls-4{letter-spacing:-0.0396em;}.cls-5{letter-spacing:-0.0365em;}.cls-6{letter-spacing:-0.03031em;}.cls-7{letter-spacing:-0.02499em;}.cls-19,.cls-8{font-size:16px;}.cls-8{letter-spacing:0.10599em;}.cls-9{letter-spacing:0.13449em;}.cls-10{letter-spacing:0.09543em;}.cls-11{letter-spacing:0.10602em;}.cls-12{letter-spacing:0.13895em;}.cls-13{letter-spacing:0.13892em;}.cls-14{letter-spacing:0.08444em;}.cls-15{letter-spacing:0.12604em;}.cls-16{letter-spacing:0.12601em;}.cls-17{letter-spacing:0.25464em;}.cls-18{letter-spacing:0.25461em;}</style></defs><g id="Layer_2" data-name="Layer 2"><g id="Layer_1-2" data-name="Layer 1"><text class="cls-1" transform="translate(-0.00016 23.7998)">Aa<tspan class="cls-2" x="29.37158" y="0">B</tspan><tspan class="cls-3" x="45.82959" y="0">b</tspan><tspan class="cls-4" x="59.38428" y="0">C</tspan><tspan class="cls-5" x="73.53516" y="0">c</tspan><tspan class="cls-6" x="84.5249" y="0">D</tspan><tspan class="cls-7" x="101.84766" y="0">d</tspan></text><text class="cls-8" transform="translate(138.3221 16.04004)">A<tspan class="cls-9" x="11.16748" y="0"> </tspan><tspan x="16.83887" y="0">B</tspan><tspan class="cls-9" x="28.45459" y="0"> </tspan><tspan x="34.12598" y="0">C</tspan><tspan class="cls-9" x="44.5415" y="0"> </tspan><tspan x="50.21289" y="0">D</tspan><tspan class="cls-9" x="62.29248" y="0"> </tspan><tspan x="67.96387" y="0">E</tspan><tspan class="cls-9" x="78.4917" y="0"> </tspan><tspan x="84.16309" y="0">F</tspan><tspan class="cls-9" x="94.22705" y="0"> </tspan><tspan x="99.89844" y="0">G</tspan><tspan class="cls-9" x="111.49805" y="0"> </tspan><tspan x="117.16992" y="0">H</tspan><tspan class="cls-9" x="129.6499" y="0"> </tspan><tspan x="135.32129" y="0">I</tspan><tspan class="cls-9" x="140.53662" y="0"> </tspan><tspan x="146.20801" y="0">J</tspan><tspan class="cls-9" x="152.38379" y="0"> </tspan><tspan x="158.05566" y="0">K</tspan><tspan class="cls-9" x="168.59912" y="0"> </tspan><tspan x="174.27051" y="0">L </tspan><tspan x="0" y="19.19971">M</tspan><tspan class="cls-10" x="14.94385" y="19.19971"> </tspan><tspan class="cls-11" x="19.99023" y="19.19971">N</tspan><tspan class="cls-10" x="32.32617" y="19.19971"> </tspan><tspan x="37.37256" y="19.19971">O</tspan><tspan class="cls-10" x="49.72412" y="19.19971"> </tspan><tspan class="cls-11" x="54.771" y="19.19971">P</tspan><tspan class="cls-10" x="65.98682" y="19.19971"> </tspan><tspan x="71.0332" y="19.19971">Q</tspan><tspan class="cls-10" x="83.38477" y="19.19971"> </tspan><tspan x="88.43164" y="19.19971">R</tspan><tspan class="cls-10" x="99.93506" y="19.19971"> </tspan><tspan class="cls-11" x="104.98145" y="19.19971">S</tspan><tspan class="cls-10" x="115.31738" y="19.19971"> </tspan><tspan x="120.36377" y="19.19971">T</tspan><tspan class="cls-10" x="130.47559" y="19.19971"> </tspan><tspan class="cls-11" x="135.52197" y="19.19971">U</tspan><tspan class="cls-10" x="147.42627" y="19.19971"> </tspan><tspan x="152.47266" y="19.19971">V</tspan><tspan class="cls-10" x="163.25635" y="19.19971"> </tspan><tspan x="168.30273" y="19.19971">W </tspan><tspan x="0" y="38.3999">X</tspan><tspan class="cls-12" x="10.51172" y="38.3999"> </tspan><tspan class="cls-11" x="16.25488" y="38.3999">Y</tspan><tspan class="cls-13" x="26.36719" y="38.3999"> </tspan><tspan class="cls-11" x="32.10938" y="38.3999">Z</tspan><tspan class="cls-12" x="42.42969" y="38.3999"> </tspan><tspan x="48.17236" y="38.3999">a</tspan><tspan class="cls-12" x="57.78809" y="38.3999"> </tspan><tspan x="63.53076" y="38.3999">b</tspan><tspan class="cls-12" x="73.4502" y="38.3999"> </tspan><tspan class="cls-11" x="79.19287" y="38.3999">c</tspan><tspan class="cls-13" x="87.75293" y="38.3999"> </tspan><tspan class="cls-11" x="93.49561" y="38.3999">d</tspan><tspan class="cls-12" x="103.43213" y="38.3999"> </tspan><tspan x="109.1748" y="38.3999">e</tspan><tspan class="cls-12" x="118.90283" y="38.3999"> </tspan><tspan x="124.64551" y="38.3999">f</tspan><tspan class="cls-12" x="131.34912" y="38.3999"> </tspan><tspan x="137.0918" y="38.3999">g</tspan><tspan class="cls-12" x="146.80322" y="38.3999"> </tspan><tspan class="cls-11" x="152.5459" y="38.3999">h</tspan><tspan class="cls-13" x="162.6582" y="38.3999"> </tspan><tspan class="cls-11" x="168.40039" y="38.3999">i</tspan><tspan class="cls-12" x="173.18457" y="38.3999"> </tspan><tspan x="178.92725" y="38.3999">j </tspan><tspan x="0" y="57.59961">k</tspan><tspan class="cls-14" x="8.97559" y="57.59961"> </tspan><tspan class="cls-11" x="13.84668" y="57.59961">l</tspan><tspan class="cls-14" x="18.82275" y="57.59961"> </tspan><tspan x="23.69385" y="57.59961">m</tspan><tspan class="cls-14" x="38.7334" y="57.59961"> </tspan><tspan x="43.604" y="57.59961">n</tspan><tspan class="cls-14" x="53.73145" y="57.59961"> </tspan><tspan class="cls-11" x="58.60205" y="57.59961">o</tspan><tspan class="cls-14" x="68.71436" y="57.59961"> </tspan><tspan x="73.58496" y="57.59961">p</tspan><tspan class="cls-14" x="83.53662" y="57.59961"> </tspan><tspan class="cls-11" x="88.40723" y="57.59961">q</tspan><tspan class="cls-14" x="98.32715" y="57.59961"> </tspan><tspan x="103.19775" y="57.59961">r</tspan><tspan class="cls-14" x="110.1416" y="57.59961"> </tspan><tspan x="115.01221" y="57.59961">s</tspan><tspan class="cls-14" x="124.08398" y="57.59961"> </tspan><tspan class="cls-11" x="128.95459" y="57.59961">t</tspan><tspan class="cls-14" x="136.12256" y="57.59961"> </tspan><tspan x="140.99316" y="57.59961">u</tspan><tspan class="cls-14" x="150.94482" y="57.59961"> </tspan><tspan class="cls-11" x="155.81543" y="57.59961">v</tspan><tspan class="cls-14" x="165.03125" y="57.59961"> </tspan><tspan x="169.90186" y="57.59961">w </tspan><tspan x="0" y="76.7998">x</tspan><tspan class="cls-15" x="8.68799" y="76.7998"> </tspan><tspan x="14.22412" y="76.7998">y</tspan><tspan class="cls-15" x="23.45605" y="76.7998"> </tspan><tspan x="28.99219" y="76.7998">z</tspan><tspan class="cls-16" x="37.96777" y="76.7998"> </tspan><tspan class="cls-11" x="43.50391" y="76.7998">1</tspan><tspan class="cls-16" x="54.16016" y="76.7998"> </tspan><tspan class="cls-11" x="59.6958" y="76.7998">2</tspan><tspan class="cls-16" x="70.35205" y="76.7998"> </tspan><tspan x="75.8877" y="76.7998">3</tspan><tspan class="cls-15" x="86.54346" y="76.7998"> </tspan><tspan x="92.07959" y="76.7998">4</tspan><tspan class="cls-16" x="102.73535" y="76.7998"> </tspan><tspan class="cls-11" x="108.271" y="76.7998">5</tspan><tspan class="cls-16" x="118.92725" y="76.7998"> </tspan><tspan class="cls-11" x="124.46289" y="76.7998">6</tspan><tspan class="cls-16" x="135.11914" y="76.7998"> </tspan><tspan x="140.65479" y="76.7998">7</tspan><tspan class="cls-15" x="151.31055" y="76.7998"> </tspan><tspan x="156.84668" y="76.7998">8</tspan><tspan class="cls-15" x="167.50244" y="76.7998"> </tspan><tspan x="173.03857" y="76.7998">9 </tspan><tspan x="0" y="96">0</tspan><tspan class="cls-17" x="10.65576" y="96"> </tspan><tspan x="18.24951" y="96">!</tspan><tspan class="cls-18" x="23.54492" y="96"> </tspan><tspan class="cls-11" x="31.13818" y="96">@</tspan><tspan class="cls-18" x="48.49854" y="96"> </tspan><tspan x="56.0918" y="96">£</tspan><tspan class="cls-17" x="66.74756" y="96"> </tspan><tspan x="74.34131" y="96">$</tspan><tspan class="cls-18" x="84.99707" y="96"> </tspan><tspan class="cls-11" x="92.59033" y="96">%</tspan><tspan class="cls-18" x="103.24658" y="96"> </tspan><tspan x="110.83984" y="96">^</tspan><tspan class="cls-18" x="121.49561" y="96"> </tspan><tspan class="cls-11" x="129.08887" y="96">&amp;</tspan><tspan class="cls-18" x="141.66504" y="96"> </tspan><tspan x="149.2583" y="96">*</tspan><tspan class="cls-17" x="157.62598" y="96"> </tspan><tspan x="165.21973" y="96">(</tspan><tspan class="cls-18" x="170.65967" y="96"> </tspan><tspan class="cls-11" x="178.25293" y="96">)</tspan></text><text class="cls-19" transform="translate(0.9869 54.32135)">Titillium Thin</text></g></g></svg>