<svg xmlns="http://www.w3.org/2000/svg" viewBox="0 0 327.04199 117.0957"><defs><style>.cls-1{font-size:28px;letter-spacing:-0.024em;}.cls-1,.cls-22,.cls-9{font-family:Titillium-Bold, Titillium;font-weight:700;}.cls-2{letter-spacing:-0.0366em;}.cls-3{letter-spacing:-0.032em;}.cls-4{letter-spacing:-0.02699em;}.cls-5{letter-spacing:-0.03481em;}.cls-6{letter-spacing:-0.0361em;}.cls-7{letter-spacing:-0.02769em;}.cls-8{letter-spacing:-0.02501em;}.cls-22,.cls-9{font-size:16px;}.cls-9{letter-spacing:0.10001em;}.cls-10{letter-spacing:0.13065em;}.cls-11{letter-spacing:0.13068em;}.cls-12{letter-spacing:0.09998em;}.cls-13{letter-spacing:0.08542em;}.cls-14{letter-spacing:0.11301em;}.cls-15{letter-spacing:0.11304em;}.cls-16{letter-spacing:0.05902em;}.cls-17{letter-spacing:0.05905em;}.cls-18{letter-spacing:0.1261em;}.cls-19{letter-spacing:0.12613em;}.cls-20{letter-spacing:0.23801em;}.cls-21{letter-spacing:0.23804em;}</style></defs><g id="Layer_2" data-name="Layer 2"><g id="Layer_1-2" data-name="Layer 1"><text class="cls-1" transform="translate(-0.00031 23.52045)">A<tspan class="cls-2" x="16.18359" y="0">a</tspan><tspan class="cls-3" x="29.46631" y="0">B</tspan><tspan class="cls-4" x="45.62207" y="0">b</tspan><tspan class="cls-5" x="60.09814" y="0">C</tspan><tspan class="cls-6" x="74.32764" y="0">c</tspan><tspan class="cls-7" x="85.80469" y="0">D</tspan><tspan class="cls-8" x="102.89307" y="0">d</tspan></text><text class="cls-9" transform="translate(138.32196 16.12006)">A<tspan class="cls-10" x="11.23193" y="0"> </tspan><tspan x="16.8418" y="0">B</tspan><tspan class="cls-11" x="28.18604" y="0"> </tspan><tspan class="cls-12" x="33.79639" y="0">C</tspan><tspan class="cls-11" x="44.08398" y="0"> </tspan><tspan x="49.69482" y="0">D</tspan><tspan class="cls-10" x="61.50293" y="0"> </tspan><tspan x="67.11279" y="0">E</tspan><tspan class="cls-11" x="77.57666" y="0"> </tspan><tspan class="cls-12" x="83.1875" y="0">F</tspan><tspan class="cls-11" x="93.2832" y="0"> </tspan><tspan x="98.89355" y="0">G</tspan><tspan class="cls-10" x="110.26953" y="0"> </tspan><tspan x="115.87988" y="0">H</tspan><tspan class="cls-11" x="128.31201" y="0"> </tspan><tspan class="cls-12" x="133.92236" y="0">I</tspan><tspan class="cls-11" x="140.09814" y="0"> </tspan><tspan x="145.7085" y="0">J</tspan><tspan class="cls-10" x="152.14063" y="0"> </tspan><tspan x="157.75049" y="0">K</tspan><tspan class="cls-11" x="168.83838" y="0"> </tspan><tspan class="cls-12" x="174.44922" y="0">L </tspan><tspan x="0" y="19.2002">M</tspan><tspan class="cls-13" x="15.32764" y="19.2002"> </tspan><tspan x="20.21387" y="19.2002">N</tspan><tspan class="cls-13" x="32.90186" y="19.2002"> </tspan><tspan x="37.78809" y="19.2002">O</tspan><tspan class="cls-13" x="49.81982" y="19.2002"> </tspan><tspan x="54.70605" y="19.2002">P</tspan><tspan class="cls-13" x="65.72998" y="19.2002"> </tspan><tspan x="70.61621" y="19.2002">Q</tspan><tspan class="cls-13" x="82.64795" y="19.2002"> </tspan><tspan x="87.53418" y="19.2002">R</tspan><tspan class="cls-13" x="99.0542" y="19.2002"> </tspan><tspan x="103.94043" y="19.2002">S</tspan><tspan class="cls-13" x="114.24463" y="19.2002"> </tspan><tspan x="119.13086" y="19.2002">T</tspan><tspan class="cls-13" x="129.14697" y="19.2002"> </tspan><tspan x="134.0332" y="19.2002">U</tspan><tspan class="cls-13" x="146.09717" y="19.2002"> </tspan><tspan x="150.9834" y="19.2002">V</tspan><tspan class="cls-13" x="162.23145" y="19.2002"> </tspan><tspan x="167.11816" y="19.2002">W </tspan><tspan x="0" y="38.40039">X</tspan><tspan class="cls-14" x="10.70361" y="38.40039"> </tspan><tspan x="16.03125" y="38.40039">Y</tspan><tspan class="cls-15" x="26.54346" y="38.40039"> </tspan><tspan class="cls-12" x="31.87158" y="38.40039">Z</tspan><tspan class="cls-15" x="41.98291" y="38.40039"> </tspan><tspan x="47.31104" y="38.40039">a</tspan><tspan class="cls-14" x="57.08691" y="38.40039"> </tspan><tspan x="62.41455" y="38.40039">b</tspan><tspan class="cls-15" x="72.71875" y="38.40039"> </tspan><tspan class="cls-12" x="78.04688" y="38.40039">c</tspan><tspan class="cls-15" x="86.78223" y="38.40039"> </tspan><tspan x="92.11035" y="38.40039">d</tspan><tspan class="cls-14" x="102.49463" y="38.40039"> </tspan><tspan x="107.82227" y="38.40039">e</tspan><tspan class="cls-15" x="117.58252" y="38.40039"> </tspan><tspan class="cls-12" x="122.91064" y="38.40039">f</tspan><tspan class="cls-15" x="130.22217" y="38.40039"> </tspan><tspan x="135.55029" y="38.40039">g</tspan><tspan class="cls-14" x="145.69434" y="38.40039"> </tspan><tspan x="151.02197" y="38.40039">h</tspan><tspan class="cls-14" x="161.46973" y="38.40039"> </tspan><tspan x="166.79736" y="38.40039">i</tspan><tspan class="cls-15" x="172.52539" y="38.40039"> </tspan><tspan x="177.85352" y="38.40039">j </tspan><tspan x="0" y="57.6001">k</tspan><tspan class="cls-16" x="9.84033" y="57.6001"> </tspan><tspan x="14.3042" y="57.6001">l</tspan><tspan class="cls-16" x="20.22412" y="57.6001"> </tspan><tspan x="24.68848" y="57.6001">m</tspan><tspan class="cls-16" x="39.7124" y="57.6001"> </tspan><tspan class="cls-12" x="44.17627" y="57.6001">n</tspan><tspan class="cls-17" x="54.62354" y="57.6001"> </tspan><tspan class="cls-12" x="59.08789" y="57.6001">o</tspan><tspan class="cls-16" x="69.19922" y="57.6001"> </tspan><tspan x="73.66309" y="57.6001">p</tspan><tspan class="cls-16" x="83.96729" y="57.6001"> </tspan><tspan x="88.43115" y="57.6001">q</tspan><tspan class="cls-16" x="98.71924" y="57.6001"> </tspan><tspan x="103.18359" y="57.6001">r</tspan><tspan class="cls-16" x="110.73584" y="57.6001"> </tspan><tspan x="115.19971" y="57.6001">s</tspan><tspan class="cls-16" x="124.35156" y="57.6001"> </tspan><tspan x="128.81543" y="57.6001">t</tspan><tspan class="cls-16" x="136.23975" y="57.6001"> </tspan><tspan x="140.70361" y="57.6001">u</tspan><tspan class="cls-16" x="151.15137" y="57.6001"> </tspan><tspan x="155.61523" y="57.6001">v</tspan><tspan class="cls-16" x="165.18311" y="57.6001"> </tspan><tspan x="169.64697" y="57.6001">w </tspan><tspan x="0" y="76.80029">x</tspan><tspan class="cls-18" x="9.18408" y="76.80029"> </tspan><tspan x="14.72119" y="76.80029">y</tspan><tspan class="cls-18" x="24.32129" y="76.80029"> </tspan><tspan x="29.8584" y="76.80029">z</tspan><tspan class="cls-18" x="38.72217" y="76.80029"> </tspan><tspan x="44.25928" y="76.80029">1</tspan><tspan class="cls-18" x="54.81934" y="76.80029"> </tspan><tspan x="60.35645" y="76.80029">2</tspan><tspan class="cls-18" x="70.9165" y="76.80029"> </tspan><tspan x="76.45361" y="76.80029">3</tspan><tspan class="cls-18" x="87.01367" y="76.80029"> </tspan><tspan x="92.55078" y="76.80029">4</tspan><tspan class="cls-18" x="103.11084" y="76.80029"> </tspan><tspan x="108.64795" y="76.80029">5</tspan><tspan class="cls-18" x="119.20801" y="76.80029"> </tspan><tspan x="124.74512" y="76.80029">6</tspan><tspan class="cls-19" x="135.30518" y="76.80029"> </tspan><tspan class="cls-12" x="140.84277" y="76.80029">7</tspan><tspan class="cls-19" x="151.40234" y="76.80029"> </tspan><tspan class="cls-12" x="156.93994" y="76.80029">8</tspan><tspan class="cls-19" x="167.49951" y="76.80029"> </tspan><tspan class="cls-12" x="173.03711" y="76.80029">9 </tspan><tspan x="0" y="96">0</tspan><tspan class="cls-20" x="10.56006" y="96"> </tspan><tspan x="17.8877" y="96">!</tspan><tspan class="cls-20" x="23.96777" y="96"> </tspan><tspan x="31.2959" y="96">@</tspan><tspan class="cls-21" x="48.46387" y="96"> </tspan><tspan x="55.79248" y="96">£</tspan><tspan class="cls-20" x="66.35254" y="96"> </tspan><tspan x="73.68018" y="96">$</tspan><tspan class="cls-20" x="84.24023" y="96"> </tspan><tspan x="91.56787" y="96">%</tspan><tspan class="cls-20" x="102.12793" y="96"> </tspan><tspan x="109.45557" y="96">^</tspan><tspan class="cls-20" x="120.01563" y="96"> </tspan><tspan x="127.34326" y="96">&amp;</tspan><tspan class="cls-20" x="140.15918" y="96"> </tspan><tspan x="147.48682" y="96">*</tspan><tspan class="cls-20" x="155.88672" y="96"> </tspan><tspan x="163.21436" y="96">(</tspan><tspan class="cls-20" x="169.74219" y="96"> </tspan><tspan x="177.06982" y="96">)</tspan></text><text class="cls-22" transform="translate(-0.00031 54.51422)">Titillium Bold</text></g></g></svg>