<?xml version="1.0" encoding="UTF-8"?><svg xmlns="http://www.w3.org/2000/svg" viewBox="0 0 380 167.57845"><defs><style>.d{fill:#fff;}</style></defs><g id="a"/><g id="b"><g id="c"><g><g><path class="d" d="M190.39845,112.58084c-1.30033,.75072-2.90232,.75063-4.20266-.00009l-51.10978-29.50873v4.55596c0,2.00197,1.06811,3.85184,2.80177,4.85283l46.20668,26.67729c2.6005,1.50144,5.80465,1.50152,8.40515,.00009l35.5333-20.51473-6.7469-3.89527-30.88756,17.83266Z"/><path class="d" d="M265.80748,104.92088l-24.31464-14.04823,.01539-.00889-.00051-56.58994c0-3.00296-1.60216-5.77772-4.20266-7.27915L192.49943,1.12615c-2.60067-1.50152-5.80465-1.50152-8.40532-.00009l-44.80579,25.868c-2.60067,1.50152-4.20266,4.27636-4.20266,7.27941l.00034,37.77272c0,2.00197,1.06811,3.85184,2.80177,4.85283l48.30801,27.8911c1.30033,.7508,2.90232,.7508,4.20266,.00009l24.14084-13.93738-6.74399-3.89365v-.00333l-18.09729,10.44816c-.86683,.50054-1.93477,.50045-2.80177,0l-42.962-24.80434c-1.30033-.75072-2.10133-2.13818-2.10133-3.63962l-.00034-33.2177c0-1.50152,.801-2.8889,2.10133-3.63962L186.19544,7.7035c1.30033-.75072,2.90232-.75072,4.20266,0l42.26121,24.39957c1.30033,.7508,2.1015,2.13818,2.1015,3.63971l.00051,51.22564-.013,.00752-6.7445-3.89673,.0106-.00607-.00034-43.43509c0-1.50144-.801-2.88882-2.10133-3.63953l-35.51449-20.50429c-1.30033-.75072-2.90232-.75072-4.20266,0l-35.51449,20.50395c-1.30033,.75072-2.10133,2.1381-2.10133,3.63962v25.42732c0,1.50135,.801,2.88873,2.10133,3.63945l36.2151,20.90898c.86683,.50054,1.93494,.50054,2.80177,0l18.07301-10.43431,58.03647,33.74105v-7.99939Zm-58.03373-33.53383l-.00325,.00188-19.85575-11.47198v6.17411c0,1.00073,.53371,1.92545,1.4002,2.42607l11.71122,6.76562-12.02861,6.94466c-.43333,.25027-.96756,.25027-1.40089,0l-18.77499-10.83968v-21.68167c0-.50045,.26694-.96285,.70027-1.21312l3.77206-2.17811,14.30265-8.25774c.43333-.25018,.96756-.25018,1.40089,0l18.07574,10.43602c.43333,.25027,.70044,.71276,.70044,1.21321v21.68073Zm13.48558,7.79542l-6.7445-3.89681,.00564-.00325v-28.66268c0-1.00099-.53405-1.92588-1.40089-2.42641l-23.42158-13.52244c-.86683-.50045-1.93494-.50045-2.80177,0l-17.07176,9.85639-.59254,.34218-2.8028,1.61815-2.95397,1.70622c-.86666,.50054-1.40054,1.42534-1.40054,2.42616v20.8723l-5.34704-3.0871c-.86683-.50054-1.40089-1.42543-1.40089-2.42641l-.00017-19.25449c0-1.0009,.53405-1.92588,1.40072-2.42633l30.16882-17.41754c.86683-.50054,1.93494-.50054,2.80177,0l30.16848,17.4178c.86683,.50045,1.40089,1.42543,1.40089,2.42641l.00034,36.45314-.00821,.0047Z"/></g><g><path class="d" d="M21.39088,162.57685c-.75653,.33654-1.65398,.5951-2.68959,.77705-1.03698,.18195-2.07397,.27361-3.10958,.27361-2.18615,0-4.23139-.38579-6.13572-1.156-1.9057-.77021-3.55967-1.82772-4.95919-3.17252-1.40225-1.3448-2.5008-2.93447-3.29974-4.7704-.79894-1.83456-1.19705-3.81687-1.19705-5.94693,0-2.12869,.3981-4.11784,1.19705-5.96745,.79894-1.84961,1.89749-3.45297,3.29974-4.81144,1.39952-1.35984,3.05349-2.43103,4.95919-3.21492,1.90433-.78526,3.94957-1.17789,6.13572-1.17789,2.18478,0,4.23002,.39263,6.13572,1.17789,1.90433,.78389,3.55694,1.85508,4.95919,3.21492,1.40089,1.35848,2.5008,2.96183,3.29838,4.81144,.79894,1.84961,1.19841,3.83876,1.19841,5.96745,0,2.10133-.39947,4.06312-1.19841,5.884-.79757,1.82225-1.87013,3.36267-3.21492,4.62265l3.65681,4.49679-5.21091,3.99335-3.82508-5.0016Zm-5.16987-6.59812c-.39263-.50481-.76337-1.02194-1.1136-1.55548-.35022-.5308-.52533-1.03562-.52533-1.51307,0-.67171,.16827-1.22441,.50481-1.65945,.33654-.43367,.74969-.77705,1.23946-1.03014,.48976-.25172,1.0151-.42683,1.576-.52533,.5609-.09713,1.05066-.14638,1.47066-.14638l3.11095,4.11784c.3639-.50344,.67855-1.21073,.94532-2.12185,.2654-.90976,.39947-1.89749,.39947-2.9632,0-1.23262-.20384-2.37357-.61015-3.42424-.40631-1.05066-.97269-1.96179-1.70186-2.732s-1.59652-1.37216-2.60477-1.8072c-1.00962-.43367-2.11638-.65119-3.32026-.65119-1.20525,0-2.31201,.21752-3.32026,.65119-1.00826,.43504-1.87834,1.03698-2.60614,1.8072-.72917,.77021-1.29555,1.68134-1.70186,2.732s-.60878,2.19162-.60878,3.42424c0,1.23398,.20247,2.37494,.60878,3.4256s.97269,1.96863,1.70186,2.75252c.7278,.78526,1.59789,1.40089,2.60614,1.84961,1.00826,.44872,2.11501,.67171,3.32026,.67171h.79757c.30781,0,.57458-.02736,.79894-.08345l-.96721-1.21894Z"/><path class="d" d="M44.21137,137.90675c0-.61562,.08345-1.1478,.25172-1.59652,.16827-.44735,.38442-.81946,.65119-1.1136s.57458-.51849,.9248-.67308c.35022-.15322,.70728-.25856,1.07119-.31465,.28045-.05609,.61015-.11218,.98773-.16827,.37895-.05609,.85503-.10534,1.42962-.14638,.57321-.04241,1.27366-.07798,2.10133-.10534,.8263-.02736,1.82772-.04241,3.00424-.04241,2.52132,0,4.62265,.27361,6.30399,.81946,1.68134,.54722,3.03297,1.28187,4.05628,2.20667,1.02194,.9248,1.74974,1.98231,2.18478,3.17252,.43367,1.19157,.65119,2.43103,.65119,3.71974,0,1.7087-.35022,3.24365-1.05066,4.60213s-1.84824,2.47344-3.44613,3.34079c.41999,.67308,.88239,1.45698,1.38721,2.35305,.50481,.89744,1.03014,1.84277,1.576,2.83734,.54585,.99457,1.08487,2.02472,1.61841,3.08906,.53217,1.06571,1.03562,2.10133,1.51307,3.10958h-8.02774c-.14091-.30781-.39947-.88923-.77705-1.74427-.37895-.85367-.81262-1.77847-1.30375-2.77304-.48976-.99457-.99457-1.96863-1.5117-2.92079-.51986-.95216-.96037-1.69502-1.32428-2.22719-.39263,.05609-.7921,.08345-1.19841,.08345h-1.28187c-.1669,0-.3981-.00684-.69223-.02052-.2955-.01368-.59647-.02736-.90428-.04241-.30918-.01368-.58826-.02736-.83998-.04241-.25309-.01368-.42136-.0342-.50481-.06293v9.75011h-6.84984v-25.09009Zm6.84984,9.37253c.08345,0,.20247,.01505,.35706,.04241,.15322,.02736,.37074,.05609,.65119,.08345,.28045,.02873,.63751,.04925,1.07255,.06293,.43367,.01505,.97269,.02189,1.61704,.02189,1.20525,0,2.19299-.10534,2.9632-.31602,.77021-.20931,1.37216-.48976,1.8072-.83998,.43367-.35022,.7278-.75653,.88239-1.21894s.2312-.93164,.2312-1.40773c0-.44872-.06977-.90428-.20931-1.36669-.14091-.4624-.4282-.88923-.86187-1.28187-.43504-.39126-1.05751-.71412-1.87013-.96585-.81262-.25172-1.89202-.37895-3.23681-.37895-.98089,0-1.75795,.02189-2.33253,.06293-.57458,.04241-.93164,.07798-1.07119,.10534v7.39706Z"/><path class="d" d="M79.72329,148.58166c0-2.12869,.3981-4.11784,1.19705-5.96745s1.89749-3.45297,3.29974-4.81144c1.39952-1.35984,3.05349-2.43103,4.95919-3.21492,1.90433-.78526,3.94957-1.17789,6.13572-1.17789,2.18478,0,4.23002,.39263,6.13572,1.17789,1.90433,.78389,3.55694,1.85508,4.95919,3.21492,1.40089,1.35848,2.5008,2.96183,3.29838,4.81144,.79894,1.84961,1.19841,3.83876,1.19841,5.96745,0,2.13006-.39947,4.11921-1.19841,5.96882-.79757,1.84824-1.89749,3.45297-3.29838,4.81144-1.40225,1.35984-3.05486,2.43103-4.95919,3.21492-1.9057,.78389-3.95094,1.17653-6.13572,1.17653-2.18615,0-4.23139-.39263-6.13572-1.17653-1.9057-.78389-3.55967-1.85508-4.95919-3.21492-1.40225-1.35848-2.5008-2.9632-3.29974-4.81144-.79894-1.84961-1.19705-3.83876-1.19705-5.96882Zm15.5917,8.616c1.20389,0,2.31064-.21752,3.32026-.65119,1.00826-.43504,1.8756-1.04382,2.60477-1.82909,.72917-.78389,1.29555-1.69365,1.70186-2.73063,.40631-1.03698,.61015-2.1711,.61015-3.40508,0-1.23262-.20384-2.37357-.61015-3.42424-.40631-1.05066-.97269-1.96179-1.70186-2.732-.72917-.77021-1.59652-1.37216-2.60477-1.8072-1.00962-.43367-2.11638-.65119-3.32026-.65119-1.20525,0-2.31201,.21752-3.32026,.65119-1.00826,.43504-1.87834,1.03698-2.60614,1.8072-.72917,.77021-1.29555,1.68134-1.70186,2.732s-.60878,2.19162-.60878,3.42424c0,1.23398,.20247,2.3681,.60878,3.40508s.97269,1.94674,1.70186,2.73063c.7278,.78526,1.59789,1.39405,2.60614,1.82909,1.00826,.43367,2.11501,.65119,3.32026,.65119Z"/><path class="d" d="M123.93466,137.82329c0-.7278,.11081-1.33112,.33517-1.8072s.51849-.84682,.88376-1.1136c.36253-.2654,.77705-.45556,1.23946-.56774,.4624-.11081,.93028-.16827,1.40773-.16827,.98089,0,1.76479,.13407,2.35305,.39947,.58826,.26677,.96721,.46924,1.13548,.61015,.13954,.13954,.45419,.54585,.94532,1.21757,.48976,.67308,1.07803,1.49939,1.76479,2.48028s1.42962,2.06713,2.22719,3.25733c.79894,1.19021,1.576,2.35305,2.33253,3.48854,.75653,1.13412,1.45698,2.18478,2.10133,3.15199,.64435,.96585,1.14916,1.7429,1.51307,2.33116v-13.82554c0-1.14916,.33654-1.95495,1.00826-2.41735,.67308-.4624,1.55548-.6936,2.64855-.6936,.81262,0,1.52675,.0985,2.14237,.29413,.61699,.197,.99457,.32286,1.13548,.37895v28.15727h-6.59812c-.25172-.41999-.64435-1.05066-1.17653-1.89065-.53354-.84135-1.14916-1.79352-1.84961-2.85786-.70044-1.06435-1.45014-2.20667-2.24771-3.4256-.79894-1.21894-1.58421-2.41598-2.35442-3.59251-.77021-1.17789-1.50623-2.28328-2.20667-3.32026s-1.30239-1.91938-1.8072-2.64855v17.73544h-6.93329v-25.17354Z"/><path class="d" d="M162.13618,148.58166c0-2.12869,.39947-4.11784,1.19841-5.96745,.79757-1.84961,1.89749-3.45297,3.29838-4.81144,1.40089-1.35984,3.05349-2.43103,4.95919-3.21492,1.9057-.78526,3.95094-1.17789,6.13572-1.17789,2.18615,0,4.23002,.39263,6.13572,1.17789,1.9057,.78389,3.55831,1.85508,4.95919,3.21492,1.40089,1.35848,2.5008,2.96183,3.29974,4.81144,.79757,1.84961,1.19705,3.83876,1.19705,5.96745,0,2.13006-.39947,4.11921-1.19705,5.96882-.79894,1.84824-1.89886,3.45297-3.29974,4.81144-1.40089,1.35984-3.05349,2.43103-4.95919,3.21492-1.9057,.78389-3.94957,1.17653-6.13572,1.17653-2.18478,0-4.23002-.39263-6.13572-1.17653-1.9057-.78389-3.55831-1.85508-4.95919-3.21492-1.40089-1.35848-2.5008-2.9632-3.29838-4.81144-.79894-1.84961-1.19841-3.83876-1.19841-5.96882Zm15.5917,8.616c1.20389,0,2.31201-.21752,3.32026-.65119,1.00826-.43504,1.87697-1.04382,2.60614-1.82909,.7278-.78389,1.29555-1.69365,1.70186-2.73063,.40494-1.03698,.60878-2.1711,.60878-3.40508,0-1.23262-.20384-2.37357-.60878-3.42424-.40631-1.05066-.97405-1.96179-1.70186-2.732-.72917-.77021-1.59789-1.37216-2.60614-1.8072-1.00826-.43367-2.11638-.65119-3.32026-.65119-1.20525,0-2.31064,.21752-3.32026,.65119-1.00826,.43504-1.87697,1.03698-2.60477,1.8072-.72917,.77021-1.29691,1.68134-1.70323,2.732s-.60878,2.19162-.60878,3.42424c0,1.23398,.20247,2.3681,.60878,3.40508s.97405,1.94674,1.70323,2.73063c.7278,.78526,1.59652,1.39405,2.60477,1.82909,1.00962,.43367,2.11501,.65119,3.32026,.65119Z"/><path class="d" d="M206.34755,162.99684v-25.7194c0-1.14916,.33654-1.95495,1.00826-2.41735,.67308-.4624,1.55548-.6936,2.64855-.6936,.81262,0,1.53359,.0985,2.16426,.29413,.63067,.197,1.03014,.32286,1.19705,.37895v21.60156h13.32347v6.55571h-20.34158Z"/><path class="d" d="M236.56511,148.58166c0-2.12869,.3981-4.11784,1.19705-5.96745,.79894-1.84961,1.89749-3.45297,3.29974-4.81144,1.39952-1.35984,3.05349-2.43103,4.95919-3.21492,1.90433-.78526,3.94957-1.17789,6.13572-1.17789,2.18478,0,4.23002,.39263,6.13572,1.17789,1.90433,.78389,3.55694,1.85508,4.95919,3.21492,1.40089,1.35848,2.5008,2.96183,3.29838,4.81144,.79894,1.84961,1.19841,3.83876,1.19841,5.96745,0,2.13006-.39947,4.11921-1.19841,5.96882-.79757,1.84824-1.89749,3.45297-3.29838,4.81144-1.40225,1.35984-3.05486,2.43103-4.95919,3.21492-1.9057,.78389-3.95094,1.17653-6.13572,1.17653-2.18615,0-4.23139-.39263-6.13572-1.17653-1.9057-.78389-3.55967-1.85508-4.95919-3.21492-1.40225-1.35848-2.5008-2.9632-3.29974-4.81144-.79894-1.84961-1.19705-3.83876-1.19705-5.96882Zm15.5917,8.616c1.20389,0,2.31064-.21752,3.32026-.65119,1.00826-.43504,1.8756-1.04382,2.60477-1.82909,.72917-.78389,1.29555-1.69365,1.70186-2.73063s.61015-2.1711,.61015-3.40508c0-1.23262-.20384-2.37357-.61015-3.42424-.40631-1.05066-.97269-1.96179-1.70186-2.732-.72917-.77021-1.59652-1.37216-2.60477-1.8072-1.00962-.43367-2.11638-.65119-3.32026-.65119-1.20525,0-2.31201,.21752-3.32026,.65119-1.00826,.43504-1.87834,1.03698-2.60614,1.8072-.72917,.77021-1.29555,1.68134-1.70186,2.732s-.60878,2.19162-.60878,3.42424c0,1.23398,.20247,2.3681,.60878,3.40508s.97269,1.94674,1.70186,2.73063c.7278,.78526,1.59789,1.39405,2.60614,1.82909,1.00826,.43367,2.11501,.65119,3.32026,.65119Z"/><path class="d" d="M298.8895,152.40674h-2.56373c-1.28871,0-2.20667-.25856-2.75252-.77842-.54585-.51712-.81946-1.29555-.81946-2.33116,0-.75653,.11081-1.43646,.33654-2.0384,.22299-.60331,.40494-1.0151,.54585-1.24082h7.98533c2.77304,0,4.16025,1.33112,4.16025,3.99335v12.98556c-.14091,.02736-.48292,.08482-1.03014,.16827-.54585,.08482-1.23946,.16827-2.07944,.25172-.84135,.08482-1.78668,.16143-2.83734,.2312-1.05066,.06977-2.15058,.10534-3.29838,.10534-2.52269,0-4.82649-.31465-6.91414-.94532-2.08765-.63067-3.88117-1.576-5.37918-2.83734-1.49939-1.25998-2.66223-2.83597-3.48854-4.72799-.8263-1.89065-1.23946-4.09732-1.23946-6.61864,0-2.35305,.39947-4.46806,1.19841-6.3464,.79757-1.87697,1.91117-3.47349,3.34079-4.79092,1.42825-1.31607,3.12327-2.32432,5.08505-3.02613,1.96042-.69908,4.09048-1.05066,6.38744-1.05066,1.17789,0,2.22035,.07114,3.13147,.21068,.90976,.14091,1.7087,.30918,2.39546,.50481s1.26682,.41315,1.74427,.65119c.47608,.23804,.86735,.45556,1.17653,.65119,1.17653,.72917,1.76479,1.66766,1.76479,2.81545,0,.53217-.10397,1.03014-.31465,1.49255s-.45556,.86871-.73601,1.21894-.57458,.65803-.88239,.92344c-.30781,.26677-.5609,.47061-.75653,.61015-.28045-.28045-.63751-.58142-1.07119-.90428-.43504-.32149-.95353-.62246-1.55548-.90292s-1.30239-.50481-2.10133-.67308c-.79757-.1669-1.68818-.25172-2.6677-.25172-1.37353,0-2.60614,.21068-3.69922,.63067-1.09307,.41999-2.01651,1.0151-2.77304,1.78531-.75653,.77158-1.33932,1.70323-1.74427,2.79493-.40631,1.09307-.61015,2.31201-.61015,3.65681,0,2.99877,.84819,5.19723,2.54321,6.59812s4.01387,2.10133,6.95518,2.10133c.50481,0,1.03014-.01368,1.576-.04241,.54585-.02736,.87555-.05472,.98773-.08345v-4.79092Z"/><path class="d" d="M319.44039,138.15984c0-2.66223,1.38584-3.99335,4.16025-3.99335h14.37277c1.28871,0,2.20667,.27361,2.75252,.81946,.54722,.54722,.81946,1.33932,.81946,2.37494,0,.75653-.11218,1.45014-.33517,2.08081-.22573,.6293-.40768,1.05751-.54722,1.28187h-14.2045v4.49679h10.96905c1.28871,0,2.20667,.27224,2.75252,.81946,.54585,.54585,.81946,1.33796,.81946,2.37357,0,.75653-.11218,1.45014-.33654,2.08081s-.40631,1.05751-.54585,1.28187h-13.65864v4.66506h14.87758v6.55571h-21.89569v-24.837Z"/><path class="d" d="M354.78405,137.90675c0-.61562,.08345-1.1478,.25172-1.59652,.16827-.44735,.38442-.81946,.65119-1.1136s.57458-.51849,.9248-.67308c.35022-.15322,.70728-.25856,1.07119-.31465,.28045-.05609,.61015-.11218,.98773-.16827,.37895-.05609,.85503-.10534,1.42962-.14638,.57321-.04241,1.27366-.07798,2.10133-.10534,.8263-.02736,1.82772-.04241,3.00424-.04241,2.52132,0,4.62265,.27361,6.30399,.81946,1.68134,.54722,3.03297,1.28187,4.05628,2.20667,1.02194,.9248,1.74974,1.98231,2.18478,3.17252,.43367,1.19157,.65119,2.43103,.65119,3.71974,0,1.7087-.35022,3.24365-1.05066,4.60213-.70044,1.35848-1.84824,2.47344-3.44613,3.34079,.41999,.67308,.88239,1.45698,1.38721,2.35305,.50481,.89744,1.03014,1.84277,1.576,2.83734,.54585,.99457,1.08487,2.02472,1.61841,3.08906,.53217,1.06571,1.03562,2.10133,1.51307,3.10958h-8.02774c-.14091-.30781-.39947-.88923-.77705-1.74427-.37895-.85367-.81262-1.77847-1.30375-2.77304-.48976-.99457-.99457-1.96863-1.5117-2.92079-.51986-.95216-.96037-1.69502-1.32428-2.22719-.39263,.05609-.7921,.08345-1.19841,.08345h-1.28187c-.1669,0-.3981-.00684-.69223-.02052-.2955-.01368-.59647-.02736-.90428-.04241-.30918-.01368-.58826-.02736-.83998-.04241-.25309-.01368-.42136-.0342-.50481-.06293v9.75011h-6.84984v-25.09009Zm6.84984,9.37253c.08345,0,.20247,.01505,.35706,.04241,.15322,.02736,.37074,.05609,.65119,.08345,.28045,.02873,.63751,.04925,1.07255,.06293,.43367,.01505,.97269,.02189,1.61704,.02189,1.20525,0,2.19299-.10534,2.9632-.31602,.77021-.20931,1.37216-.48976,1.8072-.83998,.43367-.35022,.7278-.75653,.88239-1.21894s.2312-.93164,.2312-1.40773c0-.44872-.06977-.90428-.20931-1.36669-.14091-.4624-.4282-.88923-.86187-1.28187-.43504-.39126-1.05751-.71412-1.87013-.96585-.81262-.25172-1.89202-.37895-3.23681-.37895-.98089,0-1.75795,.02189-2.33253,.06293-.57458,.04241-.93164,.07798-1.07119,.10534v7.39706Z"/></g></g></g></g></svg>