<?xml version="1.0" encoding="UTF-8"?><svg xmlns="http://www.w3.org/2000/svg" viewBox="0 0 41.00246 41"><defs><style>.d,.e{fill:gray;}.e{fill-rule:evenodd;}</style></defs><g id="a"/><g id="b"><g id="c"><g><path class="e" d="M17.57248,0h5.85749c.65083,0,1.30167,.4881,1.46437,1.13889l.32542,3.25397c1.13896,.3254,2.27791,.81349,3.41687,1.46429l2.44062-2.11508c.65083-.3254,1.46437-.3254,1.9525,.1627l4.0677,4.23016c.48812,.4881,.48812,1.30159,.16271,1.78968l-1.9525,2.60317c.48812,.97619,.97625,2.11508,1.30167,3.25397l3.25416,.4881c.65083,0,1.13896,.65079,1.13896,1.30159v5.85714c0,.65079-.48812,1.30159-1.13896,1.46429l-3.25416,.3254c-.32542,1.13889-.81354,2.27778-1.30167,3.41667l1.9525,2.44048c.32542,.65079,.32542,1.46429-.16271,1.95238l-4.0677,4.06746c-.48812,.4881-1.30167,.4881-1.9525,.1627l-2.44062-1.95238c-1.13896,.4881-2.27791,.97619-3.41687,1.30159l-.32542,3.25397c-.16271,.65079-.81354,1.13889-1.46437,1.13889h-5.85749c-.65083,0-1.30167-.4881-1.30167-1.13889l-.48812-3.25397c-1.13896-.3254-2.27791-.81349-3.25416-1.30159l-2.60333,1.95238c-.48812,.3254-1.30167,.3254-1.78979-.1627l-4.23041-4.06746c-.48812-.4881-.48812-1.30159-.16271-1.95238l2.11521-2.44048c-.65083-1.13889-1.13896-2.27778-1.46437-3.41667l-3.25416-.3254c-.65083-.1627-1.13896-.81349-1.13896-1.46429v-5.85714c0-.65079,.48812-1.30159,1.13896-1.30159l3.25416-.4881c.32542-1.13889,.81354-2.27778,1.46437-3.25397l-2.11521-2.60317c-.32542-.4881-.32542-1.30159,.16271-1.78968L8.13541,3.90476c.48812-.4881,1.30167-.4881,1.78979-.1627l2.60333,2.11508c.97625-.65079,2.11521-1.13889,3.25416-1.46429l.48812-3.25397c0-.65079,.65083-1.13889,1.30167-1.13889Zm2.92875,7.5c7.20043,0,13.00078,5.8,13.00078,13s-5.80035,13-13.00078,13-13.00078-5.8-13.00078-13S13.3008,7.5,20.50123,7.5Z"/><g><path class="d" d="M14.29176,22.77479l-.42027,3.21007h-1.88248l1.933-12h2.61491l2.00705,12h-1.93424l-.47203-3.21007h-1.84593Zm1.62743-1.70196c-.27436-2.03807-.53665-3.97242-.67394-5.32921h-.06755c-.05176,.98881-.41245,3.55831-.65164,5.32921h1.39313Z"/><path class="d" d="M19.95194,13.98485h2.66922c1.9058,0,2.87749,.94137,2.87749,3.06343v.70701c0,1.98047-.7072,3.29618-2.98101,3.29618h-.71495v4.93338h-1.85076V13.98485Zm1.85076,5.55443h.50719c1.15401,0,1.35153-.6739,1.35153-1.84509v-.58991c0-.87222-.15878-1.59144-1.18691-1.59144h-.67182v4.02644Z"/><path class="d" d="M28.64926,13.98485v12h-1.85083V13.98485h1.85083Z"/></g></g></g></g></svg>