<?xml version="1.0" encoding="UTF-8"?><svg xmlns="http://www.w3.org/2000/svg" viewBox="0 0 46.15484 39.9996"><defs><style>.d{fill:gray;}</style></defs><g id="a"/><g id="b"><g id="c"><g><path class="d" d="M44.35246,7.95696c-1.20173-1.20165-2.65174-1.8027-4.35099-1.8027h-5.38452l-1.22594-3.26904c-.30469-.78521-.86135-1.46235-1.67082-2.03128-.80957-.56894-1.63883-.85394-2.48818-.85394h-12.30832c-.84936,0-1.67904,.28499-2.48819,.85394-.80947,.56894-1.36613,1.24607-1.67082,2.03128l-1.22594,3.26904H6.15421c-1.69924,0-3.14925,.60104-4.3514,1.8027-1.20173,1.20209-1.80281,2.652-1.80281,4.35073v21.53808c0,1.69872,.60107,3.14906,1.80281,4.35072,1.20215,1.20208,2.65216,1.80312,4.3514,1.80312H40.00105c1.69882,0,3.14883-.60104,4.35098-1.80312,1.20173-1.20166,1.8028-2.652,1.8028-4.35072V12.30768c.00042-1.69872-.60065-3.14864-1.80238-4.35073h0Zm-13.66624,22.72784c-2.1075,2.10769-4.64368,3.16138-7.60875,3.16138s-5.50051-1.05369-7.60833-3.16138c-2.1075-2.10696-3.16125-4.6434-3.16125-7.60745,0-2.96531,1.05417-5.5006,3.16125-7.60829,2.1074-2.10737,4.64368-3.16096,7.60833-3.16096,2.96507,0,5.50125,1.054,7.60875,3.16096,2.1074,2.10727,3.16115,4.64298,3.16115,7.60829,0,2.96405-1.05375,5.50018-3.16115,7.60745h0Z"/><path class="d" d="M23.07747,16.15397c-1.90721,0-3.53783,.67703-4.89207,2.03118-1.35424,1.35426-2.03141,2.98468-2.03141,4.89219,0,1.90668,.67717,3.53751,2.03141,4.89167,1.35423,1.35384,2.98485,2.03086,4.89207,2.03086s3.53773-.67703,4.89196-2.03086c1.35423-1.35415,2.03182-2.98499,2.03182-4.89167,0-1.90752-.67759-3.53751-2.03182-4.89219-1.35382-1.35415-2.98475-2.03118-4.89196-2.03118h0Z"/></g></g></g></svg>