<?xml version="1.0" encoding="UTF-8"?><svg xmlns="http://www.w3.org/2000/svg" viewBox="0 0 57.14531 39.9996"><defs><style>.d{fill:gray;}</style></defs><g id="a"/><g id="b"><g id="c"><path class="d" d="M51.43065,0H5.71467C2.5714,0,0,2.57138,0,5.71433v28.57094c0,3.14295,2.5714,5.71433,5.71467,5.71433H51.43065c3.14327,0,5.71467-2.57138,5.71467-5.71433V5.71433c0-3.14295-2.5714-5.71433-5.71467-5.71433h0ZM25.71567,8.57114h5.71397v5.71433h-5.71397v-5.71433Zm0,8.57184h5.71397v5.71363h-5.71397v-5.71363Zm-8.57236-8.57184h5.71467v5.71433h-5.71467v-5.71433Zm0,8.57184h5.71467v5.71363h-5.71467v-5.71363Zm-2.85699,5.71363h-5.71467v-5.71363h5.71467v5.71363Zm0-8.57114h-5.71467v-5.71433h5.71467v5.71433Zm25.71567,19.9998H17.14331v-5.71433h22.85869v5.71433Zm0-11.42866h-5.71467v-5.71363h5.71467v5.71363Zm0-8.57114h-5.71467v-5.71433h5.71467v5.71433Zm8.57166,8.57114h-5.71467v-5.71363h5.71467v5.71363Zm0-8.57114h-5.71467v-5.71433h5.71467v5.71433Z"/></g></g></svg>