<?xml version="1.0" encoding="UTF-8"?><svg xmlns="http://www.w3.org/2000/svg" viewBox="0 0 61.71099 39.9996"><defs><style>.d{fill:gray;opacity:.98;}</style></defs><g id="a"/><g id="b"><g id="c"><path class="d" d="M48.81501,14.19921h-.832C45.94882,4.53694,36.4665-1.64697,26.8036,.3871c-5.07426,1.06812-9.43479,4.28649-11.95079,8.82041C6.35204,9.51076-.29333,16.64742,.00998,25.14763c.30327,8.50026,7.44031,15.14524,15.94107,14.84199H48.81501c7.12226,0,12.89598-5.77337,12.89598-12.89521s-5.77372-12.89521-12.89598-12.89521Zm-10.94908,20.03334l.16636-.08323,.04992,.08323h-.21628Zm1.84844-3.17521c-.81164,.81828-2.13296,.8237-2.9513,.01211l-.01211-.01211-5.90589-5.90558-5.88506,5.90558c-.81164,.81828-2.13301,.8237-2.9513,.01211l-.01211-.01211c-.80914-.8139-.80914-2.12841,0-2.94236l5.90594-5.90558-5.90594-5.90553c-.80914-.81395-.80914-2.12846,0-2.94236,.81164-.81828,2.13296-.8237,2.9513-.01211l.01211,.01211,5.88506,5.90553,5.88502-5.90553c.81164-.81828,2.13301-.8237,2.9513-.01211l.01211,.01211c.80914,.8139,.80914,2.12841,0,2.94236l-5.88506,5.90553,5.90594,5.90558c.80914,.81395,.80914,2.12846,0,2.94236Z"/></g></g></svg>