<?xml version="1.0" encoding="UTF-8"?><svg xmlns="http://www.w3.org/2000/svg" viewBox="0 0 44.45462 42"><defs><style>.d{fill:gray;}.e{fill:none;stroke:gray;stroke-linecap:round;stroke-linejoin:round;stroke-width:4px;}</style></defs><g id="a"/><g id="b"><g id="c"><g><g><path class="e" d="M39.63578,13.4c-2.93303-6.70798-9.61921-11.4-17.40847-11.4S7.75187,6.69202,4.81884,13.4"/><path class="d" d="M.00618,10.85401l1.02431,9.15526c.08131,.72673,.9188,1.09296,1.50756,.65924l7.41731-5.46404c.58882-.43376,.48724-1.34229-.18284-1.63529L1.3309,9.87796c-.67007-.293-1.40603,.24926-1.32472,.97605Z"/></g><g><path class="e" d="M4.81884,28.6c2.93303,6.70798,9.61921,11.4,17.40847,11.4s14.47544-4.69202,17.40847-11.4"/><path class="d" d="M44.44843,31.14599l-1.02431-9.15526c-.08131-.72673-.9188-1.09296-1.50756-.65924l-7.41731,5.46404c-.58882,.43376-.48724,1.34229,.18284,1.63529l8.44163,3.69122c.67007,.293,1.40603-.24926,1.32472-.97605Z"/></g></g></g></g></svg>