<svg xmlns="http://www.w3.org/2000/svg" viewBox="0 0 42.51172 42"><defs><style>.cls-1{fill:gray;}</style></defs><g id="Layer_2" data-name="Layer 2"><g id="Capa_1" data-name="Capa 1"><g id="Group_387" data-name="Group 387"><g id="Group_386" data-name="Group 386"><g id="Path_478" data-name="Path 478"><path class="cls-1" d="M35.29883,42h-7.7627a2,2,0,0,1,0-4h7.7627a2.79823,2.79823,0,0,0,2.79492-2.79492v-7.252a2,2,0,0,1,4,0v7.252A6.80218,6.80218,0,0,1,35.29883,42Z"/></g><g id="Path_479" data-name="Path 479"><path class="cls-1" d="M14.97754,42H7.21387A6.80364,6.80364,0,0,1,.419,35.207V27.95312a2,2,0,0,1,4,0v7.25293A2.79864,2.79864,0,0,0,7.21387,38h7.76367a2,2,0,1,1,0,4Z"/></g><g id="Path_481" data-name="Path 481"><path class="cls-1" d="M2.419,16.04688a2.0001,2.0001,0,0,1-2-2V6.794A6.802,6.802,0,0,1,7.21387,0h7.76269a2,2,0,0,1,0,4H7.21387A2.79739,2.79739,0,0,0,4.419,6.794v7.25293A2.0001,2.0001,0,0,1,2.419,16.04688Z"/></g><g id="Path_480" data-name="Path 480"><path class="cls-1" d="M40.09277,16.04688a2.0001,2.0001,0,0,1-2-2V6.793A2.79781,2.79781,0,0,0,35.29785,4H27.53418a2,2,0,0,1,0-4h7.76367a6.80281,6.80281,0,0,1,6.79492,6.792v7.25489A2.0001,2.0001,0,0,1,40.09277,16.04688Z"/></g></g><g id="Line_3" data-name="Line 3"><path class="cls-1" d="M40.51172,23.16406H2a2,2,0,0,1,0-4H40.51172a2,2,0,0,1,0,4Z"/></g></g></g></g></svg>