<?xml version="1.0" encoding="utf-8"?>
<!-- Generator: Adobe Illustrator 26.1.0, SVG Export Plug-In . SVG Version: 6.00 Build 0)  -->
<svg version="1.1" id="Layer_1" xmlns="http://www.w3.org/2000/svg" xmlns:xlink="http://www.w3.org/1999/xlink" x="0px" y="0px"
	 viewBox="0 0 46.3 44" style="enable-background:new 0 0 46.3 44;" xml:space="preserve">
<style type="text/css">
	.st0{fill:#7F7F7F;}
</style>
<g id="Group_363_1_" transform="translate(-928.966 -614.5)">
	<g id="Path_426_1_">
		<path class="st0" d="M931,651c-0.5,0-1-0.2-1.4-0.5c-0.8-0.8-0.8-2-0.1-2.8c0-0.1,1.6-1.8,3.8-4.4c-2.1-2.2-3.7-5.6-3.7-10.5
			c0-13.9,9.6-18.3,12.3-18.3c5.1,0,6.2,3.6,6.2,6.6c0,7.1-4.9,15.4-9.2,21.4c0.8,0.4,1.4,0.5,1.4,0.5c2,0,4.3-1.2,6.4-3
			c-0.7-1.2-1.1-2.7-1.1-4.7c0-9.8,7.1-11.9,8.5-11.9c1.8,0,3.7,1.4,3.7,4.6c0,3.2-1.7,7.1-4.3,10.6c1.6-1.2,3.5-3.6,4.5-4.8
			c1.6-2.1,2.4-3,3.7-3c0.8,0,1.5,0.3,2,0.9c0.9,1,1,2.4,0.9,4.1c1.6-2,4.1-4.9,8.7-4.9c1.1,0,2,0.9,2,2s-0.9,2-2,2
			c-2.7,0-4.1,1.7-5.6,3.5c-1.2,1.5-2.6,3.2-4.9,3.2c-0.6,0-1.2-0.3-1.7-0.7c-0.8-0.9-0.8-2-0.7-3.6c-2.3,2.8-5.3,6.2-8.5,6.2
			c-0.6,0-1.4-0.2-2.3-0.6c-2.9,2.5-6.2,4.2-9.3,4.2c-0.9,0-2.3-0.4-3.8-1.2c-2.1,2.7-3.8,4.5-4,4.7C932,650.8,931.5,651,931,651z
			 M941.8,618.5c-1,0.1-8.3,3.2-8.3,14.3c0,3.4,1,5.7,2.1,7.2c3.9-5.5,8.3-12.9,8.3-18.9C944,618.5,943.2,618.5,941.8,618.5z
			 M953.7,627.5c-1.2,0.5-4.1,2.1-4.1,7.7c0,0.6,0.1,1.2,0.2,1.6c2.3-2.8,4-6.2,4-8.9C953.7,627.8,953.7,627.6,953.7,627.5z"/>
	</g>
	<g id="Line_1_1_">
		<path class="st0" d="M973.2,658.5H931c-1.1,0-2-0.9-2-2s0.9-2,2-2h42.3c1.1,0,2,0.9,2,2S974.3,658.5,973.2,658.5z"/>
	</g>
</g>
</svg>
