<?xml version="1.0" encoding="UTF-8"?><svg xmlns="http://www.w3.org/2000/svg" viewBox="0 0 39.96949 40"><defs><style>.d{fill:gray;}</style></defs><g id="a"/><g id="b"><g id="c"><path class="d" d="M2.87197,19.76965l5.36934,2.2475c-.45785,1.24861-.87408,2.49722-1.16544,3.78745-.08325,.37458,0,.79079,.29136,1.08213l5.74395,5.74361c.29136,.29134,.70759,.37458,1.08219,.29134,1.29031-.29134,2.53899-.70754,3.78768-1.16537l2.24763,5.36902c.16649,.45782,.70759,.66592,1.12382,.45782,.12487-.04162,.20811-.12486,.29136-.2081l2.99684-2.99666c1.16544-1.12375,1.78978-2.70532,1.70654-4.37013l-.12487-2.83018c6.2018-4.74472,11.98737-12.77744,13.73553-26.05432,.08324-.54106-.29136-1.04051-.83246-1.12375h-.29136C25.59803,1.74805,17.56483,7.53328,12.81983,13.77633l-2.83035-.12486c-1.66491-.08324-3.24658,.54106-4.41202,1.70643l-2.99684,2.99666c-.33298,.33296-.33298,.87403,0,1.24861,.08325,.04162,.16649,.12486,.29136,.16648ZM24.97369,9.90564c1.41518-1.41509,3.70443-1.41509,5.11961,0,1.41518,1.41509,1.41518,3.70421,0,5.1193-1.41518,1.41509-3.66281,1.41509-5.07798,0-1.4568-1.41509-1.4568-3.70421-.04162-5.1193h0ZM0,38.95662c.29136-5.66036,3.08009-8.78189,4.62013-10.11374,.20811-.16648,.49947-.12486,.66597,.08324,.08325,.08324,.12487,.24972,.08325,.37458-.16649,.83241-.16649,1.70643-.08325,2.58046,.16649,1.45671,1.33193,2.58046,2.78873,2.78856,.87408,.12486,1.74816,.08324,2.62224-.04162,.24974-.04162,.49947,.12486,.5411,.37458,.04162,.12486,0,.29134-.12487,.4162-1.29031,1.49833-4.41202,4.24527-10.07272,4.57824-.5411,.04162-.99895-.37458-1.04057-.91565v-.12486Z"/></g></g></svg>