<?xml version="1.0" encoding="UTF-8"?><svg xmlns="http://www.w3.org/2000/svg" viewBox="0 0 74.58983 44.73004"><defs><style>.d{stroke-miterlimit:10;stroke-width:3px;}.d,.e{fill:none;stroke:gray;}.f{fill:gray;}.e{stroke-linecap:round;stroke-linejoin:round;stroke-width:4px;}</style></defs><g id="a"/><g id="b"><g id="c"><g><circle class="d" cx="27.77722" cy="34.23004" r="4.5"/><circle class="d" cx="58.87816" cy="34.23004" r="4.5"/><polygon class="e" points="70.58098 18.91356 59.16821 6.92894 52.80206 6.92894 52.80206 18.91356 70.58098 18.91356"/><path class="f" d="M12.74194,22.91382v8.45654c0,2.20947,1.79102,4,4,4h2.62061c-.05029-.37402-.08545-.75244-.08545-1.14014,0-4.69482,3.80566-8.5,8.5-8.5,4.69458,0,8.5,3.80518,8.5,8.5,0,.3877-.03491,.76611-.08521,1.14014h14.27173c-.05029-.37402-.08545-.75244-.08545-1.14014,0-4.69482,3.80566-8.5,8.5-8.5s8.5,3.80518,8.5,8.5c0,.3877-.03516,.76611-.08545,1.14014h1.29712c2.20923,0,4-1.79053,4-4v-8.62793l-59.8479,.17139Z"/><path class="f" d="M14.87053,0H50.80206c1.10457,0,2,.89543,2,2V18.91356h19.78777v2.00935H12.87053v-4.52011L0,15.09613l23.27722-2.61334L0,9.86946l23.27722-2.61334L0,4.64278l12.87053-1.30667v-1.33611c0-1.10457,.89543-2,2-2Z"/></g></g></g></svg>