<?xml version="1.0" encoding="UTF-8"?><svg xmlns="http://www.w3.org/2000/svg" viewBox="0 0 41.00246 41"><defs><style>.d{fill:gray;fill-rule:evenodd;}</style></defs><g id="a"/><g id="b"><g id="c"><path class="d" d="M17.57248,0h5.85749c.65083,0,1.30167,.4881,1.46437,1.13889l.32542,3.25397c1.13896,.3254,2.27791,.81349,3.41687,1.46429l2.44062-2.11508c.65083-.3254,1.46437-.3254,1.9525,.1627l4.0677,4.23016c.48812,.4881,.48812,1.30159,.16271,1.78968l-1.9525,2.60317c.48812,.97619,.97625,2.11508,1.30167,3.25397l3.25416,.4881c.65083,0,1.13896,.65079,1.13896,1.30159v5.85714c0,.65079-.48812,1.30159-1.13896,1.46429l-3.25416,.3254c-.32542,1.13889-.81354,2.27778-1.30167,3.41667l1.9525,2.44048c.32542,.65079,.32542,1.46429-.16271,1.95238l-4.0677,4.06746c-.48812,.4881-1.30167,.4881-1.9525,.1627l-2.44062-1.95238c-1.13896,.4881-2.27791,.97619-3.41687,1.30159l-.32542,3.25397c-.16271,.65079-.81354,1.13889-1.46437,1.13889h-5.85749c-.65083,0-1.30167-.4881-1.30167-1.13889l-.48812-3.25397c-1.13896-.3254-2.27791-.81349-3.25416-1.30159l-2.60333,1.95238c-.48812,.3254-1.30167,.3254-1.78979-.1627l-4.23041-4.06746c-.48812-.4881-.48812-1.30159-.16271-1.95238l2.11521-2.44048c-.65083-1.13889-1.13896-2.27778-1.46437-3.41667l-3.25416-.3254c-.65083-.1627-1.13896-.81349-1.13896-1.46429v-5.85714c0-.65079,.48812-1.30159,1.13896-1.30159l3.25416-.4881c.32542-1.13889,.81354-2.27778,1.46437-3.25397l-2.11521-2.60317c-.32542-.4881-.32542-1.30159,.16271-1.78968L8.13541,3.90476c.48812-.4881,1.30167-.4881,1.78979-.1627l2.60333,2.11508c.97625-.65079,2.11521-1.13889,3.25416-1.46429l.48812-3.25397c0-.65079,.65083-1.13889,1.30167-1.13889Zm2.92875,13.5c3.87692,0,7,3.12308,7,7s-3.12308,7-7,7-7-3.12308-7-7,3.12308-7,7-7Z"/></g></g></svg>