<?xml version="1.0" encoding="UTF-8"?><svg xmlns="http://www.w3.org/2000/svg" viewBox="0 0 69.15462 44.80142"><defs><style>.d{fill-rule:evenodd;}.d,.e,.f{fill:none;stroke:gray;}.d,.f{stroke-linecap:round;stroke-linejoin:round;stroke-width:4px;}.e{stroke-miterlimit:10;stroke-width:3px;}.g{fill:gray;}</style></defs><g id="a"/><g id="b"><g id="c"><g><polyline class="d" points="40.4958 2 51.08616 33.34173 63.99008 28.86224"/><rect class="g" x="52.05211" y="9.15613" width="15.09091" height="15.09019" transform="translate(-2.21489 19.86681) rotate(-18.58636)"/><circle class="e" cx="13.03494" cy="34.30142" r="4.5"/><circle class="e" cx="33.13518" cy="34.30142" r="4.5"/><path class="f" d="M33.35002,22.81408c0-3.60575-5.05275-20.81408-8.41258-20.81408H10.05801V22.98519l23.29201-.17111Z"/><path class="g" d="M4.53503,34.3016c0-4.69482,3.80542-8.5,8.5-8.5,4.69434,0,8.5,3.80518,8.5,8.5,0,.3877-.03516,.76611-.08545,1.14014h3.271c-.05029-.37402-.08545-.75244-.08545-1.14014,0-4.69482,3.80566-8.5,8.5-8.5s8.5,3.80518,8.5,8.5c0,.3877-.03491,.76611-.08521,1.14014h4.29688l-4.21167-12.62793-18.68604,.08154-2.7168-7.61377-10.17432,.03564v7.64307l-8.05811,.0249v12.45654h2.62036c-.05029-.37402-.08521-.75244-.08521-1.14014Z"/></g></g></g></svg>