<?xml version="1.0" encoding="UTF-8"?><svg xmlns="http://www.w3.org/2000/svg" viewBox="0 0 42.85023 41"><defs><style>.d{fill:gray;}</style></defs><g id="a"/><g id="b"><g id="c"><g><path class="d" d="M37.19928,28.35793c-.69084,1.1924-1.9761,1.93311-3.35422,1.93311-1.37819,0-2.66348-.74079-3.35559-1.93555l-3.49044-6.03599v14.49096l-13.30698-3.5654V4.18887l8.18801,2.1939c.17208-1.28456,.82847-2.81538,1.45582-3.7976L13.69206,.00127v-.00127l-.00236,.00063-.00236-.00063V.00127l-2.05627,.55095h-.00004L7.09203,1.76838,1.35281,3.30611l-.00014,.00004-.13915,.0373c-.7158,.19177-1.21352,.84041-1.21352,1.5814V38.86637c0,1.07649,1.02117,1.86004,2.06106,1.5814l10.41748-2.79118,.00025-.00007,1.21091-.32446,13.68494,3.66666v.00127l.0024-.00063,.00236,.00063v-.00127l12.33453-3.30484c.79794-.2138,1.35277-.93686,1.35277-1.76288v-14.24885l-3.86741,6.67577Z"/><path class="d" d="M42.85023,9.26912c0-4.9626-4.03987-9.00216-9.00277-9.00216-4.96773,0-9.00753,4.03956-9.00753,9.00216,0,1.66499,.46193,3.22034,1.25244,4.55967l7.39726,12.79199c.15822,.27317,.55264,.27317,.7109,0l7.41069-12.79199h-.01326c.79036-1.33933,1.25226-2.89468,1.25226-4.55967Zm-9.00429-3.23166c1.78248,0,3.23344,1.45083,3.23344,3.23321,0,1.78414-1.45095,3.23497-3.23344,3.23497-1.78421,0-3.23516-1.45083-3.23516-3.23497,0-1.78238,1.45095-3.23321,3.23516-3.23321Z"/></g></g></g></svg>