<?xml version="1.0" encoding="UTF-8"?><svg xmlns="http://www.w3.org/2000/svg" viewBox="0 0 42.51172 42"><defs><style>.k{fill:gray;}</style></defs><g id="a"/><g id="b"><g id="c"><g id="d" transform="translate(1 -2.608)"><g id="e" transform="translate(2.001 5.5)"><g id="f"><path class="k" d="M35.29883,42h-7.7627c-1.10449,0-2-.89551-2-2s.89551-2,2-2h7.7627c1.54102,0,2.79492-1.25391,2.79492-2.79492v-7.25195c0-1.10449,.89551-2,2-2s2,.89551,2,2v7.25195c0,3.74707-3.04785,6.79492-6.79492,6.79492Z"/></g><g id="g"><path class="k" d="M14.97754,42H7.21387c-3.74512,0-6.79395-3.04785-6.79492-6.79297v-7.25391c0-1.10449,.89551-2,2-2s2,.89551,2,2v7.25293c.00098,1.54004,1.25391,2.79395,2.79492,2.79395h7.76367c1.10449,0,2,.89551,2,2s-.89551,2-2,2Z"/></g><g id="h"><path class="k" d="M2.41895,16.04688c-1.10449,0-2-.89551-2-2V6.79395C.41895,3.04785,3.4668,0,7.21387,0h7.7627c1.10449,0,2,.89551,2,2s-.89551,2-2,2H7.21387c-1.54102,0-2.79492,1.25293-2.79492,2.79395v7.25293c0,1.10449-.89551,2-2,2Z"/></g><g id="i"><path class="k" d="M40.09277,16.04688c-1.10449,0-2-.89551-2-2V6.79297c-.00098-1.54004-1.25391-2.79297-2.79492-2.79297h-7.76367c-1.10449,0-2-.89551-2-2s.89551-2,2-2h7.76367c3.74512,0,6.79395,3.04688,6.79492,6.79199v7.25488c0,1.10449-.89551,2-2,2Z"/></g></g><g id="j"><path class="k" d="M40.51172,23.16406H2c-1.10449,0-2-.89551-2-2s.89551-2,2-2H40.51172c1.10449,0,2,.89551,2,2s-.89551,2-2,2Z"/></g></g></g></g></svg>