<?xml version="1.0" encoding="utf-8"?>
<!-- Generator: Adobe Illustrator 25.2.3, SVG Export Plug-In . SVG Version: 6.00 Build 0)  -->
<svg version="1.1" id="Layer_1" xmlns="http://www.w3.org/2000/svg" xmlns:xlink="http://www.w3.org/1999/xlink" x="0px" y="0px"
	 viewBox="0 0 144.8 38.6" style="enable-background:new 0 0 144.8 38.6;" xml:space="preserve">
<style type="text/css">
	.st0{fill:#410099;stroke:#410099;stroke-width:1.5;stroke-miterlimit:10;}
	.st1{fill:none;stroke:#FFFFFF;stroke-width:0.5737;stroke-miterlimit:10;}
	.st2{fill:#FFFFFF;stroke:#575756;stroke-width:1.5;stroke-miterlimit:10;}
	.st3{fill:#410099;stroke:#FFFFFF;stroke-width:1.1474;stroke-miterlimit:10;}
	.st4{fill:#FFFFFF;stroke:#575756;stroke-width:1.1474;stroke-miterlimit:10;}
	.st5{fill:none;stroke:#575756;stroke-width:0.5737;stroke-miterlimit:10;}
</style>
<g id="Layer_2_1_">
	<g id="Layer_1-2">
		<ellipse class="st0" cx="19" cy="19.3" rx="18.3" ry="18.3"/>
		<polygon class="st1" points="19.1,8.3 9.6,24.7 28.6,24.7 		"/>
		<ellipse class="st2" cx="72.4" cy="19.3" rx="18.3" ry="18.3"/>
		<ellipse class="st2" cx="125.7" cy="19.3" rx="18.3" ry="18.3"/>
		<rect x="8.6" y="23.7" class="st3" width="2" height="2"/>
		<rect x="18" y="7.3" class="st3" width="2" height="2"/>
		<rect x="27.6" y="23.7" class="st3" width="2" height="2"/>
		<rect x="62.8" y="20.9" class="st4" width="6.4" height="4"/>
		<rect x="69.2" y="8.3" class="st4" width="6.4" height="4"/>
		<rect x="75.5" y="20.9" class="st4" width="6.4" height="4"/>
		<polyline class="st5" points="78.7,21 78.7,16.6 66,16.6 66,20.8 		"/>
		<line class="st5" x1="72.3" y1="16.6" x2="72.3" y2="12.2"/>
		<line class="st5" x1="112.3" y1="31.7" x2="129.8" y2="1.5"/>
		<line class="st5" x1="108.3" y1="24.9" x2="143.2" y2="24.9"/>
		<line class="st5" x1="121.6" y1="1.4" x2="139.1" y2="31.6"/>
		<circle class="st4" cx="125.7" cy="8.4" r="1.4"/>
		<circle class="st4" cx="116.2" cy="24.9" r="1.4"/>
		<circle class="st4" cx="135.2" cy="24.9" r="1.4"/>
	</g>
</g>
</svg>
