<?xml version="1.0" encoding="utf-8"?>
<!-- Generator: Adobe Illustrator 26.4.1, SVG Export Plug-In . SVG Version: 6.00 Build 0)  -->
<svg version="1.1" id="Layer_1" xmlns="http://www.w3.org/2000/svg" xmlns:xlink="http://www.w3.org/1999/xlink" x="0px" y="0px"
	 viewBox="0 0 327.4 116.4" style="enable-background:new 0 0 327.4 116.4;" xml:space="preserve">
<style type="text/css">
	.st0{enable-background:new    ;}
</style>
<g id="a">
</g>
<g id="b">
	<g id="c">
		<g>
			<g class="st0">
				<path d="M6.3,4.9H9l6.2,18.4h-2.5l-1.7-5.6H4.2l-1.8,5.6H0.1L6.3,4.9z M4.8,15.8h5.5L9.5,13c-0.7-2-1.3-4.1-1.8-6.2H7.5
					C6.9,8.9,6.4,10.9,5.7,13L4.8,15.8z"/>
			</g>
			<g class="st0">
				<path d="M16.1,19.7c0-3,2.5-4.5,8.3-5.1c0-1.7-0.6-3.4-2.8-3.4c-1.6,0-3,0.7-4.1,1.4l-0.9-1.6c1.3-0.8,3.2-1.8,5.3-1.8
					c3.3,0,4.7,2.2,4.7,5.6v8.4h-1.9l-0.2-1.6h-0.1c-1.3,1.1-2.8,2-4.5,2C17.8,23.6,16.1,22.2,16.1,19.7z M24.4,19.9v-3.7
					c-4.6,0.5-6.1,1.6-6.1,3.3c0,1.5,1,2.1,2.4,2.1C22,21.7,23.1,21.1,24.4,19.9z"/>
			</g>
			<g class="st0">
				<path d="M30.3,4.9h5.5c3.7,0,6.3,1.3,6.3,4.5c0,1.8-1,3.4-2.7,4v0.1c2.2,0.4,3.7,1.9,3.7,4.4c0,3.6-2.9,5.4-6.9,5.4h-5.9V4.9z
					 M35.3,12.7c3.1,0,4.4-1.1,4.4-3c0-2.1-1.5-2.9-4.3-2.9h-2.8v5.9H35.3z M35.8,21.4c3.1,0,5-1.1,5-3.6c0-2.3-1.8-3.3-5-3.3h-3.2
					v6.9H35.8z"/>
			</g>
			<g class="st0">
				<path d="M47.8,21.8L47.8,21.8l-0.3,1.4h-1.8V3.3H48v5.4l-0.1,2.4c1.3-1.1,2.8-1.9,4.3-1.9c3.5,0,5.4,2.7,5.4,6.9
					c0,4.6-2.8,7.4-5.9,7.4C50.4,23.6,49,22.9,47.8,21.8z M55.2,16.2c0-3-1-5-3.6-5c-1.1,0-2.3,0.6-3.6,1.8v7.1
					c1.2,1,2.4,1.4,3.3,1.4C53.6,21.6,55.2,19.6,55.2,16.2z"/>
			</g>
			<g class="st0">
				<path d="M59.6,14.1c0-5.9,3.5-9.5,8.1-9.5c2.2,0,4,1.1,5.1,2.3l-1.3,1.5c-1-1-2.2-1.7-3.8-1.7c-3.4,0-5.7,2.8-5.7,7.4
					c0,4.6,2.2,7.5,5.7,7.5c1.8,0,3.1-0.7,4.3-2l1.3,1.4c-1.5,1.7-3.3,2.7-5.6,2.7C63.1,23.6,59.6,20,59.6,14.1z"/>
			</g>
			<g class="st0">
				<path d="M74.4,16.5c0-4.6,3.1-7.2,6.6-7.2c1.8,0,3,0.7,4,1.6l-1.1,1.5c-0.8-0.7-1.6-1.1-2.7-1.1c-2.5,0-4.3,2.1-4.3,5.2
					c0,3.1,1.7,5.2,4.2,5.2c1.3,0,2.4-0.6,3.2-1.3l1,1.5c-1.2,1.1-2.8,1.7-4.4,1.7C77.2,23.6,74.4,21,74.4,16.5z"/>
			</g>
			<g class="st0">
				<path d="M87.3,4.9h4.6c5.7,0,8.7,3.3,8.7,9.1c0,5.9-3,9.3-8.6,9.3h-4.7V4.9z M91.8,21.3c4.3,0,6.4-2.7,6.4-7.3
					c0-4.6-2.1-7.2-6.4-7.2h-2.1v14.5H91.8z"/>
			</g>
			<g class="st0">
				<path d="M102.6,16.5c0-4.4,2.8-7.2,5.9-7.2c1.6,0,2.6,0.6,3.8,1.6l-0.1-2.3V3.3h2.3v19.9h-1.9l-0.2-1.6h-0.1
					c-1.1,1-2.5,1.9-4.1,1.9C104.8,23.6,102.6,21,102.6,16.5z M112.2,19.8v-7.1c-1.1-1-2.2-1.4-3.3-1.4c-2.2,0-3.9,2.1-3.9,5.2
					c0,3.2,1.3,5.2,3.7,5.2C110,21.6,111.1,21,112.2,19.8z"/>
			</g>
			<g class="st0">
				<path d="M141.9,5.2h1.5l3.5,10.5h-1.4l-1-3.2h-3.8l-1,3.2h-1.4L141.9,5.2z M141.1,11.4h3.1l-0.5-1.6c-0.4-1.2-0.7-2.3-1.1-3.5
					h-0.1c-0.3,1.2-0.7,2.4-1,3.5L141.1,11.4z"/>
			</g>
			<g class="st0">
				<path d="M155.7,5.2h3.1c2.1,0,3.6,0.7,3.6,2.6c0,1-0.6,2-1.5,2.3v0.1c1.2,0.2,2.1,1.1,2.1,2.5c0,2.1-1.6,3.1-4,3.1h-3.4V5.2z
					 M158.6,9.7c1.8,0,2.5-0.7,2.5-1.7c0-1.2-0.8-1.7-2.5-1.7H157v3.4H158.6z M158.9,14.6c1.8,0,2.8-0.6,2.8-2c0-1.3-1-1.9-2.8-1.9
					H157v3.9H158.9z"/>
			</g>
			<g class="st0">
				<path d="M171.7,10.4c0-3.4,2-5.4,4.7-5.4c1.3,0,2.3,0.6,2.9,1.3l-0.7,0.8c-0.6-0.6-1.2-0.9-2.1-0.9c-2,0-3.3,1.6-3.3,4.2
					c0,2.6,1.2,4.3,3.2,4.3c1,0,1.8-0.4,2.4-1.1l0.7,0.8c-0.8,1-1.9,1.5-3.2,1.5C173.6,15.9,171.7,13.9,171.7,10.4z"/>
			</g>
			<g class="st0">
				<path d="M188.7,5.2h2.6c3.2,0,5,1.9,5,5.2c0,3.3-1.7,5.3-4.9,5.3h-2.7V5.2z M191.2,14.6c2.4,0,3.7-1.5,3.7-4.2
					c0-2.6-1.2-4.1-3.7-4.1H190v8.3H191.2z"/>
			</g>
			<g class="st0">
				<path d="M205.7,5.2h6.1v1.1H207v3.3h4v1.1h-4v3.8h4.9v1.1h-6.2V5.2z"/>
			</g>
			<g class="st0">
				<path d="M221.3,5.2h6.1v1.1h-4.7v3.5h4V11h-4v4.7h-1.3V5.2z"/>
			</g>
			<g class="st0">
				<path d="M235.9,10.4c0-3.4,2-5.4,4.8-5.4c1.5,0,2.4,0.6,3,1.3L243,7.1c-0.5-0.5-1.2-0.9-2.3-0.9c-2.1,0-3.5,1.6-3.5,4.2
					c0,2.6,1.2,4.3,3.5,4.3c0.8,0,1.5-0.2,1.9-0.6v-2.7h-2.2v-1.1h3.5v4.4c-0.7,0.7-1.8,1.2-3.2,1.2
					C237.8,15.9,235.9,13.9,235.9,10.4z"/>
			</g>
			<g class="st0">
				<path d="M253.6,5.2h1.3v4.4h4.9V5.2h1.3v10.5h-1.3v-4.9h-4.9v4.9h-1.3V5.2z"/>
			</g>
			<g class="st0">
				<path d="M271.2,5.2h1.3v10.5h-1.3V5.2z"/>
			</g>
			<g class="st0">
				<path d="M281.7,14.2l0.9-0.6c0.4,0.8,1,1.1,1.8,1.1c1.2,0,1.7-0.6,1.7-2.3V5.2h1.3v7.4c0,1.9-0.9,3.3-3,3.3
					C283.2,15.9,282.3,15.3,281.7,14.2z"/>
			</g>
			<g class="st0">
				<path d="M297.5,5.2h1.3v5.3h0l4.3-5.3h1.5l-3.3,4l3.8,6.5h-1.5l-3.1-5.4l-1.8,2.1v3.3h-1.3V5.2z"/>
			</g>
			<g class="st0">
				<path d="M314,5.2h1.3v9.4h4.6v1.1H314V5.2z"/>
			</g>
			<g class="st0">
				<path d="M139.7,24.4h1.7l2,5.6c0.3,0.7,0.5,1.4,0.7,2.2h0.1c0.2-0.8,0.4-1.5,0.7-2.2l2-5.6h1.7v10.5h-1.3v-5.8
					c0-0.9,0.1-2.2,0.2-3.1h-0.1l-0.8,2.4l-2,5.4h-1l-2-5.4l-0.8-2.4h-0.1c0.1,0.9,0.2,2.2,0.2,3.1v5.8h-1.2V24.4z"/>
			</g>
			<g class="st0">
				<path d="M158.6,24.4h1.4l3.7,6.5c0.4,0.7,0.8,1.5,1.1,2.3h0.1c-0.1-1.1-0.2-2.2-0.2-3.3v-5.5h1.3v10.5h-1.4l-3.7-6.5
					c-0.4-0.7-0.8-1.5-1.1-2.3h-0.1c0.1,1.1,0.2,2.2,0.2,3.3v5.5h-1.3V24.4z"/>
			</g>
			<g class="st0">
				<path d="M175.6,29.6c0-3.4,1.8-5.4,4.5-5.4c2.6,0,4.5,2,4.5,5.4c0,3.4-1.9,5.5-4.5,5.5C177.5,35.1,175.6,33,175.6,29.6z
					 M183.2,29.6c0-2.6-1.2-4.2-3.1-4.2S177,27,177,29.6c0,2.6,1.2,4.3,3.1,4.3S183.2,32.2,183.2,29.6z"/>
			</g>
			<g class="st0">
				<path d="M194.1,24.4h3c2.4,0,4,0.8,4,3.1c0,2.2-1.6,3.2-3.9,3.2h-1.7v4.2h-1.3V24.4z M197,29.6c1.8,0,2.7-0.7,2.7-2.2
					c0-1.5-0.9-2-2.8-2h-1.5v4.2H197z"/>
			</g>
			<g class="st0">
				<path d="M213.6,35c-2.3-0.3-3.8-2.4-3.8-5.4c0-3.4,1.8-5.4,4.5-5.4s4.5,2,4.5,5.4c0,3-1.5,5-3.7,5.4c0.5,0.9,1.4,1.4,2.6,1.4
					c0.5,0,0.8-0.1,1.1-0.1l0.3,1c-0.3,0.1-0.9,0.3-1.5,0.3C215.5,37.5,214.2,36.5,213.6,35z M217.3,29.6c0-2.6-1.2-4.2-3.1-4.2
					s-3.1,1.6-3.1,4.2c0,2.7,1.2,4.4,3.1,4.4S217.3,32.3,217.3,29.6z"/>
			</g>
			<g class="st0">
				<path d="M228.2,24.4h3.3c2.1,0,3.7,0.8,3.7,3c0,1.6-0.9,2.6-2.4,3l2.7,4.6H234l-2.5-4.4h-1.9v4.4h-1.3V24.4z M231.3,29.4
					c1.6,0,2.5-0.7,2.5-2c0-1.4-0.9-1.9-2.5-1.9h-1.7v3.9H231.3z"/>
			</g>
			<g class="st0">
				<path d="M243.8,33.5l0.8-0.9c0.8,0.8,1.8,1.3,2.9,1.3c1.4,0,2.2-0.7,2.2-1.7c0-1.1-0.8-1.4-1.7-1.8l-1.5-0.7
					c-1-0.4-2.1-1.2-2.1-2.7c0-1.6,1.4-2.8,3.3-2.8c1.3,0,2.4,0.5,3.1,1.3l-0.7,0.9c-0.6-0.6-1.5-1-2.4-1c-1.2,0-1.9,0.6-1.9,1.5
					c0,1,0.9,1.4,1.7,1.7l1.5,0.7c1.2,0.5,2.2,1.2,2.2,2.8c0,1.7-1.4,3-3.6,3C246,35.1,244.7,34.5,243.8,33.5z"/>
			</g>
			<g class="st0">
				<path d="M262.5,25.5h-3.2v-1.1h7.7v1.1h-3.2v9.4h-1.3V25.5z"/>
			</g>
			<g class="st0">
				<path d="M276.1,30.6v-6.2h1.3v6.2c0,2.5,1.1,3.3,2.4,3.3c1.4,0,2.5-0.8,2.5-3.3v-6.2h1.3v6.2c0,3.4-1.6,4.5-3.8,4.5
					S276.1,33.9,276.1,30.6z"/>
			</g>
			<g class="st0">
				<path d="M292.3,24.4h1.4l1.6,5.7c0.4,1.2,0.6,2.2,1,3.5h0.1c0.4-1.2,0.6-2.2,1-3.5l1.7-5.7h1.4l-3.4,10.5h-1.6L292.3,24.4z"/>
			</g>
			<g class="st0">
				<path d="M308.1,24.4h1.4l1.1,5.7c0.2,1.1,0.4,2.3,0.6,3.4h0.1c0.2-1.2,0.4-2.3,0.7-3.4l1.5-5.7h1.3l1.4,5.7
					c0.3,1.1,0.5,2.3,0.8,3.4h0.1c0.2-1.2,0.4-2.3,0.6-3.4l1.1-5.7h1.3l-2.2,10.5h-1.7l-1.6-6.3c-0.2-0.8-0.3-1.6-0.5-2.5H314
					c-0.2,0.9-0.3,1.6-0.5,2.5l-1.5,6.3h-1.6L308.1,24.4z"/>
			</g>
			<g class="st0">
				<path d="M141.6,48.7l-2.8-5.1h1.5l1.4,2.7c0.3,0.5,0.5,0.9,0.8,1.5h0.1c0.3-0.6,0.5-1.1,0.7-1.5l1.4-2.7h1.4l-2.9,5.1l3.1,5.4
					h-1.5l-1.5-2.8c-0.3-0.5-0.6-1.1-0.9-1.7h-0.1c-0.3,0.6-0.6,1.2-0.8,1.7l-1.5,2.8h-1.4L141.6,48.7z"/>
			</g>
			<g class="st0">
				<path d="M156.9,50l-3.2-6.4h1.4l1.3,3c0.3,0.8,0.7,1.5,1,2.3h0.1c0.4-0.8,0.7-1.5,1-2.3l1.3-3h1.4l-3.2,6.4v4.1h-1.3V50z"/>
			</g>
			<g class="st0">
				<path d="M169.4,53.3l5.5-8.6h-5v-1.1h6.7v0.8l-5.5,8.6h5.6v1.1h-7.2V53.3z"/>
			</g>
			<g class="st0">
				<path d="M185.4,52.1c0-1.7,1.4-2.6,4.8-2.9c0-1-0.3-1.9-1.6-1.9c-0.9,0-1.7,0.4-2.3,0.8l-0.5-0.9c0.7-0.5,1.8-1,3.1-1
					c1.9,0,2.7,1.3,2.7,3.2v4.8h-1.1l-0.1-0.9h0c-0.7,0.6-1.6,1.1-2.6,1.1C186.4,54.3,185.4,53.5,185.4,52.1z M190.2,52.2v-2.1
					c-2.6,0.3-3.5,0.9-3.5,1.9c0,0.9,0.6,1.2,1.3,1.2C188.8,53.2,189.4,52.9,190.2,52.2z"/>
			</g>
			<g class="st0">
				<path d="M202.4,53.3L202.4,53.3l-0.2,0.8h-1.1V42.7h1.3v3.1l0,1.4c0.7-0.6,1.6-1.1,2.4-1.1c2,0,3.1,1.6,3.1,4
					c0,2.7-1.6,4.2-3.4,4.2C203.9,54.3,203.1,53.9,202.4,53.3z M206.7,50.1c0-1.7-0.6-2.8-2-2.8c-0.7,0-1.3,0.4-2.1,1.1v4.1
					c0.7,0.6,1.4,0.8,1.9,0.8C205.7,53.2,206.7,52,206.7,50.1z"/>
			</g>
			<g class="st0">
				<path d="M216.8,50.2c0-2.6,1.7-4.1,3.7-4.1c1,0,1.7,0.4,2.3,0.9l-0.7,0.8c-0.4-0.4-0.9-0.6-1.6-0.6c-1.4,0-2.4,1.2-2.4,3
					c0,1.8,1,3,2.4,3c0.7,0,1.4-0.3,1.8-0.7l0.6,0.8c-0.7,0.6-1.6,1-2.5,1C218.3,54.3,216.8,52.8,216.8,50.2z"/>
			</g>
			<g class="st0">
				<path d="M231.3,50.2c0-2.5,1.6-4.1,3.4-4.1c0.9,0,1.5,0.3,2.2,0.9l-0.1-1.3v-3h1.3v11.4h-1.1l-0.1-0.9h0
					c-0.6,0.6-1.4,1.1-2.4,1.1C232.6,54.3,231.3,52.8,231.3,50.2z M236.8,52.1V48c-0.7-0.6-1.2-0.8-1.9-0.8c-1.2,0-2.2,1.2-2.2,3
					c0,1.9,0.8,3,2.1,3C235.6,53.2,236.2,52.8,236.8,52.1z"/>
			</g>
			<g class="st0">
				<path d="M247.5,50.2c0-2.5,1.7-4.1,3.5-4.1c2,0,3.1,1.4,3.1,3.7c0,0.3,0,0.5-0.1,0.8h-5.2c0.1,1.6,1.1,2.7,2.6,2.7
					c0.8,0,1.4-0.2,2-0.6l0.5,0.8c-0.7,0.5-1.5,0.8-2.6,0.8C249.1,54.3,247.5,52.8,247.5,50.2z M252.9,49.5c0-1.5-0.7-2.4-1.9-2.4
					c-1.1,0-2,0.9-2.2,2.4H252.9z"/>
			</g>
			<g class="st0">
				<path d="M263.5,47.4h-1.1v-1l1.1-0.1v-1.2c0-1.6,0.7-2.6,2.3-2.6c0.5,0,1,0.1,1.3,0.3l-0.3,1c-0.3-0.1-0.6-0.2-0.9-0.2
					c-0.7,0-1.1,0.5-1.1,1.5v1.2h1.6v1.1h-1.6v6.7h-1.3V47.4z"/>
			</g>
			<g class="st0">
				<path d="M274.6,55.6c0-0.7,0.4-1.3,1.1-1.8v-0.1c-0.4-0.2-0.7-0.7-0.7-1.3c0-0.7,0.4-1.2,0.8-1.4V51c-0.5-0.4-1-1.2-1-2.1
					c0-1.7,1.3-2.8,2.9-2.8c0.4,0,0.8,0.1,1.1,0.2h2.7v1H280c0.4,0.4,0.6,0.9,0.6,1.6c0,1.7-1.3,2.7-2.8,2.7c-0.4,0-0.8-0.1-1.2-0.3
					c-0.3,0.2-0.5,0.5-0.5,0.9c0,0.5,0.3,0.8,1.4,0.8h1.5c1.8,0,2.7,0.6,2.7,1.9c0,1.5-1.5,2.7-3.9,2.7
					C275.9,57.7,274.6,56.9,274.6,55.6z M280.4,55.2c0-0.7-0.5-1-1.6-1h-1.3c-0.3,0-0.7,0-1-0.1c-0.6,0.4-0.8,0.9-0.8,1.3
					c0,0.8,0.8,1.3,2.3,1.3C279.5,56.8,280.4,56,280.4,55.2z M279.5,48.9c0-1.1-0.7-1.8-1.6-1.8s-1.6,0.7-1.6,1.8s0.8,1.8,1.6,1.8
					S279.5,50,279.5,48.9z"/>
			</g>
			<g class="st0">
				<path d="M290.5,42.7h1.3v3.1l0,1.6c0.7-0.7,1.5-1.3,2.6-1.3c1.6,0,2.4,1.1,2.4,3v4.9h-1.3v-4.8c0-1.5-0.4-2.1-1.5-2.1
					c-0.8,0-1.3,0.4-2.1,1.2v5.6h-1.3V42.7z"/>
			</g>
			<g class="st0">
				<path d="M306.3,43.9c0-0.5,0.4-0.9,0.9-0.9c0.5,0,0.9,0.4,0.9,0.9c0,0.5-0.4,0.9-0.9,0.9C306.6,44.7,306.3,44.4,306.3,43.9z
					 M306.5,46.3h1.3v7.8h-1.3V46.3z"/>
			</g>
			<g class="st0">
				<path d="M315.7,57.3l0.3-1c0.2,0.1,0.5,0.1,0.7,0.1c0.8,0,1-0.6,1-1.5v-8.6h1.3V55c0,1.6-0.6,2.6-2.1,2.6
					C316.4,57.6,316,57.5,315.7,57.3z M317.5,43.9c0-0.5,0.4-0.9,0.9-0.9c0.5,0,0.9,0.4,0.9,0.9c0,0.5-0.4,0.9-0.9,0.9
					C317.8,44.7,317.5,44.4,317.5,43.9z"/>
			</g>
			<g class="st0">
				<path d="M139.6,61.9h1.3v7.7h0l3.3-4.1h1.5l-2.6,3.1l2.9,4.6h-1.4l-2.3-3.7l-1.4,1.7v2h-1.3V61.9z"/>
			</g>
			<g class="st0">
				<path d="M153.9,71.7v-9.8h1.3v9.9c0,0.4,0.2,0.6,0.4,0.6c0.1,0,0.1,0,0.3,0l0.2,1c-0.2,0.1-0.4,0.1-0.8,0.1
					C154.3,73.5,153.9,72.8,153.9,71.7z"/>
			</g>
			<g class="st0">
				<path d="M164.3,65.5h1.1l0.1,1.1h0c0.7-0.7,1.5-1.3,2.4-1.3c1.2,0,1.8,0.6,2.2,1.5c0.8-0.9,1.6-1.5,2.6-1.5c1.6,0,2.4,1.1,2.4,3
					v4.9h-1.3v-4.8c0-1.5-0.5-2.1-1.4-2.1c-0.6,0-1.2,0.4-2,1.2v5.6H169v-4.8c0-1.5-0.4-2.1-1.4-2.1c-0.6,0-1.2,0.4-1.9,1.2v5.6
					h-1.3V65.5z"/>
			</g>
			<g class="st0">
				<path d="M184,65.5h1.1l0.1,1.1h0c0.7-0.7,1.5-1.3,2.6-1.3c1.6,0,2.4,1.1,2.4,3v4.9h-1.3v-4.8c0-1.5-0.4-2.1-1.5-2.1
					c-0.8,0-1.3,0.4-2.1,1.2v5.6H184V65.5z"/>
			</g>
			<g class="st0">
				<path d="M198.5,69.4c0-2.6,1.7-4.1,3.6-4.1s3.6,1.5,3.6,4.1c0,2.6-1.7,4.1-3.6,4.1S198.5,72,198.5,69.4z M204.3,69.4
					c0-1.8-0.9-3-2.2-3c-1.3,0-2.2,1.2-2.2,3c0,1.8,0.9,3,2.2,3C203.4,72.4,204.3,71.2,204.3,69.4z"/>
			</g>
			<g class="st0">
				<path d="M214.1,65.5h1.1l0.1,0.9h0c0.7-0.6,1.6-1.1,2.5-1.1c2,0,3.1,1.6,3.1,4c0,2.6-1.6,4.2-3.4,4.2c-0.7,0-1.4-0.3-2.1-0.9
					l0,1.4v2.6h-1.3V65.5z M219.5,69.3c0-1.7-0.6-2.8-2-2.8c-0.7,0-1.3,0.4-2.1,1.1v4.1c0.7,0.6,1.4,0.8,1.9,0.8
					C218.6,72.4,219.5,71.2,219.5,69.3z"/>
			</g>
			<g class="st0">
				<path d="M234.2,73.8l0.1-1.4c-0.6,0.6-1.4,1.1-2.3,1.1c-2,0-3.2-1.5-3.2-4.1c0-2.5,1.6-4.1,3.4-4.1c0.9,0,1.5,0.3,2.2,0.9h0
					l0.1-0.7h1.1v11.1h-1.3V73.8z M234.2,71.3v-4.1c-0.7-0.6-1.2-0.8-1.9-0.8c-1.2,0-2.2,1.2-2.2,3c0,1.9,0.8,3,2.1,3
					C233,72.4,233.6,72,234.2,71.3z"/>
			</g>
			<g class="st0">
				<path d="M244.5,65.5h1.1l0.1,1.4h0c0.5-1,1.3-1.6,2.2-1.6c0.4,0,0.6,0,0.8,0.2l-0.3,1.1c-0.2-0.1-0.4-0.1-0.7-0.1
					c-0.7,0-1.4,0.5-2,1.8v5h-1.3V65.5z"/>
			</g>
			<g class="st0">
				<path d="M255.6,72.4l0.6-0.8c0.7,0.6,1.4,0.8,2.3,0.8c1,0,1.5-0.5,1.5-1.2c0-0.8-0.9-1.1-1.7-1.5c-1.2-0.4-2.3-1-2.3-2.3
					c0-1.2,1-2.2,2.7-2.2c1,0,1.8,0.4,2.4,0.9l-0.6,0.8c-0.5-0.4-1.1-0.6-1.8-0.6c-1,0-1.4,0.5-1.4,1.1c0,0.7,0.7,1,1.6,1.3
					c1.2,0.4,2.4,1,2.4,2.4c0,1.3-1,2.3-2.8,2.3C257.3,73.5,256.3,73.1,255.6,72.4z"/>
			</g>
			<g class="st0">
				<path d="M269.7,70.9v-4.3h-1.2v-1l1.2-0.1L270,63h1.1v2.5h2.1v1.1h-2.1v4.3c0,0.9,0.3,1.5,1.2,1.5c0.3,0,0.6,0,0.9-0.2l0.3,0.9
					c-0.4,0.2-0.9,0.3-1.5,0.3C270.3,73.5,269.7,72.4,269.7,70.9z"/>
			</g>
			<g class="st0">
				<path d="M281.2,70.4v-4.9h1.3v4.8c0,1.4,0.4,2.1,1.5,2.1c0.8,0,1.3-0.4,2.1-1.3v-5.5h1.3v7.8h-1.1l-0.1-1.2h0
					c-0.7,0.8-1.5,1.4-2.6,1.4C281.9,73.5,281.2,72.4,281.2,70.4z"/>
			</g>
			<g class="st0">
				<path d="M295.2,65.5h1.4l1.5,4.4c0.2,0.8,0.5,1.6,0.7,2.3h0.1c0.2-0.8,0.5-1.5,0.7-2.3l1.5-4.4h1.3l-2.8,7.8H298L295.2,65.5z"/>
			</g>
			<g class="st0">
				<path d="M309.2,65.5h1.4l1.1,4.5c0.2,0.7,0.3,1.4,0.5,2.2h0.1c0.2-0.8,0.3-1.5,0.5-2.2l1.2-4.5h1.4l1.2,4.5
					c0.2,0.7,0.4,1.4,0.5,2.2h0.1c0.2-0.8,0.3-1.5,0.5-2.2l1.1-4.5h1.3l-2.1,7.8h-1.7l-1.1-4.2c-0.2-0.7-0.3-1.4-0.5-2.3h-0.1
					c-0.1,0.9-0.3,1.6-0.5,2.3l-1,4.2h-1.6L309.2,65.5z"/>
			</g>
			<g class="st0">
				<path d="M141.1,88.4l-2.4-3.7h1.4l1,1.7c0.2,0.4,0.5,0.9,0.8,1.3h0.1c0.2-0.4,0.5-0.9,0.7-1.3l0.9-1.7h1.4l-2.4,3.9l2.5,3.9
					h-1.4l-1.1-1.8c-0.3-0.5-0.6-0.9-0.8-1.4h-0.1c-0.3,0.4-0.5,0.9-0.8,1.4l-1,1.8h-1.4L141.1,88.4z"/>
			</g>
			<g class="st0">
				<path d="M152.7,95.7l0.3-1c0.2,0.1,0.4,0.1,0.6,0.1c0.9,0,1.4-0.7,1.7-1.6l0.2-0.6l-3.1-7.8h1.4l1.6,4.3
					c0.3,0.7,0.5,1.5,0.8,2.2h0.1c0.2-0.7,0.4-1.5,0.6-2.2l1.4-4.3h1.3l-2.9,8.4c-0.5,1.5-1.4,2.7-2.9,2.7
					C153.3,95.8,153,95.8,152.7,95.7z"/>
			</g>
			<g class="st0">
				<path d="M166.9,91.8l4.1-6h-3.6v-1.1h5.3v0.7l-4.1,6h4.2v1.1h-5.9V91.8z"/>
			</g>
			<g class="st0">
				<path d="M181.3,91.4h2.3v-7.5h-1.9V83c0.9-0.2,1.6-0.4,2.2-0.8h1v9.1h2.1v1.1h-5.8V91.4z"/>
			</g>
			<g class="st0">
				<path d="M195.3,91.7c3-3,4.8-4.9,4.8-6.5c0-1.2-0.6-2-1.9-2c-0.8,0-1.6,0.5-2.2,1.2l-0.8-0.7c0.8-1,1.8-1.6,3.1-1.6
					c1.9,0,3.1,1.2,3.1,3c0,2-1.8,3.8-4.3,6.4c0.6,0,1.2-0.1,1.7-0.1h3.1v1.1h-6.6V91.7z"/>
			</g>
			<g class="st0">
				<path d="M209.8,91.2l0.7-0.9c0.6,0.6,1.4,1.2,2.6,1.2c1.2,0,2.1-0.7,2.1-1.9c0-1.2-0.8-2-3.3-2v-1c2.2,0,2.9-0.8,2.9-1.9
					c0-1-0.7-1.6-1.8-1.6c-0.8,0-1.6,0.4-2.2,1l-0.7-0.8c0.8-0.7,1.7-1.3,2.9-1.3c1.8,0,3.1,0.9,3.1,2.6c0,1.2-0.7,2-1.8,2.4v0.1
					c1.2,0.3,2.2,1.2,2.2,2.6c0,1.8-1.5,2.9-3.4,2.9C211.6,92.7,210.5,92,209.8,91.2z"/>
			</g>
			<g class="st0">
				<path d="M229,89.7h-4.6v-0.9l4.4-6.5h1.5v6.3h1.4v1.1h-1.4v2.8H229V89.7z M229,88.6v-3c0-0.5,0-1.4,0.1-2H229
					c-0.3,0.5-0.5,0.9-0.8,1.4l-2.4,3.5H229z"/>
			</g>
			<g class="st0">
				<path d="M239.2,91.3l0.6-0.9c0.6,0.6,1.4,1.2,2.6,1.2c1.2,0,2.2-0.9,2.2-2.3c0-1.4-0.8-2.2-2.2-2.2c-0.7,0-1.1,0.2-1.7,0.6
					l-0.7-0.4l0.3-4.9h5.1v1.2h-4l-0.3,3c0.5-0.3,0.9-0.4,1.6-0.4c1.7,0,3.2,1,3.2,3.2s-1.7,3.5-3.4,3.5
					C240.9,92.7,239.9,92,239.2,91.3z"/>
			</g>
			<g class="st0">
				<path d="M254.3,87.8c0-4.1,1.9-5.7,3.9-5.7c1.1,0,1.9,0.5,2.5,1.1l-0.7,0.8c-0.4-0.5-1-0.8-1.7-0.8c-1.4,0-2.6,1.1-2.7,4.4
					c0.6-0.8,1.6-1.3,2.4-1.3c1.8,0,2.9,1.1,2.9,3.2c0,2-1.4,3.3-3,3.3C255.8,92.7,254.3,91.1,254.3,87.8z M255.6,88.6
					c0.2,2,1,3,2.2,3c1,0,1.8-0.9,1.8-2.2c0-1.3-0.6-2.2-1.9-2.2C257.1,87.2,256.2,87.6,255.6,88.6z"/>
			</g>
			<g class="st0">
				<path d="M274,83.4H269v-1.2h6.6v0.8c-2.4,3.1-3,5.4-3.2,9.4H271C271.2,88.7,272,86.3,274,83.4z"/>
			</g>
			<g class="st0">
				<path d="M283.6,89.9c0-1.3,1-2.2,1.9-2.8v-0.1c-0.8-0.5-1.4-1.3-1.4-2.4c0-1.6,1.2-2.6,2.9-2.6c1.8,0,2.9,1.1,2.9,2.7
					c0,1.1-0.8,2-1.4,2.5v0.1c0.9,0.5,1.8,1.2,1.8,2.6c0,1.5-1.3,2.7-3.3,2.7C285,92.7,283.6,91.5,283.6,89.9z M289,89.9
					c0-1.3-1.3-1.8-2.8-2.4c-0.8,0.5-1.4,1.3-1.4,2.2c0,1.1,0.9,1.9,2.2,1.9C288.2,91.7,289,91,289,89.9z M288.8,84.9
					c0-1-0.7-1.8-1.8-1.8c-0.9,0-1.6,0.6-1.6,1.6c0,1.2,1.1,1.7,2.4,2.2C288.4,86.3,288.8,85.6,288.8,84.9z"/>
			</g>
			<g class="st0">
				<path d="M298.5,91.6l0.7-0.8c0.4,0.5,1,0.8,1.7,0.8c1.4,0,2.6-1.1,2.7-4.3c-0.6,0.8-1.6,1.3-2.4,1.3c-1.8,0-2.9-1.1-2.9-3.2
					c0-2,1.4-3.3,3-3.3c2,0,3.5,1.6,3.5,4.9c0,4.1-1.9,5.7-3.9,5.7C299.9,92.7,299,92.2,298.5,91.6z M301.4,87.5
					c0.7,0,1.5-0.4,2.1-1.3c-0.2-2-0.9-3-2.2-3c-1,0-1.8,0.9-1.8,2.2C299.6,86.7,300.2,87.5,301.4,87.5z"/>
			</g>
			<g class="st0">
				<path d="M313.1,87.4c0-3.4,1.2-5.3,3.3-5.3c2,0,3.3,1.8,3.3,5.3c0,3.4-1.2,5.3-3.3,5.3C314.3,92.7,313.1,90.8,313.1,87.4z
					 M318.3,87.4c0-3-0.8-4.2-2-4.2c-1.2,0-2,1.2-2,4.2s0.8,4.3,2,4.3C317.5,91.6,318.3,90.4,318.3,87.4z"/>
			</g>
			<g class="st0">
				<path d="M139.7,110.9c0-0.6,0.4-1,1-1c0.5,0,1,0.4,1,1c0,0.6-0.4,1-1,1C140.1,111.9,139.7,111.5,139.7,110.9z M140,102.5l0-1.5
					h1.3l0,1.5l-0.2,6h-0.9L140,102.5z"/>
			</g>
			<g class="st0">
				<path d="M154.9,108.4c0-4.3,3.1-7.1,6.7-7.1c3.3,0,5.3,2.1,5.3,5.3c0,2.8-1.8,4.3-3.2,4.3c-0.9,0-1.5-0.4-1.7-1.2h0
					c-0.5,0.6-1.2,1.1-1.9,1.1c-1.1,0-2-0.8-2-2.3c0-1.7,1.2-3.8,3.1-3.8c0.7,0,1,0.2,1.3,0.8h0l0.2-0.6h0.9l-0.6,3.2
					c-0.3,1.2,0,1.8,0.8,1.8c0.9,0,2-1.2,2-3.2c0-2.5-1.5-4.3-4.3-4.3c-2.8,0-5.5,2.4-5.5,6c0,3,2,4.8,4.6,4.8c1,0,1.8-0.3,2.5-0.7
					l0.4,0.9c-0.9,0.5-1.9,0.8-3.1,0.8C157.4,114.2,154.9,112.2,154.9,108.4z M161.8,108.9l0.5-2.5c-0.3-0.5-0.6-0.7-1-0.7
					c-1.2,0-2,1.5-2,2.7c0,1,0.5,1.4,1.1,1.4C160.7,109.8,161.2,109.6,161.8,108.9z"/>
			</g>
			<g class="st0">
				<path d="M179.7,110.9c1.1-0.6,1.7-1.7,1.7-2.9c0-0.3,0-0.6-0.1-0.9h-1.6v-0.8l1.1,0h0.3c-0.2-0.7-0.4-1.3-0.4-2
					c0-1.8,1.2-2.9,3-2.9c1.2,0,2,0.5,2.5,1.2l-0.7,0.7c-0.4-0.5-0.9-0.8-1.6-0.8c-1.2,0-1.8,0.8-1.8,1.9c0,0.7,0.2,1.3,0.4,2h2.5
					v0.9h-2.3c0,0.3,0.1,0.6,0.1,0.9c0,1.1-0.3,1.8-1,2.5v0.1h4.5v1.1h-6.4V110.9z"/>
			</g>
			<g class="st0">
				<path d="M201.6,111.9c-1.1-0.1-2.1-0.5-2.7-1.3l0.6-0.8c0.7,0.6,1.5,1,2.5,1c1.2,0,1.8-0.7,1.8-1.7c0-2.2-4.5-2.2-4.5-5.1
					c0-1.4,0.9-2.4,2.3-2.7v-1.6h1v1.6c1,0.1,1.7,0.6,2.3,1.2l-0.7,0.7c-0.5-0.6-1.1-0.9-2-0.9c-1,0-1.6,0.6-1.6,1.5
					c0,2.1,4.5,2,4.5,5c0,1.6-1,2.7-2.5,2.9v1.6h-1V111.9z"/>
			</g>
			<g class="st0">
				<path d="M217.7,104.3c0-2.1,0.9-3.3,2.4-3.3c1.4,0,2.4,1.2,2.4,3.3c0,2.1-1,3.3-2.4,3.3C218.6,107.6,217.7,106.4,217.7,104.3z
					 M221.5,104.3c0-1.7-0.6-2.5-1.4-2.5s-1.4,0.8-1.4,2.5c0,1.7,0.6,2.5,1.4,2.5S221.5,106,221.5,104.3z M226.2,101h0.9l-5.8,10.9
					h-0.9L226.2,101z M225,108.6c0-2.1,0.9-3.3,2.4-3.3c1.4,0,2.4,1.2,2.4,3.3c0,2.1-1,3.3-2.4,3.3C226,111.9,225,110.7,225,108.6z
					 M228.8,108.6c0-1.7-0.6-2.5-1.4-2.5s-1.4,0.8-1.4,2.5c0,1.7,0.6,2.5,1.4,2.5S228.8,110.2,228.8,108.6z"/>
			</g>
			<g class="st0">
				<path d="M244.9,101h1.2l2.4,6.2h-1.2l-1-2.8l-0.8-2.1h-0.1l-0.8,2.1l-1.1,2.8h-1.2L244.9,101z"/>
			</g>
			<g class="st0">
				<path d="M261.2,109c0-1.4,1-2.3,2.1-3c-0.4-0.8-0.7-1.7-0.7-2.4c0-1.4,1-2.5,2.4-2.5c1.3,0,2.1,0.8,2.1,2.1
					c0,1.4-1.2,2.3-2.4,3.1c0.7,1.1,1.6,2.1,2.6,2.9c0.7-0.8,1.2-1.9,1.5-3.1h1.2c-0.4,1.4-1,2.7-1.8,3.8c0.7,0.5,1.4,0.8,2,1
					l-0.4,1.1c-0.7-0.2-1.6-0.6-2.4-1.2c-0.8,0.7-1.8,1.2-3,1.2C262.5,111.9,261.2,110.7,261.2,109z M264.5,110.8
					c0.7,0,1.4-0.3,2-0.8c-1-0.9-2-2-2.8-3.1c-0.7,0.6-1.3,1.2-1.3,2C262.5,110.1,263.4,110.8,264.5,110.8z M264.2,105.3
					c1-0.6,1.8-1.3,1.8-2.2c0-0.6-0.3-1.2-1-1.2c-0.8,0-1.3,0.7-1.3,1.5C263.7,104,263.9,104.7,264.2,105.3z"/>
			</g>
			<g class="st0">
				<path d="M283.1,104.5l0.9-1.5l-1.6-0.7l0.2-0.7l1.6,0.4l0.1-1.7h0.8l0.1,1.7l1.6-0.4l0.2,0.7l-1.6,0.7l0.9,1.5l-0.6,0.5
					l-1.1-1.4l-1.2,1.4L283.1,104.5z"/>
			</g>
			<g class="st0">
				<path d="M300.8,107.2c0-2.8,0.8-5.1,2.1-7.3l0.8,0.4c-1.2,2-1.8,4.5-1.8,6.9c0,2.4,0.6,4.9,1.8,6.9l-0.8,0.4
					C301.5,112.4,300.8,110.1,300.8,107.2z"/>
			</g>
			<g class="st0">
				<path d="M316.1,114.1c1.2-2,1.8-4.4,1.8-6.9c0-2.4-0.6-4.8-1.8-6.9l0.8-0.4c1.3,2.1,2.1,4.5,2.1,7.3c0,2.8-0.8,5.1-2.1,7.3
					L316.1,114.1z"/>
			</g>
			<g class="st0">
				<path d="M1.7,52.6l0.8-0.9C3.2,52.5,4.3,53,5.4,53c1.4,0,2.2-0.7,2.2-1.7c0-1.1-0.8-1.4-1.7-1.8l-1.5-0.7
					c-1-0.4-2.1-1.2-2.1-2.7c0-1.6,1.4-2.8,3.3-2.8c1.3,0,2.4,0.5,3.1,1.3l-0.7,0.9c-0.6-0.6-1.5-1-2.4-1c-1.2,0-1.9,0.6-1.9,1.5
					c0,1,0.9,1.4,1.7,1.7l1.5,0.7c1.2,0.5,2.2,1.2,2.2,2.8c0,1.7-1.4,3-3.6,3C3.8,54.2,2.6,53.6,1.7,52.6z"/>
				<path d="M10.3,50.1c0-2.6,1.7-4.1,3.6-4.1s3.6,1.5,3.6,4.1c0,2.6-1.7,4.1-3.6,4.1S10.3,52.7,10.3,50.1z M16.1,50.1
					c0-1.8-0.9-3-2.2-3c-1.3,0-2.2,1.2-2.2,3c0,1.8,0.9,3,2.2,3C15.2,53.1,16.1,51.9,16.1,50.1z"/>
				<path d="M19.4,51.1v-4.9h1.3V51c0,1.4,0.4,2.1,1.5,2.1c0.8,0,1.3-0.4,2.1-1.3v-5.5h1.3V54h-1.1l-0.1-1.2h0
					c-0.7,0.8-1.5,1.4-2.6,1.4C20.2,54.2,19.4,53.1,19.4,51.1z"/>
			</g>
			<g class="st0">
				<path d="M28.2,46.2h1.1l0.1,1.4h0c0.5-1,1.3-1.6,2.2-1.6c0.4,0,0.6,0,0.8,0.2l-0.3,1.1c-0.2-0.1-0.4-0.1-0.7-0.1
					c-0.7,0-1.4,0.5-2,1.8v5h-1.3V46.2z"/>
			</g>
			<g class="st0">
				<path d="M33,50.1c0-2.6,1.7-4.1,3.7-4.1c1,0,1.7,0.4,2.3,0.9l-0.7,0.8c-0.4-0.4-0.9-0.6-1.6-0.6c-1.4,0-2.4,1.2-2.4,3
					c0,1.8,1,3,2.4,3c0.7,0,1.4-0.3,1.8-0.7l0.6,0.8c-0.7,0.6-1.6,1-2.5,1C34.6,54.2,33,52.7,33,50.1z"/>
			</g>
			<g class="st0">
				<path d="M40,50.1c0-2.5,1.7-4.1,3.5-4.1c2,0,3.1,1.4,3.1,3.7c0,0.3,0,0.5-0.1,0.8h-5.2c0.1,1.6,1.1,2.7,2.6,2.7
					c0.8,0,1.4-0.2,2-0.6l0.5,0.8c-0.7,0.5-1.5,0.8-2.6,0.8C41.6,54.2,40,52.7,40,50.1z M45.4,49.4c0-1.5-0.7-2.4-1.9-2.4
					c-1.1,0-2,0.9-2.2,2.4H45.4z"/>
				<path d="M51.1,52.6l0.8-0.9c0.8,0.8,1.8,1.3,2.9,1.3c1.4,0,2.2-0.7,2.2-1.7c0-1.1-0.8-1.4-1.7-1.8l-1.5-0.7
					c-1-0.4-2.1-1.2-2.1-2.7c0-1.6,1.4-2.8,3.3-2.8c1.3,0,2.4,0.5,3.1,1.3l-0.7,0.9c-0.6-0.6-1.5-1-2.4-1c-1.2,0-1.9,0.6-1.9,1.5
					c0,1,0.9,1.4,1.7,1.7l1.5,0.7c1.2,0.5,2.2,1.2,2.2,2.8c0,1.7-1.4,3-3.6,3C53.3,54.2,52,53.6,51.1,52.6z"/>
				<path d="M59.8,52c0-1.7,1.4-2.6,4.8-2.9c0-1-0.3-1.9-1.6-1.9c-0.9,0-1.7,0.4-2.3,0.8L60.1,47c0.7-0.5,1.8-1,3.1-1
					c1.9,0,2.7,1.3,2.7,3.2V54h-1.1l-0.1-0.9h0c-0.7,0.6-1.6,1.1-2.6,1.1C60.8,54.2,59.8,53.4,59.8,52z M64.6,52.1V50
					c-2.6,0.3-3.5,0.9-3.5,1.9c0,0.9,0.6,1.2,1.3,1.2C63.2,53.1,63.8,52.8,64.6,52.1z"/>
				<path d="M68.3,46.2h1.1l0.1,1.1h0c0.7-0.7,1.5-1.3,2.6-1.3c1.6,0,2.4,1.1,2.4,3V54h-1.3v-4.8c0-1.5-0.4-2.1-1.5-2.1
					c-0.8,0-1.3,0.4-2.1,1.2V54h-1.3V46.2z"/>
				<path d="M76.2,53.1l0.6-0.8c0.7,0.6,1.4,0.8,2.3,0.8c1,0,1.5-0.5,1.5-1.2c0-0.8-0.9-1.1-1.7-1.5c-1.2-0.4-2.3-1-2.3-2.3
					c0-1.2,1-2.2,2.7-2.2c1,0,1.8,0.4,2.4,0.9l-0.6,0.8C80.6,47.3,80,47,79.4,47c-1,0-1.4,0.5-1.4,1.1c0,0.7,0.7,1,1.6,1.3
					c1.2,0.4,2.4,1,2.4,2.4c0,1.3-1,2.3-2.8,2.3C78,54.2,76.9,53.8,76.2,53.1z"/>
				<path d="M87.1,43.5h3c2.4,0,4,0.8,4,3.1c0,2.2-1.6,3.2-3.9,3.2h-1.7V54h-1.3V43.5z M90,48.7c1.8,0,2.7-0.7,2.7-2.2
					c0-1.5-0.9-2-2.8-2h-1.5v4.2H90z"/>
			</g>
			<g class="st0">
				<path d="M96,46.2h1.1l0.1,1.4h0c0.5-1,1.3-1.6,2.2-1.6c0.4,0,0.6,0,0.8,0.2l-0.3,1.1c-0.2-0.1-0.4-0.1-0.7-0.1
					c-0.7,0-1.4,0.5-2,1.8v5H96V46.2z"/>
			</g>
			<g class="st0">
				<path d="M100.9,50.1c0-2.6,1.7-4.1,3.6-4.1s3.6,1.5,3.6,4.1c0,2.6-1.7,4.1-3.6,4.1S100.9,52.7,100.9,50.1z M106.7,50.1
					c0-1.8-0.9-3-2.2-3c-1.3,0-2.2,1.2-2.2,3c0,1.8,0.9,3,2.2,3C105.8,53.1,106.7,51.9,106.7,50.1z"/>
			</g>
			<g class="st0">
				<path d="M2.4,62.7h3.3c2.1,0,3.7,0.8,3.7,3c0,1.6-0.9,2.6-2.4,3l2.7,4.6H8.2l-2.5-4.4H3.8v4.4H2.4V62.7z M5.5,67.7
					c1.6,0,2.5-0.7,2.5-2c0-1.4-0.9-1.9-2.5-1.9H3.8v3.9H5.5z"/>
				<path d="M10.5,69.3c0-2.5,1.7-4.1,3.5-4.1c2,0,3.1,1.4,3.1,3.7c0,0.3,0,0.5-0.1,0.8h-5.2c0.1,1.6,1.1,2.7,2.6,2.7
					c0.8,0,1.4-0.2,2-0.6l0.5,0.8c-0.7,0.5-1.5,0.8-2.6,0.8C12.2,73.4,10.5,71.9,10.5,69.3z M16,68.6c0-1.5-0.7-2.4-1.9-2.4
					c-1.1,0-2,0.9-2.2,2.4H16z"/>
			</g>
			<g class="st0">
				<path d="M18.4,74.7c0-0.7,0.4-1.3,1.1-1.8v-0.1c-0.4-0.2-0.7-0.7-0.7-1.3c0-0.7,0.4-1.2,0.8-1.4v-0.1c-0.5-0.4-1-1.2-1-2.1
					c0-1.7,1.3-2.8,2.9-2.8c0.4,0,0.8,0.1,1.1,0.2h2.7v1h-1.6c0.4,0.4,0.6,0.9,0.6,1.6c0,1.7-1.3,2.7-2.8,2.7
					c-0.4,0-0.8-0.1-1.2-0.3C20.2,70.7,20,71,20,71.4c0,0.5,0.3,0.8,1.4,0.8h1.5c1.8,0,2.7,0.6,2.7,1.9c0,1.5-1.5,2.7-3.9,2.7
					C19.8,76.8,18.4,76,18.4,74.7z M24.3,74.3c0-0.7-0.5-1-1.6-1h-1.3c-0.3,0-0.7,0-1-0.1c-0.6,0.4-0.8,0.9-0.8,1.3
					c0,0.8,0.8,1.3,2.3,1.3C23.3,75.8,24.3,75.1,24.3,74.3z M23.3,68c0-1.1-0.7-1.8-1.6-1.8c-0.9,0-1.6,0.7-1.6,1.8s0.8,1.8,1.6,1.8
					S23.3,69.1,23.3,68z"/>
				<path d="M27,70.3v-4.9h1.3v4.8c0,1.4,0.4,2.1,1.5,2.1c0.8,0,1.3-0.4,2.1-1.3v-5.5h1.3v7.8h-1.1L32,72h0
					c-0.7,0.8-1.5,1.4-2.6,1.4C27.7,73.4,27,72.3,27,70.3z"/>
				<path d="M35.8,71.6v-9.8h1.3v9.9c0,0.4,0.2,0.6,0.4,0.6c0.1,0,0.1,0,0.3,0l0.2,1c-0.2,0.1-0.4,0.1-0.8,0.1
					C36.2,73.4,35.8,72.7,35.8,71.6z"/>
				<path d="M39.4,71.2c0-1.7,1.4-2.6,4.8-2.9c0-1-0.3-1.9-1.6-1.9c-0.9,0-1.7,0.4-2.3,0.8l-0.5-0.9c0.7-0.5,1.8-1,3.1-1
					c1.9,0,2.7,1.3,2.7,3.2v4.8h-1.1l-0.1-0.9h0c-0.7,0.6-1.6,1.1-2.6,1.1C40.4,73.4,39.4,72.6,39.4,71.2z M44.2,71.3v-2.1
					c-2.6,0.3-3.5,0.9-3.5,1.9c0,0.9,0.6,1.2,1.3,1.2C42.8,72.3,43.4,72,44.2,71.3z"/>
				<path d="M48,65.4H49l0.1,1.4h0c0.5-1,1.3-1.6,2.2-1.6c0.4,0,0.6,0,0.8,0.2L52,66.5c-0.2-0.1-0.4-0.1-0.7-0.1
					c-0.7,0-1.4,0.5-2,1.8v5H48V65.4z"/>
			</g>
		</g>
	</g>
</g>
</svg>
