<?xml version="1.0" encoding="utf-8"?>
<!-- Generator: Adobe Illustrator 26.4.1, SVG Export Plug-In . SVG Version: 6.00 Build 0)  -->
<svg version="1.1" id="Layer_1" xmlns="http://www.w3.org/2000/svg" xmlns:xlink="http://www.w3.org/1999/xlink" x="0px" y="0px"
	 viewBox="0 0 328.3 116.2" style="enable-background:new 0 0 328.3 116.2;" xml:space="preserve">
<style type="text/css">
	.st0{enable-background:new    ;}
</style>
<g id="a">
</g>
<g id="b">
	<g id="c">
		<g>
			<g class="st0">
				<path d="M6.7,4.8h1.2l6.6,18.5h-1.3L11,16.9H3.7l-2.2,6.4H0.2L6.7,4.8z M4,15.8h6.6l-1.2-3.5c-0.8-2.2-1.4-4.1-2.1-6.4H7.3
					c-0.6,2.3-1.3,4.2-2,6.4L4,15.8z"/>
			</g>
			<g class="st0">
				<path d="M15.7,19.9c0-3,2.7-4.4,8.7-5.1c0-2.1-0.5-4.3-3.2-4.3c-1.8,0-3.4,0.9-4.3,1.5l-0.5-0.8c0.9-0.7,2.8-1.7,5-1.7
					c3.2,0,4.2,2.3,4.2,5.2v8.6h-1l-0.1-1.8h-0.1c-1.4,1.1-3,2.1-4.8,2.1C17.5,23.6,15.7,22.5,15.7,19.9z M24.4,20.4v-4.6
					c-5.6,0.7-7.5,1.9-7.5,4.1c0,2,1.3,2.7,2.9,2.7C21.4,22.6,22.7,21.8,24.4,20.4z"/>
			</g>
			<g class="st0">
				<path d="M29.5,4.8h5c3.7,0,6,1.4,6,4.5c0,1.9-1,3.5-2.9,4v0.1c2.4,0.4,4,1.9,4,4.5c0,3.6-2.7,5.4-6.9,5.4h-5.3V4.8z M33.9,12.9
					c3.8,0,5.4-1.3,5.4-3.6c0-2.6-1.8-3.6-5.3-3.6h-3.4v7.1H33.9z M34.4,22.2c3.7,0,6-1.3,6-4.3c0-2.7-2.2-4-6-4h-3.8v8.3H34.4z"/>
			</g>
			<g class="st0">
				<path d="M45.7,21.9L45.7,21.9l-0.2,1.3h-1V3.1h1.1V9l-0.1,2.6c1.4-1.1,3-2.1,4.6-2.1c3.6,0,5.4,2.7,5.4,6.9
					c0,4.6-2.8,7.3-5.9,7.3C48.4,23.6,47,22.9,45.7,21.9z M54.4,16.3c0-3.3-1.2-5.8-4.3-5.8c-1.3,0-2.8,0.8-4.4,2.2v8.1
					c1.5,1.3,3,1.7,4,1.7C52.5,22.5,54.4,20,54.4,16.3z"/>
			</g>
			<g class="st0">
				<path d="M57.9,14c0-5.9,3.2-9.5,7.9-9.5c2.2,0,3.8,1.1,4.8,2.2l-0.7,0.8c-1-1.1-2.4-1.9-4.1-1.9c-4.1,0-6.6,3.2-6.6,8.4
					c0,5.2,2.5,8.5,6.5,8.5c1.9,0,3.4-0.8,4.7-2.3l0.7,0.8c-1.4,1.6-3.1,2.6-5.5,2.6C61.1,23.6,57.9,19.8,57.9,14z"/>
			</g>
			<g class="st0">
				<path d="M72.6,16.5c0-4.5,2.9-7.1,6.1-7.1c1.8,0,3,0.8,3.9,1.7L82,11.9c-0.8-0.8-1.9-1.4-3.3-1.4c-2.8,0-4.9,2.5-4.9,6
					s2,6,4.9,6c1.5,0,2.7-0.6,3.6-1.5l0.6,0.7c-1.1,1.1-2.6,1.8-4.3,1.8C75.2,23.6,72.6,21,72.6,16.5z"/>
			</g>
			<g class="st0">
				<path d="M85.3,4.8h4.2c5.7,0,8.4,3.6,8.4,9.2c0,5.6-2.7,9.3-8.3,9.3h-4.3V4.8z M89.4,22.2c5,0,7.2-3.4,7.2-8.3
					c0-4.8-2.2-8.1-7.2-8.1h-2.9v16.4H89.4z"/>
			</g>
			<g class="st0">
				<path d="M100.1,16.5c0-4.3,2.7-7.1,6-7.1c1.6,0,2.7,0.6,4.1,1.7l-0.1-2.5V3.1h1.1v20.2h-1l-0.1-1.8h-0.1
					c-1.1,1.1-2.6,2.1-4.4,2.1C102.3,23.6,100.1,21.1,100.1,16.5z M110.1,20.3v-8c-1.4-1.3-2.6-1.8-4-1.8c-2.7,0-4.8,2.7-4.8,6
					c0,3.6,1.6,6,4.5,6C107.3,22.5,108.7,21.8,110.1,20.3z"/>
			</g>
			<g class="st0">
				<path d="M142.2,5.1h0.7l3.7,10.5h-0.7l-1.2-3.6h-4.2l-1.3,3.6h-0.7L142.2,5.1z M140.6,11.4h3.8l-0.7-2c-0.4-1.2-0.8-2.4-1.2-3.6
					h-0.1c-0.4,1.3-0.7,2.4-1.2,3.6L140.6,11.4z"/>
			</g>
			<g class="st0">
				<path d="M155.8,5.1h2.8c2.1,0,3.5,0.8,3.5,2.6c0,1.1-0.6,2-1.6,2.3V10c1.4,0.2,2.3,1.1,2.3,2.5c0,2-1.5,3.1-3.9,3.1h-3V5.1z
					 M158.3,9.7c2.2,0,3.1-0.8,3.1-2c0-1.5-1-2-3-2h-1.9v4.1H158.3z M158.6,15c2.1,0,3.4-0.8,3.4-2.5c0-1.5-1.2-2.3-3.4-2.3h-2.1V15
					H158.6z"/>
			</g>
			<g class="st0">
				<path d="M171.8,10.3c0-3.3,1.8-5.4,4.5-5.4c1.2,0,2.2,0.6,2.7,1.2l-0.4,0.5c-0.6-0.7-1.3-1.1-2.3-1.1c-2.3,0-3.8,1.9-3.8,4.8
					c0,3,1.4,4.9,3.7,4.9c1.1,0,1.9-0.4,2.7-1.3l0.4,0.4c-0.8,0.9-1.8,1.5-3.1,1.5C173.6,15.8,171.8,13.7,171.8,10.3z"/>
			</g>
			<g class="st0">
				<path d="M189,5.1h2.4c3.3,0,4.8,2.1,4.8,5.2c0,3.2-1.5,5.3-4.8,5.3H189V5.1z M191.4,15c2.9,0,4.1-2,4.1-4.7
					c0-2.8-1.2-4.7-4.1-4.7h-1.7V15H191.4z"/>
			</g>
			<g class="st0">
				<path d="M206.2,5.1h5.7v0.6h-5.1v4h4.2v0.6h-4.2V15h5.2v0.6h-5.9V5.1z"/>
			</g>
			<g class="st0">
				<path d="M221.9,5.1h5.7v0.6h-5v4.3h4.3v0.6h-4.3v5.1h-0.7V5.1z"/>
			</g>
			<g class="st0">
				<path d="M236.3,10.3c0-3.3,1.9-5.4,4.7-5.4c1.4,0,2.3,0.7,2.9,1.2l-0.4,0.5c-0.5-0.6-1.3-1.1-2.4-1.1c-2.4,0-3.9,1.9-3.9,4.8
					c0,3,1.4,4.9,3.8,4.9c1,0,1.9-0.3,2.4-0.8V11h-2.5v-0.6h3.2v4.2c-0.6,0.7-1.7,1.2-3.1,1.2C238.1,15.8,236.3,13.7,236.3,10.3z"/>
			</g>
			<g class="st0">
				<path d="M254.1,5.1h0.7v4.6h5.7V5.1h0.7v10.5h-0.7v-5.3h-5.7v5.3h-0.7V5.1z"/>
			</g>
			<g class="st0">
				<path d="M271.8,5.1h0.7v10.5h-0.7V5.1z"/>
			</g>
			<g class="st0">
				<path d="M282.3,14.3l0.5-0.3c0.5,0.9,1.2,1.2,2,1.2c1.3,0,1.9-0.8,1.9-2.5V5.1h0.7v7.7c0,1.7-0.7,3.1-2.6,3.1
					C283.7,15.8,282.8,15.3,282.3,14.3z"/>
			</g>
			<g class="st0">
				<path d="M298,5.1h0.7V11h0l5.2-5.9h0.8L301.3,9l3.8,6.7h-0.8l-3.5-6.1l-2.2,2.5v3.6H298V5.1z"/>
			</g>
			<g class="st0">
				<path d="M314.4,5.1h0.7v10h4.9v0.6h-5.6V5.1z"/>
			</g>
			<g class="st0">
				<path d="M139.9,24.3h1l2.2,6.2c0.3,0.8,0.6,1.6,0.8,2.4h0.1c0.3-0.8,0.5-1.6,0.8-2.4l2.2-6.2h1v10.5h-0.7v-7
					c0-0.8,0.1-2,0.1-2.8h-0.1l-0.8,2.4l-2.3,6.4h-0.6l-2.3-6.4l-0.8-2.4h-0.1c0,0.9,0.1,2,0.1,2.8v7h-0.6V24.3z"/>
			</g>
			<g class="st0">
				<path d="M158.7,24.3h0.7l4.5,7.5c0.4,0.7,0.8,1.4,1.2,2.1h0.1c0-1-0.1-2-0.1-3.1v-6.6h0.6v10.5H165l-4.5-7.5
					c-0.4-0.7-0.8-1.4-1.2-2.1h-0.1c0,1,0.1,2,0.1,3v6.7h-0.6V24.3z"/>
			</g>
			<g class="st0">
				<path d="M175.7,29.5c0-3.3,1.8-5.4,4.3-5.4c2.5,0,4.3,2.1,4.3,5.4c0,3.3-1.8,5.5-4.3,5.5C177.5,35,175.7,32.8,175.7,29.5z
					 M183.6,29.5c0-2.9-1.4-4.8-3.6-4.8c-2.2,0-3.6,1.9-3.6,4.8c0,3,1.5,4.9,3.6,4.9C182.2,34.4,183.6,32.5,183.6,29.5z"/>
			</g>
			<g class="st0">
				<path d="M194.3,24.3h2.6c2.4,0,3.8,0.8,3.8,2.9c0,2-1.4,3.1-3.7,3.1h-2v4.6h-0.7V24.3z M196.8,29.7c2.2,0,3.2-0.7,3.2-2.5
					c0-1.8-1.1-2.4-3.3-2.4H195v4.8H196.8z"/>
			</g>
			<g class="st0">
				<path d="M213.9,35c-2.3-0.2-3.9-2.3-3.9-5.5c0-3.3,1.8-5.4,4.3-5.4c2.5,0,4.3,2.1,4.3,5.4c0,3.2-1.6,5.3-4,5.5
					c0.5,1.1,1.4,1.7,2.8,1.7c0.5,0,0.8-0.1,1.1-0.1l0.2,0.6c-0.3,0.1-0.8,0.2-1.3,0.2C215.6,37.3,214.4,36.3,213.9,35z M217.9,29.5
					c0-2.9-1.4-4.8-3.6-4.8c-2.2,0-3.6,1.9-3.6,4.8c0,3,1.5,4.9,3.6,4.9C216.4,34.4,217.9,32.5,217.9,29.5z"/>
			</g>
			<g class="st0">
				<path d="M228.6,24.3h3c2.1,0,3.5,0.8,3.5,2.8c0,1.7-1.1,2.7-2.8,2.8l2.9,4.9h-0.8l-2.9-4.9h-2.3v4.9h-0.7V24.3z M231.4,29.4
					c1.9,0,2.9-0.8,2.9-2.3c0-1.6-1-2.2-2.9-2.2h-2.1v4.5H231.4z"/>
			</g>
			<g class="st0">
				<path d="M244,33.4l0.4-0.5c0.8,0.9,1.9,1.4,3.1,1.4c1.6,0,2.7-0.9,2.7-2.2c0-1.3-0.9-1.8-1.9-2.2l-1.6-0.7
					c-0.9-0.4-2.1-1.1-2.1-2.6c0-1.5,1.3-2.6,3-2.6c1.3,0,2.3,0.6,2.9,1.2l-0.4,0.5c-0.6-0.7-1.5-1.1-2.5-1.1
					c-1.4,0-2.4,0.8-2.4,1.9c0,1.2,1.1,1.7,1.8,2l1.6,0.7c1.2,0.5,2.2,1.2,2.2,2.8c0,1.6-1.3,2.8-3.4,2.8
					C246,35,244.8,34.3,244,33.4z"/>
			</g>
			<g class="st0">
				<path d="M262.9,24.9h-3.4v-0.6h7.4v0.6h-3.4v10h-0.7V24.9z"/>
			</g>
			<g class="st0">
				<path d="M276.5,30.8v-6.5h0.7v6.4c0,2.8,1.3,3.7,2.8,3.7c1.5,0,2.9-0.8,2.9-3.7v-6.4h0.7v6.5c0,3.3-1.8,4.2-3.6,4.2
					S276.5,34.1,276.5,30.8z"/>
			</g>
			<g class="st0">
				<path d="M292.7,24.3h0.7l1.9,6.2c0.4,1.3,0.7,2.3,1.1,3.6h0.1c0.4-1.3,0.7-2.3,1.1-3.6l2-6.2h0.7l-3.5,10.5h-0.7L292.7,24.3z"/>
			</g>
			<g class="st0">
				<path d="M308.5,24.3h0.7l1.3,6.3c0.2,1.2,0.5,2.3,0.7,3.5h0.1c0.3-1.2,0.5-2.3,0.8-3.5l1.7-6.3h0.7l1.6,6.3
					c0.3,1.2,0.6,2.3,0.8,3.5h0.1c0.3-1.2,0.5-2.3,0.7-3.5l1.4-6.3h0.7l-2.4,10.5h-0.8l-1.9-7.3c-0.2-0.8-0.4-1.5-0.6-2.4h-0.1
					c-0.2,0.8-0.4,1.6-0.6,2.4l-2,7.3h-0.7L308.5,24.3z"/>
			</g>
			<g class="st0">
				<path d="M141.8,48.6l-3-5.1h0.7l1.8,3.1c0.3,0.5,0.5,0.8,0.8,1.4h0.1c0.3-0.6,0.5-1,0.8-1.4l1.8-3.1h0.7l-2.9,5.1l3.2,5.4H145
					l-1.9-3.3c-0.3-0.5-0.6-1-1-1.7h-0.1c-0.3,0.6-0.6,1.2-0.9,1.7l-1.9,3.3h-0.7L141.8,48.6z"/>
			</g>
			<g class="st0">
				<path d="M156.8,49.7l-3.2-6.3h0.7l1.6,3.3c0.4,0.8,0.7,1.5,1.1,2.3h0.1c0.4-0.8,0.8-1.5,1.2-2.3l1.6-3.3h0.7l-3.2,6.3V54h-0.7
					V49.7z"/>
			</g>
			<g class="st0">
				<path d="M169.1,53.6l6.1-9.6h-5.6v-0.6h6.4v0.4l-6.1,9.6h6.2V54h-7V53.6z"/>
			</g>
			<g class="st0">
				<path d="M185.4,52.1c0-1.7,1.6-2.5,5-2.9c0-1.2-0.3-2.5-1.8-2.5c-1.1,0-2,0.5-2.5,0.9l-0.3-0.5c0.5-0.4,1.6-1,2.8-1
					c1.8,0,2.4,1.3,2.4,2.9V54h-0.6l-0.1-1h0c-0.8,0.6-1.7,1.2-2.7,1.2C186.4,54.2,185.4,53.6,185.4,52.1z M190.4,52.4v-2.7
					c-3.2,0.4-4.3,1.1-4.3,2.4c0,1.1,0.8,1.6,1.7,1.6C188.6,53.6,189.4,53.2,190.4,52.4z"/>
			</g>
			<g class="st0">
				<path d="M202,53.2L202,53.2l-0.1,0.8h-0.5V42.5h0.7v3.4l0,1.5c0.8-0.7,1.7-1.2,2.7-1.2c2.1,0,3.1,1.6,3.1,3.9
					c0,2.6-1.6,4.1-3.4,4.1C203.6,54.2,202.7,53.8,202,53.2z M207,50.1c0-1.9-0.7-3.3-2.5-3.3c-0.8,0-1.6,0.4-2.5,1.3v4.6
					c0.8,0.7,1.7,1,2.3,1C205.9,53.6,207,52.2,207,50.1z"/>
			</g>
			<g class="st0">
				<path d="M216.9,50.2c0-2.6,1.6-4,3.5-4c1.1,0,1.7,0.4,2.3,1l-0.4,0.4c-0.5-0.5-1.1-0.8-1.9-0.8c-1.6,0-2.8,1.4-2.8,3.5
					s1.1,3.4,2.8,3.4c0.8,0,1.6-0.4,2.1-0.8l0.3,0.4c-0.6,0.6-1.5,1-2.4,1C218.4,54.2,216.9,52.7,216.9,50.2z"/>
			</g>
			<g class="st0">
				<path d="M231.7,50.2c0-2.5,1.6-4,3.4-4c0.9,0,1.6,0.4,2.3,1l0-1.4v-3.2h0.7V54h-0.6l-0.1-1h0c-0.6,0.6-1.5,1.2-2.5,1.2
					C232.9,54.2,231.7,52.8,231.7,50.2z M237.4,52.3v-4.6c-0.8-0.7-1.5-1-2.3-1c-1.6,0-2.7,1.5-2.7,3.5c0,2.1,0.9,3.4,2.6,3.4
					C235.8,53.6,236.5,53.2,237.4,52.3z"/>
			</g>
			<g class="st0">
				<path d="M247.9,50.2c0-2.5,1.6-4,3.3-4c1.8,0,2.9,1.3,2.9,3.6c0,0.2,0,0.4,0,0.6h-5.6c0,2,1.2,3.4,2.9,3.4
					c0.8,0,1.5-0.3,2.1-0.6l0.3,0.4c-0.6,0.4-1.3,0.8-2.4,0.8C249.5,54.2,247.9,52.7,247.9,50.2z M253.5,49.7c0-2-0.9-3-2.3-3
					c-1.3,0-2.5,1.1-2.7,3H253.5z"/>
			</g>
			<g class="st0">
				<path d="M263.9,46.9h-1.1v-0.5l1.1-0.1v-1.7c0-1.5,0.7-2.3,1.9-2.3c0.4,0,0.8,0.1,1.1,0.3l-0.2,0.5c-0.3-0.1-0.6-0.2-0.9-0.2
					c-0.8,0-1.2,0.6-1.2,1.8v1.7h1.8v0.6h-1.8V54h-0.7V46.9z"/>
			</g>
			<g class="st0">
				<path d="M274.9,55.6c0-0.7,0.4-1.4,1.2-1.9v-0.1c-0.4-0.2-0.7-0.6-0.7-1.2c0-0.7,0.5-1.2,0.8-1.4V51c-0.5-0.4-1-1.2-1-2.1
					c0-1.6,1.2-2.7,2.7-2.7c0.4,0,0.8,0.1,1,0.2h2.6v0.6h-1.8c0.5,0.4,0.9,1.1,0.9,2c0,1.6-1.2,2.7-2.7,2.7c-0.4,0-0.9-0.1-1.3-0.3
					c-0.3,0.3-0.6,0.6-0.6,1.1c0,0.6,0.3,1,1.5,1h1.6c1.7,0,2.5,0.6,2.5,1.8c0,1.3-1.4,2.6-3.6,2.6
					C276.2,57.7,274.9,56.9,274.9,55.6z M281,55.2c0-0.8-0.6-1.2-1.8-1.2h-1.7c-0.1,0-0.5,0-0.9-0.1c-0.7,0.5-1,1.1-1,1.6
					c0,1,0.9,1.6,2.6,1.6C279.9,57.2,281,56.2,281,55.2z M280,48.8c0-1.3-0.9-2.1-2-2.1s-2,0.8-2,2.1c0,1.3,0.9,2.2,2,2.2
					S280,50.2,280,48.8z"/>
			</g>
			<g class="st0">
				<path d="M290.9,42.5h0.7v3.4l0,1.7c0.8-0.8,1.6-1.4,2.7-1.4c1.6,0,2.3,1,2.3,2.9V54h-0.7v-4.8c0-1.6-0.5-2.4-1.8-2.4
					c-0.9,0-1.6,0.5-2.5,1.5V54h-0.7V42.5z"/>
			</g>
			<g class="st0">
				<path d="M306.7,43.8c0-0.4,0.3-0.6,0.6-0.6s0.6,0.3,0.6,0.6c0,0.4-0.3,0.6-0.6,0.6S306.7,44.2,306.7,43.8z M306.9,46.3h0.7V54
					h-0.7V46.3z"/>
			</g>
			<g class="st0">
				<path d="M316.1,57.5l0.2-0.5c0.2,0.1,0.5,0.1,0.8,0.1c0.9,0,1-0.7,1-1.7v-9.1h0.7v9.2c0,1.5-0.5,2.2-1.7,2.2
					C316.8,57.7,316.4,57.6,316.1,57.5z M317.9,43.8c0-0.4,0.3-0.6,0.6-0.6c0.3,0,0.6,0.3,0.6,0.6c0,0.4-0.3,0.6-0.6,0.6
					C318.1,44.5,317.9,44.2,317.9,43.8z"/>
			</g>
			<g class="st0">
				<path d="M139.8,61.7h0.7v8.5h0l3.8-4.7h0.8l-2.5,3l2.9,4.6h-0.7l-2.6-4.1l-1.7,2v2.1h-0.7V61.7z"/>
			</g>
			<g class="st0">
				<path d="M155.5,72.2V61.7h0.7v10.6c0,0.4,0.1,0.5,0.4,0.5c0.1,0,0.1,0,0.3,0l0.1,0.5c-0.1,0.1-0.3,0.1-0.5,0.1
					C155.9,73.4,155.5,73,155.5,72.2z"/>
			</g>
			<g class="st0">
				<path d="M167.6,65.5h0.6l0.1,1.2h0c0.7-0.8,1.6-1.4,2.4-1.4c1.2,0,1.8,0.6,2.1,1.6c0.9-1,1.7-1.6,2.6-1.6c1.5,0,2.3,1,2.3,2.9
					v4.9h-0.7v-4.8c0-1.6-0.5-2.4-1.7-2.4c-0.7,0-1.5,0.5-2.3,1.5v5.8h-0.7v-4.8c0-1.6-0.6-2.4-1.7-2.4c-0.7,0-1.5,0.5-2.3,1.5v5.8
					h-0.7V65.5z"/>
			</g>
			<g class="st0">
				<path d="M188.9,65.5h0.6l0.1,1.2h0c0.8-0.8,1.6-1.4,2.6-1.4c1.6,0,2.3,1,2.3,2.9v4.9h-0.7v-4.8c0-1.6-0.5-2.4-1.8-2.4
					c-0.9,0-1.6,0.5-2.5,1.5v5.8h-0.7V65.5z"/>
			</g>
			<g class="st0">
				<path d="M205.1,69.4c0-2.6,1.6-4,3.4-4s3.4,1.5,3.4,4c0,2.5-1.6,4-3.4,4S205.1,71.9,205.1,69.4z M211.3,69.4
					c0-2-1.2-3.5-2.8-3.5c-1.6,0-2.8,1.4-2.8,3.5s1.2,3.4,2.8,3.4C210.1,72.8,211.3,71.4,211.3,69.4z"/>
			</g>
			<g class="st0">
				<path d="M222.6,65.5h0.6l0.1,1h0c0.8-0.6,1.7-1.2,2.6-1.2c2.1,0,3.1,1.6,3.1,3.9c0,2.6-1.6,4.1-3.4,4.1c-0.7,0-1.5-0.4-2.3-0.9
					v4.2h-0.7V65.5z M228.3,69.3c0-1.9-0.7-3.3-2.5-3.3c-0.8,0-1.6,0.4-2.5,1.3v4.6c0.9,0.7,1.7,1,2.3,1
					C227.2,72.8,228.3,71.4,228.3,69.3z"/>
			</g>
			<g class="st0">
				<path d="M244.7,73.7l0-1.5c-0.7,0.7-1.5,1.2-2.6,1.2c-1.9,0-3.2-1.4-3.2-4c0-2.5,1.6-4,3.4-4c0.9,0,1.6,0.4,2.3,0.9h0l0.1-0.7
					h0.5v11.2h-0.7V73.7z M244.7,71.5v-4.6c-0.8-0.7-1.5-1-2.3-1c-1.6,0-2.7,1.5-2.7,3.5c0,2.1,0.9,3.4,2.6,3.4
					C243.1,72.8,243.9,72.4,244.7,71.5z"/>
			</g>
			<g class="st0">
				<path d="M256.6,65.5h0.6l0.1,1.4h0c0.5-0.9,1.3-1.6,2.2-1.6c0.3,0,0.5,0,0.8,0.2l-0.2,0.6c-0.2-0.1-0.4-0.1-0.7-0.1
					c-0.7,0-1.5,0.5-2.1,2v5.2h-0.7V65.5z"/>
			</g>
			<g class="st0">
				<path d="M269.1,72.3l0.4-0.4c0.6,0.5,1.3,0.9,2.5,0.9c1.2,0,1.9-0.7,1.9-1.5c0-1-1-1.4-1.9-1.7c-1.2-0.4-2.4-0.9-2.4-2.2
					c0-1.1,0.9-2,2.5-2c0.9,0,1.6,0.3,2.2,0.8l-0.4,0.4c-0.5-0.4-1.1-0.6-1.8-0.6c-1.2,0-1.8,0.7-1.8,1.4c0,0.9,0.8,1.2,1.8,1.6
					c1.2,0.5,2.5,0.8,2.5,2.3c0,1.2-0.9,2.2-2.6,2.2C270.7,73.4,269.7,73,269.1,72.3z"/>
			</g>
			<g class="st0">
				<path d="M285,71.1v-5h-1.2v-0.5l1.2-0.1l0.1-2.5h0.6v2.5h2.2v0.6h-2.2v5c0,1,0.2,1.7,1.3,1.7c0.3,0,0.6-0.1,1-0.2l0.2,0.5
					c-0.4,0.2-0.9,0.4-1.3,0.4C285.4,73.4,285,72.5,285,71.1z"/>
			</g>
			<g class="st0">
				<path d="M298,70.5v-4.9h0.7v4.9c0,1.6,0.5,2.4,1.8,2.4c0.9,0,1.6-0.5,2.5-1.6v-5.7h0.7v7.7H303l-0.1-1.3h0
					c-0.8,0.9-1.6,1.5-2.6,1.5C298.7,73.4,298,72.4,298,70.5z"/>
			</g>
			<g class="st0">
				<path d="M313.6,65.5h0.7l1.7,4.9c0.3,0.7,0.5,1.5,0.8,2.2h0.1c0.3-0.7,0.5-1.5,0.8-2.2l1.7-4.9h0.7l-2.8,7.7h-0.8L313.6,65.5z"
					/>
			</g>
			<g class="st0">
				<path d="M138.7,84.7h0.7l1.4,5c0.2,0.7,0.4,1.3,0.5,2h0.1c0.2-0.7,0.4-1.3,0.6-2l1.4-5h0.8l1.4,5c0.2,0.7,0.4,1.3,0.6,2h0.1
					c0.2-0.7,0.4-1.3,0.6-2l1.4-5h0.7l-2.2,7.7h-0.9l-1.4-4.8c-0.2-0.7-0.4-1.4-0.6-2.2h-0.1c-0.2,0.8-0.4,1.5-0.6,2.2l-1.3,4.8H141
					L138.7,84.7z"/>
			</g>
			<g class="st0">
				<path d="M160.3,88.4l-2.4-3.7h0.7l1.3,2c0.2,0.4,0.5,0.8,0.8,1.2h0.1c0.3-0.4,0.5-0.8,0.8-1.2l1.2-2h0.7l-2.4,3.7l2.6,4H163
					l-1.4-2.1c-0.3-0.5-0.6-1-0.9-1.4h-0.1c-0.3,0.4-0.6,0.9-0.9,1.4l-1.3,2.1h-0.7L160.3,88.4z"/>
			</g>
			<g class="st0">
				<path d="M172.5,95.8l0.2-0.6c0.2,0.1,0.4,0.1,0.6,0.1c0.9,0,1.6-0.9,2-2.1l0.2-0.7l-3.2-7.8h0.7l1.9,4.9
					c0.3,0.6,0.6,1.5,0.8,2.1h0.1c0.2-0.7,0.5-1.5,0.7-2.1l1.7-4.9h0.7l-3,8.7c-0.4,1.3-1.2,2.5-2.6,2.5
					C173,95.9,172.7,95.9,172.5,95.8z"/>
			</g>
			<g class="st0">
				<path d="M187.7,92.1l4.6-6.7h-4.1v-0.6h4.9v0.4l-4.6,6.8h4.7v0.6h-5.6V92.1z"/>
			</g>
			<g class="st0">
				<path d="M203.2,91.8h2.4v-8.5h-1.8v-0.5c0.8-0.1,1.5-0.4,1.9-0.6h0.5v9.7h2.2v0.6h-5.3V91.8z"/>
			</g>
			<g class="st0">
				<path d="M218.4,92c3.4-3.4,5-5.4,5-7.2c0-1.3-0.7-2.3-2.2-2.3c-0.9,0-1.8,0.6-2.4,1.3l-0.4-0.4c0.8-0.8,1.7-1.5,2.9-1.5
					c1.8,0,2.9,1.1,2.9,2.9c0,2-1.9,4-4.8,7c0.6,0,1.2-0.1,1.7-0.1h3.6v0.6h-6.2V92z"/>
			</g>
			<g class="st0">
				<path d="M234,91.2l0.4-0.5c0.6,0.7,1.4,1.3,2.8,1.3c1.4,0,2.4-0.9,2.4-2.3c0-1.4-1-2.4-3.6-2.4v-0.6c2.4,0,3.2-1,3.2-2.3
					c0-1.2-0.8-1.9-2.1-1.9c-0.9,0-1.8,0.5-2.4,1.1l-0.4-0.4c0.7-0.7,1.6-1.3,2.8-1.3c1.6,0,2.8,0.9,2.8,2.5c0,1.3-0.8,2.1-2,2.5
					v0.1c1.3,0.3,2.3,1.2,2.3,2.7c0,1.8-1.4,2.9-3.1,2.9C235.6,92.6,234.7,91.9,234,91.2z"/>
			</g>
			<g class="st0">
				<path d="M254.3,89.3h-4.7V89l4.8-6.8h0.6v6.6h1.5v0.6H255v3.1h-0.6V89.3z M254.3,88.8V85c0-0.5,0-1.3,0.1-1.7h-0.1
					c-0.3,0.4-0.5,0.8-0.8,1.3l-3,4.3H254.3z"/>
			</g>
			<g class="st0">
				<path d="M265.6,91.2l0.4-0.5c0.6,0.6,1.4,1.2,2.8,1.2c1.4,0,2.6-1.1,2.6-2.8c0-1.7-1-2.7-2.5-2.7c-0.8,0-1.3,0.3-1.9,0.7
					l-0.5-0.3l0.4-4.8h4.7v0.6h-4.1l-0.3,3.8c0.5-0.3,1.1-0.5,1.9-0.5c1.7,0,3.1,1,3.1,3.2c0,2.2-1.6,3.4-3.2,3.4
					S266.3,91.9,265.6,91.2z"/>
			</g>
			<g class="st0">
				<path d="M281.9,87.8c0-4.3,1.8-5.8,3.7-5.8c0.9,0,1.6,0.4,2.1,1l-0.4,0.4c-0.4-0.6-1.1-0.8-1.7-0.8c-1.6,0-3.1,1.3-3.1,5.1
					c0.7-0.9,1.6-1.4,2.6-1.4c1.8,0,2.8,1.1,2.8,3.2c0,1.8-1.3,3.2-2.8,3.2C283.1,92.6,281.9,90.9,281.9,87.8z M282.5,88.4
					c0.1,2.2,1,3.6,2.7,3.6c1.2,0,2.1-1.1,2.1-2.6c0-1.5-0.7-2.6-2.2-2.6C284.3,86.8,283.3,87.3,282.5,88.4z"/>
			</g>
			<g class="st0">
				<path d="M303,82.8h-5.4v-0.6h6.3v0.4c-2.5,3.3-3.1,5.8-3.3,9.8h-0.7C300,88.3,300.9,85.7,303,82.8z"/>
			</g>
			<g class="st0">
				<path d="M313.3,89.8c0-1.4,1.1-2.4,2-2.9v-0.1c-0.7-0.5-1.5-1.3-1.5-2.4c0-1.5,1.2-2.5,2.7-2.5c1.7,0,2.8,1.2,2.8,2.7
					c0,1.1-0.9,2.1-1.5,2.6v0.1c0.9,0.5,1.8,1.2,1.8,2.6c0,1.5-1.2,2.7-3.1,2.7C314.7,92.6,313.3,91.4,313.3,89.8z M319,89.9
					c0-1.6-1.6-2.1-3.2-2.8c-1.1,0.6-1.8,1.5-1.8,2.6c0,1.3,1.1,2.3,2.6,2.3C318,92,319,91.1,319,89.9z M318.7,84.7
					c0-1.1-0.8-2.1-2.1-2.1c-1.2,0-2,0.8-2,1.9c0,1.5,1.4,2.1,2.7,2.6C318.2,86.4,318.7,85.6,318.7,84.7z"/>
			</g>
			<g class="st0">
				<path d="M139.2,110.8l0.4-0.4c0.4,0.6,1.1,0.8,1.7,0.8c1.6,0,3.1-1.3,3.1-5.1c-0.7,0.9-1.6,1.4-2.6,1.4c-1.8,0-2.8-1.1-2.8-3.2
					c0-1.9,1.3-3.2,2.8-3.2c2,0,3.3,1.7,3.3,4.8c0,4.3-1.8,5.8-3.7,5.8C140.4,111.8,139.7,111.4,139.2,110.8z M141.9,107
					c0.7,0,1.7-0.5,2.5-1.6c-0.1-2.2-1-3.6-2.7-3.6c-1.2,0-2.1,1.2-2.1,2.6C139.7,105.9,140.3,107,141.9,107z"/>
			</g>
			<g class="st0">
				<path d="M154.9,106.5c0-3.4,1.1-5.3,3-5.3c1.9,0,3,1.9,3,5.3c0,3.4-1.1,5.3-3,5.3C156,111.8,154.9,109.9,154.9,106.5z
					 M160.3,106.5c0-3.1-0.9-4.7-2.4-4.7c-1.4,0-2.4,1.6-2.4,4.7c0,3.1,0.9,4.8,2.4,4.8C159.3,111.2,160.3,109.6,160.3,106.5z"/>
			</g>
			<g class="st0">
				<path d="M171.3,111.1c0-0.5,0.3-0.7,0.7-0.7s0.7,0.3,0.7,0.7c0,0.4-0.3,0.7-0.7,0.7S171.3,111.5,171.3,111.1z M171.6,102v-1.1
					h0.7l0,1.1l-0.1,6.8h-0.5L171.6,102z"/>
			</g>
			<g class="st0">
				<path d="M182.9,108.4c0-4.2,3-6.9,6.3-6.9c3.1,0,5,2,5,5.1c0,2.7-1.6,4.2-2.9,4.2c-0.8,0-1.5-0.4-1.5-1.2h0
					c-0.6,0.6-1.2,1.1-2,1.1c-1,0-1.8-0.7-1.8-2.2c0-1.6,1.1-3.6,3-3.6c0.6,0,1,0.3,1.3,0.8h0l0.1-0.6h0.5l-0.6,3
					c-0.4,1.5,0,2.2,1,2.2c1,0,2.3-1.3,2.3-3.6c0-2.8-1.7-4.5-4.5-4.5c-2.9,0-5.7,2.5-5.7,6.3c0,3.1,1.9,5,4.8,5
					c1.1,0,1.9-0.3,2.7-0.8l0.3,0.5c-0.9,0.6-1.9,0.9-3,0.9C185.2,113.9,182.9,111.9,182.9,108.4z M189.7,109l0.5-2.8
					c-0.4-0.6-0.7-0.8-1.2-0.8c-1.4,0-2.3,1.6-2.3,3c0,1.2,0.6,1.7,1.3,1.7C188.4,110.1,189,109.7,189.7,109z"/>
			</g>
			<g class="st0">
				<path d="M204.2,111.2c1.2-0.7,1.7-1.9,1.7-3.1c0-0.4-0.1-0.8-0.2-1.2h-1.6v-0.5l1.1,0h0.4c-0.2-0.8-0.5-1.6-0.5-2.5
					c0-1.7,1-2.7,2.7-2.7c1.1,0,1.8,0.5,2.3,1.2l-0.4,0.3c-0.4-0.6-1-0.9-1.9-0.9c-1.3,0-2,0.9-2,2.1c0,0.9,0.3,1.6,0.5,2.5h2.7v0.5
					h-2.5c0.1,0.4,0.1,0.8,0.1,1.2c0,1.3-0.4,2.1-1.2,2.9v0.1h4.7v0.6h-5.9V111.2z"/>
			</g>
			<g class="st0">
				<path d="M222.7,111.8c-1.1-0.1-2.1-0.6-2.7-1.3l0.4-0.4c0.6,0.6,1.5,1.1,2.6,1.1c1.4,0,2.1-0.9,2.1-2.1c0-2.7-4.6-2.5-4.6-5.4
					c0-1.4,1-2.4,2.3-2.5v-1.6h0.6v1.6c1,0.1,1.7,0.5,2.2,1.2l-0.4,0.4c-0.5-0.6-1.1-0.9-2.1-0.9c-1.1,0-1.9,0.8-1.9,1.9
					c0,2.4,4.6,2.3,4.6,5.4c0,1.6-1.1,2.6-2.5,2.8v1.6h-0.6V111.8z"/>
			</g>
			<g class="st0">
				<path d="M235.4,104.2c0-2.1,0.9-3.3,2.3-3.3s2.2,1.2,2.2,3.3c0,2.1-0.8,3.3-2.2,3.3S235.4,106.3,235.4,104.2z M239.3,104.2
					c0-1.8-0.6-2.8-1.6-2.8c-1,0-1.7,1-1.7,2.8c0,1.8,0.7,2.8,1.7,2.8C238.7,107,239.3,106,239.3,104.2z M243.9,100.9h0.6l-5.9,10.9
					h-0.6L243.9,100.9z M242.5,108.5c0-2.1,0.9-3.3,2.3-3.3s2.2,1.2,2.2,3.3c0,2.1-0.8,3.3-2.2,3.3S242.5,110.6,242.5,108.5z
					 M246.4,108.5c0-1.8-0.6-2.8-1.6-2.8s-1.7,1-1.7,2.8c0,1.8,0.7,2.8,1.7,2.8S246.4,110.3,246.4,108.5z"/>
			</g>
			<g class="st0">
				<path d="M259.3,100.9h0.7l2.4,6.1h-0.6l-1.3-3.3l-0.8-2.1h-0.1l-0.8,2.1l-1.2,3.3h-0.7L259.3,100.9z"/>
			</g>
			<g class="st0">
				<path d="M272.1,108.9c0-1.4,1.1-2.3,2.2-3.1c-0.4-0.9-0.7-1.8-0.7-2.6c0-1.4,0.9-2.3,2.1-2.3c1.1,0,1.7,0.8,1.7,1.9
					c0,1.4-1.2,2.3-2.4,3.2c0.7,1.4,1.9,2.7,2.9,3.7c0.8-1,1.3-2.1,1.7-3.5h0.6c-0.4,1.5-1,2.8-1.9,3.9c0.7,0.6,1.4,1,2,1.2
					l-0.2,0.6c-0.7-0.2-1.4-0.7-2.2-1.3c-0.8,0.8-1.7,1.3-2.9,1.3C273.5,111.8,272.1,110.7,272.1,108.9z M275.2,111.2
					c0.9,0,1.7-0.5,2.4-1.2c-1.1-1-2.3-2.4-3-3.7c-0.9,0.7-1.7,1.5-1.7,2.6C272.8,110.3,273.9,111.2,275.2,111.2z M274.8,105.5
					c1.1-0.8,2.1-1.6,2.1-2.7c0-0.7-0.3-1.4-1.2-1.4c-0.9,0-1.5,0.8-1.5,1.8C274.2,103.9,274.4,104.7,274.8,105.5z"/>
			</g>
			<g class="st0">
				<path d="M290.6,103.8l0.9-1.4l-1.4-0.6l0.1-0.4l1.5,0.4l0.1-1.6h0.5l0.1,1.6l1.5-0.4l0.1,0.4l-1.4,0.6l0.9,1.4l-0.4,0.3l-1-1.3
					l-1,1.3L290.6,103.8z"/>
			</g>
			<g class="st0">
				<path d="M304.7,107.2c0-2.8,0.8-5.1,2.1-7.2l0.4,0.2c-1.3,2-1.9,4.5-1.9,7c0,2.5,0.7,5,1.9,7l-0.4,0.2
					C305.5,112.3,304.7,110,304.7,107.2z"/>
			</g>
			<g class="st0">
				<path d="M316.4,114.2c1.3-2,1.9-4.5,1.9-7c0-2.5-0.7-5-1.9-7l0.4-0.2c1.3,2.1,2.1,4.4,2.1,7.2c0,2.8-0.8,5.1-2.1,7.2
					L316.4,114.2z"/>
			</g>
			<g class="st0">
				<path d="M1.8,52.5L2.2,52c0.8,0.9,1.9,1.4,3.1,1.4c1.6,0,2.7-0.9,2.7-2.2c0-1.3-0.9-1.8-1.9-2.2l-1.6-0.7
					c-0.9-0.4-2.1-1.1-2.1-2.6c0-1.5,1.3-2.6,3-2.6c1.3,0,2.3,0.6,2.9,1.2l-0.4,0.5c-0.6-0.7-1.5-1.1-2.5-1.1
					c-1.4,0-2.4,0.8-2.4,1.9c0,1.2,1.1,1.7,1.8,2l1.6,0.7c1.2,0.5,2.2,1.2,2.2,2.8c0,1.6-1.3,2.8-3.4,2.8
					C3.8,54.1,2.6,53.4,1.8,52.5z"/>
				<path d="M10.2,50.1c0-2.6,1.6-4,3.4-4c1.8,0,3.4,1.5,3.4,4c0,2.5-1.6,4-3.4,4C11.8,54.1,10.2,52.6,10.2,50.1z M16.3,50.1
					c0-2-1.2-3.5-2.8-3.5c-1.6,0-2.8,1.4-2.8,3.5s1.2,3.4,2.8,3.4C15.2,53.5,16.3,52.1,16.3,50.1z"/>
				<path d="M19.2,51.2v-4.9h0.7v4.9c0,1.6,0.5,2.4,1.8,2.4c0.9,0,1.6-0.5,2.5-1.6v-5.7h0.7v7.7h-0.6l-0.1-1.3h0
					c-0.8,0.9-1.6,1.5-2.6,1.5C20,54.1,19.2,53.1,19.2,51.2z"/>
			</g>
			<g class="st0">
				<path d="M27.8,46.2h0.6l0.1,1.4h0c0.5-0.9,1.3-1.6,2.2-1.6c0.3,0,0.5,0,0.8,0.2l-0.2,0.6c-0.2-0.1-0.4-0.1-0.7-0.1
					c-0.7,0-1.5,0.5-2.1,2v5.2h-0.7V46.2z"/>
			</g>
			<g class="st0">
				<path d="M32.1,50.1c0-2.6,1.6-4,3.5-4c1.1,0,1.7,0.4,2.3,1l-0.4,0.4c-0.5-0.5-1.1-0.8-1.9-0.8c-1.6,0-2.8,1.4-2.8,3.5
					s1.1,3.4,2.8,3.4c0.8,0,1.6-0.4,2.1-0.8l0.3,0.4c-0.6,0.6-1.5,1-2.4,1C33.6,54.1,32.1,52.6,32.1,50.1z"/>
			</g>
			<g class="st0">
				<path d="M39,50.1c0-2.5,1.6-4,3.3-4c1.8,0,2.9,1.3,2.9,3.6c0,0.2,0,0.4,0,0.6h-5.6c0,2,1.2,3.4,2.9,3.4c0.8,0,1.5-0.3,2.1-0.6
					l0.3,0.4c-0.6,0.4-1.3,0.8-2.4,0.8C40.6,54.1,39,52.6,39,50.1z M44.7,49.6c0-2-0.9-3-2.3-3c-1.3,0-2.5,1.1-2.7,3H44.7z"/>
				<path d="M49.8,52.5l0.4-0.5c0.8,0.9,1.9,1.4,3.1,1.4c1.6,0,2.7-0.9,2.7-2.2c0-1.3-0.9-1.8-1.9-2.2l-1.6-0.7
					c-0.9-0.4-2.1-1.1-2.1-2.6c0-1.5,1.3-2.6,3-2.6c1.3,0,2.3,0.6,2.9,1.2L56,44.9c-0.6-0.7-1.5-1.1-2.5-1.1c-1.4,0-2.4,0.8-2.4,1.9
					c0,1.2,1.1,1.7,1.8,2l1.6,0.7c1.2,0.5,2.2,1.2,2.2,2.8c0,1.6-1.3,2.8-3.4,2.8C51.8,54.1,50.7,53.4,49.8,52.5z"/>
				<path d="M58.3,52c0-1.7,1.6-2.5,5-2.9c0-1.2-0.3-2.5-1.8-2.5c-1.1,0-2,0.5-2.5,0.9L58.7,47c0.5-0.4,1.6-1,2.8-1
					c1.8,0,2.4,1.3,2.4,2.9v4.9h-0.6l-0.1-1h0c-0.8,0.6-1.7,1.2-2.7,1.2C59.4,54.1,58.3,53.5,58.3,52z M63.3,52.3v-2.7
					C60.1,50,59,50.7,59,52c0,1.1,0.8,1.6,1.7,1.6C61.6,53.5,62.3,53.1,63.3,52.3z"/>
				<path d="M66.7,46.2h0.6l0.1,1.2h0c0.8-0.8,1.6-1.4,2.6-1.4c1.6,0,2.3,1,2.3,2.9v4.9h-0.7v-4.8c0-1.6-0.5-2.4-1.8-2.4
					c-0.9,0-1.6,0.5-2.5,1.5v5.8h-0.7V46.2z"/>
				<path d="M74.3,53l0.4-0.4c0.6,0.5,1.3,0.9,2.5,0.9c1.2,0,1.9-0.7,1.9-1.5c0-1-1-1.4-1.9-1.7c-1.2-0.4-2.4-0.9-2.4-2.2
					c0-1.1,0.9-2,2.5-2c0.9,0,1.6,0.3,2.2,0.8L79,47.2c-0.5-0.4-1.1-0.6-1.8-0.6c-1.2,0-1.8,0.7-1.8,1.4c0,0.9,0.8,1.2,1.8,1.6
					c1.2,0.5,2.5,0.8,2.5,2.3c0,1.2-0.9,2.2-2.6,2.2C75.9,54.1,74.9,53.7,74.3,53z"/>
				<path d="M85,43.4h2.6c2.4,0,3.8,0.8,3.8,2.9c0,2-1.4,3.1-3.7,3.1h-2v4.6H85V43.4z M87.5,48.8c2.2,0,3.2-0.7,3.2-2.5
					c0-1.8-1.1-2.4-3.3-2.4h-1.7v4.8H87.5z"/>
			</g>
			<g class="st0">
				<path d="M93.8,46.2h0.6l0.1,1.4h0c0.5-0.9,1.3-1.6,2.2-1.6c0.3,0,0.5,0,0.8,0.2l-0.2,0.6c-0.2-0.1-0.4-0.1-0.7-0.1
					c-0.7,0-1.5,0.5-2.1,2v5.2h-0.7V46.2z"/>
			</g>
			<g class="st0">
				<path d="M98,50.1c0-2.6,1.6-4,3.4-4c1.8,0,3.4,1.5,3.4,4c0,2.5-1.6,4-3.4,4C99.6,54.1,98,52.6,98,50.1z M104.2,50.1
					c0-2-1.2-3.5-2.8-3.5c-1.6,0-2.8,1.4-2.8,3.5s1.2,3.4,2.8,3.4C103,53.5,104.2,52.1,104.2,50.1z"/>
			</g>
			<g class="st0">
				<path d="M2.6,62.6h0.7v10h4.9v0.6H2.6V62.6z"/>
				<path d="M9.7,62.9c0-0.4,0.3-0.6,0.6-0.6s0.6,0.3,0.6,0.6c0,0.4-0.3,0.6-0.6,0.6S9.7,63.3,9.7,62.9z M9.9,65.4h0.7v7.7H9.9V65.4
					z"/>
				<path d="M12.9,74.7c0-0.7,0.4-1.4,1.2-1.9v-0.1c-0.4-0.2-0.7-0.6-0.7-1.2c0-0.7,0.5-1.2,0.8-1.4v-0.1c-0.5-0.4-1-1.2-1-2.1
					c0-1.6,1.2-2.7,2.7-2.7c0.4,0,0.8,0.1,1,0.2h2.6V66h-1.8c0.5,0.4,0.9,1.1,0.9,2c0,1.6-1.2,2.7-2.7,2.7c-0.4,0-0.9-0.1-1.3-0.3
					c-0.3,0.3-0.6,0.6-0.6,1.1c0,0.6,0.3,1,1.5,1h1.6c1.7,0,2.5,0.6,2.5,1.8c0,1.3-1.4,2.6-3.6,2.6C14.1,76.8,12.9,76,12.9,74.7z
					 M19,74.3c0-0.8-0.6-1.2-1.8-1.2h-1.7c-0.1,0-0.5,0-0.9-0.1c-0.7,0.5-1,1.1-1,1.6c0,1,0.9,1.6,2.6,1.6
					C17.9,76.3,19,75.3,19,74.3z M17.9,67.9c0-1.3-0.9-2.1-2-2.1s-2,0.8-2,2.1c0,1.3,0.9,2.2,2,2.2C17,70.1,17.9,69.3,17.9,67.9z"/>
				<path d="M21.3,61.6H22v3.4l0,1.7c0.8-0.8,1.6-1.4,2.7-1.4c1.6,0,2.3,1,2.3,2.9v4.9h-0.7v-4.8c0-1.6-0.5-2.4-1.8-2.4
					c-0.9,0-1.6,0.5-2.5,1.5v5.8h-0.7V61.6z"/>
				<path d="M29.9,71v-5h-1.2v-0.5l1.2-0.1l0.1-2.5h0.6v2.5h2.2V66h-2.2v5c0,1,0.2,1.7,1.3,1.7c0.3,0,0.6-0.1,1-0.2l0.2,0.5
					c-0.4,0.2-0.9,0.4-1.3,0.4C30.3,73.3,29.9,72.4,29.9,71z"/>
			</g>
		</g>
	</g>
</g>
</svg>
