<?xml version="1.0" encoding="utf-8"?>
<!-- Generator: Adobe Illustrator 26.4.1, SVG Export Plug-In . SVG Version: 6.00 Build 0)  -->
<svg version="1.1" id="Layer_1" xmlns="http://www.w3.org/2000/svg" xmlns:xlink="http://www.w3.org/1999/xlink" x="0px" y="0px"
	 viewBox="0 0 327.5 116.9" style="enable-background:new 0 0 327.5 116.9;" xml:space="preserve">
<style type="text/css">
	.st0{enable-background:new    ;}
</style>
<g id="a">
</g>
<g id="b">
	<g id="c">
		<g>
			<g class="st0">
				<path d="M5.6,5h5.2l5.7,18.2h-4.6L10.9,19H5.5l-1.1,4.2h-4.5L5.6,5z M6.3,15.7H10l-0.4-1.6c-0.5-1.8-1-3.9-1.4-5.9H8.1
					c-0.4,1.9-0.9,4.1-1.4,5.9L6.3,15.7z"/>
			</g>
			<g class="st0">
				<path d="M16.8,19.3c0-2.9,2.3-4.5,7.8-5.1c-0.1-1.1-0.7-1.8-2.1-1.8c-1.1,0-2.2,0.4-3.6,1.2l-1.5-2.8c1.8-1.1,3.8-1.8,6-1.8
					c3.6,0,5.6,2,5.6,6.4v7.9h-3.5L25,21.8h-0.1c-1.1,1-2.4,1.7-4,1.7C18.4,23.6,16.8,21.7,16.8,19.3z M24.5,19.1v-2.2
					c-2.8,0.4-3.6,1.1-3.6,2.1c0,0.8,0.5,1.2,1.5,1.2C23.3,20.2,23.9,19.8,24.5,19.1z"/>
			</g>
			<g class="st0">
				<path d="M31.6,5H38c3.8,0,6.8,1,6.8,4.5c0,1.6-0.9,3.4-2.4,3.9v0.1c1.8,0.5,3.3,1.8,3.3,4.3c0,3.7-3.2,5.4-7.1,5.4h-6.9V5z
					 M37.8,12.3c1.9,0,2.7-0.8,2.7-2.1c0-1.3-0.9-1.8-2.7-1.8H36v3.9H37.8z M38.2,19.9c2.1,0,3.2-0.8,3.2-2.3s-1.1-2.1-3.2-2.1H36
					v4.5H38.2z"/>
			</g>
			<g class="st0">
				<path d="M51.4,21.8h-0.1L51,23.2h-3.4V3.7h4.3v4.7l-0.1,2.1c1-0.9,2.3-1.5,3.6-1.5c3.4,0,5.5,2.8,5.5,7.1c0,4.8-2.8,7.5-5.8,7.5
					C53.8,23.6,52.5,23,51.4,21.8z M56.4,16.1c0-2.4-0.7-3.6-2.3-3.6c-0.8,0-1.5,0.4-2.2,1.2v5.5c0.7,0.6,1.4,0.8,2.1,0.8
					C55.4,20,56.4,18.9,56.4,16.1z"/>
			</g>
			<g class="st0">
				<path d="M62.4,14.3c0-6.1,4.1-9.6,8.7-9.6c2.4,0,4.3,1.1,5.5,2.4l-2.3,2.6c-0.9-0.8-1.8-1.3-3.1-1.3c-2.4,0-4.3,2.1-4.3,5.7
					c0,3.6,1.7,5.7,4.3,5.7c1.5,0,2.6-0.6,3.5-1.5l2.3,2.6c-1.6,1.8-3.6,2.7-5.9,2.7C66.3,23.6,62.4,20.4,62.4,14.3z"/>
			</g>
			<g class="st0">
				<path d="M77.4,16.3c0-4.6,3.4-7.3,7.3-7.3c1.7,0,3,0.6,4.1,1.5l-2,2.7c-0.6-0.5-1.2-0.7-1.8-0.7c-1.9,0-3.1,1.5-3.1,3.8
					c0,2.3,1.3,3.8,3,3.8c0.9,0,1.7-0.3,2.4-0.9l1.7,2.7c-1.3,1.2-3.1,1.7-4.6,1.7C80.4,23.6,77.4,20.9,77.4,16.3z"/>
			</g>
			<g class="st0">
				<path d="M90.5,5h5.2c5.6,0,9.2,2.7,9.2,9c0,6.3-3.7,9.2-9,9.2h-5.5V5z M95.5,19.7c2.9,0,5-1.4,5-5.7c0-4.3-2.1-5.5-5-5.5h-0.6
					v11.2H95.5z"/>
			</g>
			<g class="st0">
				<path d="M106.4,16.3c0-4.5,2.9-7.3,5.7-7.3c1.5,0,2.5,0.6,3.4,1.4l-0.1-2.1V3.7h4.3v19.6h-3.6l-0.3-1.3h-0.1
					c-1,1-2.4,1.7-3.7,1.7C108.7,23.6,106.4,20.8,106.4,16.3z M115.4,18.9v-5.5c-0.7-0.6-1.5-0.8-2.2-0.8c-1.2,0-2.3,1.1-2.3,3.7
					c0,2.7,0.9,3.8,2.4,3.8C114.1,20,114.8,19.7,115.4,18.9z"/>
			</g>
			<g class="st0">
				<path d="M141.6,5.4h3l3.2,10.4h-2.6l-0.6-2.4h-3.1l-0.6,2.4h-2.5L141.6,5.4z M142,11.5h2.1l-0.2-0.9c-0.3-1-0.5-2.3-0.8-3.3H143
					c-0.3,1.1-0.5,2.3-0.8,3.3L142,11.5z"/>
			</g>
			<g class="st0">
				<path d="M155.6,5.4h3.6c2.2,0,3.9,0.6,3.9,2.6c0,0.9-0.5,1.9-1.4,2.2v0.1c1.1,0.3,1.9,1.1,1.9,2.4c0,2.1-1.8,3.1-4.1,3.1h-3.9
					V5.4z M159.2,9.6c1.1,0,1.5-0.5,1.5-1.2c0-0.8-0.5-1.1-1.5-1.1h-1.1v2.2H159.2z M159.4,13.9c1.2,0,1.8-0.4,1.8-1.3
					c0-0.9-0.6-1.2-1.8-1.2h-1.2v2.5H159.4z"/>
			</g>
			<g class="st0">
				<path d="M171.6,10.7c0-3.5,2.3-5.5,5-5.5c1.4,0,2.4,0.6,3.2,1.4l-1.3,1.5c-0.5-0.5-1.1-0.7-1.8-0.7c-1.4,0-2.5,1.2-2.5,3.2
					c0,2.1,1,3.3,2.4,3.3c0.8,0,1.5-0.3,2-0.9l1.3,1.5c-0.9,1-2.1,1.5-3.4,1.5C173.8,16,171.6,14.2,171.6,10.7z"/>
			</g>
			<g class="st0">
				<path d="M188.2,5.4h3c3.2,0,5.3,1.6,5.3,5.2c0,3.6-2.1,5.2-5.1,5.2h-3.1V5.4z M191,13.8c1.7,0,2.9-0.8,2.9-3.2
					c0-2.5-1.2-3.2-2.9-3.2h-0.4v6.4H191z"/>
			</g>
			<g class="st0">
				<path d="M205.1,5.4h6.6v2.1h-4.1v2h3.5v2.1h-3.5v2.2h4.3v2.1h-6.8V5.4z"/>
			</g>
			<g class="st0">
				<path d="M220.6,5.4h6.7v2.1h-4.2v2.3h3.6v2.1h-3.6v4h-2.5V5.4z"/>
			</g>
			<g class="st0">
				<path d="M235.3,10.7c0-3.5,2.3-5.5,5.1-5.5c1.5,0,2.6,0.6,3.3,1.4l-1.3,1.5c-0.5-0.5-1.1-0.7-1.9-0.7c-1.5,0-2.7,1.2-2.7,3.2
					c0,2.1,0.9,3.3,2.9,3.3c0.4,0,0.8-0.1,1-0.3v-1.7h-1.7v-2h3.9v4.9c-0.7,0.7-2,1.3-3.5,1.3C237.6,16,235.3,14.2,235.3,10.7z"/>
			</g>
			<g class="st0">
				<path d="M252.8,5.4h2.5v4h3.4v-4h2.5v10.4h-2.5v-4.3h-3.4v4.3h-2.5V5.4z"/>
			</g>
			<g class="st0">
				<path d="M270.3,5.4h2.5v10.4h-2.5V5.4z"/>
			</g>
			<g class="st0">
				<path d="M281,14.1l1.6-1.1c0.3,0.6,0.8,0.9,1.4,0.9c0.9,0,1.3-0.4,1.3-1.9V5.4h2.5v6.8c0,2.1-1.1,3.8-3.6,3.8
					C282.7,16,281.7,15.4,281,14.1z"/>
			</g>
			<g class="st0">
				<path d="M296.8,5.4h2.5v4.1h0l3-4.1h2.7l-3.1,4.2l3.7,6.2h-2.7l-2.5-4.3l-1.1,1.5v2.7h-2.5V5.4z"/>
			</g>
			<g class="st0">
				<path d="M313.4,5.4h2.5v8.3h4v2.1h-6.5V5.4z"/>
			</g>
			<g class="st0">
				<path d="M139.7,24.6h2.7l1.6,4.5c0.2,0.6,0.4,1.2,0.6,1.9h0.1c0.2-0.7,0.4-1.3,0.6-1.9l1.6-4.5h2.7V35h-2.3v-3.6
					c0-1,0.2-2.8,0.3-3.8h-0.1l-0.9,2.7l-1.4,3.8h-1.4l-1.4-3.8l-0.8-2.7h-0.1c0.1,1,0.3,2.8,0.3,3.8V35h-2.2V24.6z"/>
			</g>
			<g class="st0">
				<path d="M158.6,24.6h2.6l2.6,5c0.4,0.7,0.7,1.5,1,2.4h0.1c-0.1-1.1-0.3-2.6-0.3-3.8v-3.5h2.4V35h-2.6l-2.6-5
					c-0.4-0.7-0.7-1.5-1-2.4h-0.1c0.1,1.2,0.3,2.6,0.3,3.8V35h-2.4V24.6z"/>
			</g>
			<g class="st0">
				<path d="M175.6,29.8c0-3.4,1.9-5.4,4.8-5.4c2.8,0,4.8,2,4.8,5.4s-1.9,5.4-4.8,5.4C177.5,35.2,175.6,33.2,175.6,29.8z
					 M182.6,29.8c0-2-0.8-3.2-2.2-3.2c-1.4,0-2.2,1.2-2.2,3.2c0,2,0.9,3.3,2.2,3.3C181.7,33.1,182.6,31.8,182.6,29.8z"/>
			</g>
			<g class="st0">
				<path d="M193.7,24.6h3.7c2.3,0,4.2,0.8,4.2,3.4c0,2.5-1.9,3.6-4.1,3.6h-1.2V35h-2.5V24.6z M197.3,29.6c1.2,0,1.8-0.6,1.8-1.6
					c0-1-0.7-1.4-1.9-1.4h-1v3H197.3z"/>
			</g>
			<g class="st0">
				<path d="M213.2,35.1c-2.2-0.5-3.6-2.4-3.6-5.3c0-3.4,1.9-5.4,4.8-5.4s4.8,2,4.8,5.4c0,2.8-1.3,4.6-3.3,5.2c0.5,0.7,1.4,1,2.3,1
					c0.4,0,0.8-0.1,1.2-0.2l0.4,1.8c-0.4,0.2-1.1,0.4-1.9,0.4C215.5,38,214,36.8,213.2,35.1z M216.6,29.8c0-2-0.8-3.2-2.2-3.2
					c-1.4,0-2.2,1.2-2.2,3.2c0,2.2,0.9,3.4,2.2,3.4C215.7,33.2,216.6,31.9,216.6,29.8z"/>
			</g>
			<g class="st0">
				<path d="M227.7,24.6h3.8c2.2,0,4.1,0.8,4.1,3.3c0,1.5-0.7,2.5-1.8,3l2.3,4.1h-2.8l-1.9-3.7h-1.2V35h-2.5V24.6z M231.4,29.4
					c1.2,0,1.8-0.5,1.8-1.5s-0.6-1.3-1.8-1.3h-1.1v2.8H231.4z"/>
			</g>
			<g class="st0">
				<path d="M243.7,33.7l1.3-1.6c0.7,0.6,1.7,1,2.6,1c0.9,0,1.4-0.4,1.4-0.9c0-0.6-0.6-0.8-1.5-1.2l-1.3-0.6
					c-1.1-0.4-2.1-1.3-2.1-2.8c0-1.7,1.6-3.2,3.8-3.2c1.2,0,2.5,0.5,3.4,1.3l-1.3,1.6c-0.7-0.5-1.4-0.8-2.1-0.8
					c-0.8,0-1.3,0.3-1.3,0.8c0,0.6,0.7,0.8,1.6,1.2l1.3,0.5c1.3,0.5,2.1,1.4,2.1,2.8c0,1.7-1.5,3.3-4,3.3
					C246.1,35.2,244.7,34.7,243.7,33.7z"/>
			</g>
			<g class="st0">
				<path d="M262,26.7h-2.8v-2.1h8.1v2.1h-2.8V35H262V26.7z"/>
			</g>
			<g class="st0">
				<path d="M275.6,30.1v-5.5h2.5v5.8c0,2,0.6,2.7,1.7,2.7c1.2,0,1.8-0.7,1.8-2.7v-5.8h2.4v5.5c0,3.5-1.4,5.1-4.2,5.1
					C277,35.2,275.6,33.7,275.6,30.1z"/>
			</g>
			<g class="st0">
				<path d="M291.7,24.6h2.6l1.1,4.8c0.3,1.1,0.5,2.2,0.8,3.3h0.1c0.3-1.1,0.5-2.2,0.8-3.3l1.2-4.8h2.5L297.7,35h-3L291.7,24.6z"/>
			</g>
			<g class="st0">
				<path d="M307.7,24.6h2.5l0.7,4.8c0.1,1.1,0.3,2.2,0.4,3.3h0.1c0.2-1.1,0.4-2.2,0.6-3.3l1.1-4.8h2.1l1.1,4.8
					c0.2,1.1,0.4,2.2,0.6,3.3h0.1c0.1-1.2,0.3-2.3,0.4-3.3l0.7-4.8h2.4L318.5,35h-3.2l-0.9-4.6c-0.2-0.8-0.3-1.6-0.4-2.5H314
					c-0.1,0.8-0.2,1.6-0.4,2.5l-0.9,4.6h-3.1L307.7,24.6z"/>
			</g>
			<g class="st0">
				<path d="M141.5,48.9l-2.7-5.1h2.8l0.8,1.9c0.2,0.5,0.5,1,0.8,1.7h0.1c0.2-0.7,0.5-1.2,0.7-1.7l0.8-1.9h2.6l-2.7,5.2l2.9,5.2
					h-2.8l-1-2c-0.3-0.5-0.5-1.1-0.8-1.7h-0.1c-0.2,0.6-0.5,1.2-0.7,1.7l-0.9,2h-2.7L141.5,48.9z"/>
			</g>
			<g class="st0">
				<path d="M157.4,50.5l-3.1-6.7h2.7l0.9,2.3c0.3,0.8,0.5,1.5,0.8,2.3h0.1c0.3-0.8,0.6-1.5,0.9-2.3l0.9-2.3h2.6l-3.1,6.7v3.7h-2.5
					V50.5z"/>
			</g>
			<g class="st0">
				<path d="M170.1,52.7l4.5-6.8h-4.1v-2.1h7.1v1.5l-4.5,6.9h4.5v2.1h-7.6V52.7z"/>
			</g>
			<g class="st0">
				<path d="M185.6,52c0-1.7,1.3-2.6,4.4-2.9c-0.1-0.7-0.4-1-1.2-1c-0.6,0-1.3,0.2-2.1,0.7l-0.9-1.6c1-0.6,2.2-1,3.4-1
					c2,0,3.2,1.1,3.2,3.6v4.5h-2l-0.2-0.8h-0.1c-0.7,0.6-1.4,1-2.3,1C186.5,54.4,185.6,53.3,185.6,52z M190,51.9v-1.3
					c-1.6,0.2-2.1,0.6-2.1,1.2c0,0.5,0.3,0.7,0.8,0.7C189.3,52.5,189.7,52.3,190,51.9z"/>
			</g>
			<g class="st0">
				<path d="M203.4,53.4L203.4,53.4l-0.3,0.8h-1.9V43h2.5v2.7l0,1.2c0.6-0.5,1.3-0.8,2-0.8c1.9,0,3.1,1.6,3.1,4
					c0,2.7-1.6,4.3-3.3,4.3C204.7,54.4,204,54.1,203.4,53.4z M206.2,50.1c0-1.4-0.4-2-1.3-2c-0.5,0-0.8,0.2-1.3,0.7v3.2
					c0.4,0.4,0.8,0.5,1.2,0.5C205.6,52.4,206.2,51.8,206.2,50.1z"/>
			</g>
			<g class="st0">
				<path d="M216.7,50.2c0-2.6,2-4.2,4.2-4.2c1,0,1.7,0.3,2.3,0.8l-1.2,1.5c-0.4-0.3-0.7-0.4-1-0.4c-1.1,0-1.8,0.9-1.8,2.2
					c0,1.3,0.7,2.2,1.7,2.2c0.5,0,1-0.2,1.4-0.5l1,1.6c-0.8,0.7-1.8,0.9-2.6,0.9C218.4,54.4,216.7,52.9,216.7,50.2z"/>
			</g>
			<g class="st0">
				<path d="M231,50.2c0-2.6,1.6-4.2,3.3-4.2c0.9,0,1.4,0.3,1.9,0.8l-0.1-1.2V43h2.5v11.2h-2l-0.2-0.8h0c-0.6,0.6-1.3,1-2.1,1
					C232.3,54.4,231,52.8,231,50.2z M236.1,51.7v-3.2c-0.4-0.3-0.8-0.5-1.2-0.5c-0.7,0-1.3,0.6-1.3,2.1c0,1.5,0.5,2.2,1.4,2.2
					C235.4,52.4,235.7,52.2,236.1,51.7z"/>
			</g>
			<g class="st0">
				<path d="M246.9,50.2c0-2.6,1.9-4.2,3.8-4.2c2.3,0,3.4,1.7,3.4,3.8c0,0.4,0,0.9-0.1,1.1h-4.7c0.2,1.1,1,1.5,2,1.5
					c0.6,0,1.2-0.2,1.7-0.5l0.8,1.5c-0.8,0.6-1.9,0.9-2.9,0.9C248.6,54.4,246.9,52.9,246.9,50.2z M251.9,49.3c0-0.8-0.4-1.4-1.2-1.4
					c-0.7,0-1.3,0.4-1.5,1.4H251.9z"/>
			</g>
			<g class="st0">
				<path d="M262.8,48.2h-1.1v-1.9l1.1-0.1V46c0-1.7,0.8-3.1,3-3.1c0.7,0,1.3,0.1,1.6,0.3l-0.5,1.8c-0.3-0.1-0.5-0.1-0.8-0.1
					c-0.5,0-0.9,0.3-0.9,1.1v0.4h1.4v1.9h-1.4v6h-2.5V48.2z"/>
			</g>
			<g class="st0">
				<path d="M274.1,55.6c0-0.7,0.4-1.2,1.1-1.6v-0.1c-0.4-0.3-0.7-0.7-0.7-1.4c0-0.6,0.4-1.1,0.9-1.5V51c-0.6-0.4-1.1-1.1-1.1-2
					c0-1.9,1.6-2.9,3.3-2.9c0.4,0,0.9,0.1,1.2,0.2h2.9v1.8h-1.2c0.1,0.2,0.2,0.6,0.2,1c0,1.9-1.4,2.7-3.2,2.7c-0.3,0-0.6,0-0.9-0.1
					c-0.2,0.2-0.3,0.3-0.3,0.5c0,0.4,0.3,0.6,1.2,0.6h1.3c2,0,3.1,0.6,3.1,2c0,1.7-1.7,2.9-4.5,2.9C275.6,57.6,274.1,57,274.1,55.6z
					 M279.6,55.1c0-0.5-0.4-0.6-1.2-0.6h-0.8c-0.6,0-0.9,0-1.1-0.1c-0.3,0.2-0.4,0.4-0.4,0.7c0,0.6,0.7,0.9,1.7,0.9
					C278.9,56,279.6,55.7,279.6,55.1z M278.7,49c0-0.8-0.4-1.2-1-1.2c-0.6,0-1,0.4-1,1.2c0,0.8,0.4,1.3,1,1.3
					C278.3,50.2,278.7,49.8,278.7,49z"/>
			</g>
			<g class="st0">
				<path d="M289.9,43h2.5v2.7l-0.1,1.4c0.6-0.5,1.4-1.1,2.4-1.1c1.7,0,2.5,1.2,2.5,3.2v4.9h-2.5v-4.6c0-1.1-0.3-1.4-0.9-1.4
					c-0.6,0-0.9,0.3-1.4,0.7v5.3h-2.5V43z"/>
			</g>
			<g class="st0">
				<path d="M305.7,43.9c0-0.8,0.6-1.3,1.4-1.3s1.4,0.5,1.4,1.3c0,0.8-0.6,1.3-1.4,1.3S305.7,44.7,305.7,43.9z M305.9,46.3h2.5v8
					h-2.5V46.3z"/>
			</g>
			<g class="st0">
				<path d="M315.2,57.1l0.4-1.8c0.2,0.1,0.4,0.1,0.6,0.1c0.6,0,0.8-0.4,0.8-1.2v-7.9h2.5v7.8c0,1.8-0.7,3.3-2.9,3.3
					C315.9,57.3,315.5,57.2,315.2,57.1z M316.9,43.9c0-0.8,0.6-1.3,1.4-1.3s1.4,0.5,1.4,1.3c0,0.8-0.6,1.3-1.4,1.3
					S316.9,44.7,316.9,43.9z"/>
			</g>
			<g class="st0">
				<path d="M139.5,62.2h2.4v6.2h0l2.4-3h2.7l-2.8,3.3l3,4.6h-2.7l-1.7-3l-0.9,1.1v2h-2.4V62.2z"/>
			</g>
			<g class="st0">
				<path d="M155.7,70.9v-8.6h2.5v8.7c0,0.5,0.3,0.7,0.4,0.7c0.1,0,0.2,0,0.3,0l0.3,1.8c-0.3,0.1-0.7,0.2-1.2,0.2
					C156.2,73.6,155.7,72.5,155.7,70.9z"/>
			</g>
			<g class="st0">
				<path d="M167.7,65.5h2l0.2,1h0.1c0.6-0.6,1.3-1.2,2.4-1.2c1.1,0,1.8,0.5,2.2,1.3c0.7-0.7,1.4-1.3,2.5-1.3c1.7,0,2.5,1.2,2.5,3.2
					v4.9H177v-4.6c0-1.1-0.3-1.4-0.9-1.4c-0.4,0-0.8,0.2-1.3,0.7v5.3h-2.5v-4.6c0-1.1-0.3-1.4-0.9-1.4c-0.4,0-0.8,0.2-1.3,0.7v5.3
					h-2.5V65.5z"/>
			</g>
			<g class="st0">
				<path d="M188.8,65.5h2l0.2,1h0.1c0.7-0.6,1.5-1.2,2.5-1.2c1.7,0,2.5,1.2,2.5,3.2v4.9h-2.5v-4.6c0-1.1-0.3-1.4-0.9-1.4
					c-0.6,0-0.9,0.3-1.4,0.7v5.3h-2.5V65.5z"/>
			</g>
			<g class="st0">
				<path d="M204.9,69.4c0-2.6,1.9-4.2,3.9-4.2c2,0,3.9,1.5,3.9,4.2c0,2.6-1.9,4.2-3.9,4.2C206.8,73.6,204.9,72.1,204.9,69.4z
					 M210.2,69.4c0-1.3-0.4-2.2-1.4-2.2c-0.9,0-1.4,0.9-1.4,2.2c0,1.3,0.4,2.2,1.4,2.2C209.7,71.6,210.2,70.8,210.2,69.4z"/>
			</g>
			<g class="st0">
				<path d="M221.6,65.5h2l0.2,0.8h0.1c0.6-0.6,1.4-1,2.2-1c1.9,0,3.1,1.6,3.1,4c0,2.7-1.6,4.3-3.3,4.3c-0.7,0-1.3-0.3-1.9-0.8
					l0.1,1.2v2.3h-2.5V65.5z M226.7,69.3c0-1.4-0.4-2-1.3-2c-0.5,0-0.8,0.2-1.3,0.7v3.2c0.4,0.4,0.8,0.5,1.2,0.5
					C226.1,71.6,226.7,71,226.7,69.3z"/>
			</g>
			<g class="st0">
				<path d="M243,74l0.1-1.2c-0.5,0.5-1.2,0.8-2,0.8c-2,0-3.2-1.6-3.2-4.2c0-2.6,1.6-4.2,3.3-4.2c0.9,0,1.5,0.3,2.1,1h0.1l0.2-0.8
					h1.9v10.9H243V74z M243,70.9v-3.2c-0.4-0.3-0.8-0.5-1.2-0.5c-0.7,0-1.3,0.6-1.3,2.1c0,1.5,0.5,2.2,1.4,2.2
					C242.2,71.6,242.6,71.4,243,70.9z"/>
			</g>
			<g class="st0">
				<path d="M254.8,65.5h2l0.2,1.4h0.1c0.6-1.1,1.5-1.6,2.3-1.6c0.5,0,0.7,0,1,0.2l-0.5,2.1c-0.3-0.1-0.5-0.1-0.8-0.1
					c-0.6,0-1.3,0.4-1.7,1.4v4.5h-2.5V65.5z"/>
			</g>
			<g class="st0">
				<path d="M267.9,72.4l1-1.4c0.7,0.6,1.5,0.8,2.1,0.8c0.7,0,0.9-0.2,0.9-0.6c0-0.5-0.7-0.7-1.5-1c-1.1-0.4-2.1-1.1-2.1-2.4
					c0-1.5,1.2-2.5,3.1-2.5c1.2,0,2.2,0.4,2.8,1l-1.1,1.4c-0.6-0.4-1.2-0.6-1.7-0.6c-0.6,0-0.8,0.2-0.8,0.6c0,0.4,0.4,0.6,1.5,0.9
					c1.2,0.4,2.2,1.1,2.2,2.4c0,1.5-1.2,2.6-3.3,2.6C269.9,73.6,268.7,73.2,267.9,72.4z"/>
			</g>
			<g class="st0">
				<path d="M283.4,70.5v-3.1h-1.1v-1.9l1.2-0.1l0.3-2.4h2v2.4h1.9v1.9h-1.9v3c0,0.9,0.4,1.2,1,1.2c0.3,0,0.5,0,0.7-0.1l0.4,1.7
					c-0.4,0.2-1,0.3-1.8,0.3C284.2,73.6,283.4,72.4,283.4,70.5z"/>
			</g>
			<g class="st0">
				<path d="M296.6,70.4v-4.9h2.5v4.6c0,1.1,0.3,1.4,0.9,1.4c0.6,0,0.9-0.2,1.3-0.8v-5.2h2.5v8h-2l-0.2-1.1h-0.1
					c-0.7,0.8-1.4,1.3-2.5,1.3C297.3,73.6,296.6,72.4,296.6,70.4z"/>
			</g>
			<g class="st0">
				<path d="M312.3,65.5h2.5l1,3.7c0.2,0.8,0.4,1.6,0.6,2.4h0.1c0.2-0.8,0.4-1.7,0.6-2.4l1-3.7h2.4l-2.6,8H315L312.3,65.5z"/>
			</g>
			<g class="st0">
				<path d="M138.9,84.7h2.4l0.7,3.6c0.1,0.8,0.2,1.5,0.3,2.4h0.1c0.1-0.9,0.3-1.6,0.4-2.4l0.8-3.6h2.2l0.8,3.6
					c0.2,0.8,0.3,1.5,0.5,2.4h0.1c0.1-0.9,0.2-1.6,0.4-2.4l0.7-3.6h2.3l-1.9,8h-2.9l-0.6-3.1c-0.1-0.7-0.3-1.4-0.4-2.4h-0.1
					c-0.1,0.9-0.2,1.6-0.4,2.4l-0.6,3.1h-2.9L138.9,84.7z"/>
			</g>
			<g class="st0">
				<path d="M160.7,88.5l-2.3-3.8h2.7l0.7,1.2c0.2,0.4,0.4,0.9,0.7,1.4h0.1c0.2-0.4,0.4-0.9,0.5-1.4l0.5-1.2h2.6l-2.3,4.1l2.4,3.9
					h-2.7l-0.7-1.2c-0.2-0.4-0.5-0.9-0.7-1.4H162c-0.2,0.4-0.4,0.9-0.6,1.4l-0.6,1.2h-2.6L160.7,88.5z"/>
			</g>
			<g class="st0">
				<path d="M174.2,95.5l0.4-1.8c0.3,0.1,0.4,0.1,0.5,0.1c0.8,0,1.2-0.4,1.3-1l0.1-0.4l-3.1-7.7h2.5l1.1,3.3
					c0.2,0.7,0.4,1.5,0.6,2.3h0.1c0.2-0.8,0.3-1.5,0.5-2.3l0.9-3.3h2.4l-2.7,8c-0.8,2-1.6,3.1-3.5,3.1
					C174.8,95.7,174.5,95.6,174.2,95.5z"/>
			</g>
			<g class="st0">
				<path d="M189.4,91.3l3.2-4.7h-2.9v-1.9h6V86l-3.2,4.7h3.3v1.9h-6.4V91.3z"/>
			</g>
			<g class="st0">
				<path d="M204.3,90.6h2.2v-5.7h-1.9v-1.5c1.1-0.2,1.8-0.5,2.6-0.9h1.8v8.2h1.9v2h-6.6V90.6z"/>
			</g>
			<g class="st0">
				<path d="M219.4,91.1c2.5-2.2,4.4-4,4.4-5.4c0-1-0.5-1.5-1.4-1.5c-0.7,0-1.3,0.5-1.8,1l-1.3-1.3c1-1.1,1.9-1.7,3.4-1.7
					c2,0,3.4,1.3,3.4,3.2c0,1.8-1.7,3.5-3.4,5.1c0.5,0,1.2-0.1,1.7-0.1h2.2v2.1h-7.2V91.1z"/>
			</g>
			<g class="st0">
				<path d="M234.6,91.4l1.1-1.6c0.6,0.6,1.4,1,2.2,1c1,0,1.6-0.4,1.6-1.1c0-0.8-0.5-1.4-2.7-1.4v-1.7c1.8,0,2.3-0.5,2.3-1.3
					c0-0.7-0.4-1.1-1.2-1.1c-0.7,0-1.2,0.3-1.9,0.9l-1.2-1.5c0.9-0.8,2-1.3,3.2-1.3c2.2,0,3.6,1,3.6,2.8c0,1-0.6,1.8-1.7,2.2v0.1
					c1.2,0.3,2,1.2,2,2.5c0,1.9-1.8,3-3.8,3C236.6,92.8,235.4,92.2,234.6,91.4z"/>
			</g>
			<g class="st0">
				<path d="M254.5,90.3h-4.4v-1.7l3.6-6.1h3.1v5.9h1.2v1.9h-1.2v2.4h-2.3V90.3z M254.5,88.4v-1.5c0-0.7,0-1.6,0.1-2.3h-0.1
					c-0.3,0.6-0.5,1.2-0.8,1.8l-1.2,2.1H254.5z"/>
			</g>
			<g class="st0">
				<path d="M265.8,91.4l1.1-1.6c0.6,0.6,1.3,1,2.1,1c1,0,1.6-0.5,1.6-1.5c0-1-0.6-1.5-1.5-1.5c-0.6,0-0.9,0.1-1.5,0.5l-1.1-0.7
					l0.3-5.2h5.8v2.1H269l-0.1,1.8c0.4-0.2,0.7-0.2,1.1-0.2c1.8,0,3.2,1,3.2,3.1c0,2.3-1.8,3.6-3.8,3.6
					C267.7,92.8,266.6,92.2,265.8,91.4z"/>
			</g>
			<g class="st0">
				<path d="M281.6,87.8c0-3.8,2-5.5,4.1-5.5c1.4,0,2.4,0.6,3,1.2l-1.3,1.5c-0.3-0.4-1-0.7-1.6-0.7c-1.1,0-1.9,0.8-2,3
					c0.5-0.7,1.4-1.1,2-1.1c1.7,0,3,1,3,3.1c0,2.1-1.6,3.4-3.4,3.4C283.5,92.8,281.6,91.4,281.6,87.8z M283.9,89
					c0.2,1.6,0.8,2,1.5,2c0.7,0,1.2-0.4,1.2-1.6c0-1-0.6-1.4-1.3-1.4C284.9,88,284.3,88.3,283.9,89z"/>
			</g>
			<g class="st0">
				<path d="M301.7,84.5h-4.5v-2.1h7.1V84c-2.4,2.8-2.8,4.7-3,8.6h-2.5C299,89.3,299.7,87.2,301.7,84.5z"/>
			</g>
			<g class="st0">
				<path d="M312.7,90c0-1.2,0.8-2,1.7-2.5v-0.1c-0.8-0.6-1.4-1.3-1.4-2.4c0-1.7,1.4-2.8,3.3-2.8c1.9,0,3.1,1.1,3.1,2.8
					c0,1-0.6,1.7-1.3,2.2v0.1c1,0.5,1.8,1.3,1.8,2.7c0,1.6-1.5,2.8-3.6,2.8C314.2,92.8,312.7,91.7,312.7,90z M317.6,89.9
					c0-0.8-0.8-1.2-2.1-1.7c-0.4,0.4-0.7,0.9-0.7,1.5c0,0.9,0.7,1.4,1.5,1.4C317.1,91.1,317.6,90.7,317.6,89.9z M317.5,85.2
					c0-0.8-0.4-1.3-1.2-1.3c-0.6,0-1.1,0.4-1.1,1.1c0,0.8,0.7,1.2,1.7,1.6C317.3,86.2,317.5,85.7,317.5,85.2z"/>
			</g>
			<g class="st0">
				<path d="M139.2,110.8l1.3-1.5c0.3,0.4,1,0.7,1.6,0.7c1.1,0,1.9-0.8,2-3c-0.5,0.7-1.4,1.1-2,1.1c-1.7,0-3.1-1-3.1-3.1
					c0-2.1,1.6-3.4,3.4-3.4c2,0,3.9,1.5,3.9,5.1c0,3.8-2,5.5-4.1,5.5C140.8,112,139.8,111.4,139.2,110.8z M142.6,106.3
					c0.5,0,1.1-0.3,1.5-0.9c-0.2-1.6-0.9-2-1.5-2c-0.7,0-1.2,0.4-1.2,1.6C141.3,105.9,141.8,106.3,142.6,106.3z"/>
				<path d="M154.6,106.7c0-3.5,1.5-5.2,3.7-5.2s3.7,1.8,3.7,5.2s-1.5,5.3-3.7,5.3S154.6,110.2,154.6,106.7z M159.6,106.7
					c0-2.8-0.6-3.3-1.3-3.3c-0.8,0-1.3,0.6-1.3,3.3c0,2.7,0.6,3.4,1.3,3.4C159,110.1,159.6,109.4,159.6,106.7z"/>
				<path d="M170.9,110.5c0-0.9,0.6-1.5,1.5-1.5c0.8,0,1.5,0.7,1.5,1.5s-0.6,1.5-1.5,1.5C171.5,112,170.9,111.3,170.9,110.5z
					 M171.2,103.3l-0.1-2.2h2.5l-0.1,2.2l-0.4,4.8h-1.6L171.2,103.3z"/>
				<path d="M182.9,108.5c0-4.5,3.3-7.5,7.3-7.5c3.5,0,5.7,2.4,5.7,5.7c0,3-2,4.4-3.7,4.4c-0.9,0-1.7-0.4-1.9-1.2h0
					c-0.4,0.6-1.2,1.1-1.9,1.1c-1.3,0-2.1-0.9-2.1-2.4c0-2,1.4-4,3.2-4c0.6,0,1,0.2,1.2,0.8h0l0.3-0.7h1.5l-0.7,3.6
					c-0.2,0.9,0,1.3,0.7,1.3c0.9,0,1.8-1.1,1.8-2.8c0-2.2-1.2-4.3-4.3-4.3c-2.7,0-5.4,2.3-5.4,5.9c0,3.1,2.2,4.6,4.6,4.6
					c0.8,0,1.7-0.3,2.4-0.6l0.5,1.4c-1,0.5-2,0.8-3.1,0.8C185.9,114.6,182.9,112.7,182.9,108.5z M190,108.8l0.4-2.1
					c-0.2-0.3-0.4-0.4-0.7-0.4c-0.9,0-1.5,1.3-1.5,2.2c0,0.7,0.3,1,0.8,1C189.3,109.5,189.6,109.3,190,108.8z"/>
				<path d="M204.5,110.3c0.9-0.4,1.7-1.3,1.7-2.4c0-0.1,0-0.3,0-0.4h-1.6v-1.4l1.1-0.1h0.1c-0.1-0.4-0.2-0.8-0.2-1.2
					c0-2.1,1.5-3.3,3.4-3.3c1.3,0,2.2,0.6,2.8,1.4l-1.3,1.2c-0.4-0.4-0.7-0.6-1.2-0.6c-0.8,0-1.4,0.5-1.4,1.5c0,0.4,0.1,0.7,0.2,1.1
					h2.4v1.5h-2c0,0.1,0,0.3,0,0.4c0,0.7-0.2,1.2-0.7,1.8v0.1h4.1v2.1h-7.3V110.3z"/>
				<path d="M222.7,112c-1-0.1-2-0.5-2.8-1.3l1.1-1.5c0.8,0.7,1.5,0.9,2.2,0.9c0.9,0,1.2-0.4,1.2-1c0-1.5-4.2-1.6-4.2-4.4
					c0-1.6,0.9-2.7,2.4-3v-1.7h1.6v1.6c1,0.2,1.8,0.7,2.4,1.4l-1.2,1.4c-0.5-0.5-1.1-0.8-1.8-0.8c-0.7,0-1.1,0.3-1.1,1
					c0,1.4,4.2,1.4,4.2,4.4c0,1.6-0.8,2.8-2.5,3.1v1.7h-1.6V112z"/>
				<path d="M235.2,104.5c0-2.1,1.1-3.3,2.6-3.3c1.5,0,2.6,1.2,2.6,3.3c0,2.1-1.1,3.3-2.6,3.3C236.4,107.8,235.2,106.6,235.2,104.5z
					 M238.8,104.5c0-1.5-0.4-1.9-0.9-1.9s-0.9,0.5-0.9,1.9c0,1.5,0.4,2,0.9,2S238.8,106,238.8,104.5z M243.9,101.2h1.4l-5.6,10.8
					h-1.4L243.9,101.2z M243,108.7c0-2.1,1.1-3.3,2.6-3.3c1.5,0,2.6,1.2,2.6,3.3c0,2.1-1.1,3.3-2.6,3.3
					C244.1,112,243,110.8,243,108.7z M246.5,108.7c0-1.5-0.4-1.9-0.9-1.9s-0.9,0.5-0.9,1.9c0,1.5,0.4,2,0.9,2
					S246.5,110.1,246.5,108.7z"/>
				<path d="M258.9,101.1h2l2.5,6.4h-2l-0.7-2l-0.7-2.2h-0.1l-0.7,2.2l-0.7,2h-2L258.9,101.1z"/>
				<path d="M271.6,109c0-1.5,0.9-2.3,1.9-2.9c-0.4-0.8-0.6-1.5-0.6-2.1c0-1.5,1.1-2.8,2.9-2.8c1.6,0,2.6,0.9,2.6,2.4
					c0,1.4-1.1,2.2-2.2,3c0.6,0.6,1.3,1.2,2,1.8c0.5-0.7,0.9-1.5,1.2-2.4h2.2c-0.4,1.2-0.9,2.4-1.7,3.5c0.6,0.3,1.3,0.5,1.8,0.6
					l-0.6,2c-0.9-0.2-1.8-0.5-2.7-1c-0.9,0.7-2,1-3.3,1C272.8,112,271.6,110.6,271.6,109z M275.4,110.1c0.4,0,0.8-0.1,1.2-0.4
					c-0.8-0.6-1.5-1.3-2.1-2.1c-0.4,0.4-0.6,0.7-0.6,1.2C273.9,109.6,274.5,110.1,275.4,110.1z M275.2,105.1
					c0.7-0.4,1.3-0.9,1.3-1.5c0-0.5-0.2-0.8-0.7-0.8c-0.5,0-0.9,0.4-0.9,1.1C274.9,104.3,275,104.7,275.2,105.1z"/>
				<path d="M290.4,105.6l0.9-1.7l-1.7-0.8l0.4-1.2l1.9,0.4l0.2-1.9h1.3l0.2,1.9l1.9-0.4l0.4,1.2l-1.8,0.8l1,1.7l-1,0.8l-1.3-1.4
					l-1.3,1.4L290.4,105.6z"/>
				<path d="M304.6,107.4c0-2.8,0.8-5.1,2.1-7.3l1.6,0.6c-1.2,2.1-1.7,4.4-1.7,6.7s0.5,4.6,1.7,6.7l-1.6,0.6
					C305.4,112.5,304.6,110.2,304.6,107.4z"/>
				<path d="M316.9,114.1c1.2-2.1,1.7-4.4,1.7-6.7s-0.5-4.6-1.7-6.7l1.6-0.6c1.3,2.2,2.1,4.5,2.1,7.3c0,2.8-0.8,5.1-2.1,7.3
					L316.9,114.1z"/>
			</g>
			<g class="st0">
				<path d="M1.7,52.8L3,51.2c0.7,0.6,1.7,1,2.6,1c0.9,0,1.4-0.4,1.4-0.9c0-0.6-0.6-0.8-1.5-1.2l-1.3-0.6c-1.1-0.4-2.1-1.3-2.1-2.8
					c0-1.7,1.6-3.2,3.8-3.2c1.2,0,2.5,0.5,3.4,1.3L8,46.4c-0.7-0.5-1.4-0.8-2.1-0.8c-0.8,0-1.3,0.3-1.3,0.8c0,0.6,0.7,0.8,1.6,1.2
					l1.3,0.5c1.3,0.5,2.1,1.4,2.1,2.8c0,1.7-1.5,3.3-4,3.3C4.2,54.3,2.8,53.8,1.7,52.8z"/>
				<path d="M10.7,50.1c0-2.6,1.9-4.2,3.9-4.2c2,0,3.9,1.5,3.9,4.2c0,2.6-1.9,4.2-3.9,4.2C12.5,54.3,10.7,52.8,10.7,50.1z
					 M15.9,50.1c0-1.3-0.4-2.2-1.4-2.2s-1.4,0.9-1.4,2.2c0,1.3,0.4,2.2,1.4,2.2S15.9,51.5,15.9,50.1z"/>
				<path d="M19.9,51.1v-4.9h2.5v4.6c0,1.1,0.3,1.4,0.9,1.4c0.6,0,0.9-0.2,1.3-0.8v-5.2h2.5v8h-2L25,53h-0.1
					c-0.7,0.8-1.4,1.3-2.5,1.3C20.7,54.3,19.9,53.1,19.9,51.1z"/>
			</g>
			<g class="st0">
				<path d="M29,46.2h2l0.2,1.4h0.1c0.6-1.1,1.5-1.6,2.3-1.6c0.5,0,0.7,0,1,0.2l-0.5,2.1c-0.3-0.1-0.5-0.1-0.8-0.1
					c-0.6,0-1.3,0.4-1.7,1.4v4.5H29V46.2z"/>
			</g>
			<g class="st0">
				<path d="M34.8,50.1c0-2.6,2-4.2,4.2-4.2c1,0,1.7,0.3,2.3,0.8l-1.2,1.5c-0.4-0.3-0.7-0.4-1-0.4c-1.1,0-1.8,0.9-1.8,2.2
					c0,1.3,0.7,2.2,1.7,2.2c0.5,0,1-0.2,1.4-0.5l1,1.6c-0.8,0.7-1.8,0.9-2.6,0.9C36.5,54.3,34.8,52.8,34.8,50.1z"/>
			</g>
			<g class="st0">
				<path d="M41.8,50.1c0-2.6,1.9-4.2,3.8-4.2c2.3,0,3.4,1.7,3.4,3.8c0,0.4,0,0.9-0.1,1.1h-4.7c0.2,1.1,1,1.5,2,1.5
					c0.6,0,1.2-0.2,1.7-0.5l0.8,1.5c-0.8,0.6-1.9,0.9-2.9,0.9C43.6,54.3,41.8,52.8,41.8,50.1z M46.9,49.2c0-0.8-0.4-1.4-1.2-1.4
					c-0.7,0-1.3,0.4-1.5,1.4H46.9z"/>
				<path d="M53.3,52.8l1.3-1.6c0.7,0.6,1.7,1,2.6,1c0.9,0,1.4-0.4,1.4-0.9c0-0.6-0.6-0.8-1.5-1.2l-1.3-0.6
					c-1.1-0.4-2.1-1.3-2.1-2.8c0-1.7,1.6-3.2,3.8-3.2c1.2,0,2.5,0.5,3.4,1.3l-1.3,1.6c-0.7-0.5-1.4-0.8-2.1-0.8
					c-0.8,0-1.3,0.3-1.3,0.8c0,0.6,0.7,0.8,1.6,1.2l1.3,0.5c1.3,0.5,2.1,1.4,2.1,2.8c0,1.7-1.5,3.3-4,3.3
					C55.8,54.3,54.4,53.8,53.3,52.8z"/>
				<path d="M62.4,51.9c0-1.7,1.3-2.6,4.4-2.9c-0.1-0.7-0.4-1-1.2-1c-0.6,0-1.3,0.2-2.1,0.7L62.6,47c1-0.6,2.2-1,3.4-1
					c2,0,3.2,1.1,3.2,3.6v4.5h-2l-0.2-0.8H67c-0.7,0.6-1.4,1-2.3,1C63.3,54.3,62.4,53.2,62.4,51.9z M66.8,51.8v-1.3
					c-1.6,0.2-2.1,0.6-2.1,1.2c0,0.5,0.3,0.7,0.8,0.7C66.1,52.4,66.4,52.2,66.8,51.8z"/>
				<path d="M71.2,46.2h2l0.2,1h0.1c0.7-0.6,1.5-1.2,2.5-1.2c1.7,0,2.5,1.2,2.5,3.2v4.9H76v-4.6c0-1.1-0.3-1.4-0.9-1.4
					c-0.6,0-0.9,0.3-1.4,0.7v5.3h-2.5V46.2z"/>
				<path d="M79.7,53.1l1-1.4c0.7,0.6,1.5,0.8,2.1,0.8c0.7,0,0.9-0.2,0.9-0.6c0-0.5-0.7-0.7-1.5-1c-1.1-0.4-2.1-1.1-2.1-2.4
					c0-1.5,1.2-2.5,3.1-2.5c1.2,0,2.2,0.4,2.8,1L85,48.4c-0.6-0.4-1.2-0.6-1.7-0.6c-0.6,0-0.8,0.2-0.8,0.6c0,0.4,0.4,0.6,1.5,0.9
					c1.2,0.4,2.2,1.1,2.2,2.4c0,1.5-1.2,2.6-3.3,2.6C81.7,54.3,80.5,53.9,79.7,53.1z"/>
				<path d="M90.9,43.7h3.7c2.3,0,4.2,0.8,4.2,3.4c0,2.5-1.9,3.6-4.1,3.6h-1.2v3.5h-2.5V43.7z M94.5,48.7c1.2,0,1.8-0.6,1.8-1.6
					c0-1-0.7-1.4-1.9-1.4h-1v3H94.5z"/>
			</g>
			<g class="st0">
				<path d="M100.1,46.2h2l0.2,1.4h0.1c0.6-1.1,1.5-1.6,2.3-1.6c0.5,0,0.7,0,1,0.2l-0.5,2.1c-0.3-0.1-0.5-0.1-0.8-0.1
					c-0.6,0-1.3,0.4-1.7,1.4v4.5h-2.5V46.2z"/>
			</g>
			<g class="st0">
				<path d="M105.8,50.1c0-2.6,1.9-4.2,3.9-4.2c2,0,3.9,1.5,3.9,4.2c0,2.6-1.9,4.2-3.9,4.2C107.7,54.3,105.8,52.8,105.8,50.1z
					 M111.1,50.1c0-1.3-0.4-2.2-1.4-2.2s-1.4,0.9-1.4,2.2c0,1.3,0.4,2.2,1.4,2.2S111.1,51.5,111.1,50.1z"/>
			</g>
			<g class="st0">
				<path d="M2.4,62.9H6c2.2,0,3.9,0.6,3.9,2.6c0,0.9-0.5,1.9-1.4,2.2v0.1c1.1,0.3,1.9,1.1,1.9,2.4c0,2.1-1.8,3.1-4.1,3.1H2.4V62.9z
					 M5.9,67c1.1,0,1.5-0.5,1.5-1.2c0-0.8-0.5-1.1-1.5-1.1H4.9V67H5.9z M6.1,71.4C7.3,71.4,8,71,8,70.1c0-0.9-0.6-1.2-1.8-1.2H4.9
					v2.5H6.1z"/>
				<path d="M11.4,69.3c0-2.6,1.9-4.2,3.9-4.2c2,0,3.9,1.5,3.9,4.2c0,2.6-1.9,4.2-3.9,4.2C13.3,73.5,11.4,72,11.4,69.3z M16.7,69.3
					c0-1.3-0.4-2.2-1.4-2.2S14,68,14,69.3c0,1.3,0.4,2.2,1.4,2.2S16.7,70.7,16.7,69.3z"/>
				<path d="M20.8,70.7v-8.6h2.5v8.7c0,0.5,0.3,0.7,0.4,0.7c0.1,0,0.2,0,0.3,0l0.3,1.8c-0.3,0.1-0.7,0.2-1.2,0.2
					C21.4,73.5,20.8,72.4,20.8,70.7z"/>
				<path d="M25,69.3c0-2.6,1.6-4.2,3.3-4.2c0.9,0,1.4,0.3,1.9,0.8l-0.1-1.2v-2.7h2.5v11.2h-2l-0.2-0.8h0c-0.6,0.6-1.3,1-2.1,1
					C26.3,73.5,25,71.9,25,69.3z M30.2,70.8v-3.2c-0.4-0.3-0.8-0.5-1.2-0.5c-0.7,0-1.3,0.6-1.3,2.1c0,1.5,0.5,2.2,1.4,2.2
					C29.4,71.5,29.8,71.3,30.2,70.8z"/>
			</g>
		</g>
	</g>
</g>
</svg>
