<?xml version="1.0" encoding="UTF-8"?><svg xmlns="http://www.w3.org/2000/svg" viewBox="0 0 327.53516 116.86816"><defs><style>.d{letter-spacing:-.01001em;}.e{letter-spacing:.10251em;}.f{letter-spacing:-.02051em;}.g{letter-spacing:.12366em;}.h{letter-spacing:.12363em;}.i{letter-spacing:-.03029em;}.j{letter-spacing:-.02499em;}.k{letter-spacing:-.0372em;}.l{letter-spacing:-.03639em;}.m{font-size:16px;}.m,.n{font-family:SourceSansPro-Bold, Source Sans Pro;}.o{letter-spacing:-.02798em;}.p{letter-spacing:.14331em;}.q{letter-spacing:.14328em;}.r{letter-spacing:.12003em;}.s{letter-spacing:-.02781em;}.t{letter-spacing:.12em;}.u{letter-spacing:-.02319em;}.n{font-size:28px;}.v{letter-spacing:-.00998em;}.w{letter-spacing:.10367em;}.x{letter-spacing:.1037em;}.y{letter-spacing:.10312em;}.a`{letter-spacing:.10309em;}.aa{letter-spacing:-.02881em;}</style></defs><g id="a"/><g id="b"><g id="c"><g><text class="n" transform="translate(.16846 23.23975)"><tspan class="f" x="0" y="0">A</tspan><tspan class="i" x="15.46973" y="0">a</tspan><tspan class="u" x="29.37744" y="0">B</tspan><tspan class="s" x="45.66797" y="0">b</tspan><tspan class="l" x="60.93311" y="0">C</tspan><tspan class="k" x="76.20947" y="0">c</tspan><tspan class="aa" x="88.24365" y="0">D</tspan><tspan class="j" x="105.2168" y="0">d</tspan></text><text class="m" transform="translate(138.49072 15.82812)"><tspan class="t" x="0" y="0">A</tspan><tspan class="y" x="11.08789" y="0"> </tspan><tspan class="t" x="15.93799" y="0">B</tspan><tspan class="a`" x="27.5376" y="0"> </tspan><tspan class="t" x="32.38721" y="0">C</tspan><tspan class="y" x="43.61865" y="0"> </tspan><tspan class="t" x="48.46875" y="0">D</tspan><tspan class="y" x="60.54883" y="0"> </tspan><tspan class="t" x="65.39893" y="0">E</tspan><tspan class="a`" x="76.08643" y="0"> </tspan><tspan class="t" x="80.93604" y="0">F</tspan><tspan class="y" x="91.23975" y="0"> </tspan><tspan class="t" x="96.08984" y="0">G</tspan><tspan class="a`" x="108.21777" y="0"> </tspan><tspan class="r" x="113.06738" y="0">H</tspan><tspan class="a`" x="125.77197" y="0"> </tspan><tspan class="t" x="130.62158" y="0">I</tspan><tspan class="y" x="137.35742" y="0"> </tspan><tspan class="t" x="142.20703" y="0">J</tspan><tspan class="a`" x="152.27051" y="0"> </tspan><tspan class="r" x="157.12012" y="0">K</tspan><tspan class="a`" x="168.86475" y="0"> </tspan><tspan class="t" x="173.71436" y="0">L </tspan><tspan class="t" x="0" y="19.2002">M</tspan><tspan class="e" x="14.11182" y="19.2002"> </tspan><tspan class="t" x="18.95166" y="19.2002">N</tspan><tspan class="e" x="31.51123" y="19.2002"> </tspan><tspan class="r" x="36.35156" y="19.2002">O</tspan><tspan class="e" x="49.21582" y="19.2002"> </tspan><tspan class="t" x="54.05566" y="19.2002">P</tspan><tspan class="e" x="65.51172" y="19.2002"> </tspan><tspan class="t" x="70.35205" y="19.2002">Q</tspan><tspan class="e" x="83.21582" y="19.2002"> </tspan><tspan class="t" x="88.05566" y="19.2002">R</tspan><tspan class="e" x="99.7832" y="19.2002"> </tspan><tspan class="r" x="104.62354" y="19.2002">S</tspan><tspan class="e" x="115.43994" y="19.2002"> </tspan><tspan class="t" x="120.27979" y="19.2002">T</tspan><tspan class="e" x="131.0957" y="19.2002"> </tspan><tspan class="t" x="135.93555" y="19.2002">U</tspan><tspan class="e" x="148.49512" y="19.2002"> </tspan><tspan class="t" x="153.33545" y="19.2002">V</tspan><tspan class="e" x="164.15137" y="19.2002"> </tspan><tspan class="r" x="168.99121" y="19.2002">W </tspan><tspan class="t" x="0" y="38.3999">X</tspan><tspan class="x" x="10.9917" y="38.3999"> </tspan><tspan class="t" x="15.85059" y="38.3999">Y</tspan><tspan class="w" x="26.17041" y="38.3999"> </tspan><tspan class="t" x="31.02881" y="38.3999">Z</tspan><tspan class="x" x="41.60449" y="38.3999"> </tspan><tspan class="t" x="46.46338" y="38.3999">a</tspan><tspan class="w" x="56.81494" y="38.3999"> </tspan><tspan class="t" x="61.67383" y="38.3999">b</tspan><tspan class="x" x="72.76172" y="38.3999"> </tspan><tspan class="t" x="77.62109" y="38.3999">c</tspan><tspan class="w" x="87.0127" y="38.3999"> </tspan><tspan class="t" x="91.87158" y="38.3999">d</tspan><tspan class="w" x="102.95947" y="38.3999"> </tspan><tspan class="r" x="107.81836" y="38.3999">e</tspan><tspan class="w" x="118.02686" y="38.3999"> </tspan><tspan class="t" x="122.88574" y="38.3999">f</tspan><tspan class="w" x="130.26172" y="38.3999"> </tspan><tspan class="r" x="135.12061" y="38.3999">g</tspan><tspan class="w" x="145.58496" y="38.3999"> </tspan><tspan class="t" x="150.44385" y="38.3999">h</tspan><tspan class="w" x="161.49951" y="38.3999"> </tspan><tspan class="r" x="166.3584" y="38.3999">i</tspan><tspan class="w" x="172.69482" y="38.3999"> </tspan><tspan class="t" x="177.55371" y="38.3999">j </tspan><tspan class="t" x="0" y="57.6001">k</tspan><tspan class="q" x="10.6875" y="57.6001"> </tspan><tspan class="t" x="16.18018" y="57.6001">l</tspan><tspan class="p" x="22.67627" y="57.6001"> </tspan><tspan class="t" x="28.16943" y="57.6001">m</tspan><tspan class="q" x="43.80127" y="57.6001"> </tspan><tspan class="t" x="49.29395" y="57.6001">n</tspan><tspan class="q" x="60.36572" y="57.6001"> </tspan><tspan class="t" x="65.85791" y="57.6001">o</tspan><tspan class="q" x="76.65771" y="57.6001"> </tspan><tspan class="r" x="82.15039" y="57.6001">p</tspan><tspan class="q" x="93.23877" y="57.6001"> </tspan><tspan class="t" x="98.73145" y="57.6001">q</tspan><tspan class="q" x="109.81934" y="57.6001"> </tspan><tspan class="t" x="115.31201" y="57.6001">r</tspan><tspan class="q" x="123.6001" y="57.6001"> </tspan><tspan class="r" x="129.09277" y="57.6001">s</tspan><tspan class="q" x="138.10107" y="57.6001"> </tspan><tspan class="t" x="143.59375" y="57.6001">t</tspan><tspan class="q" x="151.6416" y="57.6001"> </tspan><tspan class="t" x="157.13428" y="57.6001">u</tspan><tspan class="q" x="168.14209" y="57.6001"> </tspan><tspan class="t" x="173.63477" y="57.6001">v </tspan><tspan class="t" x="0" y="76.7998">w</tspan><tspan class="g" x="14.33594" y="76.7998"> </tspan><tspan class="t" x="19.51465" y="76.7998">x</tspan><tspan class="h" x="29.6582" y="76.7998"> </tspan><tspan class="r" x="34.83643" y="76.7998">y</tspan><tspan class="h" x="45.09277" y="76.7998"> </tspan><tspan class="t" x="50.271" y="76.7998">z</tspan><tspan class="g" x="59.55078" y="76.7998"> </tspan><tspan class="t" x="64.729" y="76.7998">1</tspan><tspan class="g" x="75.09717" y="76.7998"> </tspan><tspan class="t" x="80.27588" y="76.7998">2</tspan><tspan class="h" x="90.64404" y="76.7998"> </tspan><tspan class="r" x="95.82227" y="76.7998">3</tspan><tspan class="h" x="106.19092" y="76.7998"> </tspan><tspan class="t" x="111.36914" y="76.7998">4</tspan><tspan class="g" x="121.7373" y="76.7998"> </tspan><tspan class="t" x="126.91602" y="76.7998">5</tspan><tspan class="g" x="137.28418" y="76.7998"> </tspan><tspan class="t" x="142.46289" y="76.7998">6</tspan><tspan class="h" x="152.83105" y="76.7998"> </tspan><tspan class="t" x="158.00928" y="76.7998">7</tspan><tspan class="g" x="168.37744" y="76.7998"> </tspan><tspan class="t" x="173.55615" y="76.7998">8 </tspan><tspan class="t"><tspan x="0" y="96">9 0 ! @ £ $ % ^ &amp; * ( )</tspan></tspan></text><text class="m" transform="translate(1.16846 54.12317)"><tspan x="0" y="0">Sou</tspan><tspan class="d" x="26.86377" y="0">r</tspan><tspan class="o" x="33.07178" y="0">c</tspan><tspan x="40.0957" y="0">e Sans P</tspan><tspan class="v" x="97.8877" y="0">r</tspan><tspan x="104.09619" y="0">o </tspan><tspan x="0" y="19.2002">Bold</tspan></text></g></g></g></svg>