<?xml version="1.0" encoding="utf-8"?>
<!-- Generator: Adobe Illustrator 26.4.1, SVG Export Plug-In . SVG Version: 6.00 Build 0)  -->
<svg version="1.1" id="Layer_1" xmlns="http://www.w3.org/2000/svg" xmlns:xlink="http://www.w3.org/1999/xlink" x="0px" y="0px"
	 viewBox="0 0 319.8 120.1" style="enable-background:new 0 0 319.8 120.1;" xml:space="preserve">
<style type="text/css">
	.st0{enable-background:new    ;}
</style>
<g id="a">
</g>
<g id="b">
	<g id="c">
		<g>
			<g class="st0">
				<path d="M186.5,6.2h1.5v10.4h12.8V6.2h1.5v23.7h-1.5v-12h-12.8v12h-1.5V6.2z"/>
				<path d="M209.5,6.2h12.9v1.3H211v9.1h9.5v1.3H211v10.6h11.7v1.3h-13.3V6.2z"/>
				<path d="M233.2,6.2h1.5l8.4,23.7h-1.7l-2.8-8.2h-9.4l-2.8,8.2h-1.6L233.2,6.2z M229.7,20.3h8.5l-1.5-4.5c-1-2.8-1.8-5.3-2.7-8.2
					h-0.1c-0.8,2.9-1.7,5.4-2.6,8.2L229.7,20.3z"/>
				<path d="M246.9,6.2h5.4c7.3,0,10.8,4.6,10.8,11.8c0,7.2-3.4,12-10.7,12h-5.5V6.2z M252.2,28.5c6.5,0,9.3-4.4,9.3-10.6
					c0-6.2-2.8-10.5-9.3-10.5h-3.7v21.1H252.2z"/>
				<path d="M268.6,6.2h1.5v23.7h-1.5V6.2z"/>
				<path d="M277.2,6.2h1.7L288.9,23c0.9,1.6,1.8,3.2,2.7,4.8h0.1c-0.1-2.3-0.2-4.6-0.2-6.9V6.2h1.4v23.7h-1.6L281.3,13
					c-0.9-1.6-1.9-3.2-2.7-4.8h-0.1c0.1,2.3,0.2,4.4,0.2,6.7v15h-1.4V6.2z"/>
				<path d="M298.5,18c0-7.5,4.2-12.2,10.5-12.2c3.2,0,5.2,1.5,6.4,2.8l-0.9,1c-1.2-1.3-2.9-2.4-5.5-2.4c-5.5,0-8.9,4.2-8.9,10.8
					c0,6.7,3.2,11,8.6,11c2.2,0,4.2-0.7,5.4-1.8v-7.5h-5.7v-1.3h7.2v9.4c-1.4,1.6-3.9,2.7-7,2.7C302.6,30.3,298.5,25.5,298.5,18z"/>
			</g>
			<g class="st0">
				<path d="M0.5,70.9l1.3-1.6c0.7,0.6,1.7,1,2.6,1c0.9,0,1.4-0.4,1.4-0.9c0-0.6-0.6-0.8-1.5-1.2l-1.3-0.6c-1.1-0.4-2.1-1.3-2.1-2.8
					c0-1.7,1.6-3.2,3.8-3.2c1.2,0,2.5,0.5,3.4,1.3l-1.3,1.6c-0.7-0.5-1.4-0.8-2.1-0.8c-0.8,0-1.3,0.3-1.3,0.8c0,0.6,0.7,0.8,1.6,1.2
					l1.3,0.5c1.3,0.5,2.1,1.4,2.1,2.8c0,1.7-1.5,3.3-4,3.3C3,72.4,1.6,71.9,0.5,70.9z"/>
				<path d="M9.3,68.2c0-2.6,1.9-4.2,3.9-4.2c2,0,3.9,1.5,3.9,4.2c0,2.6-1.9,4.2-3.9,4.2C11.2,72.4,9.3,70.9,9.3,68.2z M14.6,68.2
					c0-1.3-0.4-2.2-1.4-2.2c-0.9,0-1.4,0.9-1.4,2.2c0,1.3,0.4,2.2,1.4,2.2C14.1,70.4,14.6,69.6,14.6,68.2z"/>
				<path d="M18.4,69.2v-4.9h2.5v4.6c0,1.1,0.3,1.4,0.9,1.4c0.6,0,0.9-0.2,1.3-0.8v-5.2h2.5v8h-2l-0.2-1.1h-0.1
					c-0.7,0.8-1.4,1.3-2.5,1.3C19.2,72.4,18.4,71.2,18.4,69.2z"/>
			</g>
			<g class="st0">
				<path d="M27.4,64.3h2l0.2,1.4h0.1c0.6-1.1,1.5-1.6,2.3-1.6c0.5,0,0.7,0,1,0.2l-0.5,2.1c-0.3-0.1-0.5-0.1-0.8-0.1
					c-0.6,0-1.3,0.4-1.7,1.4v4.5h-2.5V64.3z"/>
			</g>
			<g class="st0">
				<path d="M33,68.2c0-2.6,2-4.2,4.2-4.2c1,0,1.7,0.3,2.3,0.8l-1.2,1.5c-0.4-0.3-0.7-0.4-1-0.4c-1.1,0-1.8,0.9-1.8,2.2
					c0,1.3,0.7,2.2,1.7,2.2c0.5,0,1-0.2,1.4-0.5l1,1.6c-0.8,0.7-1.8,0.9-2.6,0.9C34.7,72.4,33,70.9,33,68.2z"/>
			</g>
			<g class="st0">
				<path d="M39.9,68.2c0-2.6,1.9-4.2,3.8-4.2c2.3,0,3.4,1.7,3.4,3.8c0,0.4,0,0.9-0.1,1.1h-4.7c0.2,1.1,1,1.5,2,1.5
					c0.6,0,1.2-0.2,1.7-0.5l0.8,1.5c-0.8,0.6-1.9,0.9-2.9,0.9C41.6,72.4,39.9,70.9,39.9,68.2z M44.9,67.3c0-0.8-0.4-1.4-1.2-1.4
					c-0.7,0-1.3,0.4-1.5,1.4H44.9z"/>
				<path d="M51,70.9l1.3-1.6c0.7,0.6,1.7,1,2.6,1c0.9,0,1.4-0.4,1.4-0.9c0-0.6-0.6-0.8-1.5-1.2l-1.3-0.6c-1.1-0.4-2.1-1.3-2.1-2.8
					c0-1.7,1.6-3.2,3.8-3.2c1.2,0,2.5,0.5,3.4,1.3l-1.3,1.6c-0.7-0.5-1.4-0.8-2.1-0.8c-0.8,0-1.3,0.3-1.3,0.8c0,0.6,0.7,0.8,1.6,1.2
					l1.3,0.5c1.3,0.5,2.1,1.4,2.1,2.8c0,1.7-1.5,3.3-4,3.3C53.5,72.4,52.1,71.9,51,70.9z"/>
				<path d="M59.9,70c0-1.7,1.3-2.6,4.4-2.9c-0.1-0.7-0.4-1-1.2-1c-0.6,0-1.3,0.2-2.1,0.7l-0.9-1.6c1-0.6,2.2-1,3.4-1
					c2,0,3.2,1.1,3.2,3.6v4.5h-2l-0.2-0.8h-0.1c-0.7,0.6-1.4,1-2.3,1C60.8,72.4,59.9,71.3,59.9,70z M64.4,69.9v-1.3
					c-1.6,0.2-2.1,0.6-2.1,1.2c0,0.5,0.3,0.7,0.8,0.7C63.6,70.5,64,70.2,64.4,69.9z"/>
				<path d="M68.6,64.3h2l0.2,1h0.1c0.7-0.6,1.5-1.2,2.5-1.2c1.7,0,2.5,1.2,2.5,3.2v4.9h-2.5v-4.6c0-1.1-0.3-1.4-0.9-1.4
					c-0.6,0-0.9,0.3-1.4,0.7v5.3h-2.5V64.3z"/>
				<path d="M76.9,71.2l1-1.4c0.7,0.6,1.5,0.8,2.1,0.8c0.7,0,0.9-0.2,0.9-0.6c0-0.5-0.7-0.7-1.5-1c-1.1-0.4-2.1-1.1-2.1-2.4
					c0-1.5,1.2-2.5,3.1-2.5c1.2,0,2.2,0.4,2.8,1l-1.1,1.4c-0.6-0.4-1.2-0.6-1.7-0.6c-0.6,0-0.8,0.2-0.8,0.6c0,0.4,0.4,0.6,1.5,0.9
					c1.2,0.4,2.2,1.1,2.2,2.4c0,1.5-1.2,2.6-3.3,2.6C79,72.4,77.7,72,76.9,71.2z"/>
				<path d="M87.8,61.8h3.7c2.3,0,4.2,0.8,4.2,3.4c0,2.5-1.9,3.6-4.1,3.6h-1.2v3.5h-2.5V61.8z M91.4,66.8c1.2,0,1.8-0.6,1.8-1.6
					c0-1-0.7-1.4-1.9-1.4h-1v3H91.4z"/>
			</g>
			<g class="st0">
				<path d="M96.8,64.3h2l0.2,1.4h0.1c0.6-1.1,1.5-1.6,2.3-1.6c0.5,0,0.7,0,1,0.2l-0.5,2.1c-0.3-0.1-0.5-0.1-0.8-0.1
					c-0.6,0-1.3,0.4-1.7,1.4v4.5h-2.5V64.3z"/>
			</g>
			<g class="st0">
				<path d="M102.4,68.2c0-2.6,1.9-4.2,3.9-4.2c2,0,3.9,1.5,3.9,4.2c0,2.6-1.9,4.2-3.9,4.2C104.3,72.4,102.4,70.9,102.4,68.2z
					 M107.7,68.2c0-1.3-0.4-2.2-1.4-2.2s-1.4,0.9-1.4,2.2c0,1.3,0.4,2.2,1.4,2.2S107.7,69.6,107.7,68.2z"/>
				<path d="M114.9,61.8h3.6c2.2,0,3.9,0.6,3.9,2.6c0,0.9-0.5,1.9-1.4,2.2v0.1c1.1,0.3,1.9,1.1,1.9,2.4c0,2.1-1.8,3.1-4.1,3.1h-3.9
					V61.8z M118.4,65.9c1.1,0,1.5-0.5,1.5-1.2c0-0.8-0.5-1.1-1.5-1.1h-1.1v2.2H118.4z M118.6,70.3c1.2,0,1.8-0.4,1.8-1.3
					c0-0.9-0.6-1.2-1.8-1.2h-1.2v2.5H118.6z"/>
				<path d="M123.8,68.2c0-2.6,1.9-4.2,3.9-4.2c2,0,3.9,1.5,3.9,4.2c0,2.6-1.9,4.2-3.9,4.2C125.7,72.4,123.8,70.9,123.8,68.2z
					 M129.1,68.2c0-1.3-0.4-2.2-1.4-2.2s-1.4,0.9-1.4,2.2c0,1.3,0.4,2.2,1.4,2.2S129.1,69.6,129.1,68.2z"/>
				<path d="M133,69.6V61h2.5v8.7c0,0.5,0.3,0.7,0.4,0.7c0.1,0,0.2,0,0.3,0l0.3,1.8c-0.3,0.1-0.7,0.2-1.2,0.2
					C133.6,72.4,133,71.3,133,69.6z"/>
				<path d="M137.1,68.2c0-2.6,1.6-4.2,3.3-4.2c0.9,0,1.4,0.3,1.9,0.8l-0.1-1.2V61h2.5v11.2h-2l-0.2-0.8h0c-0.6,0.6-1.3,1-2.1,1
					C138.4,72.4,137.1,70.8,137.1,68.2z M142.2,69.7v-3.2c-0.4-0.3-0.8-0.5-1.2-0.5c-0.7,0-1.3,0.6-1.3,2.1c0,1.5,0.5,2.2,1.4,2.2
					C141.5,70.4,141.9,70.2,142.2,69.7z"/>
			</g>
			<g class="st0">
				<path d="M183.5,70.9l1.3-1.6c0.7,0.6,1.7,1,2.6,1c0.9,0,1.4-0.4,1.4-0.9c0-0.6-0.6-0.8-1.5-1.2l-1.3-0.6
					c-1.1-0.4-2.1-1.3-2.1-2.8c0-1.7,1.6-3.2,3.8-3.2c1.2,0,2.5,0.5,3.4,1.3l-1.3,1.6c-0.7-0.5-1.4-0.8-2.1-0.8
					c-0.8,0-1.3,0.3-1.3,0.8c0,0.6,0.7,0.8,1.6,1.2l1.3,0.5c1.3,0.5,2.1,1.4,2.1,2.8c0,1.7-1.5,3.3-4,3.3
					C186,72.4,184.6,71.9,183.5,70.9z"/>
				<path d="M192.9,69.2v-4.9h2.5v4.6c0,1.1,0.3,1.4,0.9,1.4c0.6,0,0.9-0.2,1.3-0.8v-5.2h2.5v8h-2l-0.2-1.1h-0.1
					c-0.7,0.8-1.4,1.3-2.5,1.3C193.6,72.4,192.9,71.2,192.9,69.2z"/>
				<path d="M204.3,71.4L204.3,71.4l-0.3,0.8h-1.9V61h2.5v2.7l0,1.2c0.6-0.5,1.3-0.8,2-0.8c1.9,0,3.1,1.6,3.1,4
					c0,2.7-1.6,4.3-3.3,4.3C205.6,72.4,204.9,72.1,204.3,71.4z M207.1,68.1c0-1.4-0.4-2-1.3-2c-0.5,0-0.8,0.2-1.3,0.7v3.2
					c0.4,0.4,0.8,0.5,1.2,0.5C206.5,70.4,207.1,69.7,207.1,68.1z"/>
				<path d="M211.3,61h2.5v2.7l-0.1,1.4c0.6-0.5,1.4-1.1,2.4-1.1c1.7,0,2.5,1.2,2.5,3.2v4.9h-2.5v-4.6c0-1.1-0.3-1.4-0.9-1.4
					c-0.6,0-0.9,0.3-1.4,0.7v5.3h-2.5V61z"/>
			</g>
			<g class="st0">
				<path d="M219.8,68.2c0-2.6,1.9-4.2,3.8-4.2c2.3,0,3.4,1.7,3.4,3.8c0,0.4,0,0.9-0.1,1.1h-4.7c0.2,1.1,1,1.5,2,1.5
					c0.6,0,1.2-0.2,1.7-0.5l0.8,1.5c-0.8,0.6-1.9,0.9-2.9,0.9C221.6,72.4,219.8,70.9,219.8,68.2z M224.9,67.3c0-0.8-0.4-1.4-1.2-1.4
					c-0.7,0-1.3,0.4-1.5,1.4H224.9z"/>
			</g>
			<g class="st0">
				<path d="M228.1,70c0-1.7,1.3-2.6,4.4-2.9c-0.1-0.7-0.4-1-1.2-1c-0.6,0-1.3,0.2-2.1,0.7l-0.9-1.6c1-0.6,2.2-1,3.4-1
					c2,0,3.2,1.1,3.2,3.6v4.5h-2l-0.2-0.8h-0.1c-0.7,0.6-1.4,1-2.3,1C229,72.4,228.1,71.3,228.1,70z M232.5,69.9v-1.3
					c-1.6,0.2-2.1,0.6-2.1,1.2c0,0.5,0.3,0.7,0.8,0.7C231.8,70.5,232.1,70.2,232.5,69.9z"/>
				<path d="M236.5,68.2c0-2.6,1.6-4.2,3.3-4.2c0.9,0,1.4,0.3,1.9,0.8l-0.1-1.2V61h2.5v11.2h-2l-0.2-0.8h0c-0.6,0.6-1.3,1-2.1,1
					C237.8,72.4,236.5,70.8,236.5,68.2z M241.6,69.7v-3.2c-0.4-0.3-0.8-0.5-1.2-0.5c-0.7,0-1.3,0.6-1.3,2.1c0,1.5,0.5,2.2,1.4,2.2
					C240.9,70.4,241.2,70.2,241.6,69.7z"/>
				<path d="M245.9,61.9c0-0.8,0.6-1.3,1.4-1.3c0.8,0,1.4,0.5,1.4,1.3c0,0.8-0.6,1.3-1.4,1.3C246.5,63.1,245.9,62.6,245.9,61.9z
					 M246.1,64.3h2.5v8h-2.5V64.3z"/>
				<path d="M250.6,64.3h2l0.2,1h0.1c0.7-0.6,1.5-1.2,2.5-1.2c1.7,0,2.5,1.2,2.5,3.2v4.9h-2.5v-4.6c0-1.1-0.3-1.4-0.9-1.4
					c-0.6,0-0.9,0.3-1.4,0.7v5.3h-2.5V64.3z"/>
				<path d="M259.3,73.6c0-0.7,0.4-1.2,1.1-1.6v-0.1c-0.4-0.3-0.7-0.7-0.7-1.4c0-0.6,0.4-1.1,0.9-1.5V69c-0.6-0.4-1.1-1.1-1.1-2
					c0-1.9,1.6-2.9,3.3-2.9c0.4,0,0.9,0.1,1.2,0.2h2.9V66h-1.2c0.1,0.2,0.2,0.6,0.2,1c0,1.9-1.4,2.7-3.2,2.7c-0.3,0-0.6,0-0.9-0.1
					c-0.2,0.2-0.3,0.3-0.3,0.5c0,0.4,0.3,0.6,1.2,0.6h1.3c2,0,3.1,0.6,3.1,2c0,1.7-1.7,2.9-4.5,2.9C260.8,75.6,259.3,75,259.3,73.6z
					 M264.8,73.1c0-0.5-0.4-0.6-1.2-0.6h-0.8c-0.6,0-0.9,0-1.1-0.1c-0.3,0.2-0.4,0.4-0.4,0.7c0,0.6,0.7,0.9,1.7,0.9
					C264,74,264.8,73.6,264.8,73.1z M263.8,66.9c0-0.8-0.4-1.2-1-1.2s-1,0.4-1,1.2c0,0.8,0.4,1.3,1,1.3
					C263.4,68.2,263.8,67.8,263.8,66.9z"/>
			</g>
			<g class="st0">
				<path d="M0.7,114l0.8-0.9c0.8,0.8,1.8,1.3,2.9,1.3c1.4,0,2.2-0.7,2.2-1.7c0-1.1-0.8-1.4-1.7-1.8l-1.5-0.7
					c-1-0.4-2.1-1.2-2.1-2.7c0-1.6,1.4-2.8,3.3-2.8c1.3,0,2.4,0.5,3.1,1.3l-0.7,0.9c-0.6-0.6-1.5-1-2.4-1c-1.2,0-1.9,0.6-1.9,1.5
					c0,1,0.9,1.4,1.7,1.7l1.5,0.7c1.2,0.5,2.2,1.2,2.2,2.8c0,1.7-1.4,3-3.6,3C2.9,115.6,1.6,115,0.7,114z"/>
				<path d="M9.1,111.5c0-2.6,1.7-4.1,3.6-4.1s3.6,1.5,3.6,4.1c0,2.6-1.7,4.1-3.6,4.1S9.1,114.1,9.1,111.5z M15,111.5
					c0-1.8-0.9-3-2.2-3c-1.3,0-2.2,1.2-2.2,3c0,1.8,0.9,3,2.2,3C14.1,114.5,15,113.3,15,111.5z"/>
				<path d="M18.1,112.5v-4.9h1.3v4.8c0,1.4,0.4,2.1,1.5,2.1c0.8,0,1.3-0.4,2.1-1.3v-5.5h1.3v7.8h-1.1l-0.1-1.2h0
					c-0.7,0.8-1.5,1.4-2.6,1.4C18.8,115.6,18.1,114.5,18.1,112.5z"/>
			</g>
			<g class="st0">
				<path d="M26.8,107.6h1.1L28,109h0c0.5-1,1.3-1.6,2.2-1.6c0.4,0,0.6,0,0.8,0.2l-0.3,1.1c-0.2-0.1-0.4-0.1-0.7-0.1
					c-0.7,0-1.4,0.5-2,1.8v5h-1.3V107.6z"/>
			</g>
			<g class="st0">
				<path d="M31.4,111.5c0-2.6,1.7-4.1,3.7-4.1c1,0,1.7,0.4,2.3,0.9l-0.7,0.8c-0.4-0.4-0.9-0.6-1.6-0.6c-1.4,0-2.4,1.2-2.4,3
					c0,1.8,1,3,2.4,3c0.7,0,1.4-0.3,1.8-0.7l0.6,0.8c-0.7,0.6-1.6,1-2.5,1C33,115.6,31.4,114.1,31.4,111.5z"/>
			</g>
			<g class="st0">
				<path d="M38.2,111.5c0-2.5,1.7-4.1,3.5-4.1c2,0,3.1,1.4,3.1,3.7c0,0.3,0,0.5-0.1,0.8h-5.2c0.1,1.6,1.1,2.7,2.6,2.7
					c0.8,0,1.4-0.2,2-0.6l0.5,0.8c-0.7,0.5-1.5,0.8-2.6,0.8C39.8,115.6,38.2,114.1,38.2,111.5z M43.6,110.8c0-1.5-0.7-2.4-1.9-2.4
					c-1.1,0-2,0.9-2.2,2.4H43.6z"/>
				<path d="M49,114l0.8-0.9c0.8,0.8,1.8,1.3,2.9,1.3c1.4,0,2.2-0.7,2.2-1.7c0-1.1-0.8-1.4-1.7-1.8l-1.5-0.7c-1-0.4-2.1-1.2-2.1-2.7
					c0-1.6,1.4-2.8,3.3-2.8c1.3,0,2.4,0.5,3.1,1.3l-0.7,0.9c-0.6-0.6-1.5-1-2.4-1c-1.2,0-1.9,0.6-1.9,1.5c0,1,0.9,1.4,1.7,1.7
					l1.5,0.7c1.2,0.5,2.2,1.2,2.2,2.8c0,1.7-1.4,3-3.6,3C51.1,115.6,49.9,115,49,114z"/>
				<path d="M57.5,113.4c0-1.7,1.4-2.6,4.8-2.9c0-1-0.3-1.9-1.6-1.9c-0.9,0-1.7,0.4-2.3,0.8l-0.5-0.9c0.7-0.5,1.8-1,3.1-1
					c1.9,0,2.7,1.3,2.7,3.2v4.8h-1.1l-0.1-0.9h0c-0.7,0.6-1.6,1.1-2.6,1.1C58.5,115.6,57.5,114.8,57.5,113.4z M62.3,113.5v-2.1
					c-2.6,0.3-3.5,0.9-3.5,1.9c0,0.9,0.6,1.2,1.3,1.2C60.9,114.5,61.5,114.2,62.3,113.5z"/>
				<path d="M65.9,107.6H67l0.1,1.1h0c0.7-0.7,1.5-1.3,2.6-1.3c1.6,0,2.4,1.1,2.4,3v4.9h-1.3v-4.8c0-1.5-0.4-2.1-1.5-2.1
					c-0.8,0-1.3,0.4-2.1,1.2v5.6h-1.3V107.6z"/>
				<path d="M73.6,114.5l0.6-0.8c0.7,0.6,1.4,0.8,2.3,0.8c1,0,1.5-0.5,1.5-1.2c0-0.8-0.9-1.1-1.7-1.5c-1.2-0.4-2.3-1-2.3-2.3
					c0-1.2,1-2.2,2.7-2.2c1,0,1.8,0.4,2.4,0.9l-0.6,0.8c-0.5-0.4-1.1-0.6-1.8-0.6c-1,0-1.4,0.5-1.4,1.1c0,0.7,0.7,1,1.6,1.3
					c1.2,0.4,2.4,1,2.4,2.4c0,1.3-1,2.3-2.8,2.3C75.4,115.6,74.3,115.2,73.6,114.5z"/>
				<path d="M84.2,104.9h3c2.4,0,4,0.8,4,3.1c0,2.2-1.6,3.2-3.9,3.2h-1.7v4.2h-1.3V104.9z M87.1,110.1c1.8,0,2.7-0.7,2.7-2.2
					c0-1.5-0.9-2-2.8-2h-1.5v4.2H87.1z"/>
			</g>
			<g class="st0">
				<path d="M93,107.6H94l0.1,1.4h0c0.5-1,1.3-1.6,2.2-1.6c0.4,0,0.6,0,0.8,0.2l-0.3,1.1c-0.2-0.1-0.4-0.1-0.7-0.1
					c-0.7,0-1.4,0.5-2,1.8v5H93V107.6z"/>
			</g>
			<g class="st0">
				<path d="M97.6,111.5c0-2.6,1.7-4.1,3.6-4.1s3.6,1.5,3.6,4.1c0,2.6-1.7,4.1-3.6,4.1S97.6,114.1,97.6,111.5z M103.5,111.5
					c0-1.8-0.9-3-2.2-3c-1.3,0-2.2,1.2-2.2,3c0,1.8,0.9,3,2.2,3C102.6,114.5,103.5,113.3,103.5,111.5z"/>
			</g>
			<g class="st0">
				<path d="M109.9,104.9h3.3c2.1,0,3.7,0.8,3.7,3c0,1.6-0.9,2.6-2.4,3l2.7,4.6h-1.5l-2.5-4.4h-1.9v4.4h-1.3V104.9z M113,109.9
					c1.6,0,2.5-0.7,2.5-2c0-1.4-0.9-1.9-2.5-1.9h-1.7v3.9H113z"/>
				<path d="M117.8,111.5c0-2.5,1.7-4.1,3.5-4.1c2,0,3.1,1.4,3.1,3.7c0,0.3,0,0.5-0.1,0.8h-5.2c0.1,1.6,1.1,2.7,2.6,2.7
					c0.8,0,1.4-0.2,2-0.6l0.5,0.8c-0.7,0.5-1.5,0.8-2.6,0.8C119.5,115.6,117.8,114.1,117.8,111.5z M123.2,110.8
					c0-1.5-0.7-2.4-1.9-2.4c-1.1,0-2,0.9-2.2,2.4H123.2z"/>
			</g>
			<g class="st0">
				<path d="M125.6,116.9c0-0.7,0.4-1.3,1.1-1.8v-0.1c-0.4-0.2-0.7-0.7-0.7-1.3c0-0.7,0.4-1.2,0.8-1.4v-0.1c-0.5-0.4-1-1.2-1-2.1
					c0-1.7,1.3-2.8,2.9-2.8c0.4,0,0.8,0.1,1.1,0.2h2.7v1H131c0.4,0.4,0.6,0.9,0.6,1.6c0,1.7-1.3,2.7-2.8,2.7c-0.4,0-0.8-0.1-1.2-0.3
					c-0.3,0.2-0.5,0.5-0.5,0.9c0,0.5,0.3,0.8,1.4,0.8h1.5c1.8,0,2.7,0.6,2.7,1.9c0,1.5-1.5,2.7-3.9,2.7
					C126.9,119,125.6,118.2,125.6,116.9z M131.4,116.5c0-0.7-0.5-1-1.6-1h-1.3c-0.3,0-0.7,0-1-0.1c-0.6,0.4-0.8,0.9-0.8,1.3
					c0,0.8,0.8,1.3,2.3,1.3C130.4,118,131.4,117.3,131.4,116.5z M130.4,110.2c0-1.1-0.7-1.8-1.6-1.8c-0.9,0-1.6,0.7-1.6,1.8
					s0.8,1.8,1.6,1.8S130.4,111.3,130.4,110.2z"/>
				<path d="M134,112.5v-4.9h1.3v4.8c0,1.4,0.4,2.1,1.5,2.1c0.8,0,1.3-0.4,2.1-1.3v-5.5h1.3v7.8h-1.1l-0.1-1.2h0
					c-0.7,0.8-1.5,1.4-2.6,1.4C134.7,115.6,134,114.5,134,112.5z"/>
				<path d="M142.6,113.8V104h1.3v9.9c0,0.4,0.2,0.6,0.4,0.6c0.1,0,0.1,0,0.3,0l0.2,1c-0.2,0.1-0.4,0.1-0.8,0.1
					C143,115.6,142.6,114.9,142.6,113.8z"/>
				<path d="M146,113.4c0-1.7,1.4-2.6,4.8-2.9c0-1-0.3-1.9-1.6-1.9c-0.9,0-1.7,0.4-2.3,0.8l-0.5-0.9c0.7-0.5,1.8-1,3.1-1
					c1.9,0,2.7,1.3,2.7,3.2v4.8h-1.1l-0.1-0.9h0c-0.7,0.6-1.6,1.1-2.6,1.1C147,115.6,146,114.8,146,113.4z M150.8,113.5v-2.1
					c-2.6,0.3-3.5,0.9-3.5,1.9c0,0.9,0.6,1.2,1.3,1.2C149.4,114.5,150.1,114.2,150.8,113.5z"/>
				<path d="M154.4,107.6h1.1l0.1,1.4h0c0.5-1,1.3-1.6,2.2-1.6c0.4,0,0.6,0,0.8,0.2l-0.3,1.1c-0.2-0.1-0.4-0.1-0.7-0.1
					c-0.7,0-1.4,0.5-2,1.8v5h-1.3V107.6z"/>
			</g>
			<g class="st0">
				<path d="M184.4,104.9h3.1c2.1,0,3.6,0.7,3.6,2.6c0,1-0.6,2-1.5,2.3v0.1c1.2,0.2,2.1,1.1,2.1,2.5c0,2.1-1.6,3.1-4,3.1h-3.4V104.9
					z M187.3,109.4c1.8,0,2.5-0.7,2.5-1.7c0-1.2-0.8-1.7-2.5-1.7h-1.6v3.4H187.3z M187.6,114.3c1.8,0,2.8-0.6,2.8-2
					c0-1.3-1-1.9-2.8-1.9h-1.8v3.9H187.6z"/>
				<path d="M193.1,111.5c0-2.6,1.7-4.1,3.6-4.1s3.6,1.5,3.6,4.1c0,2.6-1.7,4.1-3.6,4.1S193.1,114.1,193.1,111.5z M199,111.5
					c0-1.8-0.9-3-2.2-3c-1.3,0-2.2,1.2-2.2,3c0,1.8,0.9,3,2.2,3C198.1,114.5,199,113.3,199,111.5z"/>
				<path d="M201.8,111.5c0-2.5,1.6-4.1,3.4-4.1c0.9,0,1.5,0.3,2.2,0.9l-0.1-1.3v-3h1.3v11.4h-1.1l-0.1-0.9h0
					c-0.6,0.6-1.4,1.1-2.4,1.1C203.1,115.6,201.8,114.1,201.8,111.5z M207.3,113.4v-4.1c-0.7-0.6-1.2-0.8-1.9-0.8
					c-1.2,0-2.2,1.2-2.2,3c0,1.9,0.8,3,2.1,3C206.1,114.5,206.7,114.1,207.3,113.4z"/>
				<path d="M210.5,118.6l0.3-1c0.2,0.1,0.4,0.1,0.6,0.1c0.9,0,1.4-0.7,1.7-1.6l0.2-0.6l-3.1-7.8h1.4l1.6,4.3
					c0.3,0.7,0.5,1.5,0.8,2.2h0.1c0.2-0.7,0.4-1.5,0.6-2.2l1.4-4.3h1.3l-2.9,8.4c-0.5,1.5-1.4,2.7-2.9,2.7
					C211.1,118.7,210.7,118.7,210.5,118.6z"/>
			</g>
			<g class="st0">
				<path d="M221.4,111.5c0-2.6,1.7-4.1,3.7-4.1c1,0,1.7,0.4,2.3,0.9l-0.7,0.8c-0.4-0.4-0.9-0.6-1.6-0.6c-1.4,0-2.4,1.2-2.4,3
					c0,1.8,1,3,2.4,3c0.7,0,1.4-0.3,1.8-0.7l0.6,0.8c-0.7,0.6-1.6,1-2.5,1C223,115.6,221.4,114.1,221.4,111.5z"/>
			</g>
			<g class="st0">
				<path d="M228.3,111.5c0-2.6,1.7-4.1,3.6-4.1c1.9,0,3.6,1.5,3.6,4.1c0,2.6-1.7,4.1-3.6,4.1C230,115.6,228.3,114.1,228.3,111.5z
					 M234.2,111.5c0-1.8-0.9-3-2.2-3c-1.3,0-2.2,1.2-2.2,3c0,1.8,0.9,3,2.2,3C233.3,114.5,234.2,113.3,234.2,111.5z"/>
			</g>
			<g class="st0">
				<path d="M237.6,107.6h1.1l0.1,0.9h0c0.7-0.6,1.6-1.1,2.5-1.1c2,0,3.1,1.6,3.1,4c0,2.6-1.6,4.2-3.4,4.2c-0.7,0-1.4-0.3-2.1-0.9
					l0,1.4v2.6h-1.3V107.6z M243,111.4c0-1.7-0.6-2.8-2-2.8c-0.7,0-1.3,0.4-2.1,1.1v4.1c0.7,0.6,1.4,0.8,1.9,0.8
					C242.1,114.5,243,113.3,243,111.4z"/>
			</g>
			<g class="st0">
				<path d="M245.6,118.6l0.3-1c0.2,0.1,0.4,0.1,0.6,0.1c0.9,0,1.4-0.7,1.7-1.6l0.2-0.6l-3.1-7.8h1.4l1.6,4.3
					c0.3,0.7,0.5,1.5,0.8,2.2h0.1c0.2-0.7,0.4-1.5,0.6-2.2l1.4-4.3h1.3l-2.9,8.4c-0.5,1.5-1.4,2.7-2.9,2.7
					C246.2,118.7,245.9,118.7,245.6,118.6z"/>
			</g>
			<g class="st0">
				<path d="M0.8,29.1l0.4-0.5c0.8,0.9,1.9,1.4,3.1,1.4c1.6,0,2.7-0.9,2.7-2.2c0-1.3-0.9-1.8-1.9-2.2L3.5,25
					c-0.9-0.4-2.1-1.1-2.1-2.6c0-1.5,1.3-2.6,3-2.6c1.3,0,2.3,0.6,2.9,1.2l-0.4,0.5c-0.6-0.7-1.5-1.1-2.5-1.1
					c-1.4,0-2.4,0.8-2.4,1.9c0,1.2,1.1,1.7,1.8,2l1.6,0.7c1.2,0.5,2.2,1.2,2.2,2.8c0,1.6-1.3,2.8-3.4,2.8C2.8,30.7,1.6,30,0.8,29.1z
					"/>
				<path d="M9,25.2c0-3.3,1.8-5.4,4.3-5.4c2.5,0,4.3,2.1,4.3,5.4c0,3.3-1.8,5.5-4.3,5.5C10.8,30.7,9,28.5,9,25.2z M17,25.2
					c0-2.9-1.4-4.8-3.6-4.8c-2.2,0-3.6,1.9-3.6,4.8c0,3,1.5,4.9,3.6,4.9C15.5,30.1,17,28.1,17,25.2z"/>
				<path d="M20,26.5V20h0.7v6.4c0,2.8,1.3,3.7,2.8,3.7c1.5,0,2.9-0.8,2.9-3.7V20H27v6.5c0,3.3-1.8,4.2-3.6,4.2
					C21.7,30.7,20,29.8,20,26.5z"/>
				<path d="M30,20h3c2.1,0,3.5,0.8,3.5,2.8c0,1.7-1.1,2.7-2.8,2.8l2.9,4.9h-0.8l-2.9-4.9h-2.3v4.9H30V20z M32.8,25
					c1.9,0,2.9-0.8,2.9-2.3c0-1.6-1-2.2-2.9-2.2h-2.1V25H32.8z"/>
				<path d="M37.8,25.2c0-3.3,1.8-5.4,4.5-5.4c1.2,0,2.2,0.6,2.7,1.2l-0.4,0.5c-0.6-0.7-1.3-1.1-2.3-1.1c-2.3,0-3.8,1.9-3.8,4.8
					c0,3,1.4,4.9,3.7,4.9c1.1,0,1.9-0.4,2.7-1.3l0.4,0.4c-0.8,0.9-1.8,1.5-3.1,1.5C39.6,30.7,37.8,28.5,37.8,25.2z"/>
				<path d="M47.3,20h5.7v0.6H48v4h4.2v0.6H48v4.7h5.2v0.6h-5.9V20z"/>
				<path d="M57.6,29.1l0.4-0.5c0.8,0.9,1.9,1.4,3.1,1.4c1.6,0,2.7-0.9,2.7-2.2c0-1.3-0.9-1.8-1.9-2.2L60.3,25
					c-0.9-0.4-2.1-1.1-2.1-2.6c0-1.5,1.3-2.6,3-2.6c1.3,0,2.3,0.6,2.9,1.2l-0.4,0.5c-0.6-0.7-1.5-1.1-2.5-1.1
					c-1.4,0-2.4,0.8-2.4,1.9c0,1.2,1.1,1.7,1.8,2l1.6,0.7c1.2,0.5,2.2,1.2,2.2,2.8c0,1.6-1.3,2.8-3.4,2.8
					C59.6,30.7,58.4,30,57.6,29.1z"/>
				<path d="M68.9,20h0.7l3.7,10.5h-0.7l-1.2-3.6h-4.2l-1.3,3.6h-0.7L68.9,20z M67.3,26.3h3.8l-0.7-2c-0.4-1.2-0.8-2.4-1.2-3.6h-0.1
					c-0.4,1.3-0.7,2.4-1.2,3.6L67.3,26.3z"/>
				<path d="M74.8,20h0.7l4.5,7.5c0.4,0.7,0.8,1.4,1.2,2.1h0.1c0-1-0.1-2-0.1-3.1V20h0.6v10.5h-0.7L76.6,23
					c-0.4-0.7-0.8-1.4-1.2-2.1h-0.1c0,1,0.1,2,0.1,3v6.7h-0.6V20z"/>
				<path d="M84,29.1l0.4-0.5c0.8,0.9,1.9,1.4,3.1,1.4c1.6,0,2.7-0.9,2.7-2.2c0-1.3-0.9-1.8-1.9-2.2L86.7,25
					c-0.9-0.4-2.1-1.1-2.1-2.6c0-1.5,1.3-2.6,3-2.6c1.3,0,2.3,0.6,2.9,1.2l-0.4,0.5c-0.6-0.7-1.5-1.1-2.5-1.1
					c-1.4,0-2.4,0.8-2.4,1.9c0,1.2,1.1,1.7,1.8,2l1.6,0.7c1.2,0.5,2.2,1.2,2.2,2.8c0,1.6-1.3,2.8-3.4,2.8C86,30.7,84.8,30,84,29.1z"
					/>
				<path d="M96,20h2.6c2.4,0,3.8,0.8,3.8,2.9c0,2-1.4,3.1-3.7,3.1h-2v4.6H96V20z M98.5,25.3c2.2,0,3.2-0.7,3.2-2.5
					c0-1.8-1.1-2.4-3.3-2.4h-1.7v4.8H98.5z"/>
				<path d="M104.6,20h3c2.1,0,3.5,0.8,3.5,2.8c0,1.7-1.1,2.7-2.8,2.8l2.9,4.9h-0.8l-2.9-4.9h-2.3v4.9h-0.7V20z M107.4,25
					c1.9,0,2.9-0.8,2.9-2.3c0-1.6-1-2.2-2.9-2.2h-2.1V25H107.4z"/>
				<path d="M112.4,25.2c0-3.3,1.8-5.4,4.3-5.4c2.5,0,4.3,2.1,4.3,5.4c0,3.3-1.8,5.5-4.3,5.5C114.2,30.7,112.4,28.5,112.4,25.2z
					 M120.4,25.2c0-2.9-1.4-4.8-3.6-4.8c-2.2,0-3.6,1.9-3.6,4.8c0,3,1.5,4.9,3.6,4.9C118.9,30.1,120.4,28.1,120.4,25.2z"/>
				<path d="M126.4,20h0.7v10h4.9v0.6h-5.6V20z"/>
				<path d="M133.7,20h0.7v10.5h-0.7V20z"/>
				<path d="M136.7,25.2c0-3.3,1.9-5.4,4.7-5.4c1.4,0,2.3,0.7,2.9,1.2l-0.4,0.5c-0.5-0.6-1.3-1.1-2.4-1.1c-2.4,0-3.9,1.9-3.9,4.8
					c0,3,1.4,4.9,3.8,4.9c1,0,1.9-0.3,2.4-0.8v-3.3h-2.5v-0.6h3.2v4.2c-0.6,0.7-1.7,1.2-3.1,1.2C138.5,30.7,136.7,28.5,136.7,25.2z"
					/>
				<path d="M146.8,20h0.7v4.6h5.7V20h0.7v10.5h-0.7v-5.3h-5.7v5.3h-0.7V20z"/>
				<path d="M159.2,20.5h-3.4V20h7.4v0.6h-3.4v10h-0.7V20.5z"/>
			</g>
		</g>
	</g>
</g>
</svg>
