<?xml version="1.0" encoding="utf-8"?>
<!-- Generator: Adobe Illustrator 26.4.1, SVG Export Plug-In . SVG Version: 6.00 Build 0)  -->
<svg version="1.1" id="Layer_1" xmlns="http://www.w3.org/2000/svg" xmlns:xlink="http://www.w3.org/1999/xlink" x="0px" y="0px"
	 viewBox="0 0 325.3 116.1" style="enable-background:new 0 0 325.3 116.1;" xml:space="preserve">
<style type="text/css">
	.st0{enable-background:new    ;}
</style>
<g id="a">
</g>
<g id="b">
	<g id="c">
		<g>
			<g class="st0">
				<path d="M15.5,18.6H4.6l-2.4,5.2H0.1L9,4.2h2l9,19.6h-2.2L15.5,18.6z M14.7,16.9L10,6.4L5.3,16.9H14.7z"/>
			</g>
			<g class="st0">
				<path d="M33.1,14.7v9.1h-1.9v-2.3c-0.9,1.5-2.6,2.4-5.1,2.4c-3.3,0-5.4-1.7-5.4-4.3c0-2.3,1.5-4.2,5.7-4.2h4.7v-0.9
					c0-2.5-1.4-3.9-4.2-3.9c-1.9,0-3.7,0.7-4.9,1.7l-0.9-1.5c1.5-1.3,3.7-2,6-2C30.9,9,33.1,10.9,33.1,14.7z M31.1,19.4V17h-4.6
					c-2.9,0-3.8,1.1-3.8,2.6c0,1.7,1.4,2.8,3.7,2.8C28.7,22.4,30.3,21.3,31.1,19.4z"/>
			</g>
			<g class="st0">
				<path d="M53.9,18.6c0,3.3-2.5,5.2-7.4,5.2h-9V4.2H46c4.4,0,6.9,1.8,6.9,5c0,2.2-1.2,3.7-3,4.5C52.4,14.3,53.9,15.9,53.9,18.6z
					 M39.6,5.9V13h6.2c3.1,0,5-1.2,5-3.6s-1.8-3.6-5-3.6H39.6z M51.8,18.4c0-2.5-1.9-3.7-5.3-3.7h-6.9v7.4h6.9
					C49.9,22.1,51.8,21,51.8,18.4z"/>
			</g>
			<g class="st0">
				<path d="M72.1,16.4c0,4.5-3.1,7.5-7.3,7.5c-2.4,0-4.5-1.1-5.7-3.1v2.9h-1.9V3h2v8.8C60.4,10,62.4,9,64.8,9
					C69,9,72.1,12,72.1,16.4z M70.1,16.4c0-3.4-2.4-5.7-5.5-5.7c-3.1,0-5.5,2.3-5.5,5.7c0,3.4,2.4,5.7,5.5,5.7
					C67.8,22.2,70.1,19.9,70.1,16.4z"/>
			</g>
			<g class="st0">
				<path d="M74.1,14c0-5.7,4.4-10,10.3-10c2.9,0,5.4,1,7.2,2.9l-1.3,1.3c-1.6-1.6-3.6-2.3-5.8-2.3c-4.7,0-8.3,3.5-8.3,8.1
					c0,4.6,3.6,8.1,8.3,8.1c2.2,0,4.2-0.7,5.8-2.4l1.3,1.3C89.9,23,87.3,24,84.4,24C78.5,24,74.1,19.7,74.1,14z"/>
			</g>
			<g class="st0">
				<path d="M92.8,16.4C92.8,12,96,9,100.4,9c2.5,0,4.6,1,5.8,2.9l-1.5,1c-1-1.5-2.6-2.2-4.3-2.2c-3.2,0-5.6,2.3-5.6,5.7
					c0,3.5,2.4,5.7,5.6,5.7c1.7,0,3.3-0.7,4.3-2.2l1.5,1c-1.2,1.9-3.3,2.9-5.8,2.9C96,23.9,92.8,20.8,92.8,16.4z"/>
			</g>
			<g class="st0">
				<path d="M147.2,12.9h-6.2l-1.3,3h-1.2l5.1-11.2h1.2l5.1,11.2h-1.2L147.2,12.9z M146.7,11.9l-2.7-6l-2.7,6H146.7z"/>
			</g>
			<g class="st0">
				<path d="M165.9,12.9c0,1.9-1.4,3-4.2,3h-5.2V4.7h4.8c2.5,0,3.9,1.1,3.9,2.9c0,1.3-0.7,2.1-1.7,2.5
					C165,10.4,165.9,11.4,165.9,12.9z M157.7,5.7v4.1h3.6c1.8,0,2.8-0.7,2.8-2s-1-2-2.8-2H157.7z M164.7,12.8c0-1.5-1.1-2.1-3-2.1
					h-4v4.2h4C163.6,14.9,164.7,14.3,164.7,12.8z"/>
			</g>
			<g class="st0">
				<path d="M172.5,10.3c0-3.3,2.5-5.7,5.9-5.7c1.6,0,3.1,0.5,4.1,1.6L181.7,7c-0.9-0.9-2-1.3-3.3-1.3c-2.7,0-4.7,2-4.7,4.6
					s2,4.6,4.7,4.6c1.3,0,2.4-0.4,3.3-1.3l0.8,0.8c-1,1.1-2.5,1.6-4.1,1.6C175,16,172.5,13.6,172.5,10.3z"/>
			</g>
			<g class="st0">
				<path d="M189.9,4.7h4.6c3.6,0,6,2.3,6,5.6c0,3.3-2.4,5.6-6,5.6h-4.6V4.7z M194.4,14.9c3,0,4.9-1.9,4.9-4.6
					c0-2.7-1.9-4.6-4.9-4.6h-3.3v9.2H194.4z"/>
			</g>
			<g class="st0">
				<path d="M215.9,14.9v1H208V4.7h7.7v1h-6.5v4h5.8v1h-5.8v4.2H215.9z"/>
			</g>
			<g class="st0">
				<path d="M224.8,5.7v4.4h5.8v1h-5.8v4.8h-1.2V4.7h7.7v1H224.8z"/>
			</g>
			<g class="st0">
				<path d="M246.5,10.3h1.1v4.3c-1.1,0.9-2.6,1.4-4.1,1.4c-3.4,0-5.9-2.4-5.9-5.7s2.5-5.7,5.9-5.7c1.7,0,3.2,0.5,4.2,1.6L247,7
					c-0.9-0.9-2.1-1.3-3.4-1.3c-2.8,0-4.8,2-4.8,4.6c0,2.7,2,4.6,4.8,4.6c1.1,0,2.1-0.2,2.9-0.9V10.3z"/>
			</g>
			<g class="st0">
				<path d="M265.3,4.7v11.2h-1.2v-5.2h-7v5.2h-1.2V4.7h1.2v5h7v-5H265.3z"/>
			</g>
			<g class="st0">
				<path d="M273.8,4.7h1.2v11.2h-1.2V4.7z"/>
			</g>
			<g class="st0">
				<path d="M281.6,14.4l0.7-0.8c0.6,0.9,1.4,1.4,2.4,1.4c1.4,0,2.1-0.8,2.1-2.5V5.7h-4.1v-1h5.3v7.8c0,2.4-1.1,3.5-3.3,3.5
					C283.5,16,282.3,15.4,281.6,14.4z"/>
			</g>
			<g class="st0">
				<path d="M299.9,10.6l-2.3,2.3v2.9h-1.2V4.7h1.2v6.8l6.6-6.8h1.4l-4.8,5.1l5.2,6.1h-1.4L299.9,10.6z"/>
			</g>
			<g class="st0">
				<path d="M312.7,4.7h1.2v10.2h6.3v1h-7.5V4.7z"/>
			</g>
			<g class="st0">
				<path d="M151.8,23.9v11.2h-1.1v-9l-4.4,7.5h-0.6l-4.4-7.5v8.9h-1.1V23.9h1l4.9,8.3l4.8-8.3H151.8z"/>
			</g>
			<g class="st0">
				<path d="M169.1,23.9v11.2h-1l-7.2-9.1v9.1h-1.2V23.9h1l7.2,9.1v-9.1H169.1z"/>
			</g>
			<g class="st0">
				<path d="M176.1,29.5c0-3.3,2.5-5.7,5.9-5.7c3.4,0,5.9,2.4,5.9,5.7s-2.5,5.7-5.9,5.7C178.6,35.2,176.1,32.8,176.1,29.5z
					 M186.7,29.5c0-2.7-2-4.6-4.7-4.6c-2.7,0-4.7,2-4.7,4.6c0,2.7,2,4.6,4.7,4.6C184.7,34.1,186.7,32.2,186.7,29.5z"/>
			</g>
			<g class="st0">
				<path d="M203.6,27.7c0,2.4-1.7,3.8-4.6,3.8h-3v3.5h-1.2V23.9h4.2C201.9,23.9,203.6,25.3,203.6,27.7z M202.4,27.7
					c0-1.8-1.2-2.8-3.4-2.8h-3v5.6h3C201.2,30.5,202.4,29.5,202.4,27.7z"/>
			</g>
			<g class="st0">
				<path d="M221.9,36c-0.7,0.8-1.6,1.3-2.7,1.3c-1.3,0-2.4-0.6-3.9-2.1c-3.3-0.1-5.7-2.5-5.7-5.7c0-3.3,2.5-5.7,5.9-5.7
					c3.4,0,5.9,2.4,5.9,5.7c0,2.9-1.9,5.1-4.6,5.6c0.8,0.9,1.6,1.3,2.4,1.3c0.8,0,1.5-0.3,2.1-1L221.9,36z M215.5,34.1
					c2.7,0,4.7-2,4.7-4.6s-2-4.6-4.7-4.6c-2.7,0-4.7,2-4.7,4.6S212.8,34.1,215.5,34.1z"/>
			</g>
			<g class="st0">
				<path d="M236,35.1l-2.6-3.6c-0.3,0-0.6,0-0.9,0h-3v3.6h-1.2V23.9h4.2c2.8,0,4.6,1.4,4.6,3.8c0,1.8-0.9,3-2.6,3.5l2.7,3.8H236z
					 M235.9,27.7c0-1.8-1.2-2.8-3.4-2.8h-3v5.6h3C234.8,30.5,235.9,29.5,235.9,27.7z"/>
			</g>
			<g class="st0">
				<path d="M243.2,33.7l0.5-0.9c0.8,0.8,2.2,1.4,3.7,1.4c2.1,0,3-0.9,3-2c0-3.1-6.9-1.2-6.9-5.3c0-1.6,1.3-3.1,4.1-3.1
					c1.3,0,2.6,0.4,3.5,1l-0.4,0.9c-1-0.6-2.1-0.9-3.1-0.9c-2,0-3,0.9-3,2c0,3.1,6.9,1.2,6.9,5.3c0,1.6-1.3,3.1-4.2,3.1
					C245.6,35.2,244,34.6,243.2,33.7z"/>
			</g>
			<g class="st0">
				<path d="M260.6,24.9h-3.9v-1h9.1v1h-3.9v10.2h-1.2V24.9z"/>
			</g>
			<g class="st0">
				<path d="M271.8,30.3v-6.4h1.2v6.4c0,2.7,1.2,3.9,3.4,3.9c2.2,0,3.4-1.2,3.4-3.9v-6.4h1.2v6.4c0,3.2-1.7,4.9-4.6,4.9
					C273.5,35.2,271.8,33.5,271.8,30.3z"/>
			</g>
			<g class="st0">
				<path d="M298.2,23.9l-5,11.2h-1.2l-5-11.2h1.3l4.3,9.7l4.3-9.7H298.2z"/>
			</g>
			<g class="st0">
				<path d="M319.8,23.9L316,35.1h-1.2l-3.3-9.6l-3.3,9.6h-1.2l-3.8-11.2h1.2l3.2,9.6l3.3-9.6h1.1l3.3,9.7l3.3-9.7H319.8z"/>
			</g>
			<g class="st0">
				<path d="M147.2,54.3l-3.6-4.9l-3.6,4.9h-1.4l4.3-5.8l-4-5.4h1.4l3.4,4.6l3.4-4.6h1.3l-4,5.4l4.3,5.8H147.2z"/>
			</g>
			<g class="st0">
				<path d="M159.9,50.4v3.9h-1.2v-3.9l-4.5-7.3h1.3l3.8,6.3l3.8-6.3h1.2L159.9,50.4z"/>
			</g>
			<g class="st0">
				<path d="M179.8,53.3v1h-9.2v-0.8l7.4-9.4h-7.3v-1h8.9v0.8l-7.4,9.4H179.8z"/>
			</g>
			<g class="st0">
				<path d="M193.6,49.1v5.2h-1.1V53c-0.5,0.9-1.5,1.4-2.9,1.4c-1.9,0-3.1-1-3.1-2.4c0-1.3,0.8-2.4,3.2-2.4h2.7V49
					c0-1.4-0.8-2.2-2.4-2.2c-1.1,0-2.1,0.4-2.8,1l-0.5-0.8c0.8-0.7,2.1-1.1,3.4-1.1C192.4,45.8,193.6,46.9,193.6,49.1z M192.5,51.8
					v-1.4h-2.6c-1.6,0-2.2,0.6-2.2,1.5c0,1,0.8,1.6,2.1,1.6C191.1,53.5,192,52.9,192.5,51.8z"/>
			</g>
			<g class="st0">
				<path d="M210.7,50.1c0,2.5-1.8,4.3-4.2,4.3c-1.4,0-2.6-0.6-3.2-1.7v1.7h-1.1V42.4h1.1v5.1c0.7-1.1,1.9-1.7,3.2-1.7
					C208.9,45.8,210.7,47.5,210.7,50.1z M209.5,50.1c0-2-1.4-3.3-3.1-3.3c-1.8,0-3.1,1.3-3.1,3.3s1.3,3.3,3.1,3.3
					C208.2,53.4,209.5,52.1,209.5,50.1z"/>
			</g>
			<g class="st0">
				<path d="M217.6,50.1c0-2.5,1.8-4.3,4.3-4.3c1.4,0,2.6,0.6,3.3,1.7l-0.8,0.6c-0.6-0.8-1.5-1.2-2.4-1.2c-1.8,0-3.2,1.3-3.2,3.3
					c0,2,1.3,3.3,3.2,3.3c1,0,1.9-0.4,2.4-1.2l0.8,0.6c-0.7,1.1-1.9,1.7-3.3,1.7C219.4,54.4,217.6,52.6,217.6,50.1z"/>
			</g>
			<g class="st0">
				<path d="M240.6,42.4v11.9h-1.1v-1.7c-0.7,1.1-1.9,1.7-3.2,1.7c-2.4,0-4.2-1.7-4.2-4.3s1.8-4.3,4.2-4.3c1.3,0,2.5,0.6,3.2,1.7
					v-5.1H240.6z M239.4,50.1c0-2-1.3-3.3-3.1-3.3c-1.8,0-3.1,1.3-3.1,3.3s1.3,3.3,3.1,3.3C238.1,53.4,239.4,52.1,239.4,50.1z"/>
			</g>
			<g class="st0">
				<path d="M256.5,50.4h-7c0.1,1.8,1.5,2.9,3.3,2.9c1,0,1.9-0.4,2.6-1.1L256,53c-0.8,0.9-1.9,1.4-3.2,1.4c-2.6,0-4.4-1.8-4.4-4.3
					s1.7-4.3,4.1-4.3s4.1,1.7,4.1,4.3C256.5,50.2,256.5,50.3,256.5,50.4z M249.4,49.6h6c-0.1-1.6-1.3-2.8-3-2.8
					C250.8,46.8,249.6,47.9,249.4,49.6z"/>
			</g>
			<g class="st0">
				<path d="M265.6,44.9v1h2.6v1h-2.6v7.5h-1.1v-7.5h-1.5v-1h1.5v-1c0-1.5,0.9-2.5,2.5-2.5c0.6,0,1.3,0.2,1.7,0.5l-0.4,0.8
					c-0.3-0.3-0.8-0.4-1.2-0.4C266.1,43.3,265.6,43.8,265.6,44.9z"/>
			</g>
			<g class="st0">
				<path d="M282.9,45.9v7.4c0,2.9-1.4,4.2-4.2,4.2c-1.5,0-3-0.5-3.9-1.3l0.6-0.9c0.8,0.7,2,1.2,3.3,1.2c2.1,0,3.1-1,3.1-3.1v-1.1
					c-0.7,1.1-1.9,1.6-3.3,1.6c-2.4,0-4.2-1.7-4.2-4.1s1.8-4.1,4.2-4.1c1.4,0,2.6,0.6,3.3,1.7v-1.6H282.9z M281.8,49.9
					c0-1.8-1.3-3.1-3.2-3.1c-1.9,0-3.2,1.2-3.2,3.1c0,1.8,1.3,3.1,3.2,3.1C280.5,53,281.8,51.7,281.8,49.9z"/>
			</g>
			<g class="st0">
				<path d="M299.3,49.4v4.9h-1.1v-4.8c0-1.8-0.9-2.7-2.5-2.7c-1.8,0-2.9,1.1-2.9,3v4.4h-1.1V42.4h1.1v4.9c0.6-1,1.7-1.5,3.2-1.5
					C297.9,45.8,299.3,47,299.3,49.4z"/>
			</g>
			<g class="st0">
				<path d="M307.5,43.2c0-0.4,0.4-0.8,0.8-0.8c0.5,0,0.8,0.4,0.8,0.8c0,0.5-0.4,0.8-0.8,0.8C307.9,44,307.5,43.7,307.5,43.2z
					 M307.8,45.9h1.1v8.4h-1.1V45.9z"/>
			</g>
			<g class="st0">
				<path d="M314.5,56.9l0.4-0.9c0.3,0.3,0.8,0.4,1.3,0.4c0.9,0,1.4-0.5,1.4-1.6v-9h1.1v9c0,1.6-0.9,2.6-2.5,2.6
					C315.6,57.5,314.9,57.3,314.5,56.9z M317.3,43.2c0-0.4,0.4-0.8,0.8-0.8s0.8,0.4,0.8,0.8c0,0.5-0.4,0.8-0.8,0.8
					C317.7,44,317.3,43.7,317.3,43.2z"/>
			</g>
			<g class="st0">
				<path d="M143,69.3l-2,1.8v2.4h-1.1V61.6h1.1v8.1l5-4.6h1.4l-3.6,3.4l3.9,5h-1.4L143,69.3z"/>
			</g>
			<g class="st0">
				<path d="M154,61.6h1.1v11.9H154V61.6z"/>
			</g>
			<g class="st0">
				<path d="M176.8,68.6v4.9h-1.1v-4.8c0-1.8-0.9-2.7-2.4-2.7c-1.7,0-2.8,1.1-2.8,3v4.4h-1.1v-4.8c0-1.8-0.9-2.7-2.4-2.7
					c-1.7,0-2.8,1.1-2.8,3v4.4h-1.1v-8.4h1.1v1.5c0.6-1,1.7-1.6,3.1-1.6c1.4,0,2.5,0.6,3,1.8c0.6-1.1,1.8-1.8,3.3-1.8
					C175.4,65,176.8,66.2,176.8,68.6z"/>
			</g>
			<g class="st0">
				<path d="M192.1,68.6v4.9H191v-4.8c0-1.8-0.9-2.7-2.5-2.7c-1.8,0-2.9,1.1-2.9,3v4.4h-1.1v-8.4h1.1v1.6c0.6-1,1.7-1.6,3.2-1.6
					C190.7,65,192.1,66.2,192.1,68.6z"/>
			</g>
			<g class="st0">
				<path d="M198.9,69.3c0-2.5,1.8-4.3,4.3-4.3c2.5,0,4.3,1.8,4.3,4.3s-1.8,4.3-4.3,4.3C200.7,73.6,198.9,71.8,198.9,69.3z
					 M206.3,69.3c0-2-1.3-3.3-3.1-3.3c-1.8,0-3.1,1.3-3.1,3.3s1.3,3.3,3.1,3.3C205,72.6,206.3,71.3,206.3,69.3z"/>
			</g>
			<g class="st0">
				<path d="M222.8,69.3c0,2.6-1.8,4.3-4.2,4.3c-1.3,0-2.5-0.6-3.2-1.7v4.7h-1.1V65.1h1.1v1.7c0.7-1.1,1.9-1.7,3.2-1.7
					C221,65,222.8,66.7,222.8,69.3z M221.7,69.3c0-2-1.4-3.3-3.1-3.3c-1.8,0-3.1,1.3-3.1,3.3c0,2,1.3,3.3,3.1,3.3
					C220.3,72.6,221.7,71.3,221.7,69.3z"/>
			</g>
			<g class="st0">
				<path d="M237.4,65.1v11.5h-1.1v-4.7c-0.7,1.1-1.9,1.7-3.2,1.7c-2.4,0-4.2-1.7-4.2-4.3c0-2.5,1.8-4.3,4.2-4.3
					c1.4,0,2.6,0.6,3.2,1.7v-1.7H237.4z M236.2,69.3c0-2-1.3-3.3-3.1-3.3c-1.8,0-3.1,1.3-3.1,3.3c0,2,1.3,3.3,3.1,3.3
					C234.9,72.6,236.2,71.3,236.2,69.3z"/>
			</g>
			<g class="st0">
				<path d="M249.3,65v1.1c-0.1,0-0.2,0-0.3,0c-1.8,0-2.8,1.1-2.8,3.1v4.3H245v-8.4h1.1v1.6C246.7,65.6,247.7,65,249.3,65z"/>
			</g>
			<g class="st0">
				<path d="M254.8,72.5l0.5-0.9c0.7,0.5,1.8,0.9,3,0.9c1.6,0,2.3-0.5,2.3-1.4c0-2.2-5.5-0.5-5.5-3.8c0-1.4,1.2-2.4,3.3-2.4
					c1.1,0,2.3,0.3,3,0.8l-0.5,0.9c-0.7-0.5-1.6-0.7-2.5-0.7c-1.5,0-2.2,0.6-2.2,1.4c0,2.3,5.5,0.6,5.5,3.8c0,1.5-1.3,2.4-3.5,2.4
					C256.8,73.6,255.5,73.1,254.8,72.5z"/>
			</g>
			<g class="st0">
				<path d="M272.8,73c-0.4,0.4-1.1,0.6-1.8,0.6c-1.6,0-2.5-0.9-2.5-2.4V66H267v-1h1.5v-1.8h1.1v1.8h2.6v1h-2.6v5
					c0,1,0.5,1.5,1.5,1.5c0.5,0,0.9-0.1,1.2-0.4L272.8,73z"/>
			</g>
			<g class="st0">
				<path d="M286.9,65.1v8.4h-1.1V72c-0.6,1-1.7,1.6-3,1.6c-2.1,0-3.6-1.2-3.6-3.6v-4.9h1.1v4.8c0,1.8,0.9,2.7,2.5,2.7
					c1.8,0,2.9-1.1,2.9-3.1v-4.4H286.9z"/>
			</g>
			<g class="st0">
				<path d="M301.7,65.1l-3.7,8.4h-1.2l-3.7-8.4h1.2l3.2,7.2l3.2-7.2H301.7z"/>
			</g>
			<g class="st0">
				<path d="M320.2,65.1l-3.2,8.4h-1.1l-2.7-6.9l-2.7,6.9h-1.1l-3.2-8.4h1.1l2.6,7.2l2.7-7.2h1l2.7,7.2l2.7-7.2H320.2z"/>
			</g>
			<g class="st0">
				<path d="M145.3,92.7l-2.7-3.5l-2.7,3.5h-1.3l3.3-4.3l-3.2-4.1h1.3l2.5,3.3l2.5-3.3h1.2l-3.2,4.1l3.4,4.3H145.3z"/>
			</g>
			<g class="st0">
				<path d="M160.8,84.3l-4.2,9.4c-0.7,1.6-1.6,2.2-2.8,2.2c-0.8,0-1.5-0.3-2-0.8l0.5-0.8c0.4,0.4,0.9,0.6,1.5,0.6
					c0.8,0,1.3-0.4,1.7-1.4l0.4-0.8l-3.8-8.4h1.2l3.2,7.2l3.2-7.2H160.8z"/>
			</g>
			<g class="st0">
				<path d="M173.6,91.8v0.9h-6.9v-0.8l5.3-6.7h-5.2v-1h6.7V85l-5.3,6.7H173.6z"/>
			</g>
			<g class="st0">
				<path d="M183.5,81.5v11.2h-1.2V82.5h-2.6v-1H183.5z"/>
			</g>
			<g class="st0">
				<path d="M199.1,91.7v1h-7.9v-0.8l4.7-4.6c1.3-1.2,1.5-2,1.5-2.8c0-1.3-0.9-2.1-2.6-2.1c-1.3,0-2.3,0.4-3.1,1.2l-0.8-0.7
					c0.9-1,2.3-1.6,4-1.6c2.3,0,3.7,1.2,3.7,3c0,1.1-0.3,2-1.8,3.5l-3.8,3.7H199.1z"/>
			</g>
			<g class="st0">
				<path d="M213.2,89.5c0,1.9-1.4,3.3-4.1,3.3c-1.6,0-3.2-0.6-4-1.4l0.6-0.9c0.7,0.8,2,1.3,3.5,1.3c1.9,0,2.9-0.9,2.9-2.3
					c0-1.3-0.9-2.2-3-2.2h-0.8v-0.8l3.1-3.9h-5.7v-1h7.2v0.8l-3.2,4C212,86.4,213.2,87.7,213.2,89.5z"/>
			</g>
			<g class="st0">
				<path d="M229.6,89.7h-2.2v2.9h-1.2v-2.9h-6.3v-0.8l5.9-7.4h1.3l-5.7,7.2h4.9v-2.6h1.1v2.6h2.2V89.7z"/>
			</g>
			<g class="st0">
				<path d="M243.6,89.4c0,1.9-1.3,3.4-4.1,3.4c-1.6,0-3.2-0.6-4-1.4l0.6-0.9c0.7,0.8,2,1.3,3.4,1.3c1.9,0,2.9-0.9,2.9-2.3
					c0-1.4-0.9-2.3-3.7-2.3h-2.4l0.6-5.6h6.1v1h-5.1l-0.4,3.6h1.4C242.3,86.1,243.6,87.4,243.6,89.4z"/>
			</g>
			<g class="st0">
				<path d="M258.7,89.3c0,2.1-1.6,3.4-3.8,3.4c-3,0-4.6-2.1-4.6-5.6c0-3.8,2.1-5.8,5.1-5.8c1,0,2,0.2,2.7,0.6l-0.5,0.9
					c-0.6-0.4-1.3-0.5-2.2-0.5c-2.4,0-4,1.6-4,4.6c0,0.3,0,0.6,0,0.9c0.6-1.2,1.9-1.9,3.4-1.9C257.2,86,258.7,87.3,258.7,89.3z
					 M257.6,89.4c0-1.5-1.1-2.4-2.8-2.4c-1.7,0-2.9,1.1-2.9,2.4c0,1.2,1,2.4,3,2.4C256.5,91.8,257.6,90.9,257.6,89.4z"/>
			</g>
			<g class="st0">
				<path d="M273.2,81.5v0.8l-4.7,10.4h-1.2l4.6-10.2h-5.8v2.1H265v-3.1H273.2z"/>
			</g>
			<g class="st0">
				<path d="M288.7,89.6c0,2-1.7,3.2-4.4,3.2c-2.7,0-4.3-1.2-4.3-3.2c0-1.3,0.8-2.3,2.2-2.8c-1.1-0.4-1.8-1.3-1.8-2.5
					c0-1.8,1.6-3,3.9-3s4,1.1,4,3c0,1.2-0.6,2-1.8,2.5C287.9,87.3,288.7,88.2,288.7,89.6z M287.5,89.6c0-1.4-1.2-2.2-3.2-2.2
					s-3.2,0.9-3.2,2.2c0,1.4,1.2,2.3,3.2,2.3S287.5,90.9,287.5,89.6z M284.3,86.4c1.7,0,2.8-0.8,2.8-2c0-1.3-1.1-2-2.8-2
					c-1.7,0-2.8,0.8-2.8,2C281.5,85.6,282.6,86.4,284.3,86.4z"/>
			</g>
			<g class="st0">
				<path d="M303.6,87c0,3.8-2.1,5.8-5.1,5.8c-1,0-2-0.2-2.7-0.6l0.5-0.9c0.6,0.4,1.3,0.5,2.2,0.5c2.4,0,4-1.6,4-4.6
					c0-0.3,0-0.6,0-0.9c-0.6,1.2-1.9,1.9-3.4,1.9c-2.2,0-3.8-1.3-3.8-3.4c0-2.1,1.6-3.4,3.8-3.4C302,81.4,303.6,83.5,303.6,87z
					 M302,84.8c0-1.2-1-2.4-3-2.4c-1.6,0-2.7,0.9-2.7,2.4c0,1.5,1.1,2.4,2.8,2.4C300.9,87.2,302,86.2,302,84.8z"/>
			</g>
			<g class="st0">
				<path d="M310.6,87.1c0-3.6,1.9-5.7,4.5-5.7c2.6,0,4.5,2.1,4.5,5.7s-1.9,5.7-4.5,5.7C312.4,92.8,310.6,90.7,310.6,87.1z
					 M318.3,87.1c0-3-1.3-4.6-3.3-4.6s-3.3,1.6-3.3,4.6s1.3,4.6,3.3,4.6S318.3,90.1,318.3,87.1z"/>
			</g>
			<g class="st0">
				<path d="M139.6,111.1c0-0.5,0.4-0.8,0.8-0.8c0.5,0,0.8,0.4,0.8,0.8c0,0.4-0.4,0.8-0.8,0.8C139.9,112,139.6,111.6,139.6,111.1z
					 M139.7,100.7h1.3l-0.2,7.8H140L139.7,100.7z"/>
			</g>
			<g class="st0">
				<path d="M168.4,107.7c0,2.7-1,4.3-2.7,4.3c-1,0-1.7-0.6-1.8-1.7c-0.6,1.1-1.8,1.7-3.2,1.7c-2.3,0-4-1.7-4-4.1
					c0-2.4,1.7-4.1,4-4.1c1.4,0,2.5,0.6,3.2,1.7v-1.6h1v6.1c0,0.9,0.4,1.2,1,1.2c1,0,1.6-1.2,1.6-3.4c0-3.8-2.7-6.3-6.6-6.3
					c-3.9,0-6.6,2.6-6.6,6.4c0,3.8,2.6,6.5,6.5,6.5c1,0,2.1-0.2,3.1-0.7l0.3,0.8c-1,0.5-2.3,0.7-3.3,0.7c-4.4,0-7.4-3-7.4-7.3
					c0-4.3,3.1-7.2,7.5-7.2C165.3,100.6,168.4,103.5,168.4,107.7z M163.9,107.8c0-1.9-1.3-3.2-3-3.2c-1.8,0-3.1,1.3-3.1,3.2
					s1.3,3.2,3.1,3.2C162.6,111,163.9,109.8,163.9,107.8z"/>
			</g>
			<g class="st0">
				<path d="M182.8,110.9h6.3v1h-9.3v-1h1.8v-4.2h-1.8v-0.8h1.8v-1.3c0-2.4,1.5-4,4.4-4c1.3,0,2.3,0.3,3.2,0.8l-0.4,1
					c-0.8-0.6-1.7-0.8-2.9-0.8c-2.1,0-3.2,1.1-3.2,2.9v1.3h4.4v0.8h-4.4V110.9z"/>
			</g>
			<g class="st0">
				<path d="M205,112v1.8h-0.8V112c-1.6-0.1-3-0.7-3.8-1.5l0.5-0.9c0.7,0.7,2,1.3,3.4,1.3v-4.2c-1.8-0.4-3.6-1-3.6-3.1
					c0-1.5,1.1-2.9,3.6-3.1v-1.8h0.8v1.8c1.2,0,2.4,0.4,3.2,1l-0.4,0.9c-0.9-0.6-1.9-0.9-2.8-0.9v4.2c1.8,0.4,3.7,0.9,3.7,3.1
					C208.8,110.5,207.6,111.8,205,112z M204.2,105.6v-4c-1.6,0.1-2.4,1-2.4,2C201.9,104.9,202.9,105.3,204.2,105.6z M207.6,109
					c0-1.3-1.2-1.7-2.5-2v4C206.8,110.8,207.6,110,207.6,109z"/>
			</g>
			<g class="st0">
				<path d="M220.3,103.7c0-1.8,1-3,2.5-3c1.5,0,2.5,1.2,2.5,3s-1,3-2.5,3C221.4,106.7,220.3,105.5,220.3,103.7z M224.6,103.7
					c0-1.5-0.7-2.3-1.7-2.3c-1.1,0-1.7,0.9-1.7,2.3s0.7,2.3,1.7,2.3C223.9,106,224.6,105.1,224.6,103.7z M229.6,100.7h0.9l-7.7,11.2
					H222L229.6,100.7z M227.2,108.9c0-1.8,1-3,2.5-3c1.5,0,2.5,1.2,2.5,3c0,1.8-1,3-2.5,3C228.2,112,227.2,110.8,227.2,108.9z
					 M231.5,108.9c0-1.4-0.7-2.3-1.7-2.3c-1,0-1.7,0.9-1.7,2.3c0,1.5,0.7,2.3,1.7,2.3C230.8,111.3,231.5,110.4,231.5,108.9z"/>
			</g>
			<g class="st0">
				<path d="M250,109.6l-2.3-5.7l-2.3,5.7h-0.9l2.8-6.6h1l2.8,6.6H250z"/>
			</g>
			<g class="st0">
				<path d="M272.3,112.1l-1.6-1.6c-0.9,1-2.2,1.5-3.7,1.5c-2.2,0-3.8-1.2-3.8-2.8c0-1.3,0.8-2.3,2.8-3.5c-1.1-1.1-1.4-1.8-1.4-2.7
					c0-1.4,1.1-2.4,2.8-2.4c1.6,0,2.6,0.8,2.6,2.2c0,1.1-0.7,1.9-2.5,3l3.1,3.2c0.3-0.6,0.6-1.3,0.8-2.2l0.9,0.3
					c-0.2,1-0.5,1.9-1,2.6l1.6,1.6L272.3,112.1z M270.1,109.8l-3.4-3.5c-1.8,1-2.3,1.7-2.3,2.7c0,1.2,1.1,2,2.7,2
					C268.3,111,269.3,110.6,270.1,109.8z M265.7,103c0,0.7,0.2,1.1,1.3,2.2c1.6-0.9,2.1-1.5,2.1-2.3c0-0.8-0.6-1.4-1.6-1.4
					C266.4,101.5,265.7,102.1,265.7,103z"/>
			</g>
			<g class="st0">
				<path d="M287.2,102.9l2,1.1l-0.4,0.7l-2-1.2v2.3H286l0-2.3l-2,1.2l-0.4-0.7l2-1.1l-2-1.1l0.4-0.7l2,1.2l0-2.3h0.7v2.3l2-1.2
					l0.4,0.7L287.2,102.9z"/>
			</g>
			<g class="st0">
				<path d="M301.3,107.5c0-2.9,0.7-5.6,1.9-7.5h1.1c-1.3,2.2-1.8,4.6-1.8,7.5c0,2.8,0.6,5.3,1.8,7.5h-1.1
					C302,113.1,301.3,110.5,301.3,107.5z"/>
			</g>
			<g class="st0">
				<path d="M315.7,115c1.3-2.2,1.8-4.6,1.8-7.5c0-2.8-0.6-5.3-1.8-7.5h1.1c1.2,1.9,1.9,4.5,1.9,7.5s-0.7,5.6-1.9,7.5H315.7z"/>
			</g>
			<g class="st0">
				<path d="M13.5,43.1v11.2h-1.1v-9l-4.4,7.5H7.4L3,45.4v8.9H1.8V43.1h1l4.9,8.3l4.8-8.3H13.5z"/>
				<path d="M16,50.1c0-2.5,1.8-4.3,4.3-4.3c2.5,0,4.3,1.8,4.3,4.3s-1.8,4.3-4.3,4.3C17.8,54.4,16,52.6,16,50.1z M23.4,50.1
					c0-2-1.3-3.3-3.1-3.3c-1.8,0-3.1,1.3-3.1,3.3s1.3,3.3,3.1,3.3C22.1,53.4,23.4,52,23.4,50.1z"/>
				<path d="M34.6,49.4v4.9h-1.1v-4.8c0-1.8-0.9-2.7-2.5-2.7c-1.8,0-2.9,1.1-2.9,3v4.4h-1.1v-8.4H28v1.6c0.6-1,1.7-1.6,3.2-1.6
					C33.2,45.8,34.6,47,34.6,49.4z"/>
				<path d="M42.2,53.8c-0.4,0.4-1.1,0.6-1.8,0.6c-1.6,0-2.5-0.9-2.5-2.4v-5.1h-1.5v-1h1.5V44h1.1v1.8h2.6v1h-2.6v5
					c0,1,0.5,1.5,1.5,1.5c0.5,0,0.9-0.1,1.2-0.4L42.2,53.8z"/>
				<path d="M43.1,53.3l0.5-0.9c0.7,0.5,1.8,0.9,3,0.9c1.6,0,2.3-0.5,2.3-1.4c0-2.2-5.5-0.5-5.5-3.8c0-1.4,1.2-2.4,3.3-2.4
					c1.1,0,2.3,0.3,3,0.8l-0.5,0.9c-0.7-0.5-1.6-0.7-2.5-0.7c-1.5,0-2.2,0.6-2.2,1.4c0,2.3,5.5,0.6,5.5,3.8c0,1.5-1.3,2.4-3.5,2.4
					C45.1,54.4,43.7,53.9,43.1,53.3z"/>
				<path d="M59.4,50.4h-7c0.1,1.8,1.5,2.9,3.3,2.9c1,0,1.9-0.4,2.6-1.1l0.6,0.7c-0.8,0.9-1.9,1.4-3.2,1.4c-2.6,0-4.4-1.8-4.4-4.3
					s1.7-4.3,4.1-4.3c2.4,0,4.1,1.7,4.1,4.3C59.4,50.2,59.4,50.3,59.4,50.4z M52.3,49.6h6c-0.1-1.6-1.3-2.8-3-2.8
					C53.7,46.8,52.5,47.9,52.3,49.6z"/>
			</g>
			<g class="st0">
				<path d="M66,45.8v1.1c-0.1,0-0.2,0-0.3,0c-1.8,0-2.8,1.1-2.8,3.1v4.3h-1.1v-8.4h1.1v1.6C63.3,46.4,64.4,45.8,66,45.8z"/>
			</g>
			<g class="st0">
				<path d="M72.2,45.8v1.1c-0.1,0-0.2,0-0.3,0c-1.8,0-2.8,1.1-2.8,3.1v4.3H68v-8.4h1.1v1.6C69.6,46.4,70.7,45.8,72.2,45.8z"/>
			</g>
			<g class="st0">
				<path d="M80.6,49.1v5.2h-1.1V53c-0.5,0.9-1.5,1.4-2.9,1.4c-1.9,0-3.1-1-3.1-2.4c0-1.3,0.8-2.4,3.2-2.4h2.7V49
					c0-1.4-0.8-2.2-2.4-2.2c-1.1,0-2.1,0.4-2.8,1l-0.5-0.8c0.8-0.7,2.1-1.1,3.4-1.1C79.4,45.8,80.6,46.9,80.6,49.1z M79.5,51.8v-1.4
					h-2.6c-1.6,0-2.2,0.6-2.2,1.5c0,1,0.8,1.6,2.1,1.6C78.1,53.5,79,52.9,79.5,51.8z"/>
				<path d="M88.1,53.8c-0.4,0.4-1.1,0.6-1.8,0.6c-1.6,0-2.5-0.9-2.5-2.4v-5.1h-1.5v-1h1.5V44H85v1.8h2.6v1H85v5
					c0,1,0.5,1.5,1.5,1.5c0.5,0,0.9-0.1,1.2-0.4L88.1,53.8z"/>
			</g>
			<g class="st0">
				<path d="M9.5,73.5l-2.6-3.6c-0.3,0-0.6,0-0.9,0H3v3.6H1.8V62.3H6c2.8,0,4.6,1.4,4.6,3.8c0,1.8-0.9,3-2.6,3.5l2.7,3.8H9.5z
					 M9.4,66.1c0-1.8-1.2-2.8-3.4-2.8H3v5.6h3C8.2,68.9,9.4,67.9,9.4,66.1z"/>
				<path d="M20.5,69.6h-7c0.1,1.8,1.5,2.9,3.3,2.9c1,0,1.9-0.4,2.6-1.1l0.6,0.7c-0.8,0.9-1.9,1.4-3.2,1.4c-2.6,0-4.4-1.8-4.4-4.3
					S14,65,16.4,65c2.4,0,4.1,1.7,4.1,4.3C20.5,69.4,20.5,69.5,20.5,69.6z M13.4,68.8h6c-0.1-1.6-1.3-2.8-3-2.8
					C14.8,66,13.6,67.1,13.4,68.8z"/>
				<path d="M30.6,65.1v7.4c0,2.9-1.4,4.2-4.2,4.2c-1.5,0-3-0.5-3.9-1.3l0.6-0.9c0.8,0.7,2,1.2,3.3,1.2c2.1,0,3.1-1,3.1-3.1v-1.1
					c-0.7,1.1-1.9,1.6-3.3,1.6c-2.4,0-4.2-1.7-4.2-4.1s1.8-4.1,4.2-4.1c1.4,0,2.6,0.6,3.3,1.7v-1.6H30.6z M29.5,69.1
					c0-1.8-1.3-3.1-3.2-3.1c-1.9,0-3.2,1.2-3.2,3.1c0,1.8,1.3,3.1,3.2,3.1C28.2,72.2,29.5,70.9,29.5,69.1z"/>
				<path d="M41.4,65.1v8.4h-1.1V72c-0.6,1-1.7,1.6-3,1.6c-2.1,0-3.6-1.2-3.6-3.6v-4.9h1.1v4.8c0,1.8,0.9,2.7,2.5,2.7
					c1.8,0,2.9-1.1,2.9-3.1v-4.4H41.4z"/>
				<path d="M44.6,61.6h1.1v11.9h-1.1V61.6z"/>
				<path d="M55.2,68.3v5.2h-1.1v-1.3c-0.5,0.9-1.5,1.4-2.9,1.4c-1.9,0-3.1-1-3.1-2.4c0-1.3,0.8-2.4,3.2-2.4h2.7v-0.5
					c0-1.4-0.8-2.2-2.4-2.2c-1.1,0-2.1,0.4-2.8,1l-0.5-0.8c0.8-0.7,2.1-1.1,3.4-1.1C54,65,55.2,66.1,55.2,68.3z M54.1,71v-1.4h-2.6
					c-1.6,0-2.2,0.6-2.2,1.5c0,1,0.8,1.6,2.1,1.6C52.7,72.7,53.6,72.1,54.1,71z"/>
				<path d="M62.5,65v1.1c-0.1,0-0.2,0-0.3,0c-1.8,0-2.8,1.1-2.8,3.1v4.3h-1.1v-8.4h1.1v1.6C59.9,65.6,61,65,62.5,65z"/>
			</g>
		</g>
	</g>
</g>
</svg>
