<?xml version="1.0" encoding="utf-8"?>
<!-- Generator: Adobe Illustrator 26.4.1, SVG Export Plug-In . SVG Version: 6.00 Build 0)  -->
<svg version="1.1" id="Layer_1" xmlns="http://www.w3.org/2000/svg" xmlns:xlink="http://www.w3.org/1999/xlink" x="0px" y="0px"
	 viewBox="0 0 325.1 116.2" style="enable-background:new 0 0 325.1 116.2;" xml:space="preserve">
<style type="text/css">
	.st0{enable-background:new    ;}
</style>
<g id="a">
</g>
<g id="b">
	<g id="c">
		<g>
			<g class="st0">
				<path d="M15.5,19.6H6.4l-1.7,4.2H0L8.7,4.2h4.5L22,23.8h-4.8L15.5,19.6z M14.1,16.2l-3.1-7.5l-3.1,7.5H14.1z"/>
			</g>
			<g class="st0">
				<path d="M36.2,15.2v8.6h-4.1v-1.9c-0.8,1.4-2.4,2.1-4.6,2.1c-3.5,0-5.6-2-5.6-4.6c0-2.7,1.9-4.5,6.5-4.5h3.5c0-1.9-1.1-3-3.5-3
					c-1.6,0-3.2,0.5-4.3,1.4l-1.6-3.1c1.7-1.2,4.1-1.8,6.5-1.8C33.5,8.5,36.2,10.6,36.2,15.2z M31.8,19v-1.5h-3
					c-2,0-2.7,0.8-2.7,1.8c0,1.1,0.9,1.8,2.5,1.8C30.1,21.1,31.3,20.4,31.8,19z"/>
			</g>
			<g class="st0">
				<path d="M57.5,18.5c0,3.4-2.7,5.3-7.8,5.3H39.5V4.2h9.6c4.9,0,7.4,2,7.4,5.1c0,2-1,3.5-2.6,4.3C56.1,14.3,57.5,16,57.5,18.5z
					 M44,7.6v4.6h4.5c2.2,0,3.4-0.8,3.4-2.3s-1.2-2.3-3.4-2.3H44z M52.9,18c0-1.7-1.3-2.4-3.6-2.4H44v4.8h5.3
					C51.6,20.4,52.9,19.7,52.9,18z"/>
			</g>
			<g class="st0">
				<path d="M76.3,16.3c0,4.7-3.3,7.8-7.5,7.8c-2,0-3.6-0.6-4.7-2v1.7h-4.2V3h4.4v7.3c1.1-1.2,2.7-1.8,4.5-1.8
					C73,8.5,76.3,11.5,76.3,16.3z M71.9,16.3c0-2.6-1.7-4.2-3.8-4.2s-3.8,1.6-3.8,4.2c0,2.6,1.7,4.2,3.8,4.2S71.9,18.9,71.9,16.3z"
					/>
			</g>
			<g class="st0">
				<path d="M77.6,14c0-5.9,4.5-10.1,10.6-10.1c3.4,0,6.2,1.2,8.1,3.5L93.4,10c-1.3-1.5-3-2.3-4.9-2.3c-3.7,0-6.3,2.6-6.3,6.3
					s2.6,6.3,6.3,6.3c2,0,3.6-0.8,4.9-2.3l2.9,2.7c-1.8,2.3-4.7,3.5-8.1,3.5C82.2,24.1,77.6,19.9,77.6,14z"/>
			</g>
			<g class="st0">
				<path d="M96.8,16.3c0-4.5,3.5-7.8,8.4-7.8c3.2,0,5.7,1.4,6.7,3.8l-3.4,1.8c-0.8-1.4-2-2.1-3.4-2.1c-2.2,0-3.9,1.5-3.9,4.2
					s1.7,4.2,3.9,4.2c1.4,0,2.6-0.6,3.4-2.1l3.4,1.8c-1.1,2.4-3.6,3.8-6.7,3.8C100.3,24,96.8,20.8,96.8,16.3z"/>
			</g>
			<g class="st0">
				<path d="M147.3,13.5h-5.2l-1,2.4h-2.7l5-11.2h2.6l5,11.2h-2.7L147.3,13.5z M146.5,11.5l-1.8-4.3l-1.8,4.3H146.5z"/>
			</g>
			<g class="st0">
				<path d="M167.1,12.8c0,1.9-1.5,3.1-4.5,3.1h-5.8V4.7h5.5c2.8,0,4.2,1.2,4.2,2.9c0,1.1-0.6,2-1.5,2.5
					C166.3,10.5,167.1,11.4,167.1,12.8z M159.4,6.6v2.6h2.6c1.3,0,2-0.4,2-1.3c0-0.9-0.7-1.3-2-1.3H159.4z M164.5,12.6
					c0-0.9-0.7-1.4-2.1-1.4h-3v2.8h3C163.7,13.9,164.5,13.5,164.5,12.6z"/>
			</g>
			<g class="st0">
				<path d="M173,10.3c0-3.4,2.6-5.8,6.1-5.8c1.9,0,3.6,0.7,4.6,2L182,8c-0.8-0.9-1.7-1.3-2.8-1.3c-2.1,0-3.6,1.5-3.6,3.6
					c0,2.1,1.5,3.6,3.6,3.6c1.1,0,2.1-0.4,2.8-1.3l1.7,1.5c-1.1,1.3-2.7,2-4.6,2C175.5,16.1,173,13.7,173,10.3z"/>
			</g>
			<g class="st0">
				<path d="M190,4.7h5.1c3.7,0,6.2,2.2,6.2,5.6s-2.5,5.6-6.2,5.6H190V4.7z M195,13.8c2.2,0,3.7-1.3,3.7-3.5c0-2.1-1.5-3.5-3.7-3.5
					h-2.4v6.9H195z"/>
			</g>
			<g class="st0">
				<path d="M216.5,13.8v2.1h-8.7V4.7h8.5v2.1h-5.9v2.4h5.2v2h-5.2v2.6H216.5z"/>
			</g>
			<g class="st0">
				<path d="M225.8,6.8v3h5.2v2.1h-5.2v4.1h-2.6V4.7h8.5v2.1H225.8z"/>
			</g>
			<g class="st0">
				<path d="M245.7,10.1h2.4v4.5c-1.2,0.9-2.9,1.4-4.5,1.4c-3.5,0-6.1-2.4-6.1-5.8c0-3.4,2.6-5.8,6.2-5.8c2,0,3.6,0.7,4.7,1.9
					L246.6,8c-0.8-0.9-1.8-1.3-2.9-1.3c-2.2,0-3.7,1.5-3.7,3.6c0,2.1,1.5,3.6,3.6,3.6c0.7,0,1.4-0.1,2-0.5V10.1z"/>
			</g>
			<g class="st0">
				<path d="M265.3,4.7v11.2h-2.6v-4.6h-5.1v4.6H255V4.7h2.6v4.4h5.1V4.7H265.3z"/>
			</g>
			<g class="st0">
				<path d="M272.6,4.7h2.6v11.2h-2.6V4.7z"/>
			</g>
			<g class="st0">
				<path d="M280.9,14.5l1.4-1.7c0.6,0.8,1.3,1.2,2.1,1.2c1,0,1.6-0.6,1.6-1.9V6.8h-3.9V4.7h6.5V12c0,2.8-1.4,4.1-4,4.1
					C283,16.1,281.7,15.5,280.9,14.5z"/>
			</g>
			<g class="st0">
				<path d="M299.8,11.5l-1.5,1.6v2.8h-2.6V4.7h2.6v5.2l5-5.2h2.9l-4.6,5l4.9,6.2h-3L299.8,11.5z"/>
			</g>
			<g class="st0">
				<path d="M312.2,4.7h2.6v9.1h5.6v2.1h-8.2V4.7z"/>
			</g>
			<g class="st0">
				<path d="M150.1,35.1l0-6.7l-3.3,5.5h-1.2l-3.3-5.4v6.6h-2.4V23.9h2.1l4.2,7l4.1-7h2.1l0,11.2H150.1z"/>
			</g>
			<g class="st0">
				<path d="M169.5,23.9v11.2h-2.1l-5.6-6.8v6.8h-2.6V23.9h2.1l5.6,6.8v-6.8H169.5z"/>
			</g>
			<g class="st0">
				<path d="M175.4,29.5c0-3.3,2.6-5.8,6.1-5.8c3.5,0,6.1,2.4,6.1,5.8c0,3.3-2.6,5.8-6.1,5.8C178,35.3,175.4,32.8,175.4,29.5z
					 M185.1,29.5c0-2.1-1.5-3.6-3.5-3.6c-2,0-3.5,1.5-3.5,3.6s1.5,3.6,3.5,3.6C183.5,33.1,185.1,31.6,185.1,29.5z"/>
			</g>
			<g class="st0">
				<path d="M203.3,28c0,2.5-1.9,4-4.9,4h-2.3v3.1h-2.6V23.9h4.8C201.5,23.9,203.3,25.4,203.3,28z M200.7,28c0-1.2-0.8-2-2.4-2h-2.1
					v3.9h2.1C199.9,29.9,200.7,29.2,200.7,28z"/>
			</g>
			<g class="st0">
				<path d="M221.5,36.3c-0.7,0.9-1.8,1.4-3,1.4c-1.7,0-2.8-0.6-4.6-2.4c-3.1-0.4-5.2-2.7-5.2-5.7c0-3.3,2.6-5.8,6.1-5.8
					c3.5,0,6.1,2.4,6.1,5.8c0,2.6-1.6,4.7-4,5.5c0.5,0.6,1,0.8,1.6,0.8c0.7,0,1.3-0.3,1.8-0.8L221.5,36.3z M214.8,33.1
					c2,0,3.5-1.5,3.5-3.6s-1.5-3.6-3.5-3.6c-2,0-3.5,1.5-3.5,3.6S212.8,33.1,214.8,33.1z"/>
			</g>
			<g class="st0">
				<path d="M234,35.1l-2.2-3.1h-0.1h-2.3v3.1h-2.6V23.9h4.9c3,0,4.9,1.6,4.9,4.1c0,1.7-0.8,2.9-2.3,3.5l2.5,3.6H234z M231.6,26
					h-2.1v3.9h2.1c1.6,0,2.4-0.7,2.4-2C234,26.7,233.2,26,231.6,26z"/>
			</g>
			<g class="st0">
				<path d="M241.7,34l0.9-2c0.9,0.7,2.4,1.2,3.7,1.2c1.5,0,2.2-0.5,2.2-1.2c0-2.1-6.5-0.7-6.5-4.8c0-1.9,1.5-3.5,4.7-3.5
					c1.4,0,2.8,0.3,3.9,1l-0.8,2c-1-0.6-2.1-0.9-3.1-0.9c-1.5,0-2.1,0.6-2.1,1.3c0,2.1,6.5,0.6,6.5,4.8c0,1.9-1.6,3.5-4.8,3.5
					C244.5,35.3,242.7,34.8,241.7,34z"/>
			</g>
			<g class="st0">
				<path d="M259.2,26h-3.6v-2.1h9.8V26h-3.6v9.1h-2.6V26z"/>
			</g>
			<g class="st0">
				<path d="M270.6,30.2v-6.3h2.6v6.2c0,2.1,0.9,3,2.5,3c1.6,0,2.5-0.9,2.5-3v-6.2h2.6v6.3c0,3.3-1.9,5.1-5.1,5.1
					S270.6,33.5,270.6,30.2z"/>
			</g>
			<g class="st0">
				<path d="M298.1,23.9l-4.9,11.2h-2.6l-4.8-11.2h2.8l3.4,8l3.5-8H298.1z"/>
			</g>
			<g class="st0">
				<path d="M320.2,23.9l-3.7,11.2h-2.8l-2.5-7.6l-2.5,7.6H306l-3.7-11.2h2.7l2.5,7.9l2.6-7.9h2.4l2.6,7.9l2.6-7.9H320.2z"/>
			</g>
			<g class="st0">
				<path d="M147,54.3l-2.7-3.9l-2.7,3.9h-3l4.1-5.7l-3.9-5.5h2.9l2.6,3.6l2.5-3.6h2.8l-3.9,5.4l4.2,5.8H147z"/>
			</g>
			<g class="st0">
				<path d="M161.6,50.3v4h-2.6v-4l-4.3-7.2h2.8l3,5l3-5h2.5L161.6,50.3z"/>
			</g>
			<g class="st0">
				<path d="M181.1,52.2v2.1h-9.8v-1.7l6.1-7.4h-6v-2.1h9.4v1.7l-6.1,7.4H181.1z"/>
			</g>
			<g class="st0">
				<path d="M195.1,49.4v4.9h-2.3v-1.1c-0.5,0.8-1.4,1.2-2.6,1.2c-2,0-3.2-1.1-3.2-2.6c0-1.5,1.1-2.6,3.7-2.6h2c0-1.1-0.6-1.7-2-1.7
					c-0.9,0-1.9,0.3-2.5,0.8l-0.9-1.7c0.9-0.7,2.3-1,3.7-1C193.6,45.6,195.1,46.8,195.1,49.4z M192.7,51.6v-0.9h-1.7
					c-1.2,0-1.5,0.4-1.5,1c0,0.6,0.5,1,1.4,1C191.6,52.7,192.4,52.4,192.7,51.6z"/>
			</g>
			<g class="st0">
				<path d="M211.7,50c0,2.7-1.9,4.4-4.3,4.4c-1.2,0-2.1-0.4-2.7-1.1v1h-2.4V42.4h2.5v4.2c0.6-0.7,1.5-1,2.6-1
					C209.9,45.6,211.7,47.3,211.7,50z M209.2,50c0-1.5-0.9-2.4-2.2-2.4s-2.2,0.9-2.2,2.4s0.9,2.4,2.2,2.4S209.2,51.5,209.2,50z"/>
			</g>
			<g class="st0">
				<path d="M217.7,50c0-2.6,2-4.4,4.8-4.4c1.8,0,3.2,0.8,3.9,2.2l-1.9,1c-0.5-0.8-1.2-1.2-1.9-1.2c-1.3,0-2.3,0.9-2.3,2.4
					s1,2.4,2.3,2.4c0.8,0,1.5-0.4,1.9-1.2l1.9,1.1c-0.6,1.4-2,2.2-3.9,2.2C219.7,54.4,217.7,52.6,217.7,50z"/>
			</g>
			<g class="st0">
				<path d="M241.5,42.4v11.9h-2.4v-1c-0.6,0.8-1.5,1.1-2.7,1.1c-2.4,0-4.3-1.7-4.3-4.4s1.9-4.4,4.3-4.4c1.1,0,2,0.3,2.6,1v-4.2
					H241.5z M239,50c0-1.5-1-2.4-2.2-2.4c-1.2,0-2.2,0.9-2.2,2.4s1,2.4,2.2,2.4C238.1,52.4,239,51.5,239,50z"/>
			</g>
			<g class="st0">
				<path d="M257.1,50.7h-6.5c0.2,1.1,1.2,1.7,2.5,1.7c0.9,0,1.6-0.3,2.2-0.8l1.3,1.4c-0.8,0.9-2,1.4-3.6,1.4c-3,0-4.9-1.9-4.9-4.4
					c0-2.6,2-4.4,4.6-4.4c2.5,0,4.5,1.7,4.5,4.5C257.2,50.2,257.1,50.5,257.1,50.7z M250.6,49.2h4.2c-0.2-1.1-1-1.8-2.1-1.8
					C251.6,47.4,250.8,48.1,250.6,49.2z"/>
			</g>
			<g class="st0">
				<path d="M266.5,45.9h2.2v1.9h-2.1v6.5h-2.5v-6.5h-1.3v-1.9h1.3v-0.4c0-1.9,1.2-3.2,3.3-3.2c0.7,0,1.4,0.1,1.9,0.5l-0.7,1.8
					c-0.3-0.2-0.6-0.3-1-0.3c-0.7,0-1.1,0.4-1.1,1.2V45.9z"/>
			</g>
			<g class="st0">
				<path d="M283.8,45.7v7.2c0,3.2-1.7,4.7-4.8,4.7c-1.6,0-3.2-0.4-4.2-1.2l1-1.8c0.7,0.6,1.9,1,3,1c1.8,0,2.5-0.8,2.5-2.4v-0.4
					c-0.7,0.7-1.6,1.1-2.7,1.1c-2.4,0-4.3-1.6-4.3-4.2c0-2.5,1.9-4.2,4.3-4.2c1.2,0,2.2,0.4,2.8,1.2v-1.1H283.8z M281.3,49.7
					c0-1.3-0.9-2.1-2.3-2.1s-2.3,0.8-2.3,2.1s1,2.1,2.3,2.1S281.3,51,281.3,49.7z"/>
			</g>
			<g class="st0">
				<path d="M299.9,49.4v4.9h-2.5v-4.5c0-1.4-0.6-2-1.7-2c-1.2,0-2.1,0.7-2.1,2.3v4.3h-2.5V42.4h2.5v4.2c0.7-0.7,1.6-1,2.7-1
					C298.3,45.6,299.9,46.7,299.9,49.4z"/>
			</g>
			<g class="st0">
				<path d="M306.8,43.1c0-0.8,0.6-1.4,1.6-1.4c0.9,0,1.6,0.6,1.6,1.3c0,0.8-0.6,1.4-1.6,1.4C307.4,44.5,306.8,43.9,306.8,43.1z
					 M307.1,45.7h2.5v8.6h-2.5V45.7z"/>
			</g>
			<g class="st0">
				<path d="M314.2,57l0.7-1.8c0.3,0.2,0.6,0.3,1.1,0.3c0.6,0,1-0.4,1-1.2v-8.6h2.5v8.6c0,2-1.2,3.2-3.2,3.2
					C315.4,57.5,314.7,57.4,314.2,57z M316.6,43.1c0-0.8,0.6-1.4,1.6-1.4c0.9,0,1.6,0.6,1.6,1.3c0,0.8-0.6,1.4-1.6,1.4
					C317.2,44.5,316.6,43.9,316.6,43.1z"/>
			</g>
			<g class="st0">
				<path d="M143.4,70.1l-1.2,1.2v2.2h-2.5V61.6h2.5v6.7l3.6-3.5h3l-3.6,3.6l3.9,5h-3L143.4,70.1z"/>
			</g>
			<g class="st0">
				<path d="M154.3,61.6h2.5v11.9h-2.5V61.6z"/>
			</g>
			<g class="st0">
				<path d="M177.7,68.6v4.9h-2.5v-4.5c0-1.4-0.6-2-1.6-2c-1.1,0-1.9,0.7-1.9,2.3v4.3h-2.5v-4.5c0-1.4-0.6-2-1.6-2
					c-1.1,0-1.9,0.7-1.9,2.3v4.3h-2.5v-8.6h2.4v1c0.6-0.7,1.6-1.1,2.7-1.1c1.2,0,2.2,0.5,2.8,1.4c0.7-0.9,1.8-1.4,3.1-1.4
					C176.2,64.8,177.7,65.9,177.7,68.6z"/>
			</g>
			<g class="st0">
				<path d="M192.8,68.6v4.9h-2.5v-4.5c0-1.4-0.6-2-1.7-2c-1.2,0-2.1,0.7-2.1,2.3v4.3H184v-8.6h2.4v1c0.7-0.7,1.7-1.1,2.8-1.1
					C191.2,64.8,192.8,65.9,192.8,68.6z"/>
			</g>
			<g class="st0">
				<path d="M198.4,69.2c0-2.6,2-4.4,4.7-4.4s4.7,1.8,4.7,4.4s-2,4.4-4.7,4.4S198.4,71.8,198.4,69.2z M205.3,69.2
					c0-1.5-0.9-2.4-2.2-2.4s-2.2,0.9-2.2,2.4s1,2.4,2.2,2.4S205.3,70.7,205.3,69.2z"/>
			</g>
			<g class="st0">
				<path d="M222.9,69.2c0,2.7-1.9,4.4-4.3,4.4c-1.1,0-2-0.3-2.6-1v4h-2.5V64.9h2.4v1c0.6-0.8,1.6-1.1,2.7-1.1
					C221.1,64.8,222.9,66.5,222.9,69.2z M220.4,69.2c0-1.5-0.9-2.4-2.2-2.4s-2.2,0.9-2.2,2.4s0.9,2.4,2.2,2.4S220.4,70.7,220.4,69.2
					z"/>
			</g>
			<g class="st0">
				<path d="M237.4,64.9v11.7h-2.5v-4c-0.6,0.7-1.5,1-2.6,1c-2.4,0-4.3-1.7-4.3-4.4s1.9-4.4,4.3-4.4c1.2,0,2.1,0.4,2.7,1.1v-1H237.4
					z M234.9,69.2c0-1.5-1-2.4-2.2-2.4c-1.2,0-2.2,0.9-2.2,2.4s1,2.4,2.2,2.4C234,71.6,234.9,70.7,234.9,69.2z"/>
			</g>
			<g class="st0">
				<path d="M249,64.8v2.3c-0.2,0-0.4,0-0.6,0c-1.4,0-2.3,0.8-2.3,2.4v4.1h-2.5v-8.6h2.4V66C246.7,65.2,247.7,64.8,249,64.8z"/>
			</g>
			<g class="st0">
				<path d="M253.8,72.7l0.8-1.8c0.8,0.5,1.9,0.8,3,0.8c1.2,0,1.6-0.3,1.6-0.8c0-1.4-5.2,0-5.2-3.4c0-1.6,1.5-2.8,4-2.8
					c1.2,0,2.5,0.3,3.3,0.8l-0.8,1.8c-0.8-0.5-1.7-0.6-2.5-0.6c-1.1,0-1.6,0.4-1.6,0.8c0,1.5,5.2,0,5.2,3.4c0,1.6-1.5,2.7-4.1,2.7
					C256.1,73.6,254.6,73.2,253.8,72.7z"/>
			</g>
			<g class="st0">
				<path d="M272.7,73.1c-0.5,0.4-1.3,0.5-2,0.5c-2,0-3.2-1-3.2-3.1V67h-1.3v-1.9h1.3V63h2.5v2.1h2.1V67h-2.1v3.5
					c0,0.7,0.4,1.1,1.1,1.1c0.4,0,0.7-0.1,1-0.3L272.7,73.1z"/>
			</g>
			<g class="st0">
				<path d="M286.8,64.9v8.6h-2.4v-1c-0.7,0.8-1.6,1.2-2.7,1.2c-2.2,0-3.7-1.2-3.7-3.9v-4.9h2.5v4.5c0,1.4,0.6,2.1,1.7,2.1
					c1.2,0,2-0.7,2-2.3v-4.3H286.8z"/>
			</g>
			<g class="st0">
				<path d="M301.7,64.9l-3.6,8.6h-2.6l-3.6-8.6h2.6l2.4,5.9l2.5-5.9H301.7z"/>
			</g>
			<g class="st0">
				<path d="M320.6,64.9l-3.1,8.6H315l-1.9-5.3l-2,5.3h-2.4l-3.1-8.6h2.4l2,5.8l2.1-5.8h2.1l2,5.8l2.1-5.8H320.6z"/>
			</g>
			<g class="st0">
				<path d="M145.2,92.7l-1.9-2.6l-2,2.6h-2.7l3.3-4.3l-3.2-4.3h2.8l1.8,2.5l1.9-2.5h2.7l-3.2,4.2l3.3,4.4H145.2z"/>
			</g>
			<g class="st0">
				<path d="M162.5,84.1l-3.9,9.1c-0.8,2.1-2,2.7-3.6,2.7c-0.9,0-1.8-0.3-2.4-0.8l0.9-1.8c0.4,0.3,0.9,0.5,1.4,0.5
					c0.7,0,1.1-0.3,1.4-1.1l0-0.1l-3.7-8.7h2.6l2.4,5.8l2.4-5.8H162.5z"/>
			</g>
			<g class="st0">
				<path d="M175.4,90.8v1.9h-7.7v-1.5l4.4-5.2h-4.3v-1.9h7.4v1.5l-4.4,5.2H175.4z"/>
			</g>
			<g class="st0">
				<path d="M185.5,81.5v11.2h-2.6v-9.1h-2.2v-2.1H185.5z"/>
			</g>
			<g class="st0">
				<path d="M200.5,90.6v2.1h-8.5V91l4.3-4.1c1-0.9,1.2-1.5,1.2-2.1c0-0.9-0.6-1.4-1.8-1.4c-1,0-1.8,0.4-2.3,1.1l-1.9-1.2
					c0.9-1.3,2.4-2.1,4.4-2.1c2.5,0,4.2,1.3,4.2,3.3c0,1.1-0.3,2.1-1.9,3.5l-2.6,2.4H200.5z"/>
			</g>
			<g class="st0">
				<path d="M214.6,89.3c0,1.9-1.5,3.6-4.6,3.6c-1.6,0-3.2-0.4-4.3-1.2l1-2c0.8,0.6,2,1,3.2,1c1.3,0,2.1-0.5,2.1-1.4
					c0-0.8-0.6-1.4-2.1-1.4h-1.2v-1.7l2.3-2.6h-4.8v-2.1h7.8v1.7l-2.5,2.9C213.6,86.4,214.6,87.6,214.6,89.3z"/>
			</g>
			<g class="st0">
				<path d="M230.8,90.3H229v2.4h-2.5v-2.4h-6v-1.7l5.3-7.1h2.7l-4.9,6.7h3v-2.1h2.4v2.1h1.8V90.3z"/>
			</g>
			<g class="st0">
				<path d="M244.8,89.2c0,2-1.5,3.7-4.7,3.7c-1.6,0-3.2-0.4-4.3-1.2l1-2c0.8,0.6,2,1,3.2,1c1.3,0,2.1-0.5,2.1-1.5
					c0-0.9-0.6-1.5-2.6-1.5h-2.9l0.6-6.3h6.8v2.1h-4.7l-0.2,2.1h0.9C243.5,85.7,244.8,87.2,244.8,89.2z"/>
			</g>
			<g class="st0">
				<path d="M259.8,89.2c0,2.3-1.9,3.7-4.2,3.7c-3.1,0-5-1.9-5-5.6c0-3.9,2.3-6,5.7-6c1.2,0,2.3,0.3,3.1,0.8l-1,1.9
					c-0.6-0.4-1.3-0.6-2.1-0.6c-1.9,0-3.1,1.1-3.2,3.2c0.7-0.7,1.6-1,2.8-1C258.1,85.7,259.8,87,259.8,89.2z M257.3,89.3
					c0-1-0.8-1.7-1.9-1.7c-1.1,0-1.9,0.7-1.9,1.7c0,1,0.7,1.7,2,1.7C256.5,90.9,257.3,90.3,257.3,89.3z"/>
			</g>
			<g class="st0">
				<path d="M274.2,81.5v1.7l-4.2,9.5h-2.8l4-9.1h-3.7v1.8h-2.3v-3.9H274.2z"/>
			</g>
			<g class="st0">
				<path d="M289.5,89.4c0,2.1-1.9,3.4-4.7,3.4c-2.8,0-4.7-1.3-4.7-3.4c0-1.2,0.6-2.1,1.7-2.6c-0.8-0.5-1.3-1.3-1.3-2.3
					c0-2,1.8-3.2,4.3-3.2c2.6,0,4.3,1.2,4.3,3.2c0,1-0.5,1.8-1.3,2.3C288.9,87.3,289.5,88.2,289.5,89.4z M286.9,89.4
					c0-1-0.8-1.6-2.1-1.6c-1.3,0-2.1,0.6-2.1,1.6s0.8,1.6,2.1,1.6C286.1,91,286.9,90.4,286.9,89.4z M283,84.6c0,0.8,0.7,1.4,1.7,1.4
					c1.1,0,1.8-0.5,1.8-1.4c0-0.9-0.7-1.4-1.8-1.4C283.7,83.2,283,83.7,283,84.6z"/>
			</g>
			<g class="st0">
				<path d="M304.4,86.9c0,3.9-2.3,6-5.7,6c-1.2,0-2.3-0.3-3.1-0.8l1-1.9c0.6,0.4,1.3,0.6,2.1,0.6c1.9,0,3.1-1.1,3.2-3.3
					c-0.7,0.7-1.6,1-2.8,1c-2.2,0-3.9-1.4-3.9-3.5c0-2.3,1.9-3.7,4.2-3.7C302.5,81.3,304.4,83.2,304.4,86.9z M301.5,84.9
					c0-1-0.7-1.7-2-1.7c-1.1,0-1.9,0.6-1.9,1.7s0.8,1.7,1.9,1.7C300.7,86.6,301.5,85.9,301.5,84.9z"/>
			</g>
			<g class="st0">
				<path d="M310.3,87.1c0-3.7,2-5.8,4.8-5.8c2.8,0,4.8,2.1,4.8,5.8c0,3.7-2,5.8-4.8,5.8C312.4,92.9,310.3,90.8,310.3,87.1z
					 M317.3,87.1c0-2.5-0.9-3.6-2.2-3.6c-1.3,0-2.2,1.1-2.2,3.6s0.9,3.6,2.2,3.6C316.4,90.7,317.3,89.6,317.3,87.1z"/>
			</g>
			<g class="st0">
				<path d="M139.4,110.6c0-0.8,0.6-1.4,1.5-1.4c0.9,0,1.5,0.6,1.5,1.4c0,0.8-0.6,1.5-1.5,1.5C140,112,139.4,111.4,139.4,110.6z
					 M139.4,100.7h3l-0.5,7.3h-2L139.4,100.7z"/>
			</g>
			<g class="st0">
				<path d="M168.7,107.5c0,2.9-1.3,4.5-3.3,4.5c-1.1,0-1.9-0.5-2.2-1.4c-0.6,0.9-1.5,1.4-2.7,1.4c-2.1,0-3.7-1.6-3.7-4
					c0-2.4,1.6-4,3.7-4c1.1,0,1.9,0.4,2.5,1.1V104h2.2v5.2c0,0.8,0.3,1,0.8,1c0.7,0,1.2-0.8,1.2-2.7c0-3.2-2.4-5.5-6-5.5
					c-3.6,0-6,2.4-6,5.8c0,3.4,2.3,5.8,5.9,5.8c1,0,2.1-0.2,3.2-0.7l0.5,1.5c-1,0.5-2.4,0.8-3.7,0.8c-4.6,0-7.7-3.1-7.7-7.4
					c0-4.2,3.1-7.3,7.7-7.3C165.7,100.5,168.7,103.5,168.7,107.5z M163,108c0-1.4-0.8-2.2-2-2.2c-1.2,0-2,0.8-2,2.2
					c0,1.4,0.8,2.2,2,2.2C162.2,110.2,163,109.4,163,108z"/>
			</g>
			<g class="st0">
				<path d="M183.6,109.8h5.5v2.1h-9.7v-2.1h1.6v-2.8h-1.6v-1.6h1.6v-0.4c0-2.8,1.9-4.6,5.2-4.6c1.3,0,2.4,0.3,3.2,0.7l-0.8,2
					c-0.7-0.4-1.5-0.6-2.4-0.6c-1.7,0-2.6,0.8-2.6,2.3v0.5h3.8v1.6h-3.8V109.8z"/>
			</g>
			<g class="st0">
				<path d="M205.2,112v1.8h-1.6v-1.7c-1.6-0.1-3.1-0.6-4-1.3l0.9-2c0.8,0.6,2,1,3.1,1.1v-2.7c-1.8-0.4-3.8-1-3.8-3.3
					c0-1.7,1.2-3.2,3.8-3.4v-1.8h1.6v1.7c1.2,0.1,2.4,0.4,3.2,1l-0.8,2c-0.8-0.5-1.6-0.7-2.4-0.8v2.7c1.8,0.4,3.7,1,3.7,3.3
					C209,110.3,207.7,111.7,205.2,112z M203.6,104.9v-2.3c-0.8,0.2-1.2,0.7-1.2,1.2C202.4,104.4,202.9,104.7,203.6,104.9z
					 M206.4,108.8c0-0.6-0.5-0.9-1.2-1.1v2.2C206,109.7,206.4,109.3,206.4,108.8z"/>
			</g>
			<g class="st0">
				<path d="M219.4,103.7c0-1.9,1.2-3.1,2.8-3.1s2.8,1.2,2.8,3.1c0,1.9-1.1,3.1-2.8,3.1S219.4,105.5,219.4,103.7z M223.4,103.7
					c0-1.2-0.5-1.8-1.2-1.8c-0.7,0-1.2,0.6-1.2,1.8s0.5,1.8,1.2,1.8C222.9,105.4,223.4,104.9,223.4,103.7z M228.9,100.7h1.9
					l-7.7,11.2h-1.9L228.9,100.7z M227,108.9c0-1.9,1.2-3.1,2.8-3.1c1.6,0,2.8,1.2,2.8,3.1s-1.2,3.1-2.8,3.1
					C228.2,112,227,110.8,227,108.9z M231,108.9c0-1.2-0.5-1.8-1.2-1.8c-0.7,0-1.2,0.6-1.2,1.8c0,1.2,0.5,1.8,1.2,1.8
					C230.5,110.7,231,110.1,231,108.9z"/>
			</g>
			<g class="st0">
				<path d="M249.4,109.6l-2-4.7l-2,4.7h-1.9l2.9-6.7h2l2.9,6.7H249.4z"/>
			</g>
			<g class="st0">
				<path d="M271.7,112.1l-1.3-1.2c-1,0.8-2.3,1.2-3.7,1.2c-2.5,0-4.3-1.3-4.3-3.1c0-1.4,0.8-2.4,2.5-3.3c-0.8-0.8-1.2-1.6-1.2-2.4
					c0-1.6,1.4-2.8,3.5-2.8c1.9,0,3.2,1,3.2,2.6c0,1.2-0.7,2-2.2,2.8l2,1.9c0.2-0.5,0.4-1.1,0.6-1.7l2,0.6c-0.2,1-0.5,1.8-1,2.5
					l1.3,1.2L271.7,112.1z M268.9,109.5l-2.7-2.5c-1,0.6-1.4,1.1-1.4,1.8c0,0.8,0.8,1.4,2,1.4C267.6,110.1,268.3,109.9,268.9,109.5z
					 M266,103.3c0,0.4,0.2,0.8,0.9,1.4c1.1-0.6,1.5-1,1.5-1.5c0-0.5-0.4-0.9-1.1-0.9C266.4,102.2,266,102.7,266,103.3z"/>
			</g>
			<g class="st0">
				<path d="M288,103.2l1.7,0.9l-0.8,1.3l-1.8-1l0,1.9h-1.5l0-2l-1.8,1.1l-0.8-1.3l1.7-0.9l-1.7-1l0.8-1.3l1.8,1.1l0-2h1.5l0,2
					l1.8-1.1l0.8,1.3L288,103.2z"/>
			</g>
			<g class="st0">
				<path d="M300.7,107.5c0-2.9,0.7-5.6,2-7.5h2.4c-1.4,2.4-1.9,4.8-1.9,7.5s0.6,5.1,1.9,7.5h-2.4
					C301.4,113.1,300.7,110.5,300.7,107.5z"/>
			</g>
			<g class="st0">
				<path d="M315,115c1.4-2.4,2-4.8,2-7.5s-0.6-5.1-2-7.5h2.4c1.3,1.9,2,4.5,2,7.5s-0.7,5.6-2,7.5H315z"/>
			</g>
			<g class="st0">
				<path d="M11.8,54.3l0-6.7l-3.3,5.5H7.3L4,47.7v6.6H1.6V43.1h2.1l4.2,7l4.1-7h2.1l0,11.2H11.8z"/>
				<path d="M16,50c0-2.6,2-4.4,4.7-4.4c2.7,0,4.7,1.8,4.7,4.4s-2,4.4-4.7,4.4C18,54.4,16,52.6,16,50z M23,50c0-1.5-0.9-2.4-2.2-2.4
					s-2.2,0.9-2.2,2.4s1,2.4,2.2,2.4S23,51.5,23,50z"/>
				<path d="M36,49.4v4.9h-2.5v-4.5c0-1.4-0.6-2-1.7-2c-1.2,0-2.1,0.7-2.1,2.3v4.3h-2.5v-8.6h2.4v1c0.7-0.7,1.7-1.1,2.8-1.1
					C34.4,45.5,36,46.7,36,49.4z"/>
				<path d="M43.8,53.9c-0.5,0.4-1.3,0.5-2,0.5c-2,0-3.2-1-3.2-3.1v-3.5h-1.3v-1.9h1.3v-2.1H41v2.1h2.1v1.9H41v3.5
					c0,0.7,0.4,1.1,1.1,1.1c0.4,0,0.7-0.1,1-0.3L43.8,53.9z"/>
				<path d="M44.3,53.5l0.8-1.8c0.8,0.5,1.9,0.8,3,0.8c1.2,0,1.6-0.3,1.6-0.8c0-1.4-5.2,0-5.2-3.4c0-1.6,1.5-2.8,4-2.8
					c1.2,0,2.5,0.3,3.3,0.8L51,48.1c-0.8-0.5-1.7-0.6-2.5-0.6c-1.1,0-1.6,0.4-1.6,0.8c0,1.5,5.2,0,5.2,3.4c0,1.6-1.5,2.7-4.1,2.7
					C46.6,54.4,45.1,54,44.3,53.5z"/>
				<path d="M62.1,50.7h-6.5c0.2,1.1,1.2,1.7,2.5,1.7c0.9,0,1.6-0.3,2.2-0.8l1.3,1.4c-0.8,0.9-2,1.4-3.6,1.4c-3,0-4.9-1.9-4.9-4.4
					c0-2.6,2-4.4,4.6-4.4c2.5,0,4.5,1.7,4.5,4.5C62.1,50.2,62.1,50.5,62.1,50.7z M55.5,49.2h4.2c-0.2-1.1-1-1.8-2.1-1.8
					C56.5,47.4,55.7,48.1,55.5,49.2z"/>
			</g>
			<g class="st0">
				<path d="M69.1,45.5v2.3c-0.2,0-0.4,0-0.6,0c-1.4,0-2.3,0.8-2.3,2.4v4.1h-2.5v-8.6h2.4v1.1C66.8,46,67.8,45.5,69.1,45.5z"/>
			</g>
			<g class="st0">
				<path d="M75.9,45.5v2.3c-0.2,0-0.4,0-0.6,0c-1.4,0-2.3,0.8-2.3,2.4v4.1h-2.5v-8.6H73v1.1C73.6,46,74.6,45.5,75.9,45.5z"/>
			</g>
			<g class="st0">
				<path d="M85,49.4v4.9h-2.3v-1.1c-0.5,0.8-1.4,1.2-2.6,1.2c-2,0-3.2-1.1-3.2-2.6c0-1.5,1.1-2.6,3.7-2.6h2c0-1.1-0.6-1.7-2-1.7
					c-0.9,0-1.9,0.3-2.5,0.8l-0.9-1.7c0.9-0.7,2.3-1,3.7-1C83.5,45.5,85,46.8,85,49.4z M82.5,51.6v-0.9h-1.7c-1.2,0-1.5,0.4-1.5,1
					c0,0.6,0.5,1,1.4,1C81.5,52.7,82.2,52.4,82.5,51.6z"/>
				<path d="M92.8,53.9c-0.5,0.4-1.3,0.5-2,0.5c-2,0-3.2-1-3.2-3.1v-3.5h-1.3v-1.9h1.3v-2.1h2.5v2.1h2.1v1.9h-2.1v3.5
					c0,0.7,0.4,1.1,1.1,1.1c0.4,0,0.7-0.1,1-0.3L92.8,53.9z"/>
			</g>
			<g class="st0">
				<path d="M11.9,70.4c0,1.9-1.5,3.1-4.5,3.1H1.6V62.3h5.5c2.8,0,4.2,1.2,4.2,2.9c0,1.1-0.6,2-1.5,2.5C11.1,68.1,11.9,69,11.9,70.4
					z M4.2,64.2v2.6h2.6c1.3,0,2-0.4,2-1.3c0-0.9-0.7-1.3-2-1.3H4.2z M9.2,70.2c0-0.9-0.7-1.4-2.1-1.4h-3v2.8h3
					C8.5,71.5,9.2,71.1,9.2,70.2z"/>
				<path d="M13,69.2c0-2.6,2-4.4,4.7-4.4c2.7,0,4.7,1.8,4.7,4.4s-2,4.4-4.7,4.4C15,73.6,13,71.8,13,69.2z M19.9,69.2
					c0-1.5-0.9-2.4-2.2-2.4s-2.2,0.9-2.2,2.4s1,2.4,2.2,2.4S19.9,70.7,19.9,69.2z"/>
				<path d="M24.1,61.6h2.5v11.9h-2.5V61.6z"/>
				<path d="M37.7,61.6v11.9h-2.4v-1c-0.6,0.8-1.5,1.1-2.7,1.1c-2.4,0-4.3-1.7-4.3-4.4s1.9-4.4,4.3-4.4c1.1,0,2,0.3,2.6,1v-4.2H37.7
					z M35.3,69.2c0-1.5-1-2.4-2.2-2.4c-1.2,0-2.2,0.9-2.2,2.4s1,2.4,2.2,2.4C34.3,71.6,35.3,70.7,35.3,69.2z"/>
			</g>
		</g>
	</g>
</g>
</svg>
