<?xml version="1.0" encoding="UTF-8"?><svg xmlns="http://www.w3.org/2000/svg" viewBox="0 0 476.04896 117.90423"><defs><style>.d{fill:#6a191c;}.e{fill:#fcc400;}.f{fill:#b31f29;}.g{fill:#d4521d;}.h{fill:#312e30;}</style></defs><g id="a"/><g id="b"><g id="c"><g><g><polygon class="e" points="0 26.16484 0 21.00467 21.00467 0 26.16484 0 26.16484 5.16017 5.16017 26.16484 0 26.16484"/><polygon class="e" points="0 42.88643 0 37.72626 37.62358 .10268 42.78376 .10268 42.78376 5.26285 5.16017 42.88643 0 42.88643"/><polygon class="g" points="8.3608 51.24723 8.3608 46.08706 46.00603 8.44183 51.1662 8.44183 51.1662 13.602 13.52097 51.24723 8.3608 51.24723"/><polygon class="g" points="25.13492 51.24723 25.13492 46.08706 62.78014 8.44183 67.94032 8.44183 67.94032 13.602 30.29509 51.24723 25.13492 51.24723"/><polygon class="f" points="33.49571 59.60802 33.49571 54.44785 71.14094 16.80263 76.30111 16.80263 76.30111 21.9628 38.65588 59.60802 33.49571 59.60802"/><polygon class="f" points="41.85651 67.96882 41.85651 62.80865 79.50174 25.16342 84.66191 25.16342 84.66191 30.32359 47.01668 67.96882 41.85651 67.96882"/><polygon class="d" points="41.86152 84.6854 41.86152 79.52523 87.86253 33.52422 93.02271 33.52422 93.02271 38.68439 47.02169 84.6854 41.86152 84.6854"/><polygon class="d" points="50.22232 93.0462 50.22232 87.88603 104.5675 33.54085 109.72767 33.54085 109.72767 38.70102 55.38249 93.0462 50.22232 93.0462"/><polygon class="h" points="50.22232 109.70127 50.22232 104.5411 87.81977 66.94391 92.97995 66.94391 92.97995 72.10408 55.38249 109.70127 50.22232 109.70127"/><polygon class="h" points="58.75495 117.90423 58.75495 112.74406 79.45898 92.04003 84.61915 92.04003 84.61915 97.2002 63.91512 117.90423 58.75495 117.90423"/></g><g><path class="h" d="M125.87896,92.15121v-21.16472h12.9187v2.53479h-9.95633v6.29155h8.85645v2.47347h-8.85645v7.33011h10.7195v2.53479h-13.68186Z"/><path class="h" d="M156.80099,92.15121c-.44764-.75314-.96163-1.59825-1.54195-2.53479-.58032-.93654-1.20635-1.90876-1.87866-2.91666-.67175-1.0079-1.36913-2.03085-2.09161-3.0694-.72303-1.03856-1.44105-2.04088-2.15349-3.00808-.713-.9672-1.40481-1.87866-2.07656-2.73381s-1.29332-1.60773-1.86305-2.25996v16.52271h-2.90105v-21.16472h2.35139c.95661,1.01849,1.98012,2.20422,3.0694,3.55774,1.08873,1.35464,2.16854,2.74886,3.2372,4.18433,1.06922,1.43547,2.07656,2.8453,3.02369,4.23004,.94658,1.38474,1.74542,2.61618,2.3971,3.69544v-15.66756h2.90161v21.16472h-2.47403Z"/><path class="h" d="M163.77934,92.15121v-21.16472h12.9187v2.53479h-9.95633v6.29155h8.85645v2.47347h-8.85645v7.33011h10.7195v2.53479h-13.68186Z"/><path class="h" d="M190.54826,83.2942c.325,.40751,.73753,.94212,1.23646,1.60383s1.01291,1.39478,1.54251,2.19864c.52903,.80442,1.05361,1.64452,1.57317,2.51974,.519,.87578,.96163,1.72089,1.32844,2.53479h-3.23776c-.40751-.77376-.85013-1.55756-1.32844-2.35139-.47831-.79439-.96163-1.55254-1.45052-2.27557-.4889-.72247-.97278-1.39979-1.45052-2.03085-.47886-.63105-.91146-1.18071-1.29834-1.64954-.2648,.02063-.53405,.03066-.80888,.03066h-3.49698v8.27668h-2.96237v-20.85923c.83453-.20347,1.76605-.34061,2.79401-.41252,1.02797-.0708,1.97008-.10703,2.82523-.10703,2.9724,0,5.23794,.56025,6.7955,1.6802,1.55756,1.11995,2.33634,2.78956,2.33634,5.00827,0,1.40537-.37183,2.60671-1.11493,3.60401-.74366,.99786-1.8374,1.74096-3.28291,2.2293Zm-4.48982-9.92567c-1.26266,0-2.2293,.03066-2.90105,.09198v7.97064h2.10722c1.01793,0,1.93385-.05017,2.7483-.15219s1.50181-.2949,2.06151-.58032c.56025-.28486,.99285-.68735,1.29834-1.20635,.30549-.51956,.45824-1.20635,.45824-2.06151,0-.79439-.15275-1.45554-.45824-1.98513s-.71801-.94713-1.23701-1.25262c-.519-.30493-1.12998-.519-1.83239-.64108s-1.45052-.18341-2.24491-.18341Z"/><path class="h" d="M211.26756,81.73664h2.96237v9.89556c-.24473,.08139-.59593,.17281-1.05361,.27483-.45824,.10202-.98783,.20347-1.58822,.30549-.60095,.10146-1.25764,.18787-1.97008,.25922-.713,.07136-1.43547,.10703-2.16854,.10703-1.4862,0-2.84028-.24417-4.06169-.73307-1.22141-.48834-2.27056-1.20078-3.14578-2.13788-.87578-.93598-1.55254-2.08659-2.03085-3.45127-.47886-1.36356-.71746-2.93171-.71746-4.70278,0-1.77162,.26926-3.34423,.80888-4.71894,.53963-1.37415,1.26768-2.52922,2.18359-3.46632,.91647-.93598,1.99015-1.64898,3.22215-2.13788,1.232-.48834,2.5504-.73307,3.95521-.73307,.95661,0,1.80674,.06132,2.5504,.18341,.74254,.12208,1.37861,.2648,1.90876,.42758,.52903,.16334,.96163,.32612,1.29778,.4889s.56471,.28542,.68735,.36625l-.94713,2.47403c-.59036-.38688-1.37415-.70742-2.35139-.96218-.97724-.2542-1.9751-.38186-2.99303-.38186-1.07925,0-2.06151,.194-2.94732,.58032-.88581,.38688-1.63895,.94658-2.25996,1.67964-.62157,.73307-1.1049,1.6239-1.45052,2.67249-.34674,1.04859-.51956,2.22484-.51956,3.52764,0,1.26266,.14773,2.41271,.44318,3.45071,.2949,1.03856,.7431,1.92939,1.34349,2.67249,.60039,.74366,1.34405,1.3184,2.22986,1.72535,.88525,.40751,1.92883,.61098,3.13017,.61098,.85515,0,1.58264-.04571,2.18359-.13714,.60039-.09198,1.03298-.17839,1.29834-.25978v-7.87977Z"/><path class="h" d="M223.51339,92.15121v-8.49019c-1.40481-2.17857-2.72879-4.32649-3.97027-6.4443-1.24203-2.11725-2.41271-4.19381-3.51203-6.23023h3.48137c.77376,1.66961,1.63895,3.36486,2.59611,5.0852,.95661,1.72034,1.94388,3.37434,2.96237,4.96255,.9973-1.58822,1.97454-3.24222,2.93171-4.96255,.95717-1.72034,1.83295-3.41559,2.62678-5.0852h3.29852c-1.09988,2.03642-2.27056,4.10796-3.51259,6.21518-1.24203,2.10722-2.55542,4.24008-3.93961,6.39803v8.55151h-2.96237Z"/><path class="h" d="M247.18224,90.04399c3.09449,0,4.64201-1.05863,4.64201-3.17644,0-.65112-.13714-1.20635-.41197-1.66459-.27483-.45768-.64666-.85515-1.11493-1.19075-.46883-.33615-1.00288-.62603-1.60327-.87076-.60095-.24417-1.23701-.48834-1.90876-.73251-.77432-.2648-1.50739-.56527-2.1992-.90142-.69237-.33559-1.29332-.73251-1.80173-1.19075-.50952-.45824-.91146-1.00288-1.20635-1.63393-.29546-.63105-.44318-1.39422-.44318-2.29062,0-1.85246,.63105-3.29852,1.89371-4.33708,1.2621-1.038,3.00306-1.55756,5.22233-1.55756,1.28273,0,2.44839,.13769,3.49698,.41252s1.81734,.5753,2.30623,.90086l-.94713,2.41271c-.42758-.26424-1.0642-.52402-1.90876-.77878-.84512-.2542-1.82737-.38186-2.94732-.38186-.57029,0-1.09932,.06132-1.58766,.18341-.4889,.12208-.91647,.30549-1.28273,.54966-.36681,.24417-.65669,.55524-.87076,.93152-.21351,.37685-.32054,.82003-.32054,1.32844,0,.57029,.11149,1.04915,.33615,1.43547,.22354,.38688,.53907,.72805,.94658,1.02295,.40695,.29546,.88024,.56527,1.41986,.80944,.53963,.24473,1.135,.4889,1.78668,.73307,.91647,.36681,1.75657,.73307,2.51974,1.09932,.76373,.36681,1.42488,.80498,1.98513,1.31339,.55969,.50952,.99285,1.11493,1.29834,1.81734,.30493,.70241,.45768,1.55254,.45768,2.54985,0,1.85301-.67676,3.27845-2.03085,4.27576-1.35408,.99786-3.26284,1.49679-5.72628,1.49679-.83508,0-1.60327-.0563-2.30568-.16835s-1.329-.24417-1.87866-.39692-1.02295-.31553-1.41986-.48834-.70798-.3211-.93152-.44318l.88581-2.44281c.46771,.2648,1.18015,.55969,2.13788,.88525,.95661,.32612,2.12729,.4889,3.51203,.4889Z"/><path class="h" d="M272.36294,70.98649v2.56545h-6.65781v18.59926h-2.96237v-18.59926h-6.65781v-2.56545h16.27798Z"/><path class="h" d="M273.19356,81.55379c0-1.81232,.26926-3.41057,.80888-4.79531,.53963-1.38419,1.27214-2.53925,2.1992-3.46632,.92595-.92595,2.0052-1.62334,3.2372-2.09217,1.23144-.46771,2.53981-.70241,3.92455-.70241,1.36356,0,2.65186,.23469,3.86323,.70241,1.21137,.46883,2.27557,1.16622,3.19149,2.09217,.91647,.92706,1.64396,2.08213,2.18359,3.46632,.53963,1.38474,.80944,2.983,.80944,4.79531s-.26981,3.41057-.80944,4.79476c-.53963,1.38474-1.26712,2.53981-2.18359,3.46632-.91592,.92651-1.98012,1.6239-3.19149,2.09217-1.21137,.46771-2.49967,.70241-3.86323,.70241-1.38474,0-2.69311-.23469-3.92455-.70241-1.232-.46827-2.31125-1.16566-3.2372-2.09217-.92706-.92651-1.65957-2.08157-2.1992-3.46632-.53963-1.38419-.80888-2.98244-.80888-4.79476Zm3.11511,0c0,1.28273,.16278,2.44839,.48834,3.49642,.32556,1.04915,.78881,1.93942,1.38976,2.67249,.60039,.73307,1.33346,1.29834,2.19864,1.69525,.86519,.39692,1.8374,.59537,2.91666,.59537s2.04645-.19846,2.90161-.59537,1.58264-.96218,2.18359-1.69525c.60039-.73307,1.06364-1.62334,1.38976-2.67249,.32556-1.04803,.48834-2.21369,.48834-3.49642s-.16278-2.44839-.48834-3.49698c-.32612-1.04859-.78937-1.93942-1.38976-2.67249-.60095-.73307-1.32844-1.29778-2.18359-1.69525-.85515-.39692-1.82235-.59537-2.90161-.59537s-2.05147,.19846-2.91666,.59537c-.86519,.39747-1.59825,.96218-2.19864,1.69525-.60095,.73307-1.0642,1.6239-1.38976,2.67249s-.48834,2.21425-.48834,3.49698Z"/><path class="h" d="M307.34443,83.2942c.325,.40751,.73753,.94212,1.23646,1.60383s1.01291,1.39478,1.54251,2.19864c.52903,.80442,1.05361,1.64452,1.57317,2.51974,.519,.87578,.96163,1.72089,1.32844,2.53479h-3.23776c-.40751-.77376-.85013-1.55756-1.32844-2.35139-.47831-.79439-.96163-1.55254-1.45052-2.27557-.4889-.72247-.97278-1.39979-1.45052-2.03085-.47886-.63105-.91146-1.18071-1.29834-1.64954-.2648,.02063-.53405,.03066-.80888,.03066h-3.49698v8.27668h-2.96237v-20.85923c.83453-.20347,1.76605-.34061,2.79401-.41252,1.02797-.0708,1.97008-.10703,2.82523-.10703,2.9724,0,5.23794,.56025,6.7955,1.6802s2.33634,2.78956,2.33634,5.00827c0,1.40537-.37183,2.60671-1.11493,3.60401-.74366,.99786-1.8374,1.74096-3.28291,2.2293Zm-4.48982-9.92567c-1.26266,0-2.2293,.03066-2.90105,.09198v7.97064h2.10722c1.01793,0,1.93385-.05017,2.7483-.15219s1.50181-.2949,2.06151-.58032c.56025-.28486,.99285-.68735,1.29834-1.20635,.30549-.51956,.45824-1.20635,.45824-2.06151,0-.79439-.15275-1.45554-.45824-1.98513s-.71801-.94713-1.23701-1.25262c-.519-.30493-1.12998-.519-1.83239-.64108s-1.45052-.18341-2.24491-.18341Z"/><path class="h" d="M330.81761,92.15121c-.34619-.91647-.67175-1.81734-.97724-2.70259-.30549-.88581-.62157-1.78668-.94658-2.70315h-9.59007l-1.92381,5.40574h-3.08501c.81446-2.23934,1.57763-4.31088,2.29062-6.21518,.71244-1.90319,1.40983-3.71049,2.09217-5.42079,.68178-1.7103,1.3591-3.34423,2.03085-4.90179s1.37415-3.10006,2.10722-4.62696h2.7182c.73307,1.5269,1.43547,3.0694,2.10722,4.62696,.6723,1.55756,1.34851,3.19149,2.0314,4.90179,.68178,1.7103,1.37861,3.5176,2.09161,5.42079,.71244,1.9043,1.47617,3.97584,2.29062,6.21518h-3.2372Zm-2.77896-7.84911c-.65223-1.77107-1.29834-3.48639-1.93942-5.14596-.64164-1.65902-1.30837-3.25281-2.00074-4.77971-.713,1.5269-1.3892,3.12069-2.03085,4.77971-.64108,1.65957-1.27771,3.37489-1.90876,5.14596h7.87977Z"/><path class="h" d="M348.351,81.73664h2.96237v9.89556c-.24473,.08139-.59593,.17281-1.05361,.27483-.45824,.10202-.98783,.20347-1.58822,.30549-.60095,.10146-1.25764,.18787-1.97008,.25922-.713,.07136-1.43547,.10703-2.16854,.10703-1.4862,0-2.84028-.24417-4.06169-.73307-1.22141-.48834-2.27056-1.20078-3.14578-2.13788-.87578-.93598-1.55254-2.08659-2.03085-3.45127-.47886-1.36356-.71746-2.93171-.71746-4.70278,0-1.77162,.26926-3.34423,.80888-4.71894,.53963-1.37415,1.26768-2.52922,2.18359-3.46632,.91647-.93598,1.99015-1.64898,3.22215-2.13788,1.232-.48834,2.5504-.73307,3.95521-.73307,.95661,0,1.80674,.06132,2.5504,.18341,.74254,.12208,1.37861,.2648,1.90876,.42758,.52903,.16334,.96163,.32612,1.29778,.4889s.56471,.28542,.68735,.36625l-.94713,2.47403c-.59036-.38688-1.37415-.70742-2.35139-.96218-.97724-.2542-1.9751-.38186-2.99303-.38186-1.07925,0-2.06151,.194-2.94732,.58032-.88581,.38688-1.63895,.94658-2.25996,1.67964-.62157,.73307-1.1049,1.6239-1.45052,2.67249-.34674,1.04859-.51956,2.22484-.51956,3.52764,0,1.26266,.14773,2.41271,.44318,3.45071,.2949,1.03856,.7431,1.92939,1.34349,2.67249,.60039,.74366,1.34405,1.3184,2.22986,1.72535,.88525,.40751,1.92883,.61098,3.13017,.61098,.85515,0,1.58264-.04571,2.18359-.13714,.60039-.09198,1.03298-.17839,1.29834-.25978v-7.87977Z"/><path class="h" d="M355.3628,92.15121v-21.16472h12.9187v2.53479h-9.95633v6.29155h8.85645v2.47347h-8.85645v7.33011h10.7195v2.53479h-13.68186Z"/><path class="h" d="M392.46934,92.15121c-.34619-.91647-.67175-1.81734-.97724-2.70259-.30549-.88581-.62157-1.78668-.94658-2.70315h-9.59007l-1.92381,5.40574h-3.08501c.81446-2.23934,1.57763-4.31088,2.29062-6.21518,.71244-1.90319,1.40983-3.71049,2.09217-5.42079,.68178-1.7103,1.3591-3.34423,2.03085-4.90179s1.37415-3.10006,2.10722-4.62696h2.7182c.73307,1.5269,1.43547,3.0694,2.10722,4.62696,.6723,1.55756,1.34851,3.19149,2.0314,4.90179,.68178,1.7103,1.37861,3.5176,2.09161,5.42079,.71244,1.9043,1.47617,3.97584,2.29062,6.21518h-3.2372Zm-2.77896-7.84911c-.65223-1.77107-1.29834-3.48639-1.93942-5.14596-.64164-1.65902-1.30837-3.25281-2.00074-4.77971-.713,1.5269-1.3892,3.12069-2.03085,4.77971-.64108,1.65957-1.27771,3.37489-1.90876,5.14596h7.87977Z"/><path class="h" d="M398.00664,92.15121v-21.16472h12.76595v2.53479h-9.80358v6.38297h8.7037v2.50469h-8.7037v9.74226h-2.96237Z"/><path class="h" d="M423.78216,83.2942c.325,.40751,.73753,.94212,1.23646,1.60383s1.01291,1.39478,1.54251,2.19864c.52903,.80442,1.05361,1.64452,1.57317,2.51974,.519,.87578,.96163,1.72089,1.32844,2.53479h-3.23776c-.40751-.77376-.85013-1.55756-1.32844-2.35139-.47831-.79439-.96163-1.55254-1.45052-2.27557-.4889-.72247-.97278-1.39979-1.45052-2.03085-.47886-.63105-.91146-1.18071-1.29834-1.64954-.2648,.02063-.53405,.03066-.80888,.03066h-3.49698v8.27668h-2.96237v-20.85923c.83453-.20347,1.76605-.34061,2.79401-.41252,1.02797-.0708,1.97008-.10703,2.82523-.10703,2.9724,0,5.23794,.56025,6.7955,1.6802,1.55756,1.11995,2.33634,2.78956,2.33634,5.00827,0,1.40537-.37183,2.60671-1.11493,3.60401-.74366,.99786-1.8374,1.74096-3.28291,2.2293Zm-4.48982-9.92567c-1.26266,0-2.2293,.03066-2.90105,.09198v7.97064h2.10722c1.01793,0,1.93385-.05017,2.7483-.15219s1.50181-.2949,2.06151-.58032c.56025-.28486,.99285-.68735,1.29834-1.20635,.30549-.51956,.45824-1.20635,.45824-2.06151,0-.79439-.15275-1.45554-.45824-1.98513s-.71801-.94713-1.23701-1.25262c-.519-.30493-1.12998-.519-1.83239-.64108s-1.45052-.18341-2.24491-.18341Z"/><path class="h" d="M431.96128,70.98649h2.96237v21.16472h-2.96237v-21.16472Z"/><path class="h" d="M448.51409,92.60944c-1.4862,0-2.84028-.24473-4.06169-.73307-1.22141-.4889-2.27056-1.20134-3.14578-2.13788-.87578-.93654-1.55254-2.09217-2.03085-3.46632-.47886-1.37415-.71746-2.94732-.71746-4.71838,0-1.77162,.26926-3.34423,.80888-4.71894,.53963-1.37415,1.26768-2.52922,2.18359-3.46632,.91647-.93598,1.98513-1.64898,3.2071-2.13788,1.22141-.48834,2.5242-.73307,3.90894-.73307,.87522,0,1.66459,.06132,2.367,.18341s1.31339,.2648,1.83239,.42758c.51956,.16334,.94156,.32612,1.26768,.4889,.32556,.16278,.54966,.28542,.67175,.36625l-.85515,2.44337c-.18341-.12208-.4482-.2542-.79383-.39692-.34674-.14215-.73808-.28486-1.17569-.42758-.43817-.14215-.91647-.25978-1.43547-.3512-.51956-.09198-1.04357-.13769-1.57317-.13769-1.11995,0-2.12784,.194-3.02313,.58032-.8964,.38688-1.66013,.94658-2.29062,1.67964-.63161,.73307-1.11493,1.6239-1.45108,2.67249-.33559,1.04859-.50395,2.22484-.50395,3.52764,0,1.26266,.14773,2.41271,.44318,3.45071,.2949,1.03856,.73753,1.92939,1.32844,2.67249,.59036,.74366,1.32844,1.3184,2.21425,1.72535,.88581,.40751,1.91879,.61098,3.10006,.61098,1.36356,0,2.49354-.14215,3.38994-.42758,.89529-.28486,1.56759-.53907,2.01524-.76373l.76373,2.44337c-.14271,.10202-.39692,.22912-.76373,.38186-.36625,.15275-.82449,.30047-1.37415,.44263-.54966,.14271-1.19075,.2648-1.92381,.36681-.73307,.10146-1.52745,.15275-2.38261,.15275Z"/><path class="h" d="M472.81176,92.15121c-.34619-.91647-.67175-1.81734-.97724-2.70259-.30549-.88581-.62157-1.78668-.94658-2.70315h-9.59007l-1.92381,5.40574h-3.08501c.81446-2.23934,1.57763-4.31088,2.29062-6.21518,.71244-1.90319,1.40983-3.71049,2.09217-5.42079,.68178-1.7103,1.3591-3.34423,2.03085-4.90179,.67175-1.55756,1.37415-3.10006,2.10722-4.62696h2.7182c.73307,1.5269,1.43547,3.0694,2.10722,4.62696,.6723,1.55756,1.34851,3.19149,2.0314,4.90179,.68178,1.7103,1.37861,3.5176,2.09161,5.42079,.71244,1.9043,1.47617,3.97584,2.29062,6.21518h-3.2372Zm-2.77896-7.84911c-.65223-1.77107-1.29834-3.48639-1.93942-5.14596-.64164-1.65902-1.30837-3.25281-2.00074-4.77971-.713,1.5269-1.3892,3.12069-2.03085,4.77971-.64108,1.65957-1.27771,3.37489-1.90876,5.14596h7.87977Z"/></g><g><path class="f" d="M126.06962,56.00796V8.38706h32.1596v9.00195h-21.43955v9.3459h19.03464v8.79568h-19.03464v11.47542h23.01996v9.00195h-33.74001Z"/><path class="f" d="M178.95354,47.8305c1.51129,0,2.75945-.12543,3.74505-.37796,.98448-.25086,1.77441-.59482,2.37034-1.03075,.59482-.43482,1.00734-.94992,1.23701-1.54585,.22856-.59482,.3434-1.25931,.3434-1.99294,0-1.557-.73307-2.85143-2.19864-3.88219-1.46669-1.03075-3.98588-2.14122-7.55867-3.33308-1.55811-.54966-3.11623-1.17904-4.67267-1.88981-1.55811-.70965-2.95512-1.60271-4.19214-2.67973-1.23646-1.07591-2.24491-2.38149-3.02313-3.91675-.77989-1.5347-1.16845-3.40165-1.16845-5.60029,0-2.1992,.41252-4.17987,1.23701-5.94425,.82449-1.76326,1.99294-3.26396,3.50423-4.50097,1.51185-1.23701,3.34368-2.18694,5.49772-2.85143,2.15237-.66394,4.58013-.99675,7.28384-.99675,3.20598,0,5.97826,.34396,8.31459,1.03075,2.33634,.68735,4.26071,1.44328,5.77255,2.26777l-3.09226,8.45229c-1.32955-.68735-2.80684-1.29388-4.4324-1.82124-1.62668-.52625-3.58506-.78993-5.87512-.78993-2.56657,0-4.41011,.35511-5.53173,1.06476-1.12329,.71077-1.68354,1.79838-1.68354,3.26396,0,.87076,.2057,1.60438,.61823,2.1992,.41252,.59593,.99619,1.13388,1.75211,1.61498s1.62557,.91647,2.61117,1.30558c.98504,.38967,2.07266,.78993,3.26452,1.20245,2.47347,.91703,4.6264,1.82068,6.45935,2.7143,1.83127,.89306,3.35538,1.93608,4.56954,3.12682,1.21304,1.1913,2.11837,2.58831,2.7143,4.19158,.59482,1.60383,.89306,3.55049,.89306,5.84056,0,4.44411-1.55756,7.89203-4.67267,10.34209-3.11567,2.45117-7.8112,3.67648-14.08658,3.67648-2.10778,0-4.00929-.1271-5.70342-.37796-1.69581-.25253-3.19539-.56192-4.50097-.92762-1.30558-.36625-2.42888-.75592-3.36709-1.16845-.93989-.41197-1.72981-.80108-2.3709-1.16789l3.02369-8.52085c1.41931,.77934,3.17142,1.47728,5.25634,2.09551,2.08436,.61879,4.63867,.92762,7.66236,.92762Z"/><path class="f" d="M235.27423,56.00796c-.53071-1.65456-1.09988-3.35427-1.70975-5.09802-.60987-1.74375-1.2175-3.48081-1.8218-5.20951h-18.59871c-.6015,1.73706-1.20468,3.47747-1.80786,5.22345-.60485,1.74598-1.16733,3.44123-1.688,5.08408h-11.13202c1.79169-5.13035,3.4914-9.87159,5.09969-14.22428,1.60884-4.35157,3.18145-8.45229,4.72117-12.30047s3.05602-7.50069,4.54947-10.96032c1.49345-3.45851,3.04487-6.83731,4.65316-10.13583h10.16147c1.56425,3.29852,3.1062,6.67732,4.62584,10.13583,1.51798,3.45963,3.04878,7.11214,4.59072,10.96032,1.54195,3.84818,3.1179,7.94889,4.72898,12.30047,1.61052,4.35269,3.31301,9.09393,5.10861,14.22428h-11.48099Zm-12.87912-36.83227c-.23971,.69181-.5898,1.63337-1.05026,2.823-.46047,1.19075-.98448,2.56601-1.57317,4.12636-.58813,1.55979-1.24649,3.27789-1.97343,5.15376-.72693,1.87531-1.46558,3.84261-2.21592,5.90077h13.61776c-.72916-2.06485-1.43436-4.03828-2.11725-5.91916-.68289-1.88144-1.33234-3.60234-1.94667-5.1638-.61544-1.55979-1.15451-2.93394-1.61832-4.12357-.46381-1.18907-.83843-2.1206-1.12273-2.79736Z"/></g></g></g></g></svg>