<?xml version="1.0" encoding="UTF-8"?><svg xmlns="http://www.w3.org/2000/svg" viewBox="0 0 380 106.64335"><defs><style>.d{fill:#00aaba;}.e{fill:#fff;}.f{fill:#da3c36;}</style></defs><g id="a"/><g id="b"><g id="c"><g><path class="e" d="M138.57135,105.22331l-17.6827,.02267v-40.24311c0-24.42119,18.57817-40.25051,40.28823-40.25051h8.36148c.77531,7.85241-4.15139,14.56266-11.83565,17.16432-3.03304,1.0269-19.13905,5.62644-19.13905,22.50713l.00769,40.7995Z"/><path class="e" d="M251.76509,90.27227c-13.88592,0-25.18197-11.29605-25.18197-25.18068,0-13.88592,11.29605-25.18197,25.18197-25.18197,8.3306,0,15.70666,4.08267,20.29364,10.33403h18.50569c-5.98914-15.59937-21.11699-26.70511-38.79934-26.70511-22.91243,0-41.55305,18.64062-41.55305,41.55305,0,22.91114,18.64062,41.55176,41.55305,41.55176,17.68234,0,32.8102-11.10574,38.79934-26.70382h-18.50698c-4.58698,6.25008-11.96305,10.33274-20.29235,10.33274Z"/><path class="e" d="M17.82192,42.57419c0-9.82692-8.00105-17.79387-17.82192-17.81944V105.40718H17.82192V42.57419Z"/><path class="d" d="M109.91252,0c-9.96548,0-18.04854,8.02457-18.16163,17.96351l-.0246,6.78886h-10.81176c-5.20585,.0394-11.20342,.14814-15.35653,.41774-21.6151,1.40275-36.8733,18.64019-37.333,39.83211,0,18.95136,15.01772,41.58051,41.06839,41.58051,23.79576,0,38.93053-17.46317,40.0485-36.19113,.31208-5.22436,.5223-10.45659,.57064-15.69994V0Zm-40.6182,89.27945c-13.28786,0-23.16111-12.01125-23.16111-24.25615,0-11.0158,8.52158-23.12739,23.16114-23.12739h22.43194l-.00484,23.10664c0,15.69178-10.34349,24.2769-22.42712,24.2769Z"/><path class="f" d="M298.31247,54.69166c.04834,5.24335,.25856,10.47558,.57064,15.69994,1.11797,18.72796,16.25274,36.19113,40.0485,36.19113,26.05067,0,41.06839-22.62915,41.06839-41.58051-.4597-21.19192-15.7179-38.42936-37.333-39.83211-4.15311-.26959-10.15068-.37834-15.35653-.41775h-28.998v29.9393Zm18.19107,10.31089l-.00484-23.15029h22.43194c14.63955,0,23.16114,12.15524,23.16114,23.17104,0,12.2449-9.87325,24.25615-23.16111,24.25615-12.08364,0-22.42712-8.58512-22.42712-24.2769Z"/><path class="e" d="M198.7976,42.57419c0-9.82692-8.00105-17.79387-17.82192-17.81944V105.40718h17.82192V42.57419Z"/></g></g></g></svg>