<?xml version="1.0" encoding="UTF-8"?><svg xmlns="http://www.w3.org/2000/svg" viewBox="0 0 340.89964 238.56913"><defs><style>.d{fill:#cd0e2d;}.e{fill:#1e242d;}</style></defs><g id="a"/><g id="b"><g id="c"><g><g><path class="e" d="M117.54027,1.08517h-13.02229c-7.19222,0-13.02229,5.83026-13.02229,13.0223l.00003,78.13375c0,7.19195,5.83008,13.02229,13.0223,13.02229h13.02229l-.00003-104.17834Z"/><path class="e" d="M234.74094,0h-78.13375c-7.19201,0-13.02229,5.83028-13.02229,13.02229v13.02229h78.13375v52.08916h-78.13375v39.06688c0,7.19201,5.83028,13.02229,13.02229,13.02229h13.02229v-26.04458h65.09095c7.20334,0,13.0428-5.83946,13.0428-13.0428V13.02229c0-7.19201-5.83028-13.02229-13.02229-13.02229Z"/><rect class="d" x="143.5849" y="39.06687" width="26.04458" height="26.04458"/></g><g><path class="e" d="M0,155.93681H9.15206v38.59343H0v-38.59343Z"/><path class="e" d="M21.40528,155.93681h10.19961l9.48292,21.50061,9.42685-21.50061h10.14465v38.59343h-8.93111v-23.43196l-7.77364,18.52395h-6.06436l-7.77364-18.52395v23.43196h-8.71128v-38.59343Z"/><path class="e" d="M95.27227,186.36965h-12.29472l-2.20502,8.16059h-9.48405l11.68906-38.59343h12.62446l11.7429,38.59343h-9.86763l-2.20502-8.16059Zm-2.0951-7.77476l-4.02421-15.10538-4.08029,15.10538h8.10451Z"/><path class="e" d="M116.87158,186.92146v-23.37813c0-5.18168,2.48093-7.60653,7.60877-7.60653h14.27766c5.12785,0,7.60877,2.42485,7.60877,7.60653v5.12785h-9.09598v-3.80439c0-.82548-.27591-1.04531-1.04755-1.04531h-9.15206c-.77164,0-1.04755,.21983-1.04755,1.04531v20.73121c0,.77164,.27591,1.04755,1.04755,1.04755h9.15206c.77164,0,1.04755-.27591,1.04755-1.04755v-5.40375h-6.50514v-7.55269h15.60112v14.2799c0,5.12785-2.48093,7.60877-7.60877,7.60877h-14.27766c-5.12785,0-7.60877-2.48093-7.60877-7.60877Z"/><path class="e" d="M158.20838,155.93681h9.15206v38.59343h-9.15206v-38.59343Z"/><path class="e" d="M179.61478,155.93681h9.31805l13.61818,22.65808v-22.65808h8.87615v38.59343h-8.49033l-14.44365-23.92994v23.92994h-8.8784v-38.59343Z"/><path class="e" d="M246.01432,186.36965h-12.29472l-2.20502,8.16059h-9.48405l11.68906-38.59343h12.62446l11.7429,38.59343h-9.86763l-2.20502-8.16059Zm-2.0951-7.77476l-4.02421-15.10538-4.08029,15.10538h8.10451Z"/><path class="e" d="M299.17926,194.53023h-9.53788l-6.44906-13.28843h-5.34992v13.28843h-9.15206v-38.59343h21.50285c5.12785,0,7.60877,2.42485,7.60877,7.60653v9.65004c0,4.3562-1.70928,6.72497-5.29384,7.3867l6.67113,13.95016Zm-11.57691-20.8972c.77164,0,1.04755-.21983,1.04755-1.04531v-7.8286c0-.82997-.27591-1.0498-1.04755-1.0498h-9.75995v9.9237h9.75995Z"/><path class="e" d="M319.34295,181.95961l-12.46071-26.0228h9.9237l7.16911,16.75859,7.11079-16.75859h9.81379l-12.40463,26.0228v12.57062h-9.15206v-12.57062Z"/></g><g><path class="d" d="M92.38736,217.66295h10.21307c2.71758,0,4.18011,1.46702,4.18011,4.18124v4.41901c0,2.7187-1.46254,4.18124-4.18011,4.18124h-8.06301v8.1247h-2.15006v-20.90618Zm10.09306,10.81199c1.40421,0,2.15006-.74473,2.15006-2.14894v-4.54014c0-1.40421-.74585-2.14894-2.15006-2.14894h-7.943v8.83802h7.943Z"/><path class="d" d="M114.31978,217.66295h2.15006v20.90618h-2.15006v-20.90618Z"/><path class="d" d="M124.35564,234.38789v-12.54371c0-2.83534,1.34365-4.18124,4.18011-4.18124h6.21129c2.83759,0,4.18124,1.34589,4.18124,4.18124v2.27007h-2.15006v-2.32839c0-1.55226-.5978-2.14894-2.15006-2.14894h-5.97239c-1.55338,0-2.15006,.59668-2.15006,2.14894v12.66035c0,1.55226,.59668,2.14894,2.15006,2.14894h5.97239c1.55226,0,2.15006-.59668,2.15006-2.14894v-2.32839h2.15006v2.27007c0,2.7187-1.34365,4.18124-4.18124,4.18124h-6.21129c-2.83647,0-4.18011-1.46254-4.18011-4.18124Z"/><path class="d" d="M152.00921,219.63693h-6.4199v-1.97397h14.99098v1.97397h-6.42102v18.9322h-2.15006v-18.9322Z"/><path class="d" d="M167.6137,234.38789v-16.72494h2.15006v16.78326c0,1.55226,.5978,2.14894,2.15006,2.14894h6.03184c1.55338,0,2.15006-.59668,2.15006-2.14894v-16.78326h2.15006v16.72494c0,2.83534-1.34365,4.18124-4.18011,4.18124h-6.27073c-2.83759,0-4.18124-1.34589-4.18124-4.18124Z"/><path class="d" d="M205.31548,238.56913h-2.38896l-4.6579-8.63165h-5.82322v8.63165h-2.15006v-20.90618h10.18279c2.83647,0,4.18124,1.34589,4.18124,4.18124v3.91206c0,2.77702-1.2842,4.12291-4.00178,4.18124l4.6579,8.63165Zm-4.95624-10.60114c1.55226,0,2.15006-.59668,2.15006-2.14894v-4.03319c0-1.55226-.5978-2.14894-2.15006-2.14894h-7.91384v8.33107h7.91384Z"/><path class="d" d="M212.89957,217.66295h13.22899v1.97397h-11.07893v7.25435h9.34721v1.96949h-9.34721v7.73439h11.07893v1.97397h-13.22899v-20.90618Z"/><path class="d" d="M233.1328,234.38789v-2.12202h2.15118v2.30147c0,1.55226,.59668,2.14894,2.14894,2.14894h5.91295c1.55338,0,2.15006-.59668,2.15006-2.14894v-2.50784c0-1.58367-.6864-2.09062-2.15006-2.41812l-5.85238-1.34589c-2.32951-.53836-4.30012-1.13503-4.30012-4.27096v-2.18034c0-2.83534,1.34365-4.18124,4.18011-4.18124h5.79294c2.83759,0,4.18124,1.34589,4.18124,4.18124v1.91117h-2.15006v-2.09062c0-1.55226-.5978-2.14894-2.15006-2.14894h-5.55404c-1.55338,0-2.15006,.59668-2.15006,2.14894v2.12202c0,1.58367,.6864,2.09062,2.15006,2.41812l5.85238,1.34589c2.32951,.53387,4.30012,1.13503,4.30012,4.26647v2.57065c0,2.83534-1.34365,4.18124-4.18011,4.18124h-6.15184c-2.83647,0-4.18124-1.34589-4.18124-4.18124Z"/></g></g></g></g></svg>