<?xml version="1.0" encoding="utf-8"?>
<!-- Generator: Adobe Illustrator 25.3.1, SVG Export Plug-In . SVG Version: 6.00 Build 0)  -->
<svg version="1.1" id="Layer_1" xmlns="http://www.w3.org/2000/svg" xmlns:xlink="http://www.w3.org/1999/xlink" x="0px" y="0px"
	 viewBox="0 0 1280 940" style="enable-background:new 0 0 1280 940;" xml:space="preserve">
<style type="text/css">
	.st0{fill:#808080;}
	.st1{opacity:0.1;}
	.st2{clip-path:url(#SVGID_2_);}
	.st3{fill:#FFFFFF;}
	.st4{fill:#FFFFFF;stroke:#FFFFFF;stroke-width:1.1826;stroke-miterlimit:10;}
	.st5{fill:#FFFFFF;stroke:#FFFFFF;stroke-width:1.8607;stroke-linecap:round;stroke-linejoin:round;}
	.st6{fill:none;stroke:#FFFFFF;stroke-width:5.5811;}
	.st7{fill:#FFFFFF;stroke:#FFFFFF;stroke-width:1.8599;}
	.st8{clip-path:url(#SVGID_4_);}
	.st9{clip-path:url(#SVGID_6_);}
	.st10{fill:#FFFFFF;stroke:#232021;stroke-width:0.406;stroke-miterlimit:10;}
</style>
<g id="Layer_2_1_">
	<g id="Layer_1-2">
		<rect class="st0" width="1280" height="940"/>
	</g>
	<g id="Layer_2-2">
		<g class="st1">
			<g>
				<defs>
					<rect id="SVGID_1_" width="1280" height="940"/>
				</defs>
				<clipPath id="SVGID_2_">
					<use xlink:href="#SVGID_1_"  style="overflow:visible;"/>
				</clipPath>
				<g class="st2">
					<path class="st3" d="M1055.1,60.7c-1.8,1.1-4.1,1.1-5.9,0l-71.7-41.4v6.4c0,2.8,1.5,5.4,3.9,6.8l64.8,37.4
						c3.6,2.1,8.1,2.1,11.8,0l49.8-28.8l-9.5-5.5L1055.1,60.7z"/>
					<path class="st3" d="M1160.9,49.9l-34.1-19.7l0,0l0-79.3c0-4.2-2.2-8.1-5.9-10.2l-62.8-36.3c-3.6-2.1-8.1-2.1-11.8,0
						l-62.8,36.3c-3.6,2.1-5.9,6-5.9,10.2l0,53c0,2.8,1.5,5.4,3.9,6.8l67.7,39.1c1.8,1.1,4.1,1.1,5.9,0l33.8-19.5l-9.5-5.5v0
						l-25.4,14.6c-1.2,0.7-2.7,0.7-3.9,0L990,4.6c-1.8-1.1-2.9-3-2.9-5.1l0-46.6c0-2.1,1.1-4.1,2.9-5.1l59.3-34.2
						c1.8-1.1,4.1-1.1,5.9,0l59.3,34.2c1.8,1.1,2.9,3,2.9,5.1l0,71.8l0,0l-9.5-5.5l0,0l0-60.9c0-2.1-1.1-4.1-2.9-5.1l-49.8-28.7
						c-1.8-1.1-4.1-1.1-5.9,0l-49.8,28.7c-1.8,1.1-2.9,3-2.9,5.1V-6c0,2.1,1.1,4.1,2.9,5.1l50.8,29.3c1.2,0.7,2.7,0.7,3.9,0
						l25.3-14.6l81.4,47.3V49.9z M1079.5,2.9L1079.5,2.9l-27.8-16.1v8.7c0,1.4,0.7,2.7,2,3.4l16.4,9.5l-16.9,9.7
						c-0.6,0.4-1.4,0.4-2,0l-26.3-15.2v-30.4c0-0.7,0.4-1.3,1-1.7l5.3-3.1l20.1-11.6c0.6-0.4,1.4-0.4,2,0l25.3,14.6
						c0.6,0.4,1,1,1,1.7L1079.5,2.9z M1098.4,13.8l-9.5-5.5l0,0v-40.2c0-1.4-0.7-2.7-2-3.4l-32.8-19c-1.2-0.7-2.7-0.7-3.9,0
						l-23.9,13.8l-0.8,0.5l-3.9,2.3l-4.1,2.4c-1.2,0.7-2,2-2,3.4v29.3l-7.5-4.3c-1.2-0.7-2-2-2-3.4l0-27c0-1.4,0.7-2.7,2-3.4
						l42.3-24.4c1.2-0.7,2.7-0.7,3.9,0l42.3,24.4c1.2,0.7,2,2,2,3.4L1098.4,13.8L1098.4,13.8z"/>
					<path class="st3" d="M818.2,130.8c-1.2,0.5-2.5,0.9-3.8,1.1c-1.4,0.3-2.9,0.4-4.4,0.4c-2.9,0-5.9-0.5-8.6-1.6
						c-2.6-1-4.9-2.5-7-4.4c-4.1-3.9-6.4-9.4-6.3-15c0-5.7,2.2-11.1,6.3-15.1c2-1.9,4.4-3.5,7-4.5c5.5-2.2,11.7-2.2,17.2,0
						c2.6,1,4.9,2.6,7,4.5c4.1,4,6.3,9.4,6.3,15.1c0,2.8-0.5,5.6-1.7,8.2c-1,2.4-2.6,4.7-4.5,6.5l5.1,6.3l-7.3,5.6L818.2,130.8z
						 M810.9,121.5c-0.6-0.7-1.1-1.4-1.6-2.2c-0.4-0.6-0.7-1.4-0.7-2.1c0-0.8,0.2-1.7,0.7-2.3c0.5-0.6,1.1-1.1,1.7-1.4
						c0.7-0.4,1.4-0.6,2.2-0.7c0.7-0.1,1.4-0.2,2.1-0.2l4.4,5.8c0.6-0.9,1.1-1.9,1.3-3c0.4-1.4,0.6-2.8,0.6-4.2
						c0-1.6-0.3-3.3-0.9-4.8c-0.5-1.4-1.3-2.7-2.4-3.8c-1-1.1-2.3-1.9-3.7-2.5c-3-1.2-6.3-1.2-9.3,0c-1.4,0.6-2.6,1.4-3.7,2.5
						c-1,1.1-1.8,2.4-2.4,3.8c-1.1,3.1-1.1,6.5,0,9.6c0.5,1.4,1.4,2.7,2.4,3.9c1,1.1,2.3,2,3.7,2.6c1.5,0.6,3.1,1,4.7,0.9h1.1
						c0.4,0,0.8,0,1.1-0.1L810.9,121.5z"/>
					<path class="st3" d="M850.2,96.2c0-0.8,0.1-1.5,0.4-2.2c0.2-0.6,0.5-1.1,0.9-1.6c0.4-0.4,0.8-0.7,1.3-0.9
						c0.5-0.2,1-0.4,1.5-0.4c0.4-0.1,0.9-0.2,1.4-0.2c0.5-0.1,1.2-0.1,2-0.2c0.8-0.1,1.8-0.1,2.9-0.1c1.2,0,2.6-0.1,4.2-0.1
						c3-0.1,6,0.3,8.8,1.1c2.1,0.6,4,1.7,5.7,3.1c1.4,1.2,2.4,2.7,3.1,4.4c0.6,1.7,0.9,3.4,0.9,5.2c0,2.2-0.5,4.5-1.5,6.5
						c-1.1,2-2.8,3.7-4.8,4.7c0.6,0.9,1.2,2,1.9,3.3c0.7,1.3,1.4,2.6,2.2,4c0.8,1.4,1.5,2.8,2.3,4.3c0.7,1.5,1.5,2.9,2.1,4.4h-11.3
						c-0.2-0.4-0.6-1.2-1.1-2.4c-0.5-1.2-1.1-2.5-1.8-3.9c-0.7-1.4-1.4-2.8-2.1-4.1c-0.7-1.3-1.3-2.4-1.9-3.1
						c-0.6,0.1-1.1,0.1-1.7,0.1h-1.8c-0.2,0-0.6,0-1,0c-0.4,0-0.8,0-1.3-0.1c-0.4,0-0.8,0-1.2-0.1c-0.2,0-0.5,0-0.7-0.1v13.7h-9.6
						L850.2,96.2z M859.8,109.3c0.2,0,0.3,0,0.5,0.1c0.2,0,0.5,0.1,0.9,0.1c0.4,0,0.9,0.1,1.5,0.1c0.6,0,1.4,0,2.3,0
						c1.4,0,2.8-0.1,4.2-0.4c0.9-0.2,1.8-0.6,2.5-1.2c0.6-0.4,1-1,1.2-1.7c0.2-0.6,0.3-1.3,0.3-2c0-0.6-0.1-1.3-0.3-1.9
						c-0.2-0.7-0.6-1.3-1.2-1.8c-0.8-0.6-1.7-1.1-2.6-1.4c-1.5-0.4-3-0.6-4.5-0.5c-1.4,0-2.5,0-3.3,0.1c-0.8,0.1-1.3,0.1-1.5,0.1
						L859.8,109.3z"/>
					<path class="st3" d="M900,111.1c0-5.7,2.2-11.1,6.3-15.1c2-1.9,4.4-3.5,7-4.5c5.5-2.2,11.7-2.2,17.2,0c2.6,1,4.9,2.6,7,4.5
						c8.3,8.2,8.5,21.6,0.3,29.9c-0.1,0.1-0.2,0.2-0.3,0.3c-2,1.9-4.4,3.5-7,4.5c-5.5,2.2-11.7,2.2-17.2,0c-2.6-1-4.9-2.6-7-4.5
						C902.2,122.3,899.9,116.8,900,111.1z M921.8,123.2c1.6,0,3.2-0.3,4.7-0.9c1.4-0.6,2.6-1.5,3.7-2.6c1-1.1,1.8-2.4,2.4-3.8
						c0.6-1.5,0.9-3.1,0.9-4.8c0-1.6-0.3-3.3-0.9-4.8c-0.5-1.4-1.3-2.7-2.4-3.8c-1-1.1-2.3-1.9-3.7-2.5c-3-1.2-6.3-1.2-9.3,0
						c-1.4,0.6-2.6,1.4-3.7,2.5c-1,1.1-1.8,2.4-2.4,3.8c-0.6,1.5-0.9,3.2-0.9,4.8c0,1.6,0.3,3.3,0.9,4.8c0.5,1.4,1.4,2.7,2.4,3.8
						c1,1.1,2.3,2,3.7,2.6C918.6,122.9,920.2,123.2,921.8,123.2L921.8,123.2z"/>
					<path class="st3" d="M962,96c0-0.9,0.1-1.7,0.5-2.5c0.3-0.6,0.7-1.2,1.2-1.6c0.5-0.4,1.1-0.6,1.7-0.8c0.6-0.2,1.3-0.2,2-0.2
						c1.1,0,2.3,0.1,3.3,0.6c0.6,0.2,1.1,0.5,1.6,0.9c0.5,0.5,0.9,1.1,1.3,1.7c0.7,0.9,1.5,2.1,2.5,3.5c1,1.4,2,2.9,3.1,4.6
						c1.1,1.7,2.2,3.3,3.3,4.9c1.1,1.6,2,3.1,2.9,4.4c0.9,1.4,1.6,2.4,2.1,3.3V95.3c-0.1-1.3,0.4-2.6,1.4-3.4c1.1-0.7,2.4-1,3.7-1
						c1,0,2,0.1,3,0.4c0.9,0.3,1.4,0.5,1.6,0.5v39.5H988c-0.4-0.6-0.9-1.5-1.6-2.7c-0.7-1.2-1.6-2.5-2.6-4c-1-1.5-2-3.1-3.2-4.8
						c-1.1-1.7-2.2-3.4-3.3-5c-1.1-1.7-2.1-3.2-3.1-4.7c-1-1.5-1.8-2.7-2.5-3.7v24.9H962L962,96z"/>
					<path class="st3" d="M1015.5,111.1c0-5.7,2.2-11.1,6.3-15.1c2-1.9,4.4-3.5,7-4.5c5.5-2.2,11.7-2.2,17.2,0c2.6,1,4.9,2.6,7,4.5
						c8.3,8.2,8.5,21.6,0.3,29.9c-0.1,0.1-0.2,0.2-0.3,0.3c-2,1.9-4.4,3.5-7,4.5c-5.5,2.2-11.7,2.2-17.2,0c-2.6-1-4.9-2.6-7-4.5
						C1017.8,122.3,1015.5,116.8,1015.5,111.1L1015.5,111.1z M1037.4,123.2c1.6,0,3.2-0.3,4.7-0.9c1.4-0.6,2.6-1.5,3.7-2.6
						c1-1.1,1.8-2.4,2.4-3.8c0.6-1.5,0.9-3.1,0.9-4.8c0-1.6-0.3-3.3-0.9-4.8c-0.5-1.4-1.3-2.7-2.4-3.8c-1-1.1-2.3-1.9-3.7-2.5
						c-3-1.2-6.3-1.2-9.3,0c-1.4,0.6-2.6,1.4-3.7,2.5c-1,1.1-1.9,2.4-2.4,3.8c-0.6,1.5-0.9,3.2-0.9,4.8c0,1.6,0.3,3.3,0.9,4.8
						c0.5,1.4,1.4,2.7,2.4,3.8c1,1.1,2.3,2,3.7,2.6C1034.2,122.9,1035.8,123.2,1037.4,123.2z"/>
					<path class="st3" d="M1077.5,131.3V95.3c-0.1-1.3,0.4-2.6,1.4-3.4c1.1-0.7,2.4-1,3.7-1c1,0,2,0.1,3,0.4
						c0.9,0.3,1.4,0.5,1.7,0.5v30.3h18.7v9.2L1077.5,131.3z"/>
					<path class="st3" d="M1119.9,111.1c0-5.7,2.2-11.1,6.3-15.1c2-1.9,4.4-3.5,7-4.5c5.5-2.2,11.7-2.2,17.2,0c2.6,1,4.9,2.6,7,4.5
						c8.3,8.2,8.5,21.6,0.3,29.9c-0.1,0.1-0.2,0.2-0.3,0.3c-2,1.9-4.4,3.5-7,4.5c-5.5,2.2-11.7,2.2-17.2,0c-2.6-1-4.9-2.6-7-4.5
						C1122.1,122.3,1119.8,116.8,1119.9,111.1z M1141.7,123.2c1.6,0,3.2-0.3,4.7-0.9c1.4-0.6,2.6-1.5,3.7-2.6c1-1.1,1.8-2.4,2.4-3.8
						c0.6-1.5,0.9-3.1,0.9-4.8c0-1.6-0.3-3.3-0.9-4.8c-0.5-1.4-1.3-2.7-2.4-3.8c-1-1.1-2.3-1.9-3.7-2.5c-3-1.2-6.3-1.2-9.3,0
						c-1.4,0.6-2.6,1.4-3.7,2.5c-1,1.1-1.8,2.4-2.4,3.8c-0.6,1.5-0.9,3.2-0.9,4.8c0,1.6,0.3,3.3,0.9,4.8c0.5,1.4,1.4,2.7,2.4,3.8
						c1,1.1,2.3,2,3.7,2.6C1138.6,122.9,1140.1,123.2,1141.7,123.2z"/>
					<path class="st3" d="M1207.3,116.5h-3.6c-1.4,0.1-2.8-0.3-3.9-1.1c-0.8-0.9-1.2-2.1-1.1-3.3c0-1,0.1-1.9,0.5-2.9
						c0.2-0.6,0.5-1.2,0.8-1.7h11.2c3.9,0,5.8,1.9,5.8,5.6v18.2c-0.2,0-0.7,0.1-1.4,0.2c-0.8,0.1-1.7,0.2-2.9,0.4
						c-1.2,0.1-2.5,0.2-4,0.3c-1.5,0.1-3,0.1-4.6,0.1c-3.3,0-6.5-0.4-9.7-1.3c-2.8-0.8-5.3-2.1-7.5-4c-2.1-1.8-3.8-4.1-4.9-6.6
						c-1.2-2.9-1.8-6.1-1.7-9.3c0-3,0.5-6.1,1.7-8.9c1.1-2.5,2.7-4.8,4.7-6.7c2.1-1.9,4.5-3.3,7.1-4.2c2.9-1,5.9-1.5,9-1.5
						c1.5,0,2.9,0.1,4.4,0.3c1.1,0.2,2.3,0.4,3.4,0.7c0.8,0.2,1.7,0.5,2.4,0.9c0.7,0.3,1.2,0.6,1.6,0.9c1.5,0.8,2.4,2.3,2.5,3.9
						c0,0.7-0.1,1.4-0.4,2.1c-0.3,0.6-0.6,1.2-1,1.7c-0.4,0.5-0.8,0.9-1.2,1.3c-0.4,0.4-0.8,0.7-1.1,0.9c-0.5-0.5-1-0.9-1.5-1.3
						c-0.7-0.5-1.4-0.9-2.2-1.3c-0.9-0.4-1.9-0.7-2.9-0.9c-1.2-0.2-2.5-0.4-3.7-0.4c-1.8,0-3.5,0.3-5.2,0.9
						c-1.5,0.5-2.8,1.4-3.9,2.5c-1.1,1.1-1.9,2.5-2.4,3.9c-0.6,1.6-0.9,3.4-0.9,5.1c0,4.2,1.2,7.3,3.6,9.3c2.4,2,5.6,2.9,9.8,2.9
						c0.7,0,1.4,0,2.2-0.1c0.5,0,0.9,0,1.4-0.1L1207.3,116.5z"/>
					<path class="st3" d="M1236.1,96.5c0-3.7,1.9-5.6,5.8-5.6h20.2c1.4-0.1,2.8,0.3,3.9,1.1c0.8,0.9,1.2,2.1,1.1,3.3
						c0,1-0.1,2-0.5,2.9c-0.2,0.6-0.5,1.2-0.8,1.8h-19.9v6.3h15.4c1.4-0.1,2.8,0.3,3.9,1.1c0.8,0.9,1.2,2.1,1.1,3.3
						c0,1-0.1,2-0.5,2.9c-0.2,0.6-0.5,1.2-0.8,1.8h-19.2v6.5h20.9v9.2h-30.7L1236.1,96.5z"/>
					<path class="st3" d="M1285.6,96.2c0-0.8,0.1-1.5,0.4-2.2c0.2-0.6,0.5-1.1,0.9-1.6c0.4-0.4,0.8-0.7,1.3-0.9
						c0.5-0.2,1-0.4,1.5-0.4c0.4-0.1,0.9-0.2,1.4-0.2c0.5-0.1,1.2-0.1,2-0.2c0.8-0.1,1.8-0.1,2.9-0.1c1.2,0,2.6-0.1,4.2-0.1
						c3-0.1,6,0.3,8.8,1.1c2.1,0.6,4,1.7,5.7,3.1c1.4,1.2,2.4,2.7,3.1,4.4c0.6,1.7,0.9,3.4,0.9,5.2c0,2.2-0.5,4.5-1.5,6.5
						c-1.1,2-2.8,3.7-4.8,4.7c0.6,0.9,1.2,2,1.9,3.3c0.7,1.3,1.4,2.6,2.2,4c0.8,1.4,1.5,2.8,2.3,4.3c0.7,1.5,1.5,2.9,2.1,4.4h-11.3
						c-0.2-0.4-0.6-1.2-1.1-2.4c-0.5-1.2-1.1-2.5-1.8-3.9c-0.7-1.4-1.4-2.8-2.1-4.1c-0.7-1.3-1.3-2.4-1.9-3.1
						c-0.6,0.1-1.1,0.1-1.7,0.1h-1.8c-0.2,0-0.6,0-1,0c-0.4,0-0.8,0-1.3-0.1c-0.4,0-0.8,0-1.2-0.1c-0.2,0-0.5,0-0.7-0.1v13.7h-9.6
						V96.2z M1295.2,109.3c0.2,0,0.3,0,0.5,0.1c0.2,0,0.5,0.1,0.9,0.1c0.4,0,0.9,0.1,1.5,0.1c0.6,0,1.4,0,2.3,0
						c1.4,0,2.8-0.1,4.2-0.4c0.9-0.2,1.8-0.6,2.5-1.2c0.6-0.4,1-1,1.2-1.7c0.2-0.6,0.3-1.3,0.3-2c0-0.6-0.1-1.3-0.3-1.9
						c-0.2-0.7-0.6-1.3-1.2-1.8c-0.8-0.6-1.7-1.1-2.6-1.4c-1.5-0.4-3-0.6-4.5-0.5c-1.4,0-2.5,0-3.3,0.1c-0.8,0.1-1.3,0.1-1.5,0.1
						L1295.2,109.3z"/>
					<path class="st3" d="M958.3,981v-53.3c0-10.8,5.1-16.4,16.4-16.4h23v20.5h-15.2c-2.4,0-3.6,1.2-3.6,3.6V981H958.3z"/>
					<rect x="1009.6" y="911.4" class="st3" width="20.5" height="69.6"/>
					<path class="st3" d="M1117.5,981v-45.4c0.2-1.8-1-3.3-2.8-3.6c-0.3,0-0.5,0-0.8,0h-13v49h-20.3v-49h-12.8
						c-2.4,0-3.6,1.2-3.6,3.6V981h-20.3v-53.3c0-10.9,5.5-16.4,16.3-16.4h61.2c10.8,0,16.1,5.5,16.1,16.5V981H1117.5z"/>
					<path class="st3" d="M1193.8,932h-18.5c-2.4,0-3.6,1.2-3.6,3.6v21.1c0,2.5,1.2,3.8,3.6,3.8h18.5V932z M1167.9,981
						c-11,0-16.6-5.2-16.6-15.8v-37.5c0-10.9,5.5-16.4,16.2-16.4h26.3v-20.5h20.5V981H1167.9z"/>
					<path class="st3" d="M1228.5,981v-53.3c0-10.8,5.1-16.4,16.4-16.4h23v20.5h-15.2c-2.4,0-3.6,1.2-3.6,3.6V981H1228.5z"/>
					<rect x="1279.8" y="911.4" class="st3" width="20.5" height="69.6"/>
					<path class="st3" d="M1387.7,981v-45.4c0.2-1.8-1-3.3-2.8-3.6c-0.3,0-0.5,0-0.8,0h-13v49h-20.3v-49H1338
						c-2.4,0-3.6,1.2-3.6,3.6V981h-20.3v-53.3c0-10.9,5.5-16.4,16.3-16.4h61.2c10.8,0,16.1,5.5,16.1,16.5V981H1387.7z"/>
					<path class="st3" d="M1347.6,849.8c-0.7-0.4-1.6-0.2-2.1,0.5c-1.3,1.6-2.7,3.2-4.1,4.7c-19.3,19.3-50.7,19.4-70.1,0
						c-19.3-19.3-19.4-50.7,0-70.1c0,0,0,0,0,0c1.5-1.5,3-2.9,4.7-4.1c0.7-0.6,0.9-1.7,0.3-2.4c-0.4-0.5-1.1-0.8-1.8-0.6
						c-32.1,8.7-51.1,41.9-42.3,74c8.7,32.1,41.9,51.1,74,42.3c20.6-5.6,36.7-21.7,42.3-42.3C1348.7,851,1348.4,850.1,1347.6,849.8"
						/>
					<path class="st4" d="M1306.8,797.8l-3.4-15.5c2.4-0.8,5.1-0.8,7.5,0l-3.5,15.5L1306.8,797.8z"/>
					<path class="st5" d="M1306.8,797.8l-3.4-15.5c2.4-0.8,5.1-0.8,7.5,0l-3.5,15.5L1306.8,797.8z"/>
					<path class="st4" d="M1306.8,841l-3.4,15.5c2.4,0.8,5.1,0.8,7.5,0l-3.5-15.5L1306.8,841z"/>
					<path class="st5" d="M1306.8,841l-3.4,15.5c2.4,0.8,5.1,0.8,7.5,0l-3.5-15.5L1306.8,841z"/>
					<path class="st4" d="M1296,800.8l-10.7-11.7c1.7-1.9,4-3.2,6.5-3.7l4.7,15.2L1296,800.8z"/>
					<path class="st5" d="M1296,800.8l-10.7-11.7c1.7-1.9,4-3.2,6.5-3.7l4.7,15.2L1296,800.8z"/>
					<path class="st4" d="M1317.6,838.3l4.8,15.1c2.5-0.5,4.8-1.8,6.5-3.7l-10.8-11.7L1317.6,838.3z"/>
					<path class="st5" d="M1317.6,838.3l4.8,15.1c2.5-0.5,4.8-1.8,6.5-3.7l-10.8-11.7L1317.6,838.3z"/>
					<path class="st4" d="M1288.2,808.9l-15.1-4.8c0.5-2.5,1.8-4.8,3.7-6.5l11.7,10.8L1288.2,808.9z"/>
					<path class="st5" d="M1288.2,808.9l-15.1-4.8c0.5-2.5,1.8-4.8,3.7-6.5l11.7,10.8L1288.2,808.9z"/>
					<path class="st4" d="M1325.7,830.5l11.7,10.7c1.9-1.7,3.2-4,3.7-6.5l-15.2-4.7L1325.7,830.5z"/>
					<path class="st5" d="M1325.7,830.5l11.7,10.7c1.9-1.7,3.2-4,3.7-6.5l-15.2-4.7L1325.7,830.5z"/>
					<path class="st4" d="M1285.5,819.7l-15.5,3.4c-0.8-2.4-0.8-5.1,0-7.5l15.5,3.5L1285.5,819.7z"/>
					<path class="st5" d="M1285.5,819.7l-15.5,3.4c-0.8-2.4-0.8-5.1,0-7.5l15.5,3.5L1285.5,819.7z"/>
					<path class="st4" d="M1328.7,819.7l15.5,3.4c0.8-2.4,0.8-5.1,0-7.5l-15.5,3.5L1328.7,819.7z"/>
					<path class="st5" d="M1328.7,819.7l15.5,3.4c0.8-2.4,0.8-5.1,0-7.5l-15.5,3.5L1328.7,819.7z"/>
					<path class="st4" d="M1288.5,830.5l-11.7,10.7c-1.9-1.7-3.2-4-3.7-6.5l15.2-4.7L1288.5,830.5z"/>
					<path class="st5" d="M1288.5,830.5l-11.7,10.7c-1.9-1.7-3.2-4-3.7-6.5l15.2-4.7L1288.5,830.5z"/>
					<path class="st4" d="M1326,808.9l15.1-4.8c-0.5-2.5-1.8-4.8-3.7-6.5l-11.7,10.8L1326,808.9z"/>
					<path class="st5" d="M1326,808.9l15.1-4.8c-0.5-2.5-1.8-4.8-3.7-6.5l-11.7,10.8L1326,808.9z"/>
					<path class="st4" d="M1296.5,838.3l-4.8,15.1c-2.5-0.5-4.8-1.8-6.5-3.7L1296,838L1296.5,838.3z"/>
					<path class="st5" d="M1296.5,838.3l-4.8,15.1c-2.5-0.5-4.8-1.8-6.5-3.7L1296,838L1296.5,838.3z"/>
					<path class="st4" d="M1318.2,800.8l10.7-11.7c-1.7-1.9-4-3.2-6.5-3.7l-4.7,15.2L1318.2,800.8z"/>
					<path class="st5" d="M1318.2,800.8l10.7-11.7c-1.7-1.9-4-3.2-6.5-3.7l-4.7,15.2L1318.2,800.8z"/>
					<rect x="-204.1" y="498.5" class="st6" width="91.4" height="91.4"/>
					<path class="st3" d="M-132.5,564.1c-1.2,3.2-3.6,5.8-6.7,7.2c-3,1.5-6.5,1.7-9.6,0.6c-3.4-1.1-6-3.7-7.3-7
						c-1.2-2.8-1.3-5.8-0.5-8.7l0.8-2.1c1.3-2.9,3.7-5.2,6.6-6.5c3-1.4,6.4-1.5,9.5-0.2c3.2,1.2,5.7,3.7,7,6.9
						C-131.4,557.4-131.3,560.9-132.5,564.1 M-128.7,552.5c-1.7-4.3-5.2-7.7-9.6-9.2c-4.4-1.7-9.4-1.4-13.5,0.9l12.8-32.8l-6.4,4.2
						l-14.7,37.4l-0.1,0.2c-0.4,1-0.8,2.1-1,3.1l-5.9,15.5l5.4-2.4l1.4-3.5c0.1,0.2,0.2,0.5,0.3,0.7c1.7,4.3,5.3,7.7,9.7,9.3
						c4.2,1.6,8.9,1.4,12.9-0.5c4.1-1.8,7.4-5.2,9-9.4C-126.8,561.7-126.8,556.8-128.7,552.5"/>
					<path class="st7" d="M-132.5,564.1c-1.2,3.2-3.6,5.8-6.7,7.2c-3,1.5-6.5,1.7-9.6,0.6c-3.4-1.1-6-3.7-7.3-7
						c-1.2-2.8-1.3-5.8-0.5-8.7l0.8-2.1c1.3-2.9,3.7-5.2,6.6-6.5c3-1.4,6.4-1.5,9.5-0.2c3.2,1.2,5.7,3.7,7,6.9
						C-131.4,557.4-131.3,560.9-132.5,564.1z M-128.7,552.5c-1.7-4.3-5.2-7.7-9.6-9.2c-4.4-1.7-9.4-1.4-13.5,0.9l12.8-32.8l-6.4,4.2
						l-14.7,37.4l-0.1,0.2c-0.4,1-0.8,2.1-1,3.1l-5.9,15.5l5.4-2.4l1.4-3.5c0.1,0.2,0.2,0.5,0.3,0.7c1.7,4.3,5.3,7.7,9.7,9.3
						c4.2,1.6,8.9,1.4,12.9-0.5c4.1-1.8,7.4-5.2,9-9.4C-126.8,561.7-126.8,556.8-128.7,552.5L-128.7,552.5z"/>
					<path class="st3" d="M-158.3,538h-4.7c-1.9,4.5-6.3,7.4-11.2,7.3c-3.2,0.1-6.4-1.1-8.8-3.2c-1.8-1.5-3.1-3.6-3.8-5.8h0v0
						c-0.2-0.8-0.4-1.6-0.5-2.4v-4.1c0.2-0.9,0.4-1.8,0.8-2.6l0-0.1h0c0.8-1.9,2.1-3.6,3.7-4.9c2.4-1.9,5.3-2.9,8.4-2.9
						c3,0,5.9,1,8.2,2.9c2.2,1.9,3.7,4.4,4.3,7.3l4.3,0c-0.5-3.5-2.1-6.7-4.6-9.2c-3-3.3-7.1-5.2-11.5-5.5c-4.8-0.3-9.5,1.5-12.9,5
						c-3.5,3.3-5.4,8-5.3,12.9c0,4.6,2,9,5.4,12.1c3.2,3.3,7.5,5.1,12.1,5c3.5,0,7-1.1,9.8-3.2C-161.6,544.4-159.4,541.4-158.3,538"
						/>
					<path class="st7" d="M-158.3,538h-4.7c-1.9,4.5-6.3,7.4-11.2,7.3c-3.2,0.1-6.4-1.1-8.8-3.2c-1.8-1.5-3.1-3.6-3.8-5.8h0v0
						c-0.2-0.8-0.4-1.6-0.5-2.4v-4.1c0.2-0.9,0.4-1.8,0.8-2.6l0-0.1h0c0.8-1.9,2.1-3.6,3.7-4.9c2.4-1.9,5.3-2.9,8.4-2.9
						c3,0,5.9,1,8.2,2.9c2.2,1.9,3.7,4.4,4.3,7.3l4.3,0c-0.5-3.5-2.1-6.7-4.6-9.2c-3-3.3-7.1-5.2-11.5-5.5c-4.8-0.3-9.5,1.5-12.9,5
						c-3.5,3.3-5.4,8-5.3,12.9c0,4.6,2,9,5.4,12.1c3.2,3.3,7.5,5.1,12.1,5c3.5,0,7-1.1,9.8-3.2C-161.6,544.4-159.4,541.4-158.3,538z
						"/>
					<path class="st3" d="M186.9,587c-5.6,5-12.8,7.7-20.2,7.6h-0.4c-16,0-28.9-9.9-28.9-28.9v-63h26c6.9-0.1,13.6,2.1,19,6.4
						c5.7,4.5,8.5,10.3,8.5,17.2c0,8.2-3.5,14.6-10.5,19.1c9.5,4.5,14.4,12.1,14.8,23C195.4,575.8,192.7,582,186.9,587 M185.8,567.6
						c-0.3-5.8-2.6-10.2-6.9-13.2c-3.9-2.7-9.1-4-15.6-4H147v14.2c0,15.9,10,21.2,19.3,21.2c8,0,10.4-1.9,14-5
						C184.2,577.6,186.3,572.6,185.8,567.6 M163.3,511.3H147V542h16.8c4.6,0.1,9-1.4,12.6-4.2c3.5-2.5,5.5-6.6,5.5-10.9
						c0.2-4.6-2-8.9-5.8-11.6C172.4,512.5,167.9,511.1,163.3,511.3"/>
					<path class="st3" d="M-8.5,568.4c-3.9,7.6-9.8,14.1-17.1,18.6c-7.4,4.5-15.9,6.8-24.5,6.9c-13,0.2-24.1-4.5-33.4-14
						c-9.1-8.9-14.1-21.2-13.9-33.9c0-13.5,4.7-24.8,14-33.8c9.1-8.9,20.2-13.3,33.3-13.3c8.8,0,17.5,2.4,25,7
						c7.1,4.5,12.9,10.8,16.7,18.3h-10.4c-7.6-11.1-18.3-16.6-32-16.5c-9.9-0.1-19.5,3.9-26.3,11c-7.2,7-11.3,16.5-11.4,26.6
						c-0.4,10.4,3.6,20.5,11,27.9c7.1,7.6,17,11.9,27.4,11.8c6.4,0,12.6-1.7,18.1-4.9c5.3-2.8,9.9-6.8,13.3-11.7H-8.5z"/>
					<path class="st3" d="M57.1,592H48v-39.6c0-5.6-2.3-11-6.4-14.9c-3.9-4-9.3-6.2-14.9-6c-5.4-0.1-10.7,2-14.6,5.8
						c-4,3.7-6.1,9-6,14.4V592H-3V500h9.1v33.7c5.2-6.8,11.8-10.3,20-10.7c8.1-0.5,16.1,2.5,21.8,8.4c6,5.8,9.3,13.8,9.2,22.1V592z"
						/>
					<path class="st3" d="M123.2,552.7c-1.1-6-4.3-11.5-9-15.5c-4.7-3.9-10.7-6.1-16.8-6c-12.9-0.3-24.1,8.8-26.4,21.5H123.2z
						 M132.2,561.1H71c0.6,6.6,3.7,12.7,8.7,17c5,4.4,11.4,6.8,18,6.6c10.7-0.2,18.4-5.1,23-14.9h9.7c-4.8,14.2-18.1,23.9-33.1,24
						c-9.3,0.2-17.6-3.2-24.7-10.2c-14.2-13.5-14.7-36-1.2-50.2c0.3-0.3,0.7-0.7,1-1c7.4-7.4,16.2-10.8,26.3-10.2
						c9.1,0.6,17,4.3,23.6,11.2c6.4,6.8,9.7,14.5,9.7,22.9V561.1z"/>
					<path class="st3" d="M259,557.3c-0.1-6.9-2.9-13.5-7.7-18.5c-4.6-5-11-7.8-17.8-7.7c-7-0.2-13.7,2.6-18.6,7.6
						c-5,4.9-7.8,11.6-7.8,18.7c-0.2,7,2.3,13.8,7.1,18.9c4.5,5.2,11,8.3,17.8,8.5c7.3,0.5,14.3-2.4,19.2-7.8
						C256.5,571.7,259.3,564.6,259,557.3 M268.1,558c0.1,9.6-3.8,18.8-10.7,25.4c-13.3,13.5-35.1,13.6-48.6,0.3
						c-0.3-0.3-0.6-0.6-0.8-0.8c-13.4-14.2-13.1-36.5,0.8-50.3c6.6-6.9,15.8-10.6,25.3-10.2c9.2,0.2,17.9,4.1,24.1,10.9
						C264.7,539.8,268.2,548.8,268.1,558"/>
					<path class="st3" d="M332.2,592h-9.1v-39.8c0.1-5.6-2.2-11-6.3-14.8c-8-8.2-21.1-8.3-29.2-0.3c-0.1,0.1-0.2,0.2-0.3,0.3
						c-4.1,3.8-6.4,9.2-6.3,14.8V592h-9.1v-38.8c0-8.8,2.9-16.2,8.6-22c5.7-5.9,12.9-8.8,21.6-8.8c8.1-0.2,15.9,3,21.5,8.8
						c5.7,5.8,8.6,13.2,8.6,22V592z"/>
					<path class="st3" d="M397.1,562.8c0,8.8-2.8,16.2-8.5,22.1c-5.7,5.9-12.9,8.8-21.6,8.8c-8.7,0-15.9-2.9-21.6-8.8
						c-5.7-5.9-8.5-13.3-8.5-22.1V524h9.1v40c-0.1,5.6,2.2,11,6.3,14.8c8,8.1,21.1,8.2,29.2,0.2c0.1-0.1,0.2-0.2,0.2-0.2
						c4.1-3.8,6.4-9.2,6.3-14.8v-40h9.1V562.8z"/>
					<path class="st3" d="M442,571.7c0.5,6.1-1.7,11.4-6.4,15.9c-4.3,4.3-10.4,6.6-16.5,6.1c-5.5-0.3-10.7-2.8-14.4-6.9
						c-3.8-4.1-5.9-9.5-5.8-15h9.4v2.3c0,2.3,1.3,4.7,3.8,7.2c2.5,2.5,5.3,3.7,8.1,3.6c3.4,0.1,6.6-1.2,9.1-3.5
						c2-2.2,3.2-5.1,3.1-8.1c0.1-5.8-3.2-9.8-9.9-12l-8-2.5c-8.4-2.6-12.7-8.3-13.1-17.1c-0.3-5.1,1.6-10,5.3-13.5
						c3.6-3.7,8.5-5.8,13.7-6c4.7-0.2,9.4,1.4,13,4.5c3.8,2.8,6.2,7.2,6.5,12v2h-9.6v-1.6c0-2.3-1.1-4.5-3-5.9c-2-1.5-4.5-2.3-7-2.2
						c-2.5,0.1-4.8,1-6.6,2.8c-1.8,1.7-2.9,4.1-2.9,6.6c-0.3,4.9,2.6,8.4,8.7,10.4l7.9,2.6C436.5,556.7,441.3,562.7,442,571.7"/>
					<path class="st3" d="M147.2,622.1c0.9-0.9,1.4-2.2,1.3-3.5c0-1.3-0.5-2.5-1.4-3.4c-0.9-0.9-2.1-1.5-3.4-1.4
						c-1.2,0-2.4,0.5-3.3,1.4c-1.9,2-1.9,5.1,0,7.1c0.9,1,2.2,1.5,3.5,1.4C145.2,623.7,146.4,623.1,147.2,622.1 M137.4,618.7V608
						h1.6v6.4c1.1-1.4,2.8-2.2,4.6-2.2c1.8-0.1,3.5,0.6,4.7,1.9c2.6,2.6,2.6,6.7,0.2,9.3c-1.1,1.2-2.7,2-4.4,2
						c-1.8,0.1-3.5-0.6-4.7-1.9C138,622.3,137.3,620.5,137.4,618.7L137.4,618.7z"/>
					<polygon class="st3" points="156.7,629.5 154.9,629.5 156.7,624.7 152,612.5 153.8,612.5 157.8,622.5 162,612.5 163.7,612.5 
											"/>
					<rect x="180.3" y="608" class="st3" width="1.7" height="17.1"/>
					<path class="st3" d="M197,625.1h-1.7v-7.4c0-1-0.4-2-1.2-2.8c-0.7-0.7-1.7-1.2-2.7-1.2c-1,0-2,0.4-2.7,1.2
						c-0.7,0.7-1.2,1.7-1.1,2.8v7.4h-1.7v-7.2c0-1.5,0.5-3,1.6-4.1c2.2-2.2,5.7-2.2,7.9,0c0,0,0,0,0,0c1.1,1.1,1.6,2.6,1.6,4.1
						L197,625.1z"/>
					<path class="st3" d="M211.8,625.1h-1.7v-7.4c0-1-0.4-2-1.2-2.8c-0.7-0.7-1.7-1.2-2.7-1.2c-1,0-2,0.4-2.7,1.2
						c-0.7,0.7-1.2,1.7-1.1,2.8v7.4h-1.7v-7.2c0-1.5,0.5-3,1.6-4.1c2.2-2.2,5.7-2.2,7.9,0c0,0,0,0,0,0c1.1,1.1,1.6,2.6,1.6,4.1
						L211.8,625.1z"/>
					<path class="st3" d="M221.9,623.7c1.3,0.1,2.6-0.4,3.5-1.4c1-1,1.5-2.3,1.4-3.6c0-1.3-0.5-2.5-1.4-3.4c-0.8-0.9-2-1.4-3.2-1.4
						c-1.3,0-2.5,0.5-3.4,1.4c-0.9,0.9-1.4,2.1-1.4,3.4c0,1.3,0.4,2.6,1.3,3.5C219.5,623.1,220.7,623.7,221.9,623.7 M226.5,623.5
						c-1.2,1.3-2.9,2-4.7,1.9c-1.7,0-3.3-0.7-4.4-2c-2.5-2.7-2.4-6.8,0.2-9.3c1.2-1.3,2.9-2,4.7-1.9c1.7,0,3.3,0.8,4.4,2
						C229.2,616.8,229.1,621,226.5,623.5"/>
					<polygon class="st3" points="237.1,625.1 235.4,625.1 230.2,612.5 232,612.5 236.2,622.9 240.5,612.5 242.3,612.5 					"/>
					<path class="st3" d="M245.6,618.6c0,1.3,0.4,2.6,1.3,3.5c0.8,1,2,1.5,3.3,1.6c1.3,0.1,2.6-0.4,3.5-1.4c1-1,1.5-2.3,1.4-3.7
						c0-1.3-0.5-2.5-1.4-3.4c-0.8-0.9-2-1.4-3.3-1.4c-1.3,0-2.5,0.5-3.4,1.4C246.2,616.1,245.6,617.4,245.6,618.6 M256.8,625.1h-1.6
						v-2c-1.2,1.5-3.1,2.3-5,2.3c-1.7,0-3.3-0.8-4.4-2c-2.5-2.6-2.4-6.8,0.1-9.3c1.2-1.3,2.9-2,4.7-1.9c1.7,0,3.3,0.8,4.5,2
						c1.2,1.2,1.8,2.9,1.8,4.6L256.8,625.1L256.8,625.1z"/>
					<path class="st3" d="M290.1,620.7c-1.5,2.9-4.4,4.7-7.7,4.7c-2.3,0-4.6-0.9-6.1-2.6c-1.7-1.7-2.6-3.9-2.5-6.3
						c-0.1-2.4,0.9-4.6,2.6-6.3c1.6-1.6,3.8-2.5,6.1-2.5c3.2,0,6.2,1.8,7.7,4.7h-1.9c-2.2-3.2-6.5-4-9.7-1.8c-0.4,0.2-0.7,0.5-1,0.8
						c-1.3,1.3-2.1,3.1-2.1,4.9c-0.1,1.9,0.7,3.8,2,5.2c2.2,2.3,5.6,2.8,8.4,1.3c1-0.5,1.8-1.3,2.4-2.2L290.1,620.7z"/>
					<path class="st3" d="M297.9,623.7c1.3,0.1,2.6-0.4,3.5-1.4c1-1,1.5-2.3,1.4-3.6c0-1.3-0.5-2.5-1.4-3.4c-0.8-0.9-2-1.4-3.2-1.4
						c-1.3,0-2.5,0.5-3.4,1.4c-0.9,0.9-1.4,2.1-1.4,3.4c0,1.3,0.4,2.6,1.3,3.5C295.5,623.1,296.7,623.7,297.9,623.7 M302.6,623.5
						c-1.2,1.3-2.9,2-4.7,1.9c-1.7,0-3.3-0.7-4.4-2c-1.2-1.2-1.8-2.9-1.8-4.6c0-1.8,0.7-3.5,2-4.7c1.2-1.3,2.9-2,4.7-1.9
						c1.7,0,3.3,0.8,4.4,2C305.2,616.8,305.1,621,302.6,623.5"/>
					<path class="st3" d="M326.3,625.1h-1.7v-7.8c0-0.9-0.3-1.8-0.8-2.5c-0.5-0.7-1.3-1.1-2.2-1c-0.9,0-1.7,0.3-2.4,0.9
						c-0.6,0.6-1,1.4-1,2.3v8.1h-1.8V617c0-0.9-0.3-1.7-1-2.3c-0.6-0.6-1.5-0.9-2.4-0.9c-0.8,0-1.7,0.4-2.2,1
						c-0.6,0.7-0.8,1.6-0.8,2.5v7.8h-1.7v-7.6c-0.1-1.4,0.4-2.8,1.3-3.8c0.9-0.9,2-1.5,3.3-1.5c1.8-0.2,3.5,0.8,4.3,2.4
						c0.8-1.6,2.6-2.5,4.3-2.4c1.3,0.1,2.4,0.6,3.3,1.5c0.9,1,1.4,2.4,1.4,3.8L326.3,625.1z"/>
					<path class="st3" d="M341.2,619.7c0,1.5-0.5,3-1.6,4.1c-1,1.1-2.5,1.7-3.9,1.6c-1.5,0-2.9-0.6-4-1.6c-1-1.1-1.6-2.6-1.6-4.1
						v-7.2h1.7v7.4c0,2.1,1.7,3.9,3.8,3.9c1,0,2-0.4,2.7-1.1c0.7-0.7,1.2-1.7,1.2-2.7v-7.4h1.7L341.2,619.7z"/>
					<path class="st3" d="M356.2,625.1h-1.7v-7.4c0-1-0.4-2-1.2-2.8c-0.7-0.7-1.7-1.2-2.7-1.2c-1,0-2,0.4-2.7,1.2
						c-0.7,0.7-1.2,1.7-1.1,2.8v7.4h-1.7v-7.2c0-1.5,0.5-3,1.6-4.1c2.2-2.2,5.7-2.2,7.9,0c0,0,0,0,0,0c1.1,1.1,1.6,2.6,1.6,4.1
						V625.1z"/>
					<path class="st3" d="M361.7,625.1h-1.6v-12.6h1.6V625.1z M361.7,610.9h-1.6V608h1.6V610.9z"/>
					<path class="st3" d="M378.4,621.7c-1.1,2.3-3.5,3.8-6.1,3.6c-1.8,0-3.4-0.7-4.7-1.9c-2.6-2.5-2.7-6.6-0.2-9.2
						c0,0,0.1-0.1,0.1-0.1c1.3-1.3,3-2,4.8-2c1.3,0,2.6,0.3,3.7,1c1,0.6,1.8,1.5,2.3,2.6l0.2,0.6h-1.9c-1.3-2.4-4.4-3.2-6.7-1.9
						c-0.4,0.2-0.7,0.5-1,0.8c-1,0.9-1.6,2.2-1.6,3.6c0,1.3,0.5,2.6,1.5,3.5c0.9,1,2.2,1.5,3.5,1.4c1.8,0.1,3.5-0.8,4.4-2.4h1.9
						L378.4,621.7z"/>
					<path class="st3" d="M382.6,618.6c0,1.3,0.4,2.6,1.3,3.5c0.8,1,2,1.5,3.3,1.6c1.3,0.1,2.6-0.4,3.5-1.4c1-1,1.5-2.3,1.4-3.7
						c0-1.3-0.5-2.5-1.4-3.4c-0.8-0.9-2-1.4-3.3-1.4c-1.3,0-2.5,0.5-3.4,1.4C383.1,616.1,382.6,617.4,382.6,618.6 M393.8,625.1h-1.6
						v-2c-1.2,1.5-3.1,2.3-5,2.3c-1.7,0-3.3-0.8-4.4-2c-2.5-2.6-2.4-6.8,0.1-9.3c1.2-1.3,2.9-2,4.7-1.9c1.7,0,3.3,0.8,4.5,2
						c1.2,1.2,1.8,2.9,1.8,4.6L393.8,625.1L393.8,625.1z"/>
					<path class="st3" d="M408.6,625.1h-1.7v-7.4c0-1-0.4-2-1.2-2.8c-0.7-0.7-1.7-1.2-2.7-1.2c-1,0-2,0.4-2.7,1.2
						c-0.7,0.7-1.2,1.7-1.1,2.8v7.4h-1.7v-7.2c0-1.5,0.5-3,1.6-4.1c2.2-2.2,5.7-2.2,7.9,0c0,0,0,0,0,0c1.1,1.1,1.6,2.6,1.6,4.1
						L408.6,625.1z"/>
					<path class="st3" d="M418.4,623.8c1.3,0.1,2.6-0.4,3.5-1.4c1-1,1.5-2.3,1.4-3.6c0-1.3-0.5-2.5-1.4-3.4c-0.8-0.9-2-1.4-3.3-1.4
						c-1.3,0-2.5,0.5-3.4,1.4c-0.9,0.9-1.4,2.1-1.4,3.4c0,1.3,0.4,2.6,1.3,3.5C416,623.2,417.2,623.8,418.4,623.8 M425,618.8
						c0.1,3.6-2.8,6.6-6.4,6.6c-0.1,0-0.1,0-0.2,0c-1.7,0-3.3-0.7-4.4-2c-2.5-2.7-2.4-6.8,0.2-9.3c1.2-1.3,2.9-2,4.7-1.9
						c1.8,0,3.5,0.9,4.6,2.2v-6.4h1.6V618.8z"/>
					<path class="st3" d="M435.1,623.7c1.3,0.1,2.6-0.4,3.5-1.4c1-1,1.5-2.3,1.4-3.6c0-1.3-0.5-2.5-1.4-3.4c-0.8-0.9-2-1.4-3.2-1.4
						c-1.3,0-2.5,0.5-3.4,1.4c-0.9,0.9-1.4,2.1-1.4,3.4c0,1.3,0.4,2.6,1.3,3.5C432.7,623.1,433.9,623.7,435.1,623.7 M439.8,623.5
						c-1.2,1.3-2.9,2-4.7,1.9c-1.7,0-3.3-0.7-4.4-2c-2.5-2.7-2.4-6.8,0.2-9.3c1.2-1.3,2.9-2,4.7-1.9c1.7,0,3.3,0.8,4.4,2
						C442.4,616.8,442.3,621,439.8,623.5"/>
					<polygon class="st3" points="291.7,739.3 291.7,730.6 327.1,695.1 335.8,695.1 335.8,703.8 300.4,739.3 					"/>
					<polygon class="st3" points="291.7,767.4 291.7,758.7 355.1,695.3 363.8,695.3 363.8,704 300.4,767.4 					"/>
					<polygon class="st3" points="305.7,781.5 305.7,772.8 369.2,709.4 377.9,709.4 377.9,718.1 314.4,781.5 					"/>
					<polygon class="st3" points="334,781.5 334,772.8 397.5,709.4 406.2,709.4 406.2,718.1 342.7,781.5 					"/>
					<polygon class="st3" points="348.1,795.6 348.1,786.9 411.6,723.5 420.3,723.5 420.3,732.2 356.8,795.6 					"/>
					<polygon class="st3" points="362.2,809.7 362.2,801 425.7,737.6 434.4,737.6 434.4,746.3 370.9,809.7 					"/>
					<polygon class="st3" points="362.2,837.9 362.2,829.2 439.8,751.7 448.5,751.7 448.5,760.4 370.9,837.9 					"/>
					<polygon class="st3" points="376.3,852 376.3,843.3 467.9,751.7 476.6,751.7 476.6,760.4 385,852 					"/>
					<polygon class="st3" points="376.3,880.1 376.3,871.4 439.7,808 448.4,808 448.4,816.7 385,880.1 					"/>
					<polygon class="st3" points="390.7,893.9 390.7,885.2 425.6,850.3 434.3,850.3 434.3,859 399.4,893.9 					"/>
					<path class="st3" d="M503.9,850.5v-35.7h21.8v4.3h-16.8v10.6h14.9v4.2h-14.9v12.4h18.1v4.3H503.9z"/>
					<path class="st3" d="M556,850.5c-0.8-1.3-1.6-2.7-2.6-4.3c-1-1.6-2-3.2-3.2-4.9c-1.1-1.7-2.3-3.4-3.5-5.2
						c-1.2-1.8-2.4-3.4-3.6-5.1c-1.2-1.6-2.4-3.2-3.5-4.6c-1.1-1.4-2.2-2.7-3.1-3.8v27.9h-4.9v-35.7h4c1.6,1.7,3.3,3.7,5.2,6
						c1.8,2.3,3.7,4.6,5.5,7.1c1.8,2.4,3.5,4.8,5.1,7.1c1.6,2.3,2.9,4.4,4,6.2v-26.4h4.9v35.7L556,850.5z"/>
					<path class="st3" d="M567.8,850.5v-35.7h21.8v4.3h-16.8v10.6h14.9v4.2h-14.9v12.4h18.1v4.3H567.8z"/>
					<path class="st3" d="M612.9,835.6c0.5,0.7,1.2,1.6,2.1,2.7c0.8,1.1,1.7,2.4,2.6,3.7c0.9,1.4,1.8,2.8,2.7,4.2
						c0.8,1.4,1.6,2.8,2.2,4.3H617c-0.7-1.3-1.4-2.6-2.2-4c-0.8-1.3-1.6-2.6-2.4-3.8c-0.8-1.2-1.6-2.4-2.4-3.4
						c-0.8-1.1-1.5-2-2.2-2.8c-0.4,0-0.9,0.1-1.4,0.1h-5.9v14h-5v-35.2c1.5-0.4,3.1-0.6,4.7-0.7c1.7-0.1,3.3-0.2,4.8-0.2
						c5,0,8.8,0.9,11.5,2.8c2.6,1.9,3.9,4.7,3.9,8.4c0.1,2.2-0.6,4.3-1.9,6.1C617,833.6,615.1,834.9,612.9,835.6z M605.3,818.8
						c-2.1,0-3.8,0.1-4.9,0.2v13.4h3.6c1.5,0,3.1-0.1,4.6-0.3c1.2-0.1,2.4-0.5,3.5-1c0.9-0.5,1.7-1.2,2.2-2c0.6-1.1,0.8-2.3,0.8-3.5
						c0-1.2-0.2-2.3-0.8-3.3c-0.5-0.9-1.2-1.6-2.1-2.1c-1-0.5-2-0.9-3.1-1.1C607.9,818.9,606.6,818.8,605.3,818.8L605.3,818.8z"/>
					<path class="st3" d="M647.8,832.9h5v16.7c-0.4,0.1-1,0.3-1.8,0.5c-0.8,0.2-1.7,0.3-2.7,0.5c-1,0.2-2.1,0.3-3.3,0.4
						c-1.2,0.1-2.4,0.2-3.7,0.2c-2.3,0-4.7-0.4-6.8-1.2c-2-0.8-3.8-2-5.3-3.6c-1.5-1.7-2.7-3.7-3.4-5.8c-0.8-2.6-1.3-5.2-1.2-7.9
						c0-2.7,0.4-5.4,1.4-8c0.8-2.2,2.1-4.2,3.7-5.8c1.5-1.6,3.4-2.8,5.4-3.6c2.1-0.8,4.4-1.3,6.7-1.2c1.4,0,2.9,0.1,4.3,0.3
						c1.1,0.2,2.2,0.4,3.2,0.7c0.7,0.2,1.5,0.5,2.2,0.8c0.4,0.2,0.8,0.4,1.2,0.6l-1.6,4.2c-1.2-0.7-2.6-1.3-4-1.6
						c-1.6-0.4-3.3-0.6-5-0.6c-1.7,0-3.4,0.3-5,1c-1.5,0.6-2.8,1.6-3.8,2.8c-1.1,1.3-1.9,2.9-2.4,4.5c-0.6,1.9-0.9,3.9-0.9,5.9
						c0,2,0.2,3.9,0.7,5.8c0.4,1.6,1.2,3.2,2.3,4.5c1,1.3,2.3,2.2,3.8,2.9c1.7,0.7,3.5,1.1,5.3,1c1.2,0,2.5-0.1,3.7-0.2
						c0.7-0.1,1.5-0.2,2.2-0.4L647.8,832.9z"/>
					<path class="st3" d="M668.5,850.5v-14.3c-2.4-3.7-4.6-7.3-6.7-10.9c-2.1-3.6-4.1-7.1-5.9-10.5h5.9c1.3,2.8,2.8,5.7,4.4,8.6
						c1.6,2.9,3.3,5.7,5,8.4c1.7-2.7,3.3-5.5,4.9-8.4c1.6-2.9,3.1-5.8,4.4-8.6h5.6c-1.9,3.4-3.8,6.9-5.9,10.5
						c-2.1,3.6-4.3,7.1-6.6,10.8v14.4H668.5z"/>
					<path class="st3" d="M708.4,846.9c5.2,0,7.8-1.8,7.8-5.4c0-1-0.2-2-0.7-2.8c-0.5-0.8-1.1-1.5-1.9-2c-0.8-0.6-1.7-1.1-2.7-1.5
						c-1-0.4-2.1-0.8-3.2-1.2c-1.3-0.4-2.5-0.9-3.7-1.5c-1.1-0.5-2.1-1.2-3-2c-0.9-0.8-1.5-1.7-2-2.8c-0.5-1.2-0.8-2.5-0.7-3.9
						c-0.1-2.8,1-5.5,3.2-7.3c2.1-1.7,5.1-2.6,8.8-2.6c2,0,4,0.2,5.9,0.7c1.4,0.3,2.7,0.8,3.9,1.5l-1.6,4.1c-1-0.6-2.1-1-3.2-1.3
						c-1.6-0.5-3.3-0.7-5-0.6c-0.9,0-1.8,0.1-2.7,0.3c-0.8,0.2-1.5,0.5-2.2,0.9c-0.6,0.4-1.1,0.9-1.5,1.6c-0.4,0.7-0.6,1.5-0.5,2.2
						c0,0.8,0.2,1.7,0.6,2.4c0.4,0.7,0.9,1.3,1.6,1.7c0.7,0.5,1.6,1,2.4,1.4c0.9,0.4,1.9,0.8,3,1.2c1.5,0.6,3,1.2,4.2,1.9
						c1.2,0.6,2.3,1.3,3.3,2.2c0.9,0.9,1.7,1.9,2.2,3.1c0.5,1.4,0.8,2.8,0.8,4.3c0.1,2.8-1.1,5.5-3.4,7.2c-2.3,1.7-5.5,2.5-9.7,2.5
						c-1.3,0-2.6-0.1-3.9-0.3c-1.1-0.2-2.1-0.4-3.2-0.7c-0.8-0.2-1.6-0.5-2.4-0.8c-0.7-0.3-1.2-0.5-1.6-0.7l1.5-4.1
						c1.2,0.6,2.4,1.1,3.6,1.5C704.4,846.7,706.4,847,708.4,846.9z"/>
					<path class="st3" d="M750.8,814.8v4.3h-11.2v31.4h-5v-31.4h-11.2v-4.3H750.8z"/>
					<path class="st3" d="M752.2,832.6c-0.1-2.8,0.4-5.5,1.4-8.1c0.8-2.2,2.1-4.2,3.7-5.8c1.5-1.6,3.4-2.8,5.5-3.5
						c2.1-0.8,4.4-1.2,6.6-1.2c2.2,0,4.4,0.4,6.5,1.2c2,0.8,3.9,2,5.4,3.5c1.6,1.7,2.9,3.7,3.7,5.8c1.8,5.2,1.8,10.9,0,16.2
						c-0.8,2.2-2.1,4.2-3.7,5.8c-1.5,1.5-3.4,2.7-5.4,3.5c-2.1,0.8-4.3,1.2-6.5,1.2c-2.3,0-4.5-0.4-6.6-1.2c-2.1-0.8-3.9-2-5.5-3.5
						c-1.6-1.7-2.9-3.7-3.7-5.8C752.6,838.1,752.2,835.4,752.2,832.6z M757.5,832.6c0,2,0.3,4,0.8,5.9c0.5,1.6,1.3,3.2,2.3,4.5
						c1,1.2,2.3,2.2,3.7,2.9c1.5,0.7,3.2,1,4.9,1c1.7,0,3.4-0.3,4.9-1c1.4-0.7,2.7-1.6,3.7-2.9c1.1-1.3,1.9-2.9,2.3-4.5
						c1.1-3.9,1.1-7.9,0-11.8c-0.5-1.6-1.3-3.2-2.3-4.5c-1-1.2-2.3-2.2-3.7-2.9c-1.5-0.7-3.2-1-4.9-1c-1.7,0-3.4,0.3-4.9,1
						c-1.4,0.7-2.7,1.6-3.7,2.9c-1.1,1.3-1.9,2.9-2.3,4.5C757.7,828.7,757.4,830.6,757.5,832.6z"/>
					<path class="st3" d="M809.8,835.6c0.5,0.7,1.2,1.6,2.1,2.7c0.8,1.1,1.7,2.4,2.6,3.7c0.9,1.4,1.8,2.8,2.7,4.2
						c0.8,1.4,1.6,2.8,2.2,4.3h-5.5c-0.7-1.3-1.4-2.6-2.2-4c-0.8-1.3-1.6-2.6-2.4-3.8c-0.8-1.2-1.6-2.4-2.4-3.4
						c-0.8-1.1-1.5-2-2.2-2.8c-0.4,0-0.9,0.1-1.4,0.1h-5.9v14h-5v-35.2c1.5-0.4,3.1-0.6,4.7-0.7c1.7-0.1,3.3-0.2,4.8-0.2
						c5,0,8.8,0.9,11.5,2.8c2.6,1.9,3.9,4.7,3.9,8.4c0.1,2.2-0.6,4.3-1.9,6.1C813.9,833.6,812,834.9,809.8,835.6z M802.2,818.8
						c-2.1,0-3.8,0.1-4.9,0.2v13.4h3.6c1.5,0,3.1-0.1,4.6-0.3c1.2-0.1,2.4-0.5,3.5-1c0.9-0.5,1.7-1.2,2.2-2c0.6-1.1,0.8-2.3,0.8-3.5
						c0-1.2-0.2-2.3-0.8-3.3c-0.5-0.9-1.2-1.6-2.1-2.1c-1-0.5-2-0.9-3.1-1.1C804.8,818.9,803.5,818.8,802.2,818.8z"/>
					<path class="st3" d="M849.4,850.5c-0.6-1.5-1.1-3.1-1.6-4.6c-0.5-1.5-1-3-1.6-4.6H830l-3.2,9.1h-5.2c1.4-3.8,2.7-7.3,3.9-10.5
						c1.2-3.2,2.4-6.3,3.5-9.1c1.1-2.9,2.3-5.6,3.4-8.3c1.1-2.6,2.3-5.2,3.6-7.8h4.6c1.2,2.6,2.4,5.2,3.6,7.8
						c1.1,2.6,2.3,5.4,3.4,8.3c1.1,2.9,2.3,5.9,3.5,9.1c1.2,3.2,2.5,6.7,3.9,10.5H849.4z M844.7,837.3c-1.1-3-2.2-5.9-3.3-8.7
						c-1.1-2.8-2.2-5.5-3.4-8.1c-1.2,2.6-2.3,5.3-3.4,8.1c-1.1,2.8-2.2,5.7-3.2,8.7H844.7z"/>
					<path class="st3" d="M878.9,832.9h5v16.7c-0.4,0.1-1,0.3-1.8,0.5c-0.8,0.2-1.7,0.3-2.7,0.5c-1,0.2-2.1,0.3-3.3,0.4
						c-1.2,0.1-2.4,0.2-3.7,0.2c-2.3,0-4.7-0.4-6.8-1.2c-2-0.8-3.8-2-5.3-3.6c-1.5-1.7-2.7-3.7-3.4-5.8c-0.8-2.6-1.3-5.2-1.2-7.9
						c0-2.7,0.4-5.4,1.4-8c0.8-2.2,2.1-4.2,3.7-5.8c1.5-1.6,3.4-2.8,5.4-3.6c2.1-0.8,4.4-1.3,6.7-1.2c1.4,0,2.9,0.1,4.3,0.3
						c1.1,0.2,2.2,0.4,3.2,0.7c0.7,0.2,1.5,0.5,2.2,0.8c0.4,0.2,0.8,0.4,1.2,0.6l-1.6,4.2c-1.2-0.7-2.6-1.3-4-1.6
						c-1.6-0.4-3.3-0.6-5-0.6c-1.7,0-3.4,0.3-5,1c-1.5,0.6-2.8,1.6-3.8,2.8c-1.1,1.3-1.9,2.9-2.4,4.5c-0.6,1.9-0.9,3.9-0.9,5.9
						c0,2,0.2,3.9,0.7,5.8c0.4,1.6,1.2,3.2,2.3,4.5c1,1.3,2.3,2.2,3.8,2.9c1.7,0.7,3.5,1.1,5.3,1c1.2,0,2.5-0.1,3.7-0.2
						c0.7-0.1,1.5-0.2,2.2-0.4L878.9,832.9z"/>
					<path class="st3" d="M890.7,850.5v-35.7h21.8v4.3h-16.8v10.6h14.9v4.2h-14.9v12.4h18.1v4.3H890.7z"/>
					<path class="st3" d="M953.3,850.5c-0.6-1.5-1.1-3.1-1.6-4.6c-0.5-1.5-1-3-1.6-4.6h-16.2l-3.2,9.1h-5.2
						c1.4-3.8,2.7-7.3,3.9-10.5c1.2-3.2,2.4-6.3,3.5-9.1c1.1-2.9,2.3-5.6,3.4-8.3c1.1-2.6,2.3-5.2,3.6-7.8h4.6
						c1.2,2.6,2.4,5.2,3.6,7.8c1.1,2.6,2.3,5.4,3.4,8.3c1.1,2.9,2.3,5.9,3.5,9.1c1.2,3.2,2.5,6.7,3.9,10.5H953.3z M948.6,837.3
						c-1.1-3-2.2-5.9-3.3-8.7c-1.1-2.8-2.2-5.5-3.4-8.1c-1.2,2.6-2.3,5.3-3.4,8.1c-1.1,2.8-2.2,5.7-3.2,8.7H948.6z"/>
					<path class="st3" d="M962.6,850.5v-35.7h21.5v4.3h-16.5v10.8h14.7v4.2h-14.7v16.4H962.6z"/>
					<path class="st3" d="M1006.1,835.6c0.5,0.7,1.2,1.6,2.1,2.7c0.8,1.1,1.7,2.4,2.6,3.7c0.9,1.4,1.8,2.8,2.7,4.2
						c0.8,1.4,1.6,2.8,2.2,4.3h-5.5c-0.7-1.3-1.4-2.6-2.2-4c-0.8-1.3-1.6-2.6-2.4-3.8c-0.8-1.2-1.6-2.4-2.4-3.4
						c-0.8-1.1-1.5-2-2.2-2.8c-0.4,0-0.9,0.1-1.4,0.1h-5.9v14h-5v-35.2c1.5-0.4,3.1-0.6,4.7-0.7c1.7-0.1,3.3-0.2,4.8-0.2
						c5,0,8.8,0.9,11.5,2.8c2.6,1.9,3.9,4.7,3.9,8.4c0.1,2.2-0.6,4.3-1.9,6.1C1010.2,833.6,1008.3,834.9,1006.1,835.6z M998.5,818.8
						c-2.1,0-3.8,0.1-4.9,0.2v13.4h3.6c1.5,0,3.1-0.1,4.6-0.3c1.2-0.1,2.4-0.5,3.5-1c0.9-0.5,1.7-1.2,2.2-2c0.6-1.1,0.8-2.3,0.8-3.5
						c0-1.2-0.2-2.3-0.8-3.3c-0.5-0.9-1.2-1.6-2.1-2.1c-1-0.5-2-0.9-3.1-1.1C1001.1,818.9,999.8,818.8,998.5,818.8z"/>
					<path class="st3" d="M1019.9,814.8h5v35.7h-5V814.8z"/>
					<path class="st3" d="M1047.8,851.3c-2.3,0-4.7-0.4-6.8-1.2c-2-0.8-3.8-2-5.3-3.6c-1.5-1.7-2.7-3.7-3.4-5.8
						c-0.8-2.6-1.3-5.3-1.2-8c0-2.7,0.4-5.4,1.4-8c0.8-2.2,2.1-4.2,3.7-5.8c1.5-1.6,3.4-2.8,5.4-3.6c2.1-0.8,4.3-1.3,6.6-1.2
						c1.3,0,2.7,0.1,4,0.3c1,0.2,2.1,0.4,3.1,0.7c0.7,0.2,1.4,0.5,2.1,0.8c0.4,0.2,0.8,0.4,1.1,0.6l-1.4,4.1
						c-0.4-0.3-0.9-0.5-1.3-0.7c-0.6-0.2-1.2-0.5-2-0.7c-0.8-0.3-1.6-0.5-2.4-0.6c-0.9-0.2-1.8-0.2-2.7-0.2c-1.7,0-3.5,0.3-5.1,1
						c-1.5,0.6-2.8,1.6-3.9,2.8c-1.1,1.3-1.9,2.9-2.4,4.5c-0.6,1.9-0.9,3.9-0.8,5.9c0,2,0.2,3.9,0.7,5.8c0.4,1.6,1.2,3.2,2.2,4.5
						c1,1.3,2.3,2.3,3.7,2.9c1.6,0.7,3.4,1.1,5.2,1c1.9,0,3.9-0.2,5.7-0.7c1.2-0.3,2.3-0.8,3.4-1.3l1.3,4.1
						c-0.4,0.3-0.8,0.5-1.3,0.6c-0.8,0.3-1.5,0.6-2.3,0.7c-1.1,0.3-2.2,0.5-3.2,0.6C1050.5,851.2,1049.1,851.3,1047.8,851.3z"/>
					<path class="st3" d="M1088.7,850.5c-0.6-1.5-1.1-3.1-1.6-4.6c-0.5-1.5-1-3-1.6-4.6h-16.2l-3.2,9.1h-5.2
						c1.4-3.8,2.7-7.3,3.9-10.5c1.2-3.2,2.4-6.3,3.5-9.1c1.1-2.9,2.3-5.6,3.4-8.3c1.1-2.6,2.3-5.2,3.6-7.8h4.6
						c1.2,2.6,2.4,5.2,3.6,7.8c1.1,2.6,2.3,5.4,3.4,8.3c1.1,2.9,2.3,5.9,3.5,9.1c1.2,3.2,2.5,6.7,3.9,10.5H1088.7z M1084.1,837.3
						c-1.1-3-2.2-5.9-3.3-8.7c-1.1-2.8-2.2-5.5-3.4-8.1c-1.2,2.6-2.3,5.3-3.4,8.1c-1.1,2.8-2.2,5.7-3.2,8.7H1084.1z"/>
					<path class="st3" d="M504.2,789.6v-80.3h54.2v15.2h-36.1v15.8h32.1V755h-32.1v19.3h38.8v15.2L504.2,789.6z"/>
					<path class="st3" d="M593.3,775.8c2.1,0,4.2-0.2,6.3-0.6c1.4-0.3,2.8-0.9,4-1.7c0.9-0.6,1.7-1.6,2.1-2.6
						c0.4-1.1,0.6-2.2,0.6-3.4c0-2.7-1.4-5.1-3.7-6.5c-2.5-1.7-6.7-3.6-12.7-5.6c-2.6-0.9-5.3-2-7.9-3.2c-2.6-1.2-4.9-2.7-7.1-4.5
						c-2.1-1.8-3.8-4.1-5.1-6.6c-1.4-2.9-2.1-6.2-2-9.4c-0.1-3.5,0.7-6.9,2.1-10c1.4-2.9,3.4-5.5,5.9-7.6c2.7-2.2,5.9-3.8,9.3-4.8
						c4-1.2,8.1-1.7,12.3-1.7c8.3-0.2,16.4,1.7,23.7,5.6l-5.2,14.2c-2.4-1.2-4.9-2.3-7.5-3.1c-3.2-1-6.6-1.4-9.9-1.3
						c-4.3,0-7.4,0.6-9.3,1.8c-1.9,1.2-3,3.3-2.8,5.5c0,1.3,0.3,2.6,1,3.7c0.8,1.1,1.8,2,3,2.7c1.4,0.9,2.9,1.6,4.4,2.2
						c1.7,0.7,3.5,1.3,5.5,2c4.2,1.5,7.8,3.1,10.9,4.6c2.8,1.3,5.4,3.1,7.7,5.3c2,2,3.6,4.4,4.6,7.1c1.1,3.2,1.6,6.5,1.5,9.8
						c0,7.5-2.6,13.3-7.9,17.4c-5.3,4.1-13.2,6.2-23.7,6.2c-3.2,0-6.4-0.2-9.6-0.6c-2.6-0.4-5.1-0.9-7.6-1.6c-1.9-0.5-3.8-1.2-5.7-2
						c-1.4-0.6-2.7-1.2-4-2l5.1-14.4c2.8,1.5,5.8,2.7,8.9,3.5C584.6,775.4,589,775.9,593.3,775.8z"/>
					<path class="st3" d="M688.3,789.6c-0.9-2.8-1.9-5.7-2.9-8.6c-1-2.9-2.1-5.9-3.1-8.8H651c-1,2.9-2,5.9-3,8.8
						c-1,2.9-2,5.8-2.8,8.6h-18.8c3-8.6,5.9-16.6,8.6-24c2.7-7.3,5.4-14.2,8-20.7c2.6-6.5,5.2-12.6,7.7-18.5
						c2.5-5.8,5.1-11.5,7.8-17.1h17.1c2.6,5.6,5.2,11.3,7.8,17.1c2.6,5.8,5.1,12,7.7,18.5c2.6,6.5,5.3,13.4,8,20.7
						c2.7,7.3,5.6,15.3,8.6,24H688.3z M666.6,727.5c-0.4,1.2-1,2.8-1.8,4.8c-0.8,2-1.7,4.3-2.7,7c-1,2.6-2.1,5.5-3.3,8.7
						c-1.2,3.2-2.5,6.5-3.7,9.9h23c-1.2-3.5-2.4-6.8-3.6-10c-1.2-3.2-2.2-6.1-3.3-8.7c-1-2.6-1.9-4.9-2.7-7
						C667.7,730.2,667.1,728.6,666.6,727.5z"/>
					<path class="st3" d="M356.2,335.5v2.5h9.7v5.2h-9.7v2.6h10.9v5.2h-17.8v-20.7h17.5v5.2L356.2,335.5z"/>
					<path class="st3" d="M421.2,345.3v5.7h-15.5v-20.7h6.8v15L421.2,345.3z"/>
					<path class="st3" d="M465.9,335.5v2.5h9.7v5.2h-9.7v2.6h10.9v5.2h-17.8v-20.7h17.5v5.2L465.9,335.5z"/>
					<path class="st3" d="M534.4,333.9l-4,4.7c-1.1-1.6-2.8-2.6-4.7-2.8c-2.5,0-4.3,2-4.3,4.7c0,2.8,1.8,4.8,4.3,4.8
						c1.8-0.2,3.5-1,4.7-2.4l4,4.2c-2.3,2.5-5.6,4-9,4.1c-6.3,0-10.9-4.5-10.9-10.7c0-6.1,4.7-10.5,11.2-10.5
						C529,330.2,532.2,331.5,534.4,333.9z"/>
					<path class="st3" d="M583.3,335.7V351h-6.8v-15.3h-5.9v-5.4h18.6v5.4H583.3z"/>
					<path class="st3" d="M636.3,345.6h-2.6v5.4h-6.8v-20.7h10c5.6,0,8.8,2.7,8.8,7.4c0,3-1.2,5.2-3.3,6.5l4.1,6.7h-7.7L636.3,345.6
						z M636.9,340.5c1.2,0.1,2.3-0.8,2.3-2.1c0-0.1,0-0.3,0-0.4c0.1-1.2-0.7-2.3-1.9-2.4c-0.1,0-0.3,0-0.4,0h-3.2v4.9H636.9z"/>
					<path class="st3" d="M684.4,351v-20.7h6.8V351H684.4z"/>
					<path class="st3" d="M749.2,333.9l-4,4.7c-1.1-1.6-2.8-2.6-4.7-2.8c-2.5,0-4.3,2-4.3,4.7c0,2.8,1.8,4.8,4.3,4.8
						c1.8-0.2,3.5-1,4.7-2.4l4,4.2c-2.3,2.5-5.6,4-9,4.1c-6.3,0-10.9-4.5-10.9-10.7c0-6.1,4.7-10.5,11.2-10.5
						C743.8,330.2,746.9,331.5,749.2,333.9z"/>
					<path class="st3" d="M792.7,348.1l-1.1,2.9h-7l8.7-20.7h7l8.4,20.7h-7.3l-1-2.9H792.7z M796.7,337.1l-2.2,6h4.3L796.7,337.1z"
						/>
					<path class="st3" d="M861.5,345.3v5.7h-15.5v-20.7h6.8v15L861.5,345.3z"/>
					<rect x="912.1" y="325" class="st3" width="36" height="9.8"/>
					<rect x="912.1" y="310.6" class="st3" width="36" height="9.8"/>
					<path class="st3" d="M930.1,351c6.5,0,11.7-5.3,11.7-11.7h-23.5C918.3,345.8,923.6,351,930.1,351z"/>
					<polygon class="st3" points="923.7,275.1 914.9,266.3 919.5,261.7 923.7,265.8 930.3,259.1 936.8,265.6 941.1,261.3 
						945.7,265.9 936.8,274.9 930.3,268.4 					"/>
					<rect x="349.2" y="258.1" class="st3" width="46" height="15.2"/>
					<rect x="485.8" y="258.1" class="st3" width="46" height="15.2"/>
					<rect x="664.3" y="258.1" class="st3" width="46" height="15.2"/>
					<path class="st3" d="M960.1,237.6c-8.1-7.9-18.1-11.9-29.9-11.9c-11.8,0-21.8,4-29.9,11.9c-8.1,7.9-12.2,17.7-12.2,29.5
						c0,11.8,4.1,21.6,12.2,29.5c3.4,3.3,7.3,6,11.6,8h36.7c4.3-2,8.2-4.7,11.6-8c8.1-7.9,12.1-17.7,12.2-29.5
						C972.2,255.3,968.2,245.5,960.1,237.6z M947.1,285.4c-1,1-2,2-3.1,2.9h-27.6c-1.1-0.9-2.2-1.8-3.1-2.9
						c-9.2-10.4-9.2-26.1,0-36.5c8.3-9.3,22.7-10.1,32-1.8c0.6,0.6,1.2,1.2,1.8,1.8C956.3,259.3,956.3,274.9,947.1,285.4z"/>
					<path class="st3" d="M422.4,304.8V227h17.4v62.4H473v15.5H422.4z"/>
					<path class="st3" d="M628.2,255.8l-21,42.5h-10.4l-20.9-42.5v49h-17.4V227H582l20,42.8l20.2-42.8h23.4v77.8h-17.4V255.8z"/>
					<path class="st3" d="M792,227h17.4v77.8H792L754.9,256v48.8h-17.4V227h16.3l38.2,50.1V227z"/>
					<polygon class="st3" points="883.5,242 861.5,242 861.5,304.8 844.1,304.8 844.1,242 822.1,242 822.1,227 883.5,227 					"/>
					<rect x="349.2" y="289.2" class="st3" width="56.7" height="15.2"/>
					<rect x="349.2" y="226.9" class="st3" width="56.7" height="15.2"/>
					<rect x="485.8" y="289.2" class="st3" width="56.7" height="15.2"/>
					<rect x="485.8" y="226.9" class="st3" width="56.7" height="15.2"/>
					<rect x="664.3" y="289.2" class="st3" width="56.7" height="15.2"/>
					<rect x="664.3" y="226.9" class="st3" width="56.7" height="15.2"/>
					<path class="st3" d="M1024.9,639.1h-19.3v-11.8h52v11.8h-19.3v72.2h-13.4V639.1z"/>
					<path class="st3" d="M1064.2,711.3v-84h13.4v35.4h34.3v-35.4h13.4v84h-13.4v-36.8h-34.3v36.8L1064.2,711.3z"/>
					<path class="st3" d="M922,645l-43.8,66.3h-16l58.2-84h14.6v84H922V645z"/>
					<polygon class="st3" points="1327.8,707.7 1381.3,744.9 1392,744.9 1327.8,698.4 1342.5,698.4 1401.6,740.9 1401.6,726.3 
						1360.4,698.4 1401.6,698.4 1401.6,673.7 1348.6,673.6 1401.6,636.6 1401.6,628 1338,673.6 1327.8,673.6 1327.8,669.5 1387,628 
						1368.7,628 1327.8,655.2 1327.8,628 1303.4,628 1303.4,744.9 1327.8,744.9 					"/>
					<polygon class="st3" points="1190.9,639.1 1190.9,627.3 1143.9,627.3 1143.9,639.1 1143.9,662.9 1143.9,674.6 1143.9,699.5 
						1143.9,711.3 1155.7,711.3 1190.9,711.3 1190.9,699.5 1155.7,699.5 1155.7,674.6 1190.5,674.6 1190.5,662.9 1155.7,662.9 
						1155.7,639.1 					"/>
					<polygon class="st3" points="999.7,639.1 999.7,627.3 952.7,627.3 952.7,639.1 952.7,662.9 952.7,674.6 952.7,699.5 
						952.7,711.3 964.5,711.3 999.7,711.3 999.7,699.5 964.5,699.5 964.5,674.6 999.3,674.6 999.3,662.9 964.5,662.9 964.5,639.1 
											"/>
					<path class="st3" d="M1249.3,676.4c0.2-0.1,0.5-0.3,0.7-0.4c7-4.6,9.9-14.3,9.9-20.2c0-11-4.6-18.6-10.5-23.1
						c-3.7-3-9-4.3-16.2-5c-2.6-0.2-5.5-0.3-8.9-0.3h-3.3l0,0h-14.6v84h13.4v-72.2h5.3c0,0,0,0,0,0h0.3c6,0,10.7,0.5,14.3,2.7
						c4.4,3,7.2,8.5,7.2,14.2c0.1,4.2-1.2,8.2-3.8,11.5c-0.1,0.1-0.1,0.2-0.2,0.3c-0.6,0.7-1.2,1.3-1.8,1.9c-2.2,1.9-5.7,2.7-9,3.2
						l0,0.1l25.3,38.3h16L1249.3,676.4z"/>
					<rect x="861.5" y="739.1" class="st3" width="105.1" height="5.8"/>
					<rect x="966.6" y="739.1" class="st3" width="105.1" height="5.8"/>
					<rect x="1071.6" y="739.1" class="st3" width="105.1" height="5.8"/>
					<rect x="1176.7" y="739.1" class="st3" width="99.3" height="5.8"/>
					<path class="st3" d="M3.8,92.4c-2.3,0-4.7,0.1-7.2,0.2c-46,3-82.1,38.3-81.7,45.1c0,0,31.7-12.8,73.4-6.1
						c33.1,5.3,46.8-5.7,46.7-18.4C35,100.1,25.8,92.4,3.8,92.4L3.8,92.4"/>
					<g>
						<defs>
							<path id="SVGID_3_" d="M3.8,92.4c-2.3,0-4.7,0.1-7.2,0.2c-46,3-82.1,38.3-81.7,45.1c0,0,31.7-12.8,73.4-6.1
								c33.1,5.3,46.8-5.7,46.7-18.4C35,100.1,25.8,92.4,3.8,92.4L3.8,92.4"/>
						</defs>
						<clipPath id="SVGID_4_">
							<use xlink:href="#SVGID_3_"  style="overflow:visible;"/>
						</clipPath>
						<g class="st8">
							
								<rect x="-88.8" y="65.3" transform="matrix(0.866 -0.5 0.5 0.866 -60.8948 2.8085)" class="st3" width="127.1" height="99.6"/>
						</g>
					</g>
					<path class="st3" d="M-29.7,55.3C-62.9,50-76.5,61-76.5,73.8c0,14.4,11.3,22.3,38.5,20.5c46-3,82.1-38.3,81.7-45.1
						C43.7,49.2,11.9,62-29.7,55.3"/>
					<g>
						<defs>
							<path id="SVGID_5_" d="M-29.7,55.3C-62.9,50-76.5,61-76.5,73.8c0,14.4,11.3,22.3,38.5,20.5c46-3,82.1-38.3,81.7-45.1
								C43.7,49.2,11.9,62-29.7,55.3"/>
						</defs>
						<clipPath id="SVGID_6_">
							<use xlink:href="#SVGID_5_"  style="overflow:visible;"/>
						</clipPath>
						<g class="st9">
							<rect x="-76.5" y="49.2" class="st3" width="120.6" height="46.9"/>
						</g>
					</g>
					<path class="st3" d="M57.4,105v-8.4c5.5,1.9,11.2,2.9,17,2.8c7.7,0,11.5-2.6,11.5-7.7c0-3.7-2.4-5.6-7.1-5.6h-7.8
						c-10.3,0-15.4-4.7-15.4-14c0-10.3,7.3-15.4,21.9-15.4c5.4,0,10.8,0.8,15.9,2.5v8.4c-5.1-1.9-10.5-2.8-15.9-2.8
						c-8.4,0-12.6,2.5-12.6,7.4c0,3.7,2,5.6,6.1,5.6h7.8c10.9,0,16.4,4.7,16.4,14c0,10.5-6.9,15.8-20.8,15.8
						C68.7,107.6,62.9,106.7,57.4,105z"/>
					<path class="st3" d="M126.8,57v50.1h-9.3V57H126.8z"/>
					<path class="st3" d="M151.2,107.1V57h9.6l17,38l16.6-38h9.3v50.1h-8.6V72.2l-13.6,34.9h-7.9l-13.9-34.9v34.9H151.2z"/>
					<path class="st3" d="M226,82.1c0-17,8.4-25.5,25.2-25.5c16.5,0,24.8,8.5,24.8,25.5c0,16.9-8.3,25.3-24.8,25.3
						C235.2,107.5,226.8,99,226,82.1z M251.2,99.4c10.1,0,15.1-5.8,15.1-17.5c0-11.5-5-17.2-15.1-17.2c-10.3,0-15.5,5.7-15.5,17.2
						C235.7,93.6,240.8,99.4,251.2,99.4z"/>
					<path class="st3" d="M298.5,107.1V57h9.3l26.5,36.5V57h8.9v50.1h-9.3l-26.5-37.3v37.3L298.5,107.1z"/>
					<path class="st3" d="M372.5,107.1H363L384.3,57h10l21.7,50.1h-10l-5.7-13.7h-16.6l3.2-8.1h10.1L389,66.6L372.5,107.1z"/>
					<path class="st3" d="M502.8,57v8.1l-26.7,34h26.7v8.1h-37.1v-8.1l27.8-34h-27.1V57H502.8z"/>
					<path class="st3" d="M520.9,82.1c0-17,8.4-25.5,25.2-25.5c16.5,0,24.8,8.5,24.8,25.5c0,16.9-8.3,25.3-24.8,25.3
						C530,107.5,521.6,99,520.9,82.1z M546,99.4c10.1,0,15.1-5.8,15.1-17.5c0-11.5-5-17.2-15.1-17.2c-10.3,0-15.5,5.7-15.5,17.2
						C530.5,93.6,535.7,99.4,546,99.4z"/>
					<path class="st3" d="M602.6,57v42h19.9v8.1h-29.2V57H602.6z"/>
					<path class="st3" d="M652.8,57v50.1h-9.3V57H652.8z"/>
					<path class="st3" d="M59.7,131.2v-15.3h6c5.1,0,7.6,2.4,7.6,7.2c0,5.4-2.5,8.1-7.6,8.1L59.7,131.2z M65.7,128.8
						c3.2,0,4.8-1.9,4.8-5.6c0-3.2-1.6-4.8-4.8-4.8h-3.2v10.4H65.7z"/>
					<path class="st3" d="M76.2,123.6c0-5.2,2.6-7.8,7.7-7.8c5,0,7.6,2.6,7.6,7.8c0,5.2-2.5,7.7-7.6,7.7
						C79,131.3,76.5,128.8,76.2,123.6z M83.9,128.9c3.1,0,4.6-1.8,4.6-5.3c0-3.5-1.5-5.3-4.6-5.3c-3.2,0-4.7,1.8-4.7,5.3
						C79.2,127.1,80.8,128.9,83.9,128.9L83.9,128.9z"/>
					<path class="st3" d="M105.3,115.9v2.5h-4.4v12.8H98v-12.8h-4.4v-2.5L105.3,115.9z"/>
					<path class="st3" d="M118,115.9v2.5h-4.4v12.8h-2.8v-12.8h-4.4v-2.5L118,115.9z"/>
					<path class="st3" d="M120.1,123.6c0-5.2,2.6-7.8,7.7-7.8c5,0,7.6,2.6,7.6,7.8c0,5.2-2.5,7.7-7.6,7.7
						C122.9,131.3,120.4,128.8,120.1,123.6z M127.8,128.9c3.1,0,4.6-1.8,4.6-5.3c0-3.5-1.5-5.3-4.6-5.3c-3.2,0-4.7,1.8-4.7,5.3
						C123.1,127.1,124.7,128.9,127.8,128.9L127.8,128.9z"/>
					<path class="st3" d="M139.1,131.2v-15.3h7c3.1,0,4.7,1.4,4.7,4.1c0,1.8-1.2,3.4-3.7,4.6l4.8,6.6h-3.6l-4.7-6.7v-1.3
						c2.7-0.5,4.1-1.5,4.1-3.2c0-1.1-0.6-1.7-1.9-1.7H142v12.8H139.1z"/>
					<path class="st3" d="M164.9,115.9v2.4h-7.7v3.9h7.3v2.5h-7.3v4h7.8v2.5h-10.6v-15.3H164.9z"/>
					<path class="st3" d="M186.8,130.6c-1.4,0.5-3,0.8-4.5,0.7c-5.5,0-8.2-2.7-8.2-8c0-5,2.7-7.5,8.2-7.5c1.5,0,3.1,0.2,4.5,0.7v2.6
						c-1.4-0.6-2.8-0.9-4.3-0.9c-3.7,0-5.5,1.7-5.5,5.1c0,3.7,1.8,5.5,5.5,5.5c1.5,0,2.9-0.3,4.3-0.9V130.6z"/>
					<path class="st3" d="M190.1,123.6c0-5.2,2.6-7.8,7.7-7.8c5,0,7.6,2.6,7.6,7.8c0,5.2-2.5,7.7-7.6,7.7
						C192.9,131.3,190.3,128.8,190.1,123.6z M197.8,128.9c3.1,0,4.6-1.8,4.6-5.3c0-3.5-1.5-5.3-4.6-5.3c-3.2,0-4.7,1.8-4.7,5.3
						C193,127.1,194.6,128.9,197.8,128.9L197.8,128.9z"/>
					<path class="st3" d="M209.1,131.2v-15.3h2.9l5.2,11.6l5.1-11.6h2.8v15.3h-2.6v-10.7l-4.2,10.7H216l-4.2-10.7v10.7H209.1z"/>
					<path class="st3" d="M229.5,131.2v-15.3h2.9l5.2,11.6l5.1-11.6h2.8v15.3h-2.6v-10.7l-4.2,10.7h-2.4l-4.2-10.7v10.7H229.5z"/>
					<path class="st3" d="M260.3,115.9v2.4h-7.7v3.9h7.3v2.5h-7.3v4h7.8v2.5h-10.6v-15.3H260.3z"/>
					<path class="st3" d="M264.2,131.2v-15.3h7c3.1,0,4.7,1.4,4.7,4.1c0,1.8-1.2,3.4-3.7,4.6l4.8,6.6h-3.6l-4.7-6.7v-1.3
						c2.7-0.5,4.1-1.5,4.1-3.2c0-1.1-0.6-1.7-1.9-1.7H267v12.8H264.2z"/>
					<path class="st3" d="M291.6,130.6c-1.4,0.5-3,0.8-4.5,0.7c-5.5,0-8.2-2.7-8.2-8c0-5,2.7-7.5,8.2-7.5c1.5,0,3.1,0.2,4.5,0.7v2.6
						c-1.4-0.6-2.8-0.9-4.3-0.9c-3.7,0-5.5,1.7-5.5,5.1c0,3.7,1.8,5.5,5.5,5.5c1.5,0,2.9-0.3,4.3-0.9V130.6z"/>
					<path class="st3" d="M298.2,115.9v15.3h-2.8v-15.3H298.2z"/>
					<path class="st3" d="M304.1,131.2h-2.9l6.5-15.3h3.1l6.6,15.3h-3.1l-1.7-4.2h-5.1l1-2.5h3.1l-2.4-5.7L304.1,131.2z"/>
					<path class="st3" d="M323.2,115.9v12.8h6.1v2.5h-8.9v-15.3H323.2z"/>
					<path class="st3" d="M335.9,115.9v15.3H333v-15.3H335.9z"/>
					<path class="st3" d="M339.9,130.6V128c1.7,0.6,3.4,0.9,5.2,0.9c2.3,0,3.5-0.8,3.5-2.4c0-1.1-0.7-1.7-2.2-1.7h-2.4
						c-3.1,0-4.7-1.4-4.7-4.3c0-3.1,2.2-4.7,6.7-4.7c1.7,0,3.3,0.2,4.9,0.7v2.6c-1.6-0.6-3.2-0.9-4.9-0.9c-2.6,0-3.9,0.7-3.9,2.2
						c0,1.1,0.6,1.7,1.9,1.7h2.4c3.3,0,5,1.4,5,4.3c0,3.2-2.1,4.8-6.4,4.8C343.4,131.4,341.6,131.1,339.9,130.6z"/>
					<path class="st3" d="M365,115.9v2.5h-4.4v12.8h-2.8v-12.8h-4.4v-2.5L365,115.9z"/>
					<path class="st3" d="M368,131.2H365l6.5-15.3h3.1l6.6,15.3h-3.1l-1.7-4.2h-5.1l1-2.5h3.1l-2.4-5.7L368,131.2z"/>
					<path class="st3" d="M394.9,124.5v2.2h-5.4v-2.2H394.9z"/>
					<path class="st3" d="M404.6,131.2v-15.3h7c3.1,0,4.7,1.4,4.7,4.1c0,1.8-1.2,3.4-3.7,4.6l4.8,6.6h-3.6l-4.7-6.7v-1.3
						c2.7-0.5,4.1-1.5,4.1-3.2c0-1.1-0.6-1.7-1.9-1.7h-3.9v12.8H404.6z"/>
					<path class="st3" d="M430.4,115.9v2.4h-7.7v3.9h7.3v2.5h-7.3v4h7.8v2.5h-10.6v-15.3H430.4z"/>
					<path class="st3" d="M448.8,115.9l-6.7,15.3H439l-6.4-15.3h3.4l4.7,11.7l4.7-11.7L448.8,115.9z"/>
					<path class="st3" d="M454.3,115.9v15.3h-2.8v-15.3H454.3z"/>
					<path class="st3" d="M458.3,130.6V128c1.7,0.6,3.4,0.9,5.2,0.9c2.3,0,3.5-0.8,3.5-2.4c0-1.1-0.7-1.7-2.2-1.7h-2.4
						c-3.1,0-4.7-1.4-4.7-4.3c0-3.1,2.2-4.7,6.7-4.7c1.7,0,3.3,0.2,4.9,0.7v2.6c-1.6-0.6-3.2-0.9-4.9-0.9c-2.6,0-3.9,0.7-3.9,2.2
						c0,1.1,0.6,1.7,1.9,1.7h2.4c3.3,0,5,1.4,5,4.3c0,3.2-2.1,4.8-6.4,4.8C461.8,131.4,460,131.1,458.3,130.6z"/>
					<path class="st3" d="M472.9,123.6c0-5.2,2.6-7.8,7.7-7.8c5,0,7.6,2.6,7.6,7.8c0,5.2-2.5,7.7-7.6,7.7
						C475.7,131.3,473.1,128.8,472.9,123.6z M480.6,128.9c3.1,0,4.6-1.8,4.6-5.3c0-3.5-1.5-5.3-4.6-5.3c-3.2,0-4.7,1.8-4.7,5.3
						C475.8,127.1,477.4,128.9,480.6,128.9L480.6,128.9z"/>
					<path class="st3" d="M491.9,131.2v-15.3h7c3.1,0,4.7,1.4,4.7,4.1c0,1.8-1.2,3.4-3.7,4.6l4.8,6.6h-3.6l-4.7-6.7v-1.3
						c2.7-0.5,4.1-1.5,4.1-3.2c0-1.1-0.6-1.7-1.9-1.7h-3.9v12.8H491.9z"/>
					<path class="st3" d="M517.6,115.9v2.4H510v3.9h7.3v2.5h-7.3v4h7.8v2.5h-10.6v-15.3H517.6z"/>
					<path class="st3" d="M539.6,130.6c-1.4,0.5-3,0.8-4.5,0.7c-5.5,0-8.2-2.7-8.2-8c0-5,2.7-7.5,8.2-7.5c1.5,0,3.1,0.2,4.5,0.7v2.6
						c-1.4-0.6-2.8-0.9-4.3-0.9c-3.7,0-5.5,1.7-5.5,5.1c0,3.7,1.8,5.5,5.5,5.5c1.5,0,2.9-0.3,4.3-0.9V130.6z"/>
					<path class="st3" d="M542.8,123.6c0-5.2,2.6-7.8,7.7-7.8c5,0,7.6,2.6,7.6,7.8c0,5.2-2.5,7.7-7.6,7.7
						C545.6,131.3,543.1,128.8,542.8,123.6z M550.5,128.9c3.1,0,4.6-1.8,4.6-5.3c0-3.5-1.5-5.3-4.6-5.3c-3.2,0-4.7,1.8-4.7,5.3
						C545.8,127.1,547.4,128.9,550.5,128.9L550.5,128.9z"/>
					<path class="st3" d="M561.8,131.2v-15.3h2.8l8.1,11.2v-11.2h2.7v15.3h-2.8l-8.1-11.4v11.4H561.8z"/>
					<path class="st3" d="M589.8,115.9v2.5h-4.4v12.8h-2.8v-12.8h-4.4v-2.5L589.8,115.9z"/>
					<path class="st3" d="M592.8,131.2h-2.9l6.5-15.3h3.1l6.6,15.3H603l-1.7-4.2h-5.1l1-2.5h3.1l-2.4-5.7L592.8,131.2z"/>
					<path class="st3" d="M609,131.2v-15.3h7.2c2.9,0,4.4,1.2,4.4,3.6c0,1.7-0.9,3-2.8,3.7c1.8,0.1,3.2,1.7,3,3.5c0,0,0,0,0,0
						c0,3-1.6,4.5-4.8,4.5L609,131.2z M615.8,128.8c0.9,0.1,1.8-0.5,1.9-1.5c0-0.2,0-0.3,0-0.5c0-1.6-0.9-2.4-2.8-2.4H614v-1.8
						c2.4-0.4,3.5-1.4,3.5-3c0-0.9-0.5-1.3-1.6-1.3h-4.2v10.4H615.8z"/>
					<path class="st3" d="M627.1,115.9v15.3h-2.8v-15.3H627.1z"/>
					<path class="st3" d="M634.2,115.9v12.8h6.1v2.5h-8.9v-15.3H634.2z"/>
					<path class="st3" d="M654.6,115.9v2.4h-7.7v3.9h7.3v2.5h-7.3v4h7.8v2.5h-10.6v-15.3H654.6z"/>
					<polygon class="st3" points="716,511.7 716,576 799.3,576 799.3,511.7 818.2,511.7 818.2,593.3 714.5,593.3 697,575.4 
						697,511.7 					"/>
					<rect x="654.2" y="511.5" class="st3" width="19.7" height="81.6"/>
					<polygon class="st3" points="612,593.1 612,528.1 528.7,528.1 528.7,593.1 509.8,593.1 509.8,510.8 613.5,510.8 631,528.7 
						631,593.1 					"/>
					<path class="st3" d="M22.9,302.3H9.6v106.2h13.3V302.3z M-3.7,421.7V289h26.5c3.5,0,6.9,1.4,9.3,3.9c2.5,2.4,4,5.8,3.9,9.3
						v106.2c0.1,7.2-5.7,13.2-12.9,13.3c-0.1,0-0.2,0-0.3,0H-3.7z"/>
					<path class="st10" d="M22.9,302.3H9.6v106.2h13.3V302.3z M-3.7,421.7V289h26.5c3.5,0,6.9,1.4,9.3,3.9c2.5,2.4,4,5.8,3.9,9.3
						v106.2c0.1,7.2-5.7,13.2-12.9,13.3c-0.1,0-0.2,0-0.3,0H-3.7z"/>
					<path class="st3" d="M59.5,421.7c-7.1,0.3-13-5.2-13.3-12.3c0-0.3,0-0.7,0-1V302.3c-0.1-7.2,5.7-13.2,12.9-13.3
						c0.1,0,0.2,0,0.3,0h17.7v13.3H59.5v39.8h17.7v13.3H59.5v53.1h17.7v13.3L59.5,421.7z"/>
					<path class="st3" d="M113.8,302.3h-13.3v106.2h13.3V302.3z M87.2,421.7V289h26.5c7.3,0.1,13.2,6,13.3,13.3v106.2
						c0.1,7.2-5.7,13.2-12.9,13.3c-0.1,0-0.2,0-0.3,0H87.2z"/>
					<path class="st10" d="M113.8,302.3h-13.3v106.2h13.3V302.3z M87.2,421.7V289h26.5c7.3,0.1,13.2,6,13.3,13.3v106.2
						c0.1,7.2-5.7,13.2-12.9,13.3c-0.1,0-0.2,0-0.3,0H87.2z"/>
					<rect x="137.1" y="289" class="st3" width="13.3" height="132.7"/>
					<path class="st3" d="M173.7,421.7c-7.1,0.3-13-5.2-13.3-12.3c0-0.3,0-0.7,0-1V302.3c-0.1-7.2,5.7-13.2,12.9-13.3
						c0.1,0,0.2,0,0.4,0H187c7.3,0.1,13.2,6,13.3,13.3v39.8H187v-39.8h-13.3v106.2H187v-39.8h13.3v39.8c0.1,7.2-5.7,13.2-12.9,13.3
						c-0.1,0-0.2,0-0.3,0L173.7,421.7z"/>
					<path class="st3" d="M246.2,292.9c-2.4-2.5-5.8-4-9.3-3.9h-13.3c-7.2-0.1-13.2,5.7-13.3,12.9c0,0.1,0,0.2,0,0.3v119.5h13.3
						V302.3h13.3v119.5h13.3V302.3C250.2,298.7,248.7,295.4,246.2,292.9"/>
					<polygon class="st3" points="47.4,270.2 47.4,237.7 5.8,237.7 5.8,270.2 -3.7,270.2 -3.7,229.1 48.1,229.1 56.8,238 
						56.8,270.2 					"/>
					<rect x="68.4" y="228.2" class="st3" width="9.8" height="42.3"/>
					<polygon class="st3" points="99.3,229 99.3,261.5 140.9,261.5 140.9,229 150.4,229 150.4,270.1 98.6,270.1 89.9,261.2 
						89.9,229 					"/>
					<path class="st3" d="M1026.2,529.5c0,0,0,6.9,6.9,6.9h15.1c0,0,6.9,0,6.9-6.9v-72.7c0,0,0-6.9-6.9-6.9H1033c0,0-6.9,0-6.9,6.9
						V529.5z"/>
					<path class="st3" d="M1026.2,437.6c0,0,0,6.9,6.9,6.9h15.1c0,0,6.9,0,6.9-6.9V432c0,0,0-6.9-6.9-6.9H1033c0,0-6.9,0-6.9,6.9
						V437.6z"/>
					<path class="st3" d="M1321.2,529.5c0,0,0,6.9,6.9,6.9h15.1c0,0,6.9,0,6.9-6.9v-72.7c0,0,0-6.9-6.9-6.9H1328c0,0-6.9,0-6.9,6.9
						V529.5z"/>
					<path class="st3" d="M1328,425.1c0,0-6.9,0-6.9,6.9v5.6c0,0,0,6.9,6.9,6.9h15.1c0,0,6.9,0,6.9-6.9V432c0,0,0-6.9-6.9-6.9
						L1328,425.1z"/>
					<path class="st3" d="M1233.7,529.5c0,0,0,6.9,6.9,6.9h15.1c0,0,6.9,0,6.9-6.9V432c0,0,0-6.9-6.9-6.9h-15.1c0,0-6.9,0-6.9,6.9
						V529.5z"/>
					<path class="st3" d="M1277.9,529.5c0,0,0,6.9,6.9,6.9h15.1c0,0,6.9,0,6.9-6.9V432c0,0,0-6.9-6.9-6.9h-15.1c0,0-6.9,0-6.9,6.9
						V529.5z"/>
					<path class="st3" d="M905.2,529.5c0,0,0,6.9,6.9,6.9h15.1c0,0,6.9,0,6.9-6.9V432c0,0,0-6.9-6.9-6.9H912c0,0-6.9,0-6.9,6.9
						V529.5z"/>
					<path class="st3" d="M946.2,498.5V511c0,15.7,13.3,25.8,21.4,25.8h17.5c16.5,0,27.6-15.3,27.6-25.8v-36.7
						c0-17.7-16.5-25.4-23-25.4H971c-20.9,0-21.6,22.4-21.6,22.4H969c0-3.6,2.2-8.9,7.7-8.9c7.5,0,9.5,7.2,9.5,19.3
						C972,482.3,946.2,482.3,946.2,498.5 M971,503.3c0,0-0.9-8.1,14.9-9.1c0,0,1.7,28.4-7.4,28.4C969.1,522.6,971,503.3,971,503.3"
						/>
					<path class="st3" d="M1220.8,486.7v-12.4c0-15.7-13.3-25.8-21.4-25.8h-17.5c-16.5,0-27.6,15.3-27.6,25.8V511
						c0,17.3,16.5,25.4,23,25.4h18.7c20.9,0,21.6-22.4,21.6-22.4H1198c0,3.6-2.2,8.9-7.7,8.9c-7.5,0-9.5-7.2-9.5-19.3
						C1195,503,1220.8,502.9,1220.8,486.7 M1196,482c0,0,0.9,8.1-14.9,9.1c0,0-1.7-28.4,7.4-28.4C1197.9,462.6,1196,482,1196,482"/>
					<path class="st3" d="M1105.4,522.2c-7,0-8.6-7.9-8.8-13.6c-0.1-3.2,0.2-27.5,0.2-27.5c0,0-1-16.6,17.1-17.5
						c0,0,0.1,24.8,0.1,27.9C1114.2,505.6,1114,522.2,1105.4,522.2 M1140.3,431.4c0,0,0-6.9-6.9-6.9H1121c0,0-6.9,0-6.9,6.9l0,17.2
						c-32.7,0-45.9,9.5-45.9,25.7V511c0,15.7,15.3,25.4,24.6,25.4h18.1c19,0,29.4-14.9,29.4-25.4V431.4z"/>
					<path class="st3" d="M-50.4,850.1l-20.6,0v-46.9c0-28.5,21.7-46.9,47-46.9h9.8c0.9,9.2-4.8,17-13.8,20
						c-3.5,1.2-22.3,6.6-22.3,26.2L-50.4,850.1z"/>
					<path class="st3" d="M81.6,832.7c-16.2,0-29.4-13.1-29.4-29.3c0-16.2,13.1-29.4,29.3-29.4c9.4,0,18.2,4.5,23.8,12.1h21.6
						c-9.6-25-37.6-37.5-62.6-27.9c-25,9.6-37.5,37.6-27.9,62.6s37.6,37.5,62.6,27.9c12.9-4.9,23-15.1,27.9-27.9h-21.6
						C99.8,828.2,91,832.7,81.6,832.7z"/>
					<path class="st3" d="M-191.2,777c0-11.5-9.3-20.8-20.8-20.8v94.1h20.8V777z"/>
					<path class="st3" d="M-83.8,727.4c-11.6,0-21.1,9.3-21.2,20.9l0,7.9h-12.6c-6.1,0-13.1,0.2-17.9,0.5
						c-25.2,1.6-43,21.7-43.5,46.5c0,22.1,17.5,48.5,47.9,48.5c27.8,0,45.4-20.4,46.7-42.2c0.4-6.1,0.6-12.2,0.7-18.3L-83.8,727.4z
						 M-131.2,831.5c-15.5,0-27-14-27-28.3c0-12.8,9.9-27,27-27h26.2l0,26.9C-105,821.5-117.1,831.5-131.2,831.5L-131.2,831.5z"/>
					<path class="st3" d="M135.9,791.2c0.1,6.1,0.3,12.2,0.7,18.3c1.3,21.8,19,42.2,46.7,42.2c30.4,0,47.9-26.4,47.9-48.5
						c-0.5-24.7-18.3-44.8-43.5-46.5c-4.8-0.3-11.8-0.4-17.9-0.5h-33.8L135.9,791.2z M157.1,803.2l0-27h26.2c17.1,0,27,14.2,27,27
						c0,14.3-11.5,28.3-27,28.3C169.2,831.5,157.1,821.5,157.1,803.2z"/>
					<path class="st3" d="M19.8,777c0-11.5-9.3-20.8-20.8-20.8v94.1h20.8V777z"/>
					<path class="st3" d="M1181.8,207.2c0.3,0.1,0.6,0.2,0.9,0.2c1.1,0,2.1-0.7,2.5-1.7c12.4-32.9,49.1-49.5,82-37.1
						c13,4.9,24,13.9,31.4,25.6l-3,1.5c-1.3,0.6-1.8,2.2-1.2,3.5c0.2,0.4,0.5,0.8,0.9,1l10.1,6.8c1.2,0.8,2.8,0.5,3.7-0.7
						c0.3-0.4,0.4-0.8,0.4-1.3l0.8-12.1c0.1-1.5-1-2.7-2.4-2.8c-0.5,0-0.9,0.1-1.3,0.3l-3.1,1.5c-20.1-32.4-62.6-42.3-94.9-22.3
						c-12.9,8-22.8,20.1-28.2,34.3C1179.8,205.2,1180.5,206.7,1181.8,207.2C1181.8,207.2,1181.8,207.2,1181.8,207.2z"/>
					<path class="st3" d="M1308.6,311c-0.3-0.1-0.6-0.2-0.9-0.2c-1.1,0-2.1,0.7-2.5,1.7c-12.4,32.9-49.1,49.5-82,37.1
						c-13-4.9-24-13.9-31.4-25.6l3-1.5c1.3-0.6,1.8-2.2,1.2-3.5c-0.2-0.4-0.5-0.8-0.9-1l-10.1-6.8c-1.2-0.8-2.8-0.5-3.7,0.7
						c-0.3,0.4-0.4,0.8-0.4,1.3l-0.8,12.1c-0.1,1.5,1,2.7,2.4,2.8c0.5,0,0.9-0.1,1.3-0.3l3.1-1.5c20.1,32.4,62.6,42.3,94.9,22.3
						c12.9-8,22.8-20.1,28.2-34.3C1310.6,313.1,1309.9,311.5,1308.6,311C1308.6,311,1308.6,311,1308.6,311z"/>
					<path class="st3" d="M1133.7,221.6c-2-4.7-7.5-6.9-12.2-4.9c-2.2,0.9-4,2.7-4.9,4.9l-31.4,74c-1.1,2.5,0.1,5.5,2.6,6.5
						s5.5-0.1,6.5-2.6c0,0,0,0,0,0l29.6-70.6c0.3-0.6,1-0.9,1.6-0.7c0.3,0.1,0.5,0.4,0.7,0.7l29.6,70.6c1.1,2.5,4,3.7,6.5,2.7
						c2.5-1.1,3.7-4,2.7-6.5c0,0,0,0,0,0L1133.7,221.6z"/>
					<path class="st3" d="M1290.7,292h-36.2c-2.7,0-4.9-2.2-4.9-4.9l0,0v-66.5c0-2.6-2.1-4.7-4.7-4.7c0,0,0,0,0,0h-0.4
						c-2.6,0-4.7,2.1-4.7,4.7l0,0v68.7c0,6.7,5.4,12.1,12.1,12.1h38.8c2.6,0,4.7-2.1,4.7-4.7C1295.4,294.1,1293.3,292,1290.7,292
						L1290.7,292z"/>
					<path class="st3" d="M1392,237.1h-10.7v-17c0-2.4-1.9-4.3-4.3-4.3h-1.2c-2.4,0-4.3,1.9-4.3,4.3v17h-9c-0.5,0.1-1,0.1-1.5,0
						h-22.4c0.1-4.4,1.2-7.6,3.5-9.6c2.3-2,5.8-3.1,10.4-3.1h2.7c2.6,0,4.6-2.1,4.6-4.6c0,0,0,0,0,0v0c0-2.6-2.1-4.6-4.6-4.6h-2.2
						c-7.6,0-13.5,1.8-17.8,5.4c-4.3,3.6-6.4,8.9-6.4,16.1v61c0,2.7,2.2,4.9,4.9,4.9c2.7,0,4.9-2.2,4.9-4.9v-51.8h22.5
						c0.5-0.1,1-0.1,1.5,0h9v51.8c0,2.7,2.2,4.9,4.9,4.9c2.7,0,4.9-2.2,4.9-4.9v-51.8h10.7c2.4,0,4.3-1.9,4.3-4.3
						S1394.4,237.1,1392,237.1z"/>
					<path class="st3" d="M1178.4,237.1c-2.7,0-4.9,2.2-4.9,4.9c0,0,0,0,0,0v55.6c0,2.7,2.2,4.9,4.9,4.9c2.7,0,4.9-2.2,4.9-4.9V242
						C1183.3,239.3,1181.1,237.1,1178.4,237.1z"/>
					<circle class="st3" cx="1178.4" cy="222.9" r="7.2"/>
					<path class="st3" d="M1311.2,237.1c-2.7,0-4.9,2.2-4.9,4.9c0,0,0,0,0,0v55.6c0,2.7,2.2,4.9,4.9,4.9c2.7,0,4.9-2.2,4.9-4.9V242
						C1316.1,239.3,1313.9,237.1,1311.2,237.1z"/>
					<circle class="st3" cx="1311.2" cy="222.9" r="7.2"/>
					<path class="st3" d="M1226,236.3c-0.2,0-0.3,0-0.5,0c-0.2,0-0.3,0-0.5,0.1c-2,0.3-3.9,0.9-5.7,1.7c-7,3.2-11.5,8.2-13.6,15V242
						c0-2.7-2.2-4.9-4.9-4.9c-2.7,0-4.9,2.2-4.9,4.9c0,0,0,0,0,0v55.6c0,2.7,2.2,4.9,4.9,4.9c2.7,0,4.9-2.2,4.9-4.9c0,0,0,0,0,0
						v-23.9c-0.2-7,2-13.8,6.3-19.3c3.5-4.7,8.7-7.7,14.5-8.3c2.7-0.3,4.6-2.7,4.3-5.3C1230.6,238.2,1228.5,236.3,1226,236.3
						L1226,236.3z"/>
				</g>
			</g>
		</g>
	</g>
</g>
</svg>
