<svg xmlns="http://www.w3.org/2000/svg" viewBox="0 0 242.25 46.61"><defs><style>.cls-1{fill:#31006f;}.cls-2{fill:#1d1d1b;}</style></defs><g id="Layer_2" data-name="Layer 2"><g id="Layer_1-2" data-name="Layer 1"><circle class="cls-1" cx="23.31" cy="11.2" r="1.67"/><circle class="cls-1" cx="9.53" cy="16.89" r="1.67"/><circle class="cls-1" cx="37.08" cy="16.89" r="1.67"/><polygon class="cls-1" points="18.98 36.75 16.55 36.75 16.55 33.1 30.05 33.1 30.05 35.53 18.98 35.53 18.98 36.75"/><polygon class="cls-1" points="15.5 29.45 16.51 31.89 30.1 31.89 30.11 31.87 30.11 31.87 31.11 29.45 15.5 29.45"/><path class="cls-1" d="M27,21.84,23.37,13.2a.07.07,0,0,0-.13,0l-3.58,8.66L11,18.27a.07.07,0,0,0-.09.09L15,28.24h2.63L15.34,22.7,21,25l2.34-5.63,1.39,3.37Z"/><path class="cls-1" d="M28.23,21.33a.07.07,0,0,0,0,.13l3,1.25h0v0h0l0,0L29,28.24h2.64l4.09-9.88a.07.07,0,0,0-.1-.09Z"/><path class="cls-1" d="M23.31,46.61a23.31,23.31,0,1,1,23.31-23.3A23.33,23.33,0,0,1,23.31,46.61Zm0-44.14A20.84,20.84,0,1,0,44.14,23.31,20.87,20.87,0,0,0,23.31,2.47Z"/><path class="cls-2" d="M57.3,23.14l-.52-.45v5.53h-2v-10h0L59.49,23l4.68-4.73h0v10h-2V22.69l-.52.45c-.72.8-1.46,1.59-2.2,2.36C58.76,24.73,58,23.94,57.3,23.14Z"/><path class="cls-2" d="M73.77,23l3.82-4.64h2.48L76.59,22.5l3.54,5.72H77.78l-2.61-4.37-1.4,1.6v2.77h-2.1V18.39h2.1Z"/><path class="cls-2" d="M85.32,18.24h.09l4.77,10H88l-.8-1.73H83.52l-.76,1.73h-2.2ZM86.57,25c-.45-1-.89-2.06-1.19-2.92-.29.69-.81,2-1.22,2.92Z"/><path class="cls-2" d="M91.72,28.22V18.39H98v1.77H93.83v2.23H97.4v1.7H93.83v2.37h4.42v1.76Z"/><path class="cls-2" d="M100.29,28.22V18.39h2.1v8.07h3.79v1.76Z"/><path class="cls-2" d="M118.29,23.14l-.52-.45v5.53h-2v-10h0L120.49,23l4.68-4.73h0v10h-2V22.69l-.51.45c-.73.8-1.46,1.59-2.2,2.36C119.75,24.73,119,23.94,118.29,23.14Z"/><path class="cls-2" d="M130,24.86v3.36h-2.11V18.39h3.2c2.26,0,3.78,1.12,3.78,3.24s-1.52,3.23-3.78,3.23Zm0-4.7v2.93h1.2a1.37,1.37,0,0,0,1.54-1.46,1.41,1.41,0,0,0-1.6-1.47Z"/><path class="cls-2" d="M136.73,28.22V18.39H143v1.77h-4.21v2.23h3.57v1.7h-3.57v2.37h4.42v1.76Z"/><path class="cls-2" d="M148.75,18.39c2.28,0,3.79,1.14,3.79,3.24a2.88,2.88,0,0,1-1.87,2.8l2.06,3.79h-2.22l-1.73-3.44h-1.42v3.44H145.3V18.39Zm-1.39,1.77v2.93h1.5a1.38,1.38,0,0,0,1.57-1.46,1.43,1.43,0,0,0-1.63-1.47Z"/><path class="cls-2" d="M158.38,18.24h.08l4.78,10H161l-.79-1.73h-3.67l-.76,1.73h-2.2ZM159.62,25c-.45-1-.88-2.06-1.18-2.92-.29.69-.81,2-1.22,2.92Z"/><path class="cls-2" d="M168,20.16v8.06h-2.1V20.16h-2.75V18.39h7.61v1.77Z"/><path class="cls-2" d="M177,18.2a5.11,5.11,0,1,1-5.15,5.11A5,5,0,0,1,177,18.2Zm0,8.29a3,3,0,0,0,3-3.18,3,3,0,1,0-6.06,0A3,3,0,0,0,177,26.49Z"/><path class="cls-2" d="M187.67,18.39c2.27,0,3.79,1.14,3.79,3.24a2.89,2.89,0,0,1-1.87,2.8l2.06,3.79h-2.22l-1.74-3.44h-1.42v3.44h-2.06V18.39Zm-1.4,1.77v2.93h1.5a1.38,1.38,0,0,0,1.57-1.46,1.42,1.42,0,0,0-1.62-1.47Z"/><path class="cls-2" d="M209.37,28.22V18.39h6.32v1.77h-4.21v2.23h3.57v1.7h-3.57v2.37h4.42v1.76Z"/><path class="cls-2" d="M217.49,27.85v-2a6.34,6.34,0,0,0,2.47.71,3.54,3.54,0,0,0,.88-.05c.75-.11,1.18-.4,1.18-.88,0-.65-.58-1-1.93-1.48-1.72-.63-2.73-1.35-2.73-3.06s1.44-2.87,3.56-2.87a6.77,6.77,0,0,1,2.56.49v1.94a5,5,0,0,0-2.4-.6c-1,0-1.66.4-1.66,1s.53,1,1.87,1.47c1.72.67,2.78,1.39,2.78,3s-1.34,2.84-3.66,2.84A7.58,7.58,0,0,1,217.49,27.85Z"/><path class="cls-2" d="M230,20.16v8.06h-2.11V20.16h-2.74V18.39h7.6v1.77Z"/><path class="cls-2" d="M237.39,18.24h.08l4.78,10h-2.2l-.79-1.73h-3.67l-.77,1.73h-2.19ZM238.63,25c-.45-1-.89-2.06-1.19-2.92-.28.69-.8,2-1.21,2.92Z"/><polygon class="cls-2" points="68.95 18.25 65.85 21.37 65.85 21.39 66.89 21.39 66.89 28.22 68.99 28.22 68.99 21.39 68.99 20.7 68.99 18.25 68.95 18.25"/><polygon class="cls-2" points="113.05 18.25 109.95 21.37 109.95 21.39 110.99 21.39 110.99 28.22 113.09 28.22 113.09 21.39 113.09 20.7 113.09 18.25 113.05 18.25"/><polygon class="cls-2" points="195.73 18.25 192.63 21.37 192.63 21.39 193.67 21.39 193.67 28.22 195.77 28.22 195.77 21.39 195.77 20.7 195.77 18.25 195.73 18.25"/><polygon class="cls-2" points="201.41 22.5 201.41 28.22 203.51 28.22 203.51 24.23 206.78 24.23 206.78 22.5 201.41 22.5"/><polygon class="cls-2" points="200.68 18.39 201.41 20.16 206.67 20.16 207.4 18.39 200.68 18.39"/></g></g></svg>