<svg xmlns="http://www.w3.org/2000/svg" viewBox="0 0 327.04248 116.63281"><defs><style>.cls-1{font-size:28px;letter-spacing:-0.0214em;}.cls-1,.cls-23,.cls-9{font-family:Titillium-Regular, Titillium;}.cls-2{letter-spacing:-0.02921em;}.cls-3{letter-spacing:-0.03278em;}.cls-4{letter-spacing:-0.02991em;}.cls-5{letter-spacing:-0.0368em;}.cls-6{letter-spacing:-0.041em;}.cls-7{letter-spacing:-0.03162em;}.cls-8{letter-spacing:-0.02499em;}.cls-23,.cls-9{font-size:16px;}.cls-9{letter-spacing:0.10001em;}.cls-10{letter-spacing:0.13647em;}.cls-11{letter-spacing:0.09998em;}.cls-12{letter-spacing:0.13651em;}.cls-13{letter-spacing:0.09503em;}.cls-14{letter-spacing:0.095em;}.cls-15{letter-spacing:0.13217em;}.cls-16{letter-spacing:0.1322em;}.cls-17{letter-spacing:0.07794em;}.cls-18{letter-spacing:0.07791em;}.cls-19{letter-spacing:0.12955em;}.cls-20{letter-spacing:0.12958em;}.cls-21{letter-spacing:0.2515em;}.cls-22{letter-spacing:0.25153em;}.cls-24{letter-spacing:-0.009em;}.cls-25{letter-spacing:0.00003em;}</style></defs><g id="Layer_2" data-name="Layer 2"><g id="Layer_1-2" data-name="Layer 1"><text class="cls-1" transform="translate(-0.00016 23.68811)">A<tspan class="cls-2" x="16.08887" y="0">a</tspan><tspan class="cls-3" x="29.29883" y="0">B</tspan><tspan class="cls-4" x="45.62891" y="0">b</tspan><tspan class="cls-5" x="59.51904" y="0">C</tspan><tspan class="cls-6" x="73.7207" y="0">c</tspan><tspan class="cls-7" x="84.78027" y="0">D</tspan><tspan class="cls-8" x="101.95459" y="0">d</tspan></text><text class="cls-9" transform="translate(138.3221 16.07239)">A<tspan class="cls-10" x="11.13623" y="0"> </tspan><tspan x="16.83936" y="0">B</tspan><tspan class="cls-10" x="28.29541" y="0"> </tspan><tspan x="33.99902" y="0">C</tspan><tspan class="cls-10" x="44.30322" y="0"> </tspan><tspan x="50.00635" y="0">D</tspan><tspan class="cls-10" x="61.92627" y="0"> </tspan><tspan x="67.62988" y="0">E</tspan><tspan class="cls-10" x="78.07764" y="0"> </tspan><tspan x="83.78076" y="0">F</tspan><tspan class="cls-10" x="93.79688" y="0"> </tspan><tspan x="99.5" y="0">G</tspan><tspan class="cls-10" x="110.95605" y="0"> </tspan><tspan x="116.65967" y="0">H</tspan><tspan class="cls-10" x="129.05957" y="0"> </tspan><tspan x="134.7627" y="0">I</tspan><tspan class="cls-10" x="140.29834" y="0"> </tspan><tspan class="cls-11" x="146.00146" y="0">J</tspan><tspan class="cls-12" x="152.2251" y="0"> </tspan><tspan class="cls-11" x="157.92871" y="0">K</tspan><tspan class="cls-12" x="168.63184" y="0"> </tspan><tspan class="cls-11" x="174.33545" y="0">L </tspan><tspan x="0" y="19.2002">M</tspan><tspan class="cls-13" x="15.04004" y="19.2002"> </tspan><tspan class="cls-11" x="20.08057" y="19.2002">N</tspan><tspan class="cls-13" x="32.49609" y="19.2002"> </tspan><tspan x="37.53662" y="19.2002">O</tspan><tspan class="cls-13" x="49.69629" y="19.2002"> </tspan><tspan x="54.73633" y="19.2002">P</tspan><tspan class="cls-14" x="65.82422" y="19.2002"> </tspan><tspan x="70.86426" y="19.2002">Q</tspan><tspan class="cls-13" x="83.02393" y="19.2002"> </tspan><tspan x="88.06396" y="19.2002">R</tspan><tspan class="cls-13" x="99.52002" y="19.2002"> </tspan><tspan class="cls-11" x="104.56055" y="19.2002">S</tspan><tspan class="cls-13" x="114.83203" y="19.2002"> </tspan><tspan x="119.87207" y="19.2002">T</tspan><tspan class="cls-13" x="129.88818" y="19.2002"> </tspan><tspan x="134.92822" y="19.2002">U</tspan><tspan class="cls-14" x="146.83203" y="19.2002"> </tspan><tspan x="151.87158" y="19.2002">V</tspan><tspan class="cls-13" x="162.7832" y="19.2002"> </tspan><tspan x="167.82324" y="19.2002">W </tspan><tspan x="0" y="38.3999">X</tspan><tspan class="cls-15" x="10.52783" y="38.3999"> </tspan><tspan x="16.16211" y="38.3999">Y</tspan><tspan class="cls-16" x="26.37012" y="38.3999"> </tspan><tspan x="32.00537" y="38.3999">Z</tspan><tspan class="cls-15" x="42.18164" y="38.3999"> </tspan><tspan x="47.81592" y="38.3999">a</tspan><tspan class="cls-16" x="57.43164" y="38.3999"> </tspan><tspan class="cls-11" x="63.06641" y="38.3999">b</tspan><tspan class="cls-16" x="73.08203" y="38.3999"> </tspan><tspan x="78.7168" y="38.3999">c</tspan><tspan class="cls-15" x="87.29248" y="38.3999"> </tspan><tspan x="92.92676" y="38.3999">d</tspan><tspan class="cls-16" x="102.99072" y="38.3999"> </tspan><tspan class="cls-11" x="108.62549" y="38.3999">e</tspan><tspan class="cls-16" x="118.30518" y="38.3999"> </tspan><tspan x="123.93994" y="38.3999">f</tspan><tspan class="cls-15" x="130.83594" y="38.3999"> </tspan><tspan x="136.47021" y="38.3999">g</tspan><tspan class="cls-16" x="146.29395" y="38.3999"> </tspan><tspan x="151.92871" y="38.3999">h</tspan><tspan class="cls-15" x="162.12061" y="38.3999"> </tspan><tspan x="167.75488" y="38.3999">i</tspan><tspan class="cls-16" x="172.85889" y="38.3999"> </tspan><tspan class="cls-11" x="178.49365" y="38.3999">j </tspan><tspan x="0" y="57.6001">k</tspan><tspan class="cls-17" x="9.26416" y="57.6001"> </tspan><tspan x="14.03076" y="57.6001">l</tspan><tspan class="cls-18" x="19.32666" y="57.6001"> </tspan><tspan x="24.09326" y="57.6001">m</tspan><tspan class="cls-17" x="39.06934" y="57.6001"> </tspan><tspan x="43.83594" y="57.6001">n</tspan><tspan class="cls-17" x="54.02783" y="57.6001"> </tspan><tspan x="58.79443" y="57.6001">o</tspan><tspan class="cls-17" x="68.84277" y="57.6001"> </tspan><tspan x="73.60938" y="57.6001">p</tspan><tspan class="cls-17" x="83.64111" y="57.6001"> </tspan><tspan class="cls-11" x="88.40771" y="57.6001">q</tspan><tspan class="cls-17" x="98.42334" y="57.6001"> </tspan><tspan x="103.18994" y="57.6001">r</tspan><tspan class="cls-17" x="110.32617" y="57.6001"> </tspan><tspan x="115.09277" y="57.6001">s</tspan><tspan class="cls-17" x="124.13281" y="57.6001"> </tspan><tspan x="128.8999" y="57.6001">t</tspan><tspan class="cls-17" x="136.11621" y="57.6001"> </tspan><tspan class="cls-11" x="140.88281" y="57.6001">u</tspan><tspan class="cls-17" x="150.97852" y="57.6001"> </tspan><tspan x="155.74512" y="57.6001">v</tspan><tspan class="cls-17" x="165.04102" y="57.6001"> </tspan><tspan x="169.80811" y="57.6001">w </tspan><tspan x="0" y="76.7998">x</tspan><tspan class="cls-19" x="8.83203" y="76.7998"> </tspan><tspan x="14.4248" y="76.7998">y</tspan><tspan class="cls-20" x="23.75244" y="76.7998"> </tspan><tspan x="29.34521" y="76.7998">z</tspan><tspan class="cls-19" x="38.2251" y="76.7998"> </tspan><tspan x="43.81787" y="76.7998">1</tspan><tspan class="cls-20" x="54.37793" y="76.7998"> </tspan><tspan class="cls-11" x="59.9707" y="76.7998">2</tspan><tspan class="cls-20" x="70.53027" y="76.7998"> </tspan><tspan x="76.12305" y="76.7998">3</tspan><tspan class="cls-19" x="86.68311" y="76.7998"> </tspan><tspan x="92.27539" y="76.7998">4</tspan><tspan class="cls-19" x="102.83545" y="76.7998"> </tspan><tspan x="108.42773" y="76.7998">5</tspan><tspan class="cls-20" x="118.98779" y="76.7998"> </tspan><tspan x="124.58057" y="76.7998">6</tspan><tspan class="cls-19" x="135.14063" y="76.7998"> </tspan><tspan x="140.73291" y="76.7998">7</tspan><tspan class="cls-19" x="151.29297" y="76.7998"> </tspan><tspan x="156.88525" y="76.7998">8</tspan><tspan class="cls-20" x="167.44531" y="76.7998"> </tspan><tspan x="173.03809" y="76.7998">9 </tspan><tspan x="0" y="96">0</tspan><tspan class="cls-21" x="10.56006" y="96"> </tspan><tspan x="18.10352" y="96">!</tspan><tspan class="cls-22" x="23.65576" y="96"> </tspan><tspan x="31.19971" y="96">@</tspan><tspan class="cls-21" x="48.43164" y="96"> </tspan><tspan x="55.9751" y="96">£</tspan><tspan class="cls-21" x="66.53516" y="96"> </tspan><tspan x="74.07861" y="96">$</tspan><tspan class="cls-22" x="84.63867" y="96"> </tspan><tspan x="92.18262" y="96">%</tspan><tspan class="cls-21" x="102.74268" y="96"> </tspan><tspan x="110.28613" y="96">^</tspan><tspan class="cls-22" x="120.84619" y="96"> </tspan><tspan class="cls-11" x="128.39014" y="96">&amp;</tspan><tspan class="cls-22" x="140.99756" y="96"> </tspan><tspan x="148.5415" y="96">*</tspan><tspan class="cls-21" x="156.86133" y="96"> </tspan><tspan x="164.40479" y="96">(</tspan><tspan class="cls-22" x="170.22852" y="96"> </tspan><tspan x="177.77246" y="96">)</tspan></text><text class="cls-23" transform="translate(-0.00016 54.46655)">Titillium <tspan class="cls-24" x="57.32715" y="0">R</tspan><tspan class="cls-25" x="67.03906" y="0">egular</tspan></text></g></g></svg>