<?xml version="1.0" encoding="utf-8"?>
<!-- Generator: Adobe Illustrator 26.4.1, SVG Export Plug-In . SVG Version: 6.00 Build 0)  -->
<svg version="1.1" id="Layer_1" xmlns="http://www.w3.org/2000/svg" xmlns:xlink="http://www.w3.org/1999/xlink" x="0px" y="0px"
	 viewBox="0 0 327 116.6" style="enable-background:new 0 0 327 116.6;" xml:space="preserve">
<style type="text/css">
	.st0{enable-background:new    ;}
</style>
<g id="Layer_2_00000031181040637039872560000010977775753981998242_">
	<g id="Layer_1-2">
		<g class="st0">
			<path d="M0.7,23.7L6,4.3h4.7L16,23.7h-2.1l-1.4-5H4.2l-1.4,5H0.7z M7.6,6.2L4.7,16.8H12L9.1,6.2H7.6z"/>
		</g>
		<g class="st0">
			<path d="M28,13.9v7.2c0.1,0.7,0.6,1.1,1.6,1.2L29.5,24c-1.5,0-2.6-0.4-3.3-1.1c-1.7,0.7-3.4,1.1-5,1.1c-1.3,0-2.3-0.4-2.9-1.1
				c-0.7-0.7-1-1.8-1-3.1c0-1.4,0.3-2.4,1-3s1.8-1,3.2-1.2l4.4-0.4v-1.2c0-1-0.2-1.6-0.6-2c-0.4-0.4-1-0.6-1.7-0.6
				c-1.5,0-3,0.1-4.6,0.3l-0.9,0.1L18,10c2.1-0.4,3.9-0.6,5.5-0.6s2.7,0.4,3.5,1.1C27.6,11.2,28,12.4,28,13.9z M19.4,19.6
				c0,1.7,0.7,2.6,2.1,2.6c1.3,0,2.5-0.2,3.8-0.6l0.6-0.2v-4.6l-4.1,0.4c-0.8,0.1-1.4,0.3-1.8,0.7C19.6,18.2,19.4,18.8,19.4,19.6z"
				/>
		</g>
		<g class="st0">
			<path d="M31.7,4.3h7c1.9,0,3.4,0.4,4.3,1.2c1,0.8,1.4,2,1.4,3.7c0,1.2-0.2,2.2-0.6,2.8c-0.4,0.7-1,1.2-1.9,1.6
				c2.1,0.7,3.1,2.2,3.1,4.6c0,1.9-0.5,3.3-1.5,4.2c-1,0.8-2.5,1.3-4.5,1.3h-7.4V4.3z M38.6,6.2h-4.8v6.7h5c1.2,0,2.1-0.3,2.6-0.9
				c0.6-0.6,0.8-1.4,0.8-2.6S42,7.5,41.4,7C40.8,6.5,39.9,6.2,38.6,6.2z M38.8,14.8h-5v7H39c1.3,0,2.2-0.3,2.9-0.8s1-1.5,1-2.8
				c0-0.7-0.1-1.3-0.4-1.8c-0.3-0.5-0.6-0.8-1.1-1C40.6,15,39.7,14.8,38.8,14.8z"/>
		</g>
		<g class="st0">
			<path d="M53.8,9.4c1.9,0,3.2,0.5,4,1.6s1.1,3,1.1,5.6c0,2.7-0.5,4.6-1.4,5.7c-0.9,1.1-2.7,1.6-5.2,1.6c-0.8,0-2.1-0.1-3.9-0.2
				l-0.8-0.1V3.6h2.1v6.8C51.1,9.7,52.5,9.4,53.8,9.4z M52.3,22.1c1.8,0,3-0.4,3.6-1.2s0.9-2.2,0.9-4.2s-0.2-3.4-0.7-4.2
				c-0.5-0.8-1.3-1.2-2.5-1.2c-1.1,0-2.2,0.2-3.3,0.6l-0.6,0.2V22C50.9,22,51.8,22.1,52.3,22.1z"/>
		</g>
		<g class="st0">
			<path d="M73.6,23.4C71.7,23.8,70,24,68.4,24s-2.8-0.2-3.7-0.6c-0.9-0.4-1.7-1.1-2.2-2s-0.9-1.9-1.1-3.1c-0.2-1.1-0.3-2.6-0.3-4.3
				c0-1.7,0.1-3.2,0.3-4.3c0.2-1.2,0.6-2.2,1.1-3.1c0.5-0.9,1.2-1.5,2.2-2C65.6,4.2,66.8,4,68.3,4c1.5,0,3.2,0.2,5.3,0.6l-0.1,1.8
				C71.6,6.1,70,6,68.5,6c-2.1,0-3.4,0.6-4.1,1.8c-0.7,1.2-1,3.3-1,6.3c0,1.5,0.1,2.7,0.2,3.6c0.1,0.9,0.4,1.7,0.7,2.4
				c0.4,0.7,0.9,1.2,1.6,1.5c0.7,0.3,1.7,0.5,3,0.5s2.9-0.2,4.7-0.5L73.6,23.4z"/>
		</g>
		<g class="st0">
			<path d="M81,9.4c0.6,0,1.7,0.1,3.1,0.3l0.7,0.1l-0.1,1.7c-1.5-0.2-2.6-0.3-3.3-0.3c-1.6,0-2.7,0.4-3.2,1.1
				c-0.6,0.8-0.9,2.2-0.9,4.2s0.3,3.5,0.8,4.3c0.5,0.8,1.6,1.2,3.3,1.2l3.3-0.3l0.1,1.7c-1.7,0.3-3,0.4-3.9,0.4
				c-2.2,0-3.7-0.6-4.5-1.7c-0.8-1.1-1.2-3-1.2-5.7s0.4-4.5,1.3-5.6S78.9,9.4,81,9.4z"/>
		</g>
		<g class="st0">
			<path d="M94.1,23.7h-6.9V4.3h6.9c3.2,0,5.2,1.3,6.3,3.8c0.6,1.4,0.9,3.3,0.9,5.7c0,4.9-1.2,7.9-3.6,9.2
				C96.6,23.4,95.5,23.7,94.1,23.7z M99,13.7c0-3.7-0.8-6-2.5-6.9c-0.7-0.4-1.5-0.6-2.5-0.6h-4.8v15.6h4.8
				C97.4,21.8,99,19.1,99,13.7z"/>
		</g>
		<g class="st0">
			<path d="M114.7,3.6v20.1h-2.1v-1c-1.4,0.8-2.9,1.2-4.3,1.2c-0.7,0-1.4-0.1-2-0.3s-1.1-0.5-1.6-1c-1-1-1.5-2.9-1.5-5.6
				s0.5-4.7,1.4-5.9s2.4-1.8,4.5-1.8c1.1,0,2.2,0.1,3.4,0.4V3.6H114.7z M107.4,21.9c0.3,0.1,0.8,0.2,1.3,0.2c0.5,0,1.1-0.1,1.8-0.3
				c0.7-0.2,1.2-0.3,1.6-0.5l0.6-0.3v-9.5c-1.2-0.2-2.3-0.3-3.3-0.3c-1.4,0-2.4,0.5-3,1.4s-0.8,2.3-0.8,4.2c0,2.2,0.3,3.6,1,4.4
				C106.8,21.5,107.1,21.8,107.4,21.9z"/>
		</g>
		<g class="st0">
			<path d="M138.7,16.1l3-11.1h2.7l3,11.1h-1.2l-0.8-2.8h-4.7l-0.8,2.8H138.7z M142.7,6.1l-1.7,6.1h4.2l-1.7-6.1H142.7z"/>
		</g>
		<g class="st0">
			<path d="M156.5,5h4c1.1,0,1.9,0.2,2.5,0.7c0.5,0.5,0.8,1.2,0.8,2.1c0,0.7-0.1,1.2-0.4,1.6c-0.2,0.4-0.6,0.7-1.1,0.9
				c1.2,0.4,1.8,1.3,1.8,2.6c0,1.1-0.3,1.9-0.9,2.4c-0.6,0.5-1.4,0.7-2.5,0.7h-4.2V5z M160.5,6.1h-2.7v3.8h2.8
				c0.7,0,1.2-0.2,1.5-0.5c0.3-0.3,0.5-0.8,0.5-1.5s-0.2-1.1-0.5-1.4C161.7,6.2,161.2,6.1,160.5,6.1z M160.6,11h-2.9v4h2.9
				c0.7,0,1.3-0.2,1.7-0.5s0.6-0.8,0.6-1.6c0-0.4-0.1-0.7-0.2-1s-0.4-0.5-0.6-0.6C161.6,11.1,161.1,11,160.6,11z"/>
		</g>
		<g class="st0">
			<path d="M180.4,15.9c-1.1,0.2-2.1,0.3-3,0.3c-0.9,0-1.6-0.1-2.1-0.4c-0.5-0.2-1-0.6-1.2-1.1c-0.3-0.5-0.5-1.1-0.6-1.7
				c-0.1-0.7-0.2-1.5-0.2-2.5s0.1-1.8,0.2-2.5c0.1-0.7,0.3-1.3,0.6-1.8c0.3-0.5,0.7-0.9,1.2-1.1c0.5-0.2,1.2-0.4,2.1-0.4
				c0.9,0,1.9,0.1,3,0.4l0,1c-1.1-0.2-2-0.3-2.9-0.3c-1.2,0-2,0.3-2.3,1c-0.4,0.7-0.6,1.9-0.6,3.6c0,0.8,0,1.5,0.1,2
				c0.1,0.5,0.2,1,0.4,1.4c0.2,0.4,0.5,0.7,0.9,0.9c0.4,0.2,1,0.3,1.7,0.3s1.6-0.1,2.7-0.3L180.4,15.9z"/>
		</g>
		<g class="st0">
			<path d="M193.6,16.1h-4V5h4c1.8,0,3,0.7,3.6,2.1c0.3,0.8,0.5,1.9,0.5,3.2c0,2.8-0.7,4.5-2.1,5.3
				C195.1,15.9,194.4,16.1,193.6,16.1z M196.5,10.4c0-2.1-0.5-3.4-1.4-4c-0.4-0.2-0.9-0.3-1.4-0.3h-2.7V15h2.7
				C195.5,15,196.5,13.4,196.5,10.4z"/>
		</g>
		<g class="st0">
			<path d="M207.3,16.1V5h6.7v1.1h-5.5v3.8h4.5V11h-4.5v4h5.5v1.1H207.3z"/>
		</g>
		<g class="st0">
			<path d="M223.5,16.1V5h6.6v1.1h-5.4v4.3h4.6v1.1h-4.6v4.6H223.5z"/>
		</g>
		<g class="st0">
			<path d="M243.6,11.5v-1.1h3.1v5.4c-1.3,0.3-2.5,0.4-3.6,0.4c-1.6,0-2.7-0.5-3.4-1.4c-0.6-0.9-0.9-2.4-0.9-4.3
				c0-1.9,0.3-3.4,0.9-4.3s1.7-1.4,3.3-1.4c1,0,2,0.1,3.1,0.3l0.5,0.1l0,1c-1.3-0.2-2.5-0.3-3.4-0.3c-1.2,0-2.1,0.4-2.5,1.1
				c-0.4,0.7-0.6,1.9-0.6,3.5c0,1.6,0.2,2.8,0.6,3.5c0.4,0.7,1.2,1.1,2.5,1.1c0.7,0,1.5-0.1,2.3-0.2v-3.4H243.6z"/>
		</g>
		<g class="st0">
			<path d="M263.2,16.1v-5h-5.6v5h-1.2V5h1.2v5h5.6V5h1.2v11.1H263.2z"/>
		</g>
		<g class="st0">
			<path d="M274.4,16.1V5h1.2v11.1H274.4z"/>
		</g>
		<g class="st0">
			<path d="M284.6,17.2v-1.1c0.8,0,1.3-0.1,1.5-0.3c0.2-0.2,0.3-0.7,0.3-1.5V5h1.2l0,9.6c0,0.9-0.1,1.6-0.4,2
				c-0.2,0.4-0.7,0.6-1.5,0.7C285.5,17.2,285.1,17.2,284.6,17.2z"/>
		</g>
		<g class="st0">
			<path d="M298.8,16.1h-1.2V5h1.2v5.2l1.8-0.1l2.8-5.1h1.4l-3.2,5.6l3.3,5.5h-1.5l-2.9-4.9l-1.8,0.1V16.1z"/>
		</g>
		<g class="st0">
			<path d="M320.1,16.1H314V5h1.2v10h4.9V16.1z"/>
		</g>
		<g class="st0">
			<path d="M139.7,35.3V24.2h2.2l3.1,9.4l3.1-9.4h2.2v11.1h-1.2v-9.8h-0.2l-3.2,9.4h-1.4l-3.2-9.4h-0.2v9.8H139.7z"/>
		</g>
		<g class="st0">
			<path d="M159.8,35.3V24.2h2.3l4.2,10h0.3v-10h1.2v11.1h-2.3l-4.3-10H161v10H159.8z"/>
		</g>
		<g class="st0">
			<path d="M185.5,29.8c0,2-0.3,3.4-0.9,4.3c-0.6,0.9-1.8,1.3-3.4,1.3s-2.8-0.5-3.4-1.4c-0.6-0.9-0.9-2.3-0.9-4.3
				c0-1.9,0.3-3.4,1-4.3c0.6-0.9,1.8-1.4,3.4-1.4s2.8,0.5,3.4,1.4C185.2,26.4,185.5,27.8,185.5,29.8z M178,29.8
				c0,1.6,0.2,2.8,0.6,3.5c0.4,0.7,1.2,1.1,2.5,1.1s2-0.3,2.5-1c0.4-0.7,0.6-1.9,0.6-3.5s-0.2-2.8-0.7-3.6c-0.4-0.7-1.3-1.1-2.5-1.1
				s-2,0.4-2.4,1.1C178.3,27,178,28.2,178,29.8z"/>
		</g>
		<g class="st0">
			<path d="M198.5,31.5h-2.8v3.7h-1.2V24.2h4c1.2,0,2.1,0.3,2.7,0.9c0.6,0.6,0.9,1.5,0.9,2.7C202,30.3,200.8,31.5,198.5,31.5z
				 M195.7,30.5h2.8c1.5,0,2.3-0.9,2.3-2.7c0-0.9-0.2-1.5-0.5-1.9c-0.4-0.4-0.9-0.6-1.7-0.6h-2.8V30.5z"/>
		</g>
		<g class="st0">
			<path d="M214.5,35.4c-1.7,0-2.8-0.5-3.4-1.4c-0.6-0.9-0.9-2.3-0.9-4.3c0-1.9,0.3-3.4,1-4.3c0.6-0.9,1.8-1.4,3.4-1.4
				c1.6,0,2.8,0.5,3.4,1.4c0.6,0.9,1,2.4,1,4.3c0,1.4-0.1,2.4-0.4,3.3c-0.3,0.8-0.8,1.4-1.4,1.8l1.4,2.2l-1.2,0.5l-1.4-2.3
				C215.5,35.4,215,35.4,214.5,35.4z M211.4,29.8c0,1.6,0.2,2.8,0.6,3.5c0.4,0.7,1.3,1.1,2.5,1.1c1.2,0,2-0.3,2.5-1
				c0.4-0.7,0.6-1.9,0.6-3.5c0-1.6-0.2-2.8-0.7-3.6c-0.4-0.7-1.3-1.1-2.5-1.1s-2,0.4-2.4,1.1C211.6,27,211.4,28.2,211.4,29.8z"/>
		</g>
		<g class="st0">
			<path d="M229,31v4.2h-1.2V24.2h4.1c1.2,0,2.1,0.3,2.6,0.8s0.9,1.4,0.9,2.5c0,1.7-0.7,2.8-2,3.2l2.1,4.5h-1.4l-2-4.2H229z
				 M231.9,29.9c1.5,0,2.3-0.8,2.3-2.3c0-1.6-0.8-2.3-2.3-2.3H229v4.7H231.9z"/>
		</g>
		<g class="st0">
			<path d="M247.3,25.1c-1.6,0-2.4,0.6-2.4,1.8c0,0.7,0.2,1.1,0.6,1.4c0.4,0.3,1.1,0.5,2.2,0.8s1.9,0.6,2.4,1c0.5,0.4,0.7,1.1,0.7,2
				c0,2.3-1.2,3.4-3.5,3.4c-0.8,0-1.8-0.1-2.9-0.3l-0.6-0.1l0.1-1c1.5,0.2,2.6,0.3,3.3,0.3c1.6,0,2.4-0.7,2.4-2.2
				c0-0.6-0.2-1-0.5-1.3c-0.3-0.3-1-0.5-1.9-0.7c-1.2-0.3-2.1-0.6-2.7-1c-0.5-0.4-0.8-1.1-0.8-2.1c0-2,1.2-3,3.6-3
				c0.8,0,1.7,0.1,2.8,0.2l0.5,0.1l-0.1,1C249,25.2,247.9,25.1,247.3,25.1z"/>
		</g>
		<g class="st0">
			<path d="M258.4,25.3v-1.1h8v1.1H263v10h-1.2v-10H258.4z"/>
		</g>
		<g class="st0">
			<path d="M275.8,31.9c0,1.6,0.9,2.4,2.6,2.4c0.9,0,1.6-0.2,2-0.6c0.5-0.4,0.7-1,0.7-1.8v-7.7h1.2v7.7c0,1.2-0.3,2.1-1,2.7
				s-1.6,0.8-2.9,0.8c-1.3,0-2.2-0.3-2.9-0.8s-1-1.5-1-2.7v-7.7h1.2V31.9z"/>
		</g>
		<g class="st0">
			<path d="M297.8,24.2h1.3l-2.9,11.1h-2.8l-2.9-11.1h1.3l2.5,10h0.9L297.8,24.2z"/>
		</g>
		<g class="st0">
			<path d="M306.6,24.2h1.3l1.9,10h0.5l2.3-9.9h1.4l2.3,9.9h0.5l1.9-10h1.3l-2.2,11.1h-2.3l-2.1-9.5l-2.1,9.5h-2.3L306.6,24.2z"/>
		</g>
		<g class="st0">
			<path d="M140,43.4l2.8,4.7l2.8-4.7h1.3l-3.4,5.6l3.4,5.5h-1.4l-2.8-4.6l-2.8,4.6h-1.3l3.4-5.4l-3.4-5.6H140z"/>
		</g>
		<g class="st0">
			<path d="M159.4,54.5h-1.2v-4.7l-3.5-6.4h1.4l2.8,5.2l2.8-5.2h1.4l-3.5,6.4V54.5z"/>
		</g>
		<g class="st0">
			<path d="M171,44.5v-1.1h7.2v1.4l-5.8,8.2v0.3h5.8v1.1H171v-1.4l5.8-8.2v-0.4H171z"/>
		</g>
		<g class="st0">
			<path d="M192.9,48.9V53c0,0.4,0.3,0.6,0.9,0.7l0,0.9c-0.8,0-1.5-0.2-1.9-0.6c-1,0.4-1.9,0.6-2.9,0.6c-0.7,0-1.3-0.2-1.7-0.6
				c-0.4-0.4-0.6-1-0.6-1.8s0.2-1.4,0.6-1.7c0.4-0.4,1-0.6,1.9-0.7l2.5-0.2v-0.7c0-0.5-0.1-0.9-0.4-1.2s-0.6-0.4-1-0.4
				c-0.9,0-1.7,0.1-2.7,0.2l-0.5,0l0-0.9c1.2-0.2,2.2-0.4,3.1-0.4s1.6,0.2,2,0.6C192.7,47.4,192.9,48,192.9,48.9z M188,52.2
				c0,1,0.4,1.5,1.2,1.5c0.7,0,1.4-0.1,2.1-0.4l0.4-0.1v-2.6l-2.4,0.2c-0.5,0-0.8,0.2-1,0.4C188.1,51.4,188,51.7,188,52.2z"/>
		</g>
		<g class="st0">
			<path d="M206.1,46.3c1.1,0,1.8,0.3,2.3,0.9c0.4,0.6,0.6,1.7,0.6,3.2c0,1.5-0.3,2.6-0.8,3.2c-0.5,0.6-1.5,0.9-3,0.9
				c-0.4,0-1.2,0-2.2-0.1l-0.4,0V43h1.2v3.9C204.5,46.5,205.3,46.3,206.1,46.3z M205.2,53.6c1,0,1.7-0.2,2.1-0.7s0.5-1.3,0.5-2.4
				c0-1.1-0.1-1.9-0.4-2.4c-0.3-0.5-0.7-0.7-1.4-0.7c-0.6,0-1.3,0.1-1.9,0.4l-0.3,0.1v5.6C204.4,53.5,204.9,53.6,205.2,53.6z"/>
		</g>
		<g class="st0">
			<path d="M221.2,46.3c0.4,0,0.9,0.1,1.8,0.2l0.4,0l0,1c-0.9-0.1-1.5-0.1-1.9-0.1c-0.9,0-1.5,0.2-1.8,0.6c-0.3,0.4-0.5,1.2-0.5,2.4
				s0.2,2,0.5,2.4c0.3,0.5,0.9,0.7,1.9,0.7l1.9-0.1l0,1c-1,0.1-1.7,0.2-2.2,0.2c-1.2,0-2.1-0.3-2.6-1c-0.5-0.6-0.7-1.7-0.7-3.2
				c0-1.5,0.3-2.6,0.8-3.2C219.1,46.6,220,46.3,221.2,46.3z"/>
		</g>
		<g class="st0">
			<path d="M238.5,43v11.5h-1.2v-0.5c-0.8,0.5-1.6,0.7-2.4,0.7c-0.4,0-0.8-0.1-1.1-0.2c-0.3-0.1-0.6-0.3-0.9-0.6
				c-0.6-0.6-0.9-1.6-0.9-3.2c0-1.6,0.3-2.7,0.8-3.4c0.5-0.7,1.4-1,2.6-1c0.6,0,1.3,0.1,2,0.2V43H238.5z M234.4,53.4
				c0.2,0.1,0.4,0.1,0.7,0.1s0.6-0.1,1-0.2c0.4-0.1,0.7-0.2,0.9-0.3l0.3-0.1v-5.4c-0.7-0.1-1.3-0.2-1.9-0.2c-0.8,0-1.4,0.3-1.7,0.8
				s-0.5,1.3-0.5,2.4c0,1.2,0.2,2.1,0.6,2.5C234,53.2,234.2,53.4,234.4,53.4z"/>
		</g>
		<g class="st0">
			<path d="M253.5,53.5l0.5,0l0,0.9c-1.2,0.2-2.3,0.3-3.1,0.3c-1.2,0-2-0.3-2.4-1c-0.5-0.7-0.7-1.7-0.7-3.1c0-2.8,1.1-4.2,3.3-4.2
				c1.1,0,1.9,0.3,2.4,0.9c0.5,0.6,0.8,1.5,0.8,2.8l-0.1,0.9H249c0,0.9,0.2,1.5,0.5,2s0.9,0.6,1.7,0.6S252.7,53.5,253.5,53.5z
				 M253.1,50c0-1-0.2-1.7-0.5-2.1c-0.3-0.4-0.8-0.6-1.5-0.6c-0.7,0-1.2,0.2-1.6,0.6s-0.5,1.1-0.6,2H253.1z"/>
		</g>
		<g class="st0">
			<path d="M265,47.5v7h-1.2v-7h-1v-1h1v-0.7c0-1.1,0.2-1.9,0.5-2.3c0.3-0.4,0.9-0.6,1.7-0.6l1.6,0.1l0,1c-0.6,0-1.1,0-1.5,0
				c-0.4,0-0.7,0.1-0.8,0.4c-0.2,0.3-0.2,0.8-0.2,1.5v0.7h2.3v1H265z"/>
		</g>
		<g class="st0">
			<path d="M279,58.2c-1.3,0-2.2-0.2-2.7-0.5c-0.5-0.3-0.8-1-0.8-1.9c0-0.4,0.1-0.8,0.3-1.1c0.2-0.3,0.5-0.6,1-0.9
				c-0.3-0.2-0.4-0.6-0.4-1.1c0-0.2,0.1-0.5,0.4-1l0.1-0.3c-0.8-0.4-1.3-1.2-1.3-2.4c0-1.8,1-2.7,3-2.7c0.5,0,1,0.1,1.4,0.2l0.2,0
				l2.4-0.1v1l-1.5,0c0.4,0.4,0.5,0.9,0.5,1.6c0,1-0.2,1.7-0.7,2.1c-0.5,0.4-1.3,0.6-2.3,0.6c-0.3,0-0.5,0-0.8-0.1
				c-0.2,0.5-0.3,0.8-0.3,0.9c0,0.3,0.1,0.5,0.3,0.6c0.2,0.1,0.8,0.1,1.8,0.1c1,0,1.8,0.2,2.2,0.5c0.4,0.3,0.7,0.9,0.7,1.9
				C282.6,57.4,281.4,58.2,279,58.2z M276.8,55.7c0,0.6,0.2,1,0.5,1.2s0.9,0.3,1.7,0.3s1.5-0.1,1.8-0.4c0.4-0.2,0.6-0.6,0.6-1.2
				c0-0.5-0.1-0.9-0.4-1.1s-0.8-0.2-1.6-0.2l-1.7-0.1c-0.4,0.3-0.6,0.5-0.7,0.7C276.8,55.2,276.8,55.4,276.8,55.7z M276.9,49
				c0,0.6,0.1,1.1,0.4,1.3c0.3,0.3,0.7,0.4,1.4,0.4s1.1-0.1,1.4-0.4s0.4-0.7,0.4-1.4s-0.1-1.1-0.4-1.4s-0.7-0.4-1.4-0.4
				s-1.1,0.1-1.4,0.4C277,48,276.9,48.4,276.9,49z"/>
		</g>
		<g class="st0">
			<path d="M292.6,54.5h-1.2V43h1.2v3.9c0.9-0.4,1.7-0.6,2.5-0.6c1.1,0,1.8,0.3,2.2,0.9s0.6,1.6,0.6,3.1v4.2h-1.2v-4.2
				c0-1.1-0.1-1.9-0.3-2.3c-0.2-0.4-0.7-0.6-1.4-0.6c-0.7,0-1.3,0.1-2,0.4l-0.3,0.1V54.5z"/>
		</g>
		<g class="st0">
			<path d="M307.2,44.7v-1.4h1.2v1.4H307.2z M307.2,54.5v-8h1.2v8H307.2z"/>
		</g>
		<g class="st0">
			<path d="M318,54.3v-7.8h1.2v7.8c0,1-0.2,1.7-0.5,2.2c-0.4,0.5-1.1,1-2.1,1.6l-0.5-0.9c0.8-0.5,1.4-0.9,1.6-1.2
				C317.9,55.6,318,55,318,54.3z M318,44.7v-1.4h1.2v1.4H318z"/>
		</g>
		<g class="st0">
			<path d="M140.7,73.7h-1.2V62.2h1.2V69l1.2-0.1l2.3-3.2h1.4l-2.6,3.7l2.7,4.3h-1.4l-2.4-3.7l-1.3,0V73.7z"/>
		</g>
		<g class="st0">
			<path d="M153.6,73.7V62.2h1.2v11.5H153.6z"/>
		</g>
		<g class="st0">
			<path d="M164.8,73.7h-1.2v-8h1.2v0.6c0.8-0.5,1.6-0.7,2.3-0.7c1,0,1.7,0.3,2.1,0.8c0.4-0.2,0.8-0.4,1.4-0.6
				c0.6-0.2,1.1-0.2,1.5-0.2c1.1,0,1.8,0.3,2.2,0.9s0.6,1.6,0.6,3.1v4.2h-1.2v-4.2c0-1.1-0.1-1.9-0.3-2.3c-0.2-0.4-0.7-0.6-1.4-0.6
				c-0.4,0-0.7,0.1-1.1,0.2c-0.4,0.1-0.7,0.2-0.9,0.3l-0.3,0.1c0.1,0.4,0.2,1.1,0.2,2.3v4.2h-1.2v-4.1c0-1.2-0.1-1.9-0.3-2.3
				c-0.2-0.4-0.7-0.6-1.4-0.6c-0.3,0-0.7,0.1-1,0.2c-0.4,0.1-0.6,0.2-0.8,0.3l-0.3,0.1V73.7z"/>
		</g>
		<g class="st0">
			<path d="M184.5,73.7h-1.2v-8h1.2v0.6c0.9-0.5,1.7-0.7,2.5-0.7c1.1,0,1.8,0.3,2.2,0.9s0.6,1.6,0.6,3.1v4.2h-1.2v-4.2
				c0-1.1-0.1-1.9-0.3-2.3c-0.2-0.4-0.7-0.6-1.4-0.6c-0.3,0-0.7,0.1-1.1,0.2c-0.4,0.1-0.7,0.2-0.9,0.3l-0.3,0.1V73.7z"/>
		</g>
		<g class="st0">
			<path d="M197.9,69.7c0-1.5,0.3-2.5,0.8-3.2c0.5-0.7,1.4-1,2.6-1c1.2,0,2.1,0.3,2.6,1c0.5,0.7,0.8,1.7,0.8,3.2
				c0,1.5-0.2,2.5-0.7,3.2s-1.4,1-2.7,1c-1.3,0-2.2-0.3-2.7-1S197.9,71.1,197.9,69.7z M199.1,69.6c0,1.2,0.1,2,0.4,2.5
				s0.9,0.7,1.8,0.7s1.5-0.2,1.8-0.7s0.4-1.3,0.4-2.5c0-1.2-0.2-2-0.5-2.4s-0.9-0.7-1.7-0.7c-0.8,0-1.4,0.2-1.7,0.7
				S199.1,68.5,199.1,69.6z"/>
		</g>
		<g class="st0">
			<path d="M213.1,77.2V65.7h1.2v0.6c0.8-0.5,1.6-0.7,2.4-0.7c1,0,1.8,0.3,2.2,1c0.5,0.6,0.7,1.7,0.7,3.2s-0.3,2.5-0.8,3.2
				c-0.5,0.6-1.4,1-2.7,1c-0.7,0-1.2-0.1-1.8-0.2v3.6H213.1z M216.5,66.6c-0.3,0-0.7,0.1-1,0.2c-0.4,0.1-0.7,0.2-0.9,0.3l-0.3,0.2
				v5.4c0.8,0.1,1.3,0.2,1.7,0.2c0.9,0,1.5-0.2,1.8-0.7c0.3-0.5,0.5-1.3,0.5-2.4s-0.2-1.9-0.5-2.4S217.1,66.6,216.5,66.6z"/>
		</g>
		<g class="st0">
			<path d="M230.5,73.8c-1.1,0-1.8-0.3-2.3-0.9c-0.5-0.6-0.7-1.7-0.7-3.2s0.3-2.6,0.8-3.2c0.6-0.6,1.5-1,2.9-1l2.7,0.2v11.6h-1.2
				v-3.9C232,73.7,231.3,73.8,230.5,73.8z M231.3,66.6c-1,0-1.7,0.3-2,0.8c-0.4,0.5-0.5,1.3-0.5,2.4c0,1.1,0.1,1.9,0.4,2.4
				s0.8,0.7,1.5,0.7c0.6,0,1.2-0.1,1.8-0.4l0.3-0.1v-5.6C232.1,66.6,231.6,66.6,231.3,66.6z"/>
		</g>
		<g class="st0">
			<path d="M242.7,73.7v-8h1.2v1.1c0.9-0.6,1.9-1.1,2.9-1.3v1.2c-0.4,0.1-0.9,0.2-1.4,0.4c-0.5,0.2-0.9,0.3-1.1,0.5l-0.4,0.2v5.9
				H242.7z"/>
		</g>
		<g class="st0">
			<path d="M257.1,66.6c-1.2,0-1.7,0.4-1.7,1.2c0,0.4,0.1,0.6,0.4,0.8c0.3,0.2,0.9,0.3,1.8,0.5c0.9,0.2,1.6,0.4,2,0.7
				c0.4,0.3,0.6,0.9,0.6,1.7s-0.3,1.4-0.8,1.8c-0.5,0.4-1.3,0.6-2.3,0.6c-0.7,0-1.4-0.1-2.3-0.2l-0.5-0.1l0.1-1
				c1.2,0.2,2.1,0.3,2.8,0.3c0.6,0,1.1-0.1,1.4-0.3s0.5-0.5,0.5-1s-0.1-0.8-0.4-0.9c-0.3-0.2-0.9-0.3-1.8-0.5s-1.6-0.4-2-0.7
				c-0.4-0.3-0.6-0.8-0.6-1.6c0-0.8,0.3-1.4,0.8-1.7c0.5-0.4,1.2-0.6,2.1-0.6c0.7,0,1.5,0.1,2.4,0.2l0.4,0.1l0,1
				C258.7,66.7,257.8,66.6,257.1,66.6z"/>
		</g>
		<g class="st0">
			<path d="M272.5,66.7H270v3.8c0,0.9,0.1,1.5,0.2,1.8s0.5,0.4,1,0.4l1.4-0.1l0.1,1c-0.7,0.1-1.3,0.2-1.6,0.2
				c-0.8,0-1.4-0.2-1.7-0.6c-0.3-0.4-0.5-1.2-0.5-2.3v-4.2h-1.1v-1h1.1v-2.4h1.2v2.4h2.5V66.7z"/>
		</g>
		<g class="st0">
			<path d="M285.3,65.7h1.2v8h-1.2v-0.6c-0.8,0.5-1.6,0.7-2.4,0.7c-1.1,0-1.8-0.3-2.2-0.8c-0.4-0.6-0.5-1.6-0.5-3.1v-4.2h1.2v4.2
				c0,1.2,0.1,1.9,0.3,2.3c0.2,0.4,0.7,0.6,1.4,0.6c0.4,0,0.7-0.1,1.1-0.2c0.4-0.1,0.6-0.2,0.8-0.3l0.3-0.1V65.7z"/>
		</g>
		<g class="st0">
			<path d="M294.5,65.7h1.3l1.9,7h0.6l1.9-7h1.2l-2.3,8h-2.4L294.5,65.7z"/>
		</g>
		<g class="st0">
			<path d="M308.6,65.7h1.2l1.6,7h0.3l1.9-6.8h1.2l1.9,6.8h0.3l1.6-7h1.2l-1.9,8h-2l-1.7-6.3l-1.7,6.3h-2L308.6,65.7z"/>
		</g>
		<g class="st0">
			<path d="M138.7,84.9h1.3l2,3.1l2-3.1h1.3l-2.5,4l2.5,4h-1.3l-1.9-3.1l-2,3.1h-1.3l2.5-4L138.7,84.9z"/>
		</g>
		<g class="st0">
			<path d="M153.1,84.9h1.2l2,7h0.5l2-7h1.2l-3.3,11.6h-1.2l1-3.6h-1.2L153.1,84.9z"/>
		</g>
		<g class="st0">
			<path d="M168.3,85.9v-1.1h5.9v1.1l-4.5,5.9h4.5v1.1h-5.9v-1.1l4.5-5.9H168.3z"/>
		</g>
		<g class="st0">
			<path d="M188.4,82.3v10.6h-1.2v-9.2l-2.7,1.8l-0.6-0.9l3.4-2.2H188.4z"/>
		</g>
		<g class="st0">
			<path d="M206.1,92.9h-6.8v-1l3.1-3.2c0.5-0.6,0.9-1,1.2-1.3c0.2-0.3,0.5-0.6,0.7-1s0.3-0.8,0.3-1.2c0-0.7-0.2-1.2-0.6-1.4
				s-1-0.4-1.7-0.4c-0.7,0-1.5,0.1-2.3,0.3l-0.4,0.1l-0.1-1c1-0.3,2.1-0.4,3.1-0.4c1.1,0,1.9,0.2,2.4,0.7c0.5,0.5,0.8,1.2,0.8,2.2
				c0,0.7-0.2,1.4-0.5,2c-0.3,0.6-0.9,1.2-1.7,2l-2.8,2.9h5.3V92.9z"/>
		</g>
		<g class="st0">
			<path d="M215.6,82.6c1-0.3,2.1-0.4,3.2-0.4s2,0.2,2.5,0.7c0.5,0.4,0.8,1.1,0.8,2.1c0,0.5-0.1,0.8-0.2,1.1s-0.2,0.4-0.3,0.5
				c-0.1,0.1-0.2,0.2-0.3,0.3c-0.2,0.2-0.4,0.3-0.6,0.4l-0.2,0.1c0.6,0.2,1.1,0.5,1.4,0.9s0.4,0.9,0.4,1.7c0,1.1-0.3,1.9-0.8,2.4
				c-0.5,0.5-1.4,0.8-2.6,0.8c-0.9,0-1.9-0.1-3-0.3l-0.5-0.1l0.1-1c1.2,0.2,2.2,0.4,3.2,0.4c1.5,0,2.3-0.7,2.3-2
				c0-1.3-0.7-1.9-2.2-2h-2.1v-1.1h2.1c0.4,0,0.9-0.2,1.3-0.5s0.6-0.8,0.6-1.4s-0.2-1-0.5-1.3c-0.3-0.3-0.9-0.4-1.7-0.4
				c-0.9,0-1.7,0.1-2.5,0.2l-0.4,0.1L215.6,82.6z"/>
		</g>
		<g class="st0">
			<path d="M236.4,92.9v-2.1h-5.1v-1l3-7.5h1.3l-3.1,7.4h3.8v-3.3h1.2v3.3h1.3v1.1h-1.3v2.1H236.4z"/>
		</g>
		<g class="st0">
			<path d="M254.4,82.3v1.1h-5.1l-0.3,3.4c0.8-0.4,1.6-0.7,2.5-0.7c2.2,0,3.4,1,3.4,3.1c0,1.2-0.3,2.1-0.9,2.7
				c-0.6,0.6-1.5,0.9-2.6,0.9c-0.9,0-1.9-0.1-3-0.4l-0.5-0.1l0.1-1c1.2,0.2,2.3,0.4,3.1,0.4c0.8,0,1.5-0.2,1.9-0.6
				c0.4-0.4,0.6-1,0.6-1.8c0-0.8-0.2-1.3-0.6-1.7c-0.4-0.3-0.9-0.5-1.7-0.5c-0.4,0-0.8,0.1-1.2,0.2c-0.4,0.1-0.7,0.2-1,0.3l-0.3,0.2
				l-0.8-0.2l0.3-5.5H254.4z"/>
		</g>
		<g class="st0">
			<path d="M270.6,83.4c-1-0.1-1.9-0.2-2.8-0.2s-1.6,0.3-2.1,0.9c-0.5,0.6-0.7,1.5-0.7,2.7l0.4-0.2c0.3-0.1,0.6-0.2,1.1-0.3
				c0.4-0.1,0.8-0.2,1.2-0.2c2.4,0,3.6,1.1,3.6,3.3c0,1.1-0.3,2-1,2.6c-0.6,0.6-1.6,0.9-2.7,0.9c-2.5,0-3.8-1.8-3.8-5.5
				c0-1.8,0.4-3.2,1.1-4.1c0.7-0.9,1.7-1.3,3-1.3c0.9,0,1.7,0.1,2.5,0.2l0.4,0.1L270.6,83.4z M267.5,87.4c-0.4,0-0.8,0.1-1.2,0.2
				c-0.4,0.1-0.8,0.2-1,0.3L265,88c0,1.2,0.2,2.2,0.6,2.9c0.4,0.7,1,1.1,1.8,1.1c0.8,0,1.4-0.2,1.9-0.6c0.4-0.4,0.6-1,0.6-1.7
				s-0.2-1.3-0.6-1.7C268.9,87.6,268.3,87.4,267.5,87.4z"/>
		</g>
		<g class="st0">
			<path d="M280.3,83.4v-1.1h6.6v1.6l-4.1,9.1l-1.2-0.4l4-8.8v-0.4H280.3z"/>
		</g>
		<g class="st0">
			<path d="M296.9,82.8c0.7-0.5,1.6-0.7,2.8-0.7c1.2,0,2.1,0.2,2.8,0.7s1,1.1,1,2.1c0,0.7-0.1,1.2-0.4,1.5s-0.7,0.7-1.4,1
				c0.6,0.3,1.1,0.6,1.4,1s0.5,0.9,0.5,1.6c0,2-1.3,3-4,3c-2.6,0-4-0.9-4-2.8c0-0.8,0.1-1.3,0.4-1.7s0.8-0.8,1.4-1.1
				c-0.6-0.3-1-0.6-1.3-1s-0.4-0.9-0.4-1.5C295.9,84,296.2,83.3,296.9,82.8z M297,90c0,1.3,0.9,1.9,2.6,1.9c1.8,0,2.6-0.7,2.6-2
				c0-0.6-0.2-1-0.5-1.3c-0.3-0.3-0.8-0.5-1.4-0.7h-1.7c-0.6,0.2-1,0.4-1.3,0.7S297,89.4,297,90z M302.2,85c0-1.2-0.8-1.8-2.5-1.8
				s-2.5,0.6-2.5,1.8c0,0.5,0.1,0.8,0.4,1.1c0.3,0.3,0.7,0.5,1.2,0.7h1.7c0.6-0.2,1-0.4,1.3-0.7S302.2,85.5,302.2,85z"/>
		</g>
		<g class="st0">
			<path d="M315.3,91.9c1.9,0,2.9-1.2,2.9-3.7c-1.1,0.4-2,0.6-2.8,0.6c-2.3,0-3.5-1.1-3.5-3.2c0-1.1,0.3-1.9,1-2.6
				c0.7-0.6,1.6-0.9,2.7-0.9c1.3,0,2.3,0.5,2.9,1.4c0.6,1,0.9,2.4,0.9,4.2s-0.4,3.2-1.1,4c-0.7,0.8-1.8,1.2-3.1,1.2
				c-0.8,0-1.6-0.1-2.5-0.2l-0.4-0.1l0.1-1C313.5,91.9,314.4,91.9,315.3,91.9z M315.6,87.8c0.7,0,1.4-0.1,2.3-0.4l0.4-0.1
				c0-2.6-0.9-4-2.6-4c-0.7,0-1.3,0.2-1.8,0.6c-0.4,0.4-0.6,1-0.6,1.8C313.3,87.1,314.1,87.8,315.6,87.8z"/>
		</g>
		<g class="st0">
			<path d="M142.8,101.3c0.9,0,1.6,0.2,2.1,0.5c1.2,0.7,1.7,2.4,1.7,5.1c0,1.9-0.3,3.3-1,4.1c-0.6,0.8-1.6,1.2-2.9,1.2
				s-2.2-0.4-2.9-1.2c-0.6-0.8-1-2.2-1-4.2s0.3-3.4,1-4.3C140.5,101.8,141.5,101.3,142.8,101.3z M142.8,102.4
				c-0.6,0-1.1,0.1-1.4,0.4c-0.8,0.5-1.1,1.9-1.1,4.1c0,1.6,0.2,2.7,0.6,3.3s1.1,0.9,2,0.9s1.5-0.3,2-0.9c0.4-0.6,0.6-1.7,0.6-3.4
				c0-1.6-0.2-2.8-0.6-3.4S143.7,102.4,142.8,102.4z"/>
		</g>
		<g class="st0">
			<path d="M157.8,112.1v-1.8h1.3v1.8H157.8z M157.8,108.4l-0.1-7.4h1.3l-0.1,7.4H157.8z"/>
		</g>
		<g class="st0">
			<path d="M184.5,107.2v0.2c0,2.3-0.4,3.7-1.1,4.3c-0.3,0.2-0.5,0.3-0.8,0.4s-0.6,0.1-0.9,0.1s-0.6,0-0.9-0.1s-0.4-0.1-0.6-0.2
				c-0.3-0.2-0.4-0.4-0.5-0.6c-1,0.6-2,0.9-2.8,0.9c-0.4,0-0.7,0-1-0.1c-0.3-0.1-0.6-0.3-0.9-0.5c-0.6-0.5-0.9-1.6-0.9-3.1
				c0-1.5,0.2-2.7,0.7-3.3c0.5-0.7,1.3-1,2.5-1c0.5,0,1,0.1,1.6,0.3l0.3,0.1v-0.3h1.2v3.1c0,1.9,0.1,3,0.2,3.3
				c0.1,0.1,0.1,0.3,0.2,0.4c0.1,0.1,0.2,0.2,0.3,0.2c0.1,0,0.3,0,0.6,0s0.5-0.1,0.7-0.2s0.4-0.5,0.5-1.1s0.2-1.4,0.2-2.5v-0.2
				c0-2-0.4-3.4-1.3-4.3c-0.9-0.9-2.3-1.3-4.4-1.3s-3.5,0.5-4.5,1.5c-1,1-1.5,2.6-1.5,4.9s0.5,3.9,1.4,4.8s2.5,1.4,4.6,1.4l2.3-0.2
				l0,1.1c-1,0.1-1.8,0.1-2.3,0.1c-1.2,0-2.3-0.1-3.1-0.4c-0.9-0.2-1.6-0.6-2.2-1.2c-1.2-1.1-1.9-3-1.9-5.9c0-2.6,0.6-4.4,1.8-5.6
				s3-1.8,5.4-1.8c2.4,0,4.1,0.5,5.2,1.6C183.9,103.2,184.5,104.9,184.5,107.2z M177.1,111.1c0.5,0,1.2-0.2,2.3-0.7
				c-0.1-0.6-0.1-1.5-0.1-2.8v-2.2c-0.6-0.2-1.2-0.3-1.6-0.3c-0.9,0-1.5,0.2-1.8,0.7c-0.3,0.5-0.5,1.3-0.5,2.4
				C175.4,110.1,175.9,111.1,177.1,111.1z"/>
		</g>
		<g class="st0">
			<path d="M201.4,102.6c-0.9-0.1-1.5-0.2-2-0.2c-0.5,0-0.8,0.2-1,0.4c-0.2,0.3-0.3,0.9-0.3,1.7v0.8h2.7v1h-2.7v4.6h2.5l1.2-0.3
				l0.2,1l-1.3,0.3h-5.1V111h1.4v-4.6h-1.1v-1h1.1v-0.9c0-1.2,0.2-2.1,0.5-2.5c0.4-0.4,1-0.6,1.8-0.6c0.6,0,1.1,0.1,1.8,0.2l0.4,0.1
				L201.4,102.6z"/>
		</g>
		<g class="st0">
			<path d="M220.3,109c0,2.2-1.1,3.2-3.4,3.2h-0.2l-0.2,1.8c-0.5,0-0.8-0.1-0.8-0.1l0.2-1.8l-2.3-0.3l0.1-1c0.8,0.1,1.6,0.2,2.3,0.2
				l0.5-4c-1.1-0.3-1.9-0.6-2.3-1c-0.5-0.4-0.7-1.1-0.7-2c0-1.9,1.1-2.8,3.4-2.8c0.2,0,0.3,0,0.4,0l0.3-2.1h0.8l-0.3,2.1l2,0.2
				l-0.1,1c-0.7-0.1-1.4-0.2-2-0.2l-0.5,3.7c1,0.2,1.8,0.6,2.2,0.9C220.1,107.5,220.3,108.1,220.3,109z M214.7,104.1
				c0,0.6,0.1,1,0.4,1.2c0.3,0.2,0.8,0.5,1.6,0.6l0.5-3.6H217C215.5,102.4,214.7,103,214.7,104.1z M219.1,109c0-0.5-0.1-0.9-0.4-1.1
				c-0.3-0.2-0.7-0.4-1.4-0.6l-0.5,3.9h0C218.4,111.2,219.1,110.5,219.1,109z"/>
		</g>
		<g class="st0">
			<path d="M232.7,101.4c1.2,0,1.8,0.7,1.8,2.2c0,0.8-0.2,1.3-0.5,1.7c-0.3,0.4-0.7,0.6-1.3,0.6s-1-0.2-1.3-0.6
				c-0.3-0.4-0.5-0.9-0.5-1.7C231,102.1,231.5,101.4,232.7,101.4z M231.9,103.6c0,1,0.3,1.4,0.8,1.4s0.8-0.5,0.8-1.4
				c0-0.5-0.1-0.8-0.2-1.1c-0.1-0.2-0.3-0.3-0.6-0.3c-0.3,0-0.5,0.1-0.6,0.3C232,102.7,231.9,103.1,231.9,103.6z M233,112.1l3.3-11
				l0.8,0.3l-3.3,10.9L233,112.1z M235.5,110c0-1.5,0.6-2.2,1.8-2.2s1.8,0.7,1.8,2.2c0,0.7-0.2,1.3-0.5,1.7
				c-0.3,0.4-0.7,0.6-1.3,0.6s-1-0.2-1.3-0.6C235.7,111.3,235.5,110.7,235.5,110z M236.5,110c0,1,0.3,1.5,0.8,1.5
				c0.3,0,0.5-0.1,0.6-0.4c0.1-0.2,0.2-0.6,0.2-1.1c0-0.5-0.1-0.8-0.2-1.1c-0.1-0.2-0.3-0.3-0.6-0.3s-0.5,0.1-0.6,0.3
				C236.5,109.1,236.5,109.5,236.5,110z"/>
		</g>
		<g class="st0">
			<path d="M255.3,107l-2.3-4.3l-2.2,4.3h-1.3l3-5.5h1.1l3.1,5.5H255.3z"/>
		</g>
		<g class="st0">
			<path d="M269.7,101.5c0.5-0.4,1.2-0.6,2.1-0.6c0.9,0,1.6,0.2,2,0.6c0.5,0.4,0.7,1,0.7,1.8s-0.2,1.3-0.6,1.8
				c-0.4,0.4-1,0.9-1.9,1.3l2.4,2.4c0.2-0.7,0.4-1.5,0.4-2.6l1.2,0c-0.1,1.3-0.4,2.4-0.7,3.3l2.1,2l-0.7,0.8l-1.9-1.8
				c-0.7,1.2-1.9,1.8-3.3,1.8s-2.5-0.3-3.1-0.9c-0.6-0.6-0.9-1.4-0.9-2.4s0.2-1.8,0.6-2.2c0.4-0.5,1-0.9,1.9-1.1
				c-0.4-0.4-0.6-0.8-0.7-1.1c-0.1-0.3-0.2-0.7-0.2-1.2C269,102.5,269.2,101.9,269.7,101.5z M271.2,111.1c1.3,0,2.2-0.5,2.7-1.4
				l-3.4-3.4c-0.7,0.2-1.2,0.5-1.5,0.9c-0.3,0.4-0.4,0.9-0.4,1.6C268.6,110.4,269.5,111.1,271.2,111.1z M270.2,103.4
				c0,0.7,0.2,1.2,0.7,1.7l0.5,0.4c0.7-0.3,1.2-0.6,1.5-0.9s0.4-0.7,0.4-1.3c0-1-0.5-1.5-1.6-1.5
				C270.7,101.9,270.2,102.4,270.2,103.4z"/>
		</g>
		<g class="st0">
			<path d="M292.8,103.9h-2.1l0.7,2l-0.8,0.2l-0.7-2l-1.7,1.3l-0.5-0.6l1.7-1.3l-1.7-1.2l0.5-0.7l1.7,1.2l0.7-2l0.8,0.3l-0.6,2h2.1
				V103.9z"/>
		</g>
		<g class="st0">
			<path d="M305.2,114.1c-1.1-2.5-1.7-4.8-1.7-6.8c0-1,0.1-2.1,0.4-3.3c0.3-1.2,0.6-2.1,0.8-2.8l0.4-1h1.2c-0.4,1-0.7,2.2-1,3.6
				c-0.3,1.4-0.5,2.6-0.5,3.5s0.1,1.9,0.4,3.1s0.5,2,0.8,2.7l0.4,1H305.2z"/>
		</g>
		<g class="st0">
			<path d="M319.3,105.2c0.1,0.7,0.2,1.5,0.2,2.4s-0.1,1.8-0.4,3c-0.3,1.1-0.6,2-0.8,2.6l-0.4,0.9h-1.2c0.4-0.9,0.7-2,1-3.4
				c0.3-1.4,0.5-2.5,0.5-3.5s-0.1-2-0.4-3.2c-0.2-1.2-0.5-2.2-0.8-2.9l-0.4-1.1h1.2C318.5,101.7,319,103.4,319.3,105.2z"/>
		</g>
		<g class="st0">
			<path d="M0.2,44.5v-1.1h8v1.1H4.8v10H3.6v-10H0.2z"/>
			<path d="M9.6,44.7v-1.4h1.2v1.4H9.6z M9.6,54.5v-8h1.2v8H9.6z"/>
			<path d="M17.2,47.5h-2.5v3.8c0,0.9,0.1,1.5,0.2,1.8c0.1,0.3,0.5,0.4,1,0.4l1.4-0.1l0.1,1c-0.7,0.1-1.3,0.2-1.6,0.2
				c-0.8,0-1.4-0.2-1.7-0.6c-0.3-0.4-0.5-1.2-0.5-2.3v-4.2h-1.1v-1h1.1V44h1.2v2.4h2.5V47.5z"/>
			<path d="M18.7,44.7v-1.4h1.2v1.4H18.7z M18.7,54.5v-8h1.2v8H18.7z"/>
			<path d="M22.3,54.5V43h1.2v11.5H22.3z"/>
			<path d="M26,54.5V43h1.2v11.5H26z"/>
			<path d="M29.6,44.7v-1.4h1.2v1.4H29.6z M29.6,54.5v-8h1.2v8H29.6z"/>
			<path d="M38.1,46.5h1.2v8h-1.2v-0.6c-0.8,0.5-1.6,0.7-2.4,0.7c-1.1,0-1.8-0.3-2.2-0.8c-0.4-0.6-0.5-1.6-0.5-3.1v-4.2h1.2v4.2
				c0,1.2,0.1,1.9,0.3,2.3c0.2,0.4,0.7,0.6,1.4,0.6c0.4,0,0.7-0.1,1.1-0.2c0.4-0.1,0.6-0.2,0.8-0.3l0.3-0.1V46.5z"/>
			<path d="M42.8,54.5h-1.2v-8h1.2V47c0.8-0.5,1.6-0.7,2.3-0.7c1,0,1.7,0.3,2.1,0.8c0.4-0.2,0.8-0.4,1.4-0.6
				c0.6-0.2,1.1-0.2,1.5-0.2c1.1,0,1.8,0.3,2.2,0.9s0.6,1.6,0.6,3.1v4.2h-1.2v-4.2c0-1.1-0.1-1.9-0.3-2.3c-0.2-0.4-0.7-0.6-1.4-0.6
				c-0.4,0-0.7,0.1-1.1,0.2c-0.4,0.1-0.7,0.2-0.9,0.3L47.6,48c0.1,0.4,0.2,1.1,0.2,2.3v4.2h-1.2v-4.1c0-1.2-0.1-1.9-0.3-2.3
				c-0.2-0.4-0.7-0.6-1.4-0.6c-0.3,0-0.7,0.1-1,0.2c-0.4,0.1-0.6,0.2-0.8,0.3L42.8,48V54.5z"/>
		</g>
		<g class="st0">
			<path d="M59.9,50.2v4.2h-1.2V43.4h4.1c1.2,0,2.1,0.3,2.6,0.8s0.9,1.4,0.9,2.5c0,1.7-0.7,2.8-2,3.2l2.1,4.5h-1.4l-2-4.2H59.9z
				 M62.8,49.1c1.5,0,2.3-0.8,2.3-2.3c0-1.6-0.8-2.3-2.3-2.3h-2.9v4.7H62.8z"/>
		</g>
		<g class="st0">
			<path d="M73.6,53.5l0.5,0l0,0.9c-1.2,0.2-2.3,0.3-3.1,0.3c-1.2,0-2-0.3-2.4-1s-0.7-1.7-0.7-3.1c0-2.8,1.1-4.2,3.3-4.2
				c1.1,0,1.9,0.3,2.4,0.9c0.5,0.6,0.8,1.5,0.8,2.8L74.3,51h-5.3c0,0.9,0.2,1.5,0.5,2c0.3,0.4,0.9,0.6,1.7,0.6
				C72,53.6,72.8,53.5,73.6,53.5z M73.2,50c0-1-0.2-1.7-0.5-2.1c-0.3-0.4-0.8-0.6-1.5-0.6s-1.2,0.2-1.6,0.6S69,49.1,69,50H73.2z"/>
			<path d="M79.4,58.2c-1.3,0-2.2-0.2-2.7-0.5c-0.5-0.3-0.8-1-0.8-1.9c0-0.4,0.1-0.8,0.3-1.1c0.2-0.3,0.5-0.6,1-0.9
				c-0.3-0.2-0.4-0.6-0.4-1.1c0-0.2,0.1-0.5,0.4-1l0.1-0.3C76.4,51.1,76,50.3,76,49c0-1.8,1-2.7,3-2.7c0.5,0,1,0.1,1.4,0.2l0.2,0
				l2.4-0.1v1l-1.5,0c0.4,0.4,0.5,0.9,0.5,1.6c0,1-0.2,1.7-0.7,2.1c-0.5,0.4-1.3,0.6-2.3,0.6c-0.3,0-0.5,0-0.8-0.1
				c-0.2,0.5-0.3,0.8-0.3,0.9c0,0.3,0.1,0.5,0.3,0.6s0.8,0.1,1.8,0.1s1.8,0.2,2.2,0.5c0.4,0.3,0.7,0.9,0.7,1.9
				C82.9,57.4,81.7,58.2,79.4,58.2z M77.1,55.7c0,0.6,0.2,1,0.5,1.2c0.3,0.2,0.9,0.3,1.7,0.3c0.8,0,1.5-0.1,1.8-0.4
				c0.4-0.2,0.6-0.6,0.6-1.2c0-0.5-0.1-0.9-0.4-1.1s-0.8-0.2-1.6-0.2L78,54.3c-0.4,0.3-0.6,0.5-0.7,0.7
				C77.2,55.2,77.1,55.4,77.1,55.7z M77.2,49c0,0.6,0.1,1.1,0.4,1.3s0.7,0.4,1.4,0.4c0.7,0,1.1-0.1,1.4-0.4s0.4-0.7,0.4-1.4
				s-0.1-1.1-0.4-1.4s-0.7-0.4-1.4-0.4c-0.7,0-1.1,0.1-1.4,0.4C77.4,48,77.2,48.4,77.2,49z"/>
			<path d="M89.5,46.5h1.2v8h-1.2v-0.6c-0.8,0.5-1.6,0.7-2.4,0.7c-1.1,0-1.8-0.3-2.2-0.8c-0.4-0.6-0.5-1.6-0.5-3.1v-4.2h1.2v4.2
				c0,1.2,0.1,1.9,0.3,2.3c0.2,0.4,0.7,0.6,1.4,0.6c0.4,0,0.7-0.1,1.1-0.2c0.4-0.1,0.6-0.2,0.8-0.3l0.3-0.1V46.5z"/>
			<path d="M93.1,54.5V43h1.2v11.5H93.1z"/>
			<path d="M102.3,48.9V53c0,0.4,0.3,0.6,0.9,0.7l0,0.9c-0.8,0-1.5-0.2-1.9-0.6c-1,0.4-1.9,0.6-2.9,0.6c-0.7,0-1.3-0.2-1.7-0.6
				c-0.4-0.4-0.6-1-0.6-1.8s0.2-1.4,0.6-1.7c0.4-0.4,1-0.6,1.9-0.7l2.5-0.2v-0.7c0-0.5-0.1-0.9-0.4-1.2c-0.2-0.2-0.6-0.4-1-0.4
				c-0.9,0-1.7,0.1-2.7,0.2l-0.5,0l0-0.9c1.2-0.2,2.2-0.4,3.1-0.4c0.9,0,1.6,0.2,2,0.6S102.3,48,102.3,48.9z M97.4,52.1
				c0,1,0.4,1.5,1.2,1.5c0.7,0,1.4-0.1,2.1-0.4l0.4-0.1v-2.6l-2.4,0.2c-0.5,0-0.8,0.2-1,0.4S97.4,51.7,97.4,52.1z"/>
			<path d="M104.7,54.5v-8h1.2v1.1c0.9-0.6,1.9-1.1,2.9-1.3v1.2c-0.4,0.1-0.9,0.2-1.4,0.4c-0.5,0.2-0.9,0.3-1.1,0.5l-0.4,0.2v5.9
				H104.7z"/>
		</g>
	</g>
</g>
</svg>
