<?xml version="1.0" encoding="utf-8"?>
<!-- Generator: Adobe Illustrator 26.4.1, SVG Export Plug-In . SVG Version: 6.00 Build 0)  -->
<svg version="1.1" id="Layer_1" xmlns="http://www.w3.org/2000/svg" xmlns:xlink="http://www.w3.org/1999/xlink" x="0px" y="0px"
	 viewBox="0 0 327 117.1" style="enable-background:new 0 0 327 117.1;" xml:space="preserve">
<style type="text/css">
	.st0{enable-background:new    ;}
</style>
<g id="Layer_2_00000002375308534567018230000008812863917203537033_">
	<g id="Layer_1-2">
		<g class="st0">
			<path d="M0.5,23.5l4.3-19h7.3l4.3,19h-3.9l-0.8-3.4H5.1l-0.8,3.4H0.5z M7.8,7.7l-1.9,9H11l-1.9-9H7.8z"/>
		</g>
		<g class="st0">
			<path d="M28.6,13.9v5.8c0,0.4,0.1,0.8,0.2,0.9c0.1,0.2,0.3,0.3,0.7,0.4l-0.1,2.8c-1,0-1.7-0.1-2.3-0.2c-0.6-0.1-1.1-0.4-1.7-0.8
				c-1.3,0.7-2.7,1-4.1,1c-2.9,0-4.3-1.5-4.3-4.6c0-1.5,0.4-2.6,1.2-3.2c0.8-0.6,2-1,3.7-1.1l3-0.2v-0.9c0-0.6-0.1-1-0.4-1.2
				c-0.3-0.2-0.7-0.3-1.3-0.3L18,12.6L17.9,10c2-0.5,3.9-0.8,5.7-0.8c1.8,0,3.1,0.4,3.9,1.1C28.2,11.1,28.6,12.2,28.6,13.9z
				 M22.3,17.6c-1,0.1-1.6,0.7-1.6,1.7s0.5,1.5,1.4,1.5c0.7,0,1.5-0.1,2.3-0.3l0.4-0.1v-3L22.3,17.6z"/>
		</g>
		<g class="st0">
			<path d="M31.5,4.5H39c2,0,3.5,0.4,4.5,1.2c1,0.8,1.5,2.1,1.5,3.8c0,1.1-0.2,1.9-0.5,2.5s-0.9,1.2-1.6,1.7
				c0.8,0.4,1.5,0.9,1.9,1.5c0.4,0.7,0.6,1.6,0.6,2.8c0,1.8-0.5,3.2-1.6,4.1c-1.1,0.9-2.6,1.3-4.6,1.3h-7.6V4.5z M38.8,7.8h-3.4v4.5
				h3.4c1.5,0,2.2-0.8,2.2-2.3C41,8.5,40.3,7.8,38.8,7.8z M38.9,15.6h-3.5v4.6h3.5c0.8,0,1.5-0.2,1.9-0.5c0.4-0.3,0.6-1,0.6-1.8
				C41.4,16.3,40.6,15.6,38.9,15.6z"/>
		</g>
		<g class="st0">
			<path d="M54.1,9.2c2,0,3.4,0.5,4.3,1.6c0.9,1.1,1.4,3,1.4,5.8s-0.5,4.7-1.6,5.7c-1,1.1-2.8,1.6-5.4,1.6c-0.8,0-2.3-0.1-4.4-0.3
				l-1.1-0.1V3.9h3.8v6C52.3,9.4,53.3,9.2,54.1,9.2z M52.8,20.5c1.3,0,2.1-0.3,2.5-0.9c0.4-0.6,0.6-1.7,0.6-3.3
				c0-2.5-0.8-3.8-2.4-3.8c-0.7,0-1.5,0.1-2.1,0.3l-0.4,0.1v7.5C52,20.5,52.5,20.5,52.8,20.5z"/>
		</g>
		<g class="st0">
			<path d="M74.2,23.2c-2,0.4-3.8,0.6-5.3,0.6c-1.6,0-2.9-0.2-3.8-0.6c-1-0.4-1.7-1-2.2-1.9c-0.5-0.9-0.9-1.9-1.1-3
				c-0.2-1.2-0.3-2.6-0.3-4.4c0-3.7,0.5-6.2,1.6-7.7c1-1.4,2.9-2.2,5.7-2.2c1.6,0,3.5,0.3,5.6,0.8L74.2,8c-1.8-0.3-3.4-0.4-4.6-0.4
				c-1.2,0-2.1,0.2-2.6,0.5C66.4,8.4,66,9,65.8,9.9c-0.3,0.9-0.4,2.5-0.4,4.7c0,2.2,0.3,3.7,0.8,4.6c0.5,0.8,1.5,1.3,3.1,1.3
				s3.2-0.1,4.9-0.4L74.2,23.2z"/>
		</g>
		<g class="st0">
			<path d="M81.3,9.2c1,0,2.2,0.1,3.7,0.4l0.8,0.2l-0.1,3c-1.5-0.1-2.6-0.2-3.3-0.2c-1.3,0-2.1,0.3-2.6,0.8
				c-0.4,0.6-0.6,1.6-0.6,3.1c0,1.5,0.2,2.6,0.6,3.2s1.3,0.9,2.6,0.9l3.2-0.2l0.1,3c-2,0.4-3.5,0.6-4.6,0.6c-2.1,0-3.6-0.6-4.5-1.8
				c-0.9-1.2-1.4-3-1.4-5.6c0-2.6,0.5-4.4,1.4-5.6C77.7,9.8,79.2,9.2,81.3,9.2z"/>
		</g>
		<g class="st0">
			<path d="M94.3,23.5h-6.4v-19h6.4c1.6,0,3,0.2,4.1,0.5c1.1,0.3,1.9,0.9,2.5,1.7c0.6,0.8,1,1.7,1.2,2.8c0.2,1.1,0.3,2.5,0.3,4.2
				c0,1.7-0.1,3.1-0.3,4.3c-0.2,1.1-0.6,2.1-1.2,3c-0.6,0.9-1.4,1.5-2.5,1.9S96,23.5,94.3,23.5z M98.3,16c0-0.6,0.1-1.4,0.1-2.5
				s0-1.9-0.1-2.5c-0.1-0.6-0.3-1.2-0.5-1.7c-0.3-0.5-0.7-0.9-1.2-1.1c-0.6-0.2-1.3-0.3-2.2-0.3h-2.5v12.3h2.5
				c1.4,0,2.4-0.4,3.1-1.1C97.9,18.5,98.2,17.5,98.3,16z"/>
		</g>
		<g class="st0">
			<path d="M116.5,3.9v19.6h-3.7v-0.6c-1.3,0.6-2.4,0.9-3.4,0.9c-2,0-3.5-0.6-4.3-1.8c-0.8-1.2-1.2-3-1.2-5.6s0.5-4.4,1.4-5.6
				c1-1.2,2.4-1.8,4.4-1.8c0.6,0,1.4,0.1,2.5,0.3l0.5,0.1V3.9H116.5z M112.4,20.2l0.4-0.1v-7.4c-1-0.2-1.9-0.3-2.7-0.3
				c-1.5,0-2.3,1.3-2.3,4c0,1.5,0.2,2.5,0.5,3.1s0.9,0.9,1.7,0.9C110.7,20.5,111.5,20.4,112.4,20.2z"/>
		</g>
		<g class="st0">
			<path d="M138.6,16.1L141,5.2h4.2l2.4,10.9h-2.2l-0.4-2h-3.8l-0.4,2H138.6z M142.8,7.1l-1.1,5.2h3l-1.1-5.2H142.8z"/>
		</g>
		<g class="st0">
			<path d="M156.3,5.2h4.3c1.1,0,2,0.2,2.5,0.7c0.6,0.5,0.8,1.2,0.8,2.2c0,0.6-0.1,1.1-0.3,1.4c-0.2,0.4-0.5,0.7-0.9,1
				c0.5,0.2,0.8,0.5,1.1,0.9s0.3,0.9,0.3,1.6c0,1.1-0.3,1.8-0.9,2.4c-0.6,0.5-1.5,0.8-2.6,0.8h-4.3V5.2z M160.5,7.1h-2v2.6h2
				c0.8,0,1.2-0.4,1.2-1.3C161.8,7.6,161.4,7.1,160.5,7.1z M160.6,11.6h-2v2.7h2c0.5,0,0.8-0.1,1.1-0.3c0.2-0.2,0.3-0.5,0.3-1.1
				C162,12,161.5,11.6,160.6,11.6z"/>
		</g>
		<g class="st0">
			<path d="M180.2,15.9c-1.1,0.2-2.1,0.4-3.1,0.4c-0.9,0-1.6-0.1-2.2-0.3c-0.5-0.2-1-0.6-1.3-1.1s-0.5-1.1-0.6-1.7
				c-0.1-0.7-0.2-1.5-0.2-2.5c0-2.1,0.3-3.6,0.9-4.4c0.6-0.8,1.7-1.2,3.3-1.2c0.9,0,2,0.1,3.2,0.4l-0.1,1.8
				c-1.1-0.2-1.9-0.2-2.6-0.2c-0.7,0-1.2,0.1-1.5,0.3s-0.5,0.5-0.7,1.1c-0.1,0.5-0.2,1.4-0.2,2.7c0,1.3,0.1,2.1,0.4,2.6
				c0.3,0.5,0.9,0.7,1.8,0.7s1.8-0.1,2.8-0.2L180.2,15.9z"/>
		</g>
		<g class="st0">
			<path d="M192.9,16.1h-3.7V5.2h3.7c0.9,0,1.7,0.1,2.3,0.3c0.6,0.2,1.1,0.5,1.4,1c0.3,0.5,0.6,1,0.7,1.6s0.2,1.4,0.2,2.4
				s-0.1,1.8-0.2,2.4s-0.3,1.2-0.7,1.7c-0.3,0.5-0.8,0.9-1.4,1.1C194.6,16,193.8,16.1,192.9,16.1z M195.2,11.8c0-0.3,0-0.8,0-1.4
				c0-0.6,0-1.1-0.1-1.4c0-0.4-0.1-0.7-0.3-1c-0.2-0.3-0.4-0.5-0.7-0.6s-0.7-0.2-1.3-0.2h-1.5v7h1.5c0.8,0,1.4-0.2,1.7-0.6
				C194.9,13.3,195.1,12.7,195.2,11.8z"/>
		</g>
		<g class="st0">
			<path d="M206.6,16.1V5.2h7v1.9h-4.8v2.5h3.9v1.9h-3.9v2.6h4.8v1.9H206.6z"/>
		</g>
		<g class="st0">
			<path d="M222.7,16.1V5.2h6.9v1.9h-4.7v3.2h3.9v1.9h-3.9v3.8H222.7z"/>
		</g>
		<g class="st0">
			<path d="M242.9,12.2v-1.9h3.2v5.6c-1.5,0.2-2.8,0.4-3.7,0.4c-1.7,0-2.9-0.5-3.5-1.4s-1-2.3-1-4.3c0-2,0.3-3.4,1-4.3
				c0.7-0.9,1.8-1.3,3.4-1.3c1,0,2.1,0.1,3.2,0.3l0.6,0.1L246,7.2c-1.3-0.1-2.3-0.2-3.1-0.2c-0.8,0-1.4,0.1-1.7,0.3
				c-0.3,0.2-0.6,0.5-0.7,1.1c-0.2,0.5-0.2,1.4-0.2,2.7c0,1.3,0.2,2.1,0.5,2.6c0.3,0.5,0.9,0.8,1.9,0.8l1.3-0.1v-2.1H242.9z"/>
		</g>
		<g class="st0">
			<path d="M261.6,16.1v-4.5h-4v4.5h-2.2V5.2h2.2v4.4h4V5.2h2.2v10.9H261.6z"/>
		</g>
		<g class="st0">
			<path d="M273.4,16.1V5.2h2.2v10.9H273.4z"/>
		</g>
		<g class="st0">
			<path d="M284.3,17.2v-1.9c0.4,0,0.7-0.1,0.9-0.2c0.2-0.2,0.3-0.5,0.3-0.9V5.2h2.2l0,9c0,1.2-0.3,1.9-0.8,2.4
				S285.6,17.2,284.3,17.2z"/>
		</g>
		<g class="st0">
			<path d="M299.5,16.1h-2.2V5.2h2.2V10l1.5-0.2l1.8-4.6h2.5l-2.4,5.5l2.4,5.4h-2.5l-1.8-4.3l-1.5,0.2V16.1z"/>
		</g>
		<g class="st0">
			<path d="M320.1,16.1H314V5.2h2.2v8.9h4V16.1z"/>
		</g>
		<g class="st0">
			<path d="M139.5,35.3V24.4h3.8l1.9,7.9l1.9-7.9h3.8v10.9h-2.2v-8.4h-0.2l-2.1,7.9h-2.2l-2.1-7.9h-0.2v8.4H139.5z"/>
		</g>
		<g class="st0">
			<path d="M159.7,35.3V24.4h3.7l2.6,9h0.2v-9h2.2v10.9h-3.6l-2.7-9h-0.2v9H159.7z"/>
		</g>
		<g class="st0">
			<path d="M184.8,34.2c-0.7,0.9-1.8,1.4-3.5,1.4s-2.8-0.5-3.5-1.4s-1-2.3-1-4.2s0.3-3.3,1-4.3s1.8-1.4,3.5-1.4s2.8,0.5,3.5,1.4
				c0.7,0.9,1,2.4,1,4.3S185.5,33.3,184.8,34.2z M179.6,32.8c0.3,0.6,0.9,0.8,1.8,0.8s1.5-0.3,1.8-0.8c0.3-0.6,0.5-1.5,0.5-2.8
				s-0.2-2.3-0.5-2.9s-0.9-0.9-1.8-0.9s-1.4,0.3-1.8,0.9c-0.3,0.6-0.5,1.6-0.5,2.9S179.2,32.2,179.6,32.8z"/>
		</g>
		<g class="st0">
			<path d="M198.2,32.2h-1.8v3.2h-2.2V24.4h4c2.6,0,3.9,1.3,3.9,3.8c0,1.3-0.3,2.2-1,2.9C200.4,31.8,199.5,32.2,198.2,32.2z
				 M196.4,30.3h1.8c1.1,0,1.6-0.7,1.6-2c0-0.7-0.1-1.2-0.4-1.4c-0.3-0.3-0.7-0.4-1.2-0.4h-1.8V30.3z"/>
		</g>
		<g class="st0">
			<path d="M214.2,35.5c-1.7,0-2.8-0.4-3.5-1.3c-0.7-0.9-1-2.3-1-4.2c0-1.9,0.3-3.4,1-4.3s1.8-1.4,3.5-1.4s2.8,0.5,3.5,1.4
				c0.7,0.9,1,2.4,1,4.3c0,2.4-0.6,4-1.7,4.8l1.3,2.1l-2,0.9l-1.4-2.4C214.8,35.5,214.5,35.5,214.2,35.5z M212.4,32.8
				c0.3,0.6,0.9,0.8,1.8,0.8s1.5-0.3,1.8-0.8s0.5-1.5,0.5-2.8s-0.2-2.3-0.5-2.9s-0.9-0.9-1.8-0.9s-1.4,0.3-1.8,0.9
				c-0.3,0.6-0.5,1.6-0.5,2.9S212.1,32.2,212.4,32.8z"/>
		</g>
		<g class="st0">
			<path d="M229.2,31.7v3.6H227V24.4h4.2c2.6,0,3.8,1.2,3.8,3.6c0,1.4-0.5,2.5-1.6,3.1l1.6,4.2h-2.4l-1.3-3.6H229.2z M232.5,29.3
				c0.3-0.3,0.4-0.7,0.4-1.3c0-0.5-0.1-0.9-0.4-1.2c-0.3-0.3-0.7-0.5-1.2-0.5h-2v3.5h2C231.8,29.8,232.2,29.6,232.5,29.3z"/>
		</g>
		<g class="st0">
			<path d="M246.8,26.2c-1.2,0-1.7,0.4-1.7,1.2c0,0.3,0.1,0.6,0.4,0.8s1,0.4,2,0.8c1.1,0.3,1.8,0.7,2.2,1.2c0.4,0.4,0.6,1.1,0.6,2
				c0,1.1-0.3,2-1,2.6c-0.7,0.6-1.6,0.9-2.7,0.9c-0.8,0-1.9-0.1-3.1-0.4L243,35l0.2-1.7c1.4,0.2,2.5,0.3,3.3,0.3
				c1.1,0,1.7-0.5,1.7-1.4c0-0.3-0.1-0.6-0.4-0.8c-0.3-0.2-0.8-0.4-1.6-0.6c-1.2-0.4-2.1-0.8-2.6-1.3c-0.5-0.5-0.8-1.2-0.8-2
				c0-1.1,0.3-1.9,1-2.4c0.7-0.5,1.6-0.8,2.7-0.8c0.8,0,1.8,0.1,3,0.3l0.6,0.1l-0.2,1.7C248.5,26.3,247.4,26.2,246.8,26.2z"/>
		</g>
		<g class="st0">
			<path d="M257.7,26.4v-2h8v2h-2.9v8.9h-2.2v-8.9H257.7z"/>
		</g>
		<g class="st0">
			<path d="M275.7,31.7c0,1.3,0.6,1.9,1.9,1.9c1.3,0,1.9-0.6,1.9-1.9v-7.2h2.2v7.2c0,1.3-0.3,2.3-1,2.9s-1.7,0.9-3.1,0.9
				s-2.4-0.3-3.1-0.9c-0.7-0.6-1-1.6-1-2.9v-7.2h2.2V31.7z"/>
		</g>
		<g class="st0">
			<path d="M296.4,24.4h2.3l-2.5,10.9h-4.1l-2.5-10.9h2.3l1.9,9h0.7L296.4,24.4z"/>
		</g>
		<g class="st0">
			<path d="M305.7,24.4h2.3l1.3,9h0.2l2-9h2.6l2,9h0.2l1.3-9h2.3l-2.1,10.9h-3.3l-1.7-8.3l-1.7,8.3h-3.3L305.7,24.4z"/>
		</g>
		<g class="st0">
			<path d="M140.9,43.6l2,4l2.1-4h2.3l-3.1,5.6l3.1,5.3h-2.4l-2-3.8l-2.1,3.8h-2.3l3.1-5.2l-3.1-5.7H140.9z"/>
		</g>
		<g class="st0">
			<path d="M159.9,54.5h-2.2v-4.4l-3.4-6.5h2.4l2,4.3l2-4.3h2.4l-3.3,6.5V54.5z"/>
		</g>
		<g class="st0">
			<path d="M170.8,45.6v-1.9h7.2v1.9l-4.5,6.8v0.3h4.5v1.9h-7.2v-1.9l4.5-6.8v-0.3H170.8z"/>
		</g>
		<g class="st0">
			<path d="M192.8,49v3.3c0,0.3,0.1,0.4,0.1,0.5c0.1,0.1,0.2,0.2,0.4,0.2l-0.1,1.6c-0.5,0-1,0-1.3-0.1c-0.3-0.1-0.7-0.2-1-0.4
				c-0.8,0.4-1.6,0.6-2.4,0.6c-1.7,0-2.5-0.9-2.5-2.6c0-0.9,0.2-1.5,0.7-1.8c0.5-0.4,1.2-0.6,2.1-0.6l1.7-0.1V49
				c0-0.3-0.1-0.6-0.2-0.7c-0.1-0.1-0.4-0.2-0.7-0.2l-3,0.1l-0.1-1.5c1.1-0.3,2.2-0.5,3.3-0.5s1.8,0.2,2.2,0.6
				C192.5,47.4,192.8,48.1,192.8,49z M189.2,51.1c-0.6,0.1-0.9,0.4-0.9,1c0,0.6,0.3,0.9,0.8,0.9c0.4,0,0.8-0.1,1.3-0.2l0.2-0.1V51
				L189.2,51.1z"/>
		</g>
		<g class="st0">
			<path d="M205.6,46.3c1.1,0,1.9,0.3,2.5,0.9c0.5,0.6,0.8,1.7,0.8,3.3c0,1.6-0.3,2.7-0.9,3.3s-1.6,0.9-3.1,0.9
				c-0.5,0-1.3-0.1-2.5-0.2l-0.6-0.1V43.3h2.1v3.4C204.6,46.5,205.1,46.3,205.6,46.3z M204.8,52.8c0.7,0,1.2-0.2,1.4-0.5
				c0.2-0.3,0.4-1,0.4-1.9c0-1.4-0.4-2.2-1.3-2.2c-0.4,0-0.8,0.1-1.2,0.2l-0.2,0v4.3C204.4,52.8,204.7,52.8,204.8,52.8z"/>
		</g>
		<g class="st0">
			<path d="M220.4,46.3c0.6,0,1.3,0.1,2.1,0.3l0.4,0.1l-0.1,1.7c-0.8-0.1-1.5-0.1-1.9-0.1c-0.7,0-1.2,0.2-1.5,0.5s-0.4,0.9-0.4,1.8
				c0,0.9,0.1,1.5,0.4,1.8s0.7,0.5,1.5,0.5l1.9-0.1l0.1,1.7c-1.1,0.2-2,0.3-2.6,0.3c-1.2,0-2-0.3-2.6-1c-0.5-0.7-0.8-1.7-0.8-3.2
				c0-1.5,0.3-2.5,0.8-3.2C218.3,46.7,219.2,46.3,220.4,46.3z"/>
		</g>
		<g class="st0">
			<path d="M238.2,43.3v11.2h-2.1v-0.3c-0.7,0.4-1.4,0.5-1.9,0.5c-1.2,0-2-0.3-2.4-1c-0.5-0.7-0.7-1.7-0.7-3.2s0.3-2.5,0.8-3.2
				c0.5-0.7,1.4-1,2.5-1c0.3,0,0.8,0.1,1.4,0.2l0.3,0.1v-3.2H238.2z M235.9,52.6l0.2,0v-4.2c-0.6-0.1-1.1-0.2-1.6-0.2
				c-0.9,0-1.3,0.8-1.3,2.3c0,0.8,0.1,1.4,0.3,1.8c0.2,0.4,0.5,0.5,1,0.5S235.4,52.7,235.9,52.6z"/>
		</g>
		<g class="st0">
			<path d="M249.3,52.5c0.3,0.2,0.6,0.3,1.1,0.3c1,0,1.9,0,2.7-0.1l0.4,0l0,1.6c-1.2,0.3-2.3,0.4-3.3,0.4c-1.2,0-2.1-0.3-2.6-1
				c-0.5-0.6-0.8-1.7-0.8-3.1c0-2.9,1.2-4.3,3.5-4.3c2.3,0,3.5,1.2,3.5,3.6l-0.2,1.5h-4.7C248.9,51.9,249,52.3,249.3,52.5z
				 M251.6,49.8c0-0.6-0.1-1.1-0.3-1.3c-0.2-0.3-0.6-0.4-1.1-0.4s-0.9,0.1-1.1,0.4c-0.2,0.3-0.3,0.7-0.3,1.3H251.6z"/>
		</g>
		<g class="st0">
			<path d="M264.8,48.3v6.2h-2.1v-6.2h-0.9v-1.8h0.9v-0.4c0-1.2,0.2-1.9,0.5-2.4c0.3-0.4,0.9-0.7,1.8-0.7c0.4,0,0.9,0.1,1.5,0.2
				l0.3,0l0,1.7c-0.5,0-0.9,0-1.2,0s-0.5,0.1-0.6,0.3c-0.1,0.2-0.2,0.5-0.2,0.9v0.3h1.9v1.8H264.8z"/>
		</g>
		<g class="st0">
			<path d="M282.1,55.5c0,0.9-0.4,1.6-1.1,2c-0.7,0.4-1.7,0.7-2.9,0.7s-2.1-0.2-2.8-0.5c-0.6-0.3-1-0.9-1-1.7c0-0.7,0.4-1.3,1.2-1.9
				c-0.4-0.3-0.6-0.7-0.6-1.2c0-0.2,0.2-0.6,0.5-1.1l0.1-0.2c-0.7-0.5-1.1-1.3-1.1-2.3s0.3-1.8,0.9-2.2c0.6-0.5,1.4-0.7,2.4-0.7
				c0.5,0,0.9,0.1,1.4,0.2l0.3,0l2.6-0.1v1.7l-1.2-0.1c0.2,0.4,0.4,0.7,0.4,1.1c0,1.1-0.3,1.8-0.8,2.2s-1.4,0.6-2.6,0.6
				c-0.2,0-0.5,0-0.7-0.1c-0.1,0.3-0.2,0.5-0.2,0.7c0,0.2,0.1,0.3,0.3,0.4c0.2,0.1,0.6,0.1,1.3,0.1c1.3,0,2.3,0.2,2.8,0.5
				C281.9,54,282.1,54.6,282.1,55.5z M276.6,55.8c0,0.5,0.6,0.7,1.7,0.7c1.1,0,1.7-0.3,1.7-0.8c0-0.3-0.1-0.5-0.3-0.6
				c-0.2-0.1-0.6-0.1-1.2-0.1l-1.4-0.1C276.7,55.1,276.6,55.4,276.6,55.8z M276.7,49.2c0,0.8,0.4,1.2,1.2,1.2c0.8,0,1.2-0.4,1.2-1.2
				c0-0.8-0.4-1.2-1.2-1.2C277.1,48,276.7,48.4,276.7,49.2z"/>
		</g>
		<g class="st0">
			<path d="M292.5,54.5h-2.1V43.3h2.1v3.6c0.7-0.4,1.4-0.6,2-0.6c1.1,0,1.8,0.3,2.2,0.9c0.4,0.6,0.6,1.6,0.6,2.9v4.3h-2.1v-4.3
				c0-0.7-0.1-1.2-0.2-1.5c-0.2-0.3-0.5-0.5-1-0.5c-0.4,0-0.8,0.1-1.2,0.2l-0.2,0.1V54.5z"/>
		</g>
		<g class="st0">
			<path d="M306.1,45.5v-2.2h2.1v2.2H306.1z M306.1,54.5v-8h2.1v8H306.1z"/>
		</g>
		<g class="st0">
			<path d="M317.2,54.1v-7.6h2.1v7.6c0,1.1-0.2,1.9-0.6,2.4c-0.4,0.5-1.1,1.1-2.3,1.6l-0.8-1.6c0.5-0.3,0.8-0.6,1-0.8
				c0.2-0.2,0.3-0.4,0.4-0.6C317.1,55,317.2,54.6,317.2,54.1z M317.2,45.5v-2.2h2.1v2.2H317.2z"/>
		</g>
		<g class="st0">
			<path d="M141.5,73.7h-2.1V62.5h2.1v6.4l0.8-0.1l1.6-3h2.4l-2.1,3.8l2.2,4.2H144l-1.6-3.1l-0.9,0.1V73.7z"/>
		</g>
		<g class="st0">
			<path d="M153.7,73.7V62.5h2.1v11.2H153.7z"/>
		</g>
		<g class="st0">
			<path d="M166.1,73.7H164v-8h2.1v0.4c0.7-0.4,1.4-0.6,1.9-0.6c0.9,0,1.5,0.3,2,0.8c1-0.5,1.9-0.8,2.7-0.8c1.1,0,1.8,0.3,2.2,0.9
				c0.4,0.6,0.6,1.6,0.6,2.9v4.3h-2.1v-4.3c0-0.7-0.1-1.2-0.2-1.5s-0.4-0.5-0.9-0.5c-0.3,0-0.8,0.1-1.2,0.2l-0.2,0.1
				c0,0.8,0.1,1.4,0.1,1.8v4.1h-2.1v-4.1c0-0.8-0.1-1.3-0.2-1.7s-0.4-0.5-0.9-0.5c-0.4,0-0.8,0.1-1.2,0.2l-0.2,0.1V73.7z"/>
		</g>
		<g class="st0">
			<path d="M185.6,73.7h-2.1v-8h2.1v0.4c0.7-0.4,1.4-0.6,2-0.6c1.1,0,1.8,0.3,2.2,0.9c0.4,0.6,0.6,1.6,0.6,2.9v4.3h-2.1v-4.3
				c0-0.7-0.1-1.2-0.2-1.5c-0.2-0.3-0.5-0.5-1-0.5c-0.4,0-0.9,0.1-1.3,0.2l-0.2,0.1V73.7z"/>
		</g>
		<g class="st0">
			<path d="M198.8,66.6c0.6-0.7,1.5-1.1,2.8-1.1c1.3,0,2.3,0.4,2.8,1.1s0.8,1.8,0.8,3.1c0,2.8-1.2,4.2-3.7,4.2s-3.7-1.4-3.7-4.2
				C198,68.4,198.3,67.4,198.8,66.6z M200.5,71.5c0.2,0.4,0.6,0.6,1.2,0.6s1-0.2,1.2-0.6s0.3-1,0.3-1.8s-0.1-1.4-0.3-1.8
				c-0.2-0.4-0.6-0.6-1.2-0.6s-1,0.2-1.2,0.6c-0.2,0.4-0.3,1-0.3,1.8S200.3,71.1,200.5,71.5z"/>
		</g>
		<g class="st0">
			<path d="M213,77.1V65.7h2.1v0.4c0.7-0.4,1.3-0.6,1.8-0.6c1.1,0,1.9,0.3,2.4,1c0.5,0.6,0.8,1.7,0.8,3.3c0,1.5-0.3,2.6-0.8,3.2
				s-1.5,0.9-2.8,0.9c-0.4,0-0.7,0-1.1-0.1l-0.2,0v3.3H213z M216.5,67.4c-0.4,0-0.8,0.1-1.2,0.2l-0.2,0.1V72
				c0.5,0.1,0.9,0.1,1.2,0.1c0.6,0,1-0.2,1.3-0.5c0.2-0.4,0.3-1,0.3-1.9C217.9,68.2,217.4,67.4,216.5,67.4z"/>
		</g>
		<g class="st0">
			<path d="M230.6,73.9c-1.1,0-1.9-0.3-2.4-0.9c-0.5-0.6-0.8-1.7-0.8-3.3s0.3-2.7,0.9-3.3s1.6-0.9,3.1-0.9c0.7,0,1.5,0.1,2.5,0.2
				l0.6,0v11.3h-2.1v-3.6C231.6,73.8,231,73.9,230.6,73.9z M231.3,67.4c-0.7,0-1.2,0.2-1.4,0.6c-0.2,0.4-0.4,1-0.4,1.9
				c0,1.4,0.5,2.2,1.4,2.2c0.4,0,0.8-0.1,1.2-0.2l0.2,0v-4.3C231.9,67.4,231.6,67.4,231.3,67.4z"/>
		</g>
		<g class="st0">
			<path d="M242.5,73.7v-8h2.1v0.8c0.9-0.5,1.7-0.9,2.6-1v2.2c-0.9,0.2-1.6,0.4-2.2,0.6l-0.3,0.1v5.4H242.5z"/>
		</g>
		<g class="st0">
			<path d="M260.3,67.7c-1.3-0.2-2.2-0.3-2.8-0.3c-0.5,0-0.9,0-1,0.1c-0.2,0.1-0.2,0.2-0.2,0.5s0.1,0.4,0.3,0.4s0.7,0.2,1.6,0.4
				c0.9,0.2,1.5,0.4,1.8,0.8c0.4,0.4,0.5,0.9,0.5,1.7c0,1.7-1.1,2.6-3.2,2.6c-0.7,0-1.6-0.1-2.6-0.3l-0.5-0.1l0.1-1.8
				c1.3,0.2,2.2,0.3,2.8,0.3s0.9-0.1,1.1-0.2s0.3-0.3,0.3-0.5c0-0.2-0.1-0.4-0.3-0.4s-0.7-0.2-1.5-0.4c-0.8-0.1-1.4-0.4-1.8-0.7
				c-0.4-0.3-0.6-0.9-0.6-1.8c0-0.8,0.3-1.5,0.9-1.9c0.6-0.4,1.3-0.6,2.2-0.6c0.6,0,1.5,0.1,2.6,0.3l0.5,0.1L260.3,67.7z"/>
		</g>
		<g class="st0">
			<path d="M272.6,67.5h-2v3.3c0,0.3,0,0.5,0,0.7c0,0.1,0.1,0.2,0.2,0.3c0.1,0.1,0.3,0.1,0.5,0.1l1.2,0l0.1,1.7
				c-0.7,0.2-1.3,0.2-1.6,0.2c-1,0-1.6-0.2-2-0.6c-0.4-0.4-0.5-1.2-0.5-2.4v-3.3h-0.9v-1.8h0.9v-2.2h2.1v2.2h2V67.5z"/>
		</g>
		<g class="st0">
			<path d="M284.7,65.7h2.1v8h-2.1v-0.4c-0.8,0.4-1.4,0.6-2,0.6c-1.1,0-1.9-0.3-2.2-0.9s-0.6-1.6-0.6-3.1v-4.2h2.1v4.2
				c0,0.8,0.1,1.3,0.2,1.6s0.4,0.4,0.9,0.4c0.5,0,0.9-0.1,1.3-0.2l0.2-0.1V65.7z"/>
		</g>
		<g class="st0">
			<path d="M294.2,65.7h2.2l1.3,6.2h0.4l1.3-6.2h2.2l-1.9,8h-3.6L294.2,65.7z"/>
		</g>
		<g class="st0">
			<path d="M308.4,65.7h2.1l1,6.2h0.4l1.2-6h2.2l1.2,6h0.4l1-6.2h2.1l-1.5,8h-3.4l-0.9-4.9l-0.9,4.9h-3.4L308.4,65.7z"/>
		</g>
		<g class="st0">
			<path d="M138.5,84.9h2.3l1.3,2.5l1.3-2.5h2.3l-2.3,3.9l2.3,4.1h-2.3l-1.3-2.4l-1.3,2.4h-2.3l2.2-4L138.5,84.9z"/>
		</g>
		<g class="st0">
			<path d="M153.3,84.9h2.1l1.5,6.2h0.4l1.5-6.2h2.1L158,96.3h-2.1l0.9-3.4h-1.5L153.3,84.9z"/>
		</g>
		<g class="st0">
			<path d="M168.8,86.8v-1.9h5.9v1.9l-3.4,4.2h3.4v1.9h-5.9V91l3.4-4.2H168.8z"/>
		</g>
		<g class="st0">
			<path d="M189.3,82.4v10.6h-2.2v-8.1l-2.3,1.5l-1-1.6l3.5-2.3H189.3z"/>
		</g>
		<g class="st0">
			<path d="M206.6,92.9h-6.8V91l2.3-2.3c0.8-0.8,1.4-1.5,1.7-1.9s0.5-0.9,0.5-1.4s-0.1-0.8-0.4-1c-0.3-0.2-0.6-0.3-1.1-0.3
				c-0.7,0-1.5,0.1-2.3,0.2l-0.4,0l-0.1-1.7c1-0.3,2.1-0.5,3.2-0.5c2.2,0,3.4,1,3.4,3c0,0.8-0.2,1.5-0.5,2c-0.3,0.6-1,1.3-1.9,2.1
				l-1.8,1.7h4.4V92.9z"/>
		</g>
		<g class="st0">
			<path d="M215.8,82.7c1-0.4,2.1-0.6,3.3-0.6s2.1,0.2,2.6,0.7c0.6,0.5,0.8,1.2,0.8,2.2c0,1-0.4,1.8-1.2,2.4
				c0.5,0.3,0.9,0.6,1.1,0.9c0.2,0.3,0.3,0.8,0.3,1.4c0,1.1-0.3,2-0.9,2.5c-0.6,0.6-1.5,0.8-2.7,0.8c-0.9,0-1.9-0.1-2.9-0.4
				l-0.5-0.1l0.1-1.7c1.2,0.2,2.2,0.3,3,0.3c1.1,0,1.6-0.5,1.6-1.4c0-0.4-0.1-0.7-0.4-0.9c-0.3-0.2-0.7-0.4-1.1-0.4h-2.1v-1.8h2.1
				c0.4,0,0.7-0.1,0.9-0.4c0.3-0.3,0.4-0.6,0.4-1c0-0.8-0.5-1.1-1.6-1.1c-0.7,0-1.5,0.1-2.4,0.2l-0.4,0.1L215.8,82.7z"/>
		</g>
		<g class="st0">
			<path d="M236,92.9v-1.7h-4.5v-1.7l2.6-7.1h2.4l-2.8,6.9h2.3v-3h2.2v3h1v1.9h-1v1.7H236z"/>
		</g>
		<g class="st0">
			<path d="M254.8,82.4v1.9h-4.7l-0.3,2.3c0.7-0.3,1.3-0.4,1.9-0.4c2.3,0,3.4,1.1,3.4,3.2c0,1.2-0.3,2.1-0.9,2.8
				c-0.6,0.7-1.5,1-2.7,1c-0.5,0-1,0-1.7-0.1s-1.1-0.2-1.5-0.3l-0.6-0.1l0.2-1.6c1.3,0.2,2.4,0.3,3.2,0.3c0.5,0,0.9-0.1,1.2-0.4
				c0.3-0.3,0.4-0.7,0.4-1.2s-0.1-0.9-0.4-1.1s-0.6-0.4-1-0.4c-0.7,0-1.3,0.1-1.9,0.2l-0.2,0.1l-1.3-0.3l0.3-5.7H254.8z"/>
		</g>
		<g class="st0">
			<path d="M271,84.3c-1.1-0.2-2-0.2-2.8-0.2c-1.5,0-2.3,0.8-2.3,2.5l0.3-0.1c0.7-0.2,1.3-0.3,1.7-0.3c1.2,0,2.1,0.3,2.7,0.8
				c0.6,0.6,0.9,1.4,0.9,2.6s-0.3,2.1-1,2.6c-0.7,0.6-1.7,0.9-3,0.9c-1.3,0-2.3-0.5-2.9-1.4c-0.7-0.9-1-2.3-1-4.2
				c0-1.8,0.4-3.2,1.1-4.1c0.8-0.9,1.8-1.3,3.3-1.3c0.8,0,1.7,0.1,2.7,0.4l0.5,0.1L271,84.3z M267.7,88.1c-0.5,0-1,0.1-1.6,0.3
				l-0.3,0.1c0,1.8,0.6,2.8,1.8,2.8c0.5,0,0.9-0.1,1.2-0.4c0.3-0.3,0.4-0.7,0.4-1.2C269.3,88.6,268.8,88.1,267.7,88.1z"/>
		</g>
		<g class="st0">
			<path d="M280.3,84.3v-2h6.8v2.5l-3.8,8.3l-2-0.6l3.6-7.7v-0.5H280.3z"/>
		</g>
		<g class="st0">
			<path d="M296.9,82.9c0.7-0.5,1.6-0.8,2.8-0.8c1.2,0,2.1,0.3,2.8,0.8c0.7,0.5,1.1,1.2,1.1,2.1c0,0.6-0.1,1.1-0.2,1.4
				s-0.5,0.7-0.9,1c0.5,0.4,0.8,0.8,1,1.1c0.2,0.4,0.3,0.8,0.3,1.5c0,1-0.4,1.8-1.1,2.3c-0.7,0.5-1.7,0.7-2.9,0.7c-2.7,0-4-1-4-2.9
				c0-0.7,0.1-1.2,0.3-1.6c0.2-0.4,0.5-0.8,1-1.2c-0.4-0.4-0.8-0.7-0.9-1.1s-0.2-0.8-0.2-1.4C295.9,84.1,296.2,83.4,296.9,82.9z
				 M298.1,89.7c0,0.9,0.6,1.4,1.7,1.4c1.1,0,1.7-0.5,1.7-1.4c0-0.6-0.3-1-0.9-1.2H299C298.4,88.8,298.1,89.2,298.1,89.7z
				 M299.7,84.2c-0.5,0-0.8,0.1-1.1,0.3c-0.3,0.2-0.4,0.5-0.4,1s0.3,0.8,0.8,1.2h1.4c0.5-0.4,0.8-0.8,0.8-1.2
				C301.2,84.6,300.7,84.2,299.7,84.2z"/>
		</g>
		<g class="st0">
			<path d="M315.3,91.2c1.4,0,2.1-0.9,2.1-2.6l-0.3,0.1c-0.7,0.2-1.3,0.4-1.7,0.4c-1.2,0-2.1-0.3-2.7-0.8c-0.6-0.6-0.9-1.4-0.9-2.5
				c0-1.1,0.3-2,1-2.6s1.7-0.9,3-0.9s2.2,0.5,2.9,1.4c0.7,0.9,1,2.3,1,4.2s-0.4,3.2-1.1,4.1c-0.7,0.8-1.8,1.3-3.3,1.3
				c-0.8,0-1.7-0.1-2.7-0.4l-0.5-0.1l0.2-1.7C313.4,91.1,314.4,91.2,315.3,91.2z M315.6,87.2c0.5,0,1-0.1,1.6-0.3l0.3-0.1
				c0-1.8-0.6-2.7-1.8-2.7c-0.5,0-0.9,0.1-1.2,0.4c-0.3,0.3-0.4,0.7-0.4,1.2C314.1,86.7,314.6,87.2,315.6,87.2z"/>
		</g>
		<g class="st0">
			<path d="M139.7,102.7c0.7-0.9,1.7-1.3,3.1-1.3s2.4,0.4,3.1,1.3c0.7,0.9,1,2.3,1,4.2c0,1.9-0.3,3.3-1,4.2
				c-0.7,0.8-1.7,1.3-3.1,1.3c-1.4,0-2.4-0.4-3.1-1.3c-0.7-0.8-1-2.2-1-4.2C138.7,105,139,103.6,139.7,102.7z M144.6,106.8
				c0-1.3-0.1-2.2-0.4-2.8c-0.3-0.5-0.7-0.8-1.4-0.8c-0.7,0-1.1,0.3-1.4,0.8c-0.3,0.5-0.4,1.5-0.4,2.8c0,1.3,0.1,2.2,0.4,2.8
				s0.8,0.8,1.4,0.8c0.7,0,1.1-0.3,1.4-0.8C144.5,109.1,144.6,108.2,144.6,106.8z"/>
		</g>
		<g class="st0">
			<path d="M157.5,108.1l-0.2-6.9h2.3l-0.2,6.9H157.5z M157.3,112.1v-2.6h2.3v2.6H157.3z"/>
		</g>
		<g class="st0">
			<path d="M184.7,107.2v0.1c0,1.6-0.3,2.8-0.8,3.6c-0.5,0.8-1.3,1.1-2.3,1.1c-0.8,0-1.4-0.2-1.9-0.6c-0.1-0.1-0.2-0.2-0.3-0.3
				c-0.9,0.6-1.6,0.9-2.4,0.9c-1,0-1.8-0.3-2.2-0.9s-0.7-1.6-0.7-3s0.2-2.4,0.7-3.1c0.5-0.7,1.3-1,2.4-1c0.4,0,0.8,0.1,1.2,0.3
				l0.2,0.1v-0.2h2.1v2.9c0,1.5,0,2.3,0.1,2.5c0.1,0.2,0.1,0.4,0.2,0.4c0.1,0.1,0.1,0.1,0.2,0.2c0.1,0,0.2,0,0.3,0
				c0.3,0,0.6-0.2,0.7-0.6s0.2-1.2,0.2-2.3v-0.1c0-1.7-0.4-2.9-1.2-3.7c-0.8-0.8-2-1.2-3.7-1.2s-3,0.5-3.9,1.5
				c-0.9,1-1.4,2.4-1.4,4.3s0.4,3.3,1.2,4.1s2.2,1.3,4.1,1.3l2.3-0.1l0.1,1.9c-1,0.1-1.8,0.2-2.4,0.2c-1.2,0-2.3-0.1-3.2-0.4
				c-0.9-0.2-1.7-0.7-2.3-1.2c-1.3-1.1-2-3.1-2-5.9c0-2.5,0.7-4.3,2-5.6c1.3-1.3,3.2-1.9,5.5-1.9c2.3,0,4.1,0.6,5.2,1.7
				C184.1,103.3,184.7,105,184.7,107.2z M177.3,110.2c0.4,0,0.9-0.1,1.4-0.4c-0.1-0.4-0.1-0.9-0.1-1.7v-2c-0.4-0.1-0.8-0.2-1-0.2
				c-0.6,0-0.9,0.2-1.1,0.5c-0.2,0.3-0.3,0.9-0.3,1.6C176.3,109.5,176.7,110.2,177.3,110.2z"/>
		</g>
		<g class="st0">
			<path d="M199.4,103.3c-0.6,0-0.8,0.3-0.8,1v0.8h2.4v1.8h-2.4v3.3h2l1.1-0.3l0.3,1.8l-1.3,0.3h-5.4v-1.8h1.2V107h-1v-1.8h1v-0.9
				c0-1.1,0.2-1.9,0.6-2.3c0.4-0.4,1.1-0.6,2-0.6c0.7,0,1.4,0.1,2.1,0.3l0.4,0.1l-0.1,1.7C200.8,103.3,200.1,103.3,199.4,103.3z"/>
		</g>
		<g class="st0">
			<path d="M220.1,108.9c0,1.1-0.3,1.9-1,2.5c-0.7,0.6-1.6,0.9-2.6,0.9h0l-0.2,1.9c-0.8,0-1.2-0.1-1.2-0.1l0.2-1.9
				c-0.8-0.1-1.5-0.2-2-0.3l-0.3-0.1l0.2-1.7c0.8,0.1,1.6,0.2,2.3,0.2l0.4-2.8c-1.1-0.3-1.9-0.7-2.3-1.2c-0.5-0.5-0.7-1.1-0.7-1.9
				c0-1.1,0.3-1.8,1-2.4c0.6-0.5,1.5-0.8,2.6-0.8h0.2l0.3-2.2h1.2l-0.3,2.3c0.7,0.1,1.3,0.1,1.8,0.3l0.3,0.1l-0.2,1.7
				c-0.8-0.1-1.5-0.1-2.2-0.2l-0.3,2.6c1.1,0.4,1.9,0.7,2.3,1.2C219.9,107.4,220.1,108.1,220.1,108.9z M215,104.4
				c0,0.3,0.1,0.5,0.2,0.6s0.5,0.3,0.9,0.5l0.3-2.2C215.4,103.3,215,103.7,215,104.4z M218,109.1c0-0.3-0.1-0.5-0.2-0.6
				c-0.1-0.2-0.4-0.3-0.8-0.5l-0.3,2.4C217.6,110.3,218,109.9,218,109.1z"/>
		</g>
		<g class="st0">
			<path d="M230.1,103.7c0-1.6,0.6-2.3,1.9-2.3c1.3,0,1.9,0.8,1.9,2.3s-0.6,2.3-1.9,2.3C230.8,106,230.1,105.2,230.1,103.7z
				 M231.8,102.9c0,0.2-0.1,0.4-0.1,0.8c0,0.4,0,0.7,0.1,0.8s0.1,0.2,0.3,0.2s0.2-0.1,0.3-0.2c0-0.2,0.1-0.4,0.1-0.8
				c0-0.4,0-0.7-0.1-0.8c0-0.2-0.1-0.2-0.3-0.2S231.8,102.7,231.8,102.9z M231.9,112.2l3.8-11.3l1.2,0.4l-3.8,11.3L231.9,112.2z
				 M234.8,110c0-1.6,0.6-2.3,1.9-2.3s1.9,0.8,1.9,2.3c0,1.6-0.6,2.3-1.9,2.3S234.8,111.5,234.8,110z M236.4,109.2
				c0,0.2-0.1,0.4-0.1,0.8c0,0.4,0,0.7,0.1,0.8s0.1,0.2,0.3,0.2s0.2-0.1,0.3-0.2c0-0.2,0.1-0.4,0.1-0.8c0-0.4,0-0.7-0.1-0.8
				c0-0.2-0.1-0.2-0.3-0.2S236.5,109,236.4,109.2z"/>
		</g>
		<g class="st0">
			<path d="M253.9,107.1l-1.7-3.5l-1.8,3.5h-2.2l3.1-5.6h1.8l3.1,5.6H253.9z"/>
		</g>
		<g class="st0">
			<path d="M268.3,101.4c0.6-0.4,1.4-0.6,2.4-0.6c1,0,1.8,0.2,2.4,0.7c0.6,0.4,0.8,1,0.8,1.8c0,0.8-0.2,1.4-0.5,1.8
				c-0.3,0.4-0.9,0.9-1.7,1.5l1.6,1.6c0.1-0.2,0.1-0.5,0.2-0.9c0.1-0.5,0.1-0.8,0.1-1.1l2.1,0c-0.2,1.2-0.4,2.3-0.8,3.2l1.8,1.6
				l-1.2,1.4l-1.7-1.4c-0.4,0.4-0.9,0.7-1.4,1c-0.6,0.3-1.2,0.4-1.8,0.4c-1.6,0-2.7-0.3-3.3-0.8c-0.7-0.6-1-1.4-1-2.5
				c0-0.9,0.2-1.5,0.5-2c0.4-0.5,0.9-0.9,1.7-1.2c-0.4-0.5-0.7-1-0.9-1.3c-0.1-0.3-0.2-0.8-0.2-1.3
				C267.4,102.4,267.7,101.8,268.3,101.4z M270.3,110.4c0.4,0,0.8-0.1,1.2-0.2c0.4-0.1,0.7-0.3,0.8-0.5l-2.8-2.8
				c-0.8,0.4-1.2,1-1.2,1.8C268.4,109.9,269,110.4,270.3,110.4z M269.6,103.6c0,0.4,0.2,0.9,0.7,1.4l0.3,0.3
				c0.4-0.3,0.7-0.6,0.9-0.9c0.2-0.2,0.3-0.6,0.3-0.9c0-0.7-0.4-1-1.1-1S269.6,102.9,269.6,103.6z"/>
		</g>
		<g class="st0">
			<path d="M292,104.1h-2l0.6,1.9l-1.2,0.4l-0.7-1.9l-1.6,1.3l-0.8-0.9l1.7-1.2l-1.6-1.2l0.7-1l1.6,1.2l0.6-1.9l1.2,0.4l-0.6,2h2
				V104.1z"/>
		</g>
		<g class="st0">
			<path d="M305,103.7c-0.3,1.5-0.5,2.7-0.5,3.6c0,0.9,0.1,2,0.4,3.1s0.5,2,0.8,2.7l0.4,1h-2c-0.1-0.2-0.3-0.6-0.6-1.2
				c-0.2-0.6-0.5-1.1-0.6-1.6c-0.2-0.5-0.3-1.1-0.4-1.9c-0.1-0.7-0.2-1.5-0.2-2.2c0-0.7,0.1-1.5,0.2-2.2c0.1-0.8,0.3-1.4,0.5-2
				c0.4-1.2,0.7-2.1,1-2.6l0.2-0.4h2C305.7,101,305.3,102.2,305,103.7z"/>
		</g>
		<g class="st0">
			<path d="M319.5,105.1c0.1,0.8,0.2,1.5,0.2,2.2c0,0.7-0.1,1.4-0.2,2.2c-0.1,0.7-0.3,1.4-0.5,1.9c-0.4,1.1-0.7,1.9-1,2.4l-0.2,0.3
				h-2c0.4-0.8,0.7-1.9,1-3.3c0.3-1.4,0.5-2.6,0.5-3.5c0-0.9-0.1-2-0.4-3.2c-0.3-1.2-0.5-2.2-0.8-2.9l-0.4-1.1h2
				c0.1,0.3,0.3,0.7,0.6,1.3c0.2,0.6,0.5,1.2,0.6,1.7C319.2,103.7,319.4,104.3,319.5,105.1z"/>
		</g>
		<g class="st0">
			<path d="M0.2,45.6v-2h8v2H5.3v8.9H3.1v-8.9H0.2z"/>
			<path d="M9.4,45.5v-2.2h2.1v2.2H9.4z M9.4,54.5v-8h2.1v8H9.4z"/>
			<path d="M18,48.3h-2v3.3c0,0.3,0,0.5,0,0.7s0.1,0.2,0.2,0.3c0.1,0.1,0.3,0.1,0.5,0.1l1.2,0l0.1,1.7c-0.7,0.2-1.3,0.2-1.6,0.2
				c-1,0-1.6-0.2-2-0.6s-0.5-1.2-0.5-2.4v-3.3h-0.9v-1.8h0.9v-2.2H16v2.2h2V48.3z"/>
			<path d="M19.4,45.5v-2.2h2.1v2.2H19.4z M19.4,54.5v-8h2.1v8H19.4z"/>
			<path d="M23.6,54.5V43.3h2.1v11.2H23.6z"/>
			<path d="M27.9,54.5V43.3H30v11.2H27.9z"/>
			<path d="M32.1,45.5v-2.2h2.1v2.2H32.1z M32.1,54.5v-8h2.1v8H32.1z"/>
			<path d="M41,46.5h2.1v8H41v-0.4c-0.8,0.4-1.4,0.6-2,0.6c-1.1,0-1.9-0.3-2.2-0.9c-0.4-0.6-0.6-1.6-0.6-3.1v-4.2h2.1v4.2
				c0,0.8,0.1,1.3,0.2,1.6s0.4,0.4,0.9,0.4c0.5,0,0.9-0.1,1.3-0.2l0.2-0.1V46.5z"/>
			<path d="M47.2,54.5h-2.1v-8h2.1V47c0.7-0.4,1.4-0.6,1.9-0.6c0.9,0,1.5,0.3,2,0.8c1-0.5,1.9-0.8,2.7-0.8c1.1,0,1.8,0.3,2.2,0.9
				c0.4,0.6,0.6,1.6,0.6,2.9v4.3h-2.1v-4.3c0-0.7-0.1-1.2-0.2-1.5s-0.4-0.5-0.9-0.5c-0.3,0-0.8,0.1-1.2,0.2l-0.2,0.1
				c0,0.8,0.1,1.4,0.1,1.8v4.1h-2.1v-4.1c0-0.8-0.1-1.3-0.2-1.7c-0.1-0.3-0.4-0.5-0.9-0.5c-0.4,0-0.8,0.1-1.2,0.2l-0.2,0.1V54.5z"/>
			<path d="M62.2,43.6h4.3c1.1,0,2,0.2,2.5,0.7c0.6,0.5,0.8,1.2,0.8,2.2c0,0.6-0.1,1.1-0.3,1.4c-0.2,0.4-0.5,0.7-0.9,1
				c0.5,0.2,0.8,0.5,1.1,0.9s0.3,0.9,0.3,1.6c0,1.1-0.3,1.8-0.9,2.4c-0.6,0.5-1.5,0.8-2.6,0.8h-4.3V43.6z M66.4,45.5h-2v2.6h2
				c0.8,0,1.2-0.4,1.2-1.3C67.7,46,67.2,45.5,66.4,45.5z M66.5,50h-2v2.7h2c0.5,0,0.8-0.1,1.1-0.3c0.2-0.2,0.3-0.5,0.3-1.1
				C67.9,50.4,67.4,50,66.5,50z"/>
			<path d="M72.2,47.4c0.6-0.7,1.5-1.1,2.8-1.1s2.3,0.4,2.8,1.1s0.8,1.8,0.8,3.1c0,2.8-1.2,4.2-3.7,4.2c-2.5,0-3.7-1.4-3.7-4.2
				C71.4,49.2,71.7,48.1,72.2,47.4z M73.9,52.3c0.2,0.4,0.6,0.6,1.2,0.6s1-0.2,1.2-0.6c0.2-0.4,0.3-1,0.3-1.8s-0.1-1.4-0.3-1.8
				c-0.2-0.4-0.6-0.6-1.2-0.6s-1,0.2-1.2,0.6c-0.2,0.4-0.3,1-0.3,1.8S73.7,51.9,73.9,52.3z"/>
			<path d="M80.4,54.5V43.3h2.1v11.2H80.4z"/>
			<path d="M91.4,43.3v11.2h-2.1v-0.3c-0.7,0.4-1.4,0.5-1.9,0.5c-1.2,0-2-0.3-2.4-1c-0.5-0.7-0.7-1.7-0.7-3.2s0.3-2.5,0.8-3.2
				c0.5-0.7,1.4-1,2.5-1c0.3,0,0.8,0.1,1.4,0.2l0.3,0.1v-3.2H91.4z M89.1,52.6l0.2,0v-4.2c-0.6-0.1-1.1-0.2-1.6-0.2
				c-0.9,0-1.3,0.8-1.3,2.3c0,0.8,0.1,1.4,0.3,1.8c0.2,0.4,0.5,0.5,1,0.5C88.1,52.8,88.6,52.7,89.1,52.6z"/>
		</g>
	</g>
</g>
</svg>
