<?xml version="1.0" encoding="utf-8"?>
<!-- Generator: Adobe Illustrator 26.4.1, SVG Export Plug-In . SVG Version: 6.00 Build 0)  -->
<svg version="1.1" id="Layer_1" xmlns="http://www.w3.org/2000/svg" xmlns:xlink="http://www.w3.org/1999/xlink" x="0px" y="0px"
	 viewBox="0 0 319.7 127.9" style="enable-background:new 0 0 319.7 127.9;" xml:space="preserve">
<style type="text/css">
	.st0{enable-background:new    ;}
</style>
<g id="Layer_2_00000015350185919238774170000014506366150424286904_">
	<g id="Layer_1-2">
		<g class="st0">
			<path d="M156.7,30.6v-12h-15v12h-1.3V5.4h1.3v12h15v-12h1.3v25.2H156.7z"/>
			<path d="M164.6,30.6V5.4h14.7v1.2h-13.4v10.5h11.3v1.2h-11.3v11.1h13.4v1.2H164.6z"/>
			<path d="M182.1,30.6l7.7-25.2h3.8l7.7,25.2h-1.3l-2.3-7.7h-12l-2.3,7.7H182.1z M190.8,6.6l-4.6,15h11.2l-4.6-15H190.8z"/>
			<path d="M215.1,30.6h-9.4V5.4h9.4c1.5,0,2.9,0.3,4,1c1.1,0.7,2,1.6,2.6,2.8c0.6,1.2,1.1,2.5,1.4,3.9c0.3,1.4,0.4,2.9,0.4,4.6
				s-0.2,3.3-0.5,4.7s-0.8,2.8-1.4,4.1s-1.5,2.3-2.6,3C218,30.2,216.6,30.6,215.1,30.6z M220.7,25.5c0.5-1.2,0.9-2.4,1.1-3.7
				c0.2-1.3,0.4-2.8,0.4-4.5s-0.2-3.3-0.6-4.9c-0.4-1.6-1.1-2.9-2.2-4.1c-1.1-1.1-2.5-1.7-4.2-1.7h-8.1v22.8h8.1
				c1.3,0,2.4-0.3,3.4-1C219.4,27.6,220.2,26.7,220.7,25.5z"/>
			<path d="M229.1,30.6V5.4h1.3v25.2H229.1z"/>
			<path d="M237,30.6V5.4h3.1l12,24h1v-24h1.3v25.2h-3.1l-12-24h-0.9v24H237z"/>
			<path d="M270.7,19.3v-1.2h6.7V30c-3.1,0.6-5.7,0.9-7.9,0.9c-3.5,0-6-1.1-7.4-3.2c-1.4-2.1-2.1-5.3-2.1-9.6c0-2.1,0.1-3.9,0.4-5.4
				c0.3-1.5,0.8-2.8,1.4-4c1.3-2.4,3.9-3.6,7.6-3.6c2.1,0,4.4,0.2,6.8,0.7l1.1,0.2l-0.1,1.3c-3-0.6-5.5-0.9-7.4-0.9
				c-1.9,0-3.4,0.3-4.5,0.8c-1.1,0.5-1.9,1.3-2.5,2.4c-0.6,1.1-1,2.3-1.2,3.7c-0.2,1.3-0.3,3-0.3,4.9s0.1,3.6,0.3,4.9
				c0.2,1.3,0.6,2.5,1.2,3.6c1.1,2.1,3.3,3.1,6.5,3.1c1.8,0,4-0.2,6.6-0.7v-9.6H270.7z"/>
		</g>
		<g class="st0">
			<path d="M0.2,63.6v-2h8v2H5.3v8.9H3.1v-8.9H0.2z"/>
			<path d="M9.4,63.5v-2.2h2.1v2.2H9.4z M9.4,72.5v-8h2.1v8H9.4z"/>
			<path d="M18,66.3h-2v3.3c0,0.3,0,0.5,0,0.7s0.1,0.2,0.2,0.3c0.1,0.1,0.3,0.1,0.5,0.1l1.2,0l0.1,1.7c-0.7,0.2-1.3,0.2-1.6,0.2
				c-1,0-1.6-0.2-2-0.6s-0.5-1.2-0.5-2.4v-3.3h-0.9v-1.8h0.9v-2.2H16v2.2h2V66.3z"/>
			<path d="M19.4,63.5v-2.2h2.1v2.2H19.4z M19.4,72.5v-8h2.1v8H19.4z"/>
			<path d="M23.6,72.5V61.3h2.1v11.2H23.6z"/>
			<path d="M27.9,72.5V61.3H30v11.2H27.9z"/>
			<path d="M32.1,63.5v-2.2h2.1v2.2H32.1z M32.1,72.5v-8h2.1v8H32.1z"/>
			<path d="M41,64.5h2.1v8H41v-0.4c-0.8,0.4-1.4,0.6-2,0.6c-1.1,0-1.9-0.3-2.2-0.9c-0.4-0.6-0.6-1.6-0.6-3.1v-4.2h2.1v4.2
				c0,0.8,0.1,1.3,0.2,1.6s0.4,0.4,0.9,0.4c0.5,0,0.9-0.1,1.3-0.2l0.2-0.1V64.5z"/>
			<path d="M47.2,72.5h-2.1v-8h2.1V65c0.7-0.4,1.4-0.6,1.9-0.6c0.9,0,1.5,0.3,2,0.8c1-0.5,1.9-0.8,2.7-0.8c1.1,0,1.8,0.3,2.2,0.9
				c0.4,0.6,0.6,1.6,0.6,2.9v4.3h-2.1v-4.3c0-0.7-0.1-1.2-0.2-1.5s-0.4-0.5-0.9-0.5c-0.3,0-0.8,0.1-1.2,0.2l-0.2,0.1
				c0,0.8,0.1,1.4,0.1,1.8v4.1h-2.1v-4.1c0-0.8-0.1-1.3-0.2-1.7c-0.1-0.3-0.4-0.5-0.9-0.5c-0.4,0-0.8,0.1-1.2,0.2l-0.2,0.1V72.5z"/>
			<path d="M62.2,61.6h4.3c1.1,0,2,0.2,2.5,0.7c0.6,0.5,0.8,1.2,0.8,2.2c0,0.6-0.1,1.1-0.3,1.4c-0.2,0.4-0.5,0.7-0.9,1
				c0.5,0.2,0.8,0.5,1.1,0.9s0.3,0.9,0.3,1.6c0,1.1-0.3,1.8-0.9,2.4c-0.6,0.5-1.5,0.8-2.6,0.8h-4.3V61.6z M66.4,63.5h-2v2.6h2
				c0.8,0,1.2-0.4,1.2-1.3C67.7,64,67.2,63.5,66.4,63.5z M66.5,68h-2v2.7h2c0.5,0,0.8-0.1,1.1-0.3c0.2-0.2,0.3-0.5,0.3-1.1
				C67.9,68.4,67.4,68,66.5,68z"/>
			<path d="M72.2,65.4c0.6-0.7,1.5-1.1,2.8-1.1s2.3,0.4,2.8,1.1s0.8,1.8,0.8,3.1c0,2.8-1.2,4.2-3.7,4.2c-2.5,0-3.7-1.4-3.7-4.2
				C71.4,67.2,71.7,66.2,72.2,65.4z M73.9,70.3c0.2,0.4,0.6,0.6,1.2,0.6s1-0.2,1.2-0.6c0.2-0.4,0.3-1,0.3-1.8s-0.1-1.4-0.3-1.8
				c-0.2-0.4-0.6-0.6-1.2-0.6s-1,0.2-1.2,0.6c-0.2,0.4-0.3,1-0.3,1.8S73.7,69.9,73.9,70.3z"/>
			<path d="M80.4,72.5V61.3h2.1v11.2H80.4z"/>
			<path d="M91.4,61.3v11.2h-2.1v-0.3c-0.7,0.4-1.4,0.5-1.9,0.5c-1.2,0-2-0.3-2.4-1c-0.5-0.7-0.7-1.7-0.7-3.2s0.3-2.5,0.8-3.2
				c0.5-0.7,1.4-1,2.5-1c0.3,0,0.8,0.1,1.4,0.2l0.3,0.1v-3.2H91.4z M89.1,70.6l0.2,0v-4.2c-0.6-0.1-1.1-0.2-1.6-0.2
				c-0.9,0-1.3,0.8-1.3,2.3c0,0.8,0.1,1.4,0.3,1.8c0.2,0.4,0.5,0.5,1,0.5C88.1,70.8,88.6,70.7,89.1,70.6z"/>
		</g>
		<g class="st0">
			<path d="M141.5,63.4c-1.2,0-1.7,0.4-1.7,1.2c0,0.3,0.1,0.6,0.4,0.8c0.3,0.2,1,0.4,2,0.8c1.1,0.3,1.8,0.7,2.2,1.2
				c0.4,0.4,0.6,1.1,0.6,2c0,1.1-0.3,2-1,2.6c-0.7,0.6-1.6,0.9-2.7,0.9c-0.8,0-1.9-0.1-3.1-0.4l-0.6-0.1l0.2-1.7
				c1.4,0.2,2.5,0.3,3.3,0.3c1.1,0,1.7-0.5,1.7-1.4c0-0.3-0.1-0.6-0.4-0.8c-0.3-0.2-0.8-0.4-1.6-0.6c-1.2-0.4-2.1-0.8-2.6-1.3
				c-0.5-0.5-0.8-1.2-0.8-2c0-1.1,0.3-1.9,1-2.4c0.7-0.5,1.6-0.8,2.7-0.8c0.8,0,1.8,0.1,3,0.3l0.6,0.1l-0.2,1.7
				C143.2,63.5,142.1,63.4,141.5,63.4z"/>
			<path d="M151.4,64.5h2.1v8h-2.1v-0.4c-0.8,0.4-1.4,0.6-2,0.6c-1.1,0-1.9-0.3-2.2-0.9c-0.4-0.6-0.6-1.6-0.6-3.1v-4.2h2.1v4.2
				c0,0.8,0.1,1.3,0.2,1.6s0.4,0.4,0.9,0.4c0.5,0,0.9-0.1,1.3-0.2l0.2-0.1V64.5z"/>
			<path d="M159.4,64.3c1.1,0,1.9,0.3,2.5,0.9c0.5,0.6,0.8,1.7,0.8,3.3c0,1.6-0.3,2.7-0.9,3.3s-1.6,0.9-3.1,0.9
				c-0.5,0-1.3-0.1-2.5-0.2l-0.6-0.1V61.3h2.1v3.4C158.4,64.5,158.9,64.3,159.4,64.3z M158.7,70.8c0.7,0,1.2-0.2,1.4-0.5
				c0.2-0.3,0.4-1,0.4-1.9c0-1.4-0.4-2.2-1.3-2.2c-0.4,0-0.8,0.1-1.2,0.2l-0.2,0v4.3C158.2,70.8,158.5,70.8,158.7,70.8z"/>
			<path d="M166.4,72.5h-2.1V61.3h2.1v3.6c0.7-0.4,1.4-0.6,2-0.6c1.1,0,1.8,0.3,2.2,0.9c0.4,0.6,0.6,1.6,0.6,2.9v4.3H169v-4.3
				c0-0.7-0.1-1.2-0.2-1.5c-0.2-0.3-0.5-0.5-1-0.5c-0.4,0-0.8,0.1-1.2,0.2l-0.2,0.1V72.5z"/>
			<path d="M175.2,70.5c0.2,0.2,0.6,0.3,1.1,0.3c1,0,1.9,0,2.7-0.1l0.4,0l0,1.6c-1.2,0.3-2.3,0.4-3.3,0.4c-1.2,0-2.1-0.3-2.6-1
				c-0.5-0.6-0.8-1.7-0.8-3.1c0-2.9,1.2-4.3,3.5-4.3c2.3,0,3.5,1.2,3.5,3.6l-0.2,1.5h-4.7C174.9,69.9,175,70.3,175.2,70.5z
				 M177.6,67.8c0-0.6-0.1-1.1-0.3-1.3c-0.2-0.3-0.6-0.4-1.1-0.4c-0.5,0-0.9,0.1-1.1,0.4c-0.2,0.3-0.3,0.7-0.3,1.3H177.6z"/>
			<path d="M187.4,67v3.3c0,0.3,0.1,0.4,0.1,0.5c0.1,0.1,0.2,0.2,0.4,0.2l-0.1,1.6c-0.5,0-1,0-1.3-0.1c-0.3-0.1-0.7-0.2-1-0.4
				c-0.8,0.4-1.6,0.6-2.4,0.6c-1.7,0-2.5-0.9-2.5-2.6c0-0.9,0.2-1.5,0.7-1.8c0.5-0.4,1.2-0.6,2.1-0.6l1.7-0.1V67
				c0-0.3-0.1-0.6-0.2-0.7c-0.1-0.1-0.4-0.2-0.7-0.2l-3,0.1l-0.1-1.5c1.1-0.3,2.2-0.5,3.3-0.5s1.8,0.2,2.2,0.6
				C187.2,65.4,187.4,66.1,187.4,67z M183.8,69.1c-0.6,0.1-0.9,0.4-0.9,1c0,0.6,0.3,0.9,0.8,0.9c0.4,0,0.8-0.1,1.3-0.2l0.2-0.1V69
				L183.8,69.1z"/>
			<path d="M196.2,61.3v11.2h-2.1v-0.3c-0.7,0.4-1.4,0.5-1.9,0.5c-1.2,0-2-0.3-2.4-1c-0.5-0.7-0.7-1.7-0.7-3.2s0.3-2.5,0.8-3.2
				c0.5-0.7,1.4-1,2.5-1c0.3,0,0.8,0.1,1.4,0.2l0.3,0.1v-3.2H196.2z M193.9,70.6l0.2,0v-4.2c-0.6-0.1-1.1-0.2-1.6-0.2
				c-0.9,0-1.3,0.8-1.3,2.3c0,0.8,0.1,1.4,0.3,1.8c0.2,0.4,0.5,0.5,1,0.5C192.9,70.8,193.4,70.7,193.9,70.6z"/>
			<path d="M198.2,63.5v-2.2h2.1v2.2H198.2z M198.2,72.5v-8h2.1v8H198.2z"/>
			<path d="M204.5,72.5h-2.1v-8h2.1V65c0.7-0.4,1.4-0.6,2-0.6c1.1,0,1.8,0.3,2.2,0.9c0.4,0.6,0.6,1.6,0.6,2.9v4.3h-2.1v-4.3
				c0-0.7-0.1-1.2-0.2-1.5s-0.5-0.5-1-0.5c-0.4,0-0.9,0.1-1.3,0.2l-0.2,0.1V72.5z"/>
			<path d="M218.4,73.5c0,0.9-0.4,1.6-1.1,2c-0.7,0.4-1.7,0.7-2.9,0.7s-2.1-0.2-2.8-0.5c-0.6-0.3-1-0.9-1-1.7c0-0.7,0.4-1.3,1.2-1.9
				c-0.4-0.3-0.6-0.7-0.6-1.2c0-0.2,0.2-0.6,0.5-1.1l0.1-0.2c-0.7-0.5-1.1-1.3-1.1-2.3s0.3-1.8,0.9-2.2c0.6-0.5,1.4-0.7,2.4-0.7
				c0.5,0,0.9,0.1,1.4,0.2l0.3,0l2.6-0.1v1.7l-1.2-0.1c0.2,0.4,0.4,0.7,0.4,1.1c0,1.1-0.3,1.8-0.8,2.2s-1.4,0.6-2.6,0.6
				c-0.2,0-0.5,0-0.7-0.1c-0.1,0.3-0.2,0.5-0.2,0.7c0,0.2,0.1,0.3,0.3,0.4c0.2,0.1,0.6,0.1,1.3,0.1c1.3,0,2.3,0.2,2.8,0.5
				C218.2,72,218.4,72.6,218.4,73.5z M212.9,73.8c0,0.5,0.6,0.7,1.7,0.7c1.1,0,1.7-0.3,1.7-0.8c0-0.3-0.1-0.5-0.3-0.6
				c-0.2-0.1-0.6-0.1-1.2-0.1l-1.4-0.1C213,73.1,212.9,73.4,212.9,73.8z M213,67.2c0,0.8,0.4,1.2,1.2,1.2c0.8,0,1.2-0.4,1.2-1.2
				c0-0.8-0.4-1.2-1.2-1.2C213.4,66,213,66.4,213,67.2z"/>
		</g>
		<g class="st0">
			<path d="M0.2,105.8v-1.1h8v1.1H4.8v10H3.6v-10H0.2z"/>
			<path d="M9.6,106v-1.4h1.2v1.4H9.6z M9.6,115.8v-8h1.2v8H9.6z"/>
			<path d="M17.2,108.8h-2.5v3.8c0,0.9,0.1,1.5,0.2,1.8c0.1,0.3,0.5,0.4,1,0.4l1.4-0.1l0.1,1c-0.7,0.1-1.3,0.2-1.6,0.2
				c-0.8,0-1.4-0.2-1.7-0.6c-0.3-0.4-0.5-1.2-0.5-2.3v-4.2h-1.1v-1h1.1v-2.4h1.2v2.4h2.5V108.8z"/>
			<path d="M18.7,106v-1.4h1.2v1.4H18.7z M18.7,115.8v-8h1.2v8H18.7z"/>
			<path d="M22.3,115.8v-11.5h1.2v11.5H22.3z"/>
			<path d="M26,115.8v-11.5h1.2v11.5H26z"/>
			<path d="M29.6,106v-1.4h1.2v1.4H29.6z M29.6,115.8v-8h1.2v8H29.6z"/>
			<path d="M38.1,107.8h1.2v8h-1.2v-0.6c-0.8,0.5-1.6,0.7-2.4,0.7c-1.1,0-1.8-0.3-2.2-0.8c-0.4-0.6-0.5-1.6-0.5-3.1v-4.2h1.2v4.2
				c0,1.2,0.1,1.9,0.3,2.3c0.2,0.4,0.7,0.6,1.4,0.6c0.4,0,0.7-0.1,1.1-0.2c0.4-0.1,0.6-0.2,0.8-0.3l0.3-0.1V107.8z"/>
			<path d="M42.8,115.8h-1.2v-8h1.2v0.6c0.8-0.5,1.6-0.7,2.3-0.7c1,0,1.7,0.3,2.1,0.8c0.4-0.2,0.8-0.4,1.4-0.6
				c0.6-0.2,1.1-0.2,1.5-0.2c1.1,0,1.8,0.3,2.2,0.9s0.6,1.6,0.6,3.1v4.2h-1.2v-4.2c0-1.1-0.1-1.9-0.3-2.3c-0.2-0.4-0.7-0.6-1.4-0.6
				c-0.4,0-0.7,0.1-1.1,0.2c-0.4,0.1-0.7,0.2-0.9,0.3l-0.3,0.1c0.1,0.4,0.2,1.1,0.2,2.3v4.2h-1.2v-4.1c0-1.2-0.1-1.9-0.3-2.3
				c-0.2-0.4-0.7-0.6-1.4-0.6c-0.3,0-0.7,0.1-1,0.2c-0.4,0.1-0.6,0.2-0.8,0.3l-0.3,0.1V115.8z"/>
		</g>
		<g class="st0">
			<path d="M59.9,111.6v4.2h-1.2v-11.1h4.1c1.2,0,2.1,0.3,2.6,0.8s0.9,1.4,0.9,2.5c0,1.7-0.7,2.8-2,3.2l2.1,4.5h-1.4l-2-4.2H59.9z
				 M62.8,110.5c1.5,0,2.3-0.8,2.3-2.3c0-1.6-0.8-2.3-2.3-2.3h-2.9v4.7H62.8z"/>
		</g>
		<g class="st0">
			<path d="M73.6,114.8l0.5,0l0,0.9c-1.2,0.2-2.3,0.3-3.1,0.3c-1.2,0-2-0.3-2.4-1s-0.7-1.7-0.7-3.1c0-2.8,1.1-4.2,3.3-4.2
				c1.1,0,1.9,0.3,2.4,0.9c0.5,0.6,0.8,1.5,0.8,2.8l-0.1,0.9h-5.3c0,0.9,0.2,1.5,0.5,2c0.3,0.4,0.9,0.6,1.7,0.6
				C72,114.9,72.8,114.9,73.6,114.8z M73.2,111.3c0-1-0.2-1.7-0.5-2.1c-0.3-0.4-0.8-0.6-1.5-0.6s-1.2,0.2-1.6,0.6s-0.5,1.1-0.6,2
				H73.2z"/>
			<path d="M79.4,119.6c-1.3,0-2.2-0.2-2.7-0.5c-0.5-0.3-0.8-1-0.8-1.9c0-0.4,0.1-0.8,0.3-1.1c0.2-0.3,0.5-0.6,1-0.9
				c-0.3-0.2-0.4-0.6-0.4-1.1c0-0.2,0.1-0.5,0.4-1l0.1-0.3c-0.8-0.4-1.3-1.2-1.3-2.4c0-1.8,1-2.7,3-2.7c0.5,0,1,0.1,1.4,0.2l0.2,0
				l2.4-0.1v1l-1.5,0c0.4,0.4,0.5,0.9,0.5,1.6c0,1-0.2,1.7-0.7,2.1c-0.5,0.4-1.3,0.6-2.3,0.6c-0.3,0-0.5,0-0.8-0.1
				c-0.2,0.5-0.3,0.8-0.3,0.9c0,0.3,0.1,0.5,0.3,0.6s0.8,0.1,1.8,0.1s1.8,0.2,2.2,0.5c0.4,0.3,0.7,0.9,0.7,1.9
				C82.9,118.7,81.7,119.6,79.4,119.6z M77.1,117.1c0,0.6,0.2,1,0.5,1.2c0.3,0.2,0.9,0.3,1.7,0.3c0.8,0,1.5-0.1,1.8-0.4
				c0.4-0.2,0.6-0.6,0.6-1.2c0-0.5-0.1-0.9-0.4-1.1s-0.8-0.2-1.6-0.2l-1.7-0.1c-0.4,0.3-0.6,0.5-0.7,0.7
				C77.2,116.5,77.1,116.8,77.1,117.1z M77.2,110.4c0,0.6,0.1,1.1,0.4,1.3s0.7,0.4,1.4,0.4c0.7,0,1.1-0.1,1.4-0.4s0.4-0.7,0.4-1.4
				s-0.1-1.1-0.4-1.4s-0.7-0.4-1.4-0.4c-0.7,0-1.1,0.1-1.4,0.4C77.4,109.3,77.2,109.8,77.2,110.4z"/>
			<path d="M89.5,107.8h1.2v8h-1.2v-0.6c-0.8,0.5-1.6,0.7-2.4,0.7c-1.1,0-1.8-0.3-2.2-0.8c-0.4-0.6-0.5-1.6-0.5-3.1v-4.2h1.2v4.2
				c0,1.2,0.1,1.9,0.3,2.3c0.2,0.4,0.7,0.6,1.4,0.6c0.4,0,0.7-0.1,1.1-0.2c0.4-0.1,0.6-0.2,0.8-0.3l0.3-0.1V107.8z"/>
			<path d="M93.1,115.8v-11.5h1.2v11.5H93.1z"/>
			<path d="M102.3,110.2v4.1c0,0.4,0.3,0.6,0.9,0.7l0,0.9c-0.8,0-1.5-0.2-1.9-0.6c-1,0.4-1.9,0.6-2.9,0.6c-0.7,0-1.3-0.2-1.7-0.6
				c-0.4-0.4-0.6-1-0.6-1.8s0.2-1.4,0.6-1.7c0.4-0.4,1-0.6,1.9-0.7l2.5-0.2v-0.7c0-0.5-0.1-0.9-0.4-1.2c-0.2-0.2-0.6-0.4-1-0.4
				c-0.9,0-1.7,0.1-2.7,0.2l-0.5,0l0-0.9c1.2-0.2,2.2-0.4,3.1-0.4c0.9,0,1.6,0.2,2,0.6S102.3,109.3,102.3,110.2z M97.4,113.5
				c0,1,0.4,1.5,1.2,1.5c0.7,0,1.4-0.1,2.1-0.4l0.4-0.1v-2.6l-2.4,0.2c-0.5,0-0.8,0.2-1,0.4S97.4,113,97.4,113.5z"/>
			<path d="M104.7,115.8v-8h1.2v1.1c0.9-0.6,1.9-1.1,2.9-1.3v1.2c-0.4,0.1-0.9,0.2-1.4,0.4c-0.5,0.2-0.9,0.3-1.1,0.5l-0.4,0.2v5.9
				H104.7z"/>
		</g>
		<g class="st0">
			<path d="M138.4,104.7h4c1.1,0,1.9,0.2,2.5,0.7c0.5,0.5,0.8,1.2,0.8,2.1c0,0.7-0.1,1.2-0.4,1.6c-0.2,0.4-0.6,0.7-1.1,0.9
				c1.2,0.4,1.8,1.3,1.8,2.6c0,1.1-0.3,1.9-0.9,2.4c-0.6,0.5-1.4,0.7-2.5,0.7h-4.2V104.7z M142.3,105.8h-2.7v3.8h2.8
				c0.7,0,1.2-0.2,1.5-0.5c0.3-0.3,0.5-0.8,0.5-1.5s-0.2-1.1-0.5-1.4C143.6,106,143,105.8,142.3,105.8z M142.5,110.7h-2.9v4h2.9
				c0.7,0,1.3-0.2,1.7-0.5s0.6-0.8,0.6-1.6c0-0.4-0.1-0.7-0.2-1s-0.4-0.5-0.6-0.6C143.4,110.8,143,110.7,142.5,110.7z"/>
			<path d="M147.7,111.8c0-1.5,0.3-2.5,0.8-3.2c0.5-0.7,1.4-1,2.6-1s2.1,0.3,2.6,1c0.5,0.7,0.8,1.7,0.8,3.2c0,1.5-0.2,2.5-0.7,3.2
				c-0.5,0.7-1.4,1-2.7,1c-1.3,0-2.2-0.3-2.7-1C147.9,114.3,147.7,113.3,147.7,111.8z M148.9,111.8c0,1.2,0.1,2,0.4,2.5
				c0.3,0.5,0.9,0.7,1.8,0.7s1.5-0.2,1.8-0.7s0.4-1.3,0.4-2.5c0-1.2-0.2-2-0.5-2.4c-0.3-0.4-0.9-0.7-1.7-0.7s-1.4,0.2-1.7,0.7
				S148.9,110.6,148.9,111.8z"/>
			<path d="M162.6,104.3v11.5h-1.2v-0.5c-0.8,0.5-1.6,0.7-2.4,0.7c-0.4,0-0.8-0.1-1.1-0.2s-0.6-0.3-0.9-0.6
				c-0.6-0.6-0.9-1.6-0.9-3.2c0-1.6,0.3-2.7,0.8-3.4c0.5-0.7,1.4-1,2.6-1c0.6,0,1.3,0.1,2,0.2v-3.5H162.6z M158.4,114.8
				c0.2,0.1,0.4,0.1,0.7,0.1c0.3,0,0.6-0.1,1-0.2c0.4-0.1,0.7-0.2,0.9-0.3l0.3-0.1v-5.4c-0.7-0.1-1.3-0.2-1.9-0.2
				c-0.8,0-1.4,0.3-1.7,0.8c-0.3,0.5-0.5,1.3-0.5,2.4c0,1.2,0.2,2.1,0.6,2.5C158.1,114.6,158.2,114.7,158.4,114.8z"/>
			<path d="M164.2,107.8h1.2l2,7h0.5l2-7h1.2l-3.3,11.6h-1.2l1-3.6h-1.2L164.2,107.8z"/>
		</g>
		<g class="st0">
			<path d="M179.2,107.6c0.4,0,0.9,0.1,1.8,0.2l0.4,0l0,1c-0.9-0.1-1.5-0.1-1.9-0.1c-0.9,0-1.5,0.2-1.8,0.6
				c-0.3,0.4-0.5,1.2-0.5,2.4s0.2,2,0.5,2.4c0.3,0.5,0.9,0.7,1.9,0.7l1.9-0.1l0,1c-1,0.1-1.7,0.2-2.2,0.2c-1.2,0-2.1-0.3-2.6-1
				c-0.5-0.6-0.7-1.7-0.7-3.2c0-1.5,0.3-2.6,0.8-3.2C177.1,108,178,107.6,179.2,107.6z"/>
		</g>
		<g class="st0">
			<path d="M182.7,111.8c0-1.5,0.3-2.5,0.8-3.2c0.5-0.7,1.4-1,2.6-1c1.2,0,2.1,0.3,2.6,1c0.5,0.7,0.8,1.7,0.8,3.2
				c0,1.5-0.2,2.5-0.7,3.2c-0.5,0.7-1.4,1-2.7,1s-2.2-0.3-2.7-1C182.9,114.3,182.7,113.3,182.7,111.8z M183.9,111.8
				c0,1.2,0.1,2,0.4,2.5c0.3,0.5,0.9,0.7,1.8,0.7s1.5-0.2,1.8-0.7s0.4-1.3,0.4-2.5c0-1.2-0.2-2-0.5-2.4c-0.3-0.4-0.9-0.7-1.7-0.7
				c-0.8,0-1.4,0.2-1.7,0.7S183.9,110.6,183.9,111.8z"/>
		</g>
		<g class="st0">
			<path d="M191.5,119.4v-11.6h1.2v0.6c0.8-0.5,1.6-0.7,2.4-0.7c1,0,1.8,0.3,2.2,1c0.5,0.6,0.7,1.7,0.7,3.2s-0.3,2.5-0.8,3.2
				c-0.5,0.6-1.4,1-2.7,1c-0.7,0-1.2-0.1-1.8-0.2v3.6H191.5z M194.9,108.7c-0.3,0-0.7,0.1-1,0.2c-0.4,0.1-0.7,0.2-0.9,0.3l-0.3,0.2
				v5.4c0.8,0.1,1.3,0.2,1.7,0.2c0.9,0,1.5-0.2,1.8-0.7c0.3-0.5,0.5-1.3,0.5-2.4s-0.2-1.9-0.5-2.4S195.5,108.7,194.9,108.7z"/>
		</g>
		<g class="st0">
			<path d="M199,107.8h1.2l2,7h0.5l2-7h1.2l-3.3,11.6h-1.2l1-3.6h-1.2L199,107.8z"/>
		</g>
		<g class="st0">
			<path d="M0.2,20.8v-1.1h8v1.1H4.8v10H3.6v-10H0.2z"/>
			<path d="M9.8,30.8V19.7H11v11.1H9.8z"/>
			<path d="M12.6,20.8v-1.1h8v1.1h-3.4v10H16v-10H12.6z"/>
			<path d="M22.1,30.8V19.7h1.2v11.1H22.1z"/>
			<path d="M32.2,30.8h-6.1V19.7h1.2v10h4.9V30.8z"/>
			<path d="M39.8,30.8h-6.1V19.7H35v10h4.9V30.8z"/>
			<path d="M41.4,30.8V19.7h1.2v11.1H41.4z"/>
			<path d="M46.5,27.5c0,1.6,0.9,2.4,2.6,2.4c0.9,0,1.6-0.2,2-0.6c0.5-0.4,0.7-1,0.7-1.8v-7.7H53v7.7c0,1.2-0.3,2.1-1,2.7
				c-0.7,0.6-1.6,0.8-2.9,0.8c-1.3,0-2.2-0.3-2.9-0.8c-0.6-0.6-1-1.5-1-2.7v-7.7h1.2V27.5z"/>
			<path d="M55.6,30.8V19.7h2.2l3.1,9.4l3.1-9.4h2.2v11.1h-1.2V21h-0.2l-3.2,9.4h-1.4L57.1,21h-0.2v9.8H55.6z"/>
			<path d="M71.4,20.8v-1.1h8v1.1h-3.4v10h-1.2v-10H71.4z"/>
			<path d="M87.9,30.8v-5h-5.6v5H81V19.7h1.2v5h5.6v-5h1.2v11.1H87.9z"/>
			<path d="M91.8,30.8V19.7H93v11.1H91.8z"/>
			<path d="M95.7,30.8V19.7H98l4.2,10h0.3v-10h1.2v11.1h-2.3l-4.3-10H97v10H95.7z"/>
		</g>
	</g>
</g>
</svg>
