<svg xmlns="http://www.w3.org/2000/svg" viewBox="0 0 427 332.40689"><defs><style>.cls-1{fill:none;stroke:#b0b0b0;stroke-width:0.40689px;}.cls-2{fill:#838383;}.cls-3{fill:#b0b0b0;}</style></defs><g id="Layer_2" data-name="Layer 2"><g id="Layer_1-2" data-name="Layer 1"><line class="cls-1" x1="114.0458" y1="73.90778" x2="297.31351" y2="258.49911"/><line class="cls-1" x1="132.91069" y1="73.90778" x2="316.17841" y2="258.49911"/><line class="cls-1" x1="0.05366" y1="122.32893" x2="427" y2="122.3271"/><line class="cls-1" y1="139.27715" x2="426.94634" y2="139.27531"/><line class="cls-1" x1="0.05366" y1="207.03307" x2="427" y2="207.03123"/><line class="cls-1" x1="0.05366" y1="189.88807" x2="427" y2="189.88623"/><line class="cls-1" x1="53.4277" y1="238.19908" x2="53.41633" y2="94.10508"/><line class="cls-1" x1="247.79466" y1="238.19908" x2="247.78329" y2="94.10508"/><line class="cls-1" x1="159.63017" y1="238.19908" x2="159.6188" y2="94.10508"/><line class="cls-1" x1="203.28575" y1="238.19908" x2="203.27437" y2="94.10508"/><line class="cls-1" x1="353.99909" y1="238.19908" x2="353.98771" y2="94.10508"/><line class="cls-1" x1="73.14835" y1="238.19908" x2="73.13697" y2="94.10508"/><line class="cls-1" x1="267.54093" y1="238.19908" x2="267.52955" y2="94.10508"/><line class="cls-1" x1="179.39138" y1="238.19908" x2="179.38001" y2="94.10508"/><line class="cls-1" x1="223.83215" y1="238.19908" x2="223.82078" y2="94.10508"/><line class="cls-1" x1="373.63711" y1="238.19908" x2="373.62573" y2="94.10508"/><polygon class="cls-2" points="159.556 206.829 159.556 139.296 73.095 139.296 73.095 206.829 53.421 206.829 53.421 121.322 161.058 121.322 179.224 139.948 179.224 206.829 159.556 206.829"/><rect class="cls-2" x="203.31069" y="122.32911" width="20.43126" height="84.7582"/><polygon class="cls-2" points="267.503 122.329 267.503 189.862 353.965 189.862 353.965 122.329 373.632 122.329 373.632 207.84 266 207.84 247.826 189.651 247.826 122.329 267.503 122.329"/></g><g id="Isolation_Mode" data-name="Isolation Mode"><path class="cls-1" d="M351.49573,258.50142a166.03488,166.03488,0,0,1-273.14685,4.10974"/><polygon class="cls-3" points="81.399 261.514 75.85 259.015 76.461 265.071 81.399 261.514"/><path class="cls-1" d="M75.50354,73.90645a166.035,166.035,0,0,1,273.14758-4.11072"/><polygon class="cls-3" points="345.601 70.893 351.15 73.391 350.539 67.336 345.601 70.893"/></g></g></svg>