<?xml version="1.0" encoding="utf-8"?>
<!-- Generator: Adobe Illustrator 26.4.1, SVG Export Plug-In . SVG Version: 6.00 Build 0)  -->
<svg version="1.1" id="Layer_1" xmlns="http://www.w3.org/2000/svg" xmlns:xlink="http://www.w3.org/1999/xlink" x="0px" y="0px"
	 viewBox="0 0 327.2 116.3" style="enable-background:new 0 0 327.2 116.3;" xml:space="preserve">
<style type="text/css">
	.st0{enable-background:new    ;}
</style>
<g id="Layer_2_00000125592751312957383370000014849188194737792190_">
	<g id="Layer_1-2">
		<g class="st0">
			<path d="M0.8,23.8l6-19.6h3l6,19.6h-1l-1.8-6H3.6l-1.8,6H0.8z M7.5,5.2L3.9,16.8h8.7L9.1,5.2H7.5z"/>
			<path d="M27.6,13.9V22c0.1,0.7,0.8,1.1,2.1,1.2L29.6,24c-1.4,0-2.3-0.4-2.9-1.2c-1.9,0.8-3.8,1.2-5.7,1.2c-1.2,0-2.1-0.3-2.7-1
				c-0.6-0.7-1-1.7-1-3c0-1.3,0.3-2.3,0.9-2.9c0.6-0.7,1.6-1.1,2.9-1.2l5.3-0.6v-1.5c0-1.2-0.3-2.1-0.8-2.6
				c-0.5-0.5-1.3-0.8-2.3-0.8c-1.1,0-2.5,0.1-4.4,0.4L18.2,11l-0.1-0.9c2.1-0.3,3.9-0.5,5.4-0.5C26.2,9.5,27.6,11,27.6,13.9z
				 M19.1,17.7c-0.4,0.5-0.7,1.3-0.7,2.3c0,1,0.2,1.8,0.7,2.3c0.5,0.6,1.1,0.8,1.9,0.8s1.7-0.1,2.6-0.3c0.9-0.2,1.6-0.4,2.2-0.6
				l0.8-0.3v-5.7l-5.2,0.5C20.3,16.9,19.5,17.2,19.1,17.7z"/>
		</g>
		<g class="st0">
			<path d="M31.9,4.2h6.7c3.8,0,5.7,1.6,5.7,4.8c0,2.4-0.9,4-2.7,4.6c2.3,0.6,3.5,2.2,3.5,4.7c0,2-0.5,3.4-1.5,4.2
				c-1,0.8-2.5,1.2-4.4,1.2h-7.3V4.2z M38.7,5.2H33v8.1h6c1.5,0,2.6-0.3,3.3-1c0.7-0.7,1-1.7,1-3.1c0-1.4-0.4-2.4-1.1-3
				C41.4,5.5,40.3,5.2,38.7,5.2z M39,14.3h-6v8.6h6.2c1.5,0,2.7-0.3,3.6-1c0.8-0.7,1.3-1.8,1.3-3.5C44,15.6,42.4,14.3,39,14.3z"/>
		</g>
		<g class="st0">
			<path d="M49,10.7c1.5-0.7,3.2-1.1,4.9-1.1c1.7,0,3,0.5,3.6,1.6c0.7,1.1,1,2.9,1,5.6c0,2.6-0.4,4.5-1.3,5.6s-2.6,1.7-5.1,1.7
				c-1.3,0-2.5-0.1-3.6-0.2L48,23.8V3.4h1V10.7z M49,23c1.5,0.1,2.6,0.2,3.5,0.2c0.9,0,1.7-0.1,2.4-0.4c0.7-0.2,1.3-0.7,1.6-1.3
				s0.6-1.3,0.7-2c0.1-0.7,0.2-1.7,0.2-3c0-2.2-0.3-3.8-0.8-4.7c-0.5-0.9-1.5-1.4-3-1.4c-0.7,0-1.5,0.1-2.3,0.3s-1.4,0.4-1.8,0.6
				L49,11.6V23z"/>
		</g>
		<g class="st0">
			<path d="M73.4,23.5c-1.9,0.4-3.6,0.6-5.1,0.6c-1.5,0-2.7-0.2-3.6-0.7s-1.6-1.1-2.1-2c-0.5-0.9-0.8-1.9-1-3.1s-0.3-2.5-0.3-3.9
				s0.1-2.7,0.2-3.7s0.3-1.9,0.6-2.8c0.3-0.9,0.7-1.6,1.2-2.2c1.1-1.2,2.8-1.8,5-1.8c1.6,0,3.4,0.2,5.2,0.5l-0.1,1
				c-1.8-0.4-3.3-0.6-4.7-0.6c-1.3,0-2.3,0.2-3.1,0.4c-0.7,0.3-1.3,0.7-1.7,1.2s-0.7,1.1-1,2c-0.2,0.8-0.4,1.7-0.5,2.5
				s-0.1,1.9-0.1,3.1c0,1.2,0,2.3,0.1,3.1c0.1,0.8,0.2,1.7,0.5,2.5s0.6,1.4,1,1.9c1,1,2.4,1.5,4.3,1.5c1.5,0,3.2-0.2,5.1-0.6
				L73.4,23.5z"/>
		</g>
		<g class="st0">
			<path d="M81,10.4c-1.8,0-3,0.4-3.7,1.3c-0.7,0.9-1,2.5-1,4.9s0.3,4.1,0.9,5c0.6,1,1.9,1.4,3.8,1.4l3.4-0.3l0.1,0.9
				c-1.6,0.2-2.7,0.3-3.4,0.3c-2.3,0-3.8-0.5-4.6-1.6c-0.8-1.1-1.2-3-1.2-5.7c0-2.7,0.4-4.6,1.3-5.6s2.3-1.5,4.5-1.5l3.4,0.3
				l-0.1,0.9C82.8,10.5,81.7,10.4,81,10.4z"/>
		</g>
		<g class="st0">
			<path d="M94.4,23.8h-7.3V4.2h7.3c1.2,0,2.2,0.3,3.1,0.8c0.9,0.5,1.5,1.2,2,2.2c0.5,0.9,0.9,1.9,1.1,3c0.2,1.1,0.3,2.3,0.3,3.6
				c0,1.3-0.1,2.5-0.4,3.7c-0.2,1.1-0.6,2.2-1.1,3.2c-0.5,1-1.2,1.8-2,2.3C96.6,23.5,95.6,23.8,94.4,23.8z M98.7,19.9
				c0.4-0.9,0.7-1.9,0.9-2.9c0.2-1,0.3-2.2,0.3-3.5s-0.2-2.6-0.5-3.8c-0.3-1.2-0.9-2.3-1.8-3.2c-0.9-0.9-2-1.3-3.3-1.3h-6.3v17.7
				h6.3c1,0,1.9-0.3,2.6-0.8C97.7,21.5,98.3,20.8,98.7,19.9z"/>
		</g>
		<g class="st0">
			<path d="M114.1,3.4v20.4h-1v-1.2c-0.5,0.4-1.3,0.7-2.3,1c-1,0.3-1.8,0.4-2.4,0.4c-0.6,0-1.1,0-1.4-0.1s-0.7-0.2-1.2-0.4
				c-0.5-0.3-0.9-0.6-1.2-1.1s-0.6-1.2-0.8-2.1c-0.2-0.9-0.4-2-0.4-3.3c0-2.5,0.4-4.4,1.3-5.6c0.9-1.2,2.4-1.8,4.6-1.8
				c1.1,0,2.3,0.1,3.7,0.3V3.4H114.1z M107,23c0.4,0.1,0.8,0.2,1.4,0.2c0.6,0,1.3-0.1,2.1-0.4s1.4-0.5,1.9-0.7l0.7-0.4V10.8
				c-1.5-0.2-2.7-0.3-3.7-0.3c-1.9,0-3.2,0.5-3.9,1.6c-0.7,1.1-1,2.7-1,5c0,2.7,0.4,4.4,1.3,5.2C106.2,22.6,106.6,22.9,107,23z"/>
		</g>
		<g class="st0">
			<path d="M138.8,16l3.4-11.2h1.7l3.4,11.2h-0.6l-1-3.4h-5.3l-1,3.4H138.8z M142.6,5.4l-2,6.7h5l-2-6.7H142.6z"/>
		</g>
		<g class="st0">
			<path d="M156.6,4.8h3.8c2.2,0,3.2,0.9,3.2,2.8c0,1.4-0.5,2.3-1.6,2.7c1.3,0.4,2,1.3,2,2.7c0,1.2-0.3,2-0.9,2.4
				c-0.6,0.5-1.4,0.7-2.5,0.7h-4.1V4.8z M160.5,5.4h-3.3V10h3.4c0.9,0,1.5-0.2,1.9-0.6c0.4-0.4,0.6-1,0.6-1.8s-0.2-1.4-0.6-1.7
				C162,5.6,161.4,5.4,160.5,5.4z M160.6,10.6h-3.4v4.9h3.6c0.9,0,1.6-0.2,2-0.6c0.5-0.4,0.7-1,0.7-2
				C163.5,11.4,162.6,10.6,160.6,10.6z"/>
		</g>
		<g class="st0">
			<path d="M180.5,15.9c-1.1,0.2-2,0.3-2.9,0.3c-0.9,0-1.6-0.1-2.1-0.4c-0.5-0.2-0.9-0.6-1.2-1.2c-0.3-0.5-0.5-1.1-0.6-1.8
				c-0.1-0.7-0.2-1.4-0.2-2.3s0-1.6,0.1-2.1c0.1-0.5,0.2-1.1,0.3-1.6c0.2-0.5,0.4-0.9,0.7-1.2c0.6-0.7,1.6-1,2.9-1
				c0.9,0,1.9,0.1,3,0.3l0,0.6c-1-0.2-1.9-0.3-2.7-0.3s-1.3,0.1-1.8,0.3s-0.7,0.4-1,0.7c-0.2,0.3-0.4,0.6-0.6,1.1
				c-0.1,0.5-0.2,1-0.3,1.4c0,0.5-0.1,1.1-0.1,1.8s0,1.3,0.1,1.8c0,0.5,0.1,1,0.3,1.4c0.1,0.5,0.3,0.8,0.6,1.1
				c0.5,0.6,1.4,0.9,2.5,0.9c0.8,0,1.8-0.1,2.9-0.3L180.5,15.9z"/>
		</g>
		<g class="st0">
			<path d="M194.2,16H190V4.8h4.2c0.7,0,1.3,0.1,1.8,0.4s0.9,0.7,1.2,1.2c0.3,0.5,0.5,1.1,0.6,1.7s0.2,1.3,0.2,2.1
				c0,0.7-0.1,1.4-0.2,2.1c-0.1,0.7-0.3,1.3-0.6,1.8c-0.3,0.6-0.7,1-1.2,1.3C195.4,15.9,194.8,16,194.2,16z M196.6,13.8
				c0.2-0.5,0.4-1.1,0.5-1.6c0.1-0.6,0.2-1.2,0.2-2c0-0.8-0.1-1.5-0.3-2.2s-0.5-1.3-1-1.8c-0.5-0.5-1.1-0.8-1.9-0.8h-3.6v10.1h3.6
				c0.6,0,1.1-0.2,1.5-0.5C196.1,14.7,196.4,14.3,196.6,13.8z"/>
		</g>
		<g class="st0">
			<path d="M207.8,16V4.8h6.5v0.5h-6V10h5v0.5h-5v4.9h6V16H207.8z"/>
		</g>
		<g class="st0">
			<path d="M224,16V4.8h6.4v0.5h-5.8v5.1h5V11h-5V16H224z"/>
		</g>
		<g class="st0">
			<path d="M244,11v-0.5h3v5.3c-1.4,0.3-2.5,0.4-3.5,0.4c-1.6,0-2.7-0.5-3.3-1.4c-0.6-0.9-0.9-2.4-0.9-4.3c0-0.9,0.1-1.7,0.2-2.4
				c0.1-0.7,0.3-1.3,0.6-1.8c0.6-1.1,1.7-1.6,3.4-1.6c0.9,0,2,0.1,3,0.3l0.5,0.1l0,0.6c-1.3-0.3-2.4-0.4-3.3-0.4
				c-0.9,0-1.5,0.1-2,0.4c-0.5,0.2-0.8,0.6-1.1,1.1c-0.3,0.5-0.4,1-0.5,1.6c-0.1,0.6-0.1,1.3-0.1,2.2c0,0.9,0.1,1.6,0.2,2.2
				s0.3,1.1,0.5,1.6c0.5,0.9,1.5,1.4,2.9,1.4c0.8,0,1.8-0.1,2.9-0.3V11H244z"/>
		</g>
		<g class="st0">
			<path d="M264.2,16v-5.3h-6.7V16H257V4.8h0.6v5.3h6.7V4.8h0.6V16H264.2z"/>
		</g>
		<g class="st0">
			<path d="M275.1,16V4.8h0.6V16H275.1z"/>
		</g>
		<g class="st0">
			<path d="M287.6,4.8v9.9c0,0.8-0.1,1.4-0.3,1.7c-0.1,0.2-0.2,0.3-0.4,0.4s-0.3,0.2-0.5,0.2c-0.4,0.1-0.9,0.1-1.6,0.1v-0.5
				c1,0,1.6-0.1,1.8-0.3c0.2-0.2,0.3-0.5,0.4-0.8c0-0.3,0-0.7,0-1V4.8H287.6z"/>
		</g>
		<g class="st0">
			<path d="M298.4,10.8V16h-0.6V4.8h0.6v5.4h2.1l3.5-5.4h0.7l-3.7,5.6l4,5.6h-0.7l-3.7-5.3H298.4z"/>
		</g>
		<g class="st0">
			<path d="M320.1,16h-6V4.8h0.6v10.7h5.5V16z"/>
		</g>
		<g class="st0">
			<path d="M139.8,35.2V24h1.2l3.9,10.3l3.9-10.3h1.2v11.2h-0.6V24.6h-0.2l-3.9,10.3h-0.8l-3.9-10.3h-0.2v10.7H139.8z"/>
		</g>
		<g class="st0">
			<path d="M159.8,35.2V24h1.4l5.3,10.7h0.4V24h0.6v11.2h-1.4l-5.3-10.7h-0.4v10.7H159.8z"/>
		</g>
		<g class="st0">
			<path d="M177.6,33.9c-0.3-0.5-0.5-1.1-0.7-1.8c-0.1-0.7-0.2-1.5-0.2-2.5c0-2,0.3-3.4,0.9-4.4c0.6-0.9,1.7-1.4,3.4-1.4
				s2.7,0.5,3.4,1.4c0.6,0.9,0.9,2.4,0.9,4.4c0,2-0.3,3.4-0.9,4.3s-1.7,1.3-3.4,1.3S178.2,34.9,177.6,33.9z M178,33.5
				c0.3,0.5,0.6,0.8,1.1,1c0.5,0.2,1.1,0.3,1.9,0.3s1.4-0.1,1.9-0.3c0.5-0.2,0.9-0.5,1.1-1s0.4-1,0.5-1.6s0.1-1.4,0.1-2.3
				c0-1.8-0.3-3.1-0.8-4c-0.5-0.9-1.5-1.3-2.9-1.3c-1.5,0-2.5,0.5-3,1.4c-0.3,0.5-0.4,1-0.5,1.6c-0.1,0.6-0.2,1.4-0.2,2.3
				s0,1.6,0.1,2.2C177.6,32.5,177.8,33,178,33.5z"/>
		</g>
		<g class="st0">
			<path d="M198.6,31.1h-3.5v4.1h-0.6V24h4.1c1.2,0,2,0.3,2.5,0.8c0.5,0.6,0.8,1.4,0.8,2.6C202,29.9,200.9,31.1,198.6,31.1z
				 M195.1,30.6h3.5c1.8,0,2.7-1,2.7-3.1c0-1-0.2-1.7-0.6-2.2s-1.1-0.7-2.1-0.7h-3.5V30.6z"/>
		</g>
		<g class="st0">
			<path d="M216.4,35.2c-0.5,0.1-1.1,0.2-1.9,0.2s-1.4-0.1-2-0.4c-0.6-0.2-1-0.6-1.3-1.1c-0.3-0.5-0.5-1.1-0.7-1.8
				c-0.1-0.7-0.2-1.5-0.2-2.5c0-2,0.3-3.4,0.9-4.4c0.6-0.9,1.7-1.4,3.4-1.4c1.6,0,2.7,0.5,3.4,1.4c0.6,0.9,0.9,2.4,0.9,4.4
				c0,1.5-0.1,2.6-0.4,3.4c-0.3,0.8-0.8,1.4-1.5,1.8l1.4,2.2l-0.6,0.3L216.4,35.2z M211.7,33.5c0.3,0.5,0.6,0.8,1.1,1
				c0.5,0.2,1.1,0.3,1.9,0.3s1.4-0.1,1.9-0.3c0.5-0.2,0.9-0.5,1.1-1c0.3-0.5,0.4-1,0.5-1.6c0.1-0.6,0.1-1.4,0.1-2.3
				c0-1.8-0.3-3.1-0.8-4s-1.5-1.3-2.9-1.3c-1.5,0-2.5,0.5-3,1.4c-0.3,0.5-0.4,1-0.5,1.6s-0.2,1.4-0.2,2.3s0,1.6,0.1,2.2
				C211.2,32.5,211.4,33,211.7,33.5z"/>
		</g>
		<g class="st0">
			<path d="M228.8,30.6v4.6h-0.6V24h4c1.1,0,2,0.3,2.5,0.8c0.5,0.5,0.8,1.3,0.8,2.4c0,1.9-0.8,3-2.3,3.3l2.5,4.7h-0.7l-2.5-4.6
				H228.8z M235,27.2c0-0.9-0.2-1.6-0.7-2c-0.4-0.4-1.1-0.6-2.1-0.6h-3.4v5.5h3.4C234.1,30.1,235,29.1,235,27.2z"/>
		</g>
		<g class="st0">
			<path d="M247.7,24.4c-1.9,0-2.8,0.7-2.8,2.2c0,0.7,0.1,1.2,0.3,1.5c0.1,0.2,0.3,0.3,0.4,0.4c0.1,0.1,0.3,0.2,0.6,0.3
				c0.4,0.1,1,0.2,1.7,0.4c1.2,0.2,2,0.5,2.5,0.8c0.5,0.4,0.8,1,0.8,2c0,1.2-0.3,2.1-0.8,2.6c-0.6,0.5-1.4,0.8-2.6,0.8
				c-0.7,0-1.6-0.1-2.8-0.2l-0.6-0.1l0.1-0.6c1.5,0.2,2.6,0.3,3.5,0.3c1.8,0,2.7-0.9,2.7-2.8c0-0.8-0.2-1.3-0.6-1.6
				c-0.4-0.3-1-0.5-1.9-0.6s-1.5-0.2-1.8-0.3s-0.7-0.3-1-0.5c-0.3-0.2-0.6-0.5-0.7-0.9c-0.1-0.4-0.2-0.8-0.2-1.4
				c0-1.9,1.2-2.8,3.5-2.8c0.7,0,1.6,0.1,2.7,0.2l0.5,0.1l-0.1,0.6C249.3,24.5,248.3,24.4,247.7,24.4z"/>
		</g>
		<g class="st0">
			<path d="M258.9,24.6V24h8v0.5h-3.7v10.7h-0.6V24.6H258.9z"/>
		</g>
		<g class="st0">
			<path d="M275.8,32.1c0,1,0.3,1.7,0.8,2.1c0.5,0.4,1.3,0.6,2.3,0.6s1.8-0.2,2.3-0.6c0.5-0.4,0.8-1.1,0.8-2.1V24h0.6v8.1
				c0,1.2-0.3,2-1,2.5c-0.6,0.5-1.6,0.8-2.8,0.8s-2.1-0.3-2.7-0.8c-0.6-0.5-0.9-1.3-0.9-2.5V24h0.6V32.1z"/>
		</g>
		<g class="st0">
			<path d="M298.8,24h0.6l-3.1,11.2h-1.9L291.3,24h0.6l3,10.7h1L298.8,24z"/>
		</g>
		<g class="st0">
			<path d="M307.2,24h0.6l2.2,10.7h0.6l2.4-10.5h0.7l2.4,10.5h0.6l2.2-10.7h0.6l-2.4,11.2h-1.5L313.5,25l-2.4,10.3h-1.5L307.2,24z"
				/>
		</g>
		<g class="st0">
			<path d="M139.4,43.2l3.3,5.2l3.3-5.2h0.7l-3.6,5.6l3.6,5.6h-0.7l-3.3-5.2l-3.3,5.2h-0.7l3.6-5.6l-3.6-5.6H139.4z"/>
		</g>
		<g class="st0">
			<path d="M159.1,54.4h-0.6v-4.8l-3.6-6.4h0.7l3.3,5.7l3.3-5.7h0.7l-3.6,6.4V54.4z"/>
		</g>
		<g class="st0">
			<path d="M171.1,43.8v-0.5h7.2v1.1l-6.6,9.2v0.4h6.6v0.5h-7.2v-1.1l6.6-9.2v-0.4H171.1z"/>
		</g>
		<g class="st0">
			<path d="M193.1,48.8v4.6c0,0.4,0.4,0.6,1.2,0.7l0,0.5c-0.8,0-1.3-0.2-1.6-0.7c-1.1,0.5-2.2,0.7-3.2,0.7c-0.7,0-1.2-0.2-1.5-0.6
				s-0.6-1-0.6-1.7s0.2-1.3,0.5-1.7c0.4-0.4,0.9-0.6,1.7-0.7l3-0.3v-0.8c0-0.7-0.1-1.2-0.4-1.5s-0.7-0.5-1.3-0.5
				c-0.6,0-1.5,0.1-2.5,0.2l-0.5,0.1l0-0.5c1.2-0.2,2.2-0.3,3.1-0.3C192.3,46.3,193.1,47.1,193.1,48.8z M188.2,51
				c-0.3,0.3-0.4,0.7-0.4,1.3s0.1,1,0.4,1.3c0.3,0.3,0.6,0.5,1.1,0.5c0.5,0,1-0.1,1.5-0.2s0.9-0.2,1.2-0.3l0.4-0.2v-3.3l-3,0.3
				C188.9,50.5,188.5,50.7,188.2,51z"/>
		</g>
		<g class="st0">
			<path d="M203.7,46.9c0.9-0.4,1.8-0.6,2.8-0.6c1,0,1.7,0.3,2.1,0.9c0.4,0.6,0.6,1.7,0.6,3.2s-0.3,2.6-0.8,3.2
				c-0.5,0.6-1.5,1-2.9,1c-0.7,0-1.4,0-2-0.1l-0.4,0V42.8h0.6V46.9z M203.7,54c0.8,0.1,1.5,0.1,2,0.1s1-0.1,1.4-0.2
				c0.4-0.1,0.7-0.4,0.9-0.7c0.2-0.3,0.4-0.7,0.4-1.1c0.1-0.4,0.1-1,0.1-1.7c0-1.3-0.1-2.2-0.4-2.7c-0.3-0.5-0.9-0.8-1.7-0.8
				c-0.4,0-0.9,0.1-1.3,0.2c-0.5,0.1-0.8,0.2-1.1,0.3l-0.4,0.2V54z"/>
		</g>
		<g class="st0">
			<path d="M221.8,46.8c-1,0-1.7,0.3-2.1,0.8c-0.4,0.5-0.6,1.4-0.6,2.8c0,1.4,0.2,2.3,0.5,2.9c0.4,0.5,1.1,0.8,2.2,0.8l1.9-0.1
				l0,0.5c-0.9,0.1-1.5,0.1-2,0.1c-1.3,0-2.2-0.3-2.6-0.9c-0.4-0.6-0.7-1.7-0.7-3.3s0.2-2.6,0.7-3.2c0.5-0.6,1.3-0.9,2.5-0.9
				l1.9,0.2l0,0.5C222.8,46.9,222.2,46.8,221.8,46.8z"/>
		</g>
		<g class="st0">
			<path d="M238.8,42.8v11.7h-0.6v-0.7c-0.3,0.2-0.7,0.4-1.3,0.6c-0.6,0.2-1,0.3-1.4,0.3c-0.3,0-0.6,0-0.8,0c-0.2,0-0.4-0.1-0.7-0.3
				c-0.3-0.1-0.5-0.3-0.7-0.6c-0.2-0.3-0.3-0.7-0.5-1.2c-0.1-0.5-0.2-1.2-0.2-1.9c0-1.5,0.2-2.5,0.7-3.2c0.5-0.7,1.4-1,2.6-1
				c0.6,0,1.3,0.1,2.1,0.2v-3.7H238.8z M234.7,54c0.2,0.1,0.5,0.1,0.8,0.1s0.7-0.1,1.2-0.2s0.8-0.3,1.1-0.4l0.4-0.2V47
				c-0.8-0.1-1.5-0.2-2.1-0.2c-1.1,0-1.8,0.3-2.2,0.9c-0.4,0.6-0.6,1.6-0.6,2.8c0,1.5,0.2,2.5,0.7,3C234.3,53.8,234.5,53.9,234.7,54
				z"/>
		</g>
		<g class="st0">
			<path d="M253.9,54l0.5,0l0,0.5c-1.2,0.1-2.2,0.1-3,0.1c-1.1,0-1.9-0.4-2.4-1c-0.4-0.7-0.7-1.7-0.7-3.1c0-2.8,1.1-4.1,3.2-4.1
				c1,0,1.8,0.3,2.3,0.9c0.5,0.6,0.8,1.6,0.8,2.9v0.5H249c0,1.2,0.2,2,0.5,2.6s1,0.8,1.8,0.8C252.2,54.1,253,54,253.9,54z M249,50.2
				h5.1c0-1.2-0.2-2.1-0.6-2.6c-0.4-0.5-1-0.8-1.9-0.8C249.9,46.8,249,47.9,249,50.2z"/>
		</g>
		<g class="st0">
			<path d="M265.1,47v7.5h-0.6V47h-1.1v-0.5h1.1v-1c0-1.1,0.1-1.9,0.4-2.3c0.3-0.4,0.8-0.6,1.6-0.6l1.5,0v0.5c-0.7,0-1.2,0-1.5,0
				c-0.6,0-1,0.2-1.2,0.5s-0.3,0.9-0.3,1.9v1h2.6V47H265.1z"/>
		</g>
		<g class="st0">
			<path d="M282.9,55.7c0,0.9-0.3,1.6-0.8,1.9c-0.5,0.4-1.4,0.6-2.7,0.6c-1.2,0-2.1-0.2-2.5-0.5c-0.4-0.4-0.6-1-0.6-2
				c0-0.6,0.2-1.1,0.6-1.5c0.1-0.1,0.4-0.3,0.8-0.6c-0.2-0.1-0.4-0.5-0.4-1c0-0.1,0.1-0.5,0.4-1l0.1-0.3c-0.9-0.3-1.4-1.1-1.4-2.4
				c0-1.8,0.9-2.7,2.7-2.7c0.6,0,1,0.1,1.5,0.2l0.2,0l2.2,0V47h-1.7c0.4,0.4,0.6,1.1,0.6,2c0,0.9-0.2,1.6-0.7,2s-1.2,0.6-2.2,0.6
				c-0.3,0-0.6,0-0.9-0.1c-0.2,0.6-0.4,1-0.4,1.2c0,0.2,0,0.3,0,0.4c0,0.1,0.1,0.2,0.1,0.2c0.1,0.1,0.2,0.1,0.4,0.1
				c0.3,0.1,1,0.1,1.9,0.1c0.9,0,1.6,0.1,2,0.4S282.9,54.8,282.9,55.7z M276.9,55.7c0,0.8,0.2,1.3,0.5,1.6s1,0.4,2,0.4
				s1.8-0.2,2.2-0.5c0.4-0.3,0.7-0.8,0.7-1.6s-0.2-1.2-0.5-1.4c-0.3-0.2-0.9-0.3-1.8-0.3l-1.9,0c-0.5,0.3-0.8,0.6-1,0.8
				C277,55,276.9,55.3,276.9,55.7z M277,49c0,0.8,0.2,1.3,0.5,1.6c0.3,0.3,0.9,0.5,1.7,0.5c0.8,0,1.4-0.2,1.7-0.5s0.5-0.9,0.5-1.7
				s-0.2-1.4-0.5-1.7s-0.9-0.5-1.7-0.5c-0.8,0-1.4,0.2-1.7,0.5C277.2,47.6,277,48.2,277,49z"/>
		</g>
		<g class="st0">
			<path d="M292.7,54.4h-0.6V42.8h0.6v4.2c0.9-0.4,1.9-0.6,2.9-0.6s1.7,0.3,2,0.8c0.3,0.5,0.5,1.6,0.5,3.2v4.2h-0.6v-4.1
				c0-1.4-0.1-2.3-0.4-2.8c-0.3-0.5-0.8-0.7-1.7-0.7c-0.4,0-0.9,0.1-1.3,0.2s-0.8,0.2-1.1,0.3l-0.4,0.2V54.4z"/>
		</g>
		<g class="st0">
			<path d="M308,44.1v-0.9h0.6v0.9H308z M308,54.4v-8h0.6v8H308z"/>
		</g>
		<g class="st0">
			<path d="M318.5,54.3v-7.9h0.6v7.9c0,0.9-0.2,1.6-0.5,2.1s-1,1-2,1.5l-0.2-0.5c0.9-0.5,1.5-0.9,1.8-1.3
				C318.4,55.8,318.5,55.2,318.5,54.3z M318.5,44.1v-0.9h0.6v0.9H318.5z"/>
		</g>
		<g class="st0">
			<path d="M140.1,73.6h-0.6V62h0.6V69h1.5l2.8-3.4h0.7l-2.9,3.6l3.1,4.4h-0.7l-2.9-4.1h-1.5V73.6z"/>
		</g>
		<g class="st0">
			<path d="M153.5,73.6V62h0.6v11.7H153.5z"/>
		</g>
		<g class="st0">
			<path d="M163.8,73.6h-0.6v-8h0.6v0.6c0.1-0.1,0.2-0.1,0.4-0.2c0.2-0.1,0.5-0.2,0.9-0.4c0.5-0.1,0.9-0.2,1.4-0.2
				c1,0,1.7,0.3,2,0.9c0.4-0.2,0.9-0.4,1.4-0.6s1.1-0.3,1.5-0.3c1.1,0,1.8,0.3,2.1,0.8c0.3,0.5,0.5,1.6,0.5,3.2v4.2h-0.6v-4.1
				c0-1.4-0.1-2.3-0.4-2.8c-0.3-0.5-0.8-0.7-1.7-0.7c-0.5,0-0.9,0.1-1.4,0.2c-0.5,0.1-0.8,0.3-1,0.4l-0.4,0.2
				c0.2,0.5,0.3,1.4,0.3,2.7v4.2h-0.6v-4.1c0-1.4-0.1-2.3-0.4-2.8c-0.3-0.5-0.8-0.7-1.7-0.7c-0.4,0-0.9,0.1-1.3,0.2
				c-0.4,0.1-0.8,0.3-1,0.4l-0.3,0.2V73.6z"/>
		</g>
		<g class="st0">
			<path d="M183.8,73.6h-0.6v-8h0.6v0.6c0.9-0.5,1.9-0.8,2.9-0.8s1.7,0.3,2,0.8c0.3,0.5,0.5,1.6,0.5,3.2v4.2h-0.6v-4.1
				c0-1.4-0.1-2.3-0.4-2.8c-0.3-0.5-0.8-0.7-1.7-0.7c-0.4,0-0.9,0.1-1.3,0.2c-0.5,0.1-0.8,0.3-1.1,0.4l-0.4,0.2V73.6z"/>
		</g>
		<g class="st0">
			<path d="M198.6,66.4c0.5-0.6,1.3-0.9,2.5-0.9c1.2,0,2,0.3,2.5,0.9c0.5,0.6,0.7,1.7,0.7,3.2c0,1.6-0.2,2.6-0.7,3.2
				c-0.4,0.6-1.3,0.9-2.6,0.9c-1.3,0-2.2-0.3-2.6-0.9c-0.4-0.6-0.7-1.7-0.7-3.2C197.9,68.1,198.1,67,198.6,66.4z M199.7,73.1
				c0.3,0.1,0.8,0.2,1.4,0.2s1.1-0.1,1.4-0.2c0.3-0.1,0.6-0.4,0.8-0.7s0.3-0.7,0.4-1.1c0.1-0.4,0.1-1,0.1-1.8c0-1.3-0.2-2.3-0.6-2.8
				c-0.4-0.5-1.1-0.7-2.1-0.7c-1,0-1.7,0.2-2.1,0.7c-0.4,0.5-0.6,1.4-0.6,2.8c0,0.8,0,1.3,0.1,1.8c0.1,0.4,0.2,0.8,0.4,1.1
				S199.4,73,199.7,73.1z"/>
		</g>
		<g class="st0">
			<path d="M213.2,77.3V65.6h0.6v0.7c0.3-0.2,0.7-0.4,1.3-0.6c0.6-0.2,1-0.3,1.5-0.3c1,0,1.7,0.3,2.1,1s0.6,1.7,0.6,3.1
				c0,1.4-0.3,2.5-0.8,3.2s-1.4,1-2.6,1c-0.7,0-1.4-0.1-2.1-0.2v3.8H213.2z M216.5,66c-0.4,0-0.8,0.1-1.3,0.2s-0.8,0.3-1.1,0.4
				l-0.4,0.2V73c0.8,0.1,1.5,0.2,2.1,0.2c1,0,1.7-0.3,2.2-0.9c0.4-0.6,0.6-1.5,0.6-2.8s-0.2-2.2-0.5-2.8
				C217.7,66.3,217.2,66,216.5,66z"/>
		</g>
		<g class="st0">
			<path d="M233.1,73.2c-0.8,0.4-1.7,0.6-2.7,0.6s-1.7-0.3-2.2-1c-0.4-0.6-0.6-1.7-0.6-3.1c0-1.5,0.3-2.5,0.8-3.2
				c0.5-0.7,1.5-1,2.8-1l2.4,0.1v11.7h-0.6V73.2z M231.3,66c-1.2,0-2,0.3-2.4,0.9c-0.4,0.6-0.6,1.5-0.6,2.8c0,1.3,0.2,2.2,0.5,2.8
				c0.3,0.6,0.9,0.9,1.8,0.9c0.4,0,0.9-0.1,1.3-0.2c0.4-0.1,0.8-0.2,1-0.3l0.3-0.2v-6.5C232.3,66,231.7,66,231.3,66z"/>
		</g>
		<g class="st0">
			<path d="M242.8,73.6v-8h0.6v1.2c0.3-0.3,0.8-0.5,1.4-0.8c0.6-0.3,1.2-0.5,1.7-0.6v0.6c-0.5,0.1-1,0.3-1.5,0.5
				c-0.5,0.2-0.9,0.4-1.2,0.6l-0.4,0.3v6.2H242.8z"/>
		</g>
		<g class="st0">
			<path d="M256.9,66c-1.4,0-2.1,0.5-2.1,1.6c0,0.5,0.1,0.9,0.4,1.1c0.3,0.2,1,0.4,2,0.6c1,0.2,1.7,0.4,2.1,0.6
				c0.4,0.3,0.6,0.8,0.6,1.6s-0.3,1.4-0.8,1.8s-1.3,0.6-2.3,0.6c-0.5,0-1.3-0.1-2.2-0.2l-0.5-0.1l0.1-0.5c1.2,0.2,2.1,0.3,2.8,0.3
				s1.2-0.1,1.6-0.4s0.6-0.7,0.6-1.4s-0.2-1.1-0.5-1.3c-0.3-0.2-1-0.4-2-0.5c-1-0.2-1.7-0.4-2.1-0.6s-0.6-0.7-0.6-1.3
				c0-0.6,0.1-1.1,0.4-1.4s0.6-0.6,1-0.7c0.4-0.1,0.8-0.2,1.2-0.2c0.9,0,1.7,0.1,2.4,0.2l0.4,0.1l0,0.5
				C258.5,66.1,257.6,66,256.9,66z"/>
		</g>
		<g class="st0">
			<path d="M272.5,66.2h-2.9v4.2c0,1.2,0.1,2,0.3,2.4c0.2,0.4,0.6,0.6,1.2,0.6l1.6-0.1l0,0.5c-0.7,0.1-1.2,0.1-1.6,0.1
				c-0.8,0-1.3-0.2-1.6-0.6c-0.3-0.4-0.4-1.1-0.4-2.3v-4.8h-1.3v-0.5h1.3V63h0.6v2.6h2.9V66.2z"/>
		</g>
		<g class="st0">
			<path d="M285.7,65.6h0.6v8h-0.6V73c-0.1,0.1-0.2,0.1-0.4,0.2s-0.5,0.2-0.9,0.4c-0.5,0.1-0.9,0.2-1.3,0.2c-1.1,0-1.8-0.3-2.1-0.8
				c-0.3-0.5-0.5-1.6-0.5-3.2v-4.2h0.6v4.1c0,1.4,0.1,2.3,0.4,2.8c0.3,0.5,0.8,0.7,1.7,0.7c0.4,0,0.9-0.1,1.3-0.2
				c0.4-0.1,0.8-0.3,1-0.4l0.3-0.2V65.6z"/>
		</g>
		<g class="st0">
			<path d="M294.6,65.6h0.7l2.3,7.5h0.7l2.3-7.5h0.6l-2.5,8h-1.6L294.6,65.6z"/>
		</g>
		<g class="st0">
			<path d="M308.8,65.6h0.6l2,7.5h0.2l2.4-7.3h0.6l2.4,7.3h0.2l2-7.5h0.6l-2.2,8h-1.1l-2.2-7.2l-2.2,7.2H311L308.8,65.6z"/>
		</g>
		<g class="st0">
			<path d="M138.8,84.8h0.7l2.4,3.6l2.4-3.6h0.7l-2.7,4l2.7,4h-0.7l-2.4-3.6l-2.4,3.6h-0.7l2.7-4L138.8,84.8z"/>
		</g>
		<g class="st0">
			<path d="M153,84.8h0.6l2.4,7.5h0.7l2.4-7.5h0.6l-3.7,11.7h-0.6l1.2-3.7h-1L153,84.8z"/>
		</g>
		<g class="st0">
			<path d="M168,85.4v-0.5h5.9v0.5l-5.2,7h5.2v0.5H168v-0.5l5.2-7H168z"/>
		</g>
		<g class="st0">
			<path d="M187.7,82.3v10.6h-0.6v-9.9l-3,2l-0.3-0.5l3.3-2.2H187.7z"/>
		</g>
		<g class="st0">
			<path d="M205.9,92.8h-6.7v-0.5l3.6-3.9c0.5-0.6,0.9-1,1.2-1.3c0.2-0.3,0.5-0.6,0.7-1.1c0.2-0.4,0.3-0.9,0.3-1.3
				c0-0.8-0.2-1.3-0.7-1.7c-0.4-0.3-1.1-0.5-2-0.5c-0.7,0-1.5,0.1-2.4,0.3l-0.4,0.1l-0.1-0.5c1-0.3,2-0.4,3-0.4s1.8,0.2,2.4,0.6
				c0.5,0.4,0.8,1.1,0.8,2.1c0,0.7-0.2,1.3-0.5,1.9c-0.3,0.5-0.9,1.2-1.6,2l-3.5,3.7h5.9V92.8z"/>
		</g>
		<g class="st0">
			<path d="M215.5,82.5c1-0.2,2.1-0.4,3.2-0.4s1.9,0.2,2.4,0.6c0.5,0.4,0.7,1.1,0.7,2c0,0.4-0.1,0.7-0.2,1c-0.1,0.3-0.3,0.5-0.4,0.7
				c-0.2,0.2-0.3,0.3-0.5,0.4c-0.3,0.2-0.5,0.3-0.7,0.3c0.7,0.2,1.2,0.5,1.6,0.8s0.5,1.1,0.5,2c0,2-1.1,2.9-3.3,2.9
				c-0.9,0-1.9-0.1-3-0.3l-0.5-0.1l0.1-0.5c1.1,0.2,2.2,0.4,3.4,0.4c1.8,0,2.7-0.8,2.7-2.5c0-0.9-0.2-1.5-0.7-1.8s-1.1-0.6-1.9-0.6
				h-2.1V87h2.1c0.5,0,1-0.2,1.5-0.6s0.8-1,0.8-1.7s-0.2-1.3-0.6-1.6c-0.4-0.3-1-0.5-2-0.5s-1.8,0.1-2.6,0.3l-0.4,0.1L215.5,82.5z"
				/>
		</g>
		<g class="st0">
			<path d="M236.6,92.8v-2.3H231v-0.5l3.3-7.8h0.6l-3.2,7.7h4.9v-3.5h0.6V90h1.6v0.5h-1.6v2.3H236.6z"/>
		</g>
		<g class="st0">
			<path d="M254.1,82.3v0.6h-5.4l-0.3,4.2c0.4-0.2,0.8-0.4,1.4-0.6s1.1-0.2,1.5-0.2c2.2,0,3.3,1,3.3,3.1c0,1.2-0.3,2.1-0.9,2.7
				c-0.6,0.6-1.5,0.9-2.6,0.9c-0.9,0-1.9-0.1-2.9-0.3l-0.5-0.1l0.1-0.5c1.2,0.3,2.2,0.4,3.2,0.4s1.7-0.3,2.2-0.8
				c0.5-0.5,0.8-1.3,0.8-2.3c0-1.7-0.9-2.5-2.7-2.5c-0.4,0-0.9,0.1-1.4,0.2s-0.8,0.3-1.1,0.4l-0.4,0.2l-0.5-0.1l0.3-5.3H254.1z"/>
		</g>
		<g class="st0">
			<path d="M270.3,82.8c-0.9-0.1-1.8-0.1-2.8-0.1c-1,0-1.8,0.4-2.3,1.1c-0.6,0.8-0.9,1.9-0.9,3.3l0.4-0.2c0.3-0.1,0.7-0.2,1.2-0.4
				c0.5-0.1,1-0.2,1.4-0.2c2.3,0,3.5,1.1,3.5,3.2c0,1.1-0.3,2-0.9,2.6c-0.6,0.6-1.5,0.9-2.7,0.9c-2.4,0-3.6-1.8-3.6-5.5
				c0-1.8,0.3-3.1,1-4c0.7-0.9,1.7-1.3,2.9-1.3c0.8,0,1.6,0,2.3,0.1l0.4,0L270.3,82.8z M267.4,86.9c-0.4,0-0.9,0.1-1.4,0.2
				c-0.5,0.1-0.9,0.3-1.2,0.4l-0.4,0.2c0.1,3.2,1.1,4.8,3,4.8c1,0,1.7-0.2,2.2-0.8c0.5-0.5,0.8-1.2,0.8-2.1c0-0.9-0.3-1.6-0.8-2
				S268.3,86.9,267.4,86.9z"/>
		</g>
		<g class="st0">
			<path d="M280.3,82.8v-0.5h6.4v1l-4.3,9.7l-0.6-0.2l4.2-9.6v-0.4H280.3z"/>
		</g>
		<g class="st0">
			<path d="M299.6,82.1c1.2,0,2.1,0.2,2.8,0.6c0.7,0.4,1,1.1,1,2c0,0.7-0.2,1.2-0.5,1.6c-0.4,0.4-0.9,0.7-1.6,0.9
				c0.7,0.2,1.3,0.5,1.7,0.9c0.4,0.4,0.6,1,0.6,1.8c0,1.1-0.4,1.9-1.1,2.3c-0.7,0.4-1.7,0.7-2.8,0.7c-1.2,0-2.1-0.2-2.9-0.7
				c-0.7-0.4-1.1-1.2-1.1-2.2c0-0.8,0.2-1.4,0.5-1.8c0.4-0.4,0.9-0.8,1.6-1.1c-0.7-0.2-1.2-0.5-1.5-0.9c-0.3-0.4-0.5-0.9-0.5-1.6
				C295.9,83,297.1,82.1,299.6,82.1z M299.6,92.4c1,0,1.9-0.2,2.5-0.5c0.6-0.4,0.9-1,0.9-1.9c0-0.8-0.3-1.4-0.8-1.7
				c-0.3-0.2-0.5-0.3-0.8-0.4c-0.2-0.1-0.6-0.2-1-0.3h-1.9c-0.7,0.2-1.3,0.5-1.7,0.8c-0.4,0.4-0.6,1-0.6,1.7
				C296.3,91.7,297.4,92.4,299.6,92.4z M302.8,84.7c0-0.7-0.3-1.2-0.8-1.5c-0.5-0.3-1.3-0.5-2.3-0.5c-1,0-1.8,0.2-2.3,0.5
				c-0.5,0.3-0.8,0.8-0.8,1.5s0.2,1.2,0.5,1.6c0.3,0.3,0.9,0.6,1.6,0.8h1.9c0.8-0.2,1.4-0.4,1.7-0.8
				C302.6,85.9,302.8,85.4,302.8,84.7z"/>
		</g>
		<g class="st0">
			<path d="M315.3,92.4c1.1,0,2-0.4,2.6-1.1c0.6-0.7,0.9-1.8,0.9-3.3c-1.2,0.5-2.3,0.7-3.2,0.7c-2.2,0-3.3-1-3.3-3.1
				c0-1.1,0.3-1.9,1-2.5c0.6-0.6,1.5-0.9,2.6-0.9c1.2,0,2.2,0.5,2.8,1.4c0.6,1,0.9,2.4,0.9,4.2s-0.3,3.2-1,4s-1.7,1.2-3,1.2
				c-0.9,0-1.7,0-2.3-0.1l-0.4,0l0.1-0.5C313.5,92.4,314.4,92.4,315.3,92.4z M315.5,88.2c0.4,0,0.8-0.1,1.4-0.2
				c0.5-0.1,1-0.2,1.3-0.4l0.5-0.2c-0.1-3.2-1.1-4.8-3.1-4.8c-0.9,0-1.6,0.3-2.1,0.8c-0.5,0.5-0.8,1.2-0.8,2.1c0,0.9,0.2,1.5,0.7,2
				C313.9,88,314.6,88.2,315.5,88.2z"/>
		</g>
		<g class="st0">
			<path d="M141.2,101.6c0.4-0.2,0.9-0.2,1.6-0.2s1.1,0.1,1.6,0.2c0.4,0.2,0.8,0.5,1.1,0.9c0.6,0.8,1,2.3,1,4.5c0,2-0.3,3.4-1,4.1
				c-0.3,0.4-0.7,0.7-1.1,0.8c-0.4,0.2-0.9,0.2-1.5,0.2c-0.6,0-1.1-0.1-1.5-0.2s-0.8-0.4-1.1-0.8c-0.7-0.8-1-2.1-1-4.1
				c0-2.2,0.3-3.7,1-4.6C140.4,102,140.8,101.7,141.2,101.6z M145.5,103.8c-0.2-0.8-0.6-1.3-1-1.6c-0.4-0.3-1-0.4-1.7-0.4
				c-0.7,0-1.3,0.1-1.7,0.4c-0.9,0.6-1.4,2.2-1.4,4.7c0,1.8,0.3,3.1,0.8,3.7c0.3,0.3,0.6,0.6,1,0.7c0.4,0.1,0.8,0.2,1.4,0.2
				s1.1-0.1,1.5-0.4c0.4-0.2,0.8-0.7,1-1.4s0.4-1.7,0.4-3C145.9,105.6,145.8,104.6,145.5,103.8z"/>
		</g>
		<g class="st0">
			<path d="M158.1,112v-1.3h0.6v1.3H158.1z M158.1,108.6v-7.8h0.6v7.8H158.1z"/>
		</g>
		<g class="st0">
			<path d="M184.3,107.2v0.3c0,1.9-0.2,3.2-0.6,3.8c-0.1,0.2-0.3,0.4-0.4,0.5c-0.1,0.1-0.3,0.2-0.5,0.3c-0.3,0.1-0.7,0.1-1,0.1
				s-0.7,0-0.9-0.1c-0.2-0.1-0.4-0.2-0.5-0.2c-0.2-0.2-0.4-0.4-0.4-0.7c-0.4,0.3-1,0.5-1.6,0.7c-0.6,0.2-1.1,0.3-1.4,0.3
				c-0.3,0-0.6,0-0.8,0c-0.2,0-0.4-0.1-0.7-0.3s-0.5-0.4-0.7-0.6s-0.3-0.7-0.5-1.2c-0.1-0.5-0.2-1.2-0.2-1.9c0-1.5,0.2-2.5,0.7-3.2
				s1.4-1,2.6-1c0.6,0,1.2,0.1,1.8,0.3l0.3,0.1V104h0.6v3.2c0,2.1,0.1,3.4,0.2,3.8c0.1,0.2,0.1,0.3,0.3,0.4c0.1,0.1,0.3,0.2,0.4,0.2
				c0.2,0,0.4,0,0.6,0s0.5,0,0.6,0c0.2,0,0.3-0.1,0.5-0.3c0.2-0.1,0.3-0.4,0.4-0.7c0.2-0.7,0.3-1.8,0.3-3.3v-0.3
				c0-2.1-0.5-3.7-1.4-4.7s-2.5-1.4-4.8-1.4c-2.2,0-3.9,0.5-4.9,1.5c-1,1-1.6,2.8-1.6,5.3c0,1.3,0.1,2.4,0.4,3.3
				c0.3,0.9,0.7,1.6,1.2,2.1c0.6,0.5,1.2,0.9,2,1.1s1.7,0.3,2.9,0.3l2.3-0.2l0,0.5c-1,0.1-1.8,0.1-2.3,0.1c-1.2,0-2.3-0.1-3.1-0.3
				s-1.6-0.6-2.2-1.2c-1.2-1.1-1.8-3-1.8-5.7c0-2.7,0.6-4.7,1.7-5.8c1.2-1.1,2.9-1.7,5.4-1.7c2.4,0,4.2,0.5,5.2,1.6
				S184.3,104.9,184.3,107.2z M176.2,111.6c0.2,0.1,0.5,0.1,0.8,0.1c0.3,0,0.7-0.1,1.2-0.2c0.5-0.2,0.9-0.3,1.2-0.5l0.5-0.2
				c-0.1-1.2-0.2-2.4-0.2-3.5v-2.4c-0.8-0.3-1.5-0.4-2.1-0.4c-1.1,0-1.8,0.3-2.2,0.9s-0.6,1.6-0.6,2.9c0,1.5,0.2,2.5,0.8,2.9
				C175.7,111.4,175.9,111.5,176.2,111.6z"/>
		</g>
		<g class="st0">
			<path d="M199.4,101.8c-0.7,0-1.1,0.2-1.3,0.6c-0.2,0.4-0.3,1.2-0.3,2.4v0.8h2.9v0.5h-2.9v5.4h2.8l1.3-0.3l0.1,0.5l-1.3,0.3h-4.9
				v-0.5h1.5v-5.4h-1.1v-0.5h1.1v-0.8c0-1.3,0.2-2.2,0.5-2.7c0.3-0.5,0.9-0.7,1.7-0.7c0.4,0,0.9,0,1.6,0.1l0.4,0v0.5
				C200.4,101.9,199.8,101.8,199.4,101.8z"/>
		</g>
		<g class="st0">
			<path d="M220.4,109c0,1.1-0.3,2-0.8,2.4s-1.3,0.7-2.4,0.7c-0.2,0-0.3,0-0.4,0l-0.2,1.8c-0.4,0-0.6-0.1-0.6-0.1l0.2-1.7l-2.3-0.2
				l0.1-0.5c0.8,0.1,1.6,0.2,2.3,0.2l0.6-4.8c-1.1-0.2-1.9-0.4-2.3-0.8c-0.5-0.4-0.7-1-0.7-2c0-1.8,1.1-2.7,3.2-2.7
				c0.2,0,0.4,0,0.5,0l0.3-2h0.6l-0.3,2l1.9,0.2l-0.1,0.5c-0.7-0.1-1.3-0.1-2-0.2l-0.6,4.4c1,0.2,1.7,0.4,2.2,0.8
				S220.4,108.1,220.4,109z M214.5,104c0,0.8,0.2,1.4,0.6,1.7c0.4,0.3,1,0.5,2,0.7l0.6-4.4c-0.1,0-0.3,0-0.4,0
				C215.4,101.8,214.5,102.6,214.5,104z M217.2,111.6c1.8,0,2.6-0.8,2.6-2.4c0-0.8-0.2-1.3-0.5-1.6c-0.3-0.3-0.9-0.5-1.8-0.7
				l-0.6,4.7H217.2z"/>
		</g>
		<g class="st0">
			<path d="M233.2,101.3c1.1,0,1.6,0.7,1.6,2.1c0,0.7-0.1,1.3-0.4,1.7s-0.7,0.6-1.2,0.6s-0.9-0.2-1.2-0.6c-0.3-0.4-0.4-0.9-0.4-1.7
				C231.5,102,232.1,101.3,233.2,101.3z M232.1,103.5c0,1.1,0.4,1.7,1.1,1.7s1.1-0.6,1.1-1.7c0-0.6-0.1-1-0.2-1.2
				c-0.2-0.3-0.4-0.4-0.8-0.4c-0.4,0-0.7,0.1-0.8,0.4C232.2,102.5,232.1,102.9,232.1,103.5z M233.7,112.1l3-10.7l0.5,0.1l-3,10.7
				L233.7,112.1z M237.6,107.8c1.1,0,1.6,0.7,1.6,2.1c0,0.7-0.1,1.3-0.4,1.7s-0.7,0.6-1.2,0.6s-0.9-0.2-1.2-0.6
				c-0.3-0.4-0.4-0.9-0.4-1.7C236,108.5,236.5,107.8,237.6,107.8z M236.5,110c0,1.1,0.4,1.7,1.1,1.7c0.7,0,1.1-0.6,1.1-1.7
				c0-0.6-0.1-1-0.2-1.2c-0.2-0.3-0.4-0.4-0.8-0.4c-0.4,0-0.7,0.1-0.8,0.4C236.6,109,236.5,109.4,236.5,110z"/>
		</g>
		<g class="st0">
			<path d="M256.3,106.9l-2.7-4.8l-2.5,4.8h-0.6l2.9-5.4h0.6l3,5.4H256.3z"/>
		</g>
		<g class="st0">
			<path d="M270.6,101.6c0.4-0.4,1-0.6,1.8-0.6c0.8,0,1.4,0.2,1.8,0.6s0.6,1,0.6,1.7s-0.2,1.3-0.6,1.8c-0.4,0.4-1.1,0.8-2,1.1l3,3
				c0.1-0.3,0.2-0.8,0.3-1.4s0.2-1.1,0.2-1.6h0.6c-0.1,1.4-0.3,2.5-0.7,3.4l2.2,2.2l-0.4,0.4l-2.1-2.1c-0.7,1.4-1.9,2.1-3.6,2.1
				c-1.3,0-2.3-0.3-2.8-0.9c-0.6-0.6-0.8-1.4-0.8-2.4c0-1,0.2-1.8,0.6-2.3s1.1-0.8,2-1.1c-0.3-0.4-0.6-0.7-0.7-1
				c-0.1-0.3-0.2-0.7-0.2-1.2C270,102.5,270.2,102,270.6,101.6z M271.9,111.7c1.5,0,2.5-0.7,3.1-2l-3.8-3.8c-0.9,0.2-1.6,0.6-1.9,1
				s-0.5,1-0.5,2s0.2,1.6,0.7,2.1C269.9,111.4,270.8,111.7,271.9,111.7z M270.5,103.2c0,0.8,0.2,1.5,0.7,2l0.6,0.6
				c0.9-0.3,1.6-0.7,1.9-1c0.4-0.4,0.5-0.9,0.5-1.5c0-1.2-0.6-1.8-1.9-1.8C271.1,101.4,270.5,102,270.5,103.2z"/>
		</g>
		<g class="st0">
			<path d="M293.4,103.7h-2.2l0.7,2.1l-0.5,0.2l-0.7-2.1l-1.8,1.3l-0.3-0.4l1.8-1.3l-1.7-1.3l0.3-0.4l1.8,1.3l0.7-2.1l0.5,0.2
				l-0.7,2.1h2.2V103.7z"/>
		</g>
		<g class="st0">
			<path d="M305.6,103.7c-0.3,1.5-0.5,2.7-0.5,3.5s0.1,1.9,0.4,3s0.5,2.1,0.8,2.7l0.4,1H306c-0.1-0.3-0.3-0.6-0.4-1.1
				c-0.2-0.5-0.4-1.3-0.7-2.5s-0.4-2.3-0.4-3.2c0-0.9,0.1-2,0.4-3.2c0.3-1.2,0.5-2.2,0.8-2.9l0.4-1.1h0.6
				C306.2,101,305.9,102.2,305.6,103.7z"/>
		</g>
		<g class="st0">
			<path d="M319,103.9c0.3,1.3,0.4,2.4,0.4,3.3c0,1-0.1,2-0.4,3.1c-0.3,1.1-0.5,2-0.8,2.7l-0.4,1h-0.6c0.4-0.9,0.7-2,1-3.4
				c0.3-1.4,0.5-2.5,0.5-3.4s-0.1-1.9-0.4-3.1s-0.5-2.2-0.8-2.9l-0.4-1.1h0.6c0.1,0.3,0.3,0.7,0.4,1.2
				C318.4,101.7,318.7,102.6,319,103.9z"/>
		</g>
		<g class="st0">
			<path d="M1.2,43.7v-0.5h8v0.5H5.5v10.7H4.9V43.7H1.2z"/>
			<path d="M10.7,44v-0.9h0.6V44H10.7z M10.7,54.3v-8h0.6v8H10.7z"/>
			<path d="M17.7,46.8h-2.9V51c0,1.2,0.1,2,0.3,2.4c0.2,0.4,0.6,0.6,1.2,0.6l1.6-0.1l0,0.5c-0.7,0.1-1.2,0.1-1.6,0.1
				c-0.8,0-1.3-0.2-1.6-0.6c-0.3-0.4-0.4-1.1-0.4-2.3v-4.8H13v-0.5h1.3v-2.6h0.6v2.6h2.9V46.8z"/>
			<path d="M19.2,44v-0.9h0.6V44H19.2z M19.2,54.3v-8h0.6v8H19.2z"/>
			<path d="M22.4,54.3V42.6H23v11.7H22.4z"/>
			<path d="M25.7,54.3V42.6h0.6v11.7H25.7z"/>
			<path d="M28.9,44v-0.9h0.6V44H28.9z M28.9,54.3v-8h0.6v8H28.9z"/>
			<path d="M37.1,46.3h0.6v8h-0.6v-0.6c-0.1,0.1-0.2,0.1-0.4,0.2c-0.2,0.1-0.5,0.2-0.9,0.4c-0.5,0.1-0.9,0.2-1.3,0.2
				c-1.1,0-1.8-0.3-2.1-0.8c-0.3-0.5-0.5-1.6-0.5-3.2v-4.2h0.6v4.1c0,1.4,0.1,2.3,0.4,2.8c0.3,0.5,0.8,0.7,1.7,0.7
				c0.4,0,0.9-0.1,1.3-0.2c0.4-0.1,0.8-0.3,1-0.4l0.3-0.2V46.3z"/>
			<path d="M40.8,54.3h-0.6v-8h0.6V47c0.1-0.1,0.2-0.1,0.4-0.2c0.2-0.1,0.5-0.2,0.9-0.4c0.5-0.1,0.9-0.2,1.4-0.2c1,0,1.7,0.3,2,0.9
				c0.4-0.2,0.9-0.4,1.4-0.6s1.1-0.3,1.5-0.3c1.1,0,1.8,0.3,2.1,0.8c0.3,0.5,0.5,1.6,0.5,3.2v4.2h-0.6v-4.1c0-1.4-0.1-2.3-0.4-2.8
				c-0.3-0.5-0.8-0.7-1.7-0.7c-0.5,0-0.9,0.1-1.4,0.2c-0.5,0.1-0.8,0.3-1,0.4l-0.4,0.2c0.2,0.5,0.3,1.4,0.3,2.7v4.2h-0.6v-4.1
				c0-1.4-0.1-2.3-0.4-2.8c-0.3-0.5-0.8-0.7-1.7-0.7c-0.4,0-0.9,0.1-1.3,0.2c-0.4,0.1-0.8,0.3-1,0.4l-0.3,0.2V54.3z"/>
			<path d="M56,43.7v-0.5h8v0.5h-3.7v10.7h-0.6V43.7H56z"/>
			<path d="M66.1,54.3h-0.6V42.6h0.6v4.2c0.9-0.4,1.9-0.6,2.9-0.6c1,0,1.7,0.3,2,0.8c0.3,0.5,0.5,1.6,0.5,3.2v4.2h-0.6v-4.1
				c0-1.4-0.1-2.3-0.4-2.8c-0.3-0.5-0.8-0.7-1.7-0.7c-0.4,0-0.9,0.1-1.3,0.2s-0.8,0.2-1.1,0.3l-0.4,0.2V54.3z"/>
			<path d="M73.9,44v-0.9h0.6V44H73.9z M73.9,54.3v-8h0.6v8H73.9z"/>
			<path d="M77.6,54.3H77v-8h0.6V47c0.9-0.5,1.9-0.8,2.9-0.8c1,0,1.7,0.3,2,0.8c0.3,0.5,0.5,1.6,0.5,3.2v4.2h-0.6v-4.1
				c0-1.4-0.1-2.3-0.4-2.8c-0.3-0.5-0.8-0.7-1.7-0.7c-0.4,0-0.9,0.1-1.3,0.2c-0.5,0.1-0.8,0.3-1.1,0.4l-0.4,0.2V54.3z"/>
		</g>
	</g>
</g>
</svg>
