<?xml version="1.0" encoding="UTF-8"?><svg xmlns="http://www.w3.org/2000/svg" viewBox="0 0 380 171.95264"><defs><style>.d{fill:#fff;}.e{fill:none;stroke:#000;stroke-linecap:round;stroke-linejoin:round;stroke-width:1.57339px;}</style></defs><g id="a"/><g id="b"><g id="c"><g><path class="d" d="M0,171.95244v-45.03449c0-9.1274,4.31071-13.84219,13.84324-13.84219h19.45729v17.35014h-12.83899c-2.00424,0-3.00957,1.00428-3.00957,3.00532v38.52122H0Z"/><rect class="d" x="43.3327" y="113.07596" width="17.35338" height="58.87668"/><g><path class="d" d="M134.57398,171.95244v-38.4194c0-1.99996-1.10077-3.0096-3.00852-3.0096h-11.03198v41.429h-17.1497v-41.429h-10.83579c-2.0032,0-3.00852,1.00964-3.00852,3.0096v38.4194h-17.15082v-45.03449c0-9.22922,4.61513-13.84219,13.7425-13.84219h51.75569c9.12632,0,13.63963,4.61297,13.63963,13.94506v44.93162h-16.95247Z"/><path class="d" d="M199.15449,130.52344h-15.64812c-2.00856,0-3.00643,1.00964-3.00643,3.0096v17.8528c0,2.1093,.99787,3.21217,3.00643,3.21217h15.64812v-24.07458Zm-21.9674,41.429c-9.32891,0-14.0405-4.41149-14.0405-13.33737v-31.69712c0-9.22922,4.61405-13.84219,13.73716-13.84219h22.27074v-17.35658h17.35125v76.23326h-39.31865Z"/><path class="d" d="M228.47293,171.95244v-45.03449c0-9.1274,4.31071-13.84219,13.84432-13.84219h19.45513v17.35014h-12.83578c-2.0064,0-3.01173,1.00428-3.01173,3.00532v38.52122h-17.45193Z"/></g><rect class="d" x="271.80536" y="113.07596" width="17.3523" height="58.87668"/><g><path class="d" d="M363.04753,171.95244v-38.4194c0-1.99996-1.10182-3.0096-3.00852-3.0096h-11.03414v41.429h-17.14754v-41.429h-10.83579c-2.0032,0-3.00852,1.00964-3.00852,3.0096v38.4194h-17.15082v-45.03449c0-9.22922,4.61301-13.84219,13.74462-13.84219h51.75356c9.12743,0,13.63963,4.61297,13.63963,13.94506v44.93162h-16.95247Z"/><path d="M329.18413,60.96398c-.62061-.30867-1.36872-.1361-1.79419,.41157-1.0697,1.37941-2.24544,2.7095-3.48764,3.95491-7.91623,7.91198-18.43482,12.27094-29.62216,12.27094-11.18839,0-21.70593-4.35791-29.61896-12.26986-16.33193-16.33301-16.33193-42.907,0-59.23896,1.24547-1.24544,2.57769-2.4201,3.95812-3.49081,.54453-.4255,.71815-1.17685,.40729-1.79527-.30648-.6227-1.01174-.93674-1.68056-.7556-8.55182,2.32148-16.39407,6.86911-22.67691,13.15407-9.63219,9.63326-14.93868,22.43902-14.93868,36.06043s5.30649,26.42609,14.93868,36.05827c9.63003,9.63219,22.43899,14.93541,36.05716,14.93541,13.62249,0,26.42713-5.30322,36.05827-14.93541,6.28716-6.285,10.8369-14.12623,13.15835-22.67698,.17689-.66987-.13718-1.37297-.75877-1.68272"/><path d="M294.64876,17.02247l-2.91099-13.09726s1.64085-.51663,3.1671-.51663c1.52408,0,3.16284,.51663,3.16284,.51663l-2.94527,13.10049-.47368-.00324Z"/><path class="e" d="M294.64876,17.02247l-2.91099-13.09726s1.64085-.51663,3.1671-.51663c1.52408,0,3.16284,.51663,3.16284,.51663l-2.94527,13.10049-.47368-.00324Z"/><path d="M294.64876,53.59679l-2.91099,13.09729s1.64085,.51663,3.1671,.51663c1.52408,0,3.16284-.51663,3.16284-.51663l-2.94527-13.10049-.47368,.00321Z"/><path class="e" d="M294.64876,53.59679l-2.91099,13.09729s1.64085,.51663,3.1671,.51663c1.52408,0,3.16284-.51663,3.16284-.51663l-2.94527-13.10049-.47368,.00321Z"/><path d="M285.53801,19.60131l-9.06849-9.88833s1.16292-1.26686,2.48552-2.02999c1.31828-.76309,2.99884-1.13502,2.99884-1.13502l3.99671,12.81861-.41258,.23472Z"/><path class="e" d="M285.53801,19.60131l-9.06849-9.88833s1.16292-1.26686,2.48552-2.02999c1.31828-.76309,2.99884-1.13502,2.99884-1.13502l3.99671,12.81861-.41258,.23472Z"/><path d="M303.82545,51.27615l4.02667,12.79614s1.68056-.37301,3.00211-1.1361c1.32149-.76312,2.48225-2.02891,2.48225-2.02891l-9.10165-9.87335-.40938,.24221Z"/><path class="e" d="M303.82545,51.27615l4.02667,12.79614s1.68056-.37301,3.00211-1.1361c1.32149-.76312,2.48225-2.02891,2.48225-2.02891l-9.10165-9.87335-.40938,.24221Z"/><path d="M278.93758,26.38841l-12.79719-4.02779s.37405-1.68056,1.13714-2.99992c.76309-1.32152,2.02779-2.48336,2.02779-2.48336l9.87442,9.10165-.24217,.40941Z"/><path class="e" d="M278.93758,26.38841l-12.79719-4.02779s.37405-1.68056,1.13714-2.99992c.76309-1.32152,2.02779-2.48336,2.02779-2.48336l9.87442,9.10165-.24217,.40941Z"/><path d="M310.61252,44.67585l9.88829,9.06846s1.26686-1.16184,2.02786-2.48336c.76309-1.32152,1.13714-2.99888,1.13714-2.99888l-12.81969-3.99776-.2336,.41154Z"/><path class="e" d="M310.61252,44.67585l9.88829,9.06846s1.26686-1.16184,2.02786-2.48336c.76309-1.32152,1.13714-2.99888,1.13714-2.99888l-12.81969-3.99776-.2336,.41154Z"/><path d="M276.61724,35.5667l-13.09837,2.91099s-.5166-1.64197-.5166-3.16713c0-1.52624,.5166-3.165,.5166-3.165l13.09941,2.94743-.00105,.47372Z"/><path class="e" d="M276.61724,35.5667l-13.09837,2.91099s-.5166-1.64197-.5166-3.16713c0-1.52624,.5166-3.165,.5166-3.165l13.09941,2.94743-.00105,.47372Z"/><path d="M313.19054,35.5667l13.09726,2.90994s.51764-1.63984,.5166-3.165c.00105-1.52732-.5166-3.165-.5166-3.165l-13.10053,2.94635,.00327,.47372Z"/><path class="e" d="M313.19054,35.5667l13.09726,2.90994s.51764-1.63984,.5166-3.165c.00105-1.52732-.5166-3.165-.5166-3.165l-13.10053,2.94635,.00327,.47372Z"/><path d="M279.19512,44.6767l-9.88836,9.07058s-1.26798-1.16396-2.03002-2.48548c-.76309-1.32152-1.1361-2.99888-1.1361-2.99888l12.8208-3.99776,.23367,.41154Z"/><path class="e" d="M279.19512,44.6767l-9.88836,9.07058s-1.26798-1.16396-2.03002-2.48548c-.76309-1.32152-1.1361-2.99888-1.1361-2.99888l12.8208-3.99776,.23367,.41154Z"/><path d="M310.86987,26.38926l12.79608-4.02779s-.37085-1.67948-1.13714-2.99992c-.761-1.32152-2.02891-2.48228-2.02891-2.48228l-9.87017,9.10165,.24015,.40833Z"/><path class="e" d="M310.86987,26.38926l12.79608-4.02779s-.37085-1.67948-1.13714-2.99992c-.761-1.32152-2.02891-2.48228-2.02891-2.48228l-9.87017,9.10165,.24015,.40833Z"/><path d="M285.982,51.27615l-4.02674,12.79827s-1.68167-.37297-2.99996-1.13502c-1.32044-.76312-2.4844-2.02999-2.4844-2.02999l9.1027-9.87335,.4084,.24008Z"/><path class="e" d="M285.982,51.27615l-4.02674,12.79827s-1.68167-.37297-2.99996-1.13502c-1.32044-.76312-2.4844-2.02999-2.4844-2.02999l9.1027-9.87335,.4084,.24008Z"/><path d="M304.26943,19.60291l9.07163-9.88725s-1.16508-1.26794-2.48656-2.02891c-1.3226-.76525-2.99891-1.1361-2.99891-1.1361l-3.99776,12.81861,.4116,.23364Z"/><path class="e" d="M304.26943,19.60291l9.07163-9.88725s-1.16508-1.26794-2.48656-2.02891c-1.3226-.76525-2.99891-1.1361-2.99891-1.1361l-3.99776,12.81861,.4116,.23364Z"/></g></g></g></g></svg>